<?xml version="1.0" encoding="UTF-8" standalone="no"?>
<svg
   xmlns="http://www.w3.org/2000/svg"
   viewBox="0 0 720 380"
   height="380"
   width="720">
<style
   id="style165">text{font-family:Arial, sans-serif;font-weight:bold;}</style>
<g
   id="g193">
	<g
   id="g175">
		<text
   id="text167"
   font-size="24"
   transform="matrix(1 0 0 1 51.3335 66)">BG Color: #FCA469</text>
		<g
   id="g173">
			<rect
   id="rect169"
   height="69"
   width="268"
   fill="#FCA469"
   y="76.898"
   x="51.333" />
			<text
   id="text171"
   font-size="32"
   fill="#FFFFFF"
   transform="matrix(1 0 0 1 70.3335 122.1016)">#FFFFFF</text>
		</g>
	</g>
	<g
   id="g185">
		<text
   id="text177"
   font-size="24"
   transform="matrix(1 0 0 1 51.3335 200)">BG Color: #B8B8B8</text>
		<g
   id="g183">
			<rect
   id="rect179"
   height="69"
   width="268"
   fill="#B8B8B8"
   y="210.398"
   x="51.333" />
			<text
   id="text181"
   font-size="32"
   fill="#FFFFFF"
   transform="matrix(1 0 0 1 70.3335 255.6016)">#FFFFFF</text>
		</g>
	</g>
	<g
   id="g191">
		<rect
   id="rect187"
   height="14.5"
   width="202"
   fill="#CC2F27"
   y="302"
   x="51.333" />
		<text
   id="text189"
   font-size="18"
   fill="#CC2F27"
   transform="matrix(1 0 0 1 51.3335 341)">Too lightly colored</text>
	</g>
</g>
<g
   id="g221">
	<g
   id="g203">
		<text
   id="text195"
   font-size="24"
   transform="matrix(1 0 0 1 397.3335 66)">BG Color: #BD5B0E</text>
		<g
   id="g201">
			<rect
   id="rect197"
   height="69"
   width="268"
   fill="#BD5B0E"
   y="76.898"
   x="397.333" />
			<text
   id="text199"
   font-size="32"
   fill="#FFFFFF"
   transform="matrix(1 0 0 1 416.3335 122.1016)">#FFFFFF</text>
		</g>
	</g>
	<g
   id="g213">
		<text
   id="text205"
   font-size="24"
   transform="matrix(1 0 0 1 397.3335 199)">BG Color: #707070</text>
		<g
   id="g211">
			<rect
   id="rect207"
   height="69"
   width="268"
   fill="#707070"
   y="210.398"
   x="397.333" />
			<text
   id="text209"
   font-size="32"
   fill="#FFFFFF"
   transform="matrix(1 0 0 1 416.3335 255.6016)">#FFFFFF</text>
		</g>
	</g>
	<g
   id="g219">
		<rect
   id="rect215"
   height="14.5"
   width="202"
   fill="#176D7F"
   y="302"
   x="397.333" />
		<text
   id="text217"
   font-size="18"
   fill="#176D7F"
   transform="matrix(1 0 0 1 397.3335 341)">Recommended</text>
	</g>
</g>
<g>
<text
   id="text254"
   y="371.35739"
   x="600.92896"
   style="font-style:normal;font-weight:normal;font-size:16.5004px;line-height:1.25;font-family:sans-serif;fill:#999999;fill-opacity:1;stroke:none;stroke-width:0.41251"
   xml:space="preserve"><tspan
     style="stroke-width:0.41251"
     y="371.35739"
     x="600.92896"
     id="tspan252">©</tspan></text>
<g
   transform="matrix(0.45805481,0,0,0.45805481,616.53895,354.71119)"
   id="g243">
  <path
   id="path223"
   d="m 0.843,7.626 c 0,-0.375 0.186,-0.562 0.559,-0.562 h 8.542 c 0.342,0 0.512,0.186 0.512,0.562 V 30.355 H 23.06 c 0.372,0 0.559,0.187 0.559,0.56 v 7.096 c 0,0.373 -0.188,0.56 -0.559,0.56 H 1.402 c -0.373,0 -0.559,-0.187 -0.559,-0.56 z"
   fill="#999999" />
  <path
   id="path225"
   d="m 108.78,33.66 14.47,-18.391 h -12.509 c -0.374,0 -0.558,-0.17 -0.558,-0.514 V 7.802 c 0,-0.375 0.184,-0.562 0.558,-0.562 h 24.876 c 0.374,0 0.561,0.187 0.561,0.562 v 4.62 l -14.096,18.296 h 13.863 c 0.372,0 0.56,0.188 0.56,0.562 v 6.907 c 0,0.374 -0.188,0.56 -0.56,0.56 h -26.603 c -0.375,0 -0.563,-0.186 -0.563,-0.56 V 33.66 Z"
   fill="#999999" />
  <path
   id="path227"
   d="m 189.412,7.802 c 0,-0.373 0.188,-0.562 0.563,-0.562 h 8.398 c 0.375,0 0.563,0.189 0.563,0.562 l 0.092,10.968 c 0.186,-0.249 0.358,-0.481 0.514,-0.7 0.154,-0.219 0.309,-0.436 0.469,-0.653 0.06,-0.125 0.123,-0.217 0.184,-0.281 l 6.676,-9.661 c 0.156,-0.156 0.311,-0.235 0.466,-0.235 h 10.782 c 0.25,0 0.42,0.11 0.516,0.327 0.091,0.219 0.06,0.405 -0.096,0.562 L 208.08,20.685 c 1.837,2.893 3.674,5.772 5.508,8.633 1.838,2.863 3.658,5.74 5.463,8.636 0.125,0.187 0.139,0.364 0.047,0.535 -0.094,0.173 -0.266,0.257 -0.514,0.257 h -10.036 c -0.186,0 -0.343,-0.092 -0.468,-0.279 l -6.906,-11.855 c -0.372,0.436 -0.738,0.865 -1.097,1.283 -0.357,0.422 -0.739,0.865 -1.142,1.332 v 8.96 c 0,0.374 -0.188,0.56 -0.563,0.56 h -8.398 c -0.374,0 -0.563,-0.186 -0.563,-0.56 V 7.802 Z"
   fill="#999999" />
  <path
   id="path229"
   d="m 77.248,7.802 c 0,-0.373 0.188,-0.562 0.561,-0.562 h 8.4 c 0.375,0 0.559,0.189 0.559,0.562 l 0.095,10.968 c 0.186,-0.249 0.357,-0.481 0.513,-0.7 0.154,-0.219 0.311,-0.436 0.468,-0.653 0.06,-0.125 0.123,-0.217 0.185,-0.281 L 94.704,7.475 C 94.86,7.319 95.015,7.24 95.172,7.24 h 10.779 c 0.25,0 0.42,0.11 0.515,0.327 0.093,0.219 0.06,0.405 -0.095,0.562 L 95.917,20.685 c 1.837,2.893 3.672,5.772 5.507,8.633 1.838,2.863 3.658,5.74 5.463,8.636 0.123,0.187 0.139,0.364 0.044,0.535 -0.091,0.173 -0.263,0.257 -0.512,0.257 H 96.385 c -0.187,0 -0.343,-0.092 -0.468,-0.279 L 89.008,26.612 c -0.372,0.436 -0.737,0.865 -1.095,1.283 -0.359,0.422 -0.739,0.865 -1.145,1.332 v 8.96 c 0,0.374 -0.184,0.56 -0.559,0.56 h -8.4 c -0.374,0 -0.561,-0.186 -0.561,-0.56 z"
   fill="#999999" />
  <path
   id="path231"
   d="m 37.622,9.87 c -7.959,0 -14.435,6.477 -14.435,14.438 0,7.959 6.476,14.435 14.435,14.435 7.961,0 14.438,-6.476 14.438,-14.435 C 52.06,16.347 45.583,9.87 37.622,9.87 Z m 0,19.79 c -2.95,0 -5.349,-2.4 -5.349,-5.353 0,-2.951 2.399,-5.352 5.349,-5.352 2.952,0 5.354,2.401 5.354,5.352 0,2.953 -2.403,5.353 -5.354,5.353 z"
   fill="#999999" />
  <path
   id="path233"
   d="m 62.328,9.87 c -7.959,0 -14.437,6.477 -14.437,14.438 0,7.959 6.477,14.435 14.437,14.435 7.961,0 14.437,-6.476 14.437,-14.435 0,-7.961 -6.476,-14.438 -14.437,-14.438 z m 0,19.79 c -2.952,0 -5.353,-2.4 -5.353,-5.353 0,-2.951 2.401,-5.352 5.353,-5.352 2.952,0 5.353,2.401 5.353,5.352 0,2.953 -2.401,5.353 -5.353,5.353 z"
   fill="#999999" />
  <path
   id="path235"
   d="m 173.223,38.693 c -3.137,2.167 -6.935,3.44 -11.025,3.44 -4.104,0 -7.912,-1.282 -11.053,-3.46 -0.473,0.041 -0.948,0.068 -1.429,0.068 -2.215,0 -4.327,-0.451 -6.247,-1.266 4.375,5.532 11.143,9.093 18.729,9.093 7.676,0 14.514,-3.646 18.885,-9.292 -2.031,0.932 -4.283,1.465 -6.66,1.465 -0.403,10e-4 -0.804,-0.019 -1.2,-0.048 z"
   fill="#999999" />
  <path
   id="path237"
   d="m 151.145,8.326 c 3.141,-2.179 6.949,-3.46 11.053,-3.46 4.091,0 7.889,1.273 11.025,3.441 0.396,-0.029 0.797,-0.049 1.199,-0.049 2.377,0 4.629,0.533 6.658,1.465 -4.369,-5.646 -11.207,-9.292 -18.883,-9.292 -7.586,0 -14.352,3.561 -18.729,9.093 1.922,-0.815 4.032,-1.266 6.247,-1.266 0.481,-10e-4 0.957,0.026 1.43,0.068 z"
   fill="#999999" />
  <path
   id="path239"
   d="m 149.716,9.063 c -7.96,0 -14.437,6.477 -14.437,14.438 0,7.96 6.477,14.435 14.437,14.435 7.961,0 14.437,-6.475 14.437,-14.435 C 164.152,15.54 157.677,9.063 149.716,9.063 Z m 0,19.791 c -2.95,0 -5.351,-2.4 -5.351,-5.353 0,-2.951 2.4,-5.352 5.351,-5.352 2.952,0 5.353,2.4 5.353,5.352 -10e-4,2.952 -2.401,5.353 -5.353,5.353 z"
   fill="#999999" />
  <path
   id="path241"
   d="m 174.422,9.063 c -7.961,0 -14.436,6.477 -14.436,14.438 0,7.96 6.475,14.435 14.436,14.435 7.96,0 14.438,-6.475 14.438,-14.435 C 188.859,15.54 182.382,9.063 174.422,9.063 Z m 0,19.791 c -2.951,0 -5.354,-2.4 -5.354,-5.353 0,-2.951 2.402,-5.352 5.354,-5.352 2.952,0 5.352,2.4 5.352,5.352 -0.001,2.952 -2.401,5.353 -5.352,5.353 z"
   fill="#999999" />
</g>
</g>
</svg>
