<?xml version="1.0" encoding="utf-8"?>
<!-- Generator: Adobe Illustrator 22.1.0, SVG Export Plug-In . SVG Version: 6.00 Build 0)  -->
<svg version="1.1" id="Layer_1" xmlns="http://www.w3.org/2000/svg" xmlns:xlink="http://www.w3.org/1999/xlink" x="0px" y="0px"
	 viewBox="0 0 650 343" style="enable-background:new 0 0 650 343;" xml:space="preserve">
<g>
	<path style="fill:#F9A46A;" d="M19.888,60.029H287.51v68.882H19.888V60.029z"/>
	<path style="fill:#BD5D28;" d="M363.887,60.029h267.622v68.882H363.887V60.029z"/>
	<text transform="matrix(1 0 0 1 19.4916 35.969)" style="fill:#010101; font-family:Arial, Helvetica; font-weight: bold; font-size:24px;">BG Color: #FCA469</text>
	<text transform="matrix(1 0 0 1 34.4921 106.9697)" style="fill:#FFFFFF; font-family:Arial, Helvetica; font-weight: bold; font-size:32px;">#FFFFFF</text>
	<text transform="matrix(1 0 0 1 379.4932 106.9702)" style="fill:#FFFFFF; font-family:Arial, Helvetica; font-weight: bold; font-size:32px;">#FFFFFF</text>
	<text transform="matrix(1 0 0 1 363.4929 35.9686)" style="fill:#010101; font-family:Arial, Helvetica; font-weight: bold; font-size:24px;">BG Color: #BD5B0E</text>
	<path style="fill:#B8B9B9;" d="M19.888,200.654H287.51v68.882H19.888V200.654z"/>
	<path style="fill:#CC2F27;" d="M20.275,284.543h202.646v14.079H20.275V284.543z"/>
	<text transform="matrix(1 0 0 1 34.4922 247.5957)" style="fill:#FFFFFF; font-family:Arial, Helvetica; font-weight: bold; font-size:32px;">#FFFFFF</text>
	<text transform="matrix(1 0 0 1 18.4906 322.0936)" style="fill:#CC2F27; font-family:Arial, Helvetica; font-weight: bold; font-size:19px;">Too lightly colored</text>
	<path style="fill:#707071;" d="M363.887,200.654h267.622v68.882H363.887V200.654z"/>
	<path style="fill:#1B6D7F;" d="M364.615,284.543h202.646v14.079H364.615V284.543z"/>
	<text transform="matrix(1 0 0 1 379.4934 247.5962)" style="fill:#FFFFFF; font-family:Arial, Helvetica; font-weight: bold; font-size:32px;">#FFFFFF</text>
	<text transform="matrix(1 0 0 1 362.4913 322.0928)" style="fill:#1B6D7F; font-family:Arial, Helvetica; font-weight: bold; font-size:19px;">Recommended</text>
	<text transform="matrix(1 0 0 1 19.4906 176.619)" style="fill:#010101; font-family:Arial, Helvetica; font-weight: bold; font-size:24px;">BG Color: #B8B8B8</text>
	<text transform="matrix(1 0 0 1 363.4933 176.6196)" style="fill:#010101; font-family:Arial, Helvetica; font-weight: bold; font-size:24px;">BG Color: #707070</text>
</g>
<g>
	<g>
		<path style="fill:#999999;" d="M592.67,333.975c-2.475,0-4.489-2.013-4.489-4.489c0-2.475,2.014-4.489,4.489-4.489
			c2.476,0,4.489,2.014,4.489,4.489C597.159,331.961,595.146,333.975,592.67,333.975L592.67,333.975z M592.67,327.458
			c-1.118,0-2.028,0.91-2.028,2.028c0,1.118,0.91,2.029,2.028,2.029c1.119,0,2.028-0.91,2.028-2.029
			C594.698,328.368,593.789,327.458,592.67,327.458L592.67,327.458z"/>
		<path style="fill:#999999;" d="M600.294,333.957c-2.476,0-4.489-2.013-4.489-4.489c0-2.475,2.013-4.489,4.489-4.489
			c2.475,0,4.489,2.014,4.489,4.489C604.783,331.943,602.769,333.957,600.294,333.957L600.294,333.957z M600.294,327.44
			c-1.118,0-2.029,0.91-2.029,2.028c0,1.119,0.91,2.029,2.029,2.029c1.119,0,2.028-0.91,2.028-2.029
			C602.322,328.35,601.413,327.44,600.294,327.44L600.294,327.44z"/>
		<path style="fill:#999999;" d="M582,325.155c0-0.106,0.053-0.159,0.158-0.159h2.415c0.097,0,0.144,0.053,0.144,0.159v6.426h3.563
			c0.105,0,0.158,0.053,0.158,0.158v2.006c0,0.106-0.053,0.158-0.158,0.158h-6.123c-0.105,0-0.158-0.053-0.158-0.158V325.155z"/>
		<path style="fill:#999999;" d="M613.839,332.465l4.091-5.199h-3.536c-0.106,0-0.158-0.048-0.158-0.145v-1.966
			c0-0.106,0.052-0.159,0.158-0.159h7.033c0.105,0,0.158,0.053,0.158,0.159v1.306l-3.985,5.172h3.919
			c0.105,0,0.158,0.054,0.158,0.159v1.953c0,0.106-0.053,0.158-0.158,0.158h-7.521c-0.106,0-0.159-0.053-0.159-0.158
			L613.839,332.465L613.839,332.465z"/>
		<path style="fill:#999999;" d="M638.132,325.155c0-0.105,0.054-0.159,0.159-0.159h2.375c0.106,0,0.159,0.053,0.159,0.159
			l0.027,3.101c0.052-0.07,0.101-0.136,0.145-0.198c0.044-0.062,0.087-0.123,0.132-0.185c0.017-0.035,0.035-0.061,0.053-0.079
			l1.887-2.731c0.044-0.044,0.088-0.066,0.132-0.066h3.048c0.071,0,0.119,0.031,0.145,0.093c0.026,0.062,0.017,0.114-0.026,0.159
			l-2.957,3.55c0.519,0.818,1.038,1.632,1.557,2.441c0.519,0.81,1.034,1.623,1.544,2.441c0.035,0.053,0.04,0.103,0.013,0.151
			c-0.026,0.049-0.075,0.073-0.145,0.073h-2.837c-0.053,0-0.097-0.025-0.132-0.079l-1.953-3.352
			c-0.105,0.123-0.208,0.244-0.31,0.363c-0.101,0.119-0.208,0.244-0.323,0.377v2.533c0,0.106-0.053,0.158-0.159,0.158h-2.375
			c-0.105,0-0.159-0.053-0.159-0.158L638.132,325.155L638.132,325.155z"/>
		<path style="fill:#999999;" d="M604.925,325.155c0-0.105,0.053-0.159,0.158-0.159h2.375c0.106,0,0.158,0.053,0.158,0.159
			l0.027,3.101c0.053-0.07,0.101-0.136,0.145-0.198c0.044-0.062,0.088-0.123,0.133-0.185c0.016-0.035,0.034-0.061,0.052-0.079
			l1.887-2.731c0.044-0.044,0.088-0.066,0.132-0.066h3.048c0.071,0,0.119,0.031,0.145,0.093c0.026,0.062,0.017,0.114-0.027,0.159
			l-2.956,3.55c0.519,0.818,1.038,1.632,1.557,2.441c0.519,0.81,1.034,1.623,1.544,2.441c0.035,0.053,0.04,0.103,0.013,0.151
			c-0.026,0.049-0.075,0.073-0.145,0.073h-2.837c-0.053,0-0.097-0.025-0.132-0.079l-1.953-3.352
			c-0.105,0.123-0.208,0.244-0.31,0.363c-0.101,0.119-0.209,0.244-0.323,0.377v2.533c0,0.106-0.053,0.158-0.158,0.158h-2.375
			c-0.105,0-0.158-0.053-0.158-0.158V325.155z"/>
		<path style="fill:#999999;" d="M625.923,333.975c-2.475,0-4.489-2.013-4.489-4.489c0-2.475,2.013-4.489,4.489-4.489
			c2.476,0,4.49,2.014,4.49,4.489C630.412,331.961,628.398,333.975,625.923,333.975L625.923,333.975z M625.923,327.458
			c-1.118,0-2.028,0.91-2.028,2.028c0,1.118,0.91,2.029,2.028,2.029c1.119,0,2.029-0.91,2.029-2.029
			C627.951,328.368,627.041,327.458,625.923,327.458L625.923,327.458z"/>
		<path style="fill:#999999;" d="M633.529,333.975c-2.476,0-4.489-2.013-4.489-4.489c0-2.475,2.013-4.489,4.489-4.489
			c2.475,0,4.489,2.014,4.489,4.489C638.018,331.961,636.004,333.975,633.529,333.975L633.529,333.975z M633.529,327.458
			c-1.119,0-2.029,0.91-2.029,2.028c0,1.118,0.91,2.029,2.029,2.029c1.118,0,2.029-0.91,2.029-2.029
			C635.557,328.368,634.647,327.458,633.529,327.458L633.529,327.458z"/>
		<path style="fill:#999999;" d="M626.863,324.657c0.877-0.551,1.892-0.872,2.979-0.872c1.065,0,2.064,0.309,2.93,0.842
			c0.249-0.039,0.501-0.066,0.758-0.066c0.461,0,0.905,0.068,1.328,0.187c-1.293-1.353-3.062-2.193-5.015-2.193
			c-1.917,0-3.658,0.807-4.944,2.115c0.331-0.071,0.673-0.109,1.026-0.109C626.243,324.561,626.556,324.598,626.863,324.657z"/>
		<path style="fill:#999999;" d="M633.02,334.382c-0.89,0.577-1.931,0.912-3.045,0.912c-1.122,0-2.171-0.339-3.066-0.925
			c-0.133,0.014-0.268,0.023-0.405,0.023c-0.054,0-0.107-0.003-0.162-0.005c-0.139,0.012-0.279,0.024-0.421,0.024
			c-0.335,0-0.663-0.034-0.979-0.098c1.294,1.364,3.07,2.212,5.032,2.212c2.054,0,3.905-0.929,5.213-2.408
			c-0.519,0.187-1.077,0.294-1.66,0.294C633.357,334.41,633.188,334.399,633.02,334.382z"/>
	</g>
	<text transform="matrix(1 0 0 1 569.5956 334.4102)" style="fill:#999999; font-family:'Roboto-Regular'; font-size:13.2458px;">©</text>
</g>
</svg>
