<svg xmlns="http://www.w3.org/2000/svg" width="600" height="371" fill="none" stroke-linecap="square" stroke-miterlimit="10"><path fill="#fff" d="M0 0h600v371H0V0Z"/><path stroke="#333" stroke-linecap="butt" d="M117.5 318.5h458"/><path stroke="#f2f2f2" stroke-linecap="butt" d="M117.5 262.5h458m-458-55h458m-458-55h458m-458-56h458"/><path stroke="#f9f9f9" stroke-linecap="butt" d="M117.5 307.5h458m-458-11h458m-458-11h458m-458-11h458m-458-23h458m-458-11h458m-458-11h458m-458-11h458m-458-22h458m-458-11h458m-458-11h458m-458-11h458m-458-22h458m-458-11h458m-458-12h458m-458-11h458"/><clipPath id="a"><path d="M117.5 96.8h458v221.5h-458V96.8Z"/></clipPath><path d="M174 318h-26V109a2 2 0 0 1 2-2h22a2 2 0 0 1 2 2Z" clip-path="url(#a)"/><path fill="#a8caba" d="M174 318h-26V109a2 2 0 0 1 2-2h22a2 2 0 0 1 2 2Z" clip-path="url(#a)"/><path d="M260 318h-26v-67a2 2 0 0 1 2-2h22a2 2 0 0 1 2 2Z" clip-path="url(#a)"/><path fill="#a8caba" d="M260 318h-26v-67a2 2 0 0 1 2-2h22a2 2 0 0 1 2 2Z" clip-path="url(#a)"/><path d="M346 318h-26v-20a2 2 0 0 1 2-2h22a2 2 0 0 1 2 2Z" clip-path="url(#a)"/><path fill="#a8caba" d="M346 318h-26v-20a2 2 0 0 1 2-2h22a2 2 0 0 1 2 2Z" clip-path="url(#a)"/><path d="M431 318h-26v-6a2 2 0 0 1 2-2h22a2 2 0 0 1 2 2Z" clip-path="url(#a)"/><path fill="#a8caba" d="M431 318h-26v-6a2 2 0 0 1 2-2h22a2 2 0 0 1 2 2Z" clip-path="url(#a)"/><path d="M517 318h-26v-5a2 2 0 0 1 2-2h22a2 2 0 0 1 2 2Z" clip-path="url(#a)"/><path fill="#a8caba" d="M517 318h-26v-5a2 2 0 0 1 2-2h22a2 2 0 0 1 2 2Z" clip-path="url(#a)"/><path d="M202 318h-26V118a2 2 0 0 1 2-2h22a2 2 0 0 1 2 2Z" clip-path="url(#a)"/><path fill="#62718b" d="M202 318h-26V118a2 2 0 0 1 2-2h22a2 2 0 0 1 2 2Z" clip-path="url(#a)"/><path d="M288 318h-26v-67a2 2 0 0 1 2-2h22a2 2 0 0 1 2 2Z" clip-path="url(#a)"/><path fill="#62718b" d="M288 318h-26v-67a2 2 0 0 1 2-2h22a2 2 0 0 1 2 2Z" clip-path="url(#a)"/><path d="M374 318h-26v-21a2 2 0 0 1 2-2h22a2 2 0 0 1 2 2Z" clip-path="url(#a)"/><path fill="#62718b" d="M374 318h-26v-21a2 2 0 0 1 2-2h22a2 2 0 0 1 2 2Z" clip-path="url(#a)"/><path d="M459 318h-26v-6a2 2 0 0 1 2-2h22a2 2 0 0 1 2 2Z" clip-path="url(#a)"/><path fill="#62718b" d="M459 318h-26v-6a2 2 0 0 1 2-2h22a2 2 0 0 1 2 2Z" clip-path="url(#a)"/><path d="M545 318h-26v-10a2 2 0 0 1 2-2h22a2 2 0 0 1 2 2Z" clip-path="url(#a)"/><path fill="#62718b" d="M545 318h-26v-10a2 2 0 0 1 2-2h22a2 2 0 0 1 2 2Z" clip-path="url(#a)"/><path stroke="#fff" stroke-linecap="round" stroke-linejoin="round" stroke-width="3" d="m166.2 93.8 2.2-.2q0 .7.4 1 .3.3.8.3.7 0 1.2-.6.5-.7.6-2.6-.8 1-2 1-1.4 0-2.4-1.1-1-1-1-2.7 0-1.8 1-2.9 1-1 2.7-1 1.7 0 2.8 1.3 1.2 1.4 1.2 4.5t-1.2 4.5q-1.2 1.4-3 1.4-1.4 0-2.2-.7-.8-.7-1-2.2Zm5-4.8q0-1-.5-1.6-.5-.6-1.1-.6-.6 0-1 .5t-.4 1.6q0 1 .4 1.6.4.5 1.1.5.6 0 1-.5.5-.5.5-1.5Zm4.5 7.5v-2.2h2.1v2.2h-2.1Zm9.1 0h-2.2v-8.3q-1.2 1.1-2.8 1.7v-2q.8-.3 1.8-1 1-.9 1.4-2h1.8v11.6Zm9 0h-2.2v-8.3q-1.2 1.1-2.8 1.7v-2q.8-.3 1.8-1 1-.9 1.4-2h1.8v11.6Zm3.4-8.6q0-1.6.7-2.3.6-.8 1.8-.8 1.2 0 1.9.8.7.7.7 2.3 0 1.5-.7 2.2-.7.8-1.8.8-1.3 0-2-.8-.6-.7-.6-2.2Zm1.7 0q0 1 .3 1.4.2.3.5.3.4 0 .6-.3.2-.3.2-1.5 0-1-.3-1.5-.1-.2-.5-.2-.3 0-.5.2-.3.4-.3 1.5Zm2.5 9h-1.7l6.2-12h1.5l-6 12Zm3.5-3q0-1.5.7-2.3.7-.7 1.9-.7 1.1 0 1.8.7.7.8.7 2.3 0 1.6-.7 2.3-.7.8-1.8.8-1.2 0-2-.8-.6-.7-.6-2.3Zm1.7 0q0 1.1.3 1.5.2.3.5.3.4 0 .6-.3.2-.4.2-1.5t-.2-1.5q-.2-.3-.6-.3-.3 0-.5.3-.3.4-.3 1.5Z"/><path fill="#62718b" d="m166.2 93.8 2.2-.2q0 .7.4 1 .3.3.8.3.7 0 1.2-.6.5-.7.6-2.6-.8 1-2 1-1.4 0-2.4-1.1-1-1-1-2.7 0-1.8 1-2.9 1-1 2.7-1 1.7 0 2.8 1.3 1.2 1.4 1.2 4.5t-1.2 4.5q-1.2 1.4-3 1.4-1.4 0-2.2-.7-.8-.7-1-2.2Zm5-4.8q0-1-.5-1.6-.5-.6-1.1-.6-.6 0-1 .5t-.4 1.6q0 1 .4 1.6.4.5 1.1.5.6 0 1-.5.5-.5.5-1.5Zm4.5 7.5v-2.2h2.1v2.2h-2.1Zm9.1 0h-2.2v-8.3q-1.2 1.1-2.8 1.7v-2q.8-.3 1.8-1 1-.9 1.4-2h1.8v11.6Zm9 0h-2.2v-8.3q-1.2 1.1-2.8 1.7v-2q.8-.3 1.8-1 1-.9 1.4-2h1.8v11.6Zm3.4-8.6q0-1.6.7-2.3.6-.8 1.8-.8 1.2 0 1.9.8.7.7.7 2.3 0 1.5-.7 2.2-.7.8-1.8.8-1.3 0-2-.8-.6-.7-.6-2.2Zm1.7 0q0 1 .3 1.4.2.3.5.3.4 0 .6-.3.2-.3.2-1.5 0-1-.3-1.5-.1-.2-.5-.2-.3 0-.5.2-.3.4-.3 1.5Zm2.5 9h-1.7l6.2-12h1.5l-6 12Zm3.5-3q0-1.5.7-2.3.7-.7 1.9-.7 1.1 0 1.8.7.7.8.7 2.3 0 1.6-.7 2.3-.7.8-1.8.8-1.2 0-2-.8-.6-.7-.6-2.3Zm1.7 0q0 1.1.3 1.5.2.3.5.3.4 0 .6-.3.2-.4.2-1.5t-.2-1.5q-.2-.3-.6-.3-.3 0-.5.3-.3.4-.3 1.5Z"/><path stroke="#fff" stroke-linecap="round" stroke-linejoin="round" stroke-width="3" d="m252.1 226.2 2.1-.2q.1.8.6 1.2.4.4 1 .4.7 0 1.2-.5t.5-1.4q0-.8-.5-1.3-.4-.5-1-.5l-1 .2.2-1.8q.9 0 1.3-.4.5-.4.5-1 0-.7-.3-1-.4-.3-1-.3-.5 0-1 .3-.3.4-.4 1.2l-2-.4q.2-1 .6-1.6.4-.6 1.2-1 .8-.3 1.7-.3 1.6 0 2.6 1 .8.8.8 1.9 0 1.5-1.7 2.4 1 .2 1.6 1 .6.7.6 1.7 0 1.5-1 2.6-1.2 1-2.8 1-1.6 0-2.6-.8-1-1-1.2-2.4Zm9.6 3v-2.1h2.1v2.2h-2.1Zm9.1 0h-2.2V221q-1.2 1.1-2.8 1.7v-2q.8-.3 1.8-1.1t1.4-1.8h1.8v11.5Zm10.8-2v2h-7.7q.1-1 .8-2.1.6-1 2.4-2.8 1.5-1.4 1.8-1.9.5-.6.5-1.3 0-.7-.4-1.1-.4-.4-1-.4-.8 0-1.2.4-.4.4-.5 1.4l-2.1-.2q.2-1.9 1.2-2.6 1-.8 2.6-.8 1.7 0 2.6.9 1 .9 1 2.2 0 .8-.3 1.5t-.9 1.5l-1.4 1.4-1.3 1.3-.5.6h4.4Zm1.6-6.6q0-1.5.7-2.2.6-.8 1.8-.8 1.2 0 1.9.8.6.7.6 2.2 0 1.6-.6 2.3-.7.8-1.9.8t-1.8-.8q-.7-.7-.7-2.3Zm1.7 0q0 1.1.3 1.5.2.3.5.3.4 0 .6-.3.2-.4.2-1.5t-.2-1.5q-.2-.3-.6-.3-.3 0-.5.3-.3.4-.3 1.5Zm2.5 9.1h-1.6l6-12h1.6l-6 12Zm3.5-3q0-1.5.7-2.3.7-.7 1.9-.7 1.1 0 1.8.7.7.8.7 2.3 0 1.5-.7 2.3-.7.7-1.8.7-1.2 0-2-.7-.6-.8-.6-2.3Zm1.7 0q0 1 .3 1.5.2.3.5.3.4 0 .6-.3.2-.4.2-1.5t-.2-1.5q-.2-.3-.6-.3-.3 0-.5.3-.3.4-.3 1.5Z"/><path fill="#62718b" d="m252.1 226.2 2.1-.2q.1.8.6 1.2.4.4 1 .4.7 0 1.2-.5t.5-1.4q0-.8-.5-1.3-.4-.5-1-.5l-1 .2.2-1.8q.9 0 1.3-.4.5-.4.5-1 0-.7-.3-1-.4-.3-1-.3-.5 0-1 .3-.3.4-.4 1.2l-2-.4q.2-1 .6-1.6.4-.6 1.2-1 .8-.3 1.7-.3 1.6 0 2.6 1 .8.8.8 1.9 0 1.5-1.7 2.4 1 .2 1.6 1 .6.7.6 1.7 0 1.5-1 2.6-1.2 1-2.8 1-1.6 0-2.6-.8-1-1-1.2-2.4Zm9.6 3v-2.1h2.1v2.2h-2.1Zm9.1 0h-2.2V221q-1.2 1.1-2.8 1.7v-2q.8-.3 1.8-1.1t1.4-1.8h1.8v11.5Zm10.8-2v2h-7.7q.1-1 .8-2.1.6-1 2.4-2.8 1.5-1.4 1.8-1.9.5-.6.5-1.3 0-.7-.4-1.1-.4-.4-1-.4-.8 0-1.2.4-.4.4-.5 1.4l-2.1-.2q.2-1.9 1.2-2.6 1-.8 2.6-.8 1.7 0 2.6.9 1 .9 1 2.2 0 .8-.3 1.5t-.9 1.5l-1.4 1.4-1.3 1.3-.5.6h4.4Zm1.6-6.6q0-1.5.7-2.2.6-.8 1.8-.8 1.2 0 1.9.8.6.7.6 2.2 0 1.6-.6 2.3-.7.8-1.9.8t-1.8-.8q-.7-.7-.7-2.3Zm1.7 0q0 1.1.3 1.5.2.3.5.3.4 0 .6-.3.2-.4.2-1.5t-.2-1.5q-.2-.3-.6-.3-.3 0-.5.3-.3.4-.3 1.5Zm2.5 9.1h-1.6l6-12h1.6l-6 12Zm3.5-3q0-1.5.7-2.3.7-.7 1.9-.7 1.1 0 1.8.7.7.8.7 2.3 0 1.5-.7 2.3-.7.7-1.8.7-1.2 0-2-.7-.6-.8-.6-2.3Zm1.7 0q0 1 .3 1.5.2.3.5.3.4 0 .6-.3.2-.4.2-1.5t-.2-1.5q-.2-.3-.6-.3-.3 0-.5.3-.3.4-.3 1.5Z"/><path stroke="#fff" stroke-linecap="round" stroke-linejoin="round" stroke-width="3" d="M343.8 275h-2.2v-8.2q-1.2 1.1-2.8 1.6v-2q.8-.2 1.8-1t1.4-1.8h1.8V275Zm3.9 0v-2h2.1v2.2h-2.1Zm7.2-11.4q1.7 0 2.6 1.1 1.1 1.4 1.1 4.7t-1.1 4.7q-1 1.2-2.6 1.2t-2.7-1.3q-1-1.3-1-4.6t1.1-4.7q1-1.1 2.6-1.1Zm0 1.8q-.4 0-.7.2-.3.3-.5 1-.2.8-.2 2.8 0 2 .2 2.8.2.7.5 1 .3.2.7.2.4 0 .7-.2.3-.3.5-1 .2-.8.2-2.8 0-2-.2-2.8-.2-.7-.5-1-.3-.2-.7-.2Zm5.3 6.7 2.2-.2q.1.7.6 1.2.4.4 1 .4.7 0 1.2-.6.5-.5.5-1.7 0-1-.5-1.5-.5-.6-1.2-.6-1 0-1.7.9l-1.8-.3 1.1-6h5.8v2.1h-4.1l-.4 2q.8-.4 1.5-.4 1.5 0 2.5 1 1 1.1 1 2.8 0 1.4-.8 2.5-1.1 1.6-3.1 1.6-1.6 0-2.6-.9t-1.2-2.3Zm9-5.7q0-1.5.7-2.3.6-.7 1.8-.7 1.2 0 1.9.7.6.8.6 2.3 0 1.6-.6 2.3-.7.7-1.9.7t-1.8-.7q-.7-.7-.7-2.3Zm1.7 0q0 1.1.3 1.5.2.3.5.3.4 0 .5-.3.3-.4.3-1.5t-.3-1.5q-.1-.3-.5-.3-.3 0-.5.3-.3.4-.3 1.5Zm2.5 9h-1.7l6.2-12h1.5l-6 12Zm3.5-3q0-1.5.7-2.2.7-.7 1.9-.7 1.1 0 1.8.7t.7 2.3q0 1.5-.7 2.3-.7.7-1.8.7-1.2 0-2-.7-.6-.8-.6-2.3Zm1.7 0q0 1.2.3 1.6.2.3.5.3.4 0 .6-.3.2-.4.2-1.5t-.2-1.5q-.2-.3-.6-.3-.3 0-.5.3-.3.4-.3 1.5Z"/><path fill="#62718b" d="M343.8 275h-2.2v-8.2q-1.2 1.1-2.8 1.6v-2q.8-.2 1.8-1t1.4-1.8h1.8V275Zm3.9 0v-2h2.1v2.2h-2.1Zm7.2-11.4q1.7 0 2.6 1.1 1.1 1.4 1.1 4.7t-1.1 4.7q-1 1.2-2.6 1.2t-2.7-1.3q-1-1.3-1-4.6t1.1-4.7q1-1.1 2.6-1.1Zm0 1.8q-.4 0-.7.2-.3.3-.5 1-.2.8-.2 2.8 0 2 .2 2.8.2.7.5 1 .3.2.7.2.4 0 .7-.2.3-.3.5-1 .2-.8.2-2.8 0-2-.2-2.8-.2-.7-.5-1-.3-.2-.7-.2Zm5.3 6.7 2.2-.2q.1.7.6 1.2.4.4 1 .4.7 0 1.2-.6.5-.5.5-1.7 0-1-.5-1.5-.5-.6-1.2-.6-1 0-1.7.9l-1.8-.3 1.1-6h5.8v2.1h-4.1l-.4 2q.8-.4 1.5-.4 1.5 0 2.5 1 1 1.1 1 2.8 0 1.4-.8 2.5-1.1 1.6-3.1 1.6-1.6 0-2.6-.9t-1.2-2.3Zm9-5.7q0-1.5.7-2.3.6-.7 1.8-.7 1.2 0 1.9.7.6.8.6 2.3 0 1.6-.6 2.3-.7.7-1.9.7t-1.8-.7q-.7-.7-.7-2.3Zm1.7 0q0 1.1.3 1.5.2.3.5.3.4 0 .5-.3.3-.4.3-1.5t-.3-1.5q-.1-.3-.5-.3-.3 0-.5.3-.3.4-.3 1.5Zm2.5 9h-1.7l6.2-12h1.5l-6 12Zm3.5-3q0-1.5.7-2.2.7-.7 1.9-.7 1.1 0 1.8.7t.7 2.3q0 1.5-.7 2.3-.7.7-1.8.7-1.2 0-2-.7-.6-.8-.6-2.3Zm1.7 0q0 1.2.3 1.6.2.3.5.3.4 0 .6-.3.2-.4.2-1.5t-.2-1.5q-.2-.3-.6-.3-.3 0-.5.3-.3.4-.3 1.5Z"/><path stroke="#fff" stroke-linecap="round" stroke-linejoin="round" stroke-width="3" d="M426.9 278.2q1.7 0 2.6 1.1 1.1 1.5 1.1 4.7t-1.1 4.7q-1 1.2-2.6 1.2t-2.7-1.3q-1-1.3-1-4.6 0-3.2 1.1-4.7 1-1.1 2.6-1.1Zm0 1.8q-.4 0-.7.2-.3.3-.5 1-.2.8-.2 2.8 0 2 .2 2.8.2.7.5 1 .3.2.7.2.4 0 .7-.2.3-.3.5-1 .2-.8.2-2.8 0-2-.2-2.8-.2-.7-.5-1-.3-.2-.7-.2Zm5.8 9.7v-2.2h2.1v2.2h-2.1Zm3.4-3 2.1-.3q.1.8.6 1.2.4.4 1 .4.7 0 1.2-.5t.5-1.4q0-.8-.5-1.3-.4-.5-1-.5l-1 .2.2-1.8q.9 0 1.3-.4.5-.4.5-1 0-.7-.3-1-.4-.3-1-.3-.5 0-1 .3-.3.4-.4 1.2l-2-.4q.2-1 .6-1.6.4-.6 1.2-1 .8-.3 1.7-.3 1.6 0 2.6 1 .8.8.8 1.9 0 1.5-1.7 2.4 1 .2 1.6 1 .6.7.6 1.7 0 1.5-1 2.6-1.2 1-2.8 1-1.6 0-2.6-.8-1-1-1.2-2.4Zm9.1.3 2.2-.2q0 .6.4 1 .3.2.8.2.7 0 1.2-.6t.6-2.6q-.8 1-2 1-1.4 0-2.4-1t-1-2.8q0-1.7 1-2.8 1-1 2.7-1 1.7 0 2.8 1.3 1.2 1.3 1.2 4.4 0 3.2-1.2 4.6-1.2 1.4-3 1.4-1.4 0-2.2-.8-.8-.7-1-2.1Zm5-4.8q0-1-.5-1.6-.5-.6-1.1-.6-.6 0-1 .5-.4.4-.4 1.5t.4 1.7q.4.5 1.1.5.6 0 1-.5.5-.5.5-1.5Zm4-1.2q0-1.5.7-2.2.6-.8 1.8-.8 1.2 0 1.9.8.6.7.6 2.2 0 1.6-.6 2.3-.7.7-1.9.7t-1.8-.7q-.7-.7-.7-2.3Zm1.7 0q0 1.1.3 1.5.2.3.5.3.4 0 .6-.3.2-.4.2-1.5t-.2-1.5q-.2-.3-.6-.3-.3 0-.5.3-.3.4-.3 1.5Zm2.5 9.1h-1.6l6-12.1h1.6l-6 12.1Zm3.5-3q0-1.6.7-2.3.7-.7 1.9-.7 1.1 0 1.8.7t.7 2.3q0 1.5-.7 2.3-.7.7-1.8.7-1.2 0-2-.7-.6-.8-.6-2.3Zm1.7 0q0 1 .3 1.5.2.3.5.3.4 0 .6-.3.2-.4.2-1.5t-.2-1.5q-.2-.3-.6-.3-.3 0-.5.3-.3.4-.3 1.5Z"/><path fill="#62718b" d="M426.9 278.2q1.7 0 2.6 1.1 1.1 1.5 1.1 4.7t-1.1 4.7q-1 1.2-2.6 1.2t-2.7-1.3q-1-1.3-1-4.6 0-3.2 1.1-4.7 1-1.1 2.6-1.1Zm0 1.8q-.4 0-.7.2-.3.3-.5 1-.2.8-.2 2.8 0 2 .2 2.8.2.7.5 1 .3.2.7.2.4 0 .7-.2.3-.3.5-1 .2-.8.2-2.8 0-2-.2-2.8-.2-.7-.5-1-.3-.2-.7-.2Zm5.8 9.7v-2.2h2.1v2.2h-2.1Zm3.4-3 2.1-.3q.1.8.6 1.2.4.4 1 .4.7 0 1.2-.5t.5-1.4q0-.8-.5-1.3-.4-.5-1-.5l-1 .2.2-1.8q.9 0 1.3-.4.5-.4.5-1 0-.7-.3-1-.4-.3-1-.3-.5 0-1 .3-.3.4-.4 1.2l-2-.4q.2-1 .6-1.6.4-.6 1.2-1 .8-.3 1.7-.3 1.6 0 2.6 1 .8.8.8 1.9 0 1.5-1.7 2.4 1 .2 1.6 1 .6.7.6 1.7 0 1.5-1 2.6-1.2 1-2.8 1-1.6 0-2.6-.8-1-1-1.2-2.4Zm9.1.3 2.2-.2q0 .6.4 1 .3.2.8.2.7 0 1.2-.6t.6-2.6q-.8 1-2 1-1.4 0-2.4-1t-1-2.8q0-1.7 1-2.8 1-1 2.7-1 1.7 0 2.8 1.3 1.2 1.3 1.2 4.4 0 3.2-1.2 4.6-1.2 1.4-3 1.4-1.4 0-2.2-.8-.8-.7-1-2.1Zm5-4.8q0-1-.5-1.6-.5-.6-1.1-.6-.6 0-1 .5-.4.4-.4 1.5t.4 1.7q.4.5 1.1.5.6 0 1-.5.5-.5.5-1.5Zm4-1.2q0-1.5.7-2.2.6-.8 1.8-.8 1.2 0 1.9.8.6.7.6 2.2 0 1.6-.6 2.3-.7.7-1.9.7t-1.8-.7q-.7-.7-.7-2.3Zm1.7 0q0 1.1.3 1.5.2.3.5.3.4 0 .6-.3.2-.4.2-1.5t-.2-1.5q-.2-.3-.6-.3-.3 0-.5.3-.3.4-.3 1.5Zm2.5 9.1h-1.6l6-12.1h1.6l-6 12.1Zm3.5-3q0-1.6.7-2.3.7-.7 1.9-.7 1.1 0 1.8.7t.7 2.3q0 1.5-.7 2.3-.7.7-1.8.7-1.2 0-2-.7-.6-.8-.6-2.3Zm1.7 0q0 1 .3 1.5.2.3.5.3.4 0 .6-.3.2-.4.2-1.5t-.2-1.5q-.2-.3-.6-.3-.3 0-.5.3-.3.4-.3 1.5Z"/><path stroke="#fff" stroke-linecap="round" stroke-linejoin="round" stroke-width="3" d="M512.9 274.5q1.7 0 2.6 1.2 1.1 1.4 1.1 4.6t-1.1 4.7q-1 1.2-2.6 1.2-1.7 0-2.7-1.3-1-1.3-1-4.6 0-3.2 1.1-4.7 1-1.1 2.6-1.1Zm0 1.8q-.4 0-.7.3-.3.2-.5.9-.2.8-.2 2.8 0 2 .2 2.8.2.8.5 1 .3.3.7.3.4 0 .7-.3.3-.3.5-1 .2-.8.2-2.8 0-2-.2-2.7t-.5-1q-.3-.3-.7-.3Zm5.8 9.7v-2.2h2.1v2.2h-2.1Zm3.5-3 2.2-.2q.1.7.6 1.2.4.4 1 .4.7 0 1.2-.5.5-.6.5-1.7 0-1-.5-1.6-.5-.5-1.2-.5-1 0-1.7.8l-1.8-.3 1.1-6h5.8v2.1h-4.1l-.4 2q.8-.4 1.5-.4 1.5 0 2.5 1 1 1.1 1 2.8 0 1.4-.8 2.5-1.1 1.6-3.1 1.6-1.6 0-2.6-.9-1-.8-1.2-2.3Zm16.4-5.7-2.1.3q0-.7-.4-1-.3-.3-.9-.3-.7 0-1.1.6-.5.6-.6 2.6.8-1 2-1 1.4 0 2.3 1 1 1.1 1 2.8 0 1.7-1 2.8-1 1-2.6 1-1.8 0-2.9-1.3-1.1-1.3-1.1-4.4 0-3.1 1.1-4.5 1.2-1.4 3-1.4 1.4 0 2.2.7.9.7 1.1 2.1Zm-5 4.8q0 1 .5 1.7.5.6 1.2.6.6 0 1-.5t.4-1.6q0-1.1-.5-1.6-.4-.6-1-.6-.7 0-1.1.5-.5.5-.5 1.5Zm6.6-4.7q0-1.6.7-2.3.6-.8 1.8-.8 1.2 0 1.9.8.6.7.6 2.3 0 1.5-.6 2.2-.7.8-1.9.8t-1.8-.8q-.7-.7-.7-2.2Zm1.7 0q0 1 .3 1.4.2.3.5.3.4 0 .5-.3.3-.4.3-1.5 0-1-.3-1.5-.1-.2-.5-.2-.3 0-.5.2-.3.4-.3 1.5Zm2.5 9h-1.7l6.2-12h1.5l-6 12Zm3.5-3q0-1.5.7-2.3.7-.7 1.9-.7 1.1 0 1.8.7.7.8.7 2.3 0 1.5-.7 2.3-.7.7-1.8.7-1.2 0-2-.7-.6-.8-.6-2.3Zm1.7 0q0 1.1.3 1.5.2.3.5.3.4 0 .6-.3.2-.4.2-1.5t-.2-1.5q-.2-.3-.6-.3-.3 0-.5.3-.3.4-.3 1.5Z"/><path fill="#62718b" d="M512.9 274.5q1.7 0 2.6 1.2 1.1 1.4 1.1 4.6t-1.1 4.7q-1 1.2-2.6 1.2-1.7 0-2.7-1.3-1-1.3-1-4.6 0-3.2 1.1-4.7 1-1.1 2.6-1.1Zm0 1.8q-.4 0-.7.3-.3.2-.5.9-.2.8-.2 2.8 0 2 .2 2.8.2.8.5 1 .3.3.7.3.4 0 .7-.3.3-.3.5-1 .2-.8.2-2.8 0-2-.2-2.7t-.5-1q-.3-.3-.7-.3Zm5.8 9.7v-2.2h2.1v2.2h-2.1Zm3.5-3 2.2-.2q.1.7.6 1.2.4.4 1 .4.7 0 1.2-.5.5-.6.5-1.7 0-1-.5-1.6-.5-.5-1.2-.5-1 0-1.7.8l-1.8-.3 1.1-6h5.8v2.1h-4.1l-.4 2q.8-.4 1.5-.4 1.5 0 2.5 1 1 1.1 1 2.8 0 1.4-.8 2.5-1.1 1.6-3.1 1.6-1.6 0-2.6-.9-1-.8-1.2-2.3Zm16.4-5.7-2.1.3q0-.7-.4-1-.3-.3-.9-.3-.7 0-1.1.6-.5.6-.6 2.6.8-1 2-1 1.4 0 2.3 1 1 1.1 1 2.8 0 1.7-1 2.8-1 1-2.6 1-1.8 0-2.9-1.3-1.1-1.3-1.1-4.4 0-3.1 1.1-4.5 1.2-1.4 3-1.4 1.4 0 2.2.7.9.7 1.1 2.1Zm-5 4.8q0 1 .5 1.7.5.6 1.2.6.6 0 1-.5t.4-1.6q0-1.1-.5-1.6-.4-.6-1-.6-.7 0-1.1.5-.5.5-.5 1.5Zm6.6-4.7q0-1.6.7-2.3.6-.8 1.8-.8 1.2 0 1.9.8.6.7.6 2.3 0 1.5-.6 2.2-.7.8-1.9.8t-1.8-.8q-.7-.7-.7-2.2Zm1.7 0q0 1 .3 1.4.2.3.5.3.4 0 .5-.3.3-.4.3-1.5 0-1-.3-1.5-.1-.2-.5-.2-.3 0-.5.2-.3.4-.3 1.5Zm2.5 9h-1.7l6.2-12h1.5l-6 12Zm3.5-3q0-1.5.7-2.3.7-.7 1.9-.7 1.1 0 1.8.7.7.8.7 2.3 0 1.5-.7 2.3-.7.7-1.8.7-1.2 0-2-.7-.6-.8-.6-2.3Zm1.7 0q0 1.1.3 1.5.2.3.5.3.4 0 .6-.3.2-.4.2-1.5t-.2-1.5q-.2-.3-.6-.3-.3 0-.5.3-.3.4-.3 1.5Z"/><path fill="#838689" d="M315.4 357.7V349h3.9q1.1 0 1.7.2.6.3 1 .9.3.5.3 1.2 0 1-.6 1.6-.6.6-1.8.8l.7.4 1 1.2 1.4 2.3h-1.4l-1.1-1.8-.9-1.2q-.3-.4-.6-.5l-.5-.3h-1.9v3.8h-1.2Zm1.2-4.8h2.4q.8 0 1.2-.2.5-.1.7-.5.2-.3.2-.8 0-.6-.4-1-.5-.3-1.4-.3h-2.7v2.8Zm11.8 4q-.6.5-1.2.7-.5.2-1.1.2-1 0-1.6-.5-.6-.5-.6-1.2 0-.5.2-.9t.6-.6l.8-.3.9-.2q1.3-.1 1.9-.4v-.2q0-.7-.3-1-.4-.3-1.2-.3-.8 0-1.1.3-.4.2-.6.9l-1-.2q.1-.6.5-1 .3-.4 1-.6.5-.3 1.3-.3t1.3.2l.8.5.3.7v4.2l.4.8h-1.1q-.2-.3-.2-.8Zm-.1-2.3-1.8.4q-.6 0-.9.2l-.4.3-.1.5q0 .4.3.7.3.3 1 .3.5 0 1-.3.5-.2.7-.7.2-.4.2-1v-.4Zm3 3v-6.1h1v.9q.6-1 2-1l1 .1q.4.2.7.6l.3.7v4.9h-1v-3.8l-.1-1-.5-.5q-.3-.2-.7-.2-.7 0-1.2.5-.5.4-.5 1.6v3.4h-1Zm7 0v-8.5h1v5l2.5-2.6h1.4l-2.4 2.3 2.7 3.9h-1.3l-2.1-3.2-.7.7v2.5h-1.1Zm8.8.6 1 .2q0 .4.4.7.4.3 1 .3.8 0 1.2-.3.4-.3.5-.9l.1-1.3q-.7.8-1.7.8-1.3 0-2-1-.7-.9-.7-2.1 0-1 .3-1.7.3-.8 1-1.2.6-.4 1.4-.4 1 0 1.8 1v-.8h1v5.4q0 1.4-.3 2-.3.6-1 1-.6.3-1.5.3-1.1 0-1.8-.5t-.7-1.5Zm.9-3.7q0 1.2.5 1.8.4.5 1.2.5.7 0 1.2-.5.5-.6.5-1.8 0-1.1-.5-1.7-.5-.6-1.2-.6t-1.2.6q-.5.6-.5 1.7Zm6.3 3.2v-6.2h1v1q.3-.7.6-1 .3-.2.7-.2.5 0 1 .4l-.3 1q-.4-.3-.8-.3l-.6.2q-.3.2-.4.6l-.2 1.2v3.3h-1Zm3.6-3.1q0-1.7 1-2.6.8-.7 2-.7t2 .9q.8.8.8 2.3 0 1.2-.3 1.9-.4.7-1 1-.8.4-1.6.4-1.3 0-2.1-.8t-.8-2.4Zm1 0q0 1.2.6 1.8.5.6 1.3.6t1.3-.6q.5-.6.5-1.8 0-1.2-.5-1.8-.5-.6-1.3-.6t-1.3.6q-.5.6-.5 1.8Zm10.5 3.1v-1q-.8 1.1-2 1.1-.6 0-1-.2-.5-.2-.7-.5-.3-.3-.4-.8v-4.8h1v4.5l.5.7q.3.2.8.2t.9-.2q.4-.3.6-.7.2-.4.2-1.2v-3.3h1v6.2h-1Zm2.9 2.4v-8.6h1v.8q.3-.5.7-.7.5-.3 1-.3.9 0 1.5.4t.9 1.2q.3.7.3 1.6 0 1-.4 1.8-.3.7-1 1.1-.6.4-1.3.4l-1-.2-.7-.5v3h-1Zm1-5.5q0 1.2.4 1.8.5.6 1.2.6t1.2-.6q.5-.6.5-1.9 0-1.2-.5-1.7-.5-.6-1.1-.6-.7 0-1.2.6-.6.6-.6 1.8Zm-343.8-93H21V257q.1-.6.4-1 .3-.5.9-.7.5-.3 1.1-.3 1.1 0 1.9.7.8.7.8 2.5v2.2h3.5v1.2Zm-4.4-1.2v-2.2q0-1-.5-1.5-.4-.5-1.1-.5-.6 0-1 .3-.3.2-.4.7l-.1 1v2.2h3Zm2.5-11v-1q1 .2 1.6 1 .5.6.5 1.7 0 1.4-.9 2.2-.8.8-2.3.8-1.6 0-2.4-.8-1-.9-1-2.1 0-1.3 1-2 .8-.9 2.3-.9h.3v4.7q1 0 1.6-.6.5-.5.5-1.3 0-.6-.3-1t-1-.6Zm-1.8 3.5v-3.5q-.7.1-1.1.4-.6.5-.6 1.3t.4 1.3q.5.5 1.3.5Zm3.8-6.2h-6.3v-1h1q-.7-.3-.9-.6-.2-.3-.2-.7 0-.5.3-1l1 .3-.2.8.2.6q.2.3.6.4.5.2 1.2.2h3.3v1Zm-2.3-8 .1-1q1 0 1.7.8.6.7.6 1.7 0 1.3-.8 2-.9.8-2.4.8-1 0-1.8-.3t-1.1-1q-.4-.7-.4-1.5 0-1 .5-1.6.5-.7 1.5-.9l.1 1q-.6.2-1 .6-.2.3-.2.9 0 .8.5 1.3.6.5 1.8.5 1.3 0 1.9-.5.5-.5.5-1.3 0-.6-.4-1-.3-.4-1.1-.6Zm.3-6.2v-1.1q1 .2 1.6 1 .5.6.5 1.7 0 1.4-.9 2.2-.8.8-2.3.8-1.6 0-2.4-.8-1-.9-1-2.1 0-1.3 1-2 .8-.9 2.3-.9h.3v4.7q1 0 1.6-.6.5-.5.5-1.3 0-.6-.3-1t-1-.6Zm-1.8 3.4v-3.5q-.7.1-1.1.4-.6.5-.6 1.3t.4 1.3q.5.5 1.3.5Zm3.8-6.2h-6.3v-1h1q-1.1-.6-1.1-2l.2-1 .5-.7.8-.3h4.9v1h-3.8l-1 .1-.5.5q-.2.3-.2.7 0 .7.4 1.2.5.5 1.6.5h3.5v1Zm-1-9.3 1-.1v.8l-.1.8q-.2.4-.5.5l-1.3.1h-3.6v.8h-.8v-.8h-1.5l-.6-1h2.1v-1h.8v1h4.3l.2-.3v-.8Zm-2.2-3.3q-1.7 0-2.5-1-.7-.8-.7-2t.8-2q.9-.8 2.3-.8 1.3 0 2 .3.6.4 1 1 .4.8.4 1.6 0 1.3-.8 2.1-.9.8-2.5.8Zm0-1q1.2 0 1.8-.6.6-.5.6-1.3t-.6-1.3q-.6-.5-1.8-.5-1.1 0-1.7.5-.6.5-.6 1.3t.6 1.3q.5.5 1.7.5Zm3.2-6.6H24v.9h-.8v-1h-1.6q-.4-.2-.6-.6-.3-.4-.3-1l.1-1 1 .1-.1.6q0 .5.2.7.2.2.8.2h.5v-1.2h.8v1.2h5.5v1Zm2.3-5.8h-8.6v-1h.8l-.7-.7q-.2-.4-.2-1 0-.9.4-1.5t1.2-.9q.7-.3 1.6-.3 1 0 1.7.4.8.3 1.2 1 .4.6.4 1.3 0 .6-.2 1l-.6.7h3v1Zm-5.4-1q1.2 0 1.8-.4.5-.5.5-1.2t-.6-1.2q-.6-.5-1.8-.5-1.2 0-1.8.5-.6.5-.6 1.2 0 .6.6 1.1t1.9.6Zm2.3-10q.5.5.7 1l.2 1.2q0 1-.5 1.6-.5.6-1.3.6l-.8-.2q-.4-.2-.6-.6-.3-.3-.4-.7l-.1-1-.4-1.9h-.3q-.6 0-.9.3-.3.4-.3 1.2 0 .8.2 1.1.3.4 1 .6l-.2 1q-.7-.1-1-.5-.5-.3-.7-1-.2-.5-.2-1.3t.2-1.3l.4-.7q.3-.3.8-.4h4.2l.8-.4v1.1l-.8.2Zm-2.4 0q.3.6.4 1.8l.3.9q0 .2.3.4l.5.1q.4 0 .7-.3.3-.3.3-1 0-.5-.3-1t-.7-.7q-.4-.2-1-.2h-.5Zm3.7-2.8.1-1q.5 0 .7-.4.3-.4.3-1 0-.8-.3-1.2-.3-.4-.8-.5h-1.4q.9.6.9 1.6 0 1.3-1 2t-2.2.7q-.9 0-1.6-.3-.8-.3-1.2-1-.4-.5-.4-1.4 0-1 .9-1.8h-.8v-1h5.4q1.5 0 2 .3.7.3 1 1 .4.6.4 1.5 0 1.2-.5 1.8-.5.7-1.5.7Zm-3.8-.9q1.3 0 1.8-.4.6-.5.6-1.3 0-.7-.6-1.2-.5-.5-1.7-.5t-1.8.5q-.5.5-.5 1.2 0 .8.5 1.3.6.4 1.7.4Zm1.3-10.5v-1.1q1 .2 1.6 1 .5.6.5 1.7 0 1.4-.9 2.2-.8.8-2.3.8-1.6 0-2.4-.8-1-.9-1-2.1 0-1.3 1-2 .8-.9 2.3-.9h.3v4.7q1 0 1.6-.6.5-.5.5-1.3 0-.6-.3-1t-1-.6Zm-1.8 3.4v-3.5q-.7.1-1.1.4-.6.5-.6 1.3t.4 1.3q.5.5 1.3.5Zm1.9-5.8-.2-1q.7 0 1-.5.3-.4.3-1.1 0-.7-.3-1-.3-.4-.7-.4-.3 0-.5.3-.2.2-.4 1l-.5 1.7q-.2.4-.6.6-.4.3-.8.3l-.8-.2q-.4-.2-.6-.5l-.3-.7-.1-1q0-.7.2-1.2.2-.6.6-.8.3-.3 1-.4v1q-.4.1-.7.4-.2.4-.2 1 0 .7.2 1 .2.3.6.3h.3l.3-.5.3-1 .5-1.5.5-.7q.4-.2 1-.2.5 0 1 .3.4.3.6.9.3.5.3 1.3 0 1.2-.5 1.8-.5.7-1.5.8Zm49.3 142q0-1.5.3-2.5.3-.9 1-1.4.6-.5 1.5-.5.7 0 1.2.3t.9.8q.3.5.5 1.3.2.7.2 2 0 1.5-.3 2.4-.3 1-1 1.5-.5.5-1.5.5-1.2 0-2-1t-.8-3.4Zm1 0q0 2.1.6 2.8.5.7 1.2.7t1.2-.7q.5-.7.5-2.8 0-2.1-.5-2.8-.5-.7-1.2-.7t-1.2.6q-.5.8-.5 2.9Zm6.6 4.2v-1.2h1.2v1.2h-1.2Zm2.4-4.2q0-1.5.3-2.5.3-.9 1-1.4.6-.5 1.5-.5.7 0 1.2.3t.9.8q.3.5.5 1.3.2.7.2 2 0 1.5-.3 2.4-.3 1-1 1.5-.5.5-1.5.5-1.2 0-2-1t-.8-3.4Zm1 0q0 2.1.6 2.8.5.7 1.2.7t1.2-.7q.5-.7.5-2.8 0-2.1-.5-2.8-.5-.7-1.2-.7t-1.2.6q-.5.8-.5 2.9Zm6 0q0-1.5.3-2.5.3-.9 1-1.4.6-.5 1.5-.5.7 0 1.2.3t.9.8q.3.5.5 1.3.2.7.2 2 0 1.5-.3 2.4-.3 1-1 1.5-.5.5-1.5.5-1.2 0-2-1t-.8-3.4Zm1 0q0 2.1.6 2.8.5.7 1.2.7t1.2-.7q.5-.7.5-2.8 0-2.1-.5-2.8-.5-.7-1.2-.7t-1.2.6q-.5.8-.5 2.9Zm6.2-2.3q0-1 .5-1.6.4-.6 1.3-.6.8 0 1.3.6.6.5.6 1.7 0 1-.6 1.6-.5.6-1.3.6t-1.3-.6q-.5-.5-.5-1.7Zm1.8-1.5q-.4 0-.6.3-.3.4-.3 1.3 0 .8.3 1.2.2.3.6.3.4 0 .7-.3.3-.4.3-1.3 0-.8-.3-1.2-.3-.3-.7-.3Zm0 8.3 4.7-9h.9l-4.7 9h-.9Zm3.8-2.3q0-1 .4-1.6.5-.6 1.4-.6.8 0 1.3.6.5.5.5 1.7 0 1-.5 1.7-.5.5-1.3.5t-1.3-.5q-.5-.6-.5-1.8Zm1.8-1.5q-.4 0-.7.4-.2.3-.2 1.2 0 .8.2 1.2.3.3.7.3.4 0 .7-.3.2-.4.2-1.3 0-.8-.2-1.1-.3-.4-.7-.4Zm-26-52.9v1h-5.7v-.7q.3-.6.8-1.1l1.4-1.3q1.4-1.2 1.9-1.9.5-.6.5-1.2 0-.7-.5-1-.5-.5-1.2-.5t-1.2.4q-.4.5-.5 1.3l-1-.1q0-1.2.8-1.8.7-.7 2-.7 1.2 0 2 .7.6.7.6 1.7l-.2 1q-.2.5-.7 1l-1.6 1.6-1.2 1-.5.6h4.2Zm2 1v-1.2h1.2v1.2h-1.2Zm2.4-2.2 1.1-.1q.1.8.6 1.2.4.4 1 .4.8 0 1.3-.6.6-.5.6-1.5 0-.9-.5-1.4-.5-.5-1.4-.5-.5 0-.9.2t-.6.6l-1-.1.8-4.4h4.3v1h-3.4l-.5 2.3q.8-.6 1.6-.6 1.1 0 2 .8.7.8.7 2t-.7 2q-.8 1-2.2 1-1.2 0-2-.6-.7-.6-.8-1.7Zm7-2q0-1.5.3-2.4.3-1 1-1.5.6-.5 1.5-.5.7 0 1.2.3t.9.8q.3.5.5 1.3.2.7.2 2 0 1.5-.3 2.4-.3 1-1 1.5-.5.5-1.5.5-1.2 0-2-1t-.8-3.4Zm1 0q0 2.1.6 2.8.5.7 1.2.7t1.2-.7q.5-.7.5-2.8 0-2.1-.5-2.8-.5-.7-1.2-.7t-1.2.6q-.5.8-.5 2.9Zm6.2-2.3q0-1 .5-1.6.4-.6 1.3-.6.8 0 1.3.6.6.6.6 1.7 0 1-.6 1.7-.5.5-1.3.5t-1.3-.5q-.5-.6-.5-1.8Zm1.8-1.5q-.4 0-.6.4-.3.3-.3 1.2 0 .8.3 1.2.2.3.6.3.4 0 .7-.3.3-.4.3-1.3 0-.8-.3-1.1-.3-.4-.7-.4Zm0 8.4 4.7-9.1h.9l-4.7 9h-.9Zm3.8-2.4q0-.9.4-1.5.5-.7 1.4-.7.8 0 1.3.6t.5 1.7q0 1-.5 1.7-.5.6-1.3.6t-1.3-.6q-.5-.6-.5-1.8Zm1.8-1.5q-.4 0-.7.4-.2.3-.2 1.2 0 .8.2 1.2.3.3.7.3.4 0 .7-.3t.2-1.3q0-.8-.2-1.1-.3-.4-.7-.4ZM77 209.3h1.1q.1.7.6 1.1.4.4 1 .4.8 0 1.3-.5.6-.6.6-1.6 0-.9-.5-1.4-.5-.5-1.4-.5-.5 0-.9.2l-.6.6-1-.1.8-4.4h4.3v1h-3.4l-.5 2.3q.8-.6 1.6-.6 1.1 0 2 .8.7.8.7 2t-.7 2q-.8 1-2.2 1-1.2 0-2-.6-.7-.6-.8-1.7Zm7.6 2.3v-1.3h1.2v1.3h-1.2Zm2.4-4.3q0-1.5.3-2.4.3-1 1-1.5.6-.5 1.5-.5.7 0 1.2.3t.9.8q.3.5.5 1.3.2.7.2 2 0 1.5-.3 2.5-.3.9-1 1.4-.5.5-1.5.5-1.2 0-2-.9-.8-1-.8-3.5Zm1 0q0 2.1.6 2.8.5.7 1.2.7t1.2-.7q.5-.7.5-2.8 0-2.1-.5-2.8-.5-.7-1.2-.7t-1.2.6q-.5.8-.5 3Zm6 0q0-1.5.3-2.4.3-1 1-1.5.6-.5 1.5-.5.7 0 1.2.3t.9.8q.3.5.5 1.3.2.7.2 2 0 1.5-.3 2.5-.3.9-1 1.4-.5.5-1.5.5-1.2 0-2-.9-.8-1-.8-3.5Zm1 0q0 2.1.6 2.8.5.7 1.2.7t1.2-.7q.5-.7.5-2.8 0-2.1-.5-2.8-.5-.7-1.2-.7t-1.2.6q-.5.8-.5 3Zm6.2-2.3q0-.9.5-1.5.4-.7 1.3-.7.8 0 1.3.6.6.6.6 1.7 0 1-.6 1.7-.5.5-1.3.5t-1.3-.5q-.5-.6-.5-1.8Zm1.8-1.5q-.4 0-.6.4-.3.3-.3 1.2 0 .9.3 1.2.2.3.6.3.4 0 .7-.3.3-.4.3-1.2 0-.9-.3-1.2-.3-.4-.7-.4Zm0 8.4 4.7-9h.9l-4.7 9h-.9Zm3.8-2.4q0-.9.4-1.5.5-.7 1.4-.7.8 0 1.3.6t.5 1.7q0 1-.5 1.7-.5.6-1.3.6t-1.3-.6q-.5-.6-.5-1.8Zm1.8-1.4q-.4 0-.7.3-.2.3-.2 1.2 0 .9.2 1.2.3.3.7.3.4 0 .7-.3.2-.3.2-1.2 0-.9-.2-1.2-.3-.3-.7-.3ZM77 148.7v-1h5.5v.8q-.8.9-1.6 2.3-.8 1.5-1.2 3-.4 1-.4 2.4h-1.1q0-1 .4-2.5.3-1.4 1-2.8.8-1.3 1.6-2.2H77Zm7.5 7.5V155h1.2v1.2h-1.2Zm2.4-2.3H88q.1.7.6 1.1.4.4 1 .4.8 0 1.3-.5.6-.6.6-1.5 0-1-.5-1.5t-1.4-.5q-.5 0-.9.2l-.6.6h-1l.8-4.5h4.3v1h-3.4l-.5 2.3q.8-.5 1.6-.5 1.1 0 2 .7.7.8.7 2t-.7 2q-.8 1.1-2.2 1.1-1.2 0-2-.6-.7-.7-.8-1.8Zm7-2q0-1.5.3-2.4.3-1 1-1.5.6-.5 1.5-.5.7 0 1.2.3t.9.8l.5 1.3q.2.8.2 2 0 1.5-.3 2.5-.3.9-1 1.4-.5.5-1.5.5-1.2 0-2-.9-.8-1-.8-3.5Zm1 0q0 2.1.6 2.8.5.7 1.2.7t1.2-.7q.5-.7.5-2.8 0-2-.5-2.8-.5-.7-1.2-.7t-1.2.6q-.5.8-.5 3Zm6.2-2.3q0-.9.5-1.5.4-.7 1.3-.7.8 0 1.3.6.6.6.6 1.7 0 1-.6 1.7-.5.6-1.3.6t-1.3-.6q-.5-.6-.5-1.8Zm1.8-1.4q-.4 0-.6.3-.3.3-.3 1.2 0 .9.3 1.2.2.3.6.3.4 0 .7-.3.3-.3.3-1.2 0-.9-.3-1.2-.3-.3-.7-.3Zm0 8.3 4.7-9h.9l-4.7 9h-.9Zm3.8-2.3q0-1 .4-1.6.5-.7 1.4-.7.8 0 1.3.6t.5 1.7q0 1.1-.5 1.7-.5.6-1.3.6t-1.3-.6q-.5-.6-.5-1.7Zm1.8-1.5q-.4 0-.7.3-.2.4-.2 1.3 0 .8.2 1.1.3.4.7.4.4 0 .7-.4t.2-1.2q0-.9-.2-1.2-.3-.3-.7-.3Zm-34.6-52h-1v-6.6l-1 .7-1.2.5v-1q.9-.4 1.5-1 .7-.6 1-1.1h.7v8.6Zm3-4.2q0-1.5.3-2.4.3-1 1-1.4.6-.5 1.5-.5.7 0 1.2.2.5.3.9.9l.5 1.2q.2.8.2 2 0 1.6-.3 2.5-.3 1-1 1.4-.5.5-1.5.5-1.2 0-2-.9-.8-1-.8-3.5Zm1 0q0 2.2.6 2.9.5.7 1.2.7t1.2-.7q.5-.7.5-2.9 0-2-.5-2.8-.5-.7-1.2-.7t-1.2.6q-.5.8-.5 3Zm6.6 4.3v-1.2h1.2v1.2h-1.2Zm2.4-4.3q0-1.5.3-2.4.3-1 1-1.4.6-.5 1.5-.5.7 0 1.2.2.5.3.9.9l.5 1.2q.2.8.2 2 0 1.6-.3 2.5-.3 1-1 1.4-.5.5-1.5.5-1.2 0-2-.9-.8-1-.8-3.5Zm1 0q0 2.2.6 2.9.5.7 1.2.7t1.2-.7q.5-.7.5-2.9 0-2-.5-2.8-.5-.7-1.2-.7t-1.2.6q-.5.8-.5 3Zm6 0q0-1.5.3-2.4.3-1 1-1.4.6-.5 1.5-.5.7 0 1.2.2.5.3.9.9l.5 1.2q.2.8.2 2 0 1.6-.3 2.5-.3 1-1 1.4-.5.5-1.5.5-1.2 0-2-.9-.8-1-.8-3.5Zm1 0q0 2.2.6 2.9.5.7 1.2.7t1.2-.7q.5-.7.5-2.9 0-2-.5-2.8-.5-.7-1.2-.7t-1.2.6q-.5.8-.5 3Zm6.2-2.2q0-1 .5-1.6.4-.7 1.3-.7.8 0 1.3.6.6.6.6 1.7t-.6 1.7q-.5.6-1.3.6t-1.3-.6q-.5-.6-.5-1.7Zm1.8-1.5q-.4 0-.6.3-.3.4-.3 1.3 0 .8.3 1.1.2.4.6.4.4 0 .7-.4.3-.3.3-1.2 0-.9-.3-1.2-.3-.3-.7-.3Zm0 8.3 4.7-9h.9l-4.7 9h-.9Zm3.8-2.3q0-1 .4-1.6.5-.6 1.4-.6.8 0 1.3.5.5.6.5 1.7t-.5 1.7q-.5.6-1.3.6t-1.3-.6q-.5-.6-.5-1.7Zm1.8-1.5q-.4 0-.7.3-.2.4-.2 1.3 0 .8.2 1.1.3.4.7.4.4 0 .7-.4.2-.3.2-1.2 0-.8-.2-1.2-.3-.3-.7-.3Zm55.7 238h-1v-6.7l-1.1.7-1.1.6v-1l1.5-1q.7-.6 1-1.2h.7v8.6Zm3.5 0v-1.2h1.3v1.2q0 .7-.3 1-.2.5-.7.7l-.3-.4.5-.5.2-.8h-.7Zm2.5-4.2q0-1.5.3-2.5.3-.9 1-1.4.5-.5 1.5-.5.7 0 1.2.3t.9.8q.3.5.5 1.3.2.7.2 2 0 1.5-.3 2.4-.3 1-1 1.5-.6.5-1.5.5-1.3 0-2-1-.8-1-.8-3.4Zm1 0q0 2.1.6 2.8.5.7 1.2.7t1.2-.7q.5-.7.5-2.8 0-2.1-.5-2.8-.5-.7-1.2-.7-.8 0-1.2.6-.5.8-.5 2.9Zm6 0q0-1.5.3-2.5.3-.9 1-1.4.5-.5 1.5-.5.7 0 1.2.3t.9.8q.3.5.5 1.3.2.7.2 2 0 1.5-.3 2.4-.3 1-1 1.5-.6.5-1.5.5-1.3 0-2-1-.8-1-.8-3.4Zm1 0q0 2.1.6 2.8.5.7 1.2.7t1.2-.7q.5-.7.5-2.8 0-2.1-.5-2.8-.5-.7-1.2-.7-.8 0-1.2.6-.5.8-.5 2.9Zm6 0q0-1.5.3-2.5.3-.9 1-1.4.5-.5 1.5-.5.7 0 1.2.3t.9.8q.3.5.5 1.3.2.7.2 2 0 1.5-.3 2.4-.3 1-1 1.5-.6.5-1.5.5-1.3 0-2-1-.8-1-.8-3.4Zm1 0q0 2.1.6 2.8.5.7 1.2.7t1.2-.7q.5-.7.5-2.8 0-2.1-.5-2.8-.5-.7-1.2-.7-.8 0-1.2.6-.5.8-.5 2.9Zm61 4.2h-1v-6.7l-1 .7-1.1.6v-1l1.5-1q.7-.6 1-1.2h.7v8.6Zm3-4.2q0-1.5.4-2.5.3-.9 1-1.4.6-.5 1.5-.5.7 0 1.2.3t.9.8q.3.5.5 1.3.2.7.2 2 0 1.5-.3 2.4-.3 1-1 1.5-.6.5-1.5.5-1.2 0-2-1t-.8-3.4Zm1.2 0q0 2.1.5 2.8.5.7 1.2.7t1.2-.7q.5-.7.5-2.8 0-2.1-.5-2.8-.5-.7-1.2-.7t-1.2.6q-.5.8-.5 2.9Zm6.5 4.2v-1.2h1.2v1.2q0 .7-.3 1-.2.5-.7.7l-.3-.4.5-.5.2-.8h-.6Zm2.4-4.2q0-1.5.3-2.5.3-.9 1-1.4.6-.5 1.5-.5.7 0 1.2.3t.9.8q.3.5.5 1.3.2.7.2 2 0 1.5-.3 2.4-.3 1-1 1.5-.6.5-1.5.5-1.2 0-2-1t-.8-3.4Zm1 0q0 2.1.6 2.8.5.7 1.2.7t1.2-.7q.5-.7.5-2.8 0-2.1-.5-2.8-.5-.7-1.2-.7t-1.2.6q-.5.8-.5 2.9Zm6 0q0-1.5.3-2.5.3-.9 1-1.4.6-.5 1.5-.5.7 0 1.2.3t.9.8q.3.5.5 1.3.2.7.2 2 0 1.5-.3 2.4-.3 1-1 1.5-.6.5-1.5.5-1.2 0-2-1t-.8-3.4Zm1 0q0 2.1.6 2.8.5.7 1.2.7t1.2-.7q.5-.7.5-2.8 0-2.1-.5-2.8-.5-.7-1.2-.7t-1.2.6q-.5.8-.5 2.9Zm6 0q0-1.5.3-2.5.3-.9 1-1.4.6-.5 1.5-.5.7 0 1.2.3t.9.8q.3.5.5 1.3.2.7.2 2 0 1.5-.3 2.4-.3 1-1 1.5-.6.5-1.5.5-1.2 0-2-1t-.8-3.4Zm1 0q0 2.1.6 2.8.5.7 1.2.7t1.2-.7q.5-.7.5-2.8 0-2.1-.5-2.8-.5-.7-1.2-.7t-1.2.6q-.5.8-.5 2.9Zm54 4.2h-1v-6.7l-1 .7-1 .6v-1l1.4-1q.7-.6 1-1.2h.7v8.6Zm3.1-4.2q0-1.5.3-2.5.3-.9 1-1.4.6-.5 1.5-.5.7 0 1.2.3t.9.8q.3.5.5 1.3.2.7.2 2 0 1.5-.3 2.4-.3 1-1 1.5-.6.5-1.5.5-1.2 0-2-1t-.8-3.4Zm1 0q0 2.1.6 2.8.5.7 1.2.7t1.2-.7q.5-.7.5-2.8 0-2.1-.5-2.8-.5-.7-1.2-.7t-1.2.6q-.5.8-.5 2.9Zm6 0q0-1.5.3-2.5.3-.9 1-1.4.6-.5 1.5-.5.7 0 1.2.3t.9.8q.3.5.5 1.3.2.7.2 2 0 1.5-.3 2.4-.3 1-1 1.5-.6.5-1.5.5-1.2 0-2-1t-.8-3.4Zm1 0q0 2.1.6 2.8.5.7 1.2.7t1.2-.7q.5-.7.5-2.8 0-2.1-.5-2.8-.5-.7-1.2-.7t-1.2.6q-.5.8-.5 2.9Zm6.6 4.2v-1.2h1.2v1.2q0 .7-.3 1-.2.5-.7.7l-.3-.4.5-.5.2-.8h-.6Zm2.4-4.2q0-1.5.3-2.5.3-.9 1-1.4.6-.5 1.5-.5.7 0 1.2.3t.9.8q.3.5.5 1.3.2.7.2 2 0 1.5-.3 2.4-.3 1-1 1.5-.6.5-1.5.5-1.2 0-2-1t-.8-3.4Zm1 0q0 2.1.6 2.8.5.7 1.2.7t1.2-.7q.5-.7.5-2.8 0-2.1-.5-2.8-.5-.7-1.2-.7t-1.2.6q-.5.8-.5 2.9Zm6 0q0-1.5.3-2.5.3-.9 1-1.4.6-.5 1.5-.5.7 0 1.2.3t.9.8q.3.5.5 1.3.2.7.2 2 0 1.5-.3 2.4-.3 1-1 1.5-.6.5-1.5.5-1.2 0-2-1t-.8-3.4Zm1 0q0 2.1.6 2.8.5.7 1.2.7t1.2-.7q.5-.7.5-2.8 0-2.1-.5-2.8-.5-.7-1.2-.7t-1.2.6q-.5.8-.5 2.9Zm6 0q0-1.5.3-2.5.3-.9 1-1.4.6-.5 1.5-.5.7 0 1.2.3t.9.8q.3.5.5 1.3.2.7.2 2 0 1.5-.3 2.4-.3 1-1 1.5-.6.5-1.5.5-1.2 0-2-1t-.8-3.4Zm1 0q0 2.1.6 2.8.5.7 1.2.7t1.2-.7q.5-.7.5-2.8 0-2.1-.5-2.8-.5-.7-1.2-.7t-1.2.6q-.5.8-.5 2.9Zm45.6 4.2h-1v-6.7l-1 .7-1.2.6v-1l1.6-1q.6-.6.9-1.2h.7v8.6Zm3.6 0v-1.2h1.2v1.2q0 .7-.3 1-.2.5-.7.7l-.3-.4.5-.5.2-.8h-.6Zm2.4-4.2q0-1.5.3-2.5.3-.9 1-1.4.6-.5 1.5-.5.7 0 1.2.3t.9.8q.3.5.5 1.3.2.7.2 2 0 1.5-.3 2.4-.3 1-1 1.5-.5.5-1.5.5-1.2 0-2-1t-.8-3.4Zm1 0q0 2.1.6 2.8.5.7 1.2.7t1.2-.7q.5-.7.5-2.8 0-2.1-.5-2.8-.5-.7-1.2-.7t-1.2.6q-.5.8-.5 2.9Zm6 0q0-1.5.3-2.5.3-.9 1-1.4.6-.5 1.5-.5.7 0 1.2.3t.9.8q.3.5.5 1.3.2.7.2 2 0 1.5-.3 2.4-.3 1-1 1.5-.5.5-1.5.5-1.2 0-2-1t-.8-3.4Zm1 0q0 2.1.6 2.8.5.7 1.2.7t1.2-.7q.5-.7.5-2.8 0-2.1-.5-2.8-.5-.7-1.2-.7t-1.2.6q-.5.8-.5 2.9Zm6 0q0-1.5.3-2.5.3-.9 1-1.4.6-.5 1.5-.5.7 0 1.2.3t.9.8q.3.5.5 1.3.2.7.2 2 0 1.5-.3 2.4-.3 1-1 1.5-.5.5-1.5.5-1.2 0-2-1t-.8-3.4Zm1 0q0 2.1.6 2.8.5.7 1.2.7t1.2-.7q.5-.7.5-2.8 0-2.1-.5-2.8-.5-.7-1.2-.7t-1.2.6q-.5.8-.5 2.9Zm6.6 4.2v-1.2h1.2v1.2q0 .7-.3 1-.2.5-.7.7l-.3-.4.5-.5.2-.8h-.6Zm2.4-4.2q0-1.5.3-2.5.3-.9 1-1.4.6-.5 1.5-.5.7 0 1.2.3t.9.8q.3.5.5 1.3.2.7.2 2 0 1.5-.3 2.4-.3 1-1 1.5-.5.5-1.5.5-1.2 0-2-1t-.8-3.4Zm1 0q0 2.1.6 2.8.5.7 1.2.7t1.2-.7q.5-.7.5-2.8 0-2.1-.5-2.8-.5-.7-1.2-.7t-1.2.6q-.5.8-.5 2.9Zm6 0q0-1.5.3-2.5.3-.9 1-1.4.6-.5 1.5-.5.7 0 1.2.3t.9.8q.3.5.5 1.3.2.7.2 2 0 1.5-.3 2.4-.3 1-1 1.5-.5.5-1.5.5-1.2 0-2-1t-.8-3.4Zm1 0q0 2.1.6 2.8.5.7 1.2.7t1.2-.7q.5-.7.5-2.8 0-2.1-.5-2.8-.5-.7-1.2-.7t-1.2.6q-.5.8-.5 2.9Zm6 0q0-1.5.3-2.5.3-.9 1-1.4.6-.5 1.5-.5.7 0 1.2.3t.9.8q.3.5.5 1.3.2.7.2 2 0 1.5-.3 2.4-.3 1-1 1.5-.5.5-1.5.5-1.2 0-2-1t-.8-3.4Zm1 0q0 2.1.6 2.8.5.7 1.2.7t1.2-.7q.5-.7.5-2.8 0-2.1-.5-2.8-.5-.7-1.2-.7t-1.2.6q-.5.8-.5 2.9Zm62 3.5q-.6.5-1.2.7-.5.2-1.1.2-1 0-1.6-.5-.5-.5-.5-1.3 0-.5.2-.8l.5-.7.8-.3 1-.2 1.8-.3v-.3q0-.7-.3-1-.4-.3-1.2-.3-.8 0-1.1.3-.4.3-.5 1l-1-.2q0-.7.4-1 .3-.5 1-.7.5-.2 1.3-.2l1.3.1.8.5.3.7v2.4l.1 1.9q0 .4.3.7h-1.1q-.2-.3-.2-.7Zm-.1-2.4-1.7.4-1 .2-.4.3-.1.5q0 .5.3.8.3.2 1 .2l1-.2q.5-.3.7-.8.2-.3.2-1v-.4Zm3 3.1v-8.6h1v8.6h-1Zm3 0v-8.6h1v8.6h-1Z"/><path fill="#a8caba" d="M231 78a1 1 0 0 1 1-1h10a1 1 0 0 1 1 1v10a1 1 0 0 1-1 1h-10a1 1 0 0 1-1-1Z"/><path fill="#838689" d="M255.8 87v-1q-.6 1-1.7 1-.8 0-1.4-.4-.6-.5-1-1.2-.3-.7-.3-1.7 0-.9.3-1.7.3-.7 1-1.1.6-.4 1.3-.4.6 0 1 .2.5.2.8.6v-3h1v8.5h-1Zm-3.3-3.2q0 1.2.5 1.8.5.6 1.2.6t1.2-.6q.4-.5.4-1.7 0-1.3-.5-1.9-.4-.6-1.2-.6-.7 0-1.1.6-.5.6-.5 1.8ZM263 85l1.1.2q-.2 1-1 1.4-.6.6-1.7.6-1.4 0-2.2-.9-.8-.8-.8-2.3 0-1.6.9-2.5.8-.8 2-.8 1.3 0 2 .8.9.9.9 2.4v.3h-4.7q0 1 .6 1.6.5.5 1.3.5.6 0 1-.3t.6-1Zm-3.4-1.7h3.5q-.1-.8-.4-1.2-.5-.6-1.3-.6t-1.3.5q-.5.5-.5 1.3Zm5.8 1.9 1-.2q.1.6.5 1 .4.3 1.1.3.8 0 1-.3.5-.3.5-.7 0-.4-.4-.6l-1-.3-1.6-.5q-.5-.2-.7-.6-.3-.4-.3-.9 0-.4.2-.7.2-.4.6-.6l.6-.3 1-.1q.7 0 1.2.2.6.2.8.5.3.4.4 1l-1 .1q-.1-.4-.4-.7-.4-.3-1-.3-.7 0-1 .3-.3.2-.3.5v.4l.5.3 1 .2 1.5.5q.4.2.7.6.2.4.2.9t-.3 1q-.3.5-.9.7-.5.3-1.3.3-1.2 0-1.8-.5-.7-.5-.8-1.5Zm7.4 1.8v-8.6h1v5l2.5-2.6h1.4l-2.4 2.3 2.7 4h-1.3l-2.1-3.3-.7.8V87h-1.1Zm8.3-1 .2 1-.8.1q-.6 0-1-.2l-.4-.5-.1-1.2v-3.6h-.8v-.8h.8v-1.5l1-.7v2.2h1v.8h-1v4.2q.1.2.3.2l.3.1h.5Zm.3-2q0-1.8 1-2.6.8-.7 2-.7t2 .8q.8.8.8 2.3 0 1.2-.3 2-.4.6-1 1-.8.4-1.6.4-1.3 0-2.1-.9-.8-.8-.8-2.4Zm1 0q0 1.1.6 1.7.5.6 1.3.6t1.3-.6q.5-.6.5-1.8 0-1.2-.5-1.8-.5-.6-1.3-.6t-1.3.6q-.5.6-.5 1.8Zm6.4 5.4v-8.6h1v.8q.3-.5.7-.7l1-.2q.9 0 1.5.4t.9 1.1q.3.8.3 1.7 0 1-.4 1.7-.3.8-1 1.2-.6.4-1.3.4-.5 0-1-.3l-.7-.5v3h-1Zm1-5.5q0 1.3.4 1.8.5.6 1.2.6t1.2-.6q.5-.6.5-1.8 0-1.2-.5-1.8-.5-.6-1.1-.6-.7 0-1.2.6t-.5 1.8Z"/><path fill="#62718b" d="M311 78a1 1 0 0 1 1-1h10a1 1 0 0 1 1 1v10a1 1 0 0 1-1 1h-10a1 1 0 0 1-1-1Z"/><path fill="#838689" d="M331.8 87v-6.3h1v.9q.2-.5.7-.8.5-.2 1.1-.2.7 0 1.1.2.5.3.7.8.7-1 1.9-1 1 0 1.4.5.5.5.5 1.6v4.2h-1V83l-.1-.9q-.1-.3-.4-.5l-.6-.1q-.7 0-1.1.4-.5.4-.5 1.4V87h-1v-4q0-.7-.3-1-.2-.4-.8-.4-.5 0-.8.2-.4.2-.6.7-.2.4-.2 1.3V87h-1Zm10.6-3.2q0-1.7 1-2.5.8-.7 2-.7t2 .8q.8.8.8 2.3 0 1.2-.3 2-.4.6-1 1-.8.4-1.6.4-1.3 0-2.1-.9-.8-.8-.8-2.4Zm1 0q0 1.2.6 1.8.5.6 1.3.6t1.3-.6q.5-.6.5-1.8 0-1.2-.5-1.8-.5-.6-1.3-.6t-1.3.6q-.5.6-.5 1.8Zm7.4 3.1h-1v-8.6h1v3.1q.7-.8 1.7-.8.6 0 1.1.2.5.2.9.6l.5 1 .2 1.3q0 1.6-.8 2.5-.8.9-1.9.9-1.1 0-1.7-1v.8Zm0-3.1q0 1 .3 1.6.5.8 1.3.8.7 0 1.2-.6t.5-1.8q0-1.2-.5-1.8-.5-.6-1.1-.6-.7 0-1.3.6-.4.6-.4 1.8Zm6-4.2v-1.3h1v1.3h-1Zm0 7.3v-6.2h1V87h-1Zm3 0v-8.6h1V87h-1Zm7.2-2 1.1.2q-.2 1-1 1.4-.6.6-1.7.6-1.4 0-2.2-.9-.8-.8-.8-2.3 0-1.6.9-2.5.8-.8 2-.8 1.3 0 2 .8.9.9.9 2.4v.3h-4.7q0 1 .6 1.6.5.5 1.3.5.6 0 1-.3t.6-1Zm-3.4-1.7h3.5q-.1-.8-.4-1.2-.5-.6-1.3-.6t-1.3.5q-.5.5-.5 1.3ZM214.3 60.6l-2.6-10h1.3l1.6 6.5.4 2 .4-1.8 2-6.8h1.5l1.5 5.1.8 3.6q.1-1 .5-2.2l1.5-6.5h1.4l-2.8 10h-1.3l-2-7.6-.4-1.2-.3 1.2-2.1 7.7h-1.4Zm16-2.4 1.4.2q-.3 1.1-1.2 1.7-.8.6-2 .6-1.6 0-2.6-1-.9-1-.9-2.7 0-1.8 1-2.8 1-1 2.4-1 1.5 0 2.4 1 .9 1 .9 2.7v.3h-5.4q0 1.2.7 1.9.6.6 1.5.6.7 0 1.1-.3.5-.4.8-1.2Zm-4-2h4.1q0-.9-.5-1.3-.5-.7-1.5-.7-.8 0-1.4.5-.6.6-.6 1.5Zm8.3 4.4h-1.2v-10h1.2V54q.8-1 2-1 .7 0 1.3.3.6.3 1 .8t.6 1.1q.2.7.2 1.5 0 1.9-1 3-.8 1-2.1 1t-2-1.1v.9Zm0-3.7q0 1.3.3 1.9.6 1 1.6 1 .8 0 1.4-.8.6-.7.6-2 0-1.5-.6-2.2-.6-.6-1.4-.6-.8 0-1.4.7-.6.6-.6 2Zm9.9 3.7 3.8-10h1.4l4.2 10h-1.6l-1.1-3H247l-1.1 3h-1.4Zm2.9-4.1h3.4l-1-2.8-.8-2.1-.5 1.9-1.1 3Zm7 4v-10h1.2v10h-1.2Zm3 0v-7.2h1.1v1q.4-.5 1-.8.5-.4 1.2-.4.8 0 1.3.4.6.3.8.9.8-1.3 2.2-1.3 1 0 1.7.6.6.6.6 1.9v5H266V55q-.2-.4-.5-.6-.3-.2-.8-.2-.7 0-1.2.5t-.5 1.6v4.3h-1.3v-4.8q0-.8-.3-1.2-.3-.4-1-.4-.5 0-1 .3-.4.2-.6.8l-.1 1.5v3.8h-1.3Zm15.8-.8-1.4.8q-.6.2-1.3.2-1.2 0-1.9-.5-.6-.6-.6-1.6l.2-1q.3-.4.7-.6.4-.3.9-.4l1-.2 2.3-.4v-.4q0-.7-.4-1-.5-.4-1.4-.4-.8 0-1.3.3-.4.3-.6 1l-1.2-.1q.2-.8.5-1.3.4-.4 1.1-.7.8-.3 1.7-.3 1 0 1.5.3.6.2.8.5.3.3.4.8l.1 1.2v3.8l.4.9h-1.3q-.2-.4-.2-1Zm-.1-2.8q-.7.3-2 .5l-1.1.2-.5.4-.2.6q0 .5.4.8.4.4 1 .4.8 0 1.3-.3.6-.4.9-1 .2-.3.2-1.1v-.5Zm3.3 3.7v-7.3h1.1v1q.8-1.2 2.3-1.2.7 0 1.2.3.6.2.9.6l.4 1v5.6h-1.2V56l-.1-1q-.2-.4-.6-.7-.3-.2-.8-.2-.8 0-1.4.5-.5.5-.5 1.9v4h-1.3Zm12.8-1q-.7.6-1.4.9-.6.2-1.3.2-1.2 0-1.9-.5-.6-.6-.6-1.6l.2-1q.3-.4.7-.6.4-.3.9-.4l1-.2 2.3-.4v-.4q0-.7-.4-1-.5-.4-1.4-.4-.8 0-1.3.3-.4.3-.6 1l-1.2-.1q.2-.8.5-1.3.4-.4 1.1-.7.8-.3 1.7-.3 1 0 1.5.3.6.2.8.5.3.3.4.8l.1 1.2v3.8l.4.9h-1.3q-.2-.4-.2-1ZM289 57q-.7.3-2 .5l-1.1.2-.5.4-.2.6q0 .5.4.8.4.4 1 .4.8 0 1.3-.3.6-.4.9-1 .2-.3.2-1.1V57Zm8 1 1.3.2q-.2 1.2-1 2-.9.6-2 .6-1.5 0-2.4-1-1-1-1-2.7 0-1.2.4-2 .4-1 1.2-1.4.8-.5 1.8-.5 1.1 0 1.9.6.7.6 1 1.7l-1.2.2q-.2-.7-.6-1-.5-.4-1-.4-1 0-1.6.6-.6.7-.6 2.1 0 1.5.6 2.2.5.6 1.4.6.8 0 1.2-.4.5-.5.7-1.4Zm12.4 1.5v1.2H303q0-.5.2-.9.2-.7.8-1.3.5-.7 1.6-1.5 1.6-1.4 2.2-2.2.6-.7.6-1.5 0-.7-.6-1.2-.5-.5-1.3-.5-.9 0-1.4.5-.6.6-.6 1.5l-1.2-.1q0-1.4 1-2.2.8-.7 2.2-.7 1.5 0 2.3.8.8.8.8 2l-.2 1.2-.8 1.2-2 1.8-1.3 1.2q-.4.3-.6.7h5Zm1.6-3.8q0-1.8.3-2.8.4-1.1 1.1-1.7.8-.6 1.8-.6.9 0 1.5.3.6.4 1 1t.6 1.4q.2 1 .2 2.4 0 1.8-.3 2.9-.4 1-1.1 1.6-.7.6-1.9.6-1.4 0-2.2-1-1-1.3-1-4Zm1.2 0q0 2.5.6 3.3.6.8 1.4.8.9 0 1.5-.8t.6-3.3q0-2.5-.6-3.3-.6-.8-1.5-.8-.8 0-1.3.7-.7 1-.7 3.4Zm13.2 3.8v1.2H319q0-.5.2-.9.2-.7.8-1.3.5-.7 1.6-1.5 1.6-1.4 2.2-2.2.6-.7.6-1.5 0-.7-.6-1.2-.5-.5-1.3-.5-.9 0-1.4.5-.6.6-.6 1.5l-1.2-.1q0-1.4 1-2.2.8-.7 2.2-.7 1.5 0 2.3.8.8.8.8 2l-.2 1.2-.8 1.2-2 1.8-1.3 1.2q-.4.3-.6.7h5Zm8 0v1.2H327q0-.5.2-.9.2-.7.8-1.3.5-.7 1.6-1.5 1.6-1.4 2.2-2.2.6-.7.6-1.5 0-.7-.6-1.2-.5-.5-1.3-.5-.9 0-1.4.5-.6.6-.6 1.5l-1.2-.1q0-1.4 1-2.2.8-.7 2.2-.7 1.5 0 2.3.8.8.8.8 2l-.2 1.2-.8 1.2-2 1.8-1.3 1.2q-.4.3-.6.7h5Zm2.3-4.7v-1.4h1.4v1.4h-1.4Zm0 5.9v-1.4h1.4v1.4h-1.4Zm7.8 0v-10h5.3l1.2.5q.5.4.8 1 .3.6.3 1.3 0 1.3-.8 2.2-.8.9-3 .9H345v4h-1.3Zm1.3-5.3h2.6q1.3 0 1.8-.5.6-.5.6-1.3 0-.7-.4-1-.3-.5-.8-.7h-3.8v3.5Zm7.5 5.3v-7.3h1.1v1.1q.4-.8.8-1 .4-.3.8-.3.6 0 1.3.4l-.5 1.2q-.4-.3-.9-.3-.4 0-.7.3-.3.2-.5.6-.2.7-.2 1.5v3.8h-1.2Zm5-8.6v-1.5h1.3V52h-1.3Zm0 8.6v-7.3h1.3v7.3h-1.3Zm5 0-2.7-7.3h1.3l1.5 4.4.5 1.4.5-1.4 1.6-4.4h1.2l-2.7 7.3h-1.2Zm9.8-1q-.7.6-1.4.9-.6.2-1.3.2-1.2 0-1.9-.5-.6-.6-.6-1.6l.2-1q.3-.4.7-.6.4-.3.9-.4l1-.2 2.3-.4v-.4q0-.7-.4-1-.5-.4-1.4-.4-.8 0-1.3.3-.4.3-.6 1l-1.2-.1q.2-.8.5-1.3.4-.4 1.1-.7.8-.3 1.7-.3 1 0 1.5.3.6.2.8.5.3.3.4.8l.1 1.2v3.7l.4.9h-1.3q-.2-.4-.2-1ZM372 57q-.7.3-2 .5l-1.1.2-.5.4-.2.6q0 .5.4.8.4.4 1 .4.8 0 1.3-.3.6-.4.9-1 .2-.3.2-1.1V57Zm8 1 1.3.2q-.2 1.2-1 2-.9.6-2 .6-1.5 0-2.4-1-1-1-1-2.7 0-1.2.4-2 .4-1 1.2-1.4.8-.5 1.8-.5 1.1 0 1.9.6.7.6 1 1.7l-1.2.2q-.2-.7-.6-1-.5-.4-1-.4-1 0-1.6.6-.6.7-.6 2.1 0 1.5.6 2.2.5.6 1.4.6.8 0 1.2-.4.5-.5.7-1.4Zm2.3 5.5-.2-1.2.7.1.7-.1.4-.4.4-1v-.2l-2.7-7.3h1.3l1.6 4.2.5 1.7.5-1.7 1.5-4.2h1.3l-2.8 7.4q-.4 1.2-.7 1.6l-.7 1-1 .2-.8-.1Z"/><path fill="#1a2b49" d="M53.9 23.2h4l5.5 8v-8h4.1v14.3h-4.1L58 29.7v7.8h-4V23.2Zm27.6 14.3h-3.7V36q-.9 1-1.7 1.4-.8.5-2 .5-1.7 0-2.7-1-.9-1-.9-3v-6.6h4V33q0 1 .4 1.4.3.4 1 .4T77 34q.4-.5.4-2v-5h4v10.4Zm2-10.3h3.8v1.5q.8-1 1.6-1.4.8-.4 2-.4t2 .5q.7.4 1.1 1.3 1-1 1.7-1.4.8-.4 2-.4 1.6 0 2.5 1 1 1 1 3.1v6.5h-4v-5.9q0-.7-.3-1-.4-.5-1-.5-.7 0-1.1.5-.4.5-.4 1.6v5.3h-4V31q-.2-.4-.5-.6-.3-.3-.8-.3-.7 0-1 .6-.5.5-.5 1.7v5.3h-4V27.1Zm20-4h4v5l1.4-1q.8-.3 1.7-.3 2 0 3.1 1.4 1.3 1.4 1.3 4 0 1.6-.6 3-.5 1.2-1.5 1.8-1 .7-2.3.7-1 0-1.9-.5-.6-.3-1.4-1.3v1.6h-3.7V23.2Zm4 9.1q0 1.4.6 2 .5.6 1.2.6.8 0 1.2-.6.5-.6.5-2 0-1.2-.5-1.8-.4-.6-1.1-.6-.8 0-1.3.6t-.5 1.8Zm20.6 1h-8q.1 1 .5 1.5.6.7 1.5.7.6 0 1.1-.3.4-.2.7-.7l4 .4q-1 1.5-2.2 2.2-1.3.7-3.7.7-2 0-3.2-.6-1.2-.6-2-1.8-.7-1.3-.7-3 0-2.4 1.5-4 1.6-1.5 4.3-1.5 2.3 0 3.5.7 1.3.7 2 2 .7 1.2.7 3.3v.4Zm-4-1.9q-.2-1.1-.7-1.6-.5-.5-1.3-.5-1 0-1.5.7-.4.5-.5 1.4h4Zm5.5-4.2h3.7v1.7q.6-1.1 1.1-1.5.6-.5 1.4-.5 1 0 2 .6l-1.3 2.8-1-.3q-.9 0-1.3.7-.6.9-.6 3.4v3.4h-4V27.2Zm15.5 5.2q0-2.4 1.6-4 1.6-1.5 4.3-1.5 3.1 0 4.7 1.9 1.3 1.4 1.3 3.5 0 2.4-1.6 4-1.6 1.5-4.4 1.5-2.5 0-4-1.3-2-1.6-2-4.1Zm4 0q0 1.4.5 2 .6.7 1.4.7.9 0 1.4-.7.6-.6.6-2t-.6-2q-.5-.7-1.3-.7-1 0-1.5.6-.5.7-.5 2Zm13.9-5.2h1.9V30h-2v7.4h-4V30h-1.4v-3h1.5v-.4l.1-1.4q.2-.8.5-1.2.4-.5 1.1-.8.7-.3 2-.3l3 .2-.4 2.4H164l-.7.1q-.3.2-.4.6v.9Zm9.4 0h3.8l1.7 6.5 2.1-6.5h3.6l2.2 6.5 1.6-6.5h3.9l-3.9 10.4H184l-2-6.3-2.1 6.3h-3.6l-3.8-10.4Zm31.7 6.1h-8q.1 1 .5 1.5.6.7 1.5.7.6 0 1.1-.3.4-.2.7-.7l4 .4q-1 1.5-2.2 2.2-1.3.7-3.7.7-2 0-3.2-.6-1.2-.6-2-1.8-.7-1.3-.7-3 0-2.4 1.5-4 1.6-1.5 4.3-1.5 2.3 0 3.5.7 1.3.7 2 2 .7 1.2.7 3.3v.4Zm-4-1.9q-.2-1.1-.7-1.6-.5-.5-1.3-.5-1 0-1.5.8-.4.4-.5 1.3h4Zm5.5-8.2h4v5q.6-.6 1.3-1 .8-.3 1.7-.3 2 0 3.1 1.4 1.3 1.4 1.3 4 0 1.6-.6 3-.5 1.2-1.5 1.8-1 .7-2.3.7-1 0-1.9-.5-.6-.3-1.4-1.3v1.6h-3.7V23.2Zm4 9.1q0 1.4.5 2 .5.6 1.2.6.8 0 1.2-.6.5-.6.5-2 0-1.2-.5-1.8-.4-.6-1.1-.6-.8 0-1.3.6t-.5 1.8Zm8.3 2.4 3.9-.4q.2.7.7 1 .4.3 1.2.3.7 0 1.2-.3.3-.3.3-.7 0-.4-.4-.6-.3-.2-1.7-.4l-2.9-.7q-.8-.3-1.4-1-.5-.8-.5-1.7 0-1 .6-1.8.6-.7 1.6-1 1-.5 2.8-.5 1.9 0 2.8.3.8.3 1.4 1 .6.5 1 1.5l-3.7.4q-.2-.5-.5-.7-.5-.3-1.2-.3-.6 0-1 .2-.2.2-.2.6 0 .3.3.5.4.2 1.7.4 2 .2 3 .6 1 .4 1.5 1.2.5.7.5 1.6 0 .9-.6 1.7-.5.9-1.7 1.4-1.1.5-3.2.5-2.8 0-4-.8-1.2-.8-1.5-2.3Zm12.8-11.5h4V26h-4v-2.7Zm0 4h4v10.3h-4V27.2Zm11.7-4v4h2.1V30h-2.1v4.5q.3.4.8.4l1.2-.3.3 2.8q-1.5.3-2.8.3-1.5 0-2.2-.4-.7-.4-1-1.1-.3-.8-.3-2.6V30h-1.5v-3h1.5v-1.8l4-2ZM258 33.3h-8q.1 1 .5 1.5.6.7 1.5.7.6 0 1.1-.3.4-.2.7-.7l4 .4q-1 1.5-2.2 2.2-1.3.7-3.7.7-2 0-3.2-.6-1.2-.6-2-1.8-.7-1.3-.7-3 0-2.4 1.5-4 1.6-1.5 4.3-1.5 2.3 0 3.5.7 1.3.7 2 2 .7 1.2.7 3.3v.4Zm-4-1.9q-.2-1.1-.7-1.6-.5-.5-1.3-.5-1 0-1.5.8-.4.4-.5 1.3h4Zm4.8 3.3 3.9-.4q.2.7.7 1 .4.3 1.2.3.7 0 1.2-.3.3-.3.3-.7 0-.4-.4-.6-.3-.2-1.7-.4l-2.9-.7q-.8-.3-1.4-1-.5-.8-.5-1.7 0-1 .6-1.8.6-.7 1.6-1 1-.5 2.8-.5 1.9 0 2.8.3.8.3 1.4 1 .6.5 1 1.5l-3.7.4q-.2-.5-.5-.7-.5-.3-1.2-.3-.6 0-1 .2-.2.2-.2.6 0 .3.3.5.4.2 1.7.4 2 .2 3 .6 1 .4 1.5 1.2.5.7.5 1.6 0 .9-.6 1.7-.5.9-1.7 1.4-1.1.5-3.2.5-2.8 0-4-.8-1.2-.8-1.5-2.3Zm18.5-7.5h3.8l1.7 6.5 2.1-6.5h3.6l2.2 6.5 1.6-6.5h3.9l-3.9 10.4H289l-2-6.3-2.1 6.3h-3.6l-3.8-10.4Zm20.3-4h4V26h-4v-2.7Zm0 4h4v10.3h-4V27.2Zm11.7-4v4h2.1V30h-2.1v4.5q.3.4.8.4l1.2-.3.3 2.8q-1.5.3-2.8.3-1.5 0-2.2-.4-.7-.4-1-1.1-.3-.8-.3-2.6V30h-1.5v-3h1.5v-1.8l4-2Zm4.2 0h4v5.3q.7-.8 1.5-1.2.8-.4 2-.4 1.6 0 2.5 1 1 1 1 3v6.7h-4v-5.8q0-1-.4-1.3-.4-.4-1-.4-.8 0-1.2.5-.5.6-.5 2v5h-4V23.2Zm29.8 8.5 3.8 1.2q-.4 1.6-1.2 2.7-.8 1-2.1 1.7-1.2.5-3.2.5-2.3 0-3.8-.7t-2.5-2.4q-1-1.7-1-4.3 0-3.6 1.8-5.5 1.9-2 5.3-2 2.7 0 4.3 1.2 1.5 1 2.3 3.3l-4 1q-.1-.7-.3-1-.4-.6-1-.8-.5-.3-1.2-.3-1.5 0-2.3 1.2-.6 1-.6 2.8 0 2.4.7 3.3.8.9 2 .9 1.4 0 2-.7.7-.7 1-2Zm6.3-8.5h4v14.3h-4V23.2Zm7 0h4V26h-4v-2.7Zm0 4h4v10.3h-4V27.2Zm18.4 6.1h-8q.1 1 .5 1.5.6.7 1.5.7.6 0 1.1-.3.4-.2.7-.7l4 .4q-1 1.5-2.2 2.2-1.3.7-3.7.7-2 0-3.2-.6-1.2-.6-2-1.8-.7-1.3-.7-3 0-2.4 1.5-4 1.6-1.5 4.3-1.5 2.3 0 3.5.7 1.3.7 2 2 .7 1.2.7 3.3v.4Zm-4-1.9q-.2-1.1-.7-1.6-.5-.5-1.3-.5-1 0-1.5.8-.4.4-.5 1.3h4Zm5.5-4.2h3.7v1.7q.8-1 1.6-1.5.9-.5 2.1-.5 1.6 0 2.6 1t1 3v6.7h-4v-5.8q0-1-.4-1.3-.4-.4-1-.4-.8 0-1.2.5-.5.6-.5 2v5h-4V27.2Zm17.8-4v4h2.1V30h-2.1v4.5q.3.4.8.4l1.2-.3.3 2.8q-1.5.3-2.8.3-1.5 0-2.2-.4-.7-.4-1-1.1-.3-.8-.3-2.6V30h-1.5v-3h1.5v-1.8l4-2Zm11.4 0h4.5v5h4.8v-5h4.4v14.3H415v-5.7h-4.8v5.7h-4.5V23.2Zm16.9 0h4V26h-4v-2.7Zm0 4h4v10.3h-4V27.2Zm6.9 0h3.7v1.7q.8-1 1.6-1.5.9-.5 2.1-.5 1.6 0 2.6 1t1 3v6.7h-4v-5.8q0-1-.4-1.3-.4-.4-1-.4-.8 0-1.2.5-.5.6-.5 2v5h-4V27.2Zm17.8-4v4h2.1V30h-2.1v4.5q.3.4.8.4l1.2-.3.3 2.8q-1.5.3-2.8.3-1.5 0-2.2-.4-.7-.4-1-1.1-.3-.8-.3-2.6V30h-1.5v-3h1.5v-1.8l4-2Zm3.5 11.5 3.9-.4q.2.7.7 1 .4.3 1.1.3.8 0 1.3-.3.3-.3.3-.7 0-.4-.4-.6-.3-.2-1.7-.4l-2.9-.7q-.8-.3-1.4-1-.5-.8-.5-1.7 0-1 .6-1.8.6-.7 1.6-1 1-.5 2.8-.5 1.9 0 2.8.3.8.3 1.4 1 .6.5 1 1.5l-3.7.4q-.2-.5-.5-.7-.5-.3-1.2-.3-.6 0-1 .2-.2.2-.2.6 0 .3.3.5.4.2 1.7.4 2 .2 3 .6 1 .4 1.5 1.2.5.7.5 1.6 0 .9-.6 1.7-.5.9-1.7 1.4-1.1.5-3.2.5-2.8 0-4-.8-1.2-.8-1.5-2.3Zm19.7-11.5h4v5q.6-.6 1.3-1 .8-.3 1.7-.3 2 0 3.1 1.4 1.3 1.4 1.3 4 0 1.6-.6 3-.5 1.2-1.5 1.8-1 .7-2.3.7-1 0-1.9-.5-.6-.3-1.4-1.3v1.6h-3.7V23.2Zm4 9.1q0 1.4.5 2 .5.6 1.2.6.8 0 1.2-.6.5-.6.5-2 0-1.2-.5-1.8-.4-.6-1.1-.6-.8 0-1.3.6t-.5 1.8Zm7.8-5.1h4.2l2.1 6.9 2-7h4l-4.2 11.2q-.7 1.9-1.4 2.5-1 1-3.2 1l-2.6-.3-.3-2.7q.8.2 1.9.2.7 0 1.1-.3.5-.3.8-1.1l-4.4-10.4Zm20.2 0h3.7v1.7q.6-1.1 1.1-1.5.6-.5 1.4-.5 1 0 2 .6l-1.3 2.8-1-.3q-.9 0-1.3.7-.6.9-.6 3.4v3.5h-4V27.2Zm12.6 3.3-3.8-.4q.2-1 .6-1.5.4-.6 1.2-1 .5-.3 1.5-.5l2-.2q1.8 0 2.9.2 1.1.2 1.8.9.5.4.8 1.2.3.8.3 1.6v4.5l.1 1.2.4 1h-3.7l-.3-.6-.1-.6q-.8.7-1.6 1-1 .5-2.4.5-2 0-2.9-.9-1-.8-1-2.1 0-1.2.8-2 .6-.7 2.5-1l3-.7 1.3-.5q0-.7-.3-1-.3-.3-1-.3-1 0-1.5.3-.4.3-.6 1Zm3.4 2.1-1.7.5q-1.2.4-1.5.7-.3.3-.3.7 0 .5.3.8t1 .3q.6 0 1.2-.3.6-.4.8-.8.2-.5.2-1.2v-.7Zm6-5.4h3.7v1.7q.8-1 1.6-1.5.9-.5 2.1-.5 1.6 0 2.6 1t1 3v6.7h-4v-5.8q0-1-.4-1.3-.4-.4-1-.4-.8 0-1.2.5-.5.6-.5 2v5h-4V27.2Zm13-4h4v7.4l3-3.4h4.9l-3.7 3.6 3.9 6.8h-4.5l-2-4.2-1.6 1.4v2.8h-4V23.2Z"/></svg>