<svg xmlns="http://www.w3.org/2000/svg" width="600" height="429" fill="none" stroke-linecap="square" stroke-miterlimit="10"><path fill="#fff" d="M0 0h600v429H0V0Z"/><path stroke="#333" stroke-linecap="butt" d="M159.5 111.5v241"/><path stroke="#f2f2f2" stroke-linecap="butt" d="M298.5 111.5v241m138-241v241m139-241v241"/><path stroke="#f9f9f9" stroke-linecap="butt" d="M187.5 111.5v241m27-241v241m28-241v241m28-241v241m55-241v241m28-241v241m28-241v241m28-241v241m55-241v241m28-241v241m28-241v241m27-241v241"/><clipPath id="a"><path d="M159.5 112h416v240h-416V112Z"/></clipPath><path d="M159 125v-5h364a2 2 0 0 1 2 2v1a2 2 0 0 1-2 2Z" clip-path="url(#a)"/><path fill="#a8caba" d="M159 125v-5h364a2 2 0 0 1 2 2v1a2 2 0 0 1-2 2Z" clip-path="url(#a)"/><path d="M159 146v-5h260a2 2 0 0 1 2 2v1a2 2 0 0 1-2 2Z" clip-path="url(#a)"/><path fill="#a8caba" d="M159 146v-5h260a2 2 0 0 1 2 2v1a2 2 0 0 1-2 2Z" clip-path="url(#a)"/><path d="M159 168v-5h132a2 2 0 0 1 2 2v1a2 2 0 0 1-2 2Z" clip-path="url(#a)"/><path fill="#a8caba" d="M159 168v-5h132a2 2 0 0 1 2 2v1a2 2 0 0 1-2 2Z" clip-path="url(#a)"/><path d="M159 189v-5h87a2 2 0 0 1 2 2v1a2 2 0 0 1-2 2Z" clip-path="url(#a)"/><path fill="#a8caba" d="M159 189v-5h87a2 2 0 0 1 2 2v1a2 2 0 0 1-2 2Z" clip-path="url(#a)"/><path d="M159 210v-5h58a2 2 0 0 1 2 2v1a2 2 0 0 1-2 2Z" clip-path="url(#a)"/><path fill="#a8caba" d="M159 210v-5h58a2 2 0 0 1 2 2v1a2 2 0 0 1-2 2Z" clip-path="url(#a)"/><path d="M159 231v-5h55a2 2 0 0 1 2 2v1a2 2 0 0 1-2 2Z" clip-path="url(#a)"/><path fill="#a8caba" d="M159 231v-5h55a2 2 0 0 1 2 2v1a2 2 0 0 1-2 2Z" clip-path="url(#a)"/><path d="M159 252v-5h54a2 2 0 0 1 2 2v1a2 2 0 0 1-2 2Z" clip-path="url(#a)"/><path fill="#a8caba" d="M159 252v-5h54a2 2 0 0 1 2 2v1a2 2 0 0 1-2 2Z" clip-path="url(#a)"/><path d="M159 273v-5h54a2 2 0 0 1 2 2v1a2 2 0 0 1-2 2Z" clip-path="url(#a)"/><path fill="#a8caba" d="M159 273v-5h54a2 2 0 0 1 2 2v1a2 2 0 0 1-2 2Z" clip-path="url(#a)"/><path d="M159 294v-5h53a2 2 0 0 1 2 2v1a2 2 0 0 1-2 2Z" clip-path="url(#a)"/><path fill="#a8caba" d="M159 294v-5h53a2 2 0 0 1 2 2v1a2 2 0 0 1-2 2Z" clip-path="url(#a)"/><path d="M159 316v-5h51a2 2 0 0 1 2 2v1a2 2 0 0 1-2 2Z" clip-path="url(#a)"/><path fill="#a8caba" d="M159 316v-5h51a2 2 0 0 1 2 2v1a2 2 0 0 1-2 2Z" clip-path="url(#a)"/><path d="M159 337v-5h50a2 2 0 0 1 2 2v1a2 2 0 0 1-2 2Z" clip-path="url(#a)"/><path fill="#a8caba" d="M159 337v-5h50a2 2 0 0 1 2 2v1a2 2 0 0 1-2 2Z" clip-path="url(#a)"/><path d="M159 132v-5h332a2 2 0 0 1 2 2v1a2 2 0 0 1-2 2Z" clip-path="url(#a)"/><path fill="#62718b" d="M159 132v-5h332a2 2 0 0 1 2 2v1a2 2 0 0 1-2 2Z" clip-path="url(#a)"/><path d="M159 153v-5h241a2 2 0 0 1 2 2v1a2 2 0 0 1-2 2Z" clip-path="url(#a)"/><path fill="#62718b" d="M159 153v-5h241a2 2 0 0 1 2 2v1a2 2 0 0 1-2 2Z" clip-path="url(#a)"/><path d="M159 175v-5h119a2 2 0 0 1 2 2v1a2 2 0 0 1-2 2Z" clip-path="url(#a)"/><path fill="#62718b" d="M159 175v-5h119a2 2 0 0 1 2 2v1a2 2 0 0 1-2 2Z" clip-path="url(#a)"/><path d="M159 196v-5h81a2 2 0 0 1 2 2v1a2 2 0 0 1-2 2Z" clip-path="url(#a)"/><path fill="#62718b" d="M159 196v-5h81a2 2 0 0 1 2 2v1a2 2 0 0 1-2 2Z" clip-path="url(#a)"/><path d="M159 217v-5h67a2 2 0 0 1 2 2v1a2 2 0 0 1-2 2Z" clip-path="url(#a)"/><path fill="#62718b" d="M159 217v-5h67a2 2 0 0 1 2 2v1a2 2 0 0 1-2 2Z" clip-path="url(#a)"/><path d="M159 238v-5h43a2 2 0 0 1 2 2v1a2 2 0 0 1-2 2Z" clip-path="url(#a)"/><path fill="#62718b" d="M159 238v-5h43a2 2 0 0 1 2 2v1a2 2 0 0 1-2 2Z" clip-path="url(#a)"/><path d="M159 259v-5h51a2 2 0 0 1 2 2v1a2 2 0 0 1-2 2Z" clip-path="url(#a)"/><path fill="#62718b" d="M159 259v-5h51a2 2 0 0 1 2 2v1a2 2 0 0 1-2 2Z" clip-path="url(#a)"/><path d="M159 280v-5h66a2 2 0 0 1 2 2v1a2 2 0 0 1-2 2Z" clip-path="url(#a)"/><path fill="#62718b" d="M159 280v-5h66a2 2 0 0 1 2 2v1a2 2 0 0 1-2 2Z" clip-path="url(#a)"/><path d="M159 301v-5h49a2 2 0 0 1 2 2v1a2 2 0 0 1-2 2Z" clip-path="url(#a)"/><path fill="#62718b" d="M159 301v-5h49a2 2 0 0 1 2 2v1a2 2 0 0 1-2 2Z" clip-path="url(#a)"/><path d="M159 323v-5h37a2 2 0 0 1 2 2v1a2 2 0 0 1-2 2Z" clip-path="url(#a)"/><path fill="#62718b" d="M159 323v-5h37a2 2 0 0 1 2 2v1a2 2 0 0 1-2 2Z" clip-path="url(#a)"/><path d="M159 344v-5h44a2 2 0 0 1 2 2v1a2 2 0 0 1-2 2Z" clip-path="url(#a)"/><path fill="#62718b" d="M159 344v-5h44a2 2 0 0 1 2 2v1a2 2 0 0 1-2 2Z" clip-path="url(#a)"/><path stroke="#fff" stroke-linecap="round" stroke-linejoin="round" stroke-width="3" d="M517.3 133v2h-7.7q.1-1.2.7-2.2.7-1 2.5-2.7 1.5-1.4 1.8-2 .5-.6.5-1.3 0-.7-.4-1-.4-.5-1.1-.5-.7 0-1 .4-.5.4-.6 1.4l-2.2-.2q.3-1.8 1.3-2.6t2.6-.8q1.6 0 2.6 1 1 .8 1 2.2 0 .8-.3 1.5t-.9 1.4l-1.4 1.5-1.3 1.2-.5.7h4.4Zm5.9 2v-2.3h-4.7v-2l5-7.2h1.8v7.3h1.4v1.9h-1.4v2.3h-2.1Zm0-4.2v-4l-2.6 4h2.6Zm4.7-4.4q0-1.6.7-2.3.6-.8 1.8-.8 1.2 0 1.9.8.6.7.6 2.3 0 1.5-.6 2.3-.7.7-1.9.7t-1.8-.7q-.7-.8-.7-2.3Zm1.7 0q0 1 .3 1.5.2.2.5.2.4 0 .5-.2.3-.4.3-1.5 0-1.2-.3-1.5-.1-.3-.5-.3-.3 0-.5.3-.3.3-.3 1.5Zm2.5 9h-1.7l6.2-12h1.5l-6 12Zm3.5-3q0-1.5.7-2.2.7-.8 1.8-.8 1.2 0 1.9.8.7.7.7 2.2 0 1.6-.7 2.3-.7.8-1.8.8-1.2 0-2-.8-.6-.7-.6-2.3Zm1.7 0q0 1.1.3 1.5.2.3.5.3.4 0 .6-.3.2-.4.2-1.5t-.2-1.5q-.2-.3-.6-.3-.3 0-.5.3-.3.4-.3 1.5Z"/><path fill="#62718b" d="M517.3 133v2h-7.7q.1-1.2.7-2.2.7-1 2.5-2.7 1.5-1.4 1.8-2 .5-.6.5-1.3 0-.7-.4-1-.4-.5-1.1-.5-.7 0-1 .4-.5.4-.6 1.4l-2.2-.2q.3-1.8 1.3-2.6t2.6-.8q1.6 0 2.6 1 1 .8 1 2.2 0 .8-.3 1.5t-.9 1.4l-1.4 1.5-1.3 1.2-.5.7h4.4Zm5.9 2v-2.3h-4.7v-2l5-7.2h1.8v7.3h1.4v1.9h-1.4v2.3h-2.1Zm0-4.2v-4l-2.6 4h2.6Zm4.7-4.4q0-1.6.7-2.3.6-.8 1.8-.8 1.2 0 1.9.8.6.7.6 2.3 0 1.5-.6 2.3-.7.7-1.9.7t-1.8-.7q-.7-.8-.7-2.3Zm1.7 0q0 1 .3 1.5.2.2.5.2.4 0 .5-.2.3-.4.3-1.5 0-1.2-.3-1.5-.1-.3-.5-.3-.3 0-.5.3-.3.3-.3 1.5Zm2.5 9h-1.7l6.2-12h1.5l-6 12Zm3.5-3q0-1.5.7-2.2.7-.8 1.8-.8 1.2 0 1.9.8.7.7.7 2.2 0 1.6-.7 2.3-.7.8-1.8.8-1.2 0-2-.8-.6-.7-.6-2.3Zm1.7 0q0 1.1.3 1.5.2.3.5.3.4 0 .6-.3.2-.4.2-1.5t-.2-1.5q-.2-.3-.6-.3-.3 0-.5.3-.3.4-.3 1.5Z"/><path stroke="#fff" stroke-linecap="round" stroke-linejoin="round" stroke-width="3" d="M424.2 156H422v-8.3q-1.2 1.1-2.8 1.7v-2q.8-.3 1.8-1 1-.9 1.4-1.9h1.8V156Zm3.4-9.3v-2h7.5v1.6q-1 .9-1.9 2.6-1 1.7-1.5 3.7-.5 1.9-.4 3.4H429q.1-2.4 1-4.8 1-2.5 2.5-4.5h-5Zm9 .7q0-1.6.7-2.3.7-.8 1.8-.8 1.2 0 1.9.8.7.7.7 2.3 0 1.5-.7 2.3-.7.7-1.8.7-1.2 0-2-.7-.6-.8-.6-2.3Zm1.7 0q0 1 .3 1.5.2.2.5.2.4 0 .6-.2.2-.4.2-1.5 0-1.2-.2-1.5-.2-.3-.6-.3-.3 0-.5.3-.3.3-.3 1.5Zm2.5 9h-1.6l6-12h1.7l-6.1 12Zm3.5-3q0-1.5.7-2.2.7-.8 1.9-.8 1.1 0 1.8.8.7.7.7 2.2 0 1.6-.7 2.3-.7.8-1.8.8-1.2 0-1.9-.8-.7-.7-.7-2.3Zm1.8 0q0 1.1.2 1.5.2.3.6.3.3 0 .5-.3.3-.4.3-1.5t-.3-1.5q-.2-.3-.5-.3-.4 0-.6.3-.2.4-.2 1.5Z"/><path fill="#62718b" d="M424.2 156H422v-8.3q-1.2 1.1-2.8 1.7v-2q.8-.3 1.8-1 1-.9 1.4-1.9h1.8V156Zm3.4-9.3v-2h7.5v1.6q-1 .9-1.9 2.6-1 1.7-1.5 3.7-.5 1.9-.4 3.4H429q.1-2.4 1-4.8 1-2.5 2.5-4.5h-5Zm9 .7q0-1.6.7-2.3.7-.8 1.8-.8 1.2 0 1.9.8.7.7.7 2.3 0 1.5-.7 2.3-.7.7-1.8.7-1.2 0-2-.7-.6-.8-.6-2.3Zm1.7 0q0 1 .3 1.5.2.2.5.2.4 0 .6-.2.2-.4.2-1.5 0-1.2-.2-1.5-.2-.3-.6-.3-.3 0-.5.3-.3.3-.3 1.5Zm2.5 9h-1.6l6-12h1.7l-6.1 12Zm3.5-3q0-1.5.7-2.2.7-.8 1.9-.8 1.1 0 1.8.8.7.7.7 2.2 0 1.6-.7 2.3-.7.8-1.8.8-1.2 0-1.9-.8-.7-.7-.7-2.3Zm1.8 0q0 1.1.2 1.5.2.3.6.3.3 0 .5-.3.3-.4.3-1.5t-.3-1.5q-.2-.3-.5-.3-.4 0-.6.3-.2.4-.2 1.5Z"/><path stroke="#fff" stroke-linecap="round" stroke-linejoin="round" stroke-width="3" d="m296.2 175.3 2.2-.2q0 .7.4 1 .3.3.8.3.7 0 1.2-.6.5-.7.6-2.6-.8 1-2 1-1.4 0-2.4-1.1-1-1-1-2.7 0-1.8 1-2.8 1-1.1 2.7-1.1 1.7 0 2.8 1.3 1.2 1.4 1.2 4.5t-1.2 4.5q-1.2 1.4-3 1.4-1.4 0-2.2-.7-.8-.7-1-2.2Zm5-4.8q0-1-.5-1.6-.5-.6-1.1-.6-.6 0-1 .5t-.4 1.6q0 1 .4 1.6.5.5 1.1.5.6 0 1-.5.5-.5.5-1.5Zm4-1.1q0-1.6.7-2.3.7-.8 1.8-.8 1.2 0 1.9.8.7.7.7 2.3 0 1.5-.7 2.3-.7.7-1.8.7-1.2 0-2-.7-.6-.8-.6-2.3Zm1.7 0q0 1 .3 1.5.2.2.5.2.4 0 .6-.2.2-.4.2-1.5 0-1.2-.2-1.5-.2-.3-.6-.3-.3 0-.5.3-.3.3-.3 1.5Zm2.5 9h-1.6l6-12h1.6l-6 12Zm3.5-3q0-1.5.7-2.2.7-.8 1.9-.8 1.1 0 1.8.8.7.7.7 2.2 0 1.6-.7 2.3-.7.8-1.8.8-1.2 0-1.9-.8-.7-.7-.7-2.3Zm1.7 0q0 1.1.3 1.5.2.3.5.3.4 0 .6-.3.2-.4.2-1.5t-.2-1.5q-.2-.3-.6-.3-.3 0-.5.3-.3.4-.3 1.5Z"/><path fill="#62718b" d="m296.2 175.3 2.2-.2q0 .7.4 1 .3.3.8.3.7 0 1.2-.6.5-.7.6-2.6-.8 1-2 1-1.4 0-2.4-1.1-1-1-1-2.7 0-1.8 1-2.8 1-1.1 2.7-1.1 1.7 0 2.8 1.3 1.2 1.4 1.2 4.5t-1.2 4.5q-1.2 1.4-3 1.4-1.4 0-2.2-.7-.8-.7-1-2.2Zm5-4.8q0-1-.5-1.6-.5-.6-1.1-.6-.6 0-1 .5t-.4 1.6q0 1 .4 1.6.5.5 1.1.5.6 0 1-.5.5-.5.5-1.5Zm4-1.1q0-1.6.7-2.3.7-.8 1.8-.8 1.2 0 1.9.8.7.7.7 2.3 0 1.5-.7 2.3-.7.7-1.8.7-1.2 0-2-.7-.6-.8-.6-2.3Zm1.7 0q0 1 .3 1.5.2.2.5.2.4 0 .6-.2.2-.4.2-1.5 0-1.2-.2-1.5-.2-.3-.6-.3-.3 0-.5.3-.3.3-.3 1.5Zm2.5 9h-1.6l6-12h1.6l-6 12Zm3.5-3q0-1.5.7-2.2.7-.8 1.9-.8 1.1 0 1.8.8.7.7.7 2.2 0 1.6-.7 2.3-.7.8-1.8.8-1.2 0-1.9-.8-.7-.7-.7-2.3Zm1.7 0q0 1.1.3 1.5.2.3.5.3.4 0 .6-.3.2-.4.2-1.5t-.2-1.5q-.2-.3-.6-.3-.3 0-.5.3-.3.4-.3 1.5Z"/><path stroke="#fff" stroke-linecap="round" stroke-linejoin="round" stroke-width="3" d="m266.5 190.3-2.1.3q-.1-.7-.5-1-.3-.3-.8-.3-.7 0-1.2.6t-.6 2.6q.8-1 2-1 1.4 0 2.4 1.1 1 1 1 2.7 0 1.8-1 2.8-1 1.1-2.7 1.1-1.7 0-2.9-1.3-1-1.4-1-4.5t1.1-4.5q1.2-1.4 3-1.4 1.3 0 2.2.7.8.8 1 2.1Zm-5 4.8q0 1.1.5 1.7.5.6 1.1.6.6 0 1-.5t.4-1.6q0-1-.4-1.6-.4-.5-1-.5-.7 0-1.2.5-.4.5-.4 1.4Zm6.6-4.7q0-1.6.6-2.3.7-.8 1.9-.8t1.8.8q.7.7.7 2.3 0 1.5-.7 2.3-.6.7-1.8.7-1.2 0-1.9-.7-.6-.8-.6-2.3Zm1.7 0q0 1 .2 1.5.2.2.6.2.3 0 .5-.2.3-.4.3-1.5 0-1.2-.3-1.5-.2-.3-.5-.3-.4 0-.6.3-.2.3-.2 1.5Zm2.4 9h-1.6l6.1-12h1.6l-6 12Zm3.6-3q0-1.5.6-2.2.7-.8 2-.8 1 0 1.8.8.6.7.6 2.2 0 1.6-.6 2.3-.7.8-1.9.8t-1.9-.8q-.6-.7-.6-2.3Zm1.7 0q0 1.1.2 1.5.2.3.6.3.3 0 .5-.3.3-.4.3-1.5t-.3-1.5q-.2-.3-.5-.3-.4 0-.6.3-.2.4-.2 1.5Z"/><path fill="#62718b" d="m266.5 190.3-2.1.3q-.1-.7-.5-1-.3-.3-.8-.3-.7 0-1.2.6t-.6 2.6q.8-1 2-1 1.4 0 2.4 1.1 1 1 1 2.7 0 1.8-1 2.8-1 1.1-2.7 1.1-1.7 0-2.9-1.3-1-1.4-1-4.5t1.1-4.5q1.2-1.4 3-1.4 1.3 0 2.2.7.8.8 1 2.1Zm-5 4.8q0 1.1.5 1.7.5.6 1.1.6.6 0 1-.5t.4-1.6q0-1-.4-1.6-.4-.5-1-.5-.7 0-1.2.5-.4.5-.4 1.4Zm6.6-4.7q0-1.6.6-2.3.7-.8 1.9-.8t1.8.8q.7.7.7 2.3 0 1.5-.7 2.3-.6.7-1.8.7-1.2 0-1.9-.7-.6-.8-.6-2.3Zm1.7 0q0 1 .2 1.5.2.2.6.2.3 0 .5-.2.3-.4.3-1.5 0-1.2-.3-1.5-.2-.3-.5-.3-.4 0-.6.3-.2.3-.2 1.5Zm2.4 9h-1.6l6.1-12h1.6l-6 12Zm3.6-3q0-1.5.6-2.2.7-.8 2-.8 1 0 1.8.8.6.7.6 2.2 0 1.6-.6 2.3-.7.8-1.9.8t-1.9-.8q-.6-.7-.6-2.3Zm1.7 0q0 1.1.2 1.5.2.3.6.3.3 0 .5-.3.3-.4.3-1.5t-.3-1.5q-.2-.3-.5-.3-.4 0-.6.3-.2.4-.2 1.5Z"/><path stroke="#fff" stroke-linecap="round" stroke-linejoin="round" stroke-width="3" d="m244.3 217 2.2-.2q.1.8.6 1.2.4.4 1 .4.7 0 1.2-.5.5-.6.5-1.7 0-1-.5-1.6-.5-.5-1.2-.5-1 0-1.7.8l-1.8-.2 1.1-6h5.8v2h-4.1l-.4 2q.8-.4 1.5-.4 1.5 0 2.5 1 1 1.2 1 2.9 0 1.4-.8 2.5-1.1 1.5-3.1 1.5-1.6 0-2.6-.9-1-.8-1.2-2.3Zm9-5.6q0-1.6.7-2.3.7-.8 1.8-.8 1.2 0 1.9.8.7.7.7 2.3 0 1.5-.7 2.3-.7.7-1.8.7-1.2 0-2-.7-.6-.8-.6-2.3Zm1.7 0q0 1 .3 1.5.2.2.5.2.4 0 .6-.2.2-.4.2-1.5 0-1.2-.2-1.5-.2-.3-.6-.3-.3 0-.5.3-.3.3-.3 1.5Zm2.5 9h-1.6l6-12h1.6l-6 12Zm3.5-3q0-1.5.7-2.2.7-.8 1.9-.8 1.1 0 1.8.8.7.7.7 2.2 0 1.6-.7 2.3-.7.8-1.8.8-1.2 0-1.9-.8-.7-.7-.7-2.3Zm1.7 0q0 1.1.3 1.5.2.3.5.3.4 0 .6-.3.2-.4.2-1.5t-.2-1.5q-.2-.3-.6-.3-.3 0-.5.3-.3.4-.3 1.5Z"/><path fill="#62718b" d="m244.3 217 2.2-.2q.1.8.6 1.2.4.4 1 .4.7 0 1.2-.5.5-.6.5-1.7 0-1-.5-1.6-.5-.5-1.2-.5-1 0-1.7.8l-1.8-.2 1.1-6h5.8v2h-4.1l-.4 2q.8-.4 1.5-.4 1.5 0 2.5 1 1 1.2 1 2.9 0 1.4-.8 2.5-1.1 1.5-3.1 1.5-1.6 0-2.6-.9-1-.8-1.2-2.3Zm9-5.6q0-1.6.7-2.3.7-.8 1.8-.8 1.2 0 1.9.8.7.7.7 2.3 0 1.5-.7 2.3-.7.7-1.8.7-1.2 0-2-.7-.6-.8-.6-2.3Zm1.7 0q0 1 .3 1.5.2.2.5.2.4 0 .6-.2.2-.4.2-1.5 0-1.2-.2-1.5-.2-.3-.6-.3-.3 0-.5.3-.3.3-.3 1.5Zm2.5 9h-1.6l6-12h1.6l-6 12Zm3.5-3q0-1.5.7-2.2.7-.8 1.9-.8 1.1 0 1.8.8.7.7.7 2.2 0 1.6-.7 2.3-.7.8-1.8.8-1.2 0-1.9-.8-.7-.7-.7-2.3Zm1.7 0q0 1.1.3 1.5.2.3.5.3.4 0 .6-.3.2-.4.2-1.5t-.2-1.5q-.2-.3-.6-.3-.3 0-.5.3-.3.4-.3 1.5Z"/><path stroke="#fff" stroke-linecap="round" stroke-linejoin="round" stroke-width="3" d="m220.4 238 2.1-.3q.1.8.6 1.3.4.4 1 .4.7 0 1.2-.5.5-.6.5-1.4 0-.9-.5-1.3-.4-.5-1-.5l-1 .1.2-1.8q.9 0 1.3-.3.5-.4.5-1.1 0-.6-.4-1-.3-.3-.9-.3-.5 0-1 .4-.3.4-.4 1.1l-2-.3q.2-1 .6-1.7.4-.6 1.2-1 .7-.3 1.7-.3 1.6 0 2.6 1 .8.9.8 2 0 1.4-1.7 2.3 1 .2 1.6 1 .6.7.6 1.8 0 1.5-1.1 2.5-1.1 1.1-2.7 1.1t-2.6-.9q-1-.9-1.2-2.3Zm9-5.6q0-1.6.8-2.3.6-.8 1.8-.8 1.2 0 1.9.8.6.7.6 2.3 0 1.5-.6 2.3-.7.7-1.9.7t-1.8-.7q-.7-.8-.7-2.3Zm1.8 0q0 1 .3 1.5.1.2.5.2t.5-.2q.3-.4.3-1.5 0-1.2-.3-1.5-.1-.3-.5-.3t-.5.3q-.3.3-.3 1.5Zm2.5 9H232l6.1-12h1.6l-6 12Zm3.5-3q0-1.5.7-2.2.7-.8 1.8-.8 1.2 0 1.9.8.7.7.7 2.2 0 1.6-.7 2.3-.7.8-1.8.8-1.2 0-2-.8-.6-.7-.6-2.3Zm1.7 0q0 1.1.3 1.5.2.3.5.3.4 0 .6-.3.2-.4.2-1.5t-.2-1.5q-.2-.3-.6-.3-.3 0-.5.3-.3.4-.3 1.5Z"/><path fill="#62718b" d="m220.4 238 2.1-.3q.1.8.6 1.3.4.4 1 .4.7 0 1.2-.5.5-.6.5-1.4 0-.9-.5-1.3-.4-.5-1-.5l-1 .1.2-1.8q.9 0 1.3-.3.5-.4.5-1.1 0-.6-.4-1-.3-.3-.9-.3-.5 0-1 .4-.3.4-.4 1.1l-2-.3q.2-1 .6-1.7.4-.6 1.2-1 .7-.3 1.7-.3 1.6 0 2.6 1 .8.9.8 2 0 1.4-1.7 2.3 1 .2 1.6 1 .6.7.6 1.8 0 1.5-1.1 2.5-1.1 1.1-2.7 1.1t-2.6-.9q-1-.9-1.2-2.3Zm9-5.6q0-1.6.8-2.3.6-.8 1.8-.8 1.2 0 1.9.8.6.7.6 2.3 0 1.5-.6 2.3-.7.7-1.9.7t-1.8-.7q-.7-.8-.7-2.3Zm1.8 0q0 1 .3 1.5.1.2.5.2t.5-.2q.3-.4.3-1.5 0-1.2-.3-1.5-.1-.3-.5-.3t-.5.3q-.3.3-.3 1.5Zm2.5 9H232l6.1-12h1.6l-6 12Zm3.5-3q0-1.5.7-2.2.7-.8 1.8-.8 1.2 0 1.9.8.7.7.7 2.2 0 1.6-.7 2.3-.7.8-1.8.8-1.2 0-2-.8-.6-.7-.6-2.3Zm1.7 0q0 1.1.3 1.5.2.3.5.3.4 0 .6-.3.2-.4.2-1.5t-.2-1.5q-.2-.3-.6-.3-.3 0-.5.3-.3.4-.3 1.5Z"/><path stroke="#fff" stroke-linecap="round" stroke-linejoin="round" stroke-width="3" d="M232.8 262v-2.3h-4.7v-2l5-7.2h1.8v7.3h1.4v1.9H235v2.3h-2.1Zm0-4.2v-4l-2.6 4h2.6Zm4.7-4.4q0-1.6.7-2.3.7-.8 1.8-.8 1.2 0 1.9.8.7.7.7 2.3 0 1.5-.7 2.3-.7.7-1.8.7-1.2 0-2-.7-.6-.8-.6-2.3Zm1.7 0q0 1 .3 1.5.2.2.5.2.4 0 .6-.2.2-.4.2-1.5 0-1.2-.2-1.5-.2-.3-.6-.3-.3 0-.5.3-.3.3-.3 1.5Zm2.5 9H240l6-12h1.7l-6.1 12Zm3.5-3q0-1.5.7-2.2.7-.8 1.9-.8 1.1 0 1.8.8.7.7.7 2.2 0 1.6-.7 2.3-.7.8-1.8.8-1.2 0-1.9-.8-.7-.7-.7-2.3Zm1.8 0q0 1.1.2 1.5.2.3.6.3.3 0 .5-.3.3-.4.3-1.5t-.3-1.5q-.2-.3-.5-.3-.4 0-.6.3-.2.4-.2 1.5Z"/><path fill="#62718b" d="M232.8 262v-2.3h-4.7v-2l5-7.2h1.8v7.3h1.4v1.9H235v2.3h-2.1Zm0-4.2v-4l-2.6 4h2.6Zm4.7-4.4q0-1.6.7-2.3.7-.8 1.8-.8 1.2 0 1.9.8.7.7.7 2.3 0 1.5-.7 2.3-.7.7-1.8.7-1.2 0-2-.7-.6-.8-.6-2.3Zm1.7 0q0 1 .3 1.5.2.2.5.2.4 0 .6-.2.2-.4.2-1.5 0-1.2-.2-1.5-.2-.3-.6-.3-.3 0-.5.3-.3.3-.3 1.5Zm2.5 9H240l6-12h1.7l-6.1 12Zm3.5-3q0-1.5.7-2.2.7-.8 1.9-.8 1.1 0 1.8.8.7.7.7 2.2 0 1.6-.7 2.3-.7.8-1.8.8-1.2 0-1.9-.8-.7-.7-.7-2.3Zm1.8 0q0 1.1.2 1.5.2.3.6.3.3 0 .5-.3.3-.4.3-1.5t-.3-1.5q-.2-.3-.5-.3-.4 0-.6.3-.2.4-.2 1.5Z"/><path stroke="#fff" stroke-linecap="round" stroke-linejoin="round" stroke-width="3" d="m243.9 280 2.2-.2q0 .8.5 1.2.5.4 1.1.4.7 0 1.2-.5.4-.6.4-1.7 0-1-.4-1.6-.5-.5-1.3-.5-.9 0-1.7.8l-1.7-.2 1-6h5.9v2h-4.2l-.3 2q.7-.4 1.5-.4 1.5 0 2.5 1 1 1.2 1 2.9 0 1.4-.8 2.5-1.1 1.5-3.1 1.5-1.6 0-2.6-.9-1-.8-1.2-2.3Zm9-5.6q0-1.6.7-2.3.6-.8 1.8-.8 1.2 0 1.9.8.6.7.6 2.3 0 1.5-.6 2.3-.7.7-1.9.7t-1.8-.7q-.7-.8-.7-2.3Zm1.7 0q0 1 .3 1.5.1.2.5.2.3 0 .5-.2.3-.4.3-1.5 0-1.2-.3-1.5-.2-.3-.5-.3-.4 0-.5.3-.3.3-.3 1.5Zm2.5 9h-1.7l6.1-12h1.6l-6 12Zm3.5-3q0-1.5.7-2.2.7-.8 1.8-.8t1.9.8q.7.7.7 2.2 0 1.6-.7 2.3-.7.8-1.8.8-1.2 0-2-.8-.6-.7-.6-2.3Zm1.7 0q0 1.1.3 1.5.2.3.5.3.4 0 .6-.3.2-.4.2-1.5t-.2-1.5q-.2-.3-.6-.3-.3 0-.5.3-.3.4-.3 1.5Z"/><path fill="#62718b" d="m243.9 280 2.2-.2q0 .8.5 1.2.5.4 1.1.4.7 0 1.2-.5.4-.6.4-1.7 0-1-.4-1.6-.5-.5-1.3-.5-.9 0-1.7.8l-1.7-.2 1-6h5.9v2h-4.2l-.3 2q.7-.4 1.5-.4 1.5 0 2.5 1 1 1.2 1 2.9 0 1.4-.8 2.5-1.1 1.5-3.1 1.5-1.6 0-2.6-.9-1-.8-1.2-2.3Zm9-5.6q0-1.6.7-2.3.6-.8 1.8-.8 1.2 0 1.9.8.6.7.6 2.3 0 1.5-.6 2.3-.7.7-1.9.7t-1.8-.7q-.7-.8-.7-2.3Zm1.7 0q0 1 .3 1.5.1.2.5.2.3 0 .5-.2.3-.4.3-1.5 0-1.2-.3-1.5-.2-.3-.5-.3-.4 0-.5.3-.3.3-.3 1.5Zm2.5 9h-1.7l6.1-12h1.6l-6 12Zm3.5-3q0-1.5.7-2.2.7-.8 1.8-.8t1.9.8q.7.7.7 2.2 0 1.6-.7 2.3-.7.8-1.8.8-1.2 0-2-.8-.6-.7-.6-2.3Zm1.7 0q0 1.1.3 1.5.2.3.5.3.4 0 .6-.3.2-.4.2-1.5t-.2-1.5q-.2-.3-.6-.3-.3 0-.5.3-.3.4-.3 1.5Z"/><path stroke="#fff" stroke-linecap="round" stroke-linejoin="round" stroke-width="3" d="M230.7 304v-2.3H226v-2l5-7.2h1.8v7.3h1.5v1.9h-1.5v2.3h-2Zm0-4.2v-4l-2.6 4h2.6Zm4.7-4.4q0-1.6.7-2.3.7-.8 1.8-.8 1.2 0 2 .8.6.7.6 2.3 0 1.5-.7 2.3-.7.7-1.8.7-1.2 0-1.9-.7-.7-.8-.7-2.3Zm1.7 0q0 1 .3 1.5.2.2.5.2.4 0 .6-.2.2-.4.2-1.5 0-1.2-.2-1.5-.2-.3-.6-.3-.3 0-.5.3-.3.3-.3 1.5Zm2.5 9H238l6.1-12h1.6l-6 12Zm3.6-3q0-1.5.6-2.2.7-.8 1.9-.8t1.8.8q.7.7.7 2.2 0 1.6-.7 2.3-.6.8-1.8.8-1.2 0-1.9-.8-.6-.7-.6-2.3Zm1.7 0q0 1.1.2 1.5.2.3.6.3.3 0 .5-.3.3-.4.3-1.5t-.3-1.5q-.2-.3-.5-.3-.4 0-.6.3-.2.4-.2 1.5Z"/><path fill="#62718b" d="M230.7 304v-2.3H226v-2l5-7.2h1.8v7.3h1.5v1.9h-1.5v2.3h-2Zm0-4.2v-4l-2.6 4h2.6Zm4.7-4.4q0-1.6.7-2.3.7-.8 1.8-.8 1.2 0 2 .8.6.7.6 2.3 0 1.5-.7 2.3-.7.7-1.8.7-1.2 0-1.9-.7-.7-.8-.7-2.3Zm1.7 0q0 1 .3 1.5.2.2.5.2.4 0 .6-.2.2-.4.2-1.5 0-1.2-.2-1.5-.2-.3-.6-.3-.3 0-.5.3-.3.3-.3 1.5Zm2.5 9H238l6.1-12h1.6l-6 12Zm3.6-3q0-1.5.6-2.2.7-.8 1.9-.8t1.8.8q.7.7.7 2.2 0 1.6-.7 2.3-.6.8-1.8.8-1.2 0-1.9-.8-.6-.7-.6-2.3Zm1.7 0q0 1.1.2 1.5.2.3.6.3.3 0 .5-.3.3-.4.3-1.5t-.3-1.5q-.2-.3-.5-.3-.4 0-.6.3-.2.4-.2 1.5Z"/><path stroke="#fff" stroke-linecap="round" stroke-linejoin="round" stroke-width="3" d="m215 323 2.2-.3q0 .8.5 1.3.5.4 1.1.4.7 0 1.2-.5.4-.6.4-1.4 0-.9-.4-1.3-.5-.5-1.1-.5l-1 .1.2-1.8q1 0 1.4-.3.5-.4.5-1.1 0-.6-.4-1-.3-.3-1-.3-.5 0-.9.4t-.5 1.1l-2-.3q.2-1 .7-1.7.4-.6 1.1-1 .8-.3 1.7-.3 1.7 0 2.6 1 .9.9.9 2 0 1.4-1.7 2.3 1 .2 1.6 1 .6.7.6 1.8 0 1.5-1.1 2.5-1.1 1.1-2.8 1.1-1.5 0-2.6-.9-1-.9-1.1-2.3Zm9.2-5.6q0-1.6.6-2.3.7-.8 1.9-.8t1.8.8q.7.7.7 2.3 0 1.5-.7 2.3-.6.7-1.8.7-1.2 0-1.9-.7-.6-.8-.6-2.3Zm1.7 0q0 1 .2 1.5.2.2.6.2.3 0 .5-.2.3-.4.3-1.5 0-1.2-.3-1.5-.2-.3-.5-.3-.4 0-.6.3-.2.3-.2 1.5Zm2.4 9h-1.6l6.1-12h1.6l-6 12Zm3.6-3q0-1.5.6-2.2.7-.8 2-.8 1 0 1.7.8.7.7.7 2.2 0 1.6-.7 2.3-.6.8-1.8.8-1.2 0-1.9-.8-.6-.7-.6-2.3Zm1.7 0q0 1.1.2 1.5.2.3.6.3.3 0 .5-.3.3-.4.3-1.5t-.3-1.5q-.2-.3-.5-.3-.4 0-.6.3-.2.4-.2 1.5Z"/><path fill="#62718b" d="m215 323 2.2-.3q0 .8.5 1.3.5.4 1.1.4.7 0 1.2-.5.4-.6.4-1.4 0-.9-.4-1.3-.5-.5-1.1-.5l-1 .1.2-1.8q1 0 1.4-.3.5-.4.5-1.1 0-.6-.4-1-.3-.3-1-.3-.5 0-.9.4t-.5 1.1l-2-.3q.2-1 .7-1.7.4-.6 1.1-1 .8-.3 1.7-.3 1.7 0 2.6 1 .9.9.9 2 0 1.4-1.7 2.3 1 .2 1.6 1 .6.7.6 1.8 0 1.5-1.1 2.5-1.1 1.1-2.8 1.1-1.5 0-2.6-.9-1-.9-1.1-2.3Zm9.2-5.6q0-1.6.6-2.3.7-.8 1.9-.8t1.8.8q.7.7.7 2.3 0 1.5-.7 2.3-.6.7-1.8.7-1.2 0-1.9-.7-.6-.8-.6-2.3Zm1.7 0q0 1 .2 1.5.2.2.6.2.3 0 .5-.2.3-.4.3-1.5 0-1.2-.3-1.5-.2-.3-.5-.3-.4 0-.6.3-.2.3-.2 1.5Zm2.4 9h-1.6l6.1-12h1.6l-6 12Zm3.6-3q0-1.5.6-2.2.7-.8 2-.8 1 0 1.7.8.7.7.7 2.2 0 1.6-.7 2.3-.6.8-1.8.8-1.2 0-1.9-.8-.6-.7-.6-2.3Zm1.7 0q0 1.1.2 1.5.2.3.6.3.3 0 .5-.3.3-.4.3-1.5t-.3-1.5q-.2-.3-.5-.3-.4 0-.6.3-.2.4-.2 1.5Z"/><path stroke="#fff" stroke-linecap="round" stroke-linejoin="round" stroke-width="3" d="m221.9 344 2.1-.3q.1.8.6 1.3.4.4 1 .4.7 0 1.2-.5.5-.6.5-1.4 0-.9-.5-1.3-.4-.5-1-.5l-1 .1.2-1.8q.9 0 1.3-.3.5-.4.5-1.1 0-.6-.3-1-.4-.3-1-.3-.5 0-1 .4-.3.4-.4 1.1l-2-.3q.2-1 .6-1.7.4-.6 1.2-1 .8-.3 1.7-.3 1.6 0 2.6 1 .8.9.8 2 0 1.4-1.7 2.3 1 .2 1.6 1 .6.7.6 1.8 0 1.5-1.1 2.5-1 1.1-2.7 1.1-1.6 0-2.6-.9t-1.2-2.3Zm9.1-5.6q0-1.6.7-2.3.6-.8 1.8-.8 1.2 0 1.9.8.6.7.6 2.3 0 1.5-.6 2.3-.7.7-1.9.7t-1.8-.7q-.7-.8-.7-2.3Zm1.7 0q0 1 .3 1.5.2.2.5.2.4 0 .5-.2.3-.4.3-1.5 0-1.2-.3-1.5-.1-.3-.5-.3-.3 0-.5.3-.3.3-.3 1.5Zm2.5 9h-1.7l6.2-12h1.5l-6 12Zm3.5-3q0-1.5.7-2.2.7-.8 1.8-.8 1.2 0 1.9.8.7.7.7 2.2 0 1.6-.7 2.3-.7.8-1.8.8-1.2 0-2-.8-.6-.7-.6-2.3Zm1.7 0q0 1.1.3 1.5.2.3.5.3.4 0 .6-.3.2-.4.2-1.5t-.2-1.5q-.2-.3-.6-.3-.3 0-.5.3-.3.4-.3 1.5Z"/><path fill="#62718b" d="m221.9 344 2.1-.3q.1.8.6 1.3.4.4 1 .4.7 0 1.2-.5.5-.6.5-1.4 0-.9-.5-1.3-.4-.5-1-.5l-1 .1.2-1.8q.9 0 1.3-.3.5-.4.5-1.1 0-.6-.3-1-.4-.3-1-.3-.5 0-1 .4-.3.4-.4 1.1l-2-.3q.2-1 .6-1.7.4-.6 1.2-1 .8-.3 1.7-.3 1.6 0 2.6 1 .8.9.8 2 0 1.4-1.7 2.3 1 .2 1.6 1 .6.7.6 1.8 0 1.5-1.1 2.5-1 1.1-2.7 1.1-1.6 0-2.6-.9t-1.2-2.3Zm9.1-5.6q0-1.6.7-2.3.6-.8 1.8-.8 1.2 0 1.9.8.6.7.6 2.3 0 1.5-.6 2.3-.7.7-1.9.7t-1.8-.7q-.7-.8-.7-2.3Zm1.7 0q0 1 .3 1.5.2.2.5.2.4 0 .5-.2.3-.4.3-1.5 0-1.2-.3-1.5-.1-.3-.5-.3-.3 0-.5.3-.3.3-.3 1.5Zm2.5 9h-1.7l6.2-12h1.5l-6 12Zm3.5-3q0-1.5.7-2.2.7-.8 1.8-.8 1.2 0 1.9.8.7.7.7 2.2 0 1.6-.7 2.3-.7.8-1.8.8-1.2 0-2-.8-.6-.7-.6-2.3Zm1.7 0q0 1.1.3 1.5.2.3.5.3.4 0 .6-.3.2-.4.2-1.5t-.2-1.5q-.2-.3-.6-.3-.3 0-.5.3-.3.4-.3 1.5Z"/><path fill="#838689" d="M322 403.9v-8.6h4.5l1 .5q.5.3.7.8.3.5.3 1.2 0 1-.7 1.8t-2.5.8H323v3.5h-1.2Zm1-4.5h2.3q1 0 1.5-.4t.5-1.2q0-.5-.3-.9-.2-.4-.7-.5l-1-.1H323v3Zm11 2.5 1.1.1q-.2 1-1 1.5-.6.5-1.7.5-1.4 0-2.2-.8-.8-.9-.8-2.4t.9-2.4q.8-.9 2-.9 1.3 0 2 .9.9.8.9 2.4v.2h-4.7q0 1 .6 1.6.5.5 1.3.5.6 0 1-.2.4-.4.6-1Zm-3.4-1.7h3.5q-.1-.8-.4-1.2-.5-.6-1.3-.6t-1.3.5q-.5.5-.5 1.3Zm6.2 3.7v-6.2h1v.9q.3-.7.6-.9.3-.2.7-.2.5 0 1 .4l-.3 1q-.4-.3-.8-.3l-.6.2q-.3.2-.4.6l-.2 1.2v3.3h-1Zm8-2.3 1 .1q0 1.1-.8 1.7-.7.6-1.7.6-1.3 0-2-.8-.8-.8-.8-2.4 0-1 .3-1.8.3-.7 1-1.1.7-.4 1.5-.4 1 0 1.7.5.6.5.8 1.5l-1 .1q-.2-.6-.6-.9-.3-.3-.9-.3-.8 0-1.3.6-.5.5-.5 1.8 0 1.2.5 1.8.5.5 1.3.5.6 0 1-.3.4-.4.6-1.2Zm6.2.3 1.1.1q-.2 1-1 1.5-.6.5-1.7.5-1.4 0-2.2-.8-.8-.9-.8-2.4t.9-2.4q.8-.9 2-.9 1.3 0 2 .9.9.8.9 2.4v.2h-4.7q0 1 .6 1.6.5.5 1.3.5.6 0 1-.2.4-.4.6-1Zm-3.4-1.7h3.5q-.1-.8-.4-1.2-.5-.6-1.3-.6t-1.3.5q-.5.5-.5 1.3Zm6.2 3.7v-6.2h1v.8q.6-1 2-1l1 .2q.4.2.7.6l.3.7v4.9h-1V400l-.1-1-.5-.5q-.3-.2-.7-.2-.7 0-1.2.5-.5.4-.5 1.6v3.4h-1Zm9.3-1 .2 1h-.8l-1-.1-.4-.5-.1-1.2v-3.6h-.8v-.8h.8V396l1-.6v2.2h1v.8h-1v4.2l.3.2h.8Zm3.3-2.1q0-1.8 1-2.6.8-.7 2-.7t2 .9q.8.8.8 2.3 0 1.2-.3 1.9-.4.7-1 1-.8.4-1.6.4-1.3 0-2.1-.8t-.8-2.4Zm1 0q0 1.2.6 1.8.5.5 1.3.5t1.3-.5.5-1.9q0-1.1-.5-1.7-.5-.6-1.3-.6t-1.3.6q-.5.6-.5 1.8Zm6.6 3v-5.3h-.9v-.8h1V396q.2-.4.6-.6.4-.3 1-.3l1 .2-.1.9h-.6l-.7.1q-.2.2-.2.8v.6h1.2v.8h-1.2v5.4h-1Zm5.8 2.5v-8.6h1v.8q.3-.5.7-.7.5-.3 1-.3.9 0 1.5.4t.9 1.2q.3.7.3 1.6 0 1-.4 1.7-.3.8-1 1.2-.6.4-1.3.4l-1-.2q-.4-.2-.7-.6v3h-1Zm1-5.5q0 1.2.4 1.8.5.5 1.2.5t1.2-.5q.5-.6.5-1.9 0-1.2-.5-1.8-.5-.5-1.1-.5-.7 0-1.2.6-.6.6-.6 1.8Zm10 2.3q-.5.5-1 .7l-1.2.2q-1 0-1.6-.5-.6-.5-.6-1.3l.2-.8q.2-.4.6-.6l.8-.3.9-.2 1.9-.4v-.2q0-.7-.3-1-.4-.3-1.2-.3-.8 0-1.1.3-.4.2-.6.9l-1-.2q.1-.6.5-1 .3-.4 1-.7.5-.2 1.3-.2t1.3.2l.8.5.3.7v4.2l.4.8H391q-.2-.3-.2-.8Zm0-2.3-1.8.4q-.6 0-.9.2-.2 0-.4.3l-.1.5q0 .4.3.7.3.3 1 .3.5 0 1-.3.5-.2.7-.7.2-.4.2-1v-.4Zm2.8 3.6 1 .2q0 .4.4.6.4.3 1 .3.8 0 1.2-.3.4-.3.5-.8l.1-1.3q-.7.8-1.7.8-1.3 0-2-1-.7-.9-.7-2.2 0-.8.3-1.6t1-1.2q.6-.4 1.4-.4 1 0 1.8 1v-.8h1v5.3q0 1.5-.3 2.1-.3.6-1 1-.6.3-1.5.3-1.1 0-1.8-.5t-.7-1.5Zm.9-3.7q0 1.2.5 1.7.4.6 1.2.6.7 0 1.2-.6.5-.5.5-1.7 0-1.1-.5-1.7-.5-.6-1.2-.6t-1.2.6q-.5.5-.5 1.7Zm10.5 1.2 1.1.1q-.2 1-1 1.5-.6.5-1.7.5-1.4 0-2.2-.8-.8-.9-.8-2.4t.9-2.4q.8-.9 2-.9 1.3 0 2 .9.9.8.9 2.4v.2h-4.7q0 1 .6 1.6.5.5 1.3.5.6 0 1-.2.4-.4.6-1Zm-3.4-1.7h3.5q-.1-.8-.4-1.2-.5-.6-1.3-.6t-1.3.5q-.5.5-.5 1.3Zm5.8 1.8 1-.1q.1.6.5 1 .4.2 1.1.2.8 0 1-.2.5-.3.5-.7 0-.4-.4-.6l-1-.4-1.6-.5q-.5-.2-.7-.6-.3-.3-.3-.8l.2-.8.6-.6.6-.3h1l1.2.1q.6.2.8.6.3.4.4 1l-1 .1q-.1-.5-.4-.7-.4-.3-1-.3-.7 0-1 .2-.3.3-.3.6v.4l.5.2 1 .3 1.5.5.7.5q.2.4.2 1 0 .5-.3 1-.3.4-.9.7-.5.2-1.3.2-1.2 0-1.8-.5-.7-.5-.8-1.5ZM28.8 272.3l.3-1.2q1.4.4 2.1 1.3.7 1 .7 2.3 0 1.4-.5 2.3-.6.8-1.6 1.3-1.1.4-2.4.4-1.3 0-2.3-.5-1-.5-1.5-1.4-.5-1-.5-2.1 0-1.3.6-2.2.7-.9 1.9-1.2l.2 1.1q-.9.3-1.3.9-.5.5-.5 1.4 0 1 .5 1.7.5.6 1.3.9.8.3 1.6.3 1.1 0 2-.3.8-.4 1.2-1 .4-.7.4-1.5 0-1-.6-1.6-.5-.7-1.6-1Zm-.1-2.4q-1.7 0-2.6-1-.7-.7-.7-1.9 0-1.3.9-2 .8-.9 2.3-.9 1.2 0 1.9.4.7.3 1 1 .4.7.4 1.5 0 1.3-.8 2.1t-2.4.8Zm0-1q1.2 0 1.8-.6.6-.5.6-1.3t-.6-1.3q-.6-.5-1.8-.5-1.2 0-1.8.5-.6.5-.6 1.3t.6 1.3q.6.5 1.8.5Zm0-6q-1.7 0-2.6-1-.7-.7-.7-1.9 0-1.3.9-2 .8-.9 2.3-.9 1.2 0 1.9.4.7.3 1 1 .4.7.4 1.5 0 1.3-.8 2.1t-2.4.8Zm0-1q1.2 0 1.8-.6.6-.5.6-1.3t-.6-1.3q-.6-.5-1.8-.5-1.2 0-1.8.5-.6.5-.6 1.3t.6 1.3q.6.5 1.8.5Zm3.1-6.4h-8.6v-1h5l-2.6-2.5v-1.4l2.3 2.4 3.9-2.6v1.3l-3.2 2 .7.8h2.5v1Zm-7.4-6h-1.2v-1h1.2v1Zm7.4 0h-6.2v-1h6.2v1Zm-2-7.2.1-1.1q1 .2 1.5 1 .5.6.5 1.7 0 1.4-.8 2.2-.8.8-2.4.8-1.5 0-2.4-.8-.9-.8-.9-2.1t.9-2q.8-.8 2.4-.8h.3v4.6q1 0 1.5-.6.6-.5.6-1.3 0-.6-.3-1t-1-.6Zm-1.7 3.4v-3.4q-.8 0-1.2.4-.6.5-.6 1.3 0 .7.5 1.2t1.3.5Zm.6-8.8q-1.7 0-2.6-1-.7-.7-.7-1.9 0-1.3.9-2 .8-.9 2.3-.9 1.2 0 1.9.4.7.3 1 1 .4.7.4 1.5 0 1.3-.8 2.1t-2.4.8Zm0-1q1.2 0 1.8-.6.6-.5.6-1.3t-.6-1.3q-.6-.5-1.8-.5-1.2 0-1.8.5-.6.5-.6 1.3t.6 1.3q.6.5 1.8.5Zm3.1-6.3h-6.2v-1h1l-1-.7-.2-.6q0-.6.4-1.1l1 .3q-.3.4-.3.8t.2.6q.2.3.6.4l1.2.2h3.3v1Zm-7.4-4h-1.2v-1.1h1.2v1Zm7.4 0h-6.2v-1.1h6.2v1Zm.5-2.9.2-1q.4 0 .7-.4.3-.3.3-1t-.3-1.1q-.3-.4-.8-.6H31q.8.6.8 1.7 0 1.2-1 2-.9.6-2.1.6-1 0-1.7-.3t-1.1-1q-.5-.5-.5-1.3 0-1.2 1-1.9h-.8v-1H31q1.4 0 2 .4.6.3 1 .9.3.6.3 1.6t-.5 1.8q-.5.7-1.5.6Zm-3.7-.8q1.2 0 1.8-.5.5-.5.5-1.2 0-.8-.5-1.3-.6-.5-1.8-.5-1.1 0-1.7.6-.6.5-.6 1.2t.6 1.2q.6.5 1.7.5Zm-4.2-6.4h-1.2v-1h1.2v1Zm7.4 0h-6.2v-1h6.2v1Zm0-3h-6.2v-.9h.9q-1-.7-1-2l.1-1 .6-.7q.3-.3.7-.4h4.9v1H28q-.6 0-1 .2-.3 0-.4.4-.2.3-.2.7 0 .7.4 1.2t1.6.5h3.4v1Zm44.5-82.3v-.8q-.6 1-1.7 1-.8 0-1.4-.5-.6-.4-1-1.1T72 127q0-1 .3-1.7.3-.8 1-1.2.6-.4 1.3-.4.6 0 1 .3.5.2.8.6v-3.1h1v8.6h-1ZM73 127q0 1.2.5 1.8.5.6 1.2.6t1.2-.6q.4-.6.4-1.7 0-1.3-.5-1.9-.4-.6-1.2-.6-.7 0-1.1.6-.5.6-.5 1.8Zm6 0q0-1.7.9-2.6.8-.7 2-.7t2 .9q.8.8.8 2.3 0 1.2-.3 1.9-.4.7-1 1-.8.4-1.6.4-1.3 0-2.1-.8t-.8-2.4Zm1 0q0 1.2.5 1.8.5.6 1.3.6t1.3-.6.5-1.8q0-1.2-.5-1.8-.5-.6-1.3-.6t-1.3.6q-.5.6-.5 1.8Zm10.4 3v-.8q-.8 1-2 1-.6 0-1-.2-.5-.2-.7-.5-.3-.3-.4-.8V124h1v4.5l.5.7q.3.2.8.2t.9-.2q.4-.3.6-.7.2-.4.2-1.2V124h1v6.2h-1Zm3.9 0h-1v-8.5h1v3q.7-.8 1.7-.8.6 0 1.1.3.5.2.9.6l.5 1q.2.6.2 1.3 0 1.6-.8 2.5t-1.9.8q-1.1 0-1.7-.9v.8Zm0-3q0 1 .3 1.5.5.9 1.3.9.7 0 1.2-.6t.5-1.8q0-1.2-.5-1.8-.5-.6-1.1-.6-.7 0-1.2.6t-.5 1.7Zm6 3v-8.5h1v8.6h-1Zm7.2-2 1.1.2q-.2 1-1 1.5-.6.5-1.7.5-1.4 0-2.2-.8-.8-.9-.8-2.4t.9-2.4q.8-.9 2-.9 1.3 0 2 .9.9.8.9 2.4v.3H104q0 1 .6 1.5.5.6 1.3.6.6 0 1-.3t.6-1Zm-3.4-1.6h3.5q-.1-.8-.4-1.2-.5-.6-1.3-.6t-1.3.5q-.5.5-.5 1.3Zm10.3 1.4 1 .2q-.2 1-.9 1.6-.7.6-1.7.6-1.3 0-2-.8-.8-.8-.8-2.4 0-1 .3-1.7.3-.8 1-1.2.7-.4 1.5-.4 1 0 1.7.6.6.5.8 1.4l-1 .2q-.2-.7-.5-1-.4-.3-1-.3-.8 0-1.3.6-.5.5-.5 1.8 0 1.2.5 1.8.5.6 1.3.6.6 0 1-.4t.6-1.2Zm1.9 2.3v-8.6h1v8.6h-1Zm3-7.4v-1.2h1v1.2h-1Zm0 7.4V124h1v6.2h-1Zm7-2.3 1 .2q0 1-.8 1.6-.7.6-1.7.6-1.3 0-2-.8-.8-.8-.8-2.4 0-1 .3-1.7.3-.8 1-1.2.7-.4 1.5-.4 1 0 1.7.6.6.5.8 1.4l-1 .2q-.2-.7-.5-1-.4-.3-1-.3-.8 0-1.3.6-.5.5-.5 1.8 0 1.2.5 1.8.5.6 1.3.6.6 0 1-.4t.6-1.2Zm2 2.3v-8.6h1v5l2.5-2.6h1.4l-2.4 2.3 2.7 3.9h-1.3L130 127l-.7.7v2.5h-1.1Zm6.3 0V129h1.2v1.2h-1.2Zm2.7 0V124h1v.9q.6-1 2-1l1 .1q.4.2.7.6l.3.7v4.9h-1v-3.8l-.1-1-.5-.5q-.3-.2-.7-.2-.7 0-1.2.5-.5.4-.5 1.6v3.4h-1Zm11.2-2 1.1.1q-.2 1-1 1.5-.6.5-1.7.5-1.4 0-2.2-.8-.8-.9-.8-2.4t.9-2.4q.8-.9 2-.9 1.3 0 2 .9.9.8.9 2.4v.3H145q0 1 .6 1.5.5.6 1.3.6.6 0 1-.3t.6-1Zm-3.4-1.7h3.5q-.1-.8-.4-1.2-.5-.6-1.3-.6t-1.3.5q-.5.5-.5 1.3Zm8.5 2.8.2.9h-.8l-1-.1-.4-.5-.1-1.2v-3.6h-.8v-.8h.8v-1.6l1-.6v2.2h1v.8h-1v4.2l.3.2h.8Zm-76 22V146h-1v-.8h1v-1.6q.2-.4.6-.6.4-.3 1-.3l1 .1-.1 1-.6-.1q-.5 0-.7.2-.2.2-.2.8v.5h1.2v.8h-1.2v5.5h-1Zm6.8-.7q-.6.5-1.2.7-.5.2-1.1.2-1 0-1.6-.5-.6-.5-.6-1.3l.2-.8q.2-.4.6-.6.3-.3.8-.4l.9-.1 1.9-.4v-.3q0-.6-.3-.9-.4-.3-1.2-.3-.8 0-1.1.2-.4.3-.6 1l-1-.2q.2-.7.5-1 .3-.5 1-.7.5-.2 1.3-.2t1.3.2l.8.4.3.8v4.3l.4.8h-1.1l-.2-.8Zm-.1-2.4q-.6.3-1.8.4l-.9.3q-.2 0-.4.3l-.1.5q0 .4.3.7.3.3 1 .3.5 0 1-.3t.7-.7q.2-.4.2-1v-.5Zm7 .9 1 .1q0 1-.8 1.7-.7.6-1.7.6-1.3 0-2-.8-.8-.9-.8-2.4 0-1 .3-1.8t1-1.1q.7-.4 1.5-.4 1 0 1.7.5.6.5.8 1.5l-1 .1q-.2-.6-.6-1-.3-.2-.9-.2-.8 0-1.3.5-.5.6-.5 1.8 0 1.3.5 1.9.5.5 1.3.5.6 0 1-.4.4-.3.6-1.1Zm6.2.3h1.1q-.2 1-1 1.6-.6.5-1.7.5-1.4 0-2.2-.9-.8-.8-.8-2.3 0-1.6.8-2.4.9-1 2.1-1 1.3 0 2 1 .9.8.9 2.3v.3H94q0 1 .6 1.6.5.5 1.3.5.6 0 1-.3t.6-1Zm-3.4-1.8h3.5q-.1-.7-.4-1.1-.5-.6-1.3-.6t-1.3.4q-.5.5-.5 1.3Zm7.2 3.8h-1v-8.6h1v3q.7-.8 1.7-.8.6 0 1.1.2.5.2.9.7l.5 1 .2 1.2q0 1.6-.8 2.5-.8.9-1.9.9-1.1 0-1.7-1v.9Zm0-3.2q0 1.1.3 1.6.5.8 1.3.8.7 0 1.2-.6t.5-1.8q0-1.2-.5-1.8-.5-.5-1.1-.5-.7 0-1.2.6t-.5 1.7Zm5.6 0q0-1.7 1-2.5.8-.7 2-.7t2 .8q.8.9.8 2.3 0 1.3-.3 2-.4.6-1 1-.8.4-1.6.4-1.3 0-2.1-.8-.8-.9-.8-2.5Zm1 0q0 1.2.6 1.8.5.6 1.3.6t1.3-.6.5-1.8q0-1.1-.5-1.7-.5-.6-1.3-.6t-1.3.6q-.5.5-.5 1.7Zm6 0q0-1.7 1-2.5.8-.7 2-.7t2 .8q.8.9.8 2.3 0 1.3-.3 2-.4.6-1 1-.8.4-1.6.4-1.3 0-2.1-.8-.8-.9-.8-2.5Zm1 0q0 1.2.6 1.8.5.6 1.3.6t1.3-.6.5-1.8q0-1.1-.5-1.7-.5-.6-1.3-.6t-1.3.6q-.5.5-.5 1.7Zm6.4 3.2v-8.6h1v4.9l2.5-2.6h1.4l-2.4 2.3 2.7 4h-1.3l-2.1-3.2-.7.7v2.5h-1.1Zm6.3 0V150h1.2v1.3h-1.2Zm6.8-2.3 1 .1q-.2 1-.9 1.7-.7.6-1.7.6-1.3 0-2-.8-.8-.9-.8-2.4 0-1 .3-1.8t1-1.1q.7-.4 1.5-.4 1 0 1.7.5.6.5.8 1.5l-1 .1q-.2-.6-.6-1-.3-.2-.9-.2-.8 0-1.3.5-.5.6-.5 1.8 0 1.3.5 1.9.5.5 1.3.5.6 0 1-.4.4-.3.6-1.1Zm1.5-.9q0-1.7 1-2.5.8-.7 2-.7t2 .8q.8.9.8 2.3 0 1.3-.3 2-.4.6-1 1-.8.4-1.6.4-1.3 0-2.1-.8-.8-.9-.8-2.5Zm1 0q0 1.2.6 1.8.5.6 1.3.6t1.3-.6.5-1.8q0-1.1-.5-1.7-.5-.6-1.3-.6t-1.3.6q-.5.5-.5 1.7Zm6.4 3.2V145h1v1q.2-.6.7-.8.5-.3 1.1-.3.7 0 1.2.3.4.3.6.8.7-1.1 1.9-1.1 1 0 1.4.5.5.5.5 1.6v4.3h-1v-4l-.1-.9q-.1-.3-.4-.4t-.6-.2q-.7 0-1.1.4-.5.5-.5 1.4v3.7h-1v-4.1q0-.7-.3-1-.2-.4-.8-.4-.5 0-.8.2-.4.3-.6.7-.2.5-.2 1.3v3.3h-1Zm-59 23.5-.2-1 .6.1.6-.1.3-.3.4-.8v-.3l-2.3-6.2h1.1l1.3 3.6.5 1.4.4-1.4 1.3-3.6h1l-2.3 6.3-.6 1.4q-.2.6-.6.8-.4.2-.9.2l-.6-.1Zm4.6-5.5q0-1.7 1-2.6.8-.7 2-.7t2 .9q.8.8.8 2.3 0 1.2-.3 1.9-.4.7-1 1-.8.4-1.6.4-1.3 0-2.1-.8t-.8-2.4Zm1 0q0 1.2.6 1.8.5.6 1.3.6t1.3-.6q.5-.6.5-1.8 0-1.2-.5-1.8-.5-.6-1.3-.6t-1.3.6q-.5.6-.5 1.8Zm10.5 3.1v-1q-.8 1.2-2 1.2-.6 0-1-.3-.5-.2-.7-.5-.3-.3-.4-.8v-4.8h1v4.6q.2.4.5.6.3.2.8.2t.9-.2q.4-.2.6-.7.2-.4.2-1.2v-3.3h1v6.2h-1Zm5.2-1 .2 1H104l-.4-.6-.1-1.2V167h-.8v-.8h.8v-1.6l1-.6v2.2h1v.8h-1v4.2l.3.2.3.1h.5Zm4.8 1v-1q-.8 1.2-2 1.2-.6 0-1-.3-.5-.2-.7-.5-.3-.3-.4-.8v-4.8h1v4.6q.2.4.5.6.3.2.8.2t.9-.2q.4-.2.6-.7.2-.4.2-1.2v-3.3h1v6.2h-1Zm3.9 0h-1V164h1v3q.7-.8 1.7-.8.6 0 1.1.3.5.2.9.6l.5 1q.2.6.2 1.3 0 1.6-.8 2.5t-1.9.8q-1.1 0-1.7-.9v.8Zm0-3.1q0 1 .3 1.6.5.8 1.3.8.7 0 1.2-.6t.5-1.8q0-1.2-.5-1.8-.5-.6-1.1-.6-.7 0-1.2.6t-.5 1.8Zm10.2 1.1 1.1.1q-.2 1-1 1.5-.6.5-1.7.5-1.4 0-2.2-.8-.8-.8-.8-2.4 0-1.5.8-2.4.9-.9 2.1-.9 1.3 0 2 .9.9.8.9 2.4v.3H121q0 1 .6 1.5.5.6 1.3.6.6 0 1-.3t.6-1Zm-3.4-1.7h3.5q-.1-.8-.4-1.2-.5-.6-1.3-.6t-1.3.5q-.5.5-.5 1.3Zm6.5 3.7v-1.2h1.2v1.2h-1.2Zm6.8-2.3 1 .2q-.2 1-.9 1.6-.7.6-1.7.6-1.3 0-2-.8-.8-.8-.8-2.4 0-1 .3-1.7.3-.8 1-1.2.7-.4 1.5-.4 1 0 1.7.6.6.5.8 1.4l-1 .2q-.2-.7-.6-1-.3-.3-.9-.3-.8 0-1.3.6-.5.5-.5 1.8 0 1.2.5 1.8.5.6 1.3.6.6 0 1-.4t.6-1.2Zm1.5-.8q0-1.7 1-2.6.8-.7 2-.7t2 .9q.8.8.8 2.3 0 1.2-.3 1.9-.4.7-1 1-.8.4-1.6.4-1.3 0-2.1-.8t-.8-2.4Zm1 0q0 1.2.6 1.8.5.6 1.3.6t1.3-.6q.5-.6.5-1.8 0-1.2-.5-1.8-.5-.6-1.3-.6t-1.3.6q-.5.6-.5 1.8Zm6.4 3.1v-6.2h1v.9q.2-.5.7-.8.5-.3 1.1-.3.7 0 1.2.3.4.3.6.8.7-1 1.9-1 1 0 1.4.5.5.5.5 1.5v4.3h-1v-4l-.1-.8q-.1-.3-.4-.5l-.6-.1q-.7 0-1.1.4-.5.4-.5 1.4v3.6h-1v-4q0-.7-.3-1-.2-.4-.8-.4-.5 0-.8.2-.4.2-.6.7-.2.4-.2 1.3v3.2h-1Zm-54.2 21.7 1 .1q0 .5.4.7.4.3 1 .3.8 0 1.2-.3.4-.3.5-.8l.1-1.3q-.7.8-1.7.8-1.3 0-2-1-.7-.9-.7-2.2 0-.9.3-1.6.3-.8 1-1.2.6-.4 1.4-.4 1 0 1.8.9v-.8h1v5.4q0 1.5-.3 2-.3.7-1 1-.6.4-1.5.4-1.1 0-1.8-.5t-.7-1.5Zm.9-3.8q0 1.3.5 1.8.4.6 1.2.6.7 0 1.2-.6.5-.5.5-1.7t-.5-1.7q-.5-.6-1.2-.6t-1.2.6q-.5.5-.5 1.6Zm6 .2q0-1.8.9-2.6.8-.7 2-.7t2 .8q.8.9.8 2.4 0 1.2-.3 1.9-.4.6-1 1-.8.4-1.6.4-1.3 0-2.1-.8-.8-.9-.8-2.4Zm1 0q0 1.1.5 1.7.5.6 1.3.6t1.3-.6.5-1.8q0-1.1-.5-1.7-.5-.6-1.3-.6t-1.3.6q-.5.6-.5 1.8Zm6 0q0-1.8.9-2.6.8-.7 2-.7t2 .8q.8.9.8 2.4 0 1.2-.3 1.9-.4.6-1 1-.8.4-1.6.4-1.3 0-2.1-.8-.8-.9-.8-2.4Zm1 0q0 1.1.5 1.7.5.6 1.3.6t1.3-.6.5-1.8q0-1.1-.5-1.7-.5-.6-1.3-.6t-1.3.6q-.5.6-.5 1.8Zm6 3.6 1.1.1q0 .5.4.7.4.3 1 .3.8 0 1.2-.3.4-.3.5-.8l.1-1.3q-.7.8-1.7.8-1.3 0-2-1-.7-.9-.7-2.2 0-.9.3-1.6.3-.8 1-1.2.6-.4 1.4-.4 1 0 1.8.9v-.8h1v5.4q0 1.5-.3 2-.3.7-1 1-.6.4-1.5.4-1.1 0-1.8-.5t-.7-1.5Zm1-3.8q0 1.3.5 1.8.4.6 1.2.6.7 0 1.2-.6.5-.5.5-1.7t-.5-1.7q-.5-.6-1.2-.6t-1.2.6q-.5.5-.5 1.6Zm6.3 3.3V185h1v8.6h-1Zm7.2-2h1.1q-.2 1-1 1.6-.6.5-1.7.5-1.4 0-2.2-.8-.8-.9-.8-2.4 0-1.6.8-2.4.9-.9 2.1-.9 1.3 0 2 .8.9.9.9 2.4v.3H121q0 1 .6 1.6.5.5 1.3.5.6 0 1-.3t.6-1Zm-3.4-1.7h3.5q-.1-.8-.4-1.2-.5-.6-1.3-.6t-1.3.4q-.5.5-.5 1.4Zm6.5 3.7v-1.2h1.2v1.2h-1.2Zm6.8-2.3 1 .1q-.2 1-.9 1.7-.7.6-1.7.6-1.3 0-2-.8-.8-.9-.8-2.4 0-1 .3-1.8.3-.7 1-1.1.7-.4 1.5-.4 1 0 1.7.5.6.5.8 1.5l-1 .1q-.2-.6-.6-1-.3-.2-.9-.2-.8 0-1.3.5-.5.6-.5 1.8 0 1.3.5 1.9.5.5 1.3.5.6 0 1-.3.4-.4.6-1.2Zm1.5-.8q0-1.8 1-2.6.8-.7 2-.7t2 .8q.8.9.8 2.4 0 1.2-.3 1.9-.4.6-1 1-.8.4-1.6.4-1.3 0-2.1-.8-.8-.9-.8-2.4Zm1 0q0 1.1.6 1.7.5.6 1.3.6t1.3-.6.5-1.8q0-1.1-.5-1.7-.5-.6-1.3-.6t-1.3.6q-.5.6-.5 1.8Zm6.4 3v-6.2h1v1q.2-.5.7-.8.5-.3 1.1-.3.7 0 1.2.3.4.3.6.8.7-1 1.9-1 1 0 1.4.4.5.5.5 1.6v4.3h-1v-4l-.1-.9-.4-.4-.6-.2q-.7 0-1.1.4-.5.5-.5 1.5v3.6h-1v-4q0-.8-.3-1.1-.2-.4-.8-.4-.5 0-.8.2-.4.3-.6.7-.2.5-.2 1.3v3.3h-1Zm-41 23.6-.2-1 .6.1.6-.1.3-.3.4-.8v-.3l-2.3-6.2h1.1l1.3 3.6.5 1.5.4-1.5 1.3-3.6h1l-2.3 6.3-.6 1.4q-.2.6-.6.8-.4.3-.9.3l-.6-.2Zm9-3.1q-.5.5-1 .7l-1.2.2q-1 0-1.6-.5-.6-.5-.6-1.3 0-.5.2-.8.2-.4.6-.7l.8-.3.9-.2q1.3-.1 1.9-.3v-.3q0-.7-.3-1-.4-.3-1.2-.3-.8 0-1.1.3-.4.3-.6 1l-1-.2q.2-.7.5-1 .3-.5 1-.7.5-.2 1.3-.2t1.3.2q.5.1.8.4l.3.7v4.3l.4.7h-1.1q-.2-.3-.2-.7Zm0-2.4-1.8.4-.9.2-.4.4-.1.5q0 .4.3.7.3.2 1 .2l1-.2q.5-.3.7-.8.2-.3.2-1v-.4Zm3 3.1v-6.2h1v.9q.6-1 2-1l1 .2.7.5.3.8v4.8h-1V211l-.1-1-.5-.4q-.3-.2-.7-.2-.7 0-1.2.4t-.5 1.6v3.4h-1Zm11 0v-.8q-.6 1-1.7 1-.8 0-1.4-.4-.6-.5-1-1.2t-.3-1.7q0-1 .3-1.7t1-1.1q.6-.4 1.3-.4.6 0 1 .2.5.2.8.6v-3h1v8.5h-1Zm-3.3-3q0 1.1.5 1.7.5.6 1.2.6t1.2-.6q.4-.5.4-1.7 0-1.3-.5-1.9-.4-.6-1.2-.6-.7 0-1.1.6-.5.6-.5 1.8Zm10.5 1 1.1.1q-.2 1-1 1.5-.6.6-1.7.6-1.4 0-2.2-.9-.8-.8-.8-2.3 0-1.6.8-2.5.9-.8 2.1-.8 1.3 0 2 .8.9.9.9 2.4v.3H129q0 1 .6 1.6.5.5 1.3.5.6 0 1-.3t.6-1Zm-3.4-1.7h3.5q-.1-.8-.4-1.2-.5-.6-1.3-.6t-1.3.5q-.5.5-.5 1.3Zm5.5 3.7 2.3-3.2-2.1-3h1.3l1 1.5.4.7.4-.7 1-1.5h1.3l-2.1 3 2.3 3.2h-1.3l-1.3-2-.3-.4-1.6 2.4h-1.3Zm6 0v-1.2h1.2v1.2h-1.2Zm2.7 0v-6.2h1v1q.3-.7.6-1l.7-.1q.5 0 1 .3l-.3 1q-.4-.3-.8-.3-.3 0-.6.3-.3.2-.4.5-.2.6-.2 1.3v3.2h-1Zm8 0v-.9q-.7 1-2 1l-1-.1-.6-.6q-.3-.3-.4-.8v-4.8h1v4.5q.2.5.5.7.3.3.8.3t.9-.3q.4-.2.6-.6.2-.5.2-1.3v-3.3h1v6.2h-1Zm-67 21.2v-8.6h1v8.6h-1Zm3-7.4v-1.2h1v1.2h-1Zm0 7.4v-6.2h1v6.2h-1Zm3 0v-6.2h1v.8q.6-1 2-1l1 .2q.4.2.7.6l.3.7v4.9h-1v-3.8l-.1-1-.5-.5q-.3-.2-.7-.2-.7 0-1.2.5-.5.4-.5 1.6v3.4h-1Zm7 0v-8.6h1v4.9l2.5-2.5h1.4l-2.4 2.3 2.7 3.9h-1.3l-2.1-3.2-.7.7v2.5h-1.1Zm10.2-2 1.1.1q-.2 1-1 1.5-.6.5-1.7.5-1.4 0-2.2-.8-.8-.9-.8-2.4t.8-2.4q.9-.9 2.1-.9 1.3 0 2 .9.9.8.9 2.4v.2H104q0 1 .6 1.6.5.5 1.3.5.6 0 1-.3t.6-1Zm-3.4-1.7h3.5q-.1-.8-.4-1.2-.5-.6-1.3-.6t-1.3.5q-.5.4-.5 1.3Zm10.2 3.7v-.8q-.6 1-1.7 1-.8 0-1.4-.5-.6-.4-1-1.1t-.3-1.7q0-1 .3-1.7.3-.8 1-1.2.6-.4 1.3-.4.6 0 1 .3.5.2.8.6v-3.1h1v8.6h-1Zm-3.3-3.1q0 1.2.5 1.8.5.5 1.2.5t1.2-.5q.4-.6.4-1.7 0-1.3-.5-2-.4-.5-1.2-.5-.7 0-1.1.6-.5.5-.5 1.8Zm6.3-4.3v-1.2h1v1.2h-1Zm0 7.4v-6.2h1v6.2h-1Zm3 0v-6.2h1v.8q.6-1 2-1l1 .2q.4.2.7.6l.3.7v4.9h-1v-3.8l-.1-1-.5-.5q-.3-.2-.7-.2-.7 0-1.2.5-.5.4-.5 1.6v3.4h-1Zm7.3 0v-1.2h1.2v1.2h-1.2Zm6.8-2.3 1 .1q-.2 1.1-.9 1.7-.7.6-1.7.6-1.3 0-2-.8-.8-.9-.8-2.4 0-1 .3-1.8.3-.7 1-1.1.7-.4 1.5-.4 1 0 1.7.5.6.5.8 1.5l-1 .1q-.2-.6-.6-.9-.3-.3-.9-.3-.8 0-1.3.6-.5.5-.5 1.8 0 1.2.5 1.8.5.5 1.3.5.6 0 1-.3.4-.4.6-1.2Zm1.5-.8q0-1.8 1-2.6.8-.7 2-.7t2 .9q.8.8.8 2.3 0 1.2-.3 1.9-.4.7-1 1-.8.4-1.6.4-1.3 0-2.1-.8-.8-.9-.8-2.4Zm1 0q0 1.2.6 1.8.5.5 1.3.5t1.3-.5.5-1.9q0-1.1-.5-1.7-.5-.6-1.3-.6t-1.3.6q-.5.6-.5 1.8Zm6.4 3v-6.1h1v.8q.2-.4.7-.7.5-.3 1.1-.3.7 0 1.2.3.4.3.6.8.7-1 1.9-1 1 0 1.4.4.5.5.5 1.6v4.3h-1v-4l-.1-.8q-.1-.3-.4-.5t-.6-.2q-.7 0-1.1.5-.5.4-.5 1.4v3.6h-1v-4q0-.8-.3-1.1-.2-.4-.8-.4-.5 0-.8.3-.4.2-.6.6-.2.5-.2 1.3v3.3h-1Zm-40 20.5q-.5.5-1 .7l-1.2.2q-1 0-1.6-.5-.6-.5-.6-1.3 0-.5.2-.8.2-.4.6-.6.3-.3.8-.4l.9-.2q1.3-.1 1.9-.3v-.3q0-.6-.3-.9-.4-.3-1.2-.3-.8 0-1.1.2-.4.3-.6 1l-1-.2q.2-.7.5-1 .3-.5 1-.7.5-.2 1.3-.2t1.3.2l.8.4.3.8v4.3l.4.7h-1.1q-.2-.3-.2-.7Zm0-2.4-1.8.4-.9.2-.4.4-.1.5q0 .4.3.7.3.2 1 .2l1-.2q.5-.3.7-.8.2-.3.2-1v-.4Zm7 3.1v-.7q-.6.9-1.7.9-.8 0-1.4-.4-.6-.5-1-1.2t-.3-1.7q0-.9.3-1.7.3-.7 1-1.1.6-.4 1.3-.4.6 0 1 .2.5.2.8.6v-3h1v8.5h-1Zm-3.3-3q0 1.1.5 1.7.5.6 1.2.6t1.2-.6q.4-.5.4-1.7 0-1.3-.5-1.9-.4-.5-1.2-.5-.7 0-1.1.5-.5.6-.5 1.8Zm5.9 1.2 1-.2q.1.6.5 1 .4.3 1.1.3.8 0 1-.3.5-.3.5-.7 0-.3-.4-.5-.2-.2-1-.4l-1.6-.5q-.5-.2-.7-.6-.3-.4-.3-.8l.2-.8q.2-.4.6-.6l.6-.3 1-.1q.7 0 1.2.2.6.2.8.6.3.3.4 1h-1q-.1-.4-.4-.7-.4-.3-1-.3-.7 0-1 .3-.3.2-.3.5v.4l.5.3 1 .3 1.5.5q.4.1.7.5.2.4.2 1 0 .4-.3 1-.3.4-.9.6-.5.3-1.3.3-1.2 0-1.8-.5-.7-.5-.8-1.5Zm7.4 1.8v-6h1v1q.3-.7.6-.9.3-.2.7-.2.5 0 1 .3l-.3 1-.8-.2-.6.2q-.3.2-.4.6-.2.5-.2 1.2v3.2h-1Zm5.7 0-2.3-6.2h1l1.4 3.7.4 1.3.4-1.2 1.4-3.8h1L127 257h-1Zm3.3 0v-6h1v1q.3-.7.6-.9.3-.2.7-.2.5 0 1 .3l-.3 1-.8-.2-.6.2q-.3.2-.4.6-.2.5-.2 1.2v3.2h-1Zm4.3 0v-1h1.2v1.2h-1.2Zm2.3-3q0-1.8 1-2.6.8-.7 2-.7t2 .8q.8.8.8 2.3 0 1.2-.3 2-.4.6-1 1-.8.4-1.6.4-1.3 0-2.1-.9-.8-.8-.8-2.4Zm1 0q0 1.1.6 1.7.5.6 1.3.6t1.3-.6.5-1.8q0-1.2-.5-1.8-.5-.5-1.3-.5t-1.3.5q-.5.6-.5 1.8Zm6.4 3v-6h1v1q.3-.7.6-.9.3-.2.7-.2.5 0 1 .3l-.3 1-.8-.2-.6.2q-.3.2-.4.6-.2.5-.2 1.2v3.2h-1Zm3.8.6 1 .1q0 .5.4.7.4.3 1 .3.8 0 1.2-.3.4-.3.5-.8l.1-1.4q-.7.8-1.7.8-1.3 0-2-.9-.7-1-.7-2.2 0-.9.3-1.6.3-.8 1-1.2.6-.4 1.4-.4 1 0 1.8.9v-.8h1v5.4q0 1.4-.3 2-.3.7-1 1-.6.4-1.5.4-1.1 0-1.8-.5t-.7-1.5Zm.9-3.8q0 1.2.5 1.8.4.6 1.2.6.7 0 1.2-.6t.5-1.8q0-1-.5-1.7-.5-.5-1.2-.5t-1.2.5q-.5.6-.5 1.7Zm-71.7 26.8V272h1v.8q.3-.5.7-.7.5-.3 1-.3.9 0 1.5.4t.9 1.2q.3.7.3 1.6 0 1-.4 1.8-.3.7-1 1.1-.6.4-1.3.4l-1-.2-.7-.5v3h-1Zm1-5.5q0 1.2.4 1.8.5.6 1.2.6t1.2-.6q.5-.6.5-1.9 0-1.2-.5-1.7-.5-.6-1.1-.6-.7 0-1.2.6t-.5 1.8Zm10 3v-.8q-.7 1-2 1l-1-.2q-.4-.2-.6-.5-.3-.3-.4-.8V272h1v4.5l.5.7q.3.2.8.2t.9-.2q.4-.3.6-.7.2-.4.2-1.2V272h1v6.2h-1Zm4 0h-1v-8.5h1v3q.7-.8 1.7-.8.6 0 1.1.3.5.2.9.6l.5 1q.2.6.2 1.3 0 1.6-.8 2.5-.8.8-1.9.8-1.1 0-1.7-.9v.8Zm0-3q0 1 .3 1.5.5.9 1.3.9.7 0 1.2-.6t.5-1.8q0-1.3-.5-1.8-.5-.6-1.1-.6-.7 0-1.2.6t-.5 1.7Zm6 3V272h1v.8q.2-.4.7-.7.5-.3 1.1-.3.7 0 1.1.3.5.3.7.8.7-1 1.9-1 1 0 1.4.5.5.4.5 1.5v4.3h-1v-4l-.1-.8q-.1-.3-.4-.5t-.6-.2q-.7 0-1.1.5-.5.4-.5 1.4v3.6h-1v-4q0-.8-.3-1.1-.2-.4-.8-.4-.5 0-.8.3-.4.2-.6.7-.2.4-.2 1.3v3.2h-1Zm15-.7q-.5.5-1 .7l-1.2.2q-1 0-1.6-.5-.6-.5-.6-1.2 0-.5.2-.9t.6-.6l.8-.3.9-.2q1.3-.1 1.9-.4v-.2q0-.7-.3-1-.4-.3-1.2-.3-.8 0-1.1.3-.4.2-.6.9l-1-.2.5-1q.3-.4 1-.6.5-.3 1.3-.3t1.3.2l.8.5.3.7v4.2l.4.8h-1.1q-.2-.3-.2-.8Zm0-2.3-1.8.4q-.6 0-.9.2l-.4.3-.1.5q0 .4.3.7.3.3 1 .3.5 0 1-.3.5-.2.7-.7.2-.4.2-1v-.4Zm5.3 2.2.1.9h-.7l-1-.1-.4-.5-.1-1.2v-3.6h-.8v-.8h.8v-1.6l1-.6v2.2h1v.8h-1v4.2l.3.2h.8Zm.7-6.5v-1.2h1v1.2h-1Zm0 7.4V272h1v6.2h-1Zm7-2.3 1 .2q0 1-.8 1.6-.7.6-1.7.6-1.3 0-2-.8-.8-.8-.8-2.4 0-1 .3-1.8.3-.7 1-1 .7-.5 1.5-.5 1 0 1.7.5.6.5.8 1.5l-1 .2q-.2-.7-.6-1-.3-.3-.9-.3-.8 0-1.3.6-.5.5-.5 1.8 0 1.2.5 1.8.5.6 1.3.6.6 0 1-.4t.6-1.2Zm2.3 2.3V277h1.2v1.2h-1.2Zm6.8-2.3 1 .2q-.2 1-.9 1.6-.7.6-1.7.6-1.3 0-2-.8-.8-.8-.8-2.4 0-1 .3-1.8.3-.7 1-1 .7-.5 1.5-.5 1 0 1.7.5.6.5.8 1.5l-1 .2q-.2-.7-.6-1-.3-.3-.9-.3-.8 0-1.3.6-.5.5-.5 1.8 0 1.2.5 1.8.5.6 1.3.6.6 0 1-.4t.6-1.2Zm1.5-.8q0-1.8 1-2.6.8-.7 2-.7t2 .9q.8.8.8 2.3 0 1.2-.3 1.9-.4.7-1 1-.8.4-1.6.4-1.3 0-2.1-.8t-.8-2.4Zm1 0q0 1.2.6 1.8.5.6 1.3.6t1.3-.6.5-1.8q0-1.2-.5-1.8-.5-.6-1.3-.6t-1.3.6q-.5.6-.5 1.8Zm6.4 3V272h1v.8q.2-.4.7-.7.5-.3 1.1-.3.7 0 1.2.3.4.3.6.8.7-1 1.9-1 1 0 1.4.4.5.5.5 1.6v4.3h-1v-4l-.1-.8q-.1-.3-.4-.5t-.6-.2q-.7 0-1.1.5-.5.4-.5 1.4v3.6h-1v-4q0-.8-.3-1.1-.2-.4-.8-.4-.5 0-.8.3-.4.2-.6.7-.2.4-.2 1.3v3.2h-1Zm-49 23.6-.2-1 .6.2q.4 0 .6-.2.2 0 .3-.3l.4-.8v-.2l-2.3-6.3h1.1l1.3 3.6.5 1.5.4-1.4 1.3-3.7h1l-2.3 6.4-.6 1.4q-.2.5-.6.7-.4.3-.9.3l-.6-.2Zm9-3.1q-.5.5-1 .7l-1.2.2q-1 0-1.6-.5-.6-.5-.6-1.3l.2-.8q.2-.4.6-.6.3-.3.8-.4l.9-.1 1.9-.4v-.3q0-.6-.3-.9-.4-.3-1.2-.3-.8 0-1.1.2-.4.3-.6 1l-1-.2q.2-.7.5-1 .3-.5 1-.7.5-.2 1.3-.2t1.3.2l.8.4.3.8v4.3l.4.8h-1.1l-.2-.8Zm0-2.4q-.6.3-1.8.4l-.9.3q-.2 0-.4.3l-.1.5q0 .4.3.7.3.3 1 .3.5 0 1-.3t.7-.7q.2-.4.2-1v-.5Zm3 3.2v-8.6h1v3q.8-.8 1.9-.8.7 0 1.2.3.5.2.7.7.3.5.3 1.4v4h-1v-4q0-.8-.4-1.1-.4-.4-1-.4-.5 0-.9.2-.4.3-.6.7-.2.4-.2 1.1v3.5h-1Zm6.6-3.2q0-1.7 1-2.5.8-.7 2-.7t2 .8q.8.9.8 2.3 0 1.3-.3 2-.4.6-1 1-.8.4-1.6.4-1.3 0-2.1-.8-.8-.9-.8-2.5Zm1 0q0 1.2.6 1.8.5.6 1.3.6t1.3-.6.5-1.8q0-1.1-.5-1.7-.5-.6-1.3-.6t-1.3.6q-.5.5-.5 1.7Zm6 0q0-1.7 1-2.5.8-.7 2-.7t2 .8q.8.9.8 2.3 0 1.3-.3 2-.4.6-1 1-.8.4-1.6.4-1.3 0-2.1-.8-.8-.9-.8-2.5Zm1 0q0 1.2.6 1.8.5.6 1.3.6t1.3-.6.5-1.8q0-1.1-.5-1.7-.5-.6-1.3-.6t-1.3.6q-.5.5-.5 1.7Zm6.7 3.2v-1.3h1.2v1.3h-1.2Zm6.8-2.3 1 .1q-.2 1-.9 1.7-.7.6-1.7.6-1.3 0-2-.8-.8-.9-.8-2.4 0-1 .3-1.8t1-1.1q.7-.4 1.5-.4 1 0 1.7.5.6.5.8 1.5l-1 .1q-.2-.6-.6-1-.3-.2-.9-.2-.8 0-1.3.5-.5.6-.5 1.8 0 1.3.5 1.9.5.5 1.3.5.6 0 1-.4.4-.3.6-1.1Zm1.5-.9q0-1.7 1-2.5.8-.7 2-.7t2 .8q.8.9.8 2.3 0 1.3-.3 2-.4.6-1 1-.8.4-1.6.4-1.3 0-2.1-.8-.8-.9-.8-2.5Zm1 0q0 1.2.6 1.8.5.6 1.3.6t1.3-.6.5-1.8q0-1.1-.5-1.7-.5-.6-1.3-.6t-1.3.6q-.5.5-.5 1.7Zm6.4 3.2v-6.3h1v1q.2-.6.7-.8.5-.3 1.1-.3.7 0 1.2.3.4.3.6.8.7-1.1 1.9-1.1 1 0 1.4.5.5.5.5 1.6v4.3h-1v-4l-.1-.9q-.1-.3-.4-.4t-.6-.2q-.7 0-1.1.4-.5.5-.5 1.4v3.7h-1v-4.1q0-.7-.3-1-.2-.4-.8-.4-.5 0-.8.2-.4.3-.6.7-.2.5-.2 1.3v3.3h-1Zm-39 21.1h-1V312h1v3q.7-.8 1.7-.8.6 0 1.1.3.5.2.9.6l.5 1q.2.6.2 1.3 0 1.6-.8 2.5-.8.8-1.9.8-1.1 0-1.7-.9v.8Zm0-3.1q0 1 .3 1.6.5.8 1.3.8.7 0 1.2-.6t.5-1.8q0-1.2-.5-1.8-.5-.6-1.1-.6-.7 0-1.2.6t-.5 1.8Zm6-4.3V312h1v1.2h-1Zm0 7.4v-6.2h1v6.2h-1Zm3 0v-6.2h1v.9q.6-1 2-1l1 .2.7.5.3.7v5h-1v-3.9l-.1-1q-.2-.3-.5-.4-.3-.2-.7-.2-.7 0-1.2.4t-.5 1.6v3.4h-1Zm6.8.5 1 .2q0 .4.4.7.4.3 1 .3.8 0 1.2-.3.4-.3.5-.8l.1-1.4q-.7.8-1.7.8-1.3 0-2-1-.7-.9-.7-2.1 0-1 .3-1.7t1-1.1q.6-.5 1.4-.5 1 0 1.8 1v-.8h1v5.4q0 1.4-.3 2-.3.6-1 1-.6.3-1.5.3-1.1 0-1.8-.5t-.7-1.5Zm.9-3.7q0 1.2.5 1.8.4.5 1.2.5.7 0 1.2-.5.5-.6.5-1.8 0-1.1-.5-1.7-.5-.6-1.2-.6t-1.2.6q-.5.6-.5 1.7Zm6.6 3.2v-1.2h1.2v1.2h-1.2Zm6.8-2.3 1 .2q-.2 1-.9 1.6-.7.6-1.7.6-1.3 0-2-.8-.8-.8-.8-2.4 0-1 .3-1.7.3-.8 1-1.2.7-.4 1.5-.4 1 0 1.7.6.6.5.8 1.4l-1 .2q-.2-.7-.6-1-.3-.3-.9-.3-.8 0-1.3.6-.5.5-.5 1.8 0 1.2.5 1.8.5.6 1.3.6.6 0 1-.4t.6-1.2Zm1.5-.8q0-1.7 1-2.6.8-.7 2-.7t2 .9q.8.8.8 2.3 0 1.2-.3 1.9-.4.7-1 1-.8.4-1.6.4-1.3 0-2.1-.8t-.8-2.4Zm1 0q0 1.2.6 1.8.5.6 1.3.6t1.3-.6.5-1.8q0-1.2-.5-1.8-.5-.6-1.3-.6t-1.3.6q-.5.6-.5 1.8Zm6.4 3.1v-6.2h1v.9q.2-.5.7-.8.5-.3 1.1-.3.7 0 1.2.3.4.3.6.8.7-1 1.9-1 1 0 1.4.5.5.5.5 1.5v4.3h-1v-4l-.1-.8q-.1-.3-.4-.5t-.6-.1q-.7 0-1.1.4-.5.4-.5 1.4v3.6h-1v-4q0-.7-.3-1-.2-.4-.8-.4-.5 0-.8.2-.4.2-.6.7-.2.4-.2 1.3v3.2h-1Zm-94 21.2v-6.3h1v1q.3-.7.6-.9.3-.2.7-.2.5 0 1 .3l-.3 1-.8-.2-.6.2q-.3.2-.4.6-.2.5-.2 1.2v3.3h-1Zm8 0v-1q-.7 1.1-2 1.1l-1-.2q-.4-.2-.6-.5l-.4-.8v-4.9h1v4.6l.5.7q.3.2.8.2t.9-.2q.4-.3.6-.7.2-.4.2-1.2v-3.4h1v6.3h-1Zm4 0h-1v-8.6h1v3q.7-.8 1.7-.8.6 0 1.1.2l.9.7.5 1q.2.6.2 1.3 0 1.6-.8 2.4-.8 1-1.9 1-1.1 0-1.7-1v.8Zm0-3.2q0 1.1.3 1.6.5.8 1.3.8.7 0 1.2-.6t.5-1.8q0-1.2-.5-1.8-.5-.5-1.1-.5-.7 0-1.2.6t-.5 1.7Zm6-4.2v-1.2h1v1.2h-1Zm0 7.4v-6.3h1v6.3h-1Zm7-2.3 1 .1q0 1-.8 1.7-.7.6-1.7.6-1.3 0-2-.8-.8-.9-.8-2.4 0-1 .3-1.8.3-.7 1-1.1.7-.4 1.5-.4 1 0 1.7.5.6.5.8 1.5l-1 .1-.5-1q-.4-.2-1-.2-.8 0-1.3.5-.5.6-.5 1.8 0 1.3.5 1.9.5.5 1.3.5.6 0 1-.3.4-.4.6-1.2Zm1.6-.8q0-1.8 1-2.6.8-.7 2-.7t2 .8q.8.9.8 2.4 0 1.2-.3 1.9-.4.6-1 1-.8.4-1.6.4-1.3 0-2.1-.8-.8-.9-.8-2.4Zm1 0q0 1.1.6 1.7.5.6 1.3.6t1.3-.6.5-1.8q0-1.1-.5-1.7-.5-.6-1.3-.6t-1.3.6q-.5.6-.5 1.8Zm6.4 3v-6.2h1v1q.6-1 2-1l1 .1.7.5.3.8v4.9h-1V338l-.1-1-.5-.5q-.3-.2-.7-.2-.7 0-1.2.4-.5.5-.5 1.7v3.4h-1Zm7 2.5v-8.7h1v.8l.7-.7 1-.2q.9 0 1.5.4t.9 1.2q.3.7.3 1.6 0 1-.4 1.7-.3.8-1 1.2-.6.4-1.3.4l-1-.2q-.4-.2-.7-.6v3h-1Zm1-5.5q0 1.2.4 1.8.5.5 1.2.5t1.2-.6q.5-.6.5-1.8 0-1.2-.5-1.8-.5-.6-1.1-.6-.7 0-1.2.7-.5.6-.5 1.8Zm6 3v-6.2h1v1q.3-.7.6-.9.3-.2.7-.2.5 0 1 .3l-.3 1-.8-.2-.6.2q-.3.2-.4.6-.2.5-.2 1.2v3.3h-1Zm3.6-3q0-1.8 1-2.6.8-.7 2-.7t2 .8q.8.9.8 2.4 0 1.2-.3 1.9-.4.6-1 1-.8.4-1.6.4-1.3 0-2.1-.8-.8-.9-.8-2.4Zm1 0q0 1.1.6 1.7.5.6 1.3.6t1.3-.6.5-1.8q0-1.1-.5-1.7-.5-.6-1.3-.6t-1.3.6q-.5.6-.5 1.8Zm6.4-4.3v-1.2h1v1.2h-1Zm-1.3 9.8.1-1 .5.2q.4 0 .5-.3.2-.2.2-1v-6.6h1v6.6q0 1.1-.3 1.6-.3.6-1.2.6l-.8-.1Zm8.5-4.4h1.1q-.2 1-1 1.6-.6.5-1.7.5-1.4 0-2.2-.8-.8-.9-.8-2.4 0-1.6.8-2.4.9-.9 2.1-.9 1.3 0 2 .8.9.9.9 2.4v.3H112q0 1 .6 1.6.5.5 1.3.5.6 0 1-.3t.6-1Zm-3.4-1.7h3.5q-.1-.8-.4-1.2-.5-.6-1.3-.6t-1.3.4q-.5.5-.5 1.4Zm10.3 1.4 1 .1q-.2 1-.9 1.7-.7.6-1.7.6-1.3 0-2-.8-.8-.9-.8-2.4 0-1 .3-1.8.3-.7 1-1.1.7-.4 1.5-.4 1 0 1.7.5.6.5.8 1.5l-1 .1-.5-1q-.4-.2-1-.2-.8 0-1.3.5-.5.6-.5 1.8 0 1.3.5 1.9.5.5 1.3.5.6 0 1-.3.4-.4.6-1.2Zm4.2 1.3.2 1h-.8l-1-.1-.4-.5-.1-1.3v-3.5h-.8v-.9h.8V334l1-.6v2.1h1v.9h-1v4.2l.3.2h.8Zm1 1v-1.2h1.2v1.2h-1.2Zm6.8-2.3 1 .1q-.2 1-.9 1.7-.7.6-1.7.6-1.3 0-2-.8-.8-.9-.8-2.4 0-1 .3-1.8.3-.7 1-1.1.7-.4 1.5-.4 1 0 1.7.5.6.5.8 1.5l-1 .1q-.2-.6-.6-1-.3-.2-.9-.2-.8 0-1.3.5-.5.6-.5 1.8 0 1.3.5 1.9.5.5 1.3.5.6 0 1-.3.4-.4.6-1.2Zm1.5-.8q0-1.8 1-2.6.8-.7 2-.7t2 .8q.8.9.8 2.4 0 1.2-.3 1.9-.4.6-1 1-.8.4-1.6.4-1.3 0-2.1-.8-.8-.9-.8-2.4Zm1 0q0 1.1.6 1.7.5.6 1.3.6t1.3-.6.5-1.8q0-1.1-.5-1.7-.5-.6-1.3-.6t-1.3.6q-.5.6-.5 1.8Zm6.4 3v-6.2h1v1q.2-.5.7-.8.5-.3 1.1-.3.7 0 1.2.3.4.3.6.8.7-1 1.9-1 1 0 1.4.4.5.5.5 1.6v4.3h-1v-4l-.1-.9-.4-.4-.6-.2q-.7 0-1.1.4-.5.5-.5 1.5v3.6h-1v-4q0-.8-.3-1.1-.2-.4-.8-.4-.5 0-.8.2-.4.3-.6.7-.2.5-.2 1.3v3.3h-1Zm7.7 23.1q0-1.5.3-2.4.3-1 1-1.5.6-.5 1.5-.5.7 0 1.2.3t.9.8q.3.5.5 1.3.2.7.2 2 0 1.5-.3 2.4-.3 1-1 1.5-.6.5-1.5.5-1.2 0-2-.9-.8-1-.8-3.5Zm1 0q0 2.1.6 2.8.5.7 1.2.7t1.2-.7q.5-.7.5-2.8 0-2.1-.5-2.8-.5-.7-1.2-.7t-1.2.6q-.5.8-.5 3Zm6.2-2.3q0-1 .5-1.5.4-.7 1.3-.7.8 0 1.3.6.6.6.6 1.7 0 1-.6 1.7-.5.5-1.3.5t-1.3-.5q-.5-.6-.5-1.8Zm1.8-1.5q-.4 0-.6.4-.3.3-.3 1.2 0 .9.3 1.2.2.3.6.3.4 0 .7-.3.3-.4.3-1.3 0-.8-.3-1.1-.3-.4-.7-.4Zm0 8.4 4.7-9h.9l-4.7 9h-.9Zm3.8-2.4q0-.9.4-1.5.5-.7 1.4-.7.8 0 1.3.6t.5 1.7q0 1-.5 1.7-.5.6-1.3.6t-1.3-.6q-.5-.6-.5-1.8Zm1.8-1.5q-.4 0-.7.4-.2.3-.2 1.2 0 .9.2 1.2.3.3.7.3.4 0 .6-.3t.3-1.3q0-.8-.3-1.1-.2-.4-.6-.4ZM290 369h-1v-6.7l-1 .8-1.1.5v-1q.9-.4 1.5-1 .7-.6 1-1.2h.6v8.6Zm3-4.2q0-1.5.4-2.4.3-1 .9-1.5.6-.5 1.6-.5.7 0 1.2.3t.8.8q.4.5.6 1.3.2.7.2 2 0 1.5-.4 2.4-.2 1-.9 1.5-.6.5-1.5.5-1.3 0-2-.9-.8-1-.8-3.5Zm1.1 0q0 2.1.5 2.8.5.7 1.3.7.7 0 1.2-.7t.5-2.8q0-2.1-.5-2.8-.5-.7-1.3-.7-.7 0-1.1.6-.6.8-.6 3Zm6.2-2.3q0-1 .4-1.5.5-.7 1.4-.7.8 0 1.3.6t.5 1.7q0 1-.5 1.7-.5.5-1.3.5t-1.3-.5q-.5-.6-.5-1.8Zm1.8-1.5q-.4 0-.7.4-.2.3-.2 1.2 0 .9.2 1.2.3.3.7.3.4 0 .7-.3.2-.4.2-1.3 0-.8-.2-1.1-.3-.4-.7-.4Zm0 8.4 4.7-9h.9l-4.7 9h-.9Zm3.7-2.4q0-.9.5-1.5.4-.7 1.3-.7.8 0 1.4.6.5.6.5 1.7 0 1-.5 1.7-.6.6-1.4.6-.7 0-1.3-.6-.5-.6-.5-1.8Zm1.9-1.5q-.4 0-.7.4-.3.3-.3 1.2 0 .9.3 1.2.3.3.7.3.4 0 .6-.3.3-.3.3-1.3 0-.8-.3-1.1-.2-.4-.6-.4Zm122.6 2.5v1h-5.7l.1-.7q.2-.6.7-1.1l1.4-1.3q1.4-1.2 1.9-1.9.5-.6.5-1.2t-.5-1q-.4-.5-1.1-.5-.8 0-1.3.4-.4.5-.4 1.3l-1.1-.1q.1-1.2.8-1.8.8-.7 2-.7t2 .7q.7.7.7 1.7 0 .5-.3 1-.2.5-.7 1-.4.6-1.6 1.6l-1.2 1-.4.6h4.2Zm1.4-3.2q0-1.5.3-2.4.4-1 1-1.5t1.5-.5q.7 0 1.2.3.6.3 1 .8.3.5.4 1.3.2.7.2 2 0 1.5-.3 2.4-.3 1-1 1.5-.5.5-1.5.5-1.2 0-2-.9-.8-1-.8-3.5Zm1.1 0q0 2.1.5 2.8.5.7 1.2.7.8 0 1.2-.7.5-.7.5-2.8 0-2.1-.5-2.8-.4-.7-1.2-.7-.7 0-1.1.6-.6.8-.6 3Zm6.1-2.3q0-1 .5-1.5.5-.7 1.3-.7t1.4.6q.5.6.5 1.7 0 1-.5 1.7-.6.5-1.4.5-.7 0-1.2-.5-.6-.6-.6-1.8Zm1.9-1.5q-.4 0-.7.4-.2.3-.2 1.2 0 .9.2 1.2.3.3.7.3.4 0 .6-.3.3-.4.3-1.3 0-.8-.3-1.1-.2-.4-.6-.4Zm0 8.4 4.7-9h.8l-4.7 9h-.8Zm3.7-2.4q0-.9.4-1.5.5-.7 1.4-.7.8 0 1.3.6.6.6.6 1.7 0 1-.6 1.7-.5.6-1.3.6t-1.3-.6q-.5-.6-.5-1.8Zm1.8-1.5q-.4 0-.6.4-.3.3-.3 1.2 0 .9.3 1.2.2.3.6.3.4 0 .7-.3t.2-1.3q0-.8-.2-1.1-.3-.4-.7-.4Zm117.1 1.3 1-.2q.2 1 .7 1.3.4.4 1 .4.8 0 1.3-.5t.5-1.3q0-.7-.5-1.2-.4-.4-1.2-.4h-.7l.1-.9h.2q.6 0 1.2-.3.5-.3.5-1t-.4-1q-.4-.4-1-.4t-1 .4q-.4.4-.5 1.1l-1-.2q.1-1 .8-1.6.7-.6 1.7-.6.7 0 1.3.3.6.3.9.8.3.6.3 1.2 0 .5-.3 1-.3.4-.9.7.8.2 1.2.7.4.6.4 1.4 0 1.1-.8 2-.8.7-2 .7t-2-.7q-.7-.7-.8-1.7Zm7-2q0-1.5.3-2.4.3-1 1-1.5.6-.5 1.5-.5.7 0 1.2.3t.9.8q.3.5.5 1.3.2.7.2 2 0 1.5-.3 2.4-.3 1-1 1.5-.6.5-1.5.5-1.2 0-2-.9-.8-1-.8-3.5Zm1 0q0 2.1.6 2.8.5.7 1.2.7t1.2-.7q.5-.7.5-2.8 0-2.1-.5-2.8-.5-.7-1.2-.7t-1.2.6q-.5.8-.5 3Zm6.2-2.3q0-1 .5-1.5.4-.7 1.3-.7.8 0 1.3.6.6.6.6 1.7 0 1-.6 1.7-.5.5-1.3.5t-1.3-.5q-.5-.6-.5-1.8Zm1.8-1.5q-.4 0-.6.4-.3.3-.3 1.2 0 .9.3 1.2.2.3.6.3.4 0 .7-.3.3-.4.3-1.3 0-.8-.3-1.1-.3-.4-.7-.4Zm0 8.4 4.7-9h.9l-4.7 9h-.9Zm3.7-2.4q0-.9.5-1.5.5-.7 1.4-.7.8 0 1.3.6t.5 1.7q0 1-.5 1.7-.5.6-1.3.6t-1.3-.6q-.5-.6-.5-1.8Zm1.9-1.5q-.4 0-.7.4-.2.3-.2 1.2 0 .9.2 1.2.3.3.7.3.4 0 .7-.3t.2-1.3q0-.8-.3-1.1-.2-.4-.6-.4Z"/><path fill="#a8caba" d="M230.7 85.3a1 1 0 0 1 1-1h10a1 1 0 0 1 1 1v10a1 1 0 0 1-1 1h-10a1 1 0 0 1-1-1Z"/><path fill="#838689" d="M255.5 94.3v-.8q-.6.9-1.7.9-.8 0-1.4-.4-.6-.4-1-1.2-.3-.7-.3-1.7 0-.9.3-1.6.3-.8 1-1.2.6-.4 1.3-.4.6 0 1 .2l.7.6v-3h1v8.5h-.9Zm-3.3-3.2q0 1.2.5 1.8.5.6 1.2.6t1.1-.5q.5-.6.5-1.8 0-1.2-.5-1.8-.5-.6-1.2-.6t-1.2.5q-.4.6-.4 1.8Zm10.5 1.2h1.1q-.2 1-1 1.6-.6.5-1.7.5-1.4 0-2.2-.9-.8-.8-.8-2.3 0-1.6.8-2.4.8-1 2.1-1t2 1q.8.8.8 2.3v.3h-4.6q0 1 .6 1.6.5.5 1.3.5.6 0 1-.3t.6-1Zm-3.4-1.8h3.4q0-.8-.3-1.1-.6-.7-1.4-.7-.7 0-1.2.5t-.5 1.3Zm5.8 1.9 1-.2q0 .7.5 1 .4.3 1.1.3.7 0 1-.3.4-.3.4-.7 0-.3-.3-.5-.2-.2-1-.4l-1.7-.5q-.4-.2-.6-.6-.3-.4-.3-.8l.2-.8q.2-.4.5-.6l.7-.3 1-.1 1.2.2q.5.2.8.6.3.3.4 1h-1q-.1-.4-.5-.7-.3-.2-1-.2-.6 0-1 .2-.3.2-.3.6 0 .2.2.3.1.2.4.3l1 .3 1.5.5.7.5q.2.4.2 1 0 .5-.3 1-.3.4-.9.6-.6.3-1.3.3-1.2 0-1.9-.5-.6-.5-.7-1.5Zm7.4 1.8v-8.5h1v4.9L276 88h1.4l-2.4 2.3 2.6 4h-1.3l-2-3.2-.8.7v2.4h-1Zm8.3-.9.1 1h-.8l-.9-.1q-.3-.2-.4-.5l-.1-1.3v-3.6h-.8V88h.8v-1.5l1-.6V88h1v.8h-1v4.3l.2.2h.9Zm.3-2.2q0-1.7 1-2.5.7-.7 1.9-.7 1.3 0 2 .8 1 .9 1 2.3 0 1.2-.4 2-.4.6-1.1 1-.7.4-1.5.4-1.3 0-2.1-.8-.8-.9-.8-2.5Zm1 0q0 1.2.6 1.8.5.6 1.3.6t1.3-.6q.5-.6.5-1.8 0-1.1-.5-1.7-.5-.6-1.3-.6t-1.3.6q-.5.5-.5 1.7Zm6.4 5.5V88h1v.8l.7-.7q.4-.2 1-.2.8 0 1.4.4.7.4 1 1.2.3.7.3 1.6 0 1-.4 1.7-.3.8-1 1.2-.6.4-1.3.4-.6 0-1-.2l-.7-.6v3h-1Zm1-5.4q0 1.2.4 1.8.5.5 1.2.5t1.2-.6.5-1.8q0-1.2-.5-1.8-.5-.6-1.2-.6-.6 0-1.2.6-.5.7-.5 1.9Z"/><path fill="#62718b" d="M310.7 85.3a1 1 0 0 1 1-1h10a1 1 0 0 1 1 1v10a1 1 0 0 1-1 1h-10a1 1 0 0 1-1-1Z"/><path fill="#838689" d="M331.5 94.3V88h1v1q.2-.6.7-.8.5-.3 1.1-.3.7 0 1.1.3.5.3.7.8.7-1.1 1.9-1.1 1 0 1.4.5.5.5.5 1.6v4.3h-1v-4q0-.6-.2-.9 0-.3-.3-.4-.3-.2-.7-.2-.6 0-1 .4-.5.5-.5 1.4v3.7h-1v-4.1q0-.7-.3-1-.3-.4-.8-.4t-.9.2l-.5.7q-.2.5-.2 1.3v3.3h-1ZM342 91q0-1.7 1-2.5.7-.7 1.9-.7 1.3 0 2 .8 1 .9 1 2.3 0 1.3-.4 2-.4.6-1.1 1-.7.4-1.5.4-1.3 0-2.1-.8-.8-.9-.8-2.5Zm1 0q0 1.2.6 1.8.5.6 1.3.6t1.3-.6q.5-.6.5-1.8 0-1.1-.5-1.7-.5-.6-1.3-.6t-1.3.6q-.5.5-.5 1.7Zm7.3 3.2h-1v-8.6h1.1v3q.7-.8 1.7-.8.6 0 1.1.2.5.2.8.7.4.4.6 1l.2 1.2q0 1.6-.8 2.5-.8.9-2 .9-1 0-1.7-1v.9Zm0-3.2q0 1.1.3 1.6.5.8 1.4.8.7 0 1.2-.6t.5-1.8q0-1.2-.5-1.8-.5-.5-1.2-.5t-1.2.6q-.5.6-.5 1.7Zm6-4.2v-1.2h1.1v1.2h-1Zm0 7.3V88h1.1v6.3h-1Zm3 0v-8.5h1.1v8.6h-1Zm7.3-2 1.1.2q-.2 1-1 1.5-.6.5-1.7.5-1.4 0-2.2-.9-.8-.8-.8-2.3 0-1.6.8-2.4.8-1 2.1-1t2 1q.8.8.8 2.3v.3h-4.6q0 1 .6 1.6.5.5 1.3.5.6 0 1-.3t.6-1Zm-3.4-1.7h3.4q0-.8-.3-1.1-.6-.7-1.4-.7-.7 0-1.2.5t-.5 1.3ZM214 66l-2.7-10h1.4l1.5 6.5.5 2 .4-1.8 2-6.8h1.5l1.5 5.1q.5 1.9.7 3.5l.5-2.1 1.6-6.5h1.3l-2.7 10h-1.3l-2.1-7.6-.3-1.2-.3 1.2-2.1 7.7H214Zm16-2.4 1.3.2q-.3 1-1 1.7-.9.6-2.2.6-1.5 0-2.5-1t-1-2.7q0-1.9 1-2.9t2.5-1q1.4 0 2.4 1 .9 1 .9 2.8v.3H226q0 1.2.6 1.9.6.6 1.6.6.6 0 1.1-.4.5-.3.8-1Zm-4-2h4q0-.9-.4-1.4-.6-.7-1.5-.7t-1.4.6q-.6.6-.7 1.5Zm8.2 4.3h-1.1V56h1.2v3.6q.8-1 2-1 .7 0 1.3.3.6.3 1 .8.4.4.6 1.1.2.7.2 1.5 0 1.9-1 3-.9 1-2.1 1-1.3 0-2-1.2v1Zm0-3.6q0 1.3.4 1.9.6 1 1.5 1t1.4-.8q.6-.7.6-2 0-1.5-.5-2.2-.6-.7-1.4-.7-.8 0-1.4.7-.6.7-.6 2Zm10 3.7 3.8-10h1.4l4.1 10H252l-1.2-3h-4.1l-1.1 3h-1.4Zm2.9-4.2h3.3l-1-2.7-.7-2.1q-.2 1-.6 1.9l-1 3Zm7 4.2V56h1.2v10h-1.2Zm3 0v-7.3h1.1v1q.3-.5.9-.8.6-.4 1.3-.4.8 0 1.3.4.5.3.8.9.8-1.3 2.2-1.3 1 0 1.6.6.6.6.6 1.9v5h-1.2v-4.6l-.1-1q-.1-.4-.4-.6l-.8-.2q-.7 0-1.3.5-.5.5-.5 1.6V66h-1.2v-4.7q0-.8-.3-1.2-.3-.4-1-.4-.5 0-1 .3-.4.2-.6.8-.2.5-.2 1.5V66h-1.2Zm15.7-1q-.6.6-1.3.9-.6.2-1.3.2-1.2 0-1.9-.6-.6-.6-.6-1.5l.2-1q.3-.4.7-.6l.8-.5 1.1-.1q1.5-.2 2.2-.5V61q0-.7-.3-1-.5-.5-1.4-.5-.9 0-1.3.4-.4.3-.6 1l-1.2-.1q.2-.8.5-1.3.4-.5 1.1-.7.7-.3 1.7-.3.9 0 1.5.2t.8.6q.3.3.4.8V63q0 1.7.2 2.2 0 .4.3.9H273l-.3-1Zm0-2.7q-.7.3-2 .5-.8 0-1.2.2l-.4.4-.2.6q0 .5.4.8.3.4 1 .4.8 0 1.3-.4.6-.3.8-.8.2-.4.2-1.2v-.5ZM276 66v-7.3h1.1v1q.8-1.2 2.3-1.2.7 0 1.2.3.6.2.8.6.3.4.4.9l.1 1.2V66h-1.2v-4.5q0-.7-.2-1-.1-.5-.5-.7-.3-.2-.8-.2-.8 0-1.4.5-.6.5-.6 1.9v4H276Zm12.7-1q-.6.6-1.3.9-.6.2-1.3.2-1.2 0-1.9-.6-.6-.6-.6-1.5l.2-1q.3-.4.7-.6l.8-.5 1.1-.1q1.5-.2 2.2-.5V61q0-.7-.3-1-.5-.5-1.4-.5-.9 0-1.3.4-.4.3-.6 1l-1.2-.1q.2-.8.5-1.3.4-.5 1.1-.7.7-.3 1.7-.3.9 0 1.5.2t.8.6q.3.3.4.8V63q0 1.7.2 2.2 0 .4.3.9H289l-.3-1Zm0-2.7q-.7.3-2 .5-.8 0-1.2.2l-.4.4-.2.6q0 .5.4.8.3.4 1 .4.8 0 1.3-.4.6-.3.8-.8.2-.4.2-1.2v-.5Zm8 1 1.3.2q-.3 1.2-1 2-.9.6-2 .6-1.6 0-2.5-1-.9-1-.9-2.8 0-1.1.4-2 .4-.9 1.2-1.3.8-.5 1.7-.5 1.2 0 2 .6.7.6 1 1.7l-1.3.2q-.1-.7-.6-1-.4-.5-1-.5-1 0-1.5.7-.6.7-.6 2.1 0 1.5.6 2.2.5.6 1.4.6.7 0 1.2-.4.5-.5.6-1.4Zm12.4 1.5V66h-6.6l.1-1q.3-.6.9-1.2.5-.7 1.6-1.6 1.6-1.3 2.2-2 .5-.9.5-1.6 0-.7-.5-1.2t-1.3-.5q-1 0-1.5.5-.5.6-.5 1.5l-1.3-.1q.2-1.4 1-2.2.9-.7 2.3-.7t2.3.8q.8.8.8 2l-.2 1.2-.9 1.2-1.8 1.7-1.5 1.3-.5.7h5Zm1.6-3.8q0-1.8.3-2.8.4-1.1 1.1-1.7.7-.6 1.8-.6.8 0 1.4.3.7.3 1 1l.7 1.4q.2 1 .2 2.4 0 1.8-.4 2.9-.3 1-1 1.6-.8.6-1.9.6-1.4 0-2.2-1-1-1.3-1-4Zm1.2 0q0 2.5.6 3.3.6.8 1.4.8.9 0 1.5-.8.5-.8.5-3.3t-.5-3.3q-.6-.8-1.5-.8-.8 0-1.3.7-.7 1-.7 3.4Zm13.2 3.8V66h-6.6l.1-1q.3-.6.9-1.2.5-.7 1.6-1.6 1.6-1.3 2.2-2 .5-.9.5-1.6 0-.7-.5-1.2t-1.3-.5q-1 0-1.5.5-.5.6-.5 1.5l-1.3-.1q.2-1.4 1-2.2.9-.7 2.3-.7t2.3.8q.8.8.8 2l-.2 1.2-.9 1.2-1.8 1.7-1.5 1.3-.5.7h5Zm8 0V66h-6.6l.1-1q.3-.6.9-1.2.5-.7 1.6-1.6 1.6-1.3 2.2-2 .5-.9.5-1.6 0-.7-.5-1.2t-1.3-.5q-1 0-1.5.5-.5.6-.5 1.5l-1.3-.1q.2-1.4 1-2.2.9-.7 2.3-.7t2.3.8q.8.8.8 2l-.2 1.2-.9 1.2-1.8 1.7-1.5 1.3-.5.7h5Zm2.2-4.7v-1.4h1.4V60h-1.4Zm0 5.9v-1.5h1.4V66h-1.4Zm7.9 0V56h5.4l1.2.5q.5.3.8 1 .3.6.3 1.3 0 1.3-.8 2.2-.8.9-3 .9h-2.5v4h-1.3Zm1.3-5.3h2.6q1.3 0 1.8-.5t.5-1.3q0-.7-.3-1.1-.3-.5-.8-.6h-3.8v3.5ZM352 66v-7.3h1v1l.9-1q.3-.2.8-.2.6 0 1.2.4l-.4 1.2q-.4-.3-.9-.3-.4 0-.7.2l-.5.7q-.2.7-.2 1.5v3.7H352Zm5-8.7V56h1.2v1.4H357Zm0 8.7v-7.3h1.2V66H357Zm5 0-2.8-7.3h1.4l1.5 4.3.5 1.5.4-1.4 1.7-4.4h1.2l-2.7 7.2H362Zm9.7-1q-.6.6-1.3.9-.6.2-1.3.2-1.2 0-1.9-.6-.6-.6-.6-1.5l.2-1q.3-.4.7-.6l.8-.5 1.1-.1q1.5-.2 2.2-.5V61q0-.7-.3-1-.5-.5-1.4-.5-.9 0-1.3.4-.4.3-.6 1l-1.2-.1q.2-.8.5-1.3.4-.5 1.1-.7.7-.3 1.7-.3.9 0 1.5.2t.8.6q.3.3.4.8V63q0 1.7.2 2.2 0 .4.3.9H372l-.3-1Zm0-2.7q-.7.3-2 .5-.8 0-1.2.2l-.4.4-.2.6q0 .5.4.8.3.4 1 .4.8 0 1.3-.4.6-.3.8-.8.2-.4.2-1.2v-.5Zm8 1 1.3.2q-.3 1.2-1 2-.9.6-2 .6-1.6 0-2.5-1-.9-1-.9-2.8 0-1.1.4-2 .4-.9 1.2-1.3.8-.5 1.7-.5 1.2 0 2 .6.7.6 1 1.7l-1.3.2q-.1-.7-.6-1-.4-.5-1-.5-1 0-1.5.7-.6.7-.6 2.1 0 1.5.6 2.2.5.6 1.4.6.7 0 1.2-.4.5-.5.6-1.4Zm2.3 5.4-.2-1.1.7.1.7-.1.4-.4.4-1V66l-2.7-7.3h1.3l1.5 4.2.6 1.7.5-1.7 1.5-4.2h1.3l-2.8 7.4-.7 1.6q-.3.6-.8 1-.4.2-1 .2l-.7-.2Z"/><path fill="#1a2b49" d="M78.1 26.1h13.5v3.6H87v10.8h-4.5V29.7H78V26Zm14.3 9.2q0-2.4 1.6-4 1.6-1.5 4.3-1.5 3.1 0 4.7 1.9 1.3 1.4 1.3 3.5 0 2.4-1.6 4-1.6 1.5-4.4 1.5-2.5 0-4-1.3-1.9-1.6-1.9-4.1Zm4 0q0 1.4.5 2 .6.7 1.4.7 1 0 1.5-.7.5-.6.5-2t-.5-2q-.6-.7-1.4-.7-.9 0-1.5.6-.5.7-.5 2Zm9.5 9.1V30.1h3.7v1.5q.8-1 1.4-1.3 1-.5 2-.5 2 0 3.2 1.6 1.1 1.6 1.1 4 0 2.6-1.2 4-1.3 1.3-3.2 1.3-.9 0-1.6-.3-.8-.3-1.4-1v5h-4Zm4-9.1q0 1.2.5 1.8.5.6 1.3.6.7 0 1.2-.5.4-.6.4-2 0-1.3-.5-1.8-.4-.6-1.1-.6-.8 0-1.3.6-.5.5-.5 1.9Zm24.6-9.4v14.6h-4v-9.6q-1 .8-1.9 1.2-1 .5-2.3.9v-3.3q2-.6 3.2-1.5 1-1 1.7-2.3h3.3Zm4 7.3q0-4 1.5-5.7 1.4-1.6 4.4-1.6 1.5 0 2.4.3 1 .4 1.5 1 .6.5 1 1.2l.5 1.4q.4 1.6.4 3.4 0 3.9-1.3 5.7-1.3 1.8-4.6 1.8-1.8 0-2.9-.6-1.1-.6-1.8-1.7-.5-.8-.8-2.1-.3-1.4-.3-3Zm4 0q0 2.8.4 3.8.5 1 1.4 1 .6 0 1-.4.5-.5.7-1.4.2-1 .2-2.8 0-2.9-.4-3.9-.5-1-1.5-1t-1.4 1q-.5 1-.5 3.7Zm15.9 2q0-2.3 1.6-3.8 1.6-1.6 4.3-1.6 3.1 0 4.7 1.9 1.3 1.4 1.3 3.5 0 2.4-1.6 4-1.6 1.5-4.4 1.5-2.5 0-4-1.3-1.9-1.6-1.9-4.1Zm4 0q0 1.5.5 2.1.6.7 1.4.7 1 0 1.5-.7.5-.6.5-2t-.5-2q-.6-.7-1.4-.7-.9 0-1.5.6-.5.7-.5 2Zm9.5-5.1h3.7v1.7q.6-1.1 1.1-1.5.6-.5 1.5-.5.8 0 1.9.6l-1.3 2.8-1-.3q-.8 0-1.3.7-.6.9-.6 3.4v3.4h-4V30.1Zm9.1-4h4v2.7h-4v-2.7Zm0 4h4v10.4h-4V30Zm14.1 0h3.7v10.2q0 1-.4 1.9-.4.9-1.1 1.4-.7.6-1.7.8-1.1.3-2.5.3-3 0-4.3-1-1.1-1-1.1-2.5v-.5l3.9.4q0 .6.4.8.4.3 1.1.3.9 0 1.3-.5t.4-1.6v-1.6q-.6.7-1.2 1-.9.5-2 .5-2 0-3.3-1.8-.9-1.3-.9-3.4 0-2.4 1.2-3.7 1.1-1.3 3-1.3 1.2 0 2 .5.8.4 1.5 1.3v-1.5Zm-3.8 5q0 1.1.5 1.7.5.5 1.3.5.7 0 1.2-.6.5-.5.5-1.6 0-1.2-.5-1.8-.5-.6-1.3-.6-.7 0-1.2.6-.5.5-.5 1.8Zm9.7-9h4v2.7h-4v-2.7Zm0 4h4v10.4h-4V30Zm6.9 0h3.7v1.7q.8-1 1.7-1.5.8-.5 2-.5 1.7 0 2.6 1 1 1 1 3v6.6h-4v-5.7q0-1-.4-1.3-.4-.4-1-.4-.7 0-1.2.5-.5.6-.5 2v5h-4V30Zm12.3 7.5 4-.4q.2.7.6 1 .4.3 1.2.3.8 0 1.2-.3.4-.3.4-.7 0-.4-.5-.6-.3-.2-1.7-.4l-2.9-.7q-.8-.3-1.3-1-.6-.8-.6-1.7 0-1 .6-1.8.6-.7 1.6-1 1.1-.5 2.9-.5 1.8 0 2.7.3.9.3 1.5 1 .6.5 1 1.5l-3.8.4q-.2-.5-.5-.7-.5-.3-1.1-.3-.7 0-1 .2-.3.2-.3.6 0 .3.4.5t1.7.4q2 .2 3 .6.9.4 1.4 1.2.5.7.5 1.6 0 .9-.5 1.7-.6.9-1.8 1.4-1.1.5-3.1.5-2.9 0-4-.8-1.3-.8-1.6-2.3Zm19.2-2.3q0-2.4 1.6-4 1.6-1.5 4.3-1.5 3.1 0 4.7 1.9 1.3 1.4 1.3 3.5 0 2.4-1.6 4-1.6 1.5-4.4 1.5-2.5 0-4-1.3-1.9-1.6-1.9-4.1Zm4 0q0 1.4.5 2 .6.7 1.4.7 1 0 1.5-.7.5-.6.5-2t-.5-2q-.6-.7-1.4-.7-.9 0-1.5.6-.5.7-.5 2Zm13.9-5.2h1.9V33h-1.9v7.4h-4V33h-1.5v-3h1.5v-.4l.2-1.4q.1-.8.5-1.2.3-.5 1-.8.7-.3 2-.3l3 .2-.4 2.4h-1.1l-.8.1q-.3.2-.4.6v.9Zm18.3 6.3 3.8.4q-.3 1.2-1 2-.7 1-1.8 1.4-1.2.5-2.9.5-1.6 0-2.7-.3t-2-1q-.7-.7-1.2-1.6-.4-1-.4-2.5 0-1.6.5-2.6.4-.8 1.1-1.5.7-.6 1.5-.9 1.1-.5 3-.5 2.5 0 3.8 1 1.3.9 1.9 2.6l-3.8.5q-.1-.7-.6-1-.5-.3-1.2-.3-1 0-1.6.7-.7.7-.7 2.1 0 1.3.7 2 .6.6 1.5.6.8 0 1.3-.4t.8-1.2Zm4.8-1.1q0-2.4 1.6-4 1.6-1.5 4.3-1.5 3.1 0 4.7 1.9 1.3 1.4 1.3 3.5 0 2.4-1.6 4-1.6 1.5-4.4 1.5-2.5 0-4-1.3-1.9-1.6-1.9-4.1Zm4 0q0 1.4.5 2 .6.7 1.4.7 1 0 1.5-.7.5-.6.5-2t-.5-2q-.6-.7-1.4-.7-.9 0-1.5.6-.5.7-.5 2Zm9 0q0-2.4 1.6-4 1.6-1.5 4.3-1.5 3.1 0 4.7 1.9 1.3 1.4 1.3 3.5 0 2.4-1.6 4-1.6 1.5-4.4 1.5-2.5 0-4-1.3-1.9-1.6-1.9-4.1Zm4 0q0 1.4.5 2 .6.7 1.4.7 1 0 1.5-.7.5-.6.5-2t-.5-2q-.6-.7-1.4-.7-.9 0-1.5.6-.5.7-.5 2Zm9.5-9.2h4v7.4l3-3.4h4.9l-3.7 3.6 4 6.7h-4.6l-2-4.1-1.6 1.4v2.7h-4V26.1Zm13.1 0h4v2.7h-4v-2.7Zm0 4h4v10.4h-4V30Zm18.4 6.1h-8q.1 1 .5 1.5.6.7 1.5.7.6 0 1.2-.3l.7-.7 3.9.4q-1 1.5-2.2 2.2-1.3.7-3.6.7-2.1 0-3.3-.6-1.2-.6-2-1.8-.7-1.3-.7-3 0-2.4 1.5-4 1.6-1.5 4.3-1.5 2.3 0 3.6.7 1.3.7 2 2 .6 1.2.6 3.3v.4Zm-4-1.9q-.2-1.1-.7-1.6-.5-.5-1.3-.5-1 0-1.5.7-.4.5-.5 1.4h4Zm4.8 3.3 4-.4q.2.7.6 1 .4.3 1.2.3.8 0 1.2-.3.4-.3.4-.7 0-.4-.5-.6-.3-.2-1.7-.4l-2.9-.7q-.8-.3-1.3-1-.6-.8-.6-1.7 0-1 .6-1.8.6-.7 1.6-1 1.1-.5 2.9-.5 1.8 0 2.7.3.9.3 1.5 1 .6.5 1 1.5l-3.8.4q-.2-.5-.5-.7-.5-.3-1.1-.3-.7 0-1 .2-.3.2-.3.6 0 .3.4.5t1.7.4q2 .2 3 .6.9.4 1.4 1.2.5.7.5 1.6 0 .9-.5 1.7-.6.9-1.8 1.4-1.1.5-3.1.5-2.9 0-4-.8-1.3-.8-1.6-2.3Zm19 0 4-.4q.2.7.6 1 .4.3 1.2.3.8 0 1.2-.3.4-.3.4-.7 0-.4-.5-.6-.3-.2-1.7-.4l-2.9-.7q-.8-.3-1.3-1-.6-.8-.6-1.7 0-1 .6-1.8.6-.7 1.6-1 1.1-.5 2.9-.5 1.8 0 2.7.3.9.3 1.5 1 .6.5 1 1.5l-3.8.4q-.2-.5-.5-.7-.5-.3-1.1-.3-.7 0-1 .2-.3.2-.3.6 0 .3.4.5t1.7.4q2 .2 3 .6.9.4 1.4 1.2.5.7.5 1.6 0 .9-.5 1.7-.6.9-1.8 1.4-1.1.5-3.1.5-2.9 0-4-.8-1.3-.8-1.6-2.3Zm24.2-1.4h-8q.1 1 .5 1.5.6.7 1.5.7.6 0 1.2-.3l.7-.7 3.9.4q-1 1.5-2.2 2.2-1.3.7-3.6.7-2.1 0-3.3-.6-1.2-.6-2-1.8-.7-1.3-.7-3 0-2.4 1.5-4 1.6-1.5 4.3-1.5 2.3 0 3.6.7 1.3.7 2 2 .6 1.2.6 3.3v.4Zm-4-1.9q-.2-1.1-.7-1.6-.5-.5-1.3-.5-1 0-1.5.7-.4.5-.5 1.4h4Zm10.3-8.2v4h2.2V33h-2.2v3.7l.1.8q.2.4.7.4l1.2-.3.3 2.8q-1.5.3-2.7.3-1.5 0-2.2-.4-.7-.4-1-1.1-.4-.8-.4-2.6V33h-1.5v-3h1.5v-1.8l4-2Zm11.2 0h4v5q.6-.6 1.4-1 .7-.3 1.6-.3 2 0 3.2 1.4 1.2 1.4 1.2 4 0 1.6-.6 3-.5 1.2-1.5 1.8-1 .7-2.2.7-1 0-2-.5-.6-.3-1.4-1.3v1.5H400V26.1Zm4 9.1q0 1.4.5 2 .5.6 1.3.6.7 0 1.1-.6.5-.6.5-2 0-1.2-.4-1.8-.5-.6-1.2-.6-.8 0-1.3.6t-.5 1.8Zm7.8-5.1h4.2l2.2 6.9 2-7h3.9l-4.2 11.2q-.7 1.9-1.4 2.5-1 1-3.1 1-1 0-2.7-.3l-.3-2.7q.8.2 2 .2.6 0 1-.3.5-.3.8-1.2l-4.4-10.3Zm25-4v4h2.2V33h-2.2v3.7l.1.8q.2.4.7.4l1.2-.3.3 2.8q-1.5.3-2.7.3-1.5 0-2.2-.4-.7-.4-1-1.1-.4-.8-.4-2.6V33h-1.5v-3h1.5v-1.8l4-2Zm4.2 4h3.7v1.7q.6-1.1 1.1-1.5.6-.5 1.5-.5.8 0 1.9.6l-1.3 2.8-1-.3q-.8 0-1.3.7-.6.9-.6 3.4v3.4h-4V30.1Zm12.6 3.3-3.8-.4q.2-1 .6-1.5.4-.6 1.2-1 .5-.3 1.5-.5l2-.2q1.8 0 3 .2 1 .2 1.7.9.6.4.8 1.2.3.8.3 1.6v4.5l.1 1.2.4 1h-3.7l-.3-.6-.1-.6q-.8.7-1.6 1-1 .5-2.4.5-1.9 0-2.8-.9-1-.8-1-2.1 0-1.2.7-2 .7-.7 2.5-1l3-.7 1.3-.5q0-.7-.3-1-.3-.3-1-.3-1 0-1.5.3-.4.3-.6 1Zm3.4 2.1-1.7.5q-1.2.4-1.5.7-.3.3-.3.7 0 .5.3.8.3.3 1 .3.6 0 1.2-.3.6-.4.8-.8.2-.5.2-1.2v-.7Zm13.7.9 3.8.4q-.3 1.2-1 2-.7 1-1.8 1.4-1.2.5-2.9.5-1.6 0-2.7-.3t-2-1q-.7-.7-1.2-1.6-.4-1-.4-2.5 0-1.6.5-2.6.4-.8 1.1-1.5.7-.6 1.5-.9 1.1-.5 3-.5 2.5 0 3.8 1 1.3.9 1.9 2.6l-3.8.5q-.1-.7-.6-1-.5-.3-1.2-.3-1 0-1.6.7-.7.7-.7 2.1 0 1.3.7 2 .6.6 1.5.6.8 0 1.3-.4t.8-1.2Zm5.3-10.3h4v7.4l3-3.4h4.9l-3.7 3.6 4 6.7h-4.6l-2-4.1-1.6 1.4v2.7h-4V26.1Zm24.5 10.1h-8q.1 1 .5 1.5.6.7 1.5.7.6 0 1.2-.3l.7-.7 3.9.4q-1 1.5-2.2 2.2-1.3.7-3.6.7-2.1 0-3.3-.6-1.2-.6-2-1.8-.7-1.3-.7-3 0-2.4 1.5-4 1.6-1.5 4.3-1.5 2.3 0 3.6.7 1.3.7 2 2 .6 1.2.6 3.3v.4Zm-4-1.9q-.2-1.1-.7-1.6-.5-.5-1.3-.5-1 0-1.5.7-.4.5-.5 1.4h4Zm5.5-4.2h3.7v1.7q.6-1.1 1.1-1.5.6-.5 1.5-.5.8 0 1.9.6l-1.3 2.8-1-.3q-.8 0-1.3.7-.6.9-.6 3.4v3.4h-4V30.1Zm8.3 7.5 4-.4q.2.7.6 1 .4.3 1.2.3.8 0 1.2-.3.4-.3.4-.7 0-.4-.5-.6-.3-.2-1.7-.4l-2.9-.7q-.8-.3-1.3-1-.6-.8-.6-1.7 0-1 .6-1.8.6-.7 1.6-1 1.1-.5 2.9-.5 1.8 0 2.7.3.9.3 1.5 1 .6.5 1 1.5l-3.8.4q-.2-.5-.5-.7-.5-.3-1.1-.3-.7 0-1 .2-.3.2-.3.6 0 .3.4.5t1.7.4q2 .2 3 .6.9.4 1.4 1.2.5.7.5 1.6 0 .9-.5 1.7-.6.9-1.8 1.4-1.1.5-3.1.5-2.9 0-4-.8-1.3-.8-1.6-2.3Z"/></svg>