<svg xmlns="http://www.w3.org/2000/svg" width="600" height="371" fill="none" stroke-linecap="square" stroke-miterlimit="10"><path fill="#fff" d="M0 0h600v371H0V0Z"/><path stroke="#333" stroke-linecap="butt" d="M123.5 96.5v208"/><path stroke="#f2f2f2" stroke-linecap="butt" d="M236.5 96.5v208m113-208v208m113-208v208m113-208v208"/><path stroke="#f9f9f9" stroke-linecap="butt" d="M146.5 96.5v208m22-208v208m23-208v208m22-208v208m46-208v208m22-208v208m23-208v208m22-208v208m46-208v208m22-208v208m23-208v208m22-208v208m46-208v208m22-208v208m23-208v208m22-208v208"/><clipPath id="a"><path d="M123.5 96.8h452v207.6h-452V96.8Z"/></clipPath><path d="M123 122v-11h410a2 2 0 0 1 2 2v7a2 2 0 0 1-2 2Z" clip-path="url(#a)"/><path fill="#a8caba" d="M123 122v-11h410a2 2 0 0 1 2 2v7a2 2 0 0 1-2 2Z" clip-path="url(#a)"/><path d="M123 161v-11h24a2 2 0 0 1 2 2v7a2 2 0 0 1-2 2Z" clip-path="url(#a)"/><path fill="#a8caba" d="M123 161v-11h24a2 2 0 0 1 2 2v7a2 2 0 0 1-2 2Z" clip-path="url(#a)"/><path d="M123 200v-11h23a2 2 0 0 1 2 2v7a2 2 0 0 1-2 2Z" clip-path="url(#a)"/><path fill="#a8caba" d="M123 200v-11h23a2 2 0 0 1 2 2v7a2 2 0 0 1-2 2Z" clip-path="url(#a)"/><path d="M123 238v-11h17a2 2 0 0 1 2 2v7a2 2 0 0 1-2 2Z" clip-path="url(#a)"/><path fill="#a8caba" d="M123 238v-11h17a2 2 0 0 1 2 2v7a2 2 0 0 1-2 2Z" clip-path="url(#a)"/><path d="M123 277v-11h1.5a1.5 1.5 0 0 1 1.5 1.5v8a1.5 1.5 0 0 1-1.5 1.5Z" clip-path="url(#a)"/><path fill="#a8caba" d="M123 277v-11h1.5a1.5 1.5 0 0 1 1.5 1.5v8a1.5 1.5 0 0 1-1.5 1.5Z" clip-path="url(#a)"/><path d="M123 135v-11h346a2 2 0 0 1 2 2v7a2 2 0 0 1-2 2Z" clip-path="url(#a)"/><path fill="#62718b" d="M123 135v-11h346a2 2 0 0 1 2 2v7a2 2 0 0 1-2 2Z" clip-path="url(#a)"/><path d="M123 174v-11h19a2 2 0 0 1 2 2v7a2 2 0 0 1-2 2Z" clip-path="url(#a)"/><path fill="#62718b" d="M123 174v-11h19a2 2 0 0 1 2 2v7a2 2 0 0 1-2 2Z" clip-path="url(#a)"/><path d="M123 213v-11h15a2 2 0 0 1 2 2v7a2 2 0 0 1-2 2Z" clip-path="url(#a)"/><path fill="#62718b" d="M123 213v-11h15a2 2 0 0 1 2 2v7a2 2 0 0 1-2 2Z" clip-path="url(#a)"/><path d="M123 251v-11h12a2 2 0 0 1 2 2v7a2 2 0 0 1-2 2Z" clip-path="url(#a)"/><path fill="#62718b" d="M123 251v-11h12a2 2 0 0 1 2 2v7a2 2 0 0 1-2 2Z" clip-path="url(#a)"/><path d="M123 290v-11h1.5a1.5 1.5 0 0 1 1.5 1.5v8a1.5 1.5 0 0 1-1.5 1.5Z" clip-path="url(#a)"/><path fill="#62718b" d="M123 290v-11h1.5a1.5 1.5 0 0 1 1.5 1.5v8a1.5 1.5 0 0 1-1.5 1.5Z" clip-path="url(#a)"/><path stroke="#fff" stroke-linecap="round" stroke-linejoin="round" stroke-width="3" d="M491.5 123.5q1.6 0 2.6 1.2 1 1.4 1 4.6t-1 4.7q-1 1.2-2.6 1.2-1.7 0-2.7-1.3-1-1.3-1-4.6 0-3.2 1-4.6 1-1.2 2.7-1.2Zm0 1.8q-.4 0-.7.3-.3.2-.5.9-.3.8-.3 2.8 0 2 .3 2.8.2.8.5 1 .3.3.7.3.4 0 .7-.3.3-.2.5-.9.2-.8.2-2.9 0-2-.2-2.7-.2-.8-.5-1-.3-.3-.7-.3Zm5.7 9.7v-2.2h2.2v2.2h-2.2Zm11-8.7-2.1.3q-.1-.7-.4-1-.4-.3-.9-.3-.7 0-1.2.6-.4.6-.6 2.6.9-1 2-1 1.5 0 2.4 1.1 1 1 1 2.7 0 1.8-1 2.8-1 1.1-2.7 1.1-1.7 0-2.8-1.3-1.1-1.4-1.1-4.5t1.1-4.5q1.2-1.4 3-1.4 1.4 0 2.2.7.9.8 1.1 2.1Zm-5 4.8q0 1.1.5 1.7.5.6 1.1.6.7 0 1-.5.5-.5.5-1.6 0-1-.5-1.6-.4-.5-1-.5-.7 0-1.1.5-.5.5-.5 1.4Zm14 1.9v2h-7.7q.1-1.2.7-2.2.7-1 2.5-2.7 1.5-1.4 1.8-2 .5-.6.5-1.3 0-.7-.4-1-.4-.5-1.1-.5-.7 0-1.1.4-.4.4-.5 1.4l-2.2-.2q.2-1.8 1.3-2.6 1-.8 2.5-.8 1.7 0 2.7 1 1 .8 1 2.2 0 .8-.3 1.5t-.9 1.4l-1.4 1.5-1.3 1.2-.5.7h4.4Zm1.6-6.6q0-1.6.7-2.3.6-.8 1.8-.8 1.2 0 1.9.8.6.7.6 2.3 0 1.5-.6 2.3-.7.7-1.9.7t-1.8-.7q-.7-.8-.7-2.3Zm1.7 0q0 1 .3 1.5.1.2.5.2.3 0 .5-.2.3-.4.3-1.5 0-1.2-.3-1.5-.2-.3-.5-.3-.4 0-.5.3-.3.3-.3 1.5Zm2.5 9h-1.7l6.1-12h1.6l-6 12Zm3.5-3q0-1.5.7-2.2.7-.8 1.8-.8 1.2 0 1.9.8.7.7.7 2.2 0 1.6-.7 2.3-.7.8-1.9.8-1.1 0-1.8-.8-.7-.7-.7-2.3Zm1.7 0q0 1.1.3 1.5.2.3.5.3.4 0 .5-.3.3-.4.3-1.5t-.2-1.5q-.2-.3-.6-.3-.3 0-.5.3-.3.4-.3 1.5Z"/><path fill="#62718b" d="M491.5 123.5q1.6 0 2.6 1.2 1 1.4 1 4.6t-1 4.7q-1 1.2-2.6 1.2-1.7 0-2.7-1.3-1-1.3-1-4.6 0-3.2 1-4.6 1-1.2 2.7-1.2Zm0 1.8q-.4 0-.7.3-.3.2-.5.9-.3.8-.3 2.8 0 2 .3 2.8.2.8.5 1 .3.3.7.3.4 0 .7-.3.3-.2.5-.9.2-.8.2-2.9 0-2-.2-2.7-.2-.8-.5-1-.3-.3-.7-.3Zm5.7 9.7v-2.2h2.2v2.2h-2.2Zm11-8.7-2.1.3q-.1-.7-.4-1-.4-.3-.9-.3-.7 0-1.2.6-.4.6-.6 2.6.9-1 2-1 1.5 0 2.4 1.1 1 1 1 2.7 0 1.8-1 2.8-1 1.1-2.7 1.1-1.7 0-2.8-1.3-1.1-1.4-1.1-4.5t1.1-4.5q1.2-1.4 3-1.4 1.4 0 2.2.7.9.8 1.1 2.1Zm-5 4.8q0 1.1.5 1.7.5.6 1.1.6.7 0 1-.5.5-.5.5-1.6 0-1-.5-1.6-.4-.5-1-.5-.7 0-1.1.5-.5.5-.5 1.4Zm14 1.9v2h-7.7q.1-1.2.7-2.2.7-1 2.5-2.7 1.5-1.4 1.8-2 .5-.6.5-1.3 0-.7-.4-1-.4-.5-1.1-.5-.7 0-1.1.4-.4.4-.5 1.4l-2.2-.2q.2-1.8 1.3-2.6 1-.8 2.5-.8 1.7 0 2.7 1 1 .8 1 2.2 0 .8-.3 1.5t-.9 1.4l-1.4 1.5-1.3 1.2-.5.7h4.4Zm1.6-6.6q0-1.6.7-2.3.6-.8 1.8-.8 1.2 0 1.9.8.6.7.6 2.3 0 1.5-.6 2.3-.7.7-1.9.7t-1.8-.7q-.7-.8-.7-2.3Zm1.7 0q0 1 .3 1.5.1.2.5.2.3 0 .5-.2.3-.4.3-1.5 0-1.2-.3-1.5-.2-.3-.5-.3-.4 0-.5.3-.3.3-.3 1.5Zm2.5 9h-1.7l6.1-12h1.6l-6 12Zm3.5-3q0-1.5.7-2.2.7-.8 1.8-.8 1.2 0 1.9.8.7.7.7 2.2 0 1.6-.7 2.3-.7.8-1.9.8-1.1 0-1.8-.8-.7-.7-.7-2.3Zm1.7 0q0 1.1.3 1.5.2.3.5.3.4 0 .5-.3.3-.4.3-1.5t-.2-1.5q-.2-.3-.6-.3-.3 0-.5.3-.3.4-.3 1.5Z"/><path stroke="#fff" stroke-linecap="round" stroke-linejoin="round" stroke-width="3" d="M164.8 162.5q1.7 0 2.6 1.2 1.1 1.4 1.1 4.6t-1.1 4.7q-1 1.2-2.6 1.2-1.7 0-2.7-1.3-1-1.3-1-4.6 0-3.2 1-4.6 1-1.2 2.7-1.2Zm0 1.8q-.4 0-.7.3-.3.2-.5.9-.2.8-.2 2.8 0 2 .2 2.8.2.8.5 1 .3.3.7.3.4 0 .7-.3.3-.2.5-.9.2-.8.2-2.9 0-2-.2-2.7t-.5-1q-.3-.3-.7-.3Zm5.8 9.7v-2.2h2.1v2.2h-2.1Zm7.2-11.5q1.7 0 2.6 1.2 1.1 1.4 1.1 4.6t-1.1 4.7q-1 1.2-2.6 1.2-1.7 0-2.7-1.3-1-1.3-1-4.6 0-3.2 1-4.6 1-1.2 2.7-1.2Zm0 1.8q-.4 0-.7.3-.3.2-.5.9-.2.8-.2 2.8 0 2 .2 2.8.2.8.5 1 .3.3.7.3.4 0 .7-.3.3-.2.5-.9.2-.8.2-2.9 0-2-.2-2.7t-.5-1q-.3-.3-.7-.3Zm9.6 9.7v-2.3h-4.7v-2l5-7.2h1.8v7.3h1.4v1.9h-1.4v2.3h-2.1Zm0-4.2v-4l-2.6 4h2.6Zm4.7-4.4q0-1.6.7-2.3.6-.8 1.8-.8 1.2 0 1.9.8.6.7.6 2.3 0 1.5-.6 2.3-.7.7-1.9.7t-1.8-.7q-.7-.8-.7-2.3Zm1.7 0q0 1 .3 1.5.2.2.5.2.4 0 .5-.2.3-.4.3-1.5 0-1.2-.3-1.5-.1-.3-.5-.3-.3 0-.5.3-.3.3-.3 1.5Zm2.5 9h-1.7l6.2-12h1.5l-6 12Zm3.5-3q0-1.5.7-2.2.7-.8 1.8-.8 1.2 0 1.9.8.7.7.7 2.2 0 1.6-.7 2.3-.7.8-1.8.8-1.2 0-2-.8-.6-.7-.6-2.3Zm1.7 0q0 1.1.3 1.5.2.3.5.3.4 0 .6-.3.2-.4.2-1.5t-.2-1.5q-.2-.3-.6-.3-.3 0-.5.3-.3.4-.3 1.5Z"/><path fill="#62718b" d="M164.8 162.5q1.7 0 2.6 1.2 1.1 1.4 1.1 4.6t-1.1 4.7q-1 1.2-2.6 1.2-1.7 0-2.7-1.3-1-1.3-1-4.6 0-3.2 1-4.6 1-1.2 2.7-1.2Zm0 1.8q-.4 0-.7.3-.3.2-.5.9-.2.8-.2 2.8 0 2 .2 2.8.2.8.5 1 .3.3.7.3.4 0 .7-.3.3-.2.5-.9.2-.8.2-2.9 0-2-.2-2.7t-.5-1q-.3-.3-.7-.3Zm5.8 9.7v-2.2h2.1v2.2h-2.1Zm7.2-11.5q1.7 0 2.6 1.2 1.1 1.4 1.1 4.6t-1.1 4.7q-1 1.2-2.6 1.2-1.7 0-2.7-1.3-1-1.3-1-4.6 0-3.2 1-4.6 1-1.2 2.7-1.2Zm0 1.8q-.4 0-.7.3-.3.2-.5.9-.2.8-.2 2.8 0 2 .2 2.8.2.8.5 1 .3.3.7.3.4 0 .7-.3.3-.2.5-.9.2-.8.2-2.9 0-2-.2-2.7t-.5-1q-.3-.3-.7-.3Zm9.6 9.7v-2.3h-4.7v-2l5-7.2h1.8v7.3h1.4v1.9h-1.4v2.3h-2.1Zm0-4.2v-4l-2.6 4h2.6Zm4.7-4.4q0-1.6.7-2.3.6-.8 1.8-.8 1.2 0 1.9.8.6.7.6 2.3 0 1.5-.6 2.3-.7.7-1.9.7t-1.8-.7q-.7-.8-.7-2.3Zm1.7 0q0 1 .3 1.5.2.2.5.2.4 0 .5-.2.3-.4.3-1.5 0-1.2-.3-1.5-.1-.3-.5-.3-.3 0-.5.3-.3.3-.3 1.5Zm2.5 9h-1.7l6.2-12h1.5l-6 12Zm3.5-3q0-1.5.7-2.2.7-.8 1.8-.8 1.2 0 1.9.8.7.7.7 2.2 0 1.6-.7 2.3-.7.8-1.8.8-1.2 0-2-.8-.6-.7-.6-2.3Zm1.7 0q0 1.1.3 1.5.2.3.5.3.4 0 .6-.3.2-.4.2-1.5t-.2-1.5q-.2-.3-.6-.3-.3 0-.5.3-.3.4-.3 1.5Z"/><path stroke="#fff" stroke-linecap="round" stroke-linejoin="round" stroke-width="3" d="M160.5 201.5q1.7 0 2.6 1.2 1.1 1.4 1.1 4.6t-1.1 4.7q-1 1.2-2.6 1.2-1.7 0-2.7-1.3-1-1.3-1-4.6 0-3.2 1.1-4.6 1-1.2 2.6-1.2Zm0 1.8q-.4 0-.7.3-.3.2-.5.9-.2.8-.2 2.8 0 2 .2 2.8.2.8.5 1 .3.3.7.3.4 0 .7-.3.3-.2.5-.9.2-.8.2-2.9 0-2-.2-2.7t-.5-1q-.3-.3-.7-.3Zm5.8 9.7v-2.2h2.1v2.2h-2.1Zm7.2-11.5q1.7 0 2.6 1.2 1.1 1.4 1.1 4.6t-1.1 4.7q-1 1.2-2.6 1.2-1.7 0-2.7-1.3-1-1.3-1-4.6 0-3.2 1.1-4.6 1-1.2 2.6-1.2Zm0 1.8q-.4 0-.7.3-.3.2-.5.9-.2.8-.2 2.8 0 2 .2 2.8.2.8.5 1 .3.3.7.3.4 0 .7-.3.3-.2.5-.9.2-.8.2-2.9 0-2-.2-2.7t-.5-1q-.3-.3-.7-.3Zm5.2 6.7 2.1-.3q.1.8.6 1.3.4.4 1 .4.7 0 1.2-.5.5-.6.5-1.4 0-.9-.5-1.3-.4-.5-1-.5l-1 .1.2-1.8q.9 0 1.3-.3.5-.4.5-1.1 0-.6-.3-1-.4-.3-1-.3-.5 0-1 .4-.3.4-.4 1.1l-2-.3q.2-1 .6-1.7.4-.6 1.2-1 .8-.3 1.7-.3 1.6 0 2.6 1 .8.9.8 2 0 1.4-1.7 2.3 1 .2 1.6 1 .6.7.6 1.8 0 1.5-1 2.5-1.2 1.1-2.8 1.1-1.6 0-2.6-.9t-1.2-2.3Zm9.1-5.6q0-1.6.7-2.3.6-.8 1.8-.8 1.2 0 1.9.8.6.7.6 2.3 0 1.5-.6 2.3-.7.7-1.9.7t-1.8-.7q-.7-.8-.7-2.3Zm1.7 0q0 1 .3 1.5.2.2.5.2.4 0 .5-.2.3-.4.3-1.5 0-1.2-.3-1.5-.1-.3-.5-.3-.3 0-.5.3-.3.3-.3 1.5Zm2.5 9h-1.7l6.2-12h1.5l-6 12Zm3.5-3q0-1.5.7-2.2.7-.8 1.9-.8 1.1 0 1.8.8.7.7.7 2.2 0 1.6-.7 2.3-.7.8-1.8.8-1.2 0-2-.8-.6-.7-.6-2.3Zm1.7 0q0 1.1.3 1.5.2.3.5.3.4 0 .6-.3.2-.4.2-1.5t-.2-1.5q-.2-.3-.6-.3-.3 0-.5.3-.3.4-.3 1.5Z"/><path fill="#62718b" d="M160.5 201.5q1.7 0 2.6 1.2 1.1 1.4 1.1 4.6t-1.1 4.7q-1 1.2-2.6 1.2-1.7 0-2.7-1.3-1-1.3-1-4.6 0-3.2 1.1-4.6 1-1.2 2.6-1.2Zm0 1.8q-.4 0-.7.3-.3.2-.5.9-.2.8-.2 2.8 0 2 .2 2.8.2.8.5 1 .3.3.7.3.4 0 .7-.3.3-.2.5-.9.2-.8.2-2.9 0-2-.2-2.7t-.5-1q-.3-.3-.7-.3Zm5.8 9.7v-2.2h2.1v2.2h-2.1Zm7.2-11.5q1.7 0 2.6 1.2 1.1 1.4 1.1 4.6t-1.1 4.7q-1 1.2-2.6 1.2-1.7 0-2.7-1.3-1-1.3-1-4.6 0-3.2 1.1-4.6 1-1.2 2.6-1.2Zm0 1.8q-.4 0-.7.3-.3.2-.5.9-.2.8-.2 2.8 0 2 .2 2.8.2.8.5 1 .3.3.7.3.4 0 .7-.3.3-.2.5-.9.2-.8.2-2.9 0-2-.2-2.7t-.5-1q-.3-.3-.7-.3Zm5.2 6.7 2.1-.3q.1.8.6 1.3.4.4 1 .4.7 0 1.2-.5.5-.6.5-1.4 0-.9-.5-1.3-.4-.5-1-.5l-1 .1.2-1.8q.9 0 1.3-.3.5-.4.5-1.1 0-.6-.3-1-.4-.3-1-.3-.5 0-1 .4-.3.4-.4 1.1l-2-.3q.2-1 .6-1.7.4-.6 1.2-1 .8-.3 1.7-.3 1.6 0 2.6 1 .8.9.8 2 0 1.4-1.7 2.3 1 .2 1.6 1 .6.7.6 1.8 0 1.5-1 2.5-1.2 1.1-2.8 1.1-1.6 0-2.6-.9t-1.2-2.3Zm9.1-5.6q0-1.6.7-2.3.6-.8 1.8-.8 1.2 0 1.9.8.6.7.6 2.3 0 1.5-.6 2.3-.7.7-1.9.7t-1.8-.7q-.7-.8-.7-2.3Zm1.7 0q0 1 .3 1.5.2.2.5.2.4 0 .5-.2.3-.4.3-1.5 0-1.2-.3-1.5-.1-.3-.5-.3-.3 0-.5.3-.3.3-.3 1.5Zm2.5 9h-1.7l6.2-12h1.5l-6 12Zm3.5-3q0-1.5.7-2.2.7-.8 1.9-.8 1.1 0 1.8.8.7.7.7 2.2 0 1.6-.7 2.3-.7.8-1.8.8-1.2 0-2-.8-.6-.7-.6-2.3Zm1.7 0q0 1.1.3 1.5.2.3.5.3.4 0 .6-.3.2-.4.2-1.5t-.2-1.5q-.2-.3-.6-.3-.3 0-.5.3-.3.4-.3 1.5Z"/><path stroke="#fff" stroke-linecap="round" stroke-linejoin="round" stroke-width="3" d="M157.4 239.5q1.7 0 2.6 1.2 1.1 1.4 1.1 4.6T160 250q-1 1.2-2.6 1.2t-2.7-1.3q-1-1.3-1-4.6 0-3.2 1.1-4.6 1-1.2 2.6-1.2Zm0 1.8q-.4 0-.7.3-.3.2-.5.9-.2.8-.2 2.8 0 2 .2 2.8.2.8.5 1 .3.3.7.3.4 0 .7-.3.3-.2.5-.9.2-.8.2-2.9 0-2-.2-2.7-.2-.8-.5-1-.3-.3-.7-.3Zm5.8 9.7v-2.2h2.1v2.2h-2.1Zm7.2-11.5q1.7 0 2.6 1.2 1.1 1.4 1.1 4.6T173 250q-1 1.2-2.6 1.2t-2.7-1.3q-1-1.3-1-4.6 0-3.2 1.1-4.6 1-1.2 2.6-1.2Zm0 1.8q-.4 0-.7.3-.3.2-.5.9-.2.8-.2 2.8 0 2 .2 2.8.2.8.5 1 .3.3.7.3.4 0 .7-.3.3-.2.5-.9.2-.8.2-2.9 0-2-.2-2.7-.2-.8-.5-1-.3-.3-.7-.3ZM183 249v2h-7.7q.1-1.2.8-2.2.6-1 2.4-2.7 1.5-1.4 1.8-2 .5-.6.5-1.3 0-.7-.4-1-.4-.5-1-.5-.8 0-1.2.4-.4.4-.5 1.4l-2.1-.2q.2-1.8 1.2-2.6t2.6-.8q1.7 0 2.6 1 1 .8 1 2.2 0 .8-.3 1.5t-.9 1.4l-1.4 1.5-1.3 1.2-.5.7h4.4Zm1.6-6.6q0-1.6.7-2.3.6-.8 1.8-.8 1.2 0 1.9.8.7.7.7 2.3 0 1.5-.7 2.3-.7.7-1.8.7-1.3 0-2-.7-.6-.8-.6-2.3Zm1.7 0q0 1 .3 1.5.2.2.5.2.4 0 .6-.2.2-.4.2-1.5 0-1.2-.2-1.5-.2-.3-.6-.3-.3 0-.5.3-.3.3-.3 1.5Zm2.5 9h-1.6l6-12h1.6l-6 12Zm3.5-3q0-1.5.7-2.2.7-.8 1.9-.8 1.1 0 1.8.8.7.7.7 2.2 0 1.6-.7 2.3-.7.8-1.8.8-1.2 0-2-.8-.6-.7-.6-2.3Zm1.7 0q0 1.1.3 1.5.2.3.5.3.4 0 .6-.3.2-.4.2-1.5t-.2-1.5q-.2-.3-.6-.3-.3 0-.5.3-.3.4-.3 1.5Z"/><path fill="#62718b" d="M157.4 239.5q1.7 0 2.6 1.2 1.1 1.4 1.1 4.6T160 250q-1 1.2-2.6 1.2t-2.7-1.3q-1-1.3-1-4.6 0-3.2 1.1-4.6 1-1.2 2.6-1.2Zm0 1.8q-.4 0-.7.3-.3.2-.5.9-.2.8-.2 2.8 0 2 .2 2.8.2.8.5 1 .3.3.7.3.4 0 .7-.3.3-.2.5-.9.2-.8.2-2.9 0-2-.2-2.7-.2-.8-.5-1-.3-.3-.7-.3Zm5.8 9.7v-2.2h2.1v2.2h-2.1Zm7.2-11.5q1.7 0 2.6 1.2 1.1 1.4 1.1 4.6T173 250q-1 1.2-2.6 1.2t-2.7-1.3q-1-1.3-1-4.6 0-3.2 1.1-4.6 1-1.2 2.6-1.2Zm0 1.8q-.4 0-.7.3-.3.2-.5.9-.2.8-.2 2.8 0 2 .2 2.8.2.8.5 1 .3.3.7.3.4 0 .7-.3.3-.2.5-.9.2-.8.2-2.9 0-2-.2-2.7-.2-.8-.5-1-.3-.3-.7-.3ZM183 249v2h-7.7q.1-1.2.8-2.2.6-1 2.4-2.7 1.5-1.4 1.8-2 .5-.6.5-1.3 0-.7-.4-1-.4-.5-1-.5-.8 0-1.2.4-.4.4-.5 1.4l-2.1-.2q.2-1.8 1.2-2.6t2.6-.8q1.7 0 2.6 1 1 .8 1 2.2 0 .8-.3 1.5t-.9 1.4l-1.4 1.5-1.3 1.2-.5.7h4.4Zm1.6-6.6q0-1.6.7-2.3.6-.8 1.8-.8 1.2 0 1.9.8.7.7.7 2.3 0 1.5-.7 2.3-.7.7-1.8.7-1.3 0-2-.7-.6-.8-.6-2.3Zm1.7 0q0 1 .3 1.5.2.2.5.2.4 0 .6-.2.2-.4.2-1.5 0-1.2-.2-1.5-.2-.3-.6-.3-.3 0-.5.3-.3.3-.3 1.5Zm2.5 9h-1.6l6-12h1.6l-6 12Zm3.5-3q0-1.5.7-2.2.7-.8 1.9-.8 1.1 0 1.8.8.7.7.7 2.2 0 1.6-.7 2.3-.7.8-1.8.8-1.2 0-2-.8-.6-.7-.6-2.3Zm1.7 0q0 1.1.3 1.5.2.3.5.3.4 0 .6-.3.2-.4.2-1.5t-.2-1.5q-.2-.3-.6-.3-.3 0-.5.3-.3.4-.3 1.5Z"/><path stroke="#fff" stroke-linecap="round" stroke-linejoin="round" stroke-width="3" d="M146 278.5q1.6 0 2.6 1.2 1 1.4 1 4.6t-1 4.7q-1 1.2-2.6 1.2-1.7 0-2.7-1.3-1-1.3-1-4.6 0-3.2 1-4.6 1-1.2 2.7-1.2Zm0 1.8q-.4 0-.7.3-.4.2-.5.9-.3.8-.3 2.8 0 2 .2 2.8.2.8.6 1 .3.3.7.3.4 0 .7-.3.3-.2.5-.9.2-.8.2-2.9 0-2-.2-2.7t-.5-1q-.3-.3-.7-.3Zm5.7 9.7v-2.2h2.2v2.2h-2.2Zm7.3-11.5q1.6 0 2.6 1.2 1 1.4 1 4.6t-1 4.7q-1 1.2-2.6 1.2-1.7 0-2.7-1.3-1-1.3-1-4.6 0-3.2 1-4.6 1-1.2 2.7-1.2Zm0 1.8q-.4 0-.7.3-.4.2-.5.9-.3.8-.3 2.8 0 2 .2 2.8.2.8.6 1 .3.3.7.3.4 0 .7-.3.3-.2.5-.9.2-.8.2-2.9 0-2-.2-2.7t-.5-1q-.3-.3-.7-.3Zm9-1.8q1.6 0 2.6 1.2 1 1.4 1 4.6t-1 4.7q-1 1.2-2.6 1.2-1.7 0-2.7-1.3-1-1.3-1-4.6 0-3.2 1-4.6 1-1.2 2.7-1.2Zm0 1.8q-.4 0-.7.3-.4.2-.5.9-.3.8-.3 2.8 0 2 .2 2.8.2.8.6 1 .3.3.7.3.4 0 .7-.3.3-.2.5-.9.2-.8.2-2.9 0-2-.2-2.7t-.5-1q-.3-.3-.7-.3Zm5.3 1q0-1.5.6-2.2.7-.8 1.9-.8t1.8.8q.7.7.7 2.3 0 1.5-.7 2.3-.6.7-1.8.7-1.2 0-1.9-.7-.6-.8-.6-2.3Zm1.7 0q0 1.2.2 1.6.2.2.6.2.3 0 .5-.2.3-.4.3-1.5 0-1.2-.3-1.5-.2-.3-.5-.3-.4 0-.6.3-.2.3-.2 1.5Zm2.4 9.1h-1.6l6.1-12h1.6l-6 12Zm3.6-3q0-1.5.7-2.2.6-.8 1.8-.8 1.2 0 1.9.8.6.7.6 2.2 0 1.6-.6 2.3-.7.8-1.9.8t-1.8-.8q-.7-.7-.7-2.3Zm1.7 0q0 1.1.3 1.5.2.3.5.3t.5-.3q.3-.4.3-1.5t-.3-1.5q-.2-.3-.5-.3-.4 0-.5.3-.3.4-.3 1.5Z"/><path fill="#62718b" d="M146 278.5q1.6 0 2.6 1.2 1 1.4 1 4.6t-1 4.7q-1 1.2-2.6 1.2-1.7 0-2.7-1.3-1-1.3-1-4.6 0-3.2 1-4.6 1-1.2 2.7-1.2Zm0 1.8q-.4 0-.7.3-.4.2-.5.9-.3.8-.3 2.8 0 2 .2 2.8.2.8.6 1 .3.3.7.3.4 0 .7-.3.3-.2.5-.9.2-.8.2-2.9 0-2-.2-2.7t-.5-1q-.3-.3-.7-.3Zm5.7 9.7v-2.2h2.2v2.2h-2.2Zm7.3-11.5q1.6 0 2.6 1.2 1 1.4 1 4.6t-1 4.7q-1 1.2-2.6 1.2-1.7 0-2.7-1.3-1-1.3-1-4.6 0-3.2 1-4.6 1-1.2 2.7-1.2Zm0 1.8q-.4 0-.7.3-.4.2-.5.9-.3.8-.3 2.8 0 2 .2 2.8.2.8.6 1 .3.3.7.3.4 0 .7-.3.3-.2.5-.9.2-.8.2-2.9 0-2-.2-2.7t-.5-1q-.3-.3-.7-.3Zm9-1.8q1.6 0 2.6 1.2 1 1.4 1 4.6t-1 4.7q-1 1.2-2.6 1.2-1.7 0-2.7-1.3-1-1.3-1-4.6 0-3.2 1-4.6 1-1.2 2.7-1.2Zm0 1.8q-.4 0-.7.3-.4.2-.5.9-.3.8-.3 2.8 0 2 .2 2.8.2.8.6 1 .3.3.7.3.4 0 .7-.3.3-.2.5-.9.2-.8.2-2.9 0-2-.2-2.7t-.5-1q-.3-.3-.7-.3Zm5.3 1q0-1.5.6-2.2.7-.8 1.9-.8t1.8.8q.7.7.7 2.3 0 1.5-.7 2.3-.6.7-1.8.7-1.2 0-1.9-.7-.6-.8-.6-2.3Zm1.7 0q0 1.2.2 1.6.2.2.6.2.3 0 .5-.2.3-.4.3-1.5 0-1.2-.3-1.5-.2-.3-.5-.3-.4 0-.6.3-.2.3-.2 1.5Zm2.4 9.1h-1.6l6.1-12h1.6l-6 12Zm3.6-3q0-1.5.7-2.2.6-.8 1.8-.8 1.2 0 1.9.8.6.7.6 2.2 0 1.6-.6 2.3-.7.8-1.9.8t-1.8-.8q-.7-.7-.7-2.3Zm1.7 0q0 1.1.3 1.5.2.3.5.3t.5-.3q.3-.4.3-1.5t-.3-1.5q-.2-.3-.5-.3-.4 0-.5.3-.3.4-.3 1.5Z"/><path fill="#838689" d="M304 351.3v-8.6h4.5l1 .5q.5.3.7.8.3.5.3 1.2 0 1-.7 1.8t-2.5.8H305v3.5h-1.2Zm1-4.5h2.3q1 0 1.5-.4t.5-1.2q0-.5-.3-.9-.2-.4-.7-.5h-3.2v3Zm11 2.5 1.1.1q-.2 1-1 1.5-.6.5-1.7.5-1.4 0-2.2-.8-.8-.9-.8-2.4t.9-2.4q.8-.9 2-.9 1.3 0 2 .9.9.8.9 2.4v.3h-4.7q0 1 .6 1.5.5.6 1.3.6.6 0 1-.3t.6-1Zm-3.4-1.7h3.5q-.1-.8-.4-1.2-.5-.6-1.3-.6t-1.3.5q-.5.5-.5 1.3Zm6.2 3.7v-6.2h1v1q.3-.7.6-1 .3-.2.7-.2.5 0 1 .4l-.3 1q-.4-.3-.8-.3l-.6.2q-.3.2-.4.6l-.2 1.2v3.3h-1Zm8-2.3 1 .2q0 1-.8 1.6-.7.6-1.7.6-1.3 0-2-.8-.8-.8-.8-2.4 0-1 .3-1.7.3-.8 1-1.2.7-.4 1.5-.4 1 0 1.7.6.6.5.8 1.4l-1 .2q-.2-.7-.6-1-.3-.3-.9-.3-.8 0-1.3.6-.5.5-.5 1.8 0 1.2.5 1.8.5.6 1.3.6.6 0 1-.4t.6-1.2Zm6.2.3 1.1.1q-.2 1-1 1.5-.6.5-1.7.5-1.4 0-2.2-.8-.8-.9-.8-2.4t.9-2.4q.8-.9 2-.9 1.3 0 2 .9.9.8.9 2.4v.3h-4.7q0 1 .6 1.5.5.6 1.3.6.6 0 1-.3t.6-1Zm-3.4-1.7h3.5q-.1-.8-.4-1.2-.5-.6-1.3-.6t-1.3.5q-.5.5-.5 1.3Zm6.2 3.7v-6.2h1v.9q.6-1 2-1l1 .1q.4.2.7.6l.3.7v4.9h-1v-3.8l-.1-1-.5-.5q-.3-.2-.7-.2-.7 0-1.2.5-.5.4-.5 1.6v3.4h-1Zm9.3-1 .2 1h-.8l-1-.1-.4-.5-.1-1.2v-3.6h-.8v-.8h.8v-1.6l1-.6v2.2h1v.8h-1v4.2l.3.2h.8Zm3.3-2.1q0-1.7 1-2.6.8-.7 2-.7t2 .9q.8.8.8 2.3 0 1.2-.3 1.9-.4.7-1 1-.8.4-1.6.4-1.3 0-2.1-.8t-.8-2.4Zm1 0q0 1.2.6 1.8.5.6 1.3.6t1.3-.6q.5-.6.5-1.8 0-1.2-.5-1.8-.5-.6-1.3-.6t-1.3.6q-.5.6-.5 1.8Zm6.6 3.1v-5.4h-.9v-.8h1v-1.7l.6-.6q.4-.2 1-.2h1l-.1 1h-.6l-.7.1q-.2.2-.2.8v.6h1.2v.8h-1.2v5.4h-1Zm5.8 2.4V345h1v.8q.3-.5.7-.7.5-.3 1-.3.9 0 1.5.4t.9 1.2q.3.7.3 1.6 0 1-.4 1.8-.3.7-1 1.1-.6.4-1.3.4l-1-.2-.7-.5v3h-1Zm1-5.5q0 1.2.4 1.8.5.6 1.2.6t1.2-.6q.5-.6.5-1.9 0-1.2-.5-1.7-.5-.6-1.1-.6-.7 0-1.2.6-.6.6-.6 1.8Zm10 2.3q-.5.5-1 .7l-1.2.2q-1 0-1.6-.5-.6-.5-.6-1.2 0-.5.2-.9t.6-.6l.8-.3.9-.2q1.3-.1 1.9-.4v-.2q0-.7-.3-1-.4-.3-1.2-.3-.8 0-1.1.3-.4.2-.6.9l-1-.2q.1-.6.5-1 .3-.4 1-.6.5-.3 1.3-.3t1.3.2l.8.5.3.7v4.2l.4.8H373q-.2-.3-.2-.8Zm0-2.3-1.8.4q-.6 0-.9.2l-.4.3-.1.5q0 .4.3.7.3.3 1 .3.5 0 1-.3.5-.2.7-.7.2-.4.2-1v-.4Zm2.8 3.6 1 .2q0 .4.4.7.4.3 1 .3.8 0 1.2-.3.4-.3.5-.9l.1-1.3q-.7.8-1.7.8-1.3 0-2-1-.7-.9-.7-2.1 0-1 .3-1.7.3-.8 1-1.2.6-.4 1.4-.4 1 0 1.8 1v-.8h1v5.4q0 1.4-.3 2-.3.6-1 1-.6.3-1.5.3-1.1 0-1.8-.5t-.7-1.5Zm.9-3.7q0 1.2.5 1.8.4.5 1.2.5.7 0 1.2-.5.5-.6.5-1.8 0-1.1-.5-1.7-.5-.6-1.2-.6t-1.2.6q-.5.6-.5 1.7Zm10.5 1.2 1.1.1q-.2 1-1 1.5-.6.5-1.7.5-1.4 0-2.2-.8-.8-.9-.8-2.4t.9-2.4q.8-.9 2-.9 1.3 0 2 .9.9.8.9 2.4v.3h-4.7q0 1 .6 1.5.5.6 1.3.6.6 0 1-.3t.6-1Zm-3.4-1.7h3.5q-.1-.8-.4-1.2-.5-.6-1.3-.6t-1.3.5q-.5.5-.5 1.3Zm5.8 1.8 1-.1q.1.6.5 1 .4.3 1.1.3.8 0 1-.3.5-.3.5-.7 0-.4-.4-.6l-1-.3-1.6-.5-.7-.6q-.3-.4-.3-.9 0-.4.2-.7.2-.4.6-.6l.6-.3q.4-.2 1-.2.7 0 1.2.3.6.2.8.5.3.4.4 1l-1 .1q-.1-.5-.4-.7-.4-.3-1-.3-.7 0-1 .2-.3.3-.3.6v.4l.5.2 1 .3 1.5.5q.4.2.7.6.2.3.2.9 0 .5-.3 1-.3.4-.9.7-.5.2-1.3.2-1.2 0-1.8-.5-.7-.5-.8-1.5Zm-360.7-79H20v-5.8h1v4.6h2.7v-4h1v4h3.9v1.2Zm-7.4-6.9h-1.2v-1h1.2v1Zm7.4 0h-6.2v-1h6.2v1Zm0-3h-6.2v-.9h.8q-1-.7-1-2l.2-1q.2-.5.6-.7.3-.3.7-.4h4.9v1h-3.8q-.7 0-1 .2-.3 0-.5.4-.2.3-.2.7 0 .7.5 1.2.4.5 1.6.5h3.4v1Zm.5-6.8.2-1q.4 0 .6-.3.3-.4.3-1.1 0-.7-.3-1.1-.3-.4-.8-.6H28q.8.6.8 1.7 0 1.2-1 2-.9.6-2.2.6-.8 0-1.6-.3t-1.2-1q-.4-.5-.4-1.3 0-1.2 1-1.9h-.8v-1h5.3q1.5 0 2.1.4.6.3 1 .9.3.6.3 1.6t-.5 1.8q-.5.7-1.5.6Zm-3.7-.8q1.2 0 1.7-.5.6-.5.6-1.2 0-.8-.6-1.3-.5-.5-1.7-.5-1.1 0-1.7.6-.6.5-.6 1.2t.6 1.2q.5.5 1.7.5Zm1.2-10.6.1-1.1q1 .2 1.5 1 .5.7.5 1.7 0 1.4-.8 2.2-.9.8-2.4.8t-2.4-.8q-.9-.8-.9-2.1t.9-2q.8-.8 2.4-.8h.2v4.6q1 0 1.6-.6.5-.5.5-1.3l-.2-1q-.4-.4-1-.6Zm-1.7 3.4v-3.4q-.8 0-1.2.4-.6.5-.6 1.3 0 .7.5 1.2t1.3.5Zm3.7-6.1h-6.2v-1h.9q-.7-.4-.9-.7l-.2-.6q0-.6.4-1.1l1 .3q-.3.4-.3.8t.2.6q.2.3.6.4l1.2.2h3.3v1Zm2.4-4h-8.6v-1h.8q-.5-.4-.7-.8-.3-.4-.3-1 0-.8.4-1.4.4-.6 1.2-1 .7-.3 1.6-.3 1 0 1.7.4.8.3 1.2 1 .4.6.4 1.4 0 .5-.2.9t-.6.7h3v1Zm-5.5-1q1.2 0 1.8-.5.5-.5.5-1.2t-.5-1.2q-.6-.5-1.9-.5-1.2 0-1.8.5-.5.5-.5 1.2t.6 1.2q.6.5 1.8.5Zm3-6h-6.1v-1h.9q-.7-.4-.9-.7l-.2-.6q0-.6.4-1.1l1 .3q-.3.4-.3.8t.2.6q.2.3.6.4l1.2.2h3.3v1Zm-7.3-4h-1.2v-1.1h1.2v1Zm7.4 0h-6.2v-1.1h6.2v1Zm0-3h-6.2v-1h.8q-1-.7-1-2l.2-1q.2-.5.6-.7.3-.3.7-.4h4.9v1h-3.8q-.7 0-1 .2-.3 0-.5.4-.2.3-.2.7 0 .7.5 1.2.4.5 1.6.5h3.4v1Zm-1-9.4 1-.1v.8l-.1.9q-.2.3-.5.4-.3.2-1.2.2h-3.6v.7h-.8v-.7h-1.6l-.6-1.1h2.2v-1h.8v1h4.2l.2-.2v-.9Zm-6.4-.7h-1.2v-1h1.2v1Zm7.4 0h-6.2v-1h6.2v1Zm0-3h-6.2v-.9h.8q-1-.7-1-2l.2-1q.2-.5.6-.7.3-.3.7-.4h4.9v1h-3.8q-.7 0-1 .2-.3 0-.5.4-.2.3-.2.7 0 .7.5 1.2.4.5 1.6.5h3.4v1Zm.5-6.8.2-1q.4 0 .6-.3.3-.4.3-1.1 0-.7-.3-1.1-.3-.4-.8-.6H28q.8.6.8 1.7 0 1.2-1 2-.9.6-2.2.6-.8 0-1.6-.3t-1.2-1q-.4-.5-.4-1.3 0-1.2 1-1.9h-.8v-1h5.3q1.5 0 2.1.4.6.3 1 .9.3.6.3 1.6t-.5 1.8q-.5.7-1.5.6Zm-3.7-.8q1.2 0 1.7-.5.6-.5.6-1.2 0-.8-.6-1.3-.5-.5-1.7-.5-1.1 0-1.7.6-.6.5-.6 1.2t.6 1.2q.5.5 1.7.5Zm1.3-9-.1-1q.6 0 1-.5.2-.4.2-1.1 0-.7-.2-1-.3-.4-.7-.4-.4 0-.6.3l-.4 1-.5 1.7q-.2.4-.6.7-.3.2-.8.2l-.8-.2-.6-.5-.3-.7v-1l.1-1.2q.2-.5.6-.8.4-.3 1-.4l.1 1q-.5.1-.7.5-.3.3-.3 1 0 .6.2 1 .3.3.6.3l.4-.2.2-.4.3-.9.5-1.6q.2-.4.5-.6.4-.3 1-.3.5 0 1 .3.4.3.7.9.2.6.2 1.3 0 1.2-.5 1.9-.5.6-1.5.8Zm-.1-11.6.1-1.1q1 .2 1.5 1 .5.7.5 1.7 0 1.4-.8 2.2-.9.8-2.4.8t-2.4-.8q-.9-.8-.9-2.1t.9-2q.8-.8 2.4-.8h.2v4.6q1 0 1.6-.6.5-.5.5-1.3l-.2-1q-.4-.4-1-.6Zm-1.7 3.4v-3.4q-.8 0-1.2.4-.6.5-.6 1.3 0 .7.5 1.2t1.3.5Zm3.7-6.1h-6.2v-1h.9q-.7-.4-.9-.7l-.2-.6q0-.6.4-1.1l1 .3q-.3.4-.3.8t.2.6q.2.3.6.4l1.2.2h3.3v1Zm0-5.8-6.2 2.4V173l3.7-1.4 1.2-.4-1.1-.4-3.8-1.3v-1.1l6.2 2.3v1Zm-7.4-3.3h-1.2v-1h1.2v1Zm7.4 0h-6.2v-1h6.2v1Zm-2.3-7 .1-1q1.1.1 1.7.8.6.7.6 1.7 0 1.3-.8 2.1t-2.4.8q-1 0-1.8-.4-.7-.3-1.1-1-.4-.7-.4-1.5 0-1 .5-1.6.5-.7 1.5-.9l.1 1q-.6.2-.9.6-.3.4-.3.9 0 .8.6 1.3.5.5 1.8.5 1.2 0 1.8-.5.5-.5.5-1.2t-.3-1q-.4-.5-1.2-.6Zm.3-6.2.1-1.1q1 .2 1.5 1 .5.7.5 1.7 0 1.4-.8 2.2-.9.8-2.4.8t-2.4-.8q-.9-.8-.9-2.1t.9-2q.8-.8 2.4-.8h.2v4.6q1 0 1.6-.6.5-.5.5-1.3l-.2-1q-.4-.4-1-.6Zm-1.7 3.4v-3.4q-.8 0-1.2.4-.6.5-.6 1.3 0 .7.5 1.2t1.3.5ZM45.5 127v-8.6h5.8v1h-4.7v2.7h4v1h-4v3.9h-1.1Zm6.8-7.4v-1.2h1v1.2h-1Zm0 7.4v-6.2h1v6.2h-1Zm3 0v-6.2h1v.8q.6-1 2-1l1 .2q.4.2.7.6l.3.7v4.9h-1v-3.8l-.1-1-.5-.5q-.3-.2-.7-.2-.7 0-1.2.5-.5.4-.5 1.6v3.4h-1Zm6.8.5 1 .2q0 .4.4.6.4.3 1 .3.8 0 1.2-.3.4-.3.5-.8l.1-1.3q-.7.8-1.7.8-1.3 0-2-1-.7-.9-.7-2.2 0-.8.3-1.6t1-1.2q.5-.4 1.4-.4 1 0 1.8 1v-.8h1v5.3q0 1.5-.3 2.1-.3.6-1 1-.6.3-1.5.3-1.1 0-1.8-.5t-.7-1.5Zm.9-3.7q0 1.2.5 1.7.4.6 1.2.6.7 0 1.2-.6.5-.5.5-1.7 0-1.1-.5-1.7-.5-.6-1.2-.6t-1.2.6q-.5.5-.5 1.7Zm10.5 1.2 1.1.1q-.2 1-1 1.5-.6.5-1.7.5-1.4 0-2.2-.8-.8-.9-.8-2.4t.8-2.4q.9-.9 2.1-.9 1.3 0 2 .9.9.8.9 2.4v.2H70q0 1 .6 1.6.5.5 1.3.5.6 0 1-.2.4-.4.6-1Zm-3.4-1.7h3.5q-.1-.8-.4-1.2-.5-.6-1.3-.6t-1.3.5q-.5.5-.5 1.3Zm6.2 3.7v-6.2h1v.9q.3-.7.6-.9.3-.2.7-.2.5 0 1 .4l-.3 1q-.4-.3-.8-.3l-.6.2q-.3.2-.4.6l-.2 1.2v3.3h-1Zm4 2.4v-8.6h1v.8q.3-.5.7-.7.5-.3 1-.3.9 0 1.5.4t.9 1.2q.3.7.3 1.6 0 1-.4 1.7-.3.8-1 1.2-.6.4-1.3.4l-1-.2q-.4-.2-.7-.6v3h-1Zm1-5.5q0 1.2.4 1.8.5.5 1.2.5t1.2-.5q.5-.6.5-1.9 0-1.2-.5-1.8-.5-.5-1.1-.5-.7 0-1.2.6t-.5 1.8Zm6 3v-6.1h1v.9q.3-.7.6-.9.3-.2.7-.2.5 0 1 .4l-.3 1q-.4-.3-.8-.3l-.6.2q-.3.2-.4.6l-.2 1.2v3.3h-1Zm4-7.3v-1.2h1v1.2h-1Zm0 7.4v-6.2h1v6.2h-1Zm3 0v-6.2h1v.8q.6-1 2-1l1 .2q.4.2.7.6l.3.7v4.9h-1v-3.8l-.1-1-.5-.5q-.3-.2-.7-.2-.7 0-1.2.5-.5.4-.5 1.6v3.4h-1Zm9.3-1 .2 1h-.8l-1-.1-.4-.5-.1-1.2v-3.6h-.8v-.8h.8v-1.6l1-.6v2.2h1v.8h-1v4.2l.3.2h.8Zm.2-1.5h1q.1.9.4 1.2.4.4 1 .4.4 0 .7-.2.3-.2.4-.5l.1-1v-6h1.2v5.8q0 1.1-.3 1.7-.3.6-.8 1-.6.2-1.3.2-1.2 0-1.8-.6-.6-.7-.6-2Zm6.2-.3h1.1q0 .6.4 1 .3.4.8.7.6.2 1.4.2.6 0 1.1-.2.5-.2.7-.5.3-.4.3-.7 0-.5-.3-.7-.2-.4-.7-.6l-1.6-.4-1.6-.5q-.6-.3-1-.8l-.2-1q0-.7.3-1.3.4-.6 1.1-.9.7-.3 1.6-.3 1 0 1.7.4.7.3 1.1.9.4.6.4 1.3h-1q-.2-.7-.7-1.1-.5-.5-1.5-.5t-1.5.4q-.4.4-.4 1 0 .4.3.7.3.3 1.7.6t2 .6q.7.3 1 .8.4.6.4 1.3 0 .6-.4 1.3-.4.6-1.1.9-.8.3-1.7.3-1.2 0-2-.3-.7-.3-1.2-1-.4-.7-.5-1.6Zm-31.4 38.6 1 .3q-.3 1.4-1.2 2.1-1 .7-2.3.7-1.4 0-2.2-.5-.9-.6-1.4-1.6-.4-1.1-.4-2.4 0-1.3.5-2.3.5-1 1.5-1.5t2-.5q1.3 0 2.2.6.9.7 1.2 1.9l-1 .2q-.4-1-1-1.3-.5-.5-1.4-.5-1 0-1.6.5-.7.5-1 1.3l-.2 1.6q0 1.1.3 2 .3.8 1 1.2.6.4 1.4.4 1 0 1.7-.6.6-.5.9-1.6Zm2.7 3v-8.6h1v8.6h-1Zm3-7.4v-1.2h1v1.2h-1Zm0 7.4v-6.2h1v6.2h-1Zm7.2-2 1.1.1q-.2 1-1 1.5-.6.5-1.7.5-1.4 0-2.2-.8-.8-.8-.8-2.4 0-1.5.8-2.4.9-.9 2.1-.9 1.3 0 2 .9.9.8.9 2.4v.3H88q0 1 .6 1.5.5.6 1.3.6.6 0 1-.3t.6-1Zm-3.4-1.7h3.5q-.1-.8-.4-1.2-.5-.6-1.3-.6t-1.3.5q-.5.5-.5 1.3Zm6.2 3.7v-6.2h1v.9q.6-1 2-1l1 .1q.4.2.7.6l.3.7v4.9h-1V162l-.1-1q-.2-.3-.5-.4-.3-.3-.7-.3-.7 0-1.2.5-.5.4-.5 1.6v3.4h-1Zm9.3-1 .2 1H102l-.4-.6-.1-1.2v-3.6h-.8v-.8h.8V158l1-.6v2.2h1v.8h-1v4.2l.3.2h.8Zm.2-1.4 1-.2q.1 1 .4 1.4.4.3 1 .3.4 0 .7-.2.3-.2.4-.5l.1-1v-6h1.2v5.9q0 1-.3 1.6-.3.6-.8 1-.6.2-1.3.2-1.2 0-1.8-.6-.6-.7-.6-2Zm6.2-.4h1.1q0 .6.4 1 .3.4.8.7.6.2 1.4.2.6 0 1.1-.2.5-.2.7-.5.3-.3.3-.7 0-.4-.3-.7-.2-.3-.7-.5l-1.6-.5-1.6-.5q-.6-.3-1-.8l-.2-1q0-.7.3-1.3.4-.6 1.1-.8.7-.3 1.6-.3 1 0 1.7.3t1.1.9q.4.6.4 1.3l-1 .1q-.2-.8-.7-1.2-.5-.4-1.5-.4t-1.5.3q-.4.4-.4 1 0 .4.3.7.3.3 1.7.6t2 .6q.7.3 1 .9.4.5.4 1.2t-.4 1.3q-.4.6-1.1 1-.8.2-1.7.2-1.2 0-2-.3-.7-.3-1.2-1-.4-.7-.5-1.6Zm-38.6 41.6V196H73l2 6.1.4 1.3.5-1.4 2-6h1.6v8.6h-1.1v-7.2l-2.5 7.2h-1l-2.5-7.3v7.3h-1.1Zm13-.7q-.6.5-1.2.7-.5.2-1.1.2-1 0-1.6-.5-.6-.5-.6-1.3 0-.5.2-.9l.6-.6.8-.3.9-.2q1.3-.1 1.9-.3v-.3q0-.7-.3-1-.4-.3-1.2-.3-.8 0-1.1.3-.4.2-.6.9l-1-.1q.2-.7.5-1.1.3-.4 1-.6.5-.2 1.3-.2l1.3.1.8.5.3.7v4.3l.4.7h-1.1q-.2-.3-.2-.7Zm-.1-2.4-1.8.4q-.6 0-.9.2l-.4.3-.1.5q0 .5.3.7.3.3 1 .3l1-.2q.5-.3.7-.8.2-.3.2-1v-.4Zm2.3 3.1 2.3-3.2-2.1-3H88l1 1.5.4.7.4-.7 1-1.5h1.4l-2.2 3 2.3 3.2H91l-1.3-2-.3-.4-1.6 2.4h-1.3Zm5.8 0V196H94l2 6.1.4 1.3.5-1.4 2-6h1.6v8.6h-1.1v-7.2l-2.5 7.2h-1l-2.5-7.3v7.3h-1.1Zm8.9-7.4V196h1v1.2h-1Zm0 7.4v-6.2h1v6.2h-1Zm3 0v-6.2h1v.9q.6-1 2-1l1 .2.7.5.3.8v4.8h-1v-3.8l-.1-1-.5-.4q-.3-.2-.7-.2-.7 0-1.2.4t-.5 1.6v3.4h-1Zm11 0v-.8q-.6 1-1.7 1-.8 0-1.4-.4-.6-.5-1-1.2-.3-.7-.3-1.7t.3-1.7q.3-.7 1-1.1.6-.4 1.3-.4.6 0 1 .2.5.2.8.6v-3h1v8.5h-1Zm-3.3-3q0 1.1.5 1.7.5.6 1.2.6t1.2-.6q.4-.5.4-1.7 0-1.3-.5-1.9-.4-.6-1.2-.6-.7 0-1.1.6-.5.6-.5 1.8Zm-53.4 41.8V236h-2.8v-1h6.8v1h-2.9v7.5h-1Zm4.7 0v-6.2h1v1q.3-.7.6-1l.7-.1q.5 0 1 .3l-.3 1-.8-.2-.6.2q-.3.2-.4.5-.2.6-.2 1.3v3.2h-1Zm8 0v-.9q-.7 1-2 1l-1-.1q-.4-.2-.6-.6-.3-.3-.4-.8v-4.8h1v4.5q.2.5.5.7.3.3.8.3t.9-.3q.4-.2.6-.6.2-.5.2-1.3v-3.3h1v6.2h-1Zm5.6 0-3.4-8.6h1.3l2.2 6.3.5 1.4.4-1.4 2.3-6.3h1.2l-3.4 8.6h-1Zm8.5-.7q-.6.5-1.2.7-.5.2-1.1.2-1 0-1.6-.5-.6-.5-.6-1.3 0-.5.2-.8.2-.4.6-.6.3-.3.8-.4l.9-.2q1.3-.1 1.9-.3v-.3q0-.6-.3-1-.4-.3-1.2-.3-.8 0-1.1.3-.4.3-.6 1l-1-.2q.2-.7.5-1 .3-.5 1-.7.5-.2 1.3-.2t1.3.2q.5.1.8.4l.3.7v4.3l.4.7h-1.1q-.2-.3-.2-.7Zm-.1-2.4-1.8.4-.9.2-.4.4-.1.5q0 .4.3.7.3.2 1 .2l1-.2q.5-.3.7-.8.2-.3.2-1v-.4Zm3 3.1v-8.6h1v8.6h-1Zm3-7.3v-1.3h1v1.3h-1Zm0 7.3v-6.2h1v6.2h-1Zm7 0v-.7q-.6.9-1.7.9-.8 0-1.4-.4-.6-.5-1-1.2t-.3-1.7q0-.9.3-1.7.3-.7 1-1.1.6-.4 1.3-.4.6 0 1 .2.5.2.8.6v-3h1v8.5h-1Zm-3.3-3q0 1.1.5 1.7.5.6 1.2.6t1.2-.6q.4-.5.4-1.7 0-1.3-.5-1.9-.4-.6-1.2-.6-.7 0-1.1.6-.5.6-.5 1.8Zm10.4 2.3q-.6.5-1.2.7-.5.2-1.1.2-1 0-1.6-.5-.6-.5-.6-1.3 0-.5.2-.8.2-.4.6-.6.3-.3.8-.4l.9-.2q1.3-.1 1.9-.3v-.3q0-.6-.3-1-.4-.3-1.2-.3-.8 0-1.1.3-.4.3-.6 1l-1-.2q.2-.7.5-1 .3-.5 1-.7.5-.2 1.3-.2t1.3.2q.5.1.8.4l.3.7v4.3l.4.7h-1.1q-.2-.3-.2-.7Zm-.1-2.4-1.8.4-.9.2-.4.4-.1.5q0 .4.3.7.3.2 1 .2l1-.2q.5-.3.7-.8.2-.3.2-1v-.4Zm5.3 2.2.2 1h-.8q-.6 0-1-.2l-.4-.4-.1-1.3V238h-.8v-.8h.8v-1.5l1-.7v2.2h1v.8h-1v4.2q.1.2.3.2l.3.1h.5Zm5-1h1q-.2 1-1 1.5-.6.6-1.7.6-1.4 0-2.2-.9-.8-.8-.8-2.3 0-1.6.8-2.5.9-.8 2.1-.8 1.3 0 2 .8.9.9.9 2.4v.3H112q0 1 .6 1.6.5.5 1.3.5.6 0 1-.3t.6-1Zm-3.5-1.8h3.5q-.1-.8-.4-1.2-.5-.6-1.3-.6t-1.3.5q-.5.5-.5 1.3Zm-57.5 42.6v-7.6h-2.8v-1h6.8v1h-2.9v7.5h-1Zm4.7 0v-8.6h1v3q.8-.8 1.9-.8.7 0 1.2.3.5.2.7.7.3.5.3 1.4v4h-1v-4q0-.8-.4-1.1t-1-.4q-.5 0-.9.2-.4.3-.6.7-.2.4-.2 1.1v3.4h-1Zm7 0V276h1v1q.3-.7.6-.9.3-.2.7-.2.5 0 1 .3l-.3 1-.8-.2-.6.2q-.3.2-.4.6-.2.5-.2 1.2v3.2h-1Zm8.2-2h1.1q-.2 1-1 1.6-.6.5-1.7.5-1.4 0-2.2-.9-.8-.8-.8-2.3 0-1.6.8-2.4.9-1 2.1-1 1.3 0 2 1 .9.8.9 2.3v.3H71q0 1 .6 1.6.5.5 1.3.5.6 0 1-.3t.6-1Zm-3.4-1.8h3.5q-.1-.8-.4-1.1-.5-.7-1.3-.7t-1.3.5q-.5.5-.5 1.3Zm10.3 3q-.6.5-1.2.7-.5.2-1.1.2-1 0-1.6-.5-.6-.5-.6-1.3l.2-.8q.2-.4.6-.6.3-.3.8-.4l.9-.1 1.9-.4v-.3q0-.6-.3-.9-.4-.3-1.2-.3-.8 0-1.1.2-.4.3-.6 1l-1-.2q.2-.7.5-1 .3-.5 1-.7.5-.2 1.3-.2t1.3.2l.8.4.3.8v4.2l.4.7h-1.1q-.2-.3-.2-.7Zm-.1-2.4q-.6.3-1.8.4l-.9.3q-.2 0-.4.3l-.1.5q0 .4.3.7.3.3 1 .3.5 0 1-.3t.7-.7q.2-.4.2-1v-.5Zm5.3 2.2.1 1H86l-1-.1-.4-.5-.1-1.3v-3.6h-.8v-.8h.8v-1.5l1-.6v2.1h1v.8h-1v4.3l.3.2h.8Zm.8 1v-8.6H89l2 6 .4 1.3.5-1.4 2-6h1.6v8.6h-1.1v-7.1l-2.5 7.1h-1l-2.5-7.3v7.3h-1.1Zm13.1-2h1.1q-.2 1-1 1.6-.6.5-1.7.5-1.4 0-2.2-.9-.8-.8-.8-2.3 0-1.6.8-2.4.9-1 2.1-1 1.3 0 2 1 .9.8.9 2.3v.3H97q0 1 .6 1.6.5.5 1.3.5.6 0 1-.3t.6-1Zm-3.4-1.8h3.5q-.1-.8-.4-1.1-.5-.7-1.3-.7t-1.3.5q-.5.5-.5 1.3Zm8.5 2.8.1 1h-.7l-1-.1-.4-.5-.1-1.3v-3.6h-.8v-.8h.8v-1.5l1-.6v2.1h1v.8h-1v4.3l.3.2h.8Zm.7 1V276h1v1q.3-.7.6-.9.3-.2.7-.2.5 0 1 .3l-.3 1-.8-.2-.6.2q-.3.2-.4.6-.2.5-.2 1.2v3.2h-1Zm4-7.4v-1.2h1v1.2h-1Zm0 7.3V276h1v6.3h-1Zm2.3 0 2.3-3.2-2.1-3h1.3l1 1.5.4.7.4-.7 1-1.5h1.3l-2.1 3 2.3 3.2h-1.3l-1.3-1.9-.3-.5-1.6 2.4h-1.3Zm-6.1 35q0-1.5.3-2.4.3-1 1-1.5.6-.5 1.5-.5.7 0 1.2.3t.9.8q.3.5.5 1.3.2.7.2 2 0 1.5-.3 2.5-.3.9-1 1.4-.5.5-1.5.5-1.2 0-2-.9-.8-1-.8-3.5Zm1 0q0 2.1.6 2.8.5.7 1.2.7t1.2-.7q.5-.7.5-2.8 0-2.1-.5-2.8-.5-.7-1.2-.7t-1.2.6q-.5.8-.5 3Zm6.6 4.3v-1.3h1.2v1.3h-1.2Zm2.4-4.3q0-1.5.3-2.4.3-1 1-1.5.6-.5 1.5-.5.7 0 1.2.3t.9.8q.3.5.5 1.3.2.7.2 2 0 1.5-.3 2.5-.3.9-1 1.4-.5.5-1.5.5-1.2 0-2-.9-.8-1-.8-3.5Zm1 0q0 2.1.6 2.8.5.7 1.2.7t1.2-.7q.5-.7.5-2.8 0-2.1-.5-2.8-.5-.7-1.2-.7t-1.2.6q-.5.8-.5 3Zm6 0q0-1.5.3-2.4.3-1 1-1.5.6-.5 1.5-.5.7 0 1.2.3t.9.8q.3.5.5 1.3.2.7.2 2 0 1.5-.3 2.5-.3.9-1 1.4-.5.5-1.5.5-1.2 0-2-.9-.8-1-.8-3.5Zm1 0q0 2.1.6 2.8.5.7 1.2.7t1.2-.7q.5-.7.5-2.8 0-2.1-.5-2.8-.5-.7-1.2-.7t-1.2.6q-.5.8-.5 3Zm6.2-2.3q0-.9.5-1.5.4-.7 1.3-.7.8 0 1.3.6.6.6.6 1.7 0 1-.6 1.7-.5.5-1.3.5t-1.3-.5q-.5-.6-.5-1.8Zm1.8-1.5q-.4 0-.6.4-.3.3-.3 1.2 0 .9.3 1.2.2.3.6.3.4 0 .7-.3.3-.4.3-1.3 0-.8-.3-1.1-.3-.4-.7-.4Zm0 8.4 4.7-9h.9l-4.7 9h-.9Zm3.8-2.4q0-.9.4-1.5.5-.7 1.4-.7.8 0 1.3.6t.5 1.7q0 1-.5 1.7-.5.6-1.3.6t-1.3-.6q-.5-.6-.5-1.8Zm1.8-1.5q-.4 0-.7.4-.2.3-.2 1.2 0 .9.2 1.2.3.3.7.3.4 0 .7-.3t.2-1.3q0-.8-.2-1.1-.3-.4-.7-.4Zm81.4-.7q0-1.5.3-2.4.3-1 1-1.5.6-.5 1.5-.5.7 0 1.2.3t.9.8q.3.5.5 1.3.2.7.2 2 0 1.5-.3 2.5-.3.9-1 1.4-.6.5-1.5.5-1.2 0-2-.9-.8-1-.8-3.5Zm1 0q0 2.1.6 2.8.5.7 1.2.7t1.2-.7q.5-.7.5-2.8 0-2.1-.5-2.8-.5-.7-1.2-.7t-1.2.6q-.5.8-.5 3Zm6.6 4.3v-1.3h1.2v1.3h-1.2Zm8-1v1h-5.7v-.8q.3-.6.8-1.1l1.4-1.3q1.4-1.2 1.9-1.9.5-.6.5-1.2t-.5-1q-.5-.5-1.2-.5t-1.2.5q-.4.4-.5 1.2h-1q0-1.3.8-2 .7-.6 2-.6 1.2 0 2 .7.6.7.6 1.7l-.2 1q-.2.5-.7 1l-1.6 1.6-1.2 1-.5.6h4.2Zm1.4-3.3q0-1.5.3-2.4.3-1 1-1.5.6-.5 1.5-.5.7 0 1.2.3t.9.8q.3.5.5 1.3.2.7.2 2 0 1.5-.3 2.5-.3.9-1 1.4-.6.5-1.5.5-1.2 0-2-.9-.8-1-.8-3.5Zm1 0q0 2.1.6 2.8.5.7 1.2.7t1.2-.7q.5-.7.5-2.8 0-2.1-.5-2.8-.5-.7-1.2-.7t-1.2.6q-.5.8-.5 3Zm6.2-2.3q0-.9.5-1.5.4-.7 1.3-.7.8 0 1.3.6.6.6.6 1.7 0 1-.6 1.7-.5.5-1.3.5t-1.3-.5q-.5-.6-.5-1.8Zm1.8-1.5q-.4 0-.6.4-.3.3-.3 1.2 0 .9.3 1.2.2.3.6.3.4 0 .7-.3.3-.4.3-1.3 0-.8-.3-1.1-.3-.4-.7-.4Zm0 8.4 4.7-9h.9l-4.7 9h-.9Zm3.8-2.4q0-.9.4-1.5.5-.7 1.4-.7.8 0 1.3.6t.5 1.7q0 1-.5 1.7-.5.6-1.3.6t-1.3-.6q-.5-.6-.5-1.8Zm1.8-1.5q-.4 0-.7.4-.2.3-.2 1.2 0 .9.2 1.2.3.3.7.3.4 0 .6-.3t.3-1.3q0-.8-.3-1.1-.2-.4-.6-.4Zm81.4-.7q0-1.5.3-2.4.3-1 1-1.5.6-.5 1.5-.5.7 0 1.2.3t.9.8q.3.5.5 1.3.2.7.2 2 0 1.5-.3 2.5-.3.9-1 1.4-.6.5-1.5.5-1.2 0-2-.9-.8-1-.8-3.5Zm1 0q0 2.1.6 2.8.5.7 1.2.7t1.2-.7q.5-.7.5-2.8 0-2.1-.5-2.8-.5-.7-1.2-.7t-1.2.6q-.5.8-.5 3Zm6.6 4.3v-1.3h1.2v1.3h-1.2Zm5.8 0v-2.1h-3.7v-1l3.9-5.5h.8v5.5h1.2v1h-1.2v2h-1Zm0-3v-4l-2.7 4h2.7Zm3.6-1.3q0-1.5.3-2.4.3-1 1-1.5.6-.5 1.5-.5.7 0 1.2.3t.9.8q.3.5.5 1.3.2.7.2 2 0 1.5-.3 2.5-.3.9-1 1.4-.6.5-1.5.5-1.2 0-2-.9-.8-1-.8-3.5Zm1 0q0 2.1.6 2.8.5.7 1.2.7t1.2-.7q.5-.7.5-2.8 0-2.1-.5-2.8-.5-.7-1.2-.7t-1.2.6q-.5.8-.5 3Zm6.2-2.3q0-.9.5-1.5.4-.7 1.3-.7.8 0 1.3.6.6.6.6 1.7 0 1-.6 1.7-.5.5-1.3.5t-1.3-.5q-.5-.6-.5-1.8Zm1.8-1.5q-.4 0-.6.4-.3.3-.3 1.2 0 .9.3 1.2.2.3.6.3.4 0 .7-.3.3-.4.3-1.3 0-.8-.3-1.1-.3-.4-.7-.4Zm0 8.4 4.7-9h.9l-4.7 9h-.9Zm3.7-2.4q0-.9.5-1.5.5-.7 1.4-.7.8 0 1.3.6t.5 1.7q0 1-.5 1.7-.5.6-1.3.6t-1.3-.6q-.6-.6-.6-1.8Zm1.9-1.5q-.4 0-.7.4-.2.3-.2 1.2 0 .9.2 1.2.3.3.7.3.4 0 .6-.3t.3-1.3q0-.8-.3-1.1-.2-.4-.6-.4Zm81.4-.7q0-1.5.3-2.4.3-1 1-1.5.6-.5 1.5-.5.7 0 1.2.3t.9.8q.3.5.5 1.3.2.7.2 2 0 1.5-.3 2.5-.3.9-1 1.4-.6.5-1.5.5-1.2 0-2-.9-.8-1-.8-3.5Zm1 0q0 2.1.6 2.8.5.7 1.2.7t1.2-.7q.5-.7.5-2.8 0-2.1-.5-2.8-.5-.7-1.2-.7t-1.2.6q-.5.8-.5 3Zm6.6 4.3v-1.3h1.2v1.3h-1.2Zm7.9-6.5h-1q-.2-.6-.5-.9-.4-.4-1-.4-.5 0-1 .3-.4.3-.7 1-.3.7-.3 2 .4-.6 1-.8.5-.3 1-.3 1.1 0 1.9.8.7.7.7 2 0 .8-.3 1.5-.4.7-1 1-.6.4-1.4.4-1.3 0-2.1-1t-.8-3.2q0-2.5.9-3.6.8-1 2.1-1 1 0 1.7.6.6.6.8 1.6Zm-4.3 3.7.2 1q.2.5.6.8l1 .2q.6 0 1-.5.5-.5.5-1.5 0-.9-.4-1.4-.5-.5-1.2-.5t-1.2.5q-.5.5-.5 1.4Zm5.8-1.5q0-1.5.3-2.4.3-1 1-1.5.6-.5 1.5-.5.7 0 1.2.3t.9.8q.3.5.5 1.3.2.7.2 2 0 1.5-.3 2.5-.3.9-1 1.4-.6.5-1.5.5-1.2 0-2-.9-.8-1-.8-3.5Zm1 0q0 2.1.6 2.8.5.7 1.2.7t1.2-.7q.5-.7.5-2.8 0-2.1-.5-2.8-.5-.7-1.2-.7t-1.2.6q-.5.8-.5 3Zm6.2-2.3q0-.9.5-1.5.4-.7 1.3-.7.8 0 1.3.6.6.6.6 1.7 0 1-.6 1.7-.5.5-1.3.5t-1.3-.5q-.5-.6-.5-1.8Zm1.8-1.5q-.4 0-.6.4-.3.3-.3 1.2 0 .9.3 1.2.2.3.6.3.4 0 .7-.3.3-.4.3-1.3 0-.8-.3-1.1-.3-.4-.7-.4Zm0 8.4 4.7-9h.9l-4.7 9h-.9Zm3.7-2.4q0-.9.5-1.5.5-.7 1.4-.7.8 0 1.3.6t.5 1.7q0 1-.5 1.7-.5.6-1.3.6t-1.3-.6q-.6-.6-.6-1.8Zm1.9-1.5q-.4 0-.7.4-.2.3-.2 1.2 0 .9.2 1.2.3.3.7.3.4 0 .6-.3t.3-1.3q0-.8-.3-1.1-.2-.4-.6-.4Zm81.4-.7q0-1.5.3-2.4.3-1 1-1.5.6-.5 1.5-.5.7 0 1.2.3t.9.8q.3.5.5 1.3.2.7.2 2 0 1.5-.3 2.5-.3.9-1 1.4-.6.5-1.5.5-1.2 0-2-.9-.8-1-.8-3.5Zm1 0q0 2.1.6 2.8.5.7 1.2.7t1.2-.7q.5-.7.5-2.8 0-2.1-.5-2.8-.5-.7-1.2-.7t-1.2.6q-.5.8-.5 3Zm6.6 4.3v-1.3h1.2v1.3h-1.2Zm4-4.7-1-.7q-.3-.4-.3-1 0-1 .7-1.6.7-.7 1.8-.7t1.8.7q.7.6.7 1.6 0 .6-.3 1t-1 .7q.8.2 1.2.8.4.6.4 1.4 0 1-.7 1.8-.8.8-2 .8-1.4 0-2.1-.8-.8-.7-.8-1.8 0-.9.4-1.4.4-.6 1.2-.8Zm-.2-1.8q0 .6.4 1t1 .4q.6 0 1-.4t.4-1q0-.5-.4-1-.4-.3-1-.3t-1 .4q-.4.4-.4.9Zm-.3 4 .2.8q.2.5.6.7.4.2 1 .2.7 0 1.2-.5.5-.4.5-1.2 0-.8-.5-1.3t-1.3-.5q-.8 0-1.2.5-.5.5-.5 1.3Zm5.9-1.8q0-1.5.3-2.4.3-1 1-1.5.6-.5 1.5-.5.7 0 1.2.3t.9.8q.3.5.5 1.3.2.7.2 2 0 1.5-.3 2.5-.3.9-1 1.4-.6.5-1.5.5-1.2 0-2-.9-.8-1-.8-3.5Zm1 0q0 2.1.6 2.8.5.7 1.2.7t1.2-.7q.5-.7.5-2.8 0-2.1-.5-2.8-.5-.7-1.2-.7t-1.2.6q-.5.8-.5 3Zm6.2-2.3q0-.9.5-1.5.4-.7 1.3-.7.8 0 1.3.6.6.6.6 1.7 0 1-.6 1.7-.5.5-1.3.5t-1.3-.5q-.5-.6-.5-1.8Zm1.8-1.5q-.4 0-.6.4-.3.3-.3 1.2 0 .9.3 1.2.2.3.6.3.4 0 .7-.3.3-.4.3-1.3 0-.8-.3-1.1-.3-.4-.7-.4Zm0 8.4 4.7-9h.9l-4.7 9h-.9Zm3.7-2.4q0-.9.5-1.5.5-.7 1.4-.7.8 0 1.3.6t.5 1.7q0 1-.5 1.7-.5.6-1.3.6t-1.3-.6q-.6-.6-.6-1.8Zm1.9-1.5q-.4 0-.7.4-.2.3-.2 1.2 0 .9.2 1.2.3.3.7.3.4 0 .6-.3t.3-1.3q0-.8-.3-1.1-.2-.4-.6-.4Z"/><path fill="#a8caba" d="M230.6 79a1 1 0 0 1 1-1h10a1 1 0 0 1 1 1v10a1 1 0 0 1-1 1h-10a1 1 0 0 1-1-1Z"/><path fill="#838689" d="M255.4 88v-.8q-.6 1-1.7 1-.8 0-1.4-.5-.6-.4-1-1.1-.3-.8-.3-1.7 0-1 .3-1.7.3-.8 1-1.2.5-.4 1.3-.4.6 0 1 .3.5.2.7.6v-3h1V88h-.9Zm-3.3-3.1q0 1.2.5 1.8.5.6 1.2.6.6 0 1.1-.6.5-.6.5-1.7 0-1.3-.5-1.9-.5-.6-1.2-.6t-1.2.6q-.4.6-.4 1.8Zm10.5 1.1 1.1.1q-.2 1-1 1.5-.6.5-1.7.5-1.4 0-2.2-.8-.8-.8-.8-2.4 0-1.5.8-2.4.8-.9 2.1-.9t2 .9q.8.8.8 2.4v.3h-4.6q0 1 .6 1.5.5.6 1.3.6.6 0 1-.3t.6-1Zm-3.4-1.7h3.4q0-.8-.4-1.2-.5-.6-1.3-.6-.7 0-1.2.5t-.5 1.3Zm5.7 1.8 1-.1q.2.6.6 1 .4.3 1.1.3.7 0 1-.3.4-.3.4-.7 0-.4-.3-.6l-1-.3-1.7-.5-.7-.6q-.2-.4-.2-.9 0-.4.2-.7.2-.4.5-.6l.7-.3q.4-.2 1-.2t1.2.3l.8.5q.3.4.4 1l-1 .1q-.1-.5-.5-.7-.3-.3-1-.3-.6 0-1 .3-.3.2-.3.5l.2.4.4.3.9.2 1.6.5q.4.2.6.6.3.3.3.9 0 .5-.3 1-.3.4-.9.7-.6.2-1.3.2-1.2 0-1.9-.5-.6-.5-.8-1.5Zm7.5 1.9v-8.6h1v5l2.5-2.6h1.4l-2.4 2.3 2.6 3.9h-1.3l-2-3.2-.8.7V88h-1Zm8.3-1 .1 1h-1.7l-.4-.6-.1-1.2v-3.6h-.8v-.8h.8v-1.6l1-.6v2.2h1v.8h-1v4.2l.2.2h.9Zm.3-2.1q0-1.7 1-2.6.7-.7 1.9-.7 1.3 0 2 .9.9.8.9 2.3 0 1.2-.4 1.9-.3.7-1 1-.7.4-1.5.4-1.3 0-2.1-.8T281 85Zm1 0q0 1.2.6 1.8.5.6 1.3.6t1.3-.6q.5-.6.5-1.8 0-1.2-.5-1.8-.5-.6-1.3-.6t-1.3.6q-.5.6-.5 1.8Zm6.4 5.5v-8.6h1v.8q.3-.5.7-.7.4-.3 1-.3.8 0 1.4.4.6.5 1 1.2.3.8.3 1.6 0 1-.4 1.8-.3.7-1 1.1-.6.4-1.3.4-.6 0-1-.2l-.7-.5v3h-1Zm1-5.5q0 1.2.4 1.8.5.6 1.2.6t1.2-.6q.5-.6.5-1.9 0-1.2-.5-1.7-.5-.6-1.2-.6t-1.2.6q-.5.6-.5 1.8Z"/><path fill="#62718b" d="M310.6 79a1 1 0 0 1 1-1h10a1 1 0 0 1 1 1v10a1 1 0 0 1-1 1h-10a1 1 0 0 1-1-1Z"/><path fill="#838689" d="M331.4 88v-6.2h.9v.9q.3-.5.8-.8.5-.3 1-.3.8 0 1.2.3.5.3.6.8.8-1 2-1 .9 0 1.4.5.5.5.5 1.5V88h-1v-4q0-.5-.2-.8 0-.3-.3-.5t-.7-.2q-.6 0-1 .5-.5.4-.5 1.4V88h-1v-4q0-.7-.3-1-.3-.5-.8-.5t-.9.3q-.3.2-.5.7-.2.4-.2 1.3V88h-1Zm10.6-3.1q0-1.7 1-2.6.7-.7 1.9-.7 1.3 0 2 .9.9.8.9 2.3 0 1.2-.4 1.9-.3.7-1 1-.7.4-1.5.4-1.3 0-2.1-.8T342 85Zm1 0q0 1.2.6 1.8.5.6 1.3.6t1.3-.6q.5-.6.5-1.8 0-1.2-.5-1.8-.5-.6-1.3-.6t-1.3.6q-.5.6-.5 1.8Zm7.3 3.1h-1v-8.6h1.1v3q.7-.8 1.7-.8.6 0 1 .3.6.2 1 .6l.5 1q.2.6.2 1.3 0 1.6-.8 2.5-.8.8-2 .8-1 0-1.7-.9v.8Zm0-3.2q0 1.2.3 1.7.5.8 1.4.8.7 0 1.2-.6t.5-1.8q0-1.2-.5-1.8-.5-.6-1.2-.6t-1.2.6q-.5.6-.5 1.7Zm6-4.2v-1.2h1.1v1.2h-1Zm0 7.4v-6.2h1.1V88h-1Zm3 0v-8.6h1.1V88h-1Zm7.3-2 1.1.1q-.2 1-1 1.5-.6.5-1.7.5-1.4 0-2.2-.8-.8-.8-.8-2.4 0-1.5.8-2.4.8-.9 2.1-.9t2 .9q.8.8.8 2.4v.3h-4.6q0 1 .6 1.5.5.6 1.3.6.6 0 1-.3t.6-1Zm-3.4-1.7h3.4q0-.8-.4-1.2-.5-.6-1.3-.6-.7 0-1.2.5t-.5 1.3ZM213.9 61.6l-2.7-10h1.4l1.5 6.6.5 2 .4-1.8 2-6.8h1.5l1.4 5q.6 2 .8 3.6l.5-2.1 1.6-6.5h1.3l-2.7 10H220l-2-7.6-.3-1.2-.3 1.2-2.1 7.6h-1.4Zm16-2.3 1.3.1q-.3 1.2-1 1.8-.9.6-2.2.6-1.6 0-2.5-1-1-1-1-2.7 0-1.9 1-2.9t2.5-1q1.4 0 2.3 1 1 1 1 2.8v.3h-5.5q.1 1.2.7 1.8.6.7 1.6.7.6 0 1-.4.6-.3.9-1.1Zm-4-2h4q0-1-.4-1.4-.6-.7-1.5-.7t-1.4.6q-.6.6-.7 1.5Zm8.2 4.3H233v-10h1.2v3.6q.8-1 2-1 .7 0 1.3.3t1 .7l.6 1.2q.2.7.2 1.5 0 1.9-1 2.9-.9 1-2.2 1-1.2 0-2-1v.8Zm0-3.7q0 1.4.4 2 .6.9 1.5.9.8 0 1.4-.7.6-.7.6-2.1 0-1.4-.5-2.1-.6-.7-1.4-.7-.8 0-1.4.7-.6.7-.6 2Zm10 3.7 3.8-10h1.4l4.1 10H252l-1.2-3h-4.1l-1.1 3H244Zm2.8-4h3.4l-1-2.9-.7-2q-.2 1-.6 1.9l-1 3Zm7 4v-10h1.3v10H254Zm3 0v-7.2h1.2v1q.3-.5.9-.9.6-.3 1.3-.3.8 0 1.3.4.5.3.7.9 1-1.3 2.3-1.3 1 0 1.6.6.6.6.6 1.8v5h-1.2v-4.5l-.1-1.1q-.1-.3-.4-.5l-.8-.2q-.7 0-1.3.5-.5.5-.5 1.6v4.2h-1.2V57q0-.8-.3-1.2-.3-.4-1-.4-.5 0-1 .3-.4.2-.6.8-.2.5-.2 1.5v3.7H257Zm15.8-.9q-.6.6-1.3.9-.6.2-1.3.2-1.2 0-1.9-.6-.6-.6-.6-1.5l.2-1 .6-.7 1-.4 1-.2q1.5-.1 2.2-.4v-.3q0-.8-.3-1-.5-.5-1.4-.5-.9 0-1.3.3t-.6 1.1l-1.2-.2q.1-.7.5-1.2t1.1-.7q.7-.3 1.7-.3.9 0 1.5.2.5.2.8.6.3.3.4.8v2.8l.1 2.2.4.8H273l-.3-.9Zm0-2.7q-.7.3-2 .5-.8 0-1.2.2-.3.1-.4.4l-.2.6q0 .5.4.8.3.3 1 .3.8 0 1.3-.3.6-.3.8-.8.2-.4.2-1.3V58Zm3.3 3.6v-7.2h1.1v1q.8-1.2 2.3-1.2.7 0 1.2.2.6.3.8.7.3.3.4.9l.1 1.2v4.4h-1.2v-4.4q0-.7-.2-1.1-.1-.4-.5-.6-.4-.2-.9-.2-.7 0-1.3.5-.6.5-.6 1.9v4H276Zm12.7-.9q-.6.6-1.3.9-.6.2-1.3.2-1.2 0-1.9-.6-.6-.6-.6-1.5l.2-1 .6-.7 1-.4 1-.2q1.5-.1 2.2-.4v-.3q0-.8-.3-1-.5-.5-1.4-.5-.9 0-1.3.3t-.6 1.1l-1.2-.2q.1-.7.5-1.2t1.1-.7q.7-.3 1.7-.3.9 0 1.5.2.5.2.8.6.3.3.4.8v2.8l.1 2.2.4.8H289l-.3-.9Zm0-2.7q-.7.3-2 .5-.8 0-1.2.2-.3.1-.4.4l-.2.6q0 .5.4.8.3.3 1 .3.8 0 1.3-.3.6-.3.8-.8.2-.4.2-1.3V58Zm8 1 1.2.1q-.2 1.3-1 2t-2 .7q-1.5 0-2.4-1-.9-1-.9-2.8 0-1.1.4-2 .4-1 1.2-1.4.8-.4 1.7-.4 1.2 0 2 .6.7.6 1 1.7l-1.3.2q-.1-.7-.6-1.1-.4-.4-1-.4-1 0-1.5.7-.6.7-.6 2 0 1.6.5 2.2.6.7 1.5.7.7 0 1.2-.4.5-.5.6-1.4Zm12.4 1.4v1.2h-6.6l.1-.8.8-1.4 1.7-1.5q1.6-1.3 2.2-2 .5-.9.5-1.6 0-.7-.5-1.2t-1.3-.5q-1 0-1.5.5t-.5 1.5l-1.3-.1q.1-1.4 1-2.2.9-.7 2.3-.7t2.3.8q.8.8.8 2 0 .6-.3 1.1-.2.6-.8 1.3-.5.6-1.9 1.7l-1.4 1.3-.5.6h5Zm1.5-3.7q0-1.8.4-2.9.4-1 1.1-1.6.7-.6 1.8-.6.8 0 1.4.3.6.3 1 1 .4.5.7 1.4.2.9.2 2.4 0 1.8-.4 2.8-.3 1.1-1 1.7-.8.6-1.9.6-1.4 0-2.3-1-1-1.3-1-4.1Zm1.3 0q0 2.5.6 3.3.6.8 1.4.8.9 0 1.4-.8.6-.9.6-3.3 0-2.5-.6-3.3-.5-.8-1.4-.8-.8 0-1.3.7-.7 1-.7 3.4Zm13.2 3.7v1.2h-6.6l.1-.8.8-1.4 1.7-1.5q1.6-1.3 2.2-2 .5-.9.5-1.6 0-.7-.5-1.2t-1.3-.5q-1 0-1.5.5t-.5 1.5l-1.3-.1q.1-1.4 1-2.2.9-.7 2.3-.7t2.3.8q.8.8.8 2 0 .6-.3 1.1-.2.6-.8 1.3-.5.6-1.9 1.7l-1.4 1.3-.5.6h5Zm8 0v1.2h-6.6l.1-.8.8-1.4 1.7-1.5q1.6-1.3 2.2-2 .5-.9.5-1.6 0-.7-.5-1.2t-1.3-.5q-1 0-1.5.5t-.5 1.5l-1.3-.1q.1-1.4 1-2.2.9-.7 2.3-.7t2.3.8q.8.8.8 2 0 .6-.3 1.1-.2.6-.8 1.3-.5.6-1.9 1.7l-1.4 1.3-.5.6h5Zm2.2-4.6v-1.4h1.4v1.4h-1.4Zm0 5.8v-1.4h1.4v1.4h-1.4Zm7.8 0v-10h3.8l1.6.1q.7.1 1.2.5.5.3.8 1 .3.6.3 1.3 0 1.3-.8 2.2-.8.9-3 .9h-2.5v4H343Zm1.4-5.2h2.6q1.2 0 1.8-.5.5-.5.5-1.3 0-.7-.3-1.1-.3-.5-.8-.6l-1.3-.1h-2.5v3.6Zm7.5 5.2v-7.2h1v1l.9-1q.3-.2.8-.2.6 0 1.2.4l-.4 1.1q-.4-.2-.9-.2-.4 0-.7.2l-.5.7-.2 1.4v3.8H352Zm5-8.6v-1.4h1.2V53H357Zm0 8.6v-7.2h1.2v7.2H357Zm5 0-2.8-7.2h1.4l1.5 4.3.5 1.5.4-1.4 1.6-4.4h1.3l-2.7 7.2H362Zm9.7-.9q-.6.6-1.3.9-.6.2-1.3.2-1.2 0-1.9-.6-.6-.6-.6-1.5l.2-1 .6-.7 1-.4 1-.2q1.5-.1 2.2-.4v-.3q0-.8-.3-1-.5-.5-1.4-.5-.9 0-1.3.3t-.6 1.1l-1.2-.2q.1-.7.5-1.2t1.1-.7q.7-.3 1.7-.3.9 0 1.5.2.5.2.8.6.3.3.4.8v2.8l.1 2.2.4.8H372l-.3-.9Zm0-2.7q-.7.3-2 .5-.8 0-1.2.2-.3.1-.4.4l-.2.6q0 .5.4.8.3.3 1 .3.8 0 1.3-.3.6-.3.8-.8.2-.4.2-1.3V58Zm8 1 1.2.1q-.2 1.3-1 2t-2 .7q-1.5 0-2.4-1-.9-1-.9-2.8 0-1.1.4-2 .4-1 1.2-1.4.8-.4 1.7-.4 1.2 0 2 .6.7.6 1 1.7l-1.3.2q-.1-.7-.6-1.1-.4-.4-1-.4-1 0-1.5.7-.6.7-.6 2 0 1.6.5 2.2.6.7 1.5.7.7 0 1.2-.4.5-.5.6-1.4Zm2.2 5.4-.1-1.1h1.4l.4-.4.3-1 .2-.3-2.8-7.2h1.3l1.5 4.2.6 1.7.5-1.7 1.5-4.2h1.2l-2.7 7.4-.7 1.6q-.3.6-.8.9-.4.3-1 .3l-.8-.2Z"/><path fill="#1a2b49" d="M140.6 21.8h10.9V25H145v2.5h5.5v2.9H145V36h-4.4V21.8Zm12.8 0h4v2.7h-4v-2.7Zm0 4h4V36h-4V25.8Zm6.9 0h3.7v1.6q.8-1 1.6-1.4 1-.5 2.1-.5 1.7 0 2.6 1 1 1 1 3v6.6h-4v-5.7q0-1-.4-1.3-.4-.5-1-.5-.8 0-1.2.6-.5.5-.5 2v5h-4V25.7Zm20.2 0h3.7V36q0 1-.4 1.9-.4.9-1.1 1.4-.7.6-1.8.8-1 .2-2.4.2-3.1 0-4.3-.9-1.1-1-1.1-2.5v-.5l3.8.4q.2.6.5.8.4.3 1 .3 1 0 1.4-.5.4-.5.4-1.6v-1.6q-.6.7-1.2 1-.9.5-2 .5-2 0-3.3-1.8-1-1.3-1-3.4 0-2.4 1.3-3.7 1.1-1.3 3-1.3 1.2 0 2 .4.8.5 1.5 1.4v-1.5Zm-3.8 5q0 1.1.5 1.7.5.5 1.3.5.7 0 1.2-.6.5-.5.5-1.7 0-1.1-.5-1.7-.5-.6-1.3-.6-.7 0-1.2.6-.5.5-.5 1.8Zm21 1.1h-7.9q.1 1 .5 1.5.6.6 1.5.6.6 0 1.1-.3.4-.1.7-.6l4 .3q-1 1.6-2.2 2.3-1.3.7-3.6.7-2.1 0-3.3-.6-1.2-.6-2-1.9-.7-1.2-.7-3 0-2.4 1.5-3.9 1.6-1.5 4.3-1.5 2.3 0 3.5.7 1.3.7 2 2 .7 1.2.7 3.3v.4Zm-4-1.9q0-1.1-.6-1.6-.5-.5-1.3-.5-1 0-1.5.7-.4.5-.5 1.4h4Zm5.6-4.2h3.7v1.7q.6-1.1 1.1-1.6.6-.4 1.5-.4.8 0 1.9.6l-1.3 2.8-1-.3q-.8 0-1.3.7-.6.9-.6 3.3v3.5h-4V25.8Zm9 14.3V25.8h3.7v1.5q.8-1 1.4-1.3.9-.5 2-.5 2 0 3.2 1.6 1.1 1.6 1.1 4 0 2.5-1.2 4-1.3 1.3-3.2 1.3-.9 0-1.7-.3-.7-.4-1.3-1v5h-4Zm4-9.1q0 1.2.5 1.8.5.6 1.3.6.7 0 1.2-.6.4-.5.4-2 0-1.2-.5-1.8-.4-.6-1.1-.6-.8 0-1.3.6t-.5 2Zm9-5.2h3.7v1.7q.6-1.1 1.1-1.6.6-.4 1.5-.4.8 0 1.9.6l-1.3 2.8-1-.3q-.8 0-1.3.7-.6.9-.6 3.3v3.5h-4V25.8Zm9.1-4h4v2.7h-4v-2.7Zm0 4h4V36h-4V25.8Zm6.9 0h3.7v1.6q.8-1 1.6-1.4 1-.5 2.1-.5 1.7 0 2.6 1 1 1 1 3v6.6h-4v-5.7q0-1-.4-1.3-.4-.5-1-.5-.8 0-1.2.6-.5.5-.5 2v5h-4V25.7Zm17.8-4v4h2.2v2.9H255v4.6q.3.3.8.3l1.2-.3.3 2.7q-1.5.4-2.8.4-1.4 0-2.1-.4-.7-.4-1-1.2-.4-.7-.4-2.5v-3.6h-1.5v-3h1.5V24l4-2Zm4.3 0h4v2.7h-4v-2.7Zm0 4h4V36h-4V25.8Zm6.9 0h3.7v1.6q.8-1 1.6-1.4.9-.5 2.1-.5 1.7 0 2.6 1 1 1 1 3v6.6h-4v-5.7q0-1-.4-1.3-.4-.5-1-.5-.8 0-1.2.6-.5.5-.5 2v5h-4V25.7Zm20.2 0h3.7V36q0 1-.4 1.9-.4.9-1.1 1.4-.7.6-1.8.8-1 .2-2.4.2-3.1 0-4.3-.9-1.1-1-1.1-2.5v-.5l3.8.4q.2.6.5.8.4.3 1 .3 1 0 1.4-.5.4-.5.4-1.6v-1.6q-.6.7-1.2 1-.9.5-2 .5-2 0-3.3-1.8-1-1.3-1-3.4 0-2.4 1.3-3.7 1.1-1.3 3-1.3 1.2 0 2 .4.8.5 1.5 1.4v-1.5Zm-3.8 5q0 1.1.5 1.7.5.5 1.3.5.7 0 1.2-.6.5-.5.5-1.7 0-1.1-.5-1.7-.5-.6-1.3-.6-.7 0-1.2.6-.5.5-.5 1.8Zm15.9 2.5 3.9-.4q.3.7.7 1 .4.3 1.2.3.8 0 1.2-.3.3-.3.3-.7 0-.4-.4-.6-.3-.2-1.7-.5-2-.3-2.9-.6-.8-.3-1.3-1-.6-.8-.6-1.7 0-1 .6-1.8.6-.7 1.6-1.1 1-.4 2.9-.4 1.8 0 2.7.3.9.3 1.5.9.5.6 1 1.6l-3.8.4-.5-.8q-.5-.3-1.2-.3-.6 0-1 .3-.2.2-.2.5 0 .4.4.6.3.2 1.6.4 2 .2 3 .6 1 .4 1.5 1.1.5.8.5 1.7 0 .9-.5 1.7-.6.9-1.8 1.4-1.1.5-3.1.5-2.9 0-4-.8-1.3-.8-1.6-2.3Zm24.2-1.4h-8q.1 1 .5 1.5.6.6 1.5.6.6 0 1.1-.3.4-.1.7-.6l4 .3q-1 1.6-2.2 2.3-1.3.7-3.6.7-2.1 0-3.3-.6-1.2-.6-2-1.9-.7-1.2-.7-3 0-2.4 1.5-3.9 1.6-1.5 4.3-1.5 2.3 0 3.5.7 1.3.7 2 2 .7 1.2.7 3.3v.4Zm-4-1.9q-.2-1.1-.7-1.6-.5-.5-1.3-.5-1 0-1.5.7-.4.5-.5 1.4h4Zm5.5-4.2h3.7v1.7q.6-1.1 1.1-1.6.6-.4 1.5-.4.8 0 1.9.6l-1.3 2.8-1-.3q-.8 0-1.3.7-.6.9-.6 3.3v3.5h-4V25.8Zm7.8 0h4.1l2 6.5 2.1-6.5h4L340 36h-3.5l-4.3-10.3Zm13.3-4h4v2.7h-4v-2.7Zm0 4h4V36h-4V25.8ZM360 32l3.8.4q-.3 1.2-1 2-.7 1-1.9 1.4-1 .5-2.8.5-1.6 0-2.7-.3t-2-1q-.7-.7-1.2-1.6-.4-1-.4-2.5 0-1.6.5-2.7.4-.7 1.1-1.4.7-.6 1.5-.9 1.1-.5 3-.5 2.5 0 3.8 1 1.3.8 1.9 2.6l-3.8.5q-.1-.7-.6-1-.5-.3-1.2-.3-1 0-1.7.7-.6.7-.6 2.1 0 1.3.6 2 .7.6 1.6.6.8 0 1.3-.4t.8-1.2Zm16.8-.2h-8q.1 1 .5 1.5.6.6 1.5.6.6 0 1.1-.3.4-.1.7-.6l4 .3q-1 1.6-2.2 2.3-1.3.7-3.6.7-2.1 0-3.3-.6-1.2-.6-2-1.9-.7-1.2-.7-3 0-2.4 1.5-3.9 1.6-1.5 4.3-1.5 2.3 0 3.5.7 1.3.7 2 2 .7 1.2.7 3.3v.4Zm-4-1.9q-.2-1.1-.7-1.6-.5-.5-1.3-.5-1 0-1.5.7-.4.5-.5 1.4h4Zm4.8 3.3 3.9-.4q.3.7.7 1 .4.3 1.2.3.8 0 1.2-.3.3-.3.3-.7 0-.4-.4-.6-.3-.2-1.7-.5-2-.3-2.9-.6-.8-.3-1.3-1-.6-.8-.6-1.7 0-1 .6-1.8.6-.7 1.6-1.1 1-.4 2.9-.4 1.8 0 2.7.3.9.3 1.5.9.5.6 1 1.6l-3.8.4-.5-.8q-.5-.3-1.2-.3-.6 0-1 .3-.2.2-.2.5 0 .4.4.6.3.2 1.6.4 2 .2 3 .6 1 .4 1.5 1.1.5.8.5 1.7 0 .9-.5 1.7-.6.9-1.8 1.4-1.1.5-3.1.5-2.9 0-4-.8-1.3-.8-1.6-2.3Zm30.6 2.8h-3.7v-1.7q-.8 1-1.7 1.5-.8.5-2 .5-1.7 0-2.6-1-1-1-1-3v-6.6h4v5.7q0 1 .4 1.4.3.4 1 .4t1.2-.6q.4-.5.4-2v-5h4V36Zm1.4-2.8 3.9-.4q.3.7.7 1 .4.3 1.2.3.8 0 1.2-.3.3-.3.3-.7 0-.4-.4-.6-.3-.2-1.7-.5-2-.3-2.9-.6-.8-.3-1.3-1-.6-.8-.6-1.7 0-1 .6-1.8.6-.7 1.6-1.1 1-.4 2.9-.4 1.8 0 2.7.3.9.3 1.5.9.5.6 1 1.6l-3.8.4-.5-.8q-.5-.3-1.2-.3-.6 0-1 .3-.2.2-.2.5 0 .4.4.6.3.2 1.6.4 2 .2 3 .6 1 .4 1.5 1.1.5.8.5 1.7 0 .9-.5 1.7-.6.9-1.8 1.4-1.1.5-3.1.5-2.9 0-4-.8-1.3-.8-1.6-2.3Zm16.3-4.2-3.8-.4q.2-1 .6-1.5.4-.6 1.2-1 .5-.3 1.5-.5l2-.2q1.8 0 3 .2 1 .2 1.7.9.5.4.8 1.2.3.8.3 1.6v4.5l.1 1.2.4 1H430l-.3-.6-.1-.6q-.8.7-1.6 1-1 .5-2.4.5-1.9 0-2.9-.9t-1-2.1q0-1.2.8-2 .7-.7 2.5-1l3-.7 1.3-.5q0-.7-.3-1-.3-.3-1-.3-1 0-1.5.3-.4.2-.6 1Zm3.4 2.1-1.7.5q-1.2.4-1.5.7-.3.3-.3.7 0 .5.3.8.3.3 1 .3.6 0 1.2-.4.6-.3.8-.7.2-.5.2-1.2v-.7Zm13.2-5.4h3.7V36q0 1-.4 1.9-.4.9-1.1 1.4-.7.6-1.8.8-1 .2-2.4.2-3.1 0-4.3-.9-1.1-1-1.1-2.5v-.5l3.8.4q.2.6.5.8.4.3 1 .3 1 0 1.4-.5.4-.5.4-1.6v-1.6q-.6.7-1.2 1-.9.5-2 .5-2 0-3.3-1.8-1-1.3-1-3.4 0-2.4 1.3-3.7 1.1-1.3 3-1.3 1.2 0 2 .4.8.5 1.5 1.4v-1.5Zm-3.8 5q0 1.1.5 1.7.5.5 1.3.5.7 0 1.2-.6.5-.5.5-1.7 0-1.1-.5-1.7-.5-.6-1.3-.6-.7 0-1.2.6-.5.5-.5 1.8Zm21 1.1h-7.9q.1 1 .5 1.5.6.6 1.5.6.6 0 1.1-.3.4-.1.7-.6l4 .3q-1 1.6-2.2 2.3-1.3.7-3.6.7-2.1 0-3.3-.6-1.2-.6-2-1.9-.7-1.2-.7-3 0-2.4 1.5-3.9 1.6-1.5 4.3-1.5 2.3 0 3.5.7 1.3.7 2 2 .7 1.2.7 3.3v.4Zm-4-1.9q0-1.1-.6-1.6-.5-.5-1.3-.5-1 0-1.5.7-.4.5-.5 1.4h4Z"/></svg>