<svg xmlns="http://www.w3.org/2000/svg" width="600" height="459" fill="none" stroke-linecap="square" stroke-miterlimit="10"><path fill="#fff" d="M0 0h600v459H0V0Z"/><path stroke="#333" stroke-linecap="butt" d="M173.5 106.5v287"/><path stroke="#f2f2f2" stroke-linecap="butt" d="M274.5 106.5v287m100-287v287m101-287v287m100-287v287"/><path stroke="#f9f9f9" stroke-linecap="butt" d="M193.5 106.5v287m20-287v287m21-287v287m20-287v287m40-287v287m20-287v287m20-287v287m20-287v287m40-287v287m20-287v287m20-287v287m20-287v287m41-287v287m20-287v287m20-287v287m20-287v287"/><clipPath id="a"><path d="M173.8 106.5h401.7v287H173.8v-287Z"/></clipPath><path d="M174 132v-11h367a2 2 0 0 1 2 2v7a2 2 0 0 1-2 2Z" clip-path="url(#a)"/><path fill="#a8caba" d="M174 132v-11h367a2 2 0 0 1 2 2v7a2 2 0 0 1-2 2Z" clip-path="url(#a)"/><path d="M174 171v-11h344a2 2 0 0 1 2 2v7a2 2 0 0 1-2 2Z" clip-path="url(#a)"/><path fill="#a8caba" d="M174 171v-11h344a2 2 0 0 1 2 2v7a2 2 0 0 1-2 2Z" clip-path="url(#a)"/><path d="M174 210v-11h309a2 2 0 0 1 2 2v7a2 2 0 0 1-2 2Z" clip-path="url(#a)"/><path fill="#a8caba" d="M174 210v-11h309a2 2 0 0 1 2 2v7a2 2 0 0 1-2 2Z" clip-path="url(#a)"/><path d="M174 249v-11h233a2 2 0 0 1 2 2v7a2 2 0 0 1-2 2Z" clip-path="url(#a)"/><path fill="#a8caba" d="M174 249v-11h233a2 2 0 0 1 2 2v7a2 2 0 0 1-2 2Z" clip-path="url(#a)"/><path d="M174 288v-11h96a2 2 0 0 1 2 2v7a2 2 0 0 1-2 2Z" clip-path="url(#a)"/><path fill="#a8caba" d="M174 288v-11h96a2 2 0 0 1 2 2v7a2 2 0 0 1-2 2Z" clip-path="url(#a)"/><path d="M174 327v-11h67a2 2 0 0 1 2 2v7a2 2 0 0 1-2 2Z" clip-path="url(#a)"/><path fill="#a8caba" d="M174 327v-11h67a2 2 0 0 1 2 2v7a2 2 0 0 1-2 2Z" clip-path="url(#a)"/><path d="M174 366v-11h56a2 2 0 0 1 2 2v7a2 2 0 0 1-2 2Z" clip-path="url(#a)"/><path fill="#a8caba" d="M174 366v-11h56a2 2 0 0 1 2 2v7a2 2 0 0 1-2 2Z" clip-path="url(#a)"/><path d="M174 145v-11h331a2 2 0 0 1 2 2v7a2 2 0 0 1-2 2Z" clip-path="url(#a)"/><path fill="#62718b" d="M174 145v-11h331a2 2 0 0 1 2 2v7a2 2 0 0 1-2 2Z" clip-path="url(#a)"/><path d="M174 184v-11h285a2 2 0 0 1 2 2v7a2 2 0 0 1-2 2Z" clip-path="url(#a)"/><path fill="#62718b" d="M174 184v-11h285a2 2 0 0 1 2 2v7a2 2 0 0 1-2 2Z" clip-path="url(#a)"/><path d="M174 223v-11h259a2 2 0 0 1 2 2v7a2 2 0 0 1-2 2Z" clip-path="url(#a)"/><path fill="#62718b" d="M174 223v-11h259a2 2 0 0 1 2 2v7a2 2 0 0 1-2 2Z" clip-path="url(#a)"/><path d="M174 262v-11h168a2 2 0 0 1 2 2v7a2 2 0 0 1-2 2Z" clip-path="url(#a)"/><path fill="#62718b" d="M174 262v-11h168a2 2 0 0 1 2 2v7a2 2 0 0 1-2 2Z" clip-path="url(#a)"/><path d="M174 301v-11h97a2 2 0 0 1 2 2v7a2 2 0 0 1-2 2Z" clip-path="url(#a)"/><path fill="#62718b" d="M174 301v-11h97a2 2 0 0 1 2 2v7a2 2 0 0 1-2 2Z" clip-path="url(#a)"/><path d="M174 340v-11h64a2 2 0 0 1 2 2v7a2 2 0 0 1-2 2Z" clip-path="url(#a)"/><path fill="#62718b" d="M174 340v-11h64a2 2 0 0 1 2 2v7a2 2 0 0 1-2 2Z" clip-path="url(#a)"/><path d="M174 379v-11h72a2 2 0 0 1 2 2v7a2 2 0 0 1-2 2Z" clip-path="url(#a)"/><path fill="#62718b" d="M174 379v-11h72a2 2 0 0 1 2 2v7a2 2 0 0 1-2 2Z" clip-path="url(#a)"/><path stroke="#fff" stroke-linecap="round" stroke-linejoin="round" stroke-width="3" d="M527.8 133.5q1.7 0 2.6 1.2 1.1 1.4 1.1 4.6t-1 4.7q-1 1.2-2.7 1.2-1.6 0-2.7-1.3-1-1.3-1-4.6 0-3.2 1.1-4.6 1-1.2 2.6-1.2Zm0 1.8q-.4 0-.7.3-.3.2-.5.9-.2.8-.2 2.8 0 2 .2 2.8.2.8.5 1 .3.3.7.3.4 0 .7-.3.4-.2.5-.9.2-.8.2-2.9 0-2-.2-2.7t-.5-1q-.3-.3-.7-.3Zm5.8 9.7v-2.2h2.2v2.2h-2.2Zm3.4-3 2.2-.3q0 .8.5 1.3.5.4 1 .4.8 0 1.2-.5.5-.6.5-1.4 0-.9-.4-1.3-.5-.5-1.1-.5l-1 .1.2-1.8q.9 0 1.4-.3.4-.4.4-1.1 0-.6-.3-1-.4-.3-1-.3-.5 0-.9.4t-.5 1.1l-2-.3q.2-1 .6-1.7.5-.6 1.2-1 .8-.3 1.7-.3 1.7 0 2.6 1 .8.9.8 2 0 1.4-1.6 2.3 1 .2 1.6 1 .6.7.6 1.8 0 1.5-1.2 2.5-1 1.1-2.7 1.1-1.6 0-2.6-.9T537 142Zm9 0 2.2-.3q0 .8.5 1.3.5.4 1 .4.8 0 1.2-.5.5-.6.5-1.4 0-.9-.4-1.3-.5-.5-1.1-.5l-1 .1.2-1.8q.9 0 1.4-.3.4-.4.4-1.1 0-.6-.3-1-.4-.3-1-.3-.5 0-.9.4t-.5 1.1l-2-.3q.2-1 .6-1.7.5-.6 1.2-1 .8-.3 1.7-.3 1.7 0 2.6 1 .8.9.8 2 0 1.4-1.6 2.3 1 .2 1.6 1 .6.7.6 1.8 0 1.5-1.2 2.5-1 1.1-2.7 1.1-1.6 0-2.6-.9T546 142Zm9.1-5.6q0-1.6.7-2.3.7-.8 1.8-.8 1.2 0 2 .8.6.7.6 2.3 0 1.5-.7 2.3-.7.7-1.8.7-1.2 0-1.9-.7-.7-.8-.7-2.3Zm1.7 0q0 1 .3 1.5.2.2.5.2.4 0 .6-.2.2-.4.2-1.5 0-1.2-.2-1.5-.2-.3-.6-.3-.3 0-.5.3-.3.3-.3 1.5Zm2.5 9h-1.6l6-12h1.7l-6 12Zm3.6-3q0-1.5.6-2.2.7-.8 1.9-.8t1.8.8q.7.7.7 2.2 0 1.6-.7 2.3-.6.8-1.8.8-1.2 0-1.9-.8-.6-.7-.6-2.3Zm1.7 0q0 1.1.2 1.5.2.3.6.3.3 0 .5-.3.3-.4.3-1.5t-.3-1.5q-.2-.3-.5-.3-.4 0-.6.3-.2.4-.2 1.5Z"/><path fill="#62718b" d="M527.8 133.5q1.7 0 2.6 1.2 1.1 1.4 1.1 4.6t-1 4.7q-1 1.2-2.7 1.2-1.6 0-2.7-1.3-1-1.3-1-4.6 0-3.2 1.1-4.6 1-1.2 2.6-1.2Zm0 1.8q-.4 0-.7.3-.3.2-.5.9-.2.8-.2 2.8 0 2 .2 2.8.2.8.5 1 .3.3.7.3.4 0 .7-.3.4-.2.5-.9.2-.8.2-2.9 0-2-.2-2.7t-.5-1q-.3-.3-.7-.3Zm5.8 9.7v-2.2h2.2v2.2h-2.2Zm3.4-3 2.2-.3q0 .8.5 1.3.5.4 1 .4.8 0 1.2-.5.5-.6.5-1.4 0-.9-.4-1.3-.5-.5-1.1-.5l-1 .1.2-1.8q.9 0 1.4-.3.4-.4.4-1.1 0-.6-.3-1-.4-.3-1-.3-.5 0-.9.4t-.5 1.1l-2-.3q.2-1 .6-1.7.5-.6 1.2-1 .8-.3 1.7-.3 1.7 0 2.6 1 .8.9.8 2 0 1.4-1.6 2.3 1 .2 1.6 1 .6.7.6 1.8 0 1.5-1.2 2.5-1 1.1-2.7 1.1-1.6 0-2.6-.9T537 142Zm9 0 2.2-.3q0 .8.5 1.3.5.4 1 .4.8 0 1.2-.5.5-.6.5-1.4 0-.9-.4-1.3-.5-.5-1.1-.5l-1 .1.2-1.8q.9 0 1.4-.3.4-.4.4-1.1 0-.6-.3-1-.4-.3-1-.3-.5 0-.9.4t-.5 1.1l-2-.3q.2-1 .6-1.7.5-.6 1.2-1 .8-.3 1.7-.3 1.7 0 2.6 1 .8.9.8 2 0 1.4-1.6 2.3 1 .2 1.6 1 .6.7.6 1.8 0 1.5-1.2 2.5-1 1.1-2.7 1.1-1.6 0-2.6-.9T546 142Zm9.1-5.6q0-1.6.7-2.3.7-.8 1.8-.8 1.2 0 2 .8.6.7.6 2.3 0 1.5-.7 2.3-.7.7-1.8.7-1.2 0-1.9-.7-.7-.8-.7-2.3Zm1.7 0q0 1 .3 1.5.2.2.5.2.4 0 .6-.2.2-.4.2-1.5 0-1.2-.2-1.5-.2-.3-.6-.3-.3 0-.5.3-.3.3-.3 1.5Zm2.5 9h-1.6l6-12h1.7l-6 12Zm3.6-3q0-1.5.6-2.2.7-.8 1.9-.8t1.8.8q.7.7.7 2.2 0 1.6-.7 2.3-.6.8-1.8.8-1.2 0-1.9-.8-.6-.7-.6-2.3Zm1.7 0q0 1.1.2 1.5.2.3.6.3.3 0 .5-.3.3-.4.3-1.5t-.3-1.5q-.2-.3-.5-.3-.4 0-.6.3-.2.4-.2 1.5Z"/><path stroke="#fff" stroke-linecap="round" stroke-linejoin="round" stroke-width="3" d="M481.6 172.5q1.7 0 2.6 1.2 1.2 1.4 1.2 4.6t-1.2 4.7q-.9 1.2-2.6 1.2-1.6 0-2.7-1.3-1-1.3-1-4.6 0-3.2 1.1-4.6 1-1.2 2.6-1.2Zm0 1.8q-.4 0-.7.3-.3.2-.4.9-.3.8-.3 2.8 0 2 .2 2.8.2.8.5 1 .3.3.7.3.4 0 .8-.3.3-.2.4-.9.3-.8.3-2.9 0-2-.2-2.7t-.6-1q-.3-.3-.7-.3Zm5.8 9.7v-2.2h2.2v2.2h-2.2Zm11-2v2h-7.7q0-1.2.7-2.2.6-1 2.5-2.7 1.5-1.4 1.8-2 .4-.6.4-1.3 0-.7-.4-1-.3-.5-1-.5t-1.1.4q-.4.4-.5 1.4l-2.2-.2q.2-1.8 1.2-2.6t2.6-.8q1.7 0 2.7 1 1 .8 1 2.2 0 .8-.3 1.5t-1 1.4q-.3.5-1.4 1.5l-1.3 1.2-.4.7h4.3Zm1.6-.7 2.1-.2q0 .7.4 1 .3.3.9.3.7 0 1.1-.6.5-.7.6-2.6-.8 1-2 1-1.4 0-2.4-1.1-1-1-1-2.7 0-1.8 1-2.8 1.1-1.1 2.7-1.1 1.8 0 2.9 1.3 1.1 1.4 1.1 4.5t-1.2 4.5q-1.1 1.4-3 1.4-1.3 0-2.2-.7-.8-.7-1-2.2Zm5-4.8q0-1-.5-1.6-.5-.6-1.2-.6-.6 0-1 .5t-.4 1.6q0 1 .5 1.6.4.5 1 .5.7 0 1.1-.5.5-.5.5-1.5Zm4-1.1q0-1.6.6-2.3.7-.8 1.9-.8t1.8.8q.7.7.7 2.3 0 1.5-.7 2.3-.6.7-1.8.7-1.2 0-1.9-.7-.6-.8-.6-2.3Zm1.7 0q0 1 .2 1.5.2.2.6.2.3 0 .5-.2.2-.4.2-1.5 0-1.2-.2-1.5-.2-.3-.5-.3-.4 0-.6.3-.2.3-.2 1.5Zm2.4 9h-1.6l6.1-12h1.6l-6 12Zm3.6-3q0-1.5.6-2.2.7-.8 1.9-.8t1.8.8q.7.7.7 2.2 0 1.6-.7 2.3-.6.8-1.8.8-1.2 0-1.9-.8-.6-.7-.6-2.3Zm1.7 0q0 1.1.2 1.5.2.3.6.3.3 0 .5-.3.3-.4.3-1.5t-.3-1.5q-.2-.3-.5-.3-.4 0-.6.3-.2.4-.2 1.5Z"/><path fill="#62718b" d="M481.6 172.5q1.7 0 2.6 1.2 1.2 1.4 1.2 4.6t-1.2 4.7q-.9 1.2-2.6 1.2-1.6 0-2.7-1.3-1-1.3-1-4.6 0-3.2 1.1-4.6 1-1.2 2.6-1.2Zm0 1.8q-.4 0-.7.3-.3.2-.4.9-.3.8-.3 2.8 0 2 .2 2.8.2.8.5 1 .3.3.7.3.4 0 .8-.3.3-.2.4-.9.3-.8.3-2.9 0-2-.2-2.7t-.6-1q-.3-.3-.7-.3Zm5.8 9.7v-2.2h2.2v2.2h-2.2Zm11-2v2h-7.7q0-1.2.7-2.2.6-1 2.5-2.7 1.5-1.4 1.8-2 .4-.6.4-1.3 0-.7-.4-1-.3-.5-1-.5t-1.1.4q-.4.4-.5 1.4l-2.2-.2q.2-1.8 1.2-2.6t2.6-.8q1.7 0 2.7 1 1 .8 1 2.2 0 .8-.3 1.5t-1 1.4q-.3.5-1.4 1.5l-1.3 1.2-.4.7h4.3Zm1.6-.7 2.1-.2q0 .7.4 1 .3.3.9.3.7 0 1.1-.6.5-.7.6-2.6-.8 1-2 1-1.4 0-2.4-1.1-1-1-1-2.7 0-1.8 1-2.8 1.1-1.1 2.7-1.1 1.8 0 2.9 1.3 1.1 1.4 1.1 4.5t-1.2 4.5q-1.1 1.4-3 1.4-1.3 0-2.2-.7-.8-.7-1-2.2Zm5-4.8q0-1-.5-1.6-.5-.6-1.2-.6-.6 0-1 .5t-.4 1.6q0 1 .5 1.6.4.5 1 .5.7 0 1.1-.5.5-.5.5-1.5Zm4-1.1q0-1.6.6-2.3.7-.8 1.9-.8t1.8.8q.7.7.7 2.3 0 1.5-.7 2.3-.6.7-1.8.7-1.2 0-1.9-.7-.6-.8-.6-2.3Zm1.7 0q0 1 .2 1.5.2.2.6.2.3 0 .5-.2.2-.4.2-1.5 0-1.2-.2-1.5-.2-.3-.5-.3-.4 0-.6.3-.2.3-.2 1.5Zm2.4 9h-1.6l6.1-12h1.6l-6 12Zm3.6-3q0-1.5.6-2.2.7-.8 1.9-.8t1.8.8q.7.7.7 2.2 0 1.6-.7 2.3-.6.8-1.8.8-1.2 0-1.9-.8-.6-.7-.6-2.3Zm1.7 0q0 1.1.2 1.5.2.3.6.3.3 0 .5-.3.3-.4.3-1.5t-.3-1.5q-.2-.3-.5-.3-.4 0-.6.3-.2.4-.2 1.5Z"/><path stroke="#fff" stroke-linecap="round" stroke-linejoin="round" stroke-width="3" d="M455.5 211.5q1.6 0 2.6 1.2 1 1.4 1 4.6t-1 4.7q-1 1.2-2.6 1.2-1.7 0-2.7-1.3-1-1.3-1-4.6 0-3.2 1-4.6 1-1.2 2.7-1.2Zm0 1.8q-.4 0-.7.3-.4.2-.5.9-.3.8-.3 2.8 0 2 .2 2.8.2.8.6 1 .3.3.7.3.4 0 .7-.3.3-.2.5-.9.2-.8.2-2.9 0-2-.2-2.7t-.5-1q-.3-.3-.7-.3Zm5.7 9.7v-2.2h2.2v2.2h-2.2Zm11-2v2h-7.7q.1-1.2.7-2.2.6-1 2.5-2.7 1.5-1.4 1.8-2 .5-.6.5-1.3 0-.7-.4-1-.4-.5-1.1-.5-.7 0-1.1.4-.4.4-.5 1.4l-2.2-.2q.2-1.8 1.3-2.6 1-.8 2.5-.8 1.7 0 2.7 1 1 .8 1 2.2 0 .8-.3 1.5t-.9 1.4l-1.4 1.5-1.3 1.2-.5.7h4.4Zm9-6.7-2.1.3q-.1-.7-.4-1-.4-.3-.9-.3-.7 0-1.2.6t-.6 2.6q.8-1 2-1 1.4 0 2.4 1.1 1 1 1 2.7 0 1.8-1 2.8-1 1.1-2.7 1.1-1.7 0-2.8-1.3-1.1-1.4-1.1-4.5t1.1-4.5q1.2-1.4 3-1.4 1.3 0 2.2.7.9.8 1 2.1Zm-5 4.8q0 1.1.5 1.7.5.6 1.1.6.6 0 1-.5.5-.5.5-1.6 0-1-.5-1.6-.4-.5-1-.5-.7 0-1.2.5-.4.5-.4 1.4Zm6.6-4.7q0-1.6.6-2.3.7-.8 1.9-.8t1.8.8q.7.7.7 2.3 0 1.5-.7 2.3-.6.7-1.8.7-1.2 0-1.9-.7-.6-.8-.6-2.3Zm1.7 0q0 1 .2 1.5.2.2.6.2.3 0 .5-.2.3-.4.3-1.5 0-1.2-.3-1.5-.2-.3-.5-.3-.4 0-.6.3-.2.3-.2 1.5Zm2.4 9h-1.6l6.1-12h1.6l-6 12Zm3.6-3q0-1.5.7-2.2.6-.8 1.8-.8 1.2 0 1.9.8.7.7.7 2.2 0 1.6-.7 2.3-.7.8-1.9.8t-1.8-.8q-.7-.7-.7-2.3Zm1.7 0q0 1.1.3 1.5.2.3.5.3t.5-.3q.3-.4.3-1.5t-.2-1.5q-.3-.3-.6-.3-.4 0-.5.3-.3.4-.3 1.5Z"/><path fill="#62718b" d="M455.5 211.5q1.6 0 2.6 1.2 1 1.4 1 4.6t-1 4.7q-1 1.2-2.6 1.2-1.7 0-2.7-1.3-1-1.3-1-4.6 0-3.2 1-4.6 1-1.2 2.7-1.2Zm0 1.8q-.4 0-.7.3-.4.2-.5.9-.3.8-.3 2.8 0 2 .2 2.8.2.8.6 1 .3.3.7.3.4 0 .7-.3.3-.2.5-.9.2-.8.2-2.9 0-2-.2-2.7t-.5-1q-.3-.3-.7-.3Zm5.7 9.7v-2.2h2.2v2.2h-2.2Zm11-2v2h-7.7q.1-1.2.7-2.2.6-1 2.5-2.7 1.5-1.4 1.8-2 .5-.6.5-1.3 0-.7-.4-1-.4-.5-1.1-.5-.7 0-1.1.4-.4.4-.5 1.4l-2.2-.2q.2-1.8 1.3-2.6 1-.8 2.5-.8 1.7 0 2.7 1 1 .8 1 2.2 0 .8-.3 1.5t-.9 1.4l-1.4 1.5-1.3 1.2-.5.7h4.4Zm9-6.7-2.1.3q-.1-.7-.4-1-.4-.3-.9-.3-.7 0-1.2.6t-.6 2.6q.8-1 2-1 1.4 0 2.4 1.1 1 1 1 2.7 0 1.8-1 2.8-1 1.1-2.7 1.1-1.7 0-2.8-1.3-1.1-1.4-1.1-4.5t1.1-4.5q1.2-1.4 3-1.4 1.3 0 2.2.7.9.8 1 2.1Zm-5 4.8q0 1.1.5 1.7.5.6 1.1.6.6 0 1-.5.5-.5.5-1.6 0-1-.5-1.6-.4-.5-1-.5-.7 0-1.2.5-.4.5-.4 1.4Zm6.6-4.7q0-1.6.6-2.3.7-.8 1.9-.8t1.8.8q.7.7.7 2.3 0 1.5-.7 2.3-.6.7-1.8.7-1.2 0-1.9-.7-.6-.8-.6-2.3Zm1.7 0q0 1 .2 1.5.2.2.6.2.3 0 .5-.2.3-.4.3-1.5 0-1.2-.3-1.5-.2-.3-.5-.3-.4 0-.6.3-.2.3-.2 1.5Zm2.4 9h-1.6l6.1-12h1.6l-6 12Zm3.6-3q0-1.5.7-2.2.6-.8 1.8-.8 1.2 0 1.9.8.7.7.7 2.2 0 1.6-.7 2.3-.7.8-1.9.8t-1.8-.8q-.7-.7-.7-2.3Zm1.7 0q0 1.1.3 1.5.2.3.5.3t.5-.3q.3-.4.3-1.5t-.2-1.5q-.3-.3-.6-.3-.4 0-.5.3-.3.4-.3 1.5Z"/><path stroke="#fff" stroke-linecap="round" stroke-linejoin="round" stroke-width="3" d="M364.4 250.5q1.7 0 2.6 1.2 1.1 1.4 1.1 4.6t-1 4.7q-1 1.2-2.7 1.2-1.7 0-2.7-1.3-1-1.3-1-4.6 0-3.2 1.1-4.6 1-1.2 2.6-1.2Zm0 1.8q-.4 0-.7.3-.3.2-.5.9-.2.8-.2 2.8 0 2 .2 2.8.2.8.5 1 .3.3.7.3.4 0 .7-.3.4-.2.5-.9.2-.8.2-2.9 0-2-.2-2.7t-.5-1q-.3-.3-.7-.3Zm5.8 9.7v-2.2h2.2v2.2h-2.2Zm9.1 0h-2.2v-8.3q-1.2 1.1-2.8 1.7v-2q.9-.3 1.9-1 1-.9 1.3-1.9h1.8V262Zm3.4-9.3v-2h7.5v1.6q-.9.9-1.9 2.6-1 1.7-1.4 3.7-.5 1.9-.5 3.4h-2.2q.1-2.4 1-4.8 1-2.5 2.5-4.5h-5Zm9 .7q0-1.6.7-2.3.7-.8 1.8-.8 1.2 0 2 .8.6.7.6 2.3 0 1.5-.7 2.3-.7.7-1.8.7-1.2 0-1.9-.7-.7-.8-.7-2.3Zm1.7 0q0 1 .3 1.5.2.2.5.2.4 0 .6-.2.2-.4.2-1.5 0-1.2-.2-1.5-.2-.3-.6-.3-.3 0-.5.3-.3.3-.3 1.5Zm2.5 9h-1.6l6-12h1.7l-6 12Zm3.6-3q0-1.5.6-2.2.7-.8 1.9-.8t1.8.8q.7.7.7 2.2 0 1.6-.7 2.3-.6.8-1.8.8-1.2 0-1.9-.8-.6-.7-.6-2.3Zm1.7 0q0 1.1.2 1.5.2.3.6.3.3 0 .5-.3.3-.4.3-1.5t-.3-1.5q-.2-.3-.5-.3-.4 0-.6.3-.2.4-.2 1.5Z"/><path fill="#62718b" d="M364.4 250.5q1.7 0 2.6 1.2 1.1 1.4 1.1 4.6t-1 4.7q-1 1.2-2.7 1.2-1.7 0-2.7-1.3-1-1.3-1-4.6 0-3.2 1.1-4.6 1-1.2 2.6-1.2Zm0 1.8q-.4 0-.7.3-.3.2-.5.9-.2.8-.2 2.8 0 2 .2 2.8.2.8.5 1 .3.3.7.3.4 0 .7-.3.4-.2.5-.9.2-.8.2-2.9 0-2-.2-2.7t-.5-1q-.3-.3-.7-.3Zm5.8 9.7v-2.2h2.2v2.2h-2.2Zm9.1 0h-2.2v-8.3q-1.2 1.1-2.8 1.7v-2q.9-.3 1.9-1 1-.9 1.3-1.9h1.8V262Zm3.4-9.3v-2h7.5v1.6q-.9.9-1.9 2.6-1 1.7-1.4 3.7-.5 1.9-.5 3.4h-2.2q.1-2.4 1-4.8 1-2.5 2.5-4.5h-5Zm9 .7q0-1.6.7-2.3.7-.8 1.8-.8 1.2 0 2 .8.6.7.6 2.3 0 1.5-.7 2.3-.7.7-1.8.7-1.2 0-1.9-.7-.7-.8-.7-2.3Zm1.7 0q0 1 .3 1.5.2.2.5.2.4 0 .6-.2.2-.4.2-1.5 0-1.2-.2-1.5-.2-.3-.6-.3-.3 0-.5.3-.3.3-.3 1.5Zm2.5 9h-1.6l6-12h1.7l-6 12Zm3.6-3q0-1.5.6-2.2.7-.8 1.9-.8t1.8.8q.7.7.7 2.2 0 1.6-.7 2.3-.6.8-1.8.8-1.2 0-1.9-.8-.6-.7-.6-2.3Zm1.7 0q0 1.1.2 1.5.2.3.6.3.3 0 .5-.3.3-.4.3-1.5t-.3-1.5q-.2-.3-.5-.3-.4 0-.6.3-.2.4-.2 1.5Z"/><path stroke="#fff" stroke-linecap="round" stroke-linejoin="round" stroke-width="3" d="M293.6 289.5q1.7 0 2.6 1.2 1.1 1.4 1.1 4.6t-1.1 4.7q-1 1.2-2.6 1.2-1.7 0-2.7-1.3-1-1.3-1-4.6 0-3.2 1.1-4.6 1-1.2 2.6-1.2Zm0 1.8q-.4 0-.7.3-.3.2-.5.9-.2.8-.2 2.8 0 2 .2 2.8.2.8.5 1 .3.3.7.3.4 0 .7-.3.3-.2.5-.9.2-.8.2-2.9 0-2-.2-2.7-.2-.8-.5-1-.3-.3-.7-.3Zm5.8 9.7v-2.2h2.1v2.2h-2.1Zm9.1 0h-2.2v-8.3q-1.2 1.1-2.8 1.7v-2q.8-.3 1.8-1 1-.9 1.4-1.9h1.8V301Zm7.1-11.5q1.7 0 2.6 1.2 1.1 1.4 1.1 4.6t-1.1 4.7q-1 1.2-2.6 1.2-1.7 0-2.7-1.3-1-1.3-1-4.6 0-3.2 1.1-4.6 1-1.2 2.6-1.2Zm0 1.8q-.4 0-.7.3-.3.2-.5.9-.2.8-.2 2.8 0 2 .2 2.8.2.8.5 1 .3.3.7.3.4 0 .7-.3.3-.2.5-.9.2-.8.2-2.9 0-2-.2-2.7-.2-.8-.5-1-.3-.3-.7-.3Zm5.3 1q0-1.5.7-2.2.7-.8 1.8-.8 1.2 0 1.9.8.7.7.7 2.3 0 1.5-.7 2.3-.7.7-1.8.7-1.2 0-2-.7-.6-.8-.6-2.3Zm1.7 0q0 1.2.3 1.6.2.2.5.2.4 0 .6-.2.2-.4.2-1.5 0-1.2-.2-1.5-.2-.3-.6-.3-.3 0-.5.3-.3.3-.3 1.5Zm2.5 9.1h-1.6l6-12h1.6l-6 12Zm3.5-3q0-1.5.7-2.2.7-.8 1.9-.8 1.1 0 1.8.8.7.7.7 2.2 0 1.6-.7 2.3-.7.8-1.8.8-1.2 0-1.9-.8-.7-.7-.7-2.3Zm1.7 0q0 1.1.3 1.5.2.3.5.3.4 0 .6-.3.2-.4.2-1.5t-.2-1.5q-.2-.3-.6-.3-.3 0-.5.3-.3.4-.3 1.5Z"/><path fill="#62718b" d="M293.6 289.5q1.7 0 2.6 1.2 1.1 1.4 1.1 4.6t-1.1 4.7q-1 1.2-2.6 1.2-1.7 0-2.7-1.3-1-1.3-1-4.6 0-3.2 1.1-4.6 1-1.2 2.6-1.2Zm0 1.8q-.4 0-.7.3-.3.2-.5.9-.2.8-.2 2.8 0 2 .2 2.8.2.8.5 1 .3.3.7.3.4 0 .7-.3.3-.2.5-.9.2-.8.2-2.9 0-2-.2-2.7-.2-.8-.5-1-.3-.3-.7-.3Zm5.8 9.7v-2.2h2.1v2.2h-2.1Zm9.1 0h-2.2v-8.3q-1.2 1.1-2.8 1.7v-2q.8-.3 1.8-1 1-.9 1.4-1.9h1.8V301Zm7.1-11.5q1.7 0 2.6 1.2 1.1 1.4 1.1 4.6t-1.1 4.7q-1 1.2-2.6 1.2-1.7 0-2.7-1.3-1-1.3-1-4.6 0-3.2 1.1-4.6 1-1.2 2.6-1.2Zm0 1.8q-.4 0-.7.3-.3.2-.5.9-.2.8-.2 2.8 0 2 .2 2.8.2.8.5 1 .3.3.7.3.4 0 .7-.3.3-.2.5-.9.2-.8.2-2.9 0-2-.2-2.7-.2-.8-.5-1-.3-.3-.7-.3Zm5.3 1q0-1.5.7-2.2.7-.8 1.8-.8 1.2 0 1.9.8.7.7.7 2.3 0 1.5-.7 2.3-.7.7-1.8.7-1.2 0-2-.7-.6-.8-.6-2.3Zm1.7 0q0 1.2.3 1.6.2.2.5.2.4 0 .6-.2.2-.4.2-1.5 0-1.2-.2-1.5-.2-.3-.6-.3-.3 0-.5.3-.3.3-.3 1.5Zm2.5 9.1h-1.6l6-12h1.6l-6 12Zm3.5-3q0-1.5.7-2.2.7-.8 1.9-.8 1.1 0 1.8.8.7.7.7 2.2 0 1.6-.7 2.3-.7.8-1.8.8-1.2 0-1.9-.8-.7-.7-.7-2.3Zm1.7 0q0 1.1.3 1.5.2.3.5.3.4 0 .6-.3.2-.4.2-1.5t-.2-1.5q-.2-.3-.6-.3-.3 0-.5.3-.3.4-.3 1.5Z"/><path stroke="#fff" stroke-linecap="round" stroke-linejoin="round" stroke-width="3" d="M260 328.5q1.6 0 2.6 1.2 1 1.4 1 4.6t-1 4.7q-1 1.2-2.6 1.2-1.7 0-2.8-1.3-1-1.3-1-4.6 0-3.2 1.2-4.6.9-1.2 2.6-1.2Zm0 1.8q-.4 0-.8.3-.3.2-.4.9-.3.8-.3 2.8 0 2 .2 2.8.2.8.5 1 .4.3.8.3t.7-.3q.3-.2.5-.9.2-.8.2-2.9 0-2-.2-2.7-.2-.8-.5-1-.3-.3-.7-.3Zm5.7 9.7v-2.2h2.2v2.2h-2.2Zm7.3-11.5q1.6 0 2.6 1.2 1 1.4 1 4.6t-1 4.7q-1 1.2-2.6 1.2-1.7 0-2.7-1.3-1-1.3-1-4.6 0-3.2 1-4.6 1-1.2 2.7-1.2Zm0 1.8q-.4 0-.7.3-.4.2-.5.9-.3.8-.3 2.8 0 2 .2 2.8.2.8.6 1 .3.3.7.3.4 0 .7-.3.3-.2.5-.9.2-.8.2-2.9 0-2-.2-2.7-.2-.8-.5-1-.3-.3-.7-.3Zm5.3.4v-2h7.5v1.6q-1 .9-2 2.6-.9 1.7-1.4 3.7-.5 1.9-.5 3.4h-2.1q0-2.4 1-4.8.9-2.5 2.4-4.5h-5Zm9 .7q0-1.6.6-2.3.7-.8 1.9-.8t1.8.8q.7.7.7 2.3 0 1.5-.7 2.3-.6.7-1.8.7-1.2 0-1.9-.7-.6-.8-.6-2.3Zm1.7 0q0 1 .2 1.5.2.2.6.2.3 0 .5-.2.3-.4.3-1.5 0-1.2-.3-1.5-.2-.3-.5-.3-.4 0-.6.3-.2.3-.2 1.5Zm2.4 9h-1.6l6.1-12h1.6l-6 12Zm3.6-3q0-1.5.7-2.2.6-.8 1.8-.8 1.2 0 1.9.8.6.7.6 2.2 0 1.6-.6 2.3-.7.8-1.9.8t-1.8-.8q-.7-.7-.7-2.3Zm1.7 0q0 1.1.3 1.5.2.3.5.3t.5-.3q.3-.4.3-1.5t-.3-1.5q-.2-.3-.5-.3-.4 0-.5.3-.3.4-.3 1.5Z"/><path fill="#62718b" d="M260 328.5q1.6 0 2.6 1.2 1 1.4 1 4.6t-1 4.7q-1 1.2-2.6 1.2-1.7 0-2.8-1.3-1-1.3-1-4.6 0-3.2 1.2-4.6.9-1.2 2.6-1.2Zm0 1.8q-.4 0-.8.3-.3.2-.4.9-.3.8-.3 2.8 0 2 .2 2.8.2.8.5 1 .4.3.8.3t.7-.3q.3-.2.5-.9.2-.8.2-2.9 0-2-.2-2.7-.2-.8-.5-1-.3-.3-.7-.3Zm5.7 9.7v-2.2h2.2v2.2h-2.2Zm7.3-11.5q1.6 0 2.6 1.2 1 1.4 1 4.6t-1 4.7q-1 1.2-2.6 1.2-1.7 0-2.7-1.3-1-1.3-1-4.6 0-3.2 1-4.6 1-1.2 2.7-1.2Zm0 1.8q-.4 0-.7.3-.4.2-.5.9-.3.8-.3 2.8 0 2 .2 2.8.2.8.6 1 .3.3.7.3.4 0 .7-.3.3-.2.5-.9.2-.8.2-2.9 0-2-.2-2.7-.2-.8-.5-1-.3-.3-.7-.3Zm5.3.4v-2h7.5v1.6q-1 .9-2 2.6-.9 1.7-1.4 3.7-.5 1.9-.5 3.4h-2.1q0-2.4 1-4.8.9-2.5 2.4-4.5h-5Zm9 .7q0-1.6.6-2.3.7-.8 1.9-.8t1.8.8q.7.7.7 2.3 0 1.5-.7 2.3-.6.7-1.8.7-1.2 0-1.9-.7-.6-.8-.6-2.3Zm1.7 0q0 1 .2 1.5.2.2.6.2.3 0 .5-.2.3-.4.3-1.5 0-1.2-.3-1.5-.2-.3-.5-.3-.4 0-.6.3-.2.3-.2 1.5Zm2.4 9h-1.6l6.1-12h1.6l-6 12Zm3.6-3q0-1.5.7-2.2.6-.8 1.8-.8 1.2 0 1.9.8.6.7.6 2.2 0 1.6-.6 2.3-.7.8-1.9.8t-1.8-.8q-.7-.7-.7-2.3Zm1.7 0q0 1.1.3 1.5.2.3.5.3t.5-.3q.3-.4.3-1.5t-.3-1.5q-.2-.3-.5-.3-.4 0-.5.3-.3.4-.3 1.5Z"/><path stroke="#fff" stroke-linecap="round" stroke-linejoin="round" stroke-width="3" d="M268 367.5q1.7 0 2.6 1.2 1.1 1.4 1.1 4.6t-1.1 4.7q-1 1.2-2.6 1.2t-2.7-1.3q-1-1.3-1-4.6 0-3.2 1.1-4.6 1-1.2 2.6-1.2Zm0 1.8q-.4 0-.7.3-.3.2-.5.9-.2.8-.2 2.8 0 2 .2 2.8.2.8.5 1 .3.3.7.3.4 0 .7-.3.3-.2.5-.9.2-.8.2-2.9 0-2-.2-2.7-.2-.8-.5-1-.3-.3-.7-.3Zm5.8 9.7v-2.2h2.2v2.2h-2.2Zm7.2-11.5q1.7 0 2.6 1.2 1.1 1.4 1.1 4.6t-1.1 4.7q-1 1.2-2.6 1.2t-2.7-1.3q-1-1.3-1-4.6 0-3.2 1.1-4.6 1-1.2 2.6-1.2Zm0 1.8q-.4 0-.7.3-.3.2-.5.9-.2.8-.2 2.8 0 2 .2 2.8.2.8.5 1 .3.3.7.3.4 0 .7-.3.3-.2.5-.9.2-.8.2-2.9 0-2-.2-2.7-.2-.8-.5-1-.3-.3-.7-.3Zm5.3.4v-2h7.5v1.6q-1 .9-1.9 2.6-1 1.7-1.5 3.7-.5 1.9-.4 3.4h-2.2q.1-2.4 1-4.8 1-2.5 2.5-4.5h-5Zm9 .7q0-1.6.7-2.3.7-.8 1.8-.8 1.2 0 1.9.8.7.7.7 2.3 0 1.5-.7 2.3-.7.7-1.8.7-1.2 0-2-.7-.6-.8-.6-2.3Zm1.7 0q0 1 .3 1.5.2.2.5.2.4 0 .6-.2.2-.4.2-1.5 0-1.2-.2-1.5-.2-.3-.6-.3-.3 0-.5.3-.3.3-.3 1.5Zm2.5 9h-1.6l6-12h1.7l-6.1 12Zm3.5-3q0-1.5.7-2.2.7-.8 1.9-.8 1.1 0 1.8.8.7.7.7 2.2 0 1.6-.7 2.3-.7.8-1.8.8-1.2 0-1.9-.8-.7-.7-.7-2.3Zm1.8 0q0 1.1.2 1.5.2.3.6.3.3 0 .5-.3.3-.4.3-1.5t-.3-1.5q-.2-.3-.5-.3-.4 0-.6.3-.2.4-.2 1.5Z"/><path fill="#62718b" d="M268 367.5q1.7 0 2.6 1.2 1.1 1.4 1.1 4.6t-1.1 4.7q-1 1.2-2.6 1.2t-2.7-1.3q-1-1.3-1-4.6 0-3.2 1.1-4.6 1-1.2 2.6-1.2Zm0 1.8q-.4 0-.7.3-.3.2-.5.9-.2.8-.2 2.8 0 2 .2 2.8.2.8.5 1 .3.3.7.3.4 0 .7-.3.3-.2.5-.9.2-.8.2-2.9 0-2-.2-2.7-.2-.8-.5-1-.3-.3-.7-.3Zm5.8 9.7v-2.2h2.2v2.2h-2.2Zm7.2-11.5q1.7 0 2.6 1.2 1.1 1.4 1.1 4.6t-1.1 4.7q-1 1.2-2.6 1.2t-2.7-1.3q-1-1.3-1-4.6 0-3.2 1.1-4.6 1-1.2 2.6-1.2Zm0 1.8q-.4 0-.7.3-.3.2-.5.9-.2.8-.2 2.8 0 2 .2 2.8.2.8.5 1 .3.3.7.3.4 0 .7-.3.3-.2.5-.9.2-.8.2-2.9 0-2-.2-2.7-.2-.8-.5-1-.3-.3-.7-.3Zm5.3.4v-2h7.5v1.6q-1 .9-1.9 2.6-1 1.7-1.5 3.7-.5 1.9-.4 3.4h-2.2q.1-2.4 1-4.8 1-2.5 2.5-4.5h-5Zm9 .7q0-1.6.7-2.3.7-.8 1.8-.8 1.2 0 1.9.8.7.7.7 2.3 0 1.5-.7 2.3-.7.7-1.8.7-1.2 0-2-.7-.6-.8-.6-2.3Zm1.7 0q0 1 .3 1.5.2.2.5.2.4 0 .6-.2.2-.4.2-1.5 0-1.2-.2-1.5-.2-.3-.6-.3-.3 0-.5.3-.3.3-.3 1.5Zm2.5 9h-1.6l6-12h1.7l-6.1 12Zm3.5-3q0-1.5.7-2.2.7-.8 1.9-.8 1.1 0 1.8.8.7.7.7 2.2 0 1.6-.7 2.3-.7.8-1.8.8-1.2 0-1.9-.8-.7-.7-.7-2.3Zm1.8 0q0 1.1.2 1.5.2.3.6.3.3 0 .5-.3.3-.4.3-1.5t-.3-1.5q-.2-.3-.5-.3-.4 0-.6.3-.2.4-.2 1.5Z"/><path fill="#838689" d="M329 437.7v-8.6h4.6q.7.2 1 .5.5.3.8.8l.2 1.2q0 1-.7 1.9-.7.7-2.5.7h-2.2v3.5h-1.1Zm1.2-4.5h2.2q1.1 0 1.6-.4t.5-1.2q0-.5-.3-.9t-.7-.5h-3.3v3Zm11 2.5 1 .1q-.2 1-.9 1.5t-1.8.5q-1.3 0-2.1-.8t-.8-2.4q0-1.5.8-2.4.8-.9 2-.9 1.3 0 2.1.9.8.8.8 2.4v.3h-4.6q0 1 .6 1.5.5.6 1.2.6.6 0 1-.3.5-.3.7-1Zm-3.5-1.7h3.5q0-.8-.4-1.2-.5-.6-1.3-.6-.7 0-1.2.5t-.6 1.3Zm6.2 3.7v-6.2h1v1q.3-.7.6-1 .3-.2.7-.2.6 0 1.1.4l-.4 1q-.4-.3-.7-.3-.4 0-.7.2l-.3.6-.2 1.2v3.3h-1Zm8.1-2.3 1 .2q-.1 1-.8 1.6-.7.7-1.8.7-1.2 0-2-.9-.8-.8-.8-2.4 0-1 .3-1.7.4-.8 1-1.2.7-.4 1.6-.4 1 0 1.6.6.7.5.8 1.4l-1 .2q-.1-.7-.5-1-.4-.3-1-.3-.7 0-1.2.6-.5.5-.5 1.8 0 1.2.5 1.8.5.6 1.2.6.6 0 1-.4.5-.4.6-1.2Zm6.2.3 1 .1q-.2 1-.9 1.5t-1.8.5q-1.3 0-2.1-.8t-.8-2.4q0-1.5.8-2.4.8-.9 2-.9 1.3 0 2.1.9.8.8.8 2.4v.3h-4.6q0 1 .6 1.5.5.6 1.2.6.6 0 1-.3.5-.3.7-1Zm-3.5-1.7h3.5q0-.8-.4-1.2-.5-.6-1.3-.6-.7 0-1.2.5t-.6 1.3Zm6.2 3.7v-6.2h1v.9q.7-1 2-1l1 .2q.5.2.7.5l.3.7v5h-1v-4.9q-.2-.3-.5-.4-.3-.2-.8-.2-.6 0-1.1.4-.5.4-.5 1.6v3.4h-1Zm9.3-1 .2 1h-1.7l-.4-.6q-.2-.3-.2-1.2v-3.6h-.7v-.8h.7v-1.6l1-.6v2.2h1.1v.8h-1v4.2l.2.2.4.1h.4Zm3.3-2.1q0-1.7 1-2.6.8-.7 2-.7t2 .9q.9.8.9 2.3 0 1.2-.4 1.9-.3.7-1 1-.7.4-1.5.4-1.3 0-2.2-.8-.8-.8-.8-2.4Zm1.1 0q0 1.2.5 1.8.6.6 1.4.6.8 0 1.3-.6t.5-1.8q0-1.2-.5-1.8-.6-.6-1.3-.6t-1.4.6q-.5.6-.5 1.8Zm6.6 3.1v-5.4h-1v-.8h1v-.7l.1-.9.5-.7q.4-.2 1.1-.2h1l-.2 1h-.6l-.7.1q-.2.2-.2.8v.6h1.3v.8h-1.3v5.4h-1Zm5.7 2.4v-8.6h1v.8q.3-.5.8-.7.4-.3 1-.3.8 0 1.4.5.6.4 1 1.1.2.8.2 1.7 0 1-.3 1.7t-1 1.1q-.7.4-1.4.4l-1-.2-.6-.5v3h-1Zm1-5.5q0 1.2.5 1.8.5.6 1.1.6.8 0 1.3-.6t.5-1.9q0-1.2-.5-1.7-.5-.6-1.2-.6t-1.2.6q-.5.6-.5 1.8ZM398 437l-1.1.7-1.2.2q-1 0-1.6-.5-.5-.5-.5-1.2 0-.5.2-.9t.5-.6l.8-.3 1-.2 1.8-.3v-.3q0-.7-.3-1-.4-.3-1.2-.3-.7 0-1 .3-.4.2-.6.9l-1-.1q0-.7.4-1.1.3-.4 1-.6.6-.3 1.4-.3.8 0 1.3.2t.7.5l.3.7v2.4l.1 1.9.3.7h-1.1q-.2-.3-.2-.8Zm0-2.3-1.8.4q-.7 0-1 .2l-.4.3-.1.5q0 .5.3.7.3.3 1 .3.6 0 1-.2.5-.3.7-.8.2-.3.2-1v-.4Zm2.7 3.6 1 .2q.1.4.4.7.4.3 1 .3.8 0 1.2-.3.4-.3.6-.8V437q-.6.8-1.7.8-1.3 0-2-1-.7-.9-.7-2.1 0-1 .3-1.7.4-.7 1-1.1.6-.5 1.4-.5 1.1 0 1.8 1v-.8h1v5.4q0 1.4-.3 2-.3.6-1 1-.6.3-1.5.3-1.1 0-1.8-.5t-.7-1.5Zm1-3.7q0 1.2.4 1.8.5.5 1.2.5t1.2-.5q.5-.6.5-1.8 0-1.1-.5-1.7-.5-.6-1.2-.6t-1.2.6q-.5.6-.5 1.7Zm10.5 1.2 1 .1q-.2 1-.9 1.5t-1.8.5q-1.3 0-2.1-.8t-.8-2.4q0-1.5.8-2.4.8-.9 2-.9 1.3 0 2.1.9.8.8.8 2.4v.3h-4.6q0 1 .6 1.5.5.6 1.2.6.6 0 1-.3.5-.3.7-1Zm-3.5-1.7h3.5q0-.8-.4-1.2-.5-.6-1.3-.6-.7 0-1.2.5t-.6 1.3Zm5.8 1.8 1-.1q.1.6.5 1 .4.3 1.2.3.7 0 1-.3.4-.3.4-.7 0-.4-.3-.6l-1.1-.3-1.6-.5-.7-.6q-.2-.4-.2-.9 0-.4.2-.7.2-.4.5-.6.2-.2.7-.3.4-.2.9-.2.7 0 1.3.3l.8.5.3 1-1 .1q0-.4-.4-.7-.3-.3-1-.3t-1 .3q-.3.2-.3.5l.1.4.4.3 1 .2 1.5.5q.5.2.7.6.3.3.3.9 0 .5-.3 1-.3.4-1 .7-.5.2-1.2.2-1.2 0-1.9-.5-.6-.5-.8-1.5ZM31 302l.3-1.1q1.4.3 2.2 1.3.7.9.7 2.2 0 1.4-.6 2.3-.5.9-1.6 1.3-1 .5-2.3.5-1.4 0-2.4-.5-1-.6-1.5-1.5-.5-1-.5-2 0-1.4.7-2.2.6-1 1.8-1.3l.3 1.2q-1 .2-1.4.8-.4.6-.4 1.4 0 1 .5 1.7.4.7 1.2 1 .8.2 1.7.2 1 0 1.9-.3.8-.3 1.2-1 .4-.7.4-1.5 0-1-.5-1.6-.6-.7-1.7-.9Zm3-2.8h-8.5v-1.7l6-2 1.3-.5-1.4-.4-6-2V291H34v1h-7.2l7.2 2.6v1l-7.4 2.5H34v1Zm0-9h-8.5v-4.6q.1-.6.4-1 .3-.5.9-.7.5-.3 1.1-.3 1.1 0 1.9.7.8.7.8 2.5v2.2H34v1.1Zm-4.4-1.2v-2.2q0-1.1-.5-1.6-.4-.4-1.1-.4-.6 0-1 .2-.3.3-.4.7l-.1 1.1v2.2h3Zm1.3-9.3q-1.7 0-2.5-1-.7-.8-.7-2t.8-2q.9-.9 2.3-.9 1.3 0 2 .4.6.4 1 1 .4.7.4 1.6 0 1.3-.8 2-.9.9-2.5.9Zm0-1.1q1.2 0 1.8-.5.6-.6.6-1.3 0-.8-.6-1.4-.6-.5-1.8-.5-1.1 0-1.7.6-.6.5-.6 1.3 0 .7.6 1.3.5.5 1.7.5Zm3.2-6.3h-6.3v-1h1q-.7-.3-.9-.6-.2-.3-.2-.7 0-.5.3-1l1 .3-.2.7q0 .4.2.7l.6.4 1.2.1H34v1Zm.5-3.8.1-1q.5-.1.7-.4.3-.4.3-1 0-.8-.3-1.2-.3-.4-.8-.5l-1.4-.1q.9.7.9 1.7 0 1.3-1 2t-2.2.7q-.9 0-1.6-.3-.8-.4-1.2-1-.4-.6-.4-1.4 0-1.1.9-1.8h-.8v-1h5.4q1.5 0 2 .3.7.3 1 1 .4.6.4 1.5 0 1.1-.5 1.8t-1.5.7Zm-3.8-.9q1.3 0 1.8-.5.6-.5.6-1.2t-.6-1.2q-.5-.5-1.7-.5t-1.8.5q-.5.5-.5 1.2t.5 1.2q.6.5 1.7.5Zm2.5-10.4q.5.6.7 1.2.2.5.2 1.1 0 1-.5 1.6-.5.5-1.3.5l-.8-.2q-.4-.2-.6-.5l-.4-.8-.1-1-.4-1.8h-.3q-.6 0-.9.3-.3.4-.3 1.2 0 .7.2 1.1.3.4 1 .5l-.2 1q-.7 0-1-.4-.5-.3-.7-1-.2-.6-.2-1.3 0-.8.2-1.3l.4-.8.8-.3h2.3l1.9-.1.8-.3v1.1l-.8.2Zm-2.4.1q.3.6.4 1.7.1.7.3 1 0 .2.3.4l.5.1q.4 0 .7-.3.3-.3.3-1 0-.5-.3-1t-.7-.7q-.4-.2-1-.2h-.5Zm3.2-3h-6.3v-1h1q-1.1-.6-1.1-2l.2-1q.2-.5.5-.7l.8-.3H34v1h-3.8l-1 .1q-.3.1-.5.4l-.2.8q0 .6.4 1.1.5.5 1.6.5H34v1Zm-7.4-7h-1.2v-1h1.2v1Zm7.4 0h-6.3v-1H34v1Zm0-2.5h-1l-4.5-4v3.8h-.8v-5h.7l4 3.3.7.6v-4.2h.9v5.5Zm-.8-9.6q.5.6.7 1.2.2.5.2 1.1 0 1-.5 1.6-.5.5-1.3.5l-.8-.2q-.4-.2-.6-.5l-.4-.8-.1-1-.4-1.8h-.3q-.6 0-.9.3-.3.4-.3 1.2 0 .7.2 1.1.3.4 1 .5l-.2 1q-.7 0-1-.4-.5-.3-.7-1-.2-.6-.2-1.3 0-.8.2-1.3l.4-.8.8-.3h2.3l1.9-.1.8-.3v1.1l-.8.2Zm-2.4.1q.3.6.4 1.7.1.7.3 1 0 .2.3.4l.5.1q.4 0 .7-.3.3-.3.3-1 0-.5-.3-1t-.7-.7q-.4-.2-1-.2h-.5ZM33 230l1-.2v.8l-.1 1-.5.4h-4.9v.9h-.8v-.8h-1.5l-.6-1h2.1V230h.8v1h4.3l.2-.2v-.8Zm-6.4-.7h-1.2v-1h1.2v1Zm7.4 0h-6.3v-1H34v1Zm-3.2-2.6q-1.7 0-2.5-1-.7-.8-.7-2t.8-2q.9-.9 2.3-.9 1.3 0 2 .4.6.4 1 1 .4.7.4 1.6 0 1.3-.8 2-.9.9-2.5.9Zm0-1.1q1.2 0 1.8-.5.6-.6.6-1.3 0-.8-.6-1.4-.6-.5-1.8-.5-1.1 0-1.7.6-.6.5-.6 1.3 0 .7.6 1.3.5.5 1.7.5Zm3.2-6.3h-6.3v-1h1q-1.1-.6-1.1-2l.2-1q.2-.5.5-.7l.8-.3H34v1h-3.8l-1 .1q-.3.1-.5.4l-.2.8q0 .6.4 1.1.5.5 1.6.5H34v1Zm85.2-90.4q.8.6 1.5.8l-.4.8q-.9-.3-1.8-1-1 .5-2.1.5-1.2 0-2.1-.6-1-.5-1.5-1.5t-.5-2.3q0-1.3.5-2.4.5-1 1.5-1.5 1-.6 2.1-.6 1.2 0 2.1.6 1 .5 1.5 1.6.5 1 .5 2.3 0 1-.3 1.9-.3.8-1 1.4Zm-2.5-1.4q1 .3 1.6.8 1-1 1-2.7 0-1-.3-1.9-.4-.7-1-1.2-.7-.4-1.6-.4-1.3 0-2.1.9-.8.8-.8 2.6 0 1.6.8 2.5.8 1 2.1 1 .6 0 1.2-.3l-1.2-.5.3-.8Zm9 2.4v-1q-.8 1.1-2 1.1-.6 0-1-.2l-.8-.5-.3-.8v-4.9h1v4.6l.5.7q.3.2.8.2t.9-.2q.4-.3.6-.7l.1-1.2v-3.4h1.1v6.3h-1Zm7-.8-1.2.7q-.5.2-1.2.2-1 0-1.5-.5-.6-.5-.6-1.3l.2-.8q.2-.4.6-.6.3-.3.7-.4l1-.1 1.8-.4v-.3q0-.6-.2-.9-.5-.3-1.3-.3-.7 0-1 .2-.4.3-.6 1l-1-.2q.1-.7.5-1 .3-.5.9-.7.6-.2 1.4-.2.8 0 1.3.2t.7.5q.3.2.4.7v4.3l.4.7h-1.2l-.2-.8Zm-.2-2.4q-.5.3-1.7.4l-.9.3q-.3 0-.4.3-.2.2-.2.5 0 .4.4.7.3.3.9.3.6 0 1-.3.6-.3.8-.7l.1-1v-.5Zm3 3.2v-6.3h1v1q.7-1.1 2-1.1.6 0 1 .2l.8.5.3.8v4.9h-1V126l-.1-1-.5-.5q-.3-.2-.7-.2-.7 0-1.2.4-.5.5-.5 1.7v3.4h-1Zm9.4-1 .1 1h-.8l-.9-.1q-.3-.2-.4-.5l-.1-1.3v-3.5h-.8v-.9h.8v-1.5l1-.6v2.1h1v.9h-1v4.2l.2.2h.9Zm4.7-1.3 1 .1q-.1 1-.8 1.7-.7.6-1.7.6-1.3 0-2-.8-.8-.9-.8-2.4 0-1 .3-1.8t1-1.1q.7-.4 1.5-.4 1 0 1.6.5.7.5.9 1.5l-1 .1q-.2-.6-.6-1-.3-.2-.9-.2-.8 0-1.3.5-.5.6-.5 1.8 0 1.3.5 1.9.5.5 1.3.5.6 0 1-.4.4-.3.5-1.1Zm6 1.5-1.1.7q-.5.2-1.2.2-1 0-1.5-.5-.6-.5-.6-1.3l.2-.8q.2-.4.6-.6.3-.3.7-.4l1-.1 1.8-.4v-.3q0-.6-.2-.9-.5-.3-1.3-.3-.7 0-1 .2-.4.3-.6 1l-1-.2q.1-.7.5-1 .3-.5.9-.7.6-.2 1.4-.2.8 0 1.3.2t.7.5q.3.2.4.7v4.3l.4.7h-1.2l-.2-.8Zm0-2.4q-.6.3-1.8.4l-.9.3q-.3 0-.4.3-.2.2-.2.5 0 .4.4.7.3.3.9.3.6 0 1-.3.6-.3.8-.7l.1-1v-.5Zm2.6 1.3 1-.2q0 .7.5 1 .4.3 1.1.3.7 0 1-.3.4-.3.4-.7 0-.3-.3-.5-.2-.2-1-.4l-1.7-.5q-.4-.2-.6-.6-.3-.4-.3-.8l.2-.8.5-.6.7-.3 1-.1 1.2.2q.6.2.8.6.3.3.4 1h-1q-.1-.4-.5-.7-.3-.2-1-.2-.6 0-1 .2-.3.2-.3.6 0 .2.2.3.1.2.4.3l1 .3 1.5.5.7.5q.2.4.2 1 0 .5-.3 1-.3.4-.9.6-.6.3-1.3.3-1.2 0-1.8-.5-.7-.5-.8-1.5Zm9.7 1 .1.8-.8.1-.9-.1q-.3-.2-.4-.5l-.1-1.3v-3.5h-.8v-.9h.8v-1.5l1-.6v2.1h1v.9h-1v4.2l.2.2h.9Zm-111 14.9v-8.6H58v8.6h-1Zm2.7 0v-6.3h1v1q.6-1.1 1.9-1.1.6 0 1 .2l.8.5.3.8v4.9h-1V140l-.1-1-.5-.5q-.3-.2-.7-.2-.7 0-1.2.4-.5.5-.5 1.7v3.4h-1Zm9.3-1 .1 1h-.8l-.9-.1q-.3-.2-.4-.5l-.1-1.3v-3.5H66v-.9h.8v-1.5l1-.6v2.1h1v.9h-1v4.2l.2.2h.9Zm5-1h1q-.2 1-1 1.6-.6.5-1.7.5-1.4 0-2.2-.8-.8-.9-.8-2.4 0-1.6.8-2.4.8-.9 2.1-.9t2 .8q.9.9.9 2.4v.3h-4.7q0 1 .6 1.6.5.5 1.3.5.6 0 1-.3t.6-1Zm-3.5-1.7h3.4q0-.8-.3-1.2-.6-.6-1.4-.6-.7 0-1.2.4-.5.5-.5 1.4Zm6.2 3.7v-6.3h1v1q.3-.7.6-.9.3-.2.7-.2.5 0 1 .3l-.3 1-.8-.2-.6.2q-.3.2-.4.6-.2.5-.2 1.2v3.3h-1Zm4 0v-6.3h1v1q.6-1.1 1.9-1.1.6 0 1 .2l.8.5.3.8v4.9h-1V140l-.1-1-.5-.5q-.3-.2-.7-.2-.7 0-1.2.4-.5.5-.5 1.7v3.4h-1Zm11-.8-1.1.7q-.5.2-1.2.2-1 0-1.5-.5-.6-.5-.6-1.3l.2-.8q.2-.4.6-.6.3-.3.7-.4l1-.1 1.8-.4v-.3q0-.6-.2-.9-.5-.3-1.3-.3-.7 0-1 .2-.4.3-.6 1l-1-.2q.1-.7.5-1 .3-.5.9-.7.6-.2 1.4-.2.8 0 1.3.2t.7.5q.3.2.4.7v4.3l.4.7h-1.2l-.2-.8Zm0-2.4q-.6.3-1.8.4l-.9.3q-.3 0-.4.3-.2.2-.2.5 0 .4.4.7.3.3.9.3.6 0 1-.3.6-.3.8-.7l.1-1v-.5Zm5.3 2.2.1 1h-.8l-.9-.1q-.3-.2-.4-.5l-.1-1.3v-3.5H94v-.9h.8v-1.5l1-.6v2.1h1v.9h-1v4.2l.2.2h.9Zm.7-6.4v-1.2h1v1.2h-1Zm0 7.4v-6.3h1v6.3h-1Zm2.6-3.2q0-1.7 1-2.5.7-.7 1.9-.7 1.3 0 2 .8 1 .9 1 2.4 0 1.2-.4 1.8-.4.7-1.1 1.1-.7.4-1.5.4-1.3 0-2.1-.8-.8-.9-.8-2.5Zm1 0q0 1.2.6 1.8.5.6 1.3.6t1.3-.6q.5-.6.5-1.8 0-1.1-.5-1.7-.5-.6-1.3-.6t-1.3.6q-.5.5-.5 1.7Zm6.4 3.2v-6.3h1v1q.6-1.1 1.9-1.1.6 0 1 .2l.8.5.3.8v4.9h-1V140l-.1-1-.5-.5q-.3-.2-.7-.2-.7 0-1.2.4-.5.5-.5 1.7v3.4h-1Zm11-.8-1.1.7q-.5.2-1.2.2-1 0-1.5-.5-.6-.5-.6-1.3l.2-.8q.2-.4.6-.6.3-.3.7-.4l1-.1 1.8-.4v-.3q0-.6-.2-.9-.5-.3-1.3-.3-.7 0-1 .2-.4.3-.6 1l-1-.2q.1-.7.5-1 .3-.5.9-.7.6-.2 1.4-.2.8 0 1.3.2t.7.5q.3.2.4.7v4.3l.4.7h-1.2l-.2-.8Zm0-2.4q-.6.3-1.8.4l-.9.3q-.3 0-.4.3-.2.2-.2.5 0 .4.4.7.3.3.9.3.6 0 1-.3.6-.3.8-.7l.1-1v-.5Zm3 3.2v-8.6h1v8.6h-1Zm6 0v-8.6h1.2v7.5h4.2v1h-5.3Zm7-7.4v-1.2h1v1.2h-1Zm0 7.4v-6.3h1v6.3h-1Zm3 0v-6.3h1v1q.2-.6.7-.8.5-.3 1.1-.3.7 0 1.1.3.5.3.7.8.7-1.1 1.9-1.1 1 0 1.4.5.5.5.5 1.6v4.3h-1v-4q0-.6-.2-.9 0-.3-.3-.4-.3-.2-.7-.2-.6 0-1 .4-.5.5-.5 1.4v3.7h-1v-4q0-.8-.3-1.1-.2-.4-.8-.4-.5 0-.9.2l-.5.7q-.2.5-.2 1.3v3.3h-1Zm11-7.4v-1.2h1v1.2h-1Zm0 7.4v-6.3h1v6.3h-1Zm5.3-1 .1 1h-.8l-.9-.1q-.3-.2-.4-.5l-.1-1.3v-3.5h-.8v-.9h.8v-1.5l1-.6v2.1h1v.9h-1v4.2l.2.2h.9Zm5-1h1q-.2 1-1 1.6-.6.5-1.7.5-1.4 0-2.2-.8-.8-.9-.8-2.4 0-1.6.8-2.4.8-.9 2.1-.9t2 .8q.9.9.9 2.4v.3h-4.7q0 1 .6 1.6.5.5 1.3.5.6 0 1-.3t.6-1Zm-3.5-1.7h3.4q0-.8-.3-1.2-.6-.6-1.4-.6-.7 0-1.2.4-.5.5-.5 1.4Zm10.2 3.7v-.8q-.6.9-1.7.9-.8 0-1.4-.4-.6-.4-1-1.2-.3-.7-.3-1.7 0-.9.3-1.6.3-.8 1-1.2.6-.4 1.3-.4.6 0 1 .2l.7.6v-3h1.1v8.6h-1Zm-3.3-3.2q0 1.3.5 1.8.5.6 1.2.6t1.1-.5q.5-.6.5-1.8 0-1.2-.5-1.8-.5-.6-1.2-.6t-1.1.6q-.5.5-.5 1.7Zm-55.6 31.8v-1h3.7v3.2q-.9.7-1.8 1-.8.3-1.8.3-1.3 0-2.3-.5-1-.5-1.6-1.5-.5-1-.5-2.3 0-1.3.5-2.4.6-1 1.6-1.6 1-.5 2.2-.5 1 0 1.7.3.8.3 1.2.8.4.5.6 1.4l-1 .3q-.2-.7-.5-1-.3-.4-.8-.6-.5-.3-1.2-.3t-1.3.3q-.6.2-1 .6l-.5.9q-.3.8-.3 1.7 0 1.1.4 2 .4.7 1.1 1 .8.4 1.7.4.7 0 1.4-.3.7-.2 1-.6v-1.6h-2.5Zm4.5.3q0-1.7 1-2.6.7-.7 1.9-.7 1.3 0 2 .9 1 .8 1 2.3 0 1.2-.4 1.9t-1.1 1q-.7.4-1.5.4-1.3 0-2.1-.8t-.8-2.4Zm1 0q0 1.2.6 1.8.5.6 1.3.6t1.3-.6q.5-.6.5-1.8 0-1.2-.5-1.8-.5-.6-1.3-.6t-1.3.6q-.5.6-.5 1.8Zm6 0q0-1.7 1-2.6.7-.7 1.9-.7 1.3 0 2 .9 1 .8 1 2.3 0 1.2-.4 1.9t-1.1 1q-.7.4-1.5.4-1.3 0-2.1-.8t-.8-2.4Zm1 0q0 1.2.6 1.8.5.6 1.3.6t1.3-.6q.5-.6.5-1.8 0-1.2-.5-1.8-.5-.6-1.3-.6t-1.3.6q-.5.6-.5 1.8Zm6.2 3.6 1 .2q0 .4.4.7.4.3 1 .3.8 0 1.2-.3.4-.3.5-.8V175q-.6.8-1.6.8-1.3 0-2-1-.7-.9-.7-2.1 0-1 .3-1.7t1-1.1q.5-.5 1.4-.5 1 0 1.8 1v-.8h1v5.4q0 1.4-.3 2-.3.6-1 1-.6.3-1.6.3t-1.8-.5q-.6-.5-.6-1.5Zm.9-3.7q0 1.2.4 1.8.5.5 1.3.5.7 0 1.2-.5.5-.6.5-1.8 0-1.1-.5-1.7-.5-.6-1.3-.6-.7 0-1.2.6-.4.6-.4 1.7Zm6.2 3.2v-8.6h1.1v8.6h-1Zm7.3-2 1.1.1q-.2 1-1 1.5t-1.7.5q-1.4 0-2.2-.8-.8-.8-.8-2.4 0-1.5.8-2.4.8-.9 2.1-.9t2 .9q.9.8.9 2.4v.3h-4.7q0 1 .6 1.5.5.6 1.3.6.6 0 1-.3t.6-1Zm-3.4-1.7h3.4q0-.8-.3-1.2-.6-.6-1.4-.6-.7 0-1.2.5t-.5 1.3Zm9.3 3.7v-8.6h1.1v7.6h4.2v1h-5.3Zm7 0v-8.6h1.1v7.6h4.2v1h-5.3Zm13.1-3 1.2.3q-.4 1.4-1.3 2.1-1 .7-2.3.7-1.4 0-2.2-.5-1-.6-1.4-1.6-.4-1.1-.4-2.4 0-1.3.5-2.3.5-1 1.4-1.5 1-.5 2.1-.5 1.3 0 2.2.6.9.7 1.2 1.9l-1 .2q-.4-.9-1-1.3-.5-.5-1.4-.5-1 0-1.6.5-.7.5-1 1.3-.3.8-.3 1.6 0 1.1.4 2 .3.8 1 1.2.6.4 1.4.4 1 0 1.6-.6.7-.5 1-1.6Zm-37 42v-8.5h4.4l1.3.7q.6.6 1 1.5.3.9.3 2 0 1-.2 1.7-.2.8-.6 1.3l-.8.8q-.4.3-1 .4-.6.2-1.4.2h-3.1Zm1-1h1.9l1.3-.1.8-.5q.4-.4.6-1 .2-.7.2-1.7 0-1.4-.4-2-.4-.8-1-1-.5-.2-1.5-.2h-1.9v6.5Zm7.8-6.3v-1.2h1v1.2h-1Zm0 7.4v-6.3h1v6.3h-1Zm7 0v-.8q-.6.9-1.7.9-.8 0-1.4-.4-.6-.4-1-1.2-.3-.7-.3-1.7 0-.9.3-1.6.3-.8 1-1.2.6-.4 1.3-.4.6 0 1 .2l.7.6v-3h1.1v8.6h-1Zm-3.3-3.2q0 1.2.5 1.8.5.6 1.2.6t1.1-.5q.5-.6.5-1.8 0-1.2-.5-1.8-.5-.6-1.2-.6t-1.1.5q-.5.6-.5 1.8Zm5.9 0q0-1.7 1-2.5.7-.7 1.9-.7 1.3 0 2 .8 1 .9 1 2.3 0 1.3-.4 2-.4.6-1.1 1-.7.4-1.5.4-1.3 0-2.1-.8-.8-.9-.8-2.5Zm1 0q0 1.2.6 1.8.5.6 1.3.6t1.3-.6q.5-.6.5-1.8 0-1.1-.5-1.7-.5-.6-1.3-.6t-1.3.6q-.5.5-.5 1.7Zm6.4 3.2v-6.3h1v1q.2-.6.7-.8.5-.3 1.1-.3.7 0 1.1.3.5.3.7.8.7-1.1 1.9-1.1 1 0 1.4.5.5.5.5 1.6v4.3h-1v-4q0-.6-.2-.9 0-.3-.3-.4-.3-.2-.7-.2-.6 0-1 .4-.5.5-.5 1.4v3.7h-1v-4.1q0-.7-.3-1-.2-.4-.8-.4-.5 0-.9.2l-.5.7q-.2.5-.2 1.3v3.3h-1Zm11-7.4v-1.2h1v1.2h-1Zm0 7.4v-6.3h1v6.3h-1Zm-70.3 32h-1.1v-6.7l-1 .7q-.6.4-1.1.5v-1q.9-.4 1.5-1 .7-.6 1-1.1h.7v8.6Zm3-4.2q0-1.6.3-2.5.3-1 1-1.4.5-.5 1.5-.5.7 0 1.2.3.5.2.9.8l.5 1.2q.2.8.2 2 0 1.6-.3 2.5-.3 1-1 1.4-.6.5-1.5.5-1.3 0-2-.9-.8-1-.8-3.4Zm1 0q0 2 .6 2.8.5.7 1.2.7t1.2-.7q.5-.7.5-2.8 0-2.2-.5-2.8-.5-.7-1.2-.7-.8 0-1.2.6-.5.7-.5 2.9Zm11.5 3.2v1h-5.7q0-.4.2-.7.2-.6.7-1.2l1.3-1.3q1.5-1.1 2-1.8.4-.7.4-1.3 0-.6-.4-1-.5-.4-1.2-.4-.8 0-1.2.4-.5.5-.5 1.3l-1-.1q0-1.3.8-1.9.7-.6 2-.6 1.2 0 1.9.7.7.6.7 1.7l-.2 1q-.2.5-.7 1l-1.6 1.5-1.3 1.1-.4.6h4.2Zm1.5-3.2q0-1.6.3-2.5.3-1 1-1.4.5-.5 1.5-.5.7 0 1.2.3.5.2.9.8l.5 1.2q.2.8.2 2 0 1.6-.3 2.5-.3 1-1 1.4-.6.5-1.5.5-1.3 0-2-.9-.8-1-.8-3.4Zm1 0q0 2 .6 2.8.5.7 1.2.7t1.2-.7q.5-.7.5-2.8 0-2.2-.5-2.8-.5-.7-1.2-.7-.8 0-1.2.6-.5.7-.5 2.9Zm6.5 4.2v-1.2h1.2v1.2q0 .7-.2 1-.2.5-.7.7l-.3-.5q.3 0 .5-.4l.2-.8h-.7Zm6.1 0v-8.6h1.1v8.6h-1Zm2.7 0v-6.2h1v.9q.6-1 1.9-1l1 .1q.5.2.8.6l.3.7v4.9h-1v-3.8l-.1-1q-.2-.3-.5-.4-.3-.3-.7-.3-.7 0-1.2.5-.5.4-.5 1.6v3.4h-1Zm11-2.3 1 .2q-.1 1-.8 1.6-.7.6-1.7.6-1.3 0-2-.8-.8-.8-.8-2.4 0-1 .3-1.7.3-.8 1-1.2.7-.4 1.5-.4 1 0 1.6.6.7.5.9 1.4l-1 .2q-.2-.7-.6-1-.3-.3-.9-.3-.8 0-1.3.6-.5.5-.5 1.8 0 1.2.5 1.8.5.6 1.3.6.6 0 1-.4t.5-1.2Zm2.3 2.3v-1.2h1.2v1.2h-1.2Zm9.7 0v-.8q-.6 1-1.7 1-.8 0-1.4-.5-.6-.4-1-1.1-.3-.8-.3-1.7 0-1 .3-1.7.3-.8 1-1.2.6-.4 1.3-.4.6 0 1 .3.5.2.7.6v-3h1.1v8.5h-1Zm-3.3-3.1q0 1.2.5 1.8.5.6 1.2.6t1.1-.6q.5-.6.5-1.7 0-1.3-.5-1.9-.5-.6-1.2-.6t-1.1.6q-.5.6-.5 1.8Zm7.2 3.1h-1v-8.6h1.1v3q.7-.8 1.7-.8.6 0 1.1.3.5.2.9.6l.5 1q.2.6.2 1.3 0 1.6-.8 2.5-.8.8-2 .8-1 0-1.7-.9v.8Zm0-3.2q0 1.2.3 1.7.5.8 1.4.8.7 0 1.2-.6t.5-1.8q0-1.2-.5-1.8-.5-.6-1.2-.6t-1.2.6q-.5.6-.5 1.7Zm10.1 2.4-1.1.7q-.5.2-1.2.2-1 0-1.5-.5-.6-.5-.6-1.2 0-.5.2-.9t.6-.6l.7-.3 1-.2q1.2-.1 1.8-.4v-.2q0-.7-.2-1-.5-.3-1.3-.3-.7 0-1 .3-.4.2-.6.9l-1-.2q.1-.6.5-1 .3-.4.9-.6.6-.3 1.4-.3.8 0 1.3.2t.7.5q.3.3.4.7v4.3l.4.7h-1.2l-.2-.8Zm0-2.3-1.8.4q-.6 0-.9.2l-.4.3q-.2.2-.2.5 0 .4.4.7.3.3.9.3.6 0 1-.3.6-.2.8-.7l.1-1v-.4Zm-75 17.1v-8.6h4.6l1 .5q.5.3.7.8.3.6.3 1.2 0 1-.7 1.9-.7.7-2.6.7h-2.2v3.5h-1Zm1.1-4.5H94q1 0 1.5-.4t.5-1.2q0-.5-.3-.9t-.7-.5h-3.3v3Zm6.7 4.5v-8.6h1.1v8.6h-1Zm7.1-.8-1.1.7q-.5.2-1.2.2-1 0-1.5-.5-.6-.5-.6-1.2 0-.5.2-.9t.6-.6l.7-.3 1-.2q1.2-.1 1.8-.4v-.2q0-.7-.2-1-.5-.3-1.3-.3-.7 0-1 .3-.4.2-.6.9l-1-.2q.1-.6.5-1 .3-.4.9-.6.6-.3 1.4-.3.8 0 1.3.2t.7.5q.3.3.4.7v4.3l.4.7h-1.2l-.2-.8Zm0-2.3-1.8.4q-.6 0-.9.2l-.4.3q-.2.2-.2.5 0 .4.4.7.3.3.9.3.6 0 1-.3.6-.2.8-.7l.1-1v-.4Zm7 .8 1 .2q-.1 1-.8 1.6-.7.6-1.7.6-1.3 0-2-.8-.8-.8-.8-2.4 0-1 .3-1.7.3-.8 1-1.2.7-.4 1.5-.4 1 0 1.6.6.7.5.9 1.4l-1 .2q-.2-.7-.6-1-.3-.3-.9-.3-.8 0-1.3.6-.5.5-.5 1.8 0 1.2.5 1.8.5.6 1.3.6.6 0 1-.4t.5-1.2Zm6.2.3 1.1.1q-.2 1-1 1.5-.6.5-1.7.5-1.4 0-2.2-.8-.8-.8-.8-2.4 0-1.5.8-2.4.8-.9 2.1-.9t2 .9q.9.8.9 2.4v.3h-4.7q0 1 .6 1.5.5.6 1.3.6.6 0 1-.3t.6-1Zm-3.4-1.7h3.4q0-.8-.3-1.2-.6-.6-1.4-.6-.7 0-1.2.5t-.5 1.3Zm10.2 1.4 1 .2q-.1 1-.8 1.6-.7.6-1.7.6-1.3 0-2-.8-.8-.8-.8-2.4 0-1 .3-1.7.3-.8 1-1.2.7-.4 1.5-.4 1 0 1.6.6.7.5.9 1.4l-1 .2q-.2-.7-.6-1-.3-.3-.9-.3-.8 0-1.3.6-.5.5-.5 1.8 0 1.2.5 1.8.5.6 1.3.6.6 0 1-.4t.5-1.2Zm6 1.5-1.1.7q-.5.2-1.2.2-1 0-1.5-.5-.6-.5-.6-1.2 0-.5.2-.9t.6-.6l.7-.3 1-.2q1.2-.1 1.8-.4v-.2q0-.7-.2-1-.5-.3-1.3-.3-.7 0-1 .3-.4.2-.6.9l-1-.2q.1-.6.5-1 .3-.4.9-.6.6-.3 1.4-.3.8 0 1.3.2t.7.5q.3.3.4.7v4.3l.4.7h-1.2l-.2-.8Zm0-2.3-1.8.4q-.6 0-.9.2l-.4.3q-.2.2-.2.5 0 .5.4.7.3.3.9.3.6 0 1-.3.6-.2.8-.7l.1-1v-.4Zm2.6 1.2 1-.1q0 .6.5 1 .4.3 1.1.3.7 0 1-.3.4-.3.4-.7 0-.4-.3-.6l-1-.3-1.7-.5-.6-.6q-.3-.4-.3-.9 0-.4.2-.7.2-.4.5-.6l.7-.3q.4-.2 1-.2t1.2.3q.6.2.8.5.3.4.4 1l-1 .1q-.1-.5-.5-.7-.3-.3-1-.3-.6 0-1 .3-.3.2-.3.5l.2.4.4.3 1 .2 1.5.5q.4.2.7.6.2.3.2.9 0 .5-.3 1-.3.4-.9.7-.6.2-1.3.2-1.2 0-1.8-.5-.7-.5-.8-1.5Zm9.7 1 .1.9h-1.6l-.4-.6-.1-1.2v-3.6h-.8v-.8h.8v-1.6l1-.6v2.2h1v.8h-1v4.2l.2.2h.9Zm7.7.1-1.1.7q-.5.2-1.2.2-1 0-1.5-.5-.6-.5-.6-1.2 0-.5.2-.9t.6-.6l.7-.3 1-.2q1.2-.1 1.8-.4v-.2q0-.7-.2-1-.5-.3-1.3-.3-.7 0-1 .3-.4.2-.6.9l-1-.2q.1-.6.5-1 .3-.4.9-.6.6-.3 1.4-.3.8 0 1.3.2t.7.5q.3.3.4.7v4.3l.4.7h-1.2l-.2-.8Zm0-2.3-1.8.4q-.6 0-.9.2l-.4.3q-.2.2-.2.5 0 .5.4.7.3.3.9.3.6 0 1-.3.6-.2.8-.7l.1-1v-.4Zm3 3.1v-6.2h1v.9q.6-1 1.9-1l1 .1q.5.2.8.6l.3.7v4.9h-1v-3.8l-.1-1q-.2-.3-.5-.4-.3-.3-.7-.3-.7 0-1.2.5-.5.4-.5 1.6v3.4h-1Zm11 0v-.8q-.6 1-1.7 1-.8 0-1.4-.5-.6-.4-1-1.1-.3-.8-.3-1.7 0-1 .3-1.7.3-.8 1-1.2.6-.4 1.3-.4.6 0 1 .3.5.2.7.6v-3h1.1v8.5h-1Zm-3.3-3.1q0 1.2.5 1.8.5.6 1.2.6t1.1-.6q.5-.6.5-1.7 0-1.3-.5-1.9-.5-.6-1.2-.6t-1.1.6q-.5.6-.5 1.8Zm-38.7 27.8v-1.2h1v1.2h-1Zm0 7.3v-6.2h1v6.2h-1Zm7 0v-.9q-.7 1-2 1l-1-.1-.7-.5-.3-.8v-4.9h1v4.5q.2.5.5.7.3.3.8.3t.9-.3q.4-.2.6-.6l.1-1.2v-3.4h1.1v6.2h-1Zm4 0h-1v-8.5h1v3q.7-.8 1.7-.8.6 0 1.1.2.5.2.9.7l.5 1 .2 1.2q0 1.6-.8 2.5-.8.9-2 .9-1 0-1.7-1v.8Zm0-3.1q0 1.1.2 1.6.5.8 1.4.8.7 0 1.2-.6t.5-1.8q0-1.2-.5-1.8-.5-.6-1.2-.6t-1.2.7q-.5.6-.5 1.7Zm10.2 1.1 1.1.2q-.2 1-1 1.5t-1.7.5q-1.4 0-2.2-.9-.8-.8-.8-2.3 0-1.6.8-2.4.8-1 2.1-1t2 1q.9.8.9 2.3v.3h-4.7q0 1 .6 1.6.5.5 1.3.5.6 0 1-.3t.6-1Zm-3.4-1.7h3.4q0-.8-.3-1.1-.6-.7-1.4-.7-.7 0-1.2.5t-.5 1.3Zm6.2 3.7v-6.2h1v.9q.6-1 1.9-1 .6 0 1 .2l.8.5.3.8v4.8h-1v-3.7l-.1-1-.5-.5q-.3-.2-.7-.2-.7 0-1.2.4-.5.5-.5 1.6v3.4h-1Zm11 0v-.7q-.6.9-1.7.9-.8 0-1.4-.4-.6-.4-1-1.2-.3-.7-.3-1.7 0-.9.3-1.6.3-.8 1-1.2.6-.4 1.3-.4.6 0 1 .2l.7.6v-3h1.1v8.5h-1Zm-3.3-3q0 1.1.5 1.7.5.6 1.2.6t1.1-.5q.5-.6.5-1.8 0-1.2-.5-1.8-.5-.6-1.2-.6t-1.1.5q-.5.6-.5 1.8Zm10.3 2.3-1.1.7q-.5.2-1.2.2-1 0-1.5-.5-.6-.5-.6-1.3l.2-.8q.2-.4.6-.6.3-.3.7-.4l1-.1 1.8-.4v-.3q0-.6-.2-.9-.5-.3-1.3-.3-.7 0-1 .2-.4.3-.6 1l-1-.2q.1-.7.5-1 .3-.5.9-.7.6-.2 1.4-.2.8 0 1.3.2l.7.4q.3.3.4.8v4.2l.4.7h-1.2l-.2-.7Zm0-2.4q-.6.3-1.8.4l-.9.2-.4.4q-.2.2-.2.5 0 .4.4.7.3.3.9.3.6 0 1-.3.6-.3.8-.7l.1-1v-.5Zm-63.3 32.4h1l.5 1q.2.4.8.7.6.2 1.3.2.7 0 1.2-.2t.7-.5q.3-.3.3-.7 0-.4-.3-.7l-.7-.6-1.6-.4-1.6-.5q-.6-.3-1-.8l-.2-1q0-.7.3-1.3.4-.6 1.1-.8.7-.3 1.6-.3 1 0 1.7.3t1 .9q.5.6.5 1.3l-1 .1q-.2-.8-.7-1.2-.5-.4-1.5-.4t-1.5.3q-.4.4-.4 1 0 .4.3.7.3.3 1.7.6t1.9.6q.7.3 1.1.9.4.5.4 1.2t-.4 1.3q-.4.6-1.2 1-.7.2-1.6.2-1.2 0-2-.3t-1.2-1q-.5-.7-.5-1.6Zm7.9-.3q0-1.7 1-2.6.7-.7 1.9-.7 1.3 0 2 .9 1 .8 1 2.3 0 1.2-.4 1.9t-1.1 1q-.7.4-1.5.4-1.3 0-2.1-.8t-.8-2.4Zm1 0q0 1.2.6 1.8.5.6 1.3.6t1.3-.6q.5-.6.5-1.8 0-1.2-.5-1.8-.5-.6-1.3-.6t-1.3.6q-.5.6-.5 1.8Zm10.5 3.1v-1q-.8 1.1-2 1.1-.6 0-1-.2l-.8-.5-.3-.8v-4.8h1v4.5l.5.7q.3.2.8.2t.9-.2q.4-.3.6-.7l.1-1.2v-3.3h1.1v6.2h-1Zm2.9 0v-6.2h1v1q.3-.7.6-1 .3-.2.7-.2.5 0 1 .4l-.3 1q-.4-.3-.8-.3l-.6.2q-.3.2-.4.6l-.2 1.2v3.3h-1Zm8-2.3 1 .2q-.1 1-.8 1.6-.7.6-1.7.6-1.3 0-2-.8-.8-.8-.8-2.4 0-1 .3-1.7.3-.8 1-1.2.7-.4 1.5-.4 1 0 1.6.6.7.5.9 1.4l-1 .2q-.2-.7-.6-1-.3-.3-.9-.3-.8 0-1.3.6-.5.5-.5 1.8 0 1.2.5 1.8.5.6 1.3.6.6 0 1-.4t.5-1.2Zm6.2.3 1.1.1q-.2 1-1 1.5-.6.5-1.7.5-1.4 0-2.2-.8-.8-.9-.8-2.4t.8-2.4q.8-.9 2.1-.9t2 .9q.9.8.9 2.4v.3h-4.7q0 1 .6 1.5.5.6 1.3.6.6 0 1-.3t.6-1Zm-3.4-1.7h3.4q0-.8-.3-1.2-.6-.6-1.4-.6-.7 0-1.2.5t-.5 1.3Zm6.2 6V319h1v.8q.3-.5.7-.7.4-.3 1-.3.8 0 1.5.4.6.4.9 1.2.3.7.3 1.6 0 1-.4 1.8-.3.7-1 1.1-.6.4-1.3.4-.6 0-1-.2l-.7-.5v3h-1Zm1-5.4q0 1.2.4 1.8.5.6 1.2.6t1.2-.6q.5-.6.5-1.9 0-1.2-.5-1.7-.5-.6-1.2-.6-.6 0-1.2.6t-.5 1.8Zm5.6 0q0-1.7 1-2.6.7-.7 1.9-.7 1.3 0 2 .9 1 .8 1 2.3 0 1.2-.4 1.9t-1.1 1q-.7.4-1.5.4-1.3 0-2.1-.8t-.8-2.4Zm1 0q0 1.2.6 1.8.5.6 1.3.6t1.3-.6q.5-.6.5-1.8 0-1.2-.5-1.8-.5-.6-1.3-.6t-1.3.6q-.5.6-.5 1.8Zm6.4-4.3v-1.2h1v1.2h-1Zm0 7.4v-6.2h1v6.2h-1Zm3 0v-6.2h1v.9q.6-1 1.9-1l1 .1q.5.2.8.6l.3.7v4.9h-1v-3.8l-.1-1-.5-.5q-.3-.2-.7-.2-.7 0-1.2.5-.5.4-.5 1.6v3.4h-1Zm9.3-1 .1 1h-.8l-.9-.1q-.3-.2-.4-.5l-.1-1.2v-3.6h-.8v-.8h.8v-1.6l1-.6v2.2h1v.8h-1v4.2l.2.2h.9Zm-97 15v-7.6H68v-1h6.8v1H72v7.6h-1Zm9-2 1 .1q-.2 1-1 1.5-.6.5-1.7.5-1.4 0-2.2-.8-.8-.9-.8-2.4t.8-2.4q.8-.9 2.1-.9t2 .9q.9.8.9 2.4v.3h-4.7q0 1 .6 1.5.5.6 1.3.6.6 0 1-.3t.6-1Zm-3.5-1.7h3.4q0-.8-.3-1.2-.6-.6-1.4-.6-.7 0-1.2.5t-.5 1.3Zm10.2 1.4 1 .2q-.1 1-.8 1.6-.7.6-1.7.6-1.3 0-2-.8-.8-.8-.8-2.4 0-1 .3-1.7.3-.8 1-1.2.7-.4 1.5-.4 1 0 1.6.6.7.5.9 1.4l-1 .2q-.2-.7-.6-1-.3-.3-.9-.3-.8 0-1.3.6-.5.5-.5 1.8 0 1.2.5 1.8.5.6 1.3.6.6 0 1-.4t.5-1.2Zm2 2.3v-8.6h1v3q.8-.8 1.9-.8.7 0 1.2.3t.7.8q.2.4.2 1.4v3.9h-1v-4q0-.7-.3-1.1-.4-.4-1-.4-.5 0-1 .3-.3.2-.5.6-.2.5-.2 1.2v3.4h-1Zm7 0v-6.2h1v.9q.6-1 1.9-1l1 .1q.5.2.8.6l.3.7v4.9h-1v-3.8l-.1-1-.5-.5q-.3-.2-.7-.2-.7 0-1.2.5-.5.4-.5 1.6v3.4h-1Zm6.6-3.1q0-1.7 1-2.6.7-.7 1.9-.7 1.3 0 2 .9 1 .8 1 2.3 0 1.2-.4 1.9t-1.1 1q-.7.4-1.5.4-1.3 0-2.1-.8t-.8-2.4Zm1 0q0 1.2.6 1.8.5.6 1.3.6t1.3-.6q.5-.6.5-1.8 0-1.2-.5-1.8-.5-.6-1.3-.6t-1.3.6q-.5.6-.5 1.8Zm6.3 3.1v-8.6h1.1v8.6h-1Zm2.7-3.1q0-1.7 1-2.6.7-.7 1.9-.7 1.3 0 2 .9 1 .8 1 2.3 0 1.2-.4 1.9t-1.1 1q-.7.4-1.5.4-1.3 0-2.1-.8t-.8-2.4Zm1 0q0 1.2.6 1.8.5.6 1.3.6t1.3-.6q.5-.6.5-1.8 0-1.2-.5-1.8-.5-.6-1.3-.6t-1.3.6q-.5.6-.5 1.8Zm6.2 3.6 1 .2q0 .4.4.7.4.3 1 .3.8 0 1.2-.3.4-.3.5-.9v-1.3q-.6.8-1.6.8-1.3 0-2-1-.7-.9-.7-2.1 0-1 .3-1.7.3-.8 1-1.2.5-.4 1.4-.4 1 0 1.8 1v-.8h1v5.4q0 1.4-.3 2-.3.6-1 1-.6.3-1.6.3t-1.8-.5q-.6-.5-.6-1.5Zm.9-3.7q0 1.2.4 1.8.5.5 1.3.5.7 0 1.2-.5.5-.6.5-1.8 0-1.1-.5-1.7-.5-.6-1.3-.6-.7 0-1.2.6-.4.6-.4 1.7Zm6.3-4.2v-1.2h1v1.2h-1Zm0 7.4v-6.2h1v6.2h-1Zm7.2-2 1.1.1q-.2 1-1 1.5-.6.5-1.7.5-1.4 0-2.2-.8-.8-.9-.8-2.4t.8-2.4q.8-.9 2.1-.9t2 .9q.9.8.9 2.4v.3h-4.7q0 1 .6 1.5.5.6 1.3.6.6 0 1-.3t.6-1Zm-3.4-1.7h3.4q0-.8-.3-1.2-.6-.6-1.4-.6-.7 0-1.2.5t-.5 1.3Zm5.8 1.8 1-.1q0 .6.5 1 .4.3 1.1.3.7 0 1-.3.4-.3.4-.7 0-.4-.3-.6l-1-.3-1.7-.5-.6-.6q-.3-.4-.3-.9 0-.4.2-.7.2-.4.5-.6l.7-.3q.4-.2 1-.2t1.2.3q.6.2.8.5.3.4.4 1l-1 .1q-.1-.5-.5-.7-.3-.3-1-.3-.6 0-1 .2-.3.3-.3.6l.2.4.4.2 1 .3 1.5.5q.4.2.7.6.2.3.2.9 0 .5-.3 1-.3.4-.9.7-.6.2-1.3.2-1.2 0-1.8-.5-.7-.5-.8-1.5Zm7.6 1.9v-1.2h1.2v1.2q0 .7-.2 1-.2.5-.7.7l-.3-.5q.3 0 .5-.4l.2-.8h-.7Zm6.1 0v-8.6h1.1v8.6h-1Zm2.7 0v-6.2h1v.9q.6-1 1.9-1l1 .1q.5.2.8.6l.3.7v4.9h-1v-3.8l-.1-1-.5-.5q-.3-.2-.7-.2-.7 0-1.2.5-.5.4-.5 1.6v3.4h-1Zm11-2.3 1 .2q-.1 1-.8 1.6-.7.6-1.7.6-1.3 0-2-.8-.8-.8-.8-2.4 0-1 .3-1.7.3-.8 1-1.2.7-.4 1.5-.4 1 0 1.6.6.7.5.9 1.4l-1 .2q-.2-.7-.6-1-.3-.3-.9-.3-.8 0-1.3.6-.5.5-.5 1.8 0 1.2.5 1.8.5.6 1.3.6.6 0 1-.4t.5-1.2Zm2.3 2.3v-1.2h1.2v1.2h-1.2Zm-47.6 29.3 1-.1.5 1q.2.5.8.7.6.3 1.3.3.7 0 1.2-.2t.7-.5q.3-.4.3-.8t-.3-.7q-.2-.3-.7-.5l-1.6-.4q-1.2-.3-1.6-.6-.6-.3-1-.8-.2-.4-.2-1 0-.7.3-1.2.4-.6 1.1-.9.7-.3 1.6-.3 1 0 1.7.3t1 1q.5.5.5 1.3h-1q-.2-.8-.7-1.2-.5-.4-1.5-.4t-1.5.4q-.4.4-.4.9t.3.8 1.7.6l1.9.5q.7.4 1.1.9.4.5.4 1.2t-.4 1.3q-.4.6-1.2 1-.7.3-1.6.3-1.2 0-2-.3-.8-.4-1.2-1-.5-.8-.5-1.6Zm8.6 2.7v-8.6h1.1v8.6h-1Zm2.8 0v-8.6h3.8q1.2 0 1.8.3.6.2 1 .8.3.6.3 1.3 0 1-.6 1.5t-1.8.8l.7.5q.5.4.9 1.1l1.5 2.3h-1.4l-1.2-1.7-.8-1.2-.6-.6q-.2-.2-.5-.2H131v3.7h-1.2Zm1.2-4.8h2.4l1.2-.1q.5-.2.7-.5l.2-.8q0-.6-.4-1-.5-.4-1.4-.4h-2.7v2.8Zm7.8 4.8v-8.6h3q1 0 1.5.2.7.1 1.3.6.6.6 1 1.5.3.9.3 2 0 1-.2 1.7-.2.8-.6 1.3l-.8.8-1 .4-1.4.1h-3.1Zm1.1-1h1.9l1.3-.1.8-.5q.4-.4.6-1 .2-.7.2-1.7 0-1.4-.4-2-.4-.8-1-1-.5-.2-1.5-.2h-1.9v6.5Zm7 1 3.3-8.6h1.2l3.5 8.6h-1.3l-1-2.6h-3.6l-1 2.6h-1.1Zm2.5-3.5h2.9l-1-2.4q-.4-1-.5-1.7l-.5 1.6-1 2.5Zm7.6 3.5v-7.5H154v-1h6.8v1H158v7.5h-1Zm3.9 0 3.3-8.6h1.2l3.5 8.6h-1.3l-1-2.6h-3.6l-1 2.6h-1.1Zm2.5-3.5h2.9l-1-2.4q-.4-1-.5-1.7l-.5 1.6-1 2.5Zm-6.5 38.7q0-1.6.3-2.5.3-1 1-1.4.5-.5 1.5-.5.7 0 1.2.3.5.2.9.8l.5 1.2q.2.8.2 2 0 1.6-.3 2.5-.3 1-1 1.4-.6.5-1.5.5-1.3 0-2-.9-.8-1-.8-3.4Zm1 0q0 2 .6 2.8.5.7 1.2.7t1.2-.7q.5-.7.5-2.8 0-2.2-.5-2.8-.5-.7-1.2-.7-.8 0-1.2.6-.5.7-.5 2.9Zm6.6 4.2v-1.2h1.2v1.2h-1.2Zm2.4-4.2q0-1.6.3-2.5.3-1 1-1.4.5-.5 1.5-.5.7 0 1.2.3.5.2.9.8l.5 1.2q.2.8.2 2 0 1.6-.3 2.5-.3 1-1 1.4-.6.5-1.5.5-1.3 0-2-.9-.8-1-.8-3.4Zm1 0q0 2 .6 2.8.5.7 1.2.7t1.2-.7q.5-.7.5-2.8 0-2.2-.5-2.8-.5-.7-1.2-.7-.8 0-1.2.6-.5.7-.5 2.9Zm6 0q0-1.6.3-2.5.3-1 1-1.4.5-.5 1.5-.5.7 0 1.2.3.5.2.9.8l.5 1.2q.2.8.2 2 0 1.6-.3 2.5-.3 1-1 1.4-.6.5-1.5.5-1.3 0-2-.9-.8-1-.8-3.4Zm1 0q0 2 .6 2.8.5.7 1.2.7t1.2-.7q.5-.7.5-2.8 0-2.2-.5-2.8-.5-.7-1.2-.7-.8 0-1.2.6-.5.7-.5 2.9Zm6.2-2.3q0-1 .4-1.6.5-.6 1.4-.6.8 0 1.3.5.6.6.6 1.7t-.6 1.7q-.5.6-1.3.6t-1.3-.6q-.5-.6-.5-1.7Zm1.8-1.5q-.4 0-.6.3-.3.4-.3 1.3 0 .8.3 1.1.2.4.6.4.4 0 .7-.4.2-.3.2-1.2 0-.8-.2-1.2-.3-.3-.7-.3Zm0 8.3 4.7-9h.9l-4.7 9h-.9Zm3.7-2.3q0-1 .5-1.6.5-.6 1.3-.6.9 0 1.4.6.5.5.5 1.6t-.5 1.7q-.6.6-1.4.6-.7 0-1.3-.6-.5-.5-.5-1.7Zm1.9-1.5q-.4 0-.7.3-.2.4-.2 1.3 0 .8.2 1.1.3.4.7.4.4 0 .6-.4t.3-1.2q0-.8-.3-1.2-.2-.3-.6-.3Zm68.8-.7q0-1.6.3-2.5.3-1 1-1.4.6-.5 1.5-.5.7 0 1.2.3.5.2.9.8l.5 1.2q.2.8.2 2 0 1.6-.3 2.5-.3 1-1 1.4-.5.5-1.5.5-1.2 0-2-.9-.8-1-.8-3.4Zm1 0q0 2 .6 2.8.5.7 1.2.7t1.2-.7q.5-.7.5-2.8 0-2.2-.5-2.8-.5-.7-1.2-.7t-1.2.6q-.5.7-.5 2.9Zm6.6 4.2v-1.2h1.2v1.2h-1.2Zm6.4 0h-1v-6.7l-1 .7-1.2.5v-1q.9-.4 1.6-1l1-1.1h.6v8.6Zm3-4.2q0-1.6.3-2.5.3-1 1-1.4.6-.5 1.5-.5.7 0 1.2.3.5.2.9.8l.5 1.2q.2.8.2 2 0 1.6-.3 2.5-.3 1-1 1.4-.5.5-1.5.5-1.2 0-2-.9-.8-1-.8-3.4Zm1 0q0 2 .6 2.8.5.7 1.2.7t1.2-.7q.5-.7.5-2.8 0-2.2-.5-2.8-.5-.7-1.2-.7t-1.2.6q-.5.7-.5 2.9Zm6.2-2.3q0-1 .5-1.6.4-.6 1.3-.6.8 0 1.4.5.5.6.5 1.7t-.6 1.7q-.5.6-1.3.6t-1.3-.6q-.5-.6-.5-1.7Zm1.8-1.5q-.3 0-.6.3-.3.4-.3 1.3 0 .8.3 1.1.3.4.6.4.4 0 .7-.4.3-.3.3-1.2 0-.8-.3-1.2-.3-.3-.7-.3Zm0 8.3 4.7-9h1l-4.8 9h-.9Zm3.8-2.3q0-1 .4-1.6.5-.6 1.4-.6.8 0 1.3.6.5.5.5 1.6t-.5 1.7q-.5.6-1.3.6t-1.3-.6q-.5-.5-.5-1.7Zm1.8-1.5q-.4 0-.7.3-.2.4-.2 1.3 0 .8.2 1.1.3.4.7.4t.7-.4q.2-.3.2-1.2 0-.8-.2-1.2-.3-.3-.7-.3Zm68.8-.7q0-1.6.4-2.5.3-1 .9-1.4.6-.5 1.5-.5.7 0 1.2.3.6.2 1 .8.3.5.4 1.2.2.8.2 2 0 1.6-.3 2.5-.3 1-.9 1.4-.6.5-1.6.5-1.2 0-2-.9-.8-1-.8-3.4Zm1.1 0q0 2 .5 2.8.5.7 1.2.7.8 0 1.3-.7t.5-2.8q0-2.2-.5-2.8-.5-.7-1.3-.7-.7 0-1.1.6-.6.7-.6 2.9Zm6.5 4.2v-1.2h1.2v1.2h-1.2Zm8-1v1h-5.7l.1-.7q.2-.6.7-1.2l1.4-1.3q1.4-1.1 1.9-1.8t.5-1.3q0-.6-.5-1-.4-.5-1.1-.5-.8 0-1.3.5-.4.5-.4 1.3l-1.1-.1q.1-1.3.8-1.9.8-.6 2-.6t2 .7q.7.6.7 1.7l-.2 1-.8 1q-.4.6-1.6 1.5l-1.2 1.1-.4.6h4.2Zm1.4-3.2q0-1.6.4-2.5.3-1 .9-1.4.6-.5 1.5-.5.7 0 1.2.3.6.2 1 .8.3.5.4 1.2.2.8.2 2 0 1.6-.3 2.5-.3 1-.9 1.4-.6.5-1.6.5-1.2 0-2-.9-.8-1-.8-3.4Zm1.1 0q0 2 .5 2.8.5.7 1.2.7.8 0 1.3-.7t.5-2.8q0-2.2-.5-2.8-.5-.8-1.3-.8-.7 0-1.1.7-.6.7-.6 2.9Zm6.1-2.3q0-1 .5-1.6.5-.6 1.3-.6.9 0 1.4.5.5.6.5 1.7t-.5 1.7q-.6.6-1.3.6-.8 0-1.3-.6-.6-.6-.6-1.7Zm1.9-1.5q-.4 0-.7.3-.2.4-.2 1.3 0 .8.2 1.1.3.4.7.4.4 0 .6-.4.3-.3.3-1.2 0-.8-.3-1.2-.2-.3-.6-.3Zm0 8.3 4.7-9h.8l-4.7 9h-.8Zm3.7-2.3q0-1 .4-1.6.5-.6 1.4-.6.8 0 1.3.6.6.5.6 1.6t-.6 1.7q-.5.6-1.3.6t-1.3-.6q-.5-.5-.5-1.7Zm1.8-1.5q-.4 0-.6.3-.3.4-.3 1.3 0 .8.3 1.1.2.4.6.4.4 0 .7-.4.3-.3.3-1.2 0-.8-.3-1.2-.3-.3-.7-.3Zm68.9-.7q0-1.6.3-2.5.3-1 1-1.4.5-.5 1.5-.5.7 0 1.2.3.5.2.8.8.4.5.6 1.2.2.8.2 2 0 1.6-.3 2.5-.3 1-1 1.4-.6.5-1.5.5-1.3 0-2-.9-.8-1-.8-3.4Zm1 0q0 2 .5 2.8.5.7 1.3.7.7 0 1.2-.7t.5-2.8q0-2.2-.5-2.8-.5-.7-1.2-.7-.8 0-1.2.6-.6.7-.6 2.9Zm6.6 4.2v-1.2h1.2v1.2h-1.2Zm2.4-2.3 1-.1q.2.9.6 1.3.5.4 1.1.4.8 0 1.3-.5t.5-1.3q0-.7-.5-1.2t-1.2-.5l-.8.1.2-.9h.1q.7 0 1.2-.3.6-.4.6-1.1 0-.6-.4-1t-1-.4q-.6 0-1 .4t-.6 1.2l-1-.2q.2-1 .9-1.6.6-.6 1.7-.6.7 0 1.3.3.5.3.9.8.3.5.3 1.1 0 .6-.3 1-.3.5-.9.7.8.2 1.2.8.4.5.4 1.4 0 1-.8 1.9-.8.8-2 .8t-2-.7q-.7-.7-.8-1.8Zm7-2q0-1.5.3-2.4.3-1 1-1.4.5-.5 1.5-.5.7 0 1.2.3.5.2.8.8.4.5.6 1.2.2.8.2 2 0 1.6-.3 2.5-.3 1-1 1.4-.6.5-1.5.5-1.3 0-2-.9-.8-1-.8-3.4Zm1 0q0 2.2.5 2.9.5.7 1.3.7.7 0 1.2-.7t.5-2.8q0-2.2-.5-2.8-.5-.8-1.2-.8-.8 0-1.2.7-.6.7-.6 2.9Zm6.2-2.2q0-1 .4-1.6.5-.6 1.4-.6.8 0 1.3.5.5.6.5 1.7t-.5 1.7q-.5.6-1.3.6t-1.3-.6-.5-1.7Zm1.8-1.5q-.4 0-.7.3-.2.4-.2 1.3 0 .8.2 1.1.3.4.7.4.4 0 .7-.4.2-.3.2-1.2 0-.8-.2-1.2-.3-.3-.7-.3Zm0 8.3 4.7-9h.9l-4.7 9h-.9Zm3.7-2.3q0-1 .5-1.6.4-.6 1.3-.6.8 0 1.4.6.5.5.5 1.6t-.5 1.7q-.6.6-1.4.6-.7 0-1.3-.6-.5-.5-.5-1.7Zm1.9-1.5q-.4 0-.7.3-.3.4-.3 1.3 0 .8.3 1.1.3.4.7.4.4 0 .6-.4.3-.3.3-1.2 0-.8-.3-1.2-.2-.3-.6-.3Zm68.8-.7q0-1.6.3-2.5.3-1 1-1.4.6-.5 1.5-.5.7 0 1.2.3.5.2.9.8l.5 1.2q.2.8.2 2 0 1.6-.3 2.5-.3 1-1 1.4-.6.5-1.5.5-1.2 0-2-.9-.8-1-.8-3.4Zm1 0q0 2 .6 2.8.5.7 1.2.7t1.2-.7q.5-.7.5-2.8 0-2.2-.5-2.8-.5-.7-1.2-.7t-1.2.6q-.5.7-.5 2.9Zm6.6 4.2v-1.2h1.2v1.2H566Zm5.8 0v-2h-3.7v-1l3.9-5.6h.8v5.6h1.2v1h-1.2v2h-1Zm0-3v-3.9l-2.7 3.9h2.7Zm3.6-1.2q0-1.6.3-2.5.3-1 1-1.4.6-.5 1.5-.5.7 0 1.2.3.5.2.9.8l.5 1.2q.2.8.2 2 0 1.6-.3 2.5-.3 1-1 1.4-.6.5-1.5.5-1.2 0-2-.9-.8-1-.8-3.4Zm1 0q0 2 .6 2.8.5.7 1.2.7t1.2-.7q.5-.7.5-2.8 0-2.2-.5-2.8-.5-.7-1.2-.7t-1.2.6q-.5.7-.5 2.9Zm6.2-2.3q0-1 .5-1.6.4-.6 1.3-.6.8 0 1.3.5.6.6.6 1.7t-.6 1.7q-.5.6-1.3.6t-1.3-.6q-.5-.6-.5-1.7Zm1.8-1.5q-.4 0-.6.3-.3.4-.3 1.3 0 .8.3 1.1.2.4.6.4.4 0 .7-.4.3-.3.3-1.2 0-.8-.3-1.2-.3-.3-.7-.3Zm0 8.3 4.7-9h.9l-4.7 9h-.9Zm3.7-2.3q0-1 .5-1.6.5-.6 1.4-.6.8 0 1.3.6.5.5.5 1.6t-.5 1.7q-.5.6-1.3.6t-1.3-.6q-.6-.5-.6-1.7Zm1.9-1.5q-.4 0-.7.3-.2.4-.2 1.3 0 .8.2 1.1.3.4.7.4.4 0 .6-.4t.3-1.2q0-.8-.3-1.2-.2-.3-.6-.3Z"/><path fill="#a8caba" d="M231 86a1 1 0 0 1 1-1h10a1 1 0 0 1 1 1v10a1 1 0 0 1-1 1h-10a1 1 0 0 1-1-1Z"/><path fill="#838689" d="M255.8 95v-.7q-.6.9-1.7.9-.8 0-1.4-.4-.6-.4-1-1.2-.3-.7-.3-1.7 0-.9.3-1.7.3-.7 1-1.1.6-.4 1.3-.4.6 0 1 .2l.8.6v-3h1V95h-1Zm-3.3-3q0 1.1.5 1.7.5.6 1.2.6t1.2-.6q.4-.5.4-1.7 0-1.3-.5-1.8-.4-.6-1.2-.6-.7 0-1.1.5-.5.6-.5 1.8Zm10.5 1 1.1.2q-.2 1-1 1.5-.6.5-1.7.5-1.4 0-2.2-.9-.8-.8-.8-2.3 0-1.6.9-2.4.8-1 2-1 1.3 0 2 1 .9.8.9 2.3v.3h-4.7q0 1 .6 1.6.5.5 1.3.5.6 0 1-.3t.6-1Zm-3.4-1.7h3.5q-.1-.8-.4-1.1-.5-.7-1.3-.7t-1.3.5q-.5.5-.5 1.3Zm5.8 1.9 1-.2q.1.7.5 1 .4.3 1.1.3.8 0 1-.3.5-.3.5-.7 0-.3-.4-.5-.2-.2-1-.4l-1.6-.5q-.5-.2-.7-.6-.3-.4-.3-.8l.2-.8q.2-.4.6-.6l.6-.3 1-.1q.7 0 1.2.2.6.2.8.6.3.3.4 1h-1q-.1-.4-.4-.7-.4-.3-1-.3-.7 0-1 .3-.3.2-.3.6v.3l.5.3 1 .3 1.5.5.7.5q.2.4.2 1 0 .4-.3 1-.3.4-.9.6-.5.3-1.3.3-1.2 0-1.8-.5-.7-.5-.8-1.5Zm7.4 1.8v-8.5h1v4.9l2.5-2.6h1.4l-2.4 2.3 2.7 4h-1.3l-2.1-3.2-.7.7V95h-1.1Zm8.3-.9.2 1h-.8l-1-.1-.4-.5-.1-1.3v-3.6h-.8v-.8h.8v-1.5l1-.6v2.1h1v.8h-1V94l.3.2h.8Zm.3-2.2q0-1.7 1-2.5.8-.7 2-.7t2 .8q.8.9.8 2.3 0 1.2-.3 2-.4.6-1 1-.8.4-1.6.4-1.3 0-2.1-.8-.8-.9-.8-2.5Zm1 0q0 1.2.6 1.8.5.6 1.3.6t1.3-.6q.5-.6.5-1.8 0-1.2-.5-1.7-.5-.6-1.3-.6t-1.3.6q-.5.5-.5 1.7Zm6.4 5.5v-8.6h1v.8l.7-.7 1-.2q.9 0 1.5.4t.9 1.1q.3.8.3 1.7 0 1-.4 1.7-.3.8-1 1.2-.6.4-1.3.4l-1-.2-.7-.6v3h-1Zm1-5.4q0 1.2.4 1.7.5.6 1.2.6t1.2-.6q.5-.6.5-1.8 0-1.2-.5-1.8-.5-.6-1.1-.6-.7 0-1.2.6-.5.7-.5 1.9Z"/><path fill="#62718b" d="M311 86a1 1 0 0 1 1-1h10a1 1 0 0 1 1 1v10a1 1 0 0 1-1 1h-10a1 1 0 0 1-1-1Z"/><path fill="#838689" d="M331.8 95v-6.2h1v.9q.2-.5.7-.7.5-.3 1.1-.3.7 0 1.1.3.5.2.7.8.7-1.1 1.9-1.1 1 0 1.4.5.5.5.5 1.6V95h-1v-3.9l-.1-.9q-.1-.3-.4-.4l-.6-.2q-.7 0-1.1.4-.5.5-.5 1.4V95h-1v-4q0-.7-.3-1-.2-.4-.8-.4-.5 0-.8.2-.4.3-.6.7-.2.5-.2 1.3V95h-1Zm10.6-3q0-1.8 1-2.6.8-.7 2-.7t2 .8q.8.9.8 2.3 0 1.2-.3 2-.4.6-1 1-.8.4-1.6.4-1.3 0-2.1-.8-.8-.9-.8-2.5Zm1 0q0 1.1.6 1.7.5.6 1.3.6t1.3-.6q.5-.6.5-1.8 0-1.2-.5-1.7-.5-.6-1.3-.6t-1.3.6q-.5.5-.5 1.7Zm7.4 3h-1v-8.5h1v3q.7-.8 1.7-.8.6 0 1.1.2.5.2.9.7l.5 1 .2 1.2q0 1.6-.8 2.5-.8.9-1.9.9-1.1 0-1.7-1v.8Zm0-3.1q0 1.1.3 1.6.5.8 1.3.8.7 0 1.2-.6t.5-1.8q0-1.2-.5-1.8-.5-.6-1.1-.6-.7 0-1.3.7-.4.5-.4 1.7Zm6-4.2v-1.2h1v1.2h-1Zm0 7.3v-6.2h1V95h-1Zm3 0v-8.5h1V95h-1Zm7.2-2 1.1.2q-.2 1-1 1.5-.6.5-1.7.5-1.4 0-2.2-.9-.8-.8-.8-2.3 0-1.6.9-2.4.8-1 2-1 1.3 0 2 1 .9.8.9 2.3v.3h-4.7q0 1 .6 1.6.5.5 1.3.5.6 0 1-.3t.6-1Zm-3.4-1.7h3.5q-.1-.8-.4-1.1-.5-.7-1.3-.7t-1.3.5q-.5.5-.5 1.3ZM214.3 65.7l-2.6-10h1.3l1.6 6.6.4 2 .4-1.8 2-6.8h1.5l1.5 5 .8 3.6q.1-1 .5-2.1l1.5-6.5h1.4l-2.8 10h-1.3l-2-7.6-.4-1.2-.3 1.2-2.1 7.6h-1.4Zm16-2.3 1.4.2q-.3 1-1.2 1.7-.8.6-2 .6-1.6 0-2.6-1-.9-1-.9-2.7 0-1.9 1-2.9t2.4-1q1.5 0 2.4 1 .9 1 .9 2.8v.3h-5.4q0 1.2.7 1.9.6.6 1.5.6.7 0 1.1-.4.5-.3.8-1.1Zm-4-2h4.1q0-1-.5-1.4-.5-.7-1.5-.7-.8 0-1.4.6-.6.6-.6 1.5Zm8.3 4.3h-1.2v-10h1.2v3.6q.8-1 2-1 .7 0 1.3.3.6.3 1 .8.4.4.6 1.1.2.7.2 1.5 0 1.9-1 2.9-.8 1-2.1 1t-2-1v.8Zm0-3.6q0 1.3.3 1.8.6 1 1.6 1 .8 0 1.4-.7.6-.7.6-2.1 0-1.4-.6-2-.6-.8-1.4-.8-.8 0-1.4.7-.6.7-.6 2Zm9.9 3.6 3.8-10h1.4l4.2 10h-1.6l-1.1-3H247l-1.1 3h-1.4Zm2.9-4h3.4l-1-2.8-.8-2.1-.5 1.9-1.1 3Zm7 4v-10h1.2v10h-1.2Zm3 0v-7.2h1.1v1q.4-.5 1-.8.5-.4 1.2-.4.8 0 1.3.4.6.3.8.9.8-1.3 2.2-1.3 1 0 1.7.6.6.6.6 1.9v5H266V60l-.5-.5q-.3-.2-.8-.2-.7 0-1.2.5t-.5 1.6v4.2h-1.3V61q0-.8-.3-1.2-.3-.4-1-.4-.5 0-1 .3-.4.2-.6.8l-.1 1.5v3.7h-1.3Zm15.8-.8-1.4.8q-.6.2-1.3.2-1.2 0-1.9-.6-.6-.6-.6-1.5l.2-1q.3-.4.7-.6l.9-.5 1-.1q1.6-.2 2.3-.5v-.3q0-.7-.4-1-.5-.5-1.4-.5-.8 0-1.3.4-.4.2-.6 1l-1.2-.1q.2-.8.5-1.3.4-.5 1.1-.7.8-.3 1.7-.3 1 0 1.5.2.6.3.8.6.3.3.4.8l.1 1.2v3.8l.4.8h-1.3q-.2-.3-.2-.8ZM273 62q-.7.3-2 .5-.8 0-1.1.2-.3.1-.5.4l-.2.6q0 .5.4.8.4.3 1 .3.8 0 1.3-.3.6-.3.9-.8.2-.4.2-1.2V62Zm3.3 3.6v-7.2h1.1v1q.8-1.2 2.3-1.2.7 0 1.2.3t.9.6l.4.9v5.7H281v-4.4l-.1-1q-.2-.5-.6-.7-.3-.2-.8-.2-.8 0-1.4.5-.5.5-.5 1.9v4h-1.3Zm12.8-.8-1.4.8q-.6.2-1.3.2-1.2 0-1.9-.6-.6-.6-.6-1.5l.2-1q.3-.4.7-.6l.9-.5 1-.1q1.6-.2 2.3-.5v-.3q0-.7-.4-1-.5-.5-1.4-.5-.8 0-1.3.4-.4.2-.6 1l-1.2-.1q.2-.8.5-1.3.4-.5 1.1-.7.8-.3 1.7-.3 1 0 1.5.2.6.3.8.6.3.3.4.8l.1 1.2v3.9l.4.8h-1.3q-.2-.3-.2-.8ZM289 62q-.7.3-2 .5-.8 0-1.1.2-.3.1-.5.4l-.2.6q0 .5.4.8.4.3 1 .3.8 0 1.3-.3.6-.3.9-.8.2-.4.2-1.2V62Zm8 1 1.3.1q-.2 1.3-1 2-.9.7-2 .7-1.5 0-2.4-1-1-1-1-2.8 0-1.1.4-2 .4-.9 1.2-1.3.8-.5 1.8-.5 1.1 0 1.9.6.7.6 1 1.7l-1.2.2q-.2-.7-.6-1-.5-.5-1-.5-1 0-1.6.7-.6.7-.6 2.1 0 1.5.6 2.1.5.7 1.4.7.8 0 1.2-.4.5-.5.7-1.4Zm12.4 1.5v1.1H303l.2-.8q.2-.7.8-1.3.5-.7 1.6-1.6 1.6-1.3 2.2-2 .6-.9.6-1.6 0-.7-.6-1.2-.5-.5-1.3-.5-.9 0-1.4.5-.6.6-.6 1.5l-1.2-.1q0-1.4 1-2.2.8-.7 2.2-.7 1.5 0 2.3.8.8.8.8 2l-.2 1.2-.8 1.2-2 1.7-1.3 1.3q-.4.3-.6.7h5Zm1.6-3.8q0-1.8.3-2.9.4-1 1.1-1.6.8-.6 1.8-.6.9 0 1.5.3t1 1q.4.6.6 1.4.2 1 .2 2.4 0 1.8-.3 2.9-.4 1-1.1 1.6-.7.6-1.9.6-1.4 0-2.2-1-1-1.3-1-4Zm1.2 0q0 2.5.6 3.3.6.8 1.4.8.9 0 1.5-.8t.6-3.3q0-2.5-.6-3.3-.6-.8-1.5-.8-.8 0-1.3.7-.7 1-.7 3.4Zm13.2 3.8v1.1H319l.2-.8q.2-.7.8-1.3.5-.7 1.6-1.6 1.6-1.3 2.2-2 .6-.9.6-1.6 0-.7-.6-1.2-.5-.5-1.3-.5-.9 0-1.4.5-.6.6-.6 1.5l-1.2-.1q0-1.4 1-2.2.8-.7 2.2-.7 1.5 0 2.3.8.8.8.8 2l-.2 1.2-.8 1.2-2 1.7-1.3 1.3q-.4.3-.6.7h5Zm8 0v1.1H327l.2-.8q.2-.7.8-1.3.5-.7 1.6-1.6 1.6-1.3 2.2-2 .6-.9.6-1.6 0-.7-.6-1.2-.5-.5-1.3-.5-.9 0-1.4.5-.6.6-.6 1.5l-1.2-.1q0-1.4 1-2.2.8-.7 2.2-.7 1.5 0 2.3.8.8.8.8 2l-.2 1.2-.8 1.2-2 1.7-1.3 1.3q-.4.3-.6.7h5Zm2.3-4.7v-1.4h1.4v1.4h-1.4Zm0 5.8v-1.4h1.4v1.4h-1.4Zm7.8 0v-10h3.8l1.5.1q.7.1 1.2.5.5.3.8 1 .3.6.3 1.3 0 1.3-.8 2.2-.8.9-3 .9H345v4h-1.3Zm1.3-5.2h2.6q1.3 0 1.8-.5.6-.5.6-1.3 0-.7-.4-1.1-.3-.5-.8-.6l-1.2-.1h-2.6v3.6Zm7.5 5.2v-7.2h1.1v1q.4-.7.8-1l.8-.2q.6 0 1.3.4l-.5 1.2q-.4-.3-.9-.3-.4 0-.7.2l-.5.7-.2 1.4v3.8h-1.2Zm5-8.6v-1.4h1.3V57h-1.3Zm0 8.6v-7.2h1.3v7.2h-1.3Zm5 0-2.7-7.2h1.3l1.5 4.3.5 1.5.5-1.4 1.6-4.4h1.2l-2.7 7.2h-1.2Zm9.8-.8-1.4.8q-.6.2-1.3.2-1.2 0-1.9-.6-.6-.6-.6-1.5l.2-1q.3-.4.7-.6l.9-.5 1-.1q1.6-.2 2.3-.5v-.3q0-.7-.4-1-.5-.5-1.4-.5-.8 0-1.3.4-.4.2-.6 1l-1.2-.1q.2-.8.5-1.3.4-.5 1.1-.7.8-.3 1.7-.3 1 0 1.5.2.6.3.8.6.3.3.4.8l.1 1.2v3.9l.4.8h-1.3q-.2-.3-.2-.8ZM372 62q-.7.3-2 .5-.8 0-1.1.2-.3.1-.5.4l-.2.6q0 .5.4.8.4.3 1 .3.8 0 1.3-.3.6-.3.9-.8.2-.4.2-1.2V62Zm8 1 1.3.1q-.2 1.3-1 2-.9.7-2 .7-1.5 0-2.4-1-1-1-1-2.8 0-1.1.4-2 .4-.9 1.2-1.3.8-.5 1.8-.5 1.1 0 1.9.6.7.6 1 1.7l-1.2.2q-.2-.7-.6-1-.5-.5-1-.5-1 0-1.6.7-.6.7-.6 2.1 0 1.5.6 2.1.5.7 1.4.7.8 0 1.2-.4.5-.5.7-1.4Zm2.3 5.4-.2-1.1h1.4l.4-.4.4-1v-.2l-2.7-7.3h1.3l1.6 4.2.5 1.7.5-1.7 1.5-4.2h1.3l-2.8 7.4q-.4 1.2-.7 1.6-.3.6-.7.9-.5.3-1 .3l-.8-.2Z"/><path fill="#1a2b49" d="M163.5 26h13.4v3.5h-4.5v10.7H168V29.5h-4.5v-3.6Zm14.2 9q0-2.3 1.6-3.8 1.6-1.6 4.3-1.6 3.1 0 4.7 1.8 1.3 1.5 1.3 3.6 0 2.4-1.6 4-1.5 1.5-4.3 1.5-2.5 0-4-1.3-2-1.6-2-4.1Zm4 0q0 1.5.6 2.1.5.7 1.4.7.8 0 1.4-.7.5-.6.5-2t-.5-2q-.6-.7-1.4-.7-.9 0-1.4.6-.6.7-.6 2Zm9.5 9.2V29.9h3.7v1.5q.8-1 1.5-1.3.8-.5 1.9-.5 2 0 3.2 1.6 1.1 1.6 1.1 4 0 2.6-1.2 4-1.2 1.3-3.1 1.3-1 0-1.7-.3-.8-.3-1.4-1v5h-4Zm4-9.1q0 1.2.5 1.8.5.6 1.3.6.7 0 1.2-.6.5-.5.5-2 0-1.2-.5-1.7-.5-.6-1.2-.6-.8 0-1.3.6-.5.5-.5 1.9Zm25.8-.7 3.9 1.2q-.4 1.6-1.3 2.7-.8 1-2 1.6-1.3.6-3.2.6-2.3 0-3.8-.7t-2.6-2.4q-1-1.7-1-4.3 0-3.6 1.8-5.5 2-2 5.4-2 2.7 0 4.2 1.2 1.6 1 2.3 3.3l-3.9 1-.4-1q-.4-.6-1-.8-.4-.3-1.1-.3-1.5 0-2.3 1.2-.6.9-.6 2.8 0 2.4.7 3.3.7.9 2 .9t2-.7q.6-.8.9-2.1Zm6.4-8.5h5.8l2.3 8.7 2.2-8.7h5.8v14.3H240V29.3l-2.8 11h-3.3l-2.8-11v11h-3.6V25.8Zm19 0h7.4q2.4 0 3.6 1.2 1.2 1.1 1.2 3.2 0 2.2-1.3 3.4-1.3 1.2-4 1.2H251v5.3h-4.4V26ZM251 32h1q1.3 0 1.9-.4.5-.5.5-1.2 0-.6-.5-1-.4-.6-1.6-.6H251V32Zm8.6 5.4 4-.4q.2.7.6 1 .5.3 1.2.3.8 0 1.2-.3.4-.3.4-.7 0-.4-.5-.6-.3-.2-1.7-.4l-2.9-.7q-.8-.3-1.3-1-.6-.8-.6-1.7 0-1 .6-1.8.6-.7 1.7-1 1-.5 2.8-.5 1.8 0 2.7.3.9.3 1.5 1 .6.5 1 1.5l-3.8.4q-.1-.5-.5-.7-.4-.4-1.1-.4-.7 0-1 .3-.3.2-.3.6 0 .3.4.5t1.7.4q2 .2 3 .6.9.4 1.4 1.2.5.7.5 1.6 0 .9-.5 1.7-.6.9-1.7 1.4-1.2.5-3.2.5-2.9 0-4-.8-1.3-.8-1.6-2.3Zm24.1-7.5h2v2.9h-2v7.4h-4v-7.4h-1.4v-3h1.4v-.4l.2-1.4q.1-.8.5-1.2.4-.5 1-.8.7-.3 2-.3l3 .2-.4 2.4h-1.1l-.8.1-.3.6v.9Zm3.1 5.2q0-2.4 1.6-4 1.6-1.5 4.3-1.5 3.1 0 4.7 1.8 1.3 1.5 1.3 3.6 0 2.4-1.6 4-1.5 1.5-4.3 1.5-2.5 0-4-1.3-2-1.6-2-4.1Zm4 0q0 1.4.6 2 .5.7 1.4.7.8 0 1.4-.7.5-.6.5-2t-.5-2q-.6-.7-1.4-.7-.9 0-1.4.6-.6.7-.6 2Zm9.5-5.2h3.8v1.7q.5-1.1 1-1.5.6-.5 1.5-.5t2 .6l-1.3 2.8q-.7-.3-1.1-.3-.8 0-1.3.7-.6.9-.6 3.4v3.4h-4V30Zm16.4-4h4.5v14.3h-4.5V26Zm16.7 12h-5l-.8 2.3H323l5.4-14.3h4.8l5.4 14.3H334l-.7-2.3Zm-1-3.1-1.5-5.2-1.6 5.2h3.1Zm8.2-8.9h8.2q2.1 0 3.2 1t1.1 2.6q0 1.3-.8 2.2-.5.6-1.5 1 1.5.3 2.3 1.2.7 1 .7 2.3 0 1-.5 2-.5.9-1.4 1.4-.6.3-1.7.4l-2 .2h-7.6V26Zm4.4 5.6h2q1 0 1.4-.3.4-.4.4-1 0-.7-.4-1-.4-.4-1.4-.4h-2v2.7Zm0 5.7h2.3q1.1 0 1.6-.4t.5-1.1q0-.7-.5-1-.5-.4-1.6-.4H345v2.9Zm17.6-11.3H376v3.6h-4.5v10.7H367V29.5h-4.5v-3.6Zm24.5 8.5 3.9 1.2q-.4 1.6-1.3 2.7-.8 1-2 1.6-1.3.6-3.2.6-2.3 0-3.8-.7t-2.6-2.4q-1-1.7-1-4.3 0-3.6 1.8-5.5 2-2 5.4-2 2.7 0 4.2 1.2 1.6 1 2.3 3.3l-3.9 1-.4-1q-.4-.6-1-.8-.4-.3-1.1-.3-1.5 0-2.3 1.2-.6.9-.6 2.8 0 2.4.7 3.3.7.9 2 .9t2-.7q.6-.8.9-2.1Zm6.5-8.5h11V29H398v2.5h5.6v2.9H398v5.8h-4.4V26Zm18.5 4h4.2l2 6.5 2-6.5h4L420 40.2h-3.6L412 30Zm24.5 10.3h-12q.2-1.7 1.3-3.3 1-1.5 3.9-3.7 1.7-1.3 2.2-2 .5-.6.5-1.2 0-.7-.5-1.1-.5-.5-1.2-.5-.8 0-1.2.5-.5.5-.7 1.7l-4-.3q.3-1.7.9-2.7.6-1 1.7-1.4 1.2-.5 3.2-.5t3.3.5q1.1.4 1.8 1.4.7 1 .7 2.3 0 1.3-.8 2.5-.8 1.1-2.8 2.6l-1.6 1.1-1 .9h6.3v3.2Z"/></svg>