<svg xmlns="http://www.w3.org/2000/svg" width="600" height="524" fill="none" stroke-linecap="square" stroke-miterlimit="10"><path fill="#fff" d="M0 0h600v524H0V0Z"/><path stroke="#333" stroke-linecap="butt" d="M243.5 136.5v313"/><path stroke="#f2f2f2" stroke-linecap="butt" d="M326.5 136.5v313m83-313v313m83-313v313m83-313v313"/><path stroke="#f9f9f9" stroke-linecap="butt" d="M260.5 136.5v313m17-313v313m16-313v313m17-313v313m33-313v313m16-313v313m17-313v313m17-313v313m33-313v313m16-313v313m17-313v313m17-313v313m33-313v313m16-313v313m17-313v313m16-313v313"/><clipPath id="a"><path d="M244 136.7h331.5v312.9H244V136.7Z"/></clipPath><path d="M244 156v-8h268a2 2 0 0 1 2 2v4a2 2 0 0 1-2 2Z" clip-path="url(#a)"/><path fill="#a8caba" d="M244 156v-8h268a2 2 0 0 1 2 2v4a2 2 0 0 1-2 2Z" clip-path="url(#a)"/><path d="M244 186v-8h211a2 2 0 0 1 2 2v4a2 2 0 0 1-2 2Z" clip-path="url(#a)"/><path fill="#a8caba" d="M244 186v-8h211a2 2 0 0 1 2 2v4a2 2 0 0 1-2 2Z" clip-path="url(#a)"/><path d="M244 217v-8h206a2 2 0 0 1 2 2v4a2 2 0 0 1-2 2Z" clip-path="url(#a)"/><path fill="#a8caba" d="M244 217v-8h206a2 2 0 0 1 2 2v4a2 2 0 0 1-2 2Z" clip-path="url(#a)"/><path d="M244 247v-8h121a2 2 0 0 1 2 2v4a2 2 0 0 1-2 2Z" clip-path="url(#a)"/><path fill="#a8caba" d="M244 247v-8h121a2 2 0 0 1 2 2v4a2 2 0 0 1-2 2Z" clip-path="url(#a)"/><path d="M244 277v-8h93a2 2 0 0 1 2 2v4a2 2 0 0 1-2 2Z" clip-path="url(#a)"/><path fill="#a8caba" d="M244 277v-8h93a2 2 0 0 1 2 2v4a2 2 0 0 1-2 2Z" clip-path="url(#a)"/><path d="M244 307v-8h46a2 2 0 0 1 2 2v4a2 2 0 0 1-2 2Z" clip-path="url(#a)"/><path fill="#a8caba" d="M244 307v-8h46a2 2 0 0 1 2 2v4a2 2 0 0 1-2 2Z" clip-path="url(#a)"/><path d="M244 337v-8h22a2 2 0 0 1 2 2v4a2 2 0 0 1-2 2Z" clip-path="url(#a)"/><path fill="#a8caba" d="M244 337v-8h22a2 2 0 0 1 2 2v4a2 2 0 0 1-2 2Z" clip-path="url(#a)"/><path d="M244 368v-8h23a2 2 0 0 1 2 2v4a2 2 0 0 1-2 2Z" clip-path="url(#a)"/><path fill="#a8caba" d="M244 368v-8h23a2 2 0 0 1 2 2v4a2 2 0 0 1-2 2Z" clip-path="url(#a)"/><path d="M244 398v-8h18a2 2 0 0 1 2 2v4a2 2 0 0 1-2 2Z" clip-path="url(#a)"/><path fill="#a8caba" d="M244 398v-8h18a2 2 0 0 1 2 2v4a2 2 0 0 1-2 2Z" clip-path="url(#a)"/><path d="M244 428v-8h18a2 2 0 0 1 2 2v4a2 2 0 0 1-2 2Z" clip-path="url(#a)"/><path fill="#a8caba" d="M244 428v-8h18a2 2 0 0 1 2 2v4a2 2 0 0 1-2 2Z" clip-path="url(#a)"/><path d="M244 166v-8h249a2 2 0 0 1 2 2v4a2 2 0 0 1-2 2Z" clip-path="url(#a)"/><path fill="#62718b" d="M244 166v-8h249a2 2 0 0 1 2 2v4a2 2 0 0 1-2 2Z" clip-path="url(#a)"/><path d="M244 196v-8h201a2 2 0 0 1 2 2v4a2 2 0 0 1-2 2Z" clip-path="url(#a)"/><path fill="#62718b" d="M244 196v-8h201a2 2 0 0 1 2 2v4a2 2 0 0 1-2 2Z" clip-path="url(#a)"/><path d="M244 227v-8h187a2 2 0 0 1 2 2v4a2 2 0 0 1-2 2Z" clip-path="url(#a)"/><path fill="#62718b" d="M244 227v-8h187a2 2 0 0 1 2 2v4a2 2 0 0 1-2 2Z" clip-path="url(#a)"/><path d="M244 257v-8h113a2 2 0 0 1 2 2v4a2 2 0 0 1-2 2Z" clip-path="url(#a)"/><path fill="#62718b" d="M244 257v-8h113a2 2 0 0 1 2 2v4a2 2 0 0 1-2 2Z" clip-path="url(#a)"/><path d="M244 287v-8h84a2 2 0 0 1 2 2v4a2 2 0 0 1-2 2Z" clip-path="url(#a)"/><path fill="#62718b" d="M244 287v-8h84a2 2 0 0 1 2 2v4a2 2 0 0 1-2 2Z" clip-path="url(#a)"/><path d="M244 317v-8h47a2 2 0 0 1 2 2v4a2 2 0 0 1-2 2Z" clip-path="url(#a)"/><path fill="#62718b" d="M244 317v-8h47a2 2 0 0 1 2 2v4a2 2 0 0 1-2 2Z" clip-path="url(#a)"/><path d="M244 347v-8h24a2 2 0 0 1 2 2v4a2 2 0 0 1-2 2Z" clip-path="url(#a)"/><path fill="#62718b" d="M244 347v-8h24a2 2 0 0 1 2 2v4a2 2 0 0 1-2 2Z" clip-path="url(#a)"/><path d="M244 378v-8h18a2 2 0 0 1 2 2v4a2 2 0 0 1-2 2Z" clip-path="url(#a)"/><path fill="#62718b" d="M244 378v-8h18a2 2 0 0 1 2 2v4a2 2 0 0 1-2 2Z" clip-path="url(#a)"/><path d="M244 408v-8h21a2 2 0 0 1 2 2v4a2 2 0 0 1-2 2Z" clip-path="url(#a)"/><path fill="#62718b" d="M244 408v-8h21a2 2 0 0 1 2 2v4a2 2 0 0 1-2 2Z" clip-path="url(#a)"/><path d="M244 438v-8h21a2 2 0 0 1 2 2v4a2 2 0 0 1-2 2Z" clip-path="url(#a)"/><path fill="#62718b" d="M244 438v-8h21a2 2 0 0 1 2 2v4a2 2 0 0 1-2 2Z" clip-path="url(#a)"/><path stroke="#fff" stroke-linecap="round" stroke-linejoin="round" stroke-width="3" d="m518.8 158.8-2.2.3q0-.7-.4-1-.3-.3-.8-.3-.7 0-1.2.6t-.6 2.6q.8-1 2-1 1.4 0 2.4 1.1 1 1 1 2.7 0 1.8-1 2.8-1.1 1.1-2.7 1.1-1.7 0-2.9-1.3-1-1.4-1-4.5t1-4.5q1.2-1.4 3.1-1.4 1.3 0 2.2.7.8.8 1 2.1Zm-5 4.8q0 1.1.5 1.7.5.6 1.1.6.6 0 1-.5t.4-1.6q0-1-.4-1.6-.5-.5-1.1-.5-.7 0-1 .5-.5.5-.5 1.4ZM524 156q1.7 0 2.6 1.2 1.1 1.4 1.1 4.6t-1 4.7q-1 1.2-2.7 1.2-1.7 0-2.7-1.3-1-1.3-1-4.6 0-3.2 1.1-4.6 1-1.2 2.6-1.2Zm0 1.8q-.4 0-.7.3-.3.2-.5.9-.2.8-.2 2.8 0 2 .2 2.8.2.8.5 1 .3.3.7.3.4 0 .7-.3.4-.2.5-.9.2-.8.2-2.9 0-2-.2-2.7t-.5-1q-.3-.3-.7-.3Zm5.3 1q0-1.5.7-2.2.7-.8 1.8-.8 1.2 0 2 .8.6.7.6 2.3 0 1.5-.7 2.3-.7.7-1.8.7-1.2 0-1.9-.7-.7-.8-.7-2.3Zm1.7 0q0 1.2.3 1.6.2.2.5.2.4 0 .6-.2.2-.4.2-1.5 0-1.2-.2-1.5-.2-.3-.6-.3-.3 0-.5.3-.3.3-.3 1.5Zm2.5 9.1h-1.6l6-12h1.7l-6.1 12Zm3.6-3q0-1.5.6-2.2.7-.8 1.9-.8t1.8.8q.7.7.7 2.2 0 1.6-.7 2.3-.6.8-1.8.8-1.2 0-1.9-.8-.6-.7-.6-2.3Zm1.7 0q0 1.1.2 1.5.2.3.6.3.3 0 .5-.3.3-.4.3-1.5t-.3-1.5q-.2-.3-.5-.3-.4 0-.6.3-.2.4-.2 1.5Z"/><path fill="#62718b" d="m518.8 158.8-2.2.3q0-.7-.4-1-.3-.3-.8-.3-.7 0-1.2.6t-.6 2.6q.8-1 2-1 1.4 0 2.4 1.1 1 1 1 2.7 0 1.8-1 2.8-1.1 1.1-2.7 1.1-1.7 0-2.9-1.3-1-1.4-1-4.5t1-4.5q1.2-1.4 3.1-1.4 1.3 0 2.2.7.8.8 1 2.1Zm-5 4.8q0 1.1.5 1.7.5.6 1.1.6.6 0 1-.5t.4-1.6q0-1-.4-1.6-.5-.5-1.1-.5-.7 0-1 .5-.5.5-.5 1.4ZM524 156q1.7 0 2.6 1.2 1.1 1.4 1.1 4.6t-1 4.7q-1 1.2-2.7 1.2-1.7 0-2.7-1.3-1-1.3-1-4.6 0-3.2 1.1-4.6 1-1.2 2.6-1.2Zm0 1.8q-.4 0-.7.3-.3.2-.5.9-.2.8-.2 2.8 0 2 .2 2.8.2.8.5 1 .3.3.7.3.4 0 .7-.3.4-.2.5-.9.2-.8.2-2.9 0-2-.2-2.7t-.5-1q-.3-.3-.7-.3Zm5.3 1q0-1.5.7-2.2.7-.8 1.8-.8 1.2 0 2 .8.6.7.6 2.3 0 1.5-.7 2.3-.7.7-1.8.7-1.2 0-1.9-.7-.7-.8-.7-2.3Zm1.7 0q0 1.2.3 1.6.2.2.5.2.4 0 .6-.2.2-.4.2-1.5 0-1.2-.2-1.5-.2-.3-.6-.3-.3 0-.5.3-.3.3-.3 1.5Zm2.5 9.1h-1.6l6-12h1.7l-6.1 12Zm3.6-3q0-1.5.6-2.2.7-.8 1.9-.8t1.8.8q.7.7.7 2.2 0 1.6-.7 2.3-.6.8-1.8.8-1.2 0-1.9-.8-.6-.7-.6-2.3Zm1.7 0q0 1.1.2 1.5.2.3.6.3.3 0 .5-.3.3-.4.3-1.5t-.3-1.5q-.2-.3-.5-.3-.4 0-.6.3-.2.4-.2 1.5Z"/><path stroke="#fff" stroke-linecap="round" stroke-linejoin="round" stroke-width="3" d="M467.6 197.5v-2.3h-4.7v-2l5-7.2h1.8v7.3h1.4v1.9h-1.4v2.3h-2.1Zm0-4.2v-4l-2.6 4h2.6Zm4.7 1.5 2.2-.2q0 .7.4 1 .3.3.8.3.7 0 1.2-.6.5-.7.6-2.6-.8 1-2 1-1.4 0-2.4-1.1-1-1-1-2.7 0-1.8 1-2.8 1-1.1 2.7-1.1 1.7 0 2.8 1.3 1.2 1.4 1.2 4.5t-1.2 4.5q-1.2 1.4-3 1.4-1.4 0-2.2-.7-.8-.7-1-2.2Zm5-4.8q0-1-.5-1.6-.5-.6-1.1-.6-.6 0-1 .5t-.4 1.6q0 1 .4 1.6.5.5 1.1.5.6 0 1-.5.5-.5.5-1.5Zm4-1.1q0-1.6.7-2.3.7-.8 1.8-.8 1.2 0 1.9.8.7.7.7 2.3 0 1.5-.7 2.3-.7.7-1.8.7-1.2 0-2-.7-.6-.8-.6-2.3Zm1.7 0q0 1 .3 1.5.2.2.5.2.4 0 .6-.2.2-.4.2-1.5 0-1.2-.2-1.5-.2-.3-.6-.3-.3 0-.5.3-.3.3-.3 1.5Zm2.5 9h-1.6l6-12h1.6l-6 12Zm3.5-3q0-1.5.7-2.2.7-.8 1.9-.8t1.8.8q.7.7.7 2.2 0 1.6-.7 2.3-.7.8-1.8.8-1.2 0-1.9-.8-.7-.7-.7-2.3Zm1.7 0q0 1.1.3 1.5.2.3.5.3.4 0 .6-.3.2-.4.2-1.5t-.2-1.5q-.2-.3-.6-.3-.3 0-.5.3-.3.4-.3 1.5Z"/><path fill="#62718b" d="M467.6 197.5v-2.3h-4.7v-2l5-7.2h1.8v7.3h1.4v1.9h-1.4v2.3h-2.1Zm0-4.2v-4l-2.6 4h2.6Zm4.7 1.5 2.2-.2q0 .7.4 1 .3.3.8.3.7 0 1.2-.6.5-.7.6-2.6-.8 1-2 1-1.4 0-2.4-1.1-1-1-1-2.7 0-1.8 1-2.8 1-1.1 2.7-1.1 1.7 0 2.8 1.3 1.2 1.4 1.2 4.5t-1.2 4.5q-1.2 1.4-3 1.4-1.4 0-2.2-.7-.8-.7-1-2.2Zm5-4.8q0-1-.5-1.6-.5-.6-1.1-.6-.6 0-1 .5t-.4 1.6q0 1 .4 1.6.5.5 1.1.5.6 0 1-.5.5-.5.5-1.5Zm4-1.1q0-1.6.7-2.3.7-.8 1.8-.8 1.2 0 1.9.8.7.7.7 2.3 0 1.5-.7 2.3-.7.7-1.8.7-1.2 0-2-.7-.6-.8-.6-2.3Zm1.7 0q0 1 .3 1.5.2.2.5.2.4 0 .6-.2.2-.4.2-1.5 0-1.2-.2-1.5-.2-.3-.6-.3-.3 0-.5.3-.3.3-.3 1.5Zm2.5 9h-1.6l6-12h1.6l-6 12Zm3.5-3q0-1.5.7-2.2.7-.8 1.9-.8t1.8.8q.7.7.7 2.2 0 1.6-.7 2.3-.7.8-1.8.8-1.2 0-1.9-.8-.7-.7-.7-2.3Zm1.7 0q0 1.1.3 1.5.2.3.5.3.4 0 .6-.3.2-.4.2-1.5t-.2-1.5q-.2-.3-.6-.3-.3 0-.5.3-.3.4-.3 1.5Z"/><path stroke="#fff" stroke-linecap="round" stroke-linejoin="round" stroke-width="3" d="M454.4 228.5v-2.3h-4.6v-2l5-7.2h1.8v7.3h1.4v1.9h-1.4v2.3h-2.2Zm0-4.2v-4l-2.6 4h2.6Zm12.2-4.5-2.1.3q-.1-.7-.5-1-.3-.3-.8-.3-.7 0-1.2.6t-.6 2.6q.8-1 2-1 1.4 0 2.4 1.1 1 1 1 2.7 0 1.8-1 2.8-1 1.1-2.7 1.1-1.7 0-2.8-1.3-1.2-1.4-1.2-4.5t1.2-4.5q1.2-1.4 3-1.4 1.3 0 2.2.7.8.8 1 2.1Zm-5 4.8q0 1.1.5 1.7.5.6 1.1.6.6 0 1-.5t.4-1.6q0-1-.4-1.6-.4-.5-1-.5-.7 0-1.2.5-.4.5-.4 1.4Zm6.6-4.7q0-1.6.6-2.3.7-.8 1.9-.8t1.8.8q.7.7.7 2.3 0 1.5-.7 2.3-.6.7-1.8.7-1.2 0-1.9-.7-.6-.8-.6-2.3Zm1.7 0q0 1 .2 1.5.2.2.6.2.3 0 .5-.2.3-.4.3-1.5 0-1.2-.3-1.5-.2-.3-.5-.3-.4 0-.6.3-.2.3-.2 1.5Zm2.4 9h-1.6l6.1-12h1.6l-6 12Zm3.6-3q0-1.5.6-2.2.7-.8 2-.8 1 0 1.8.8.6.7.6 2.2 0 1.6-.6 2.3-.7.8-1.9.8t-1.9-.8q-.6-.7-.6-2.3Zm1.7 0q0 1.1.2 1.5.2.3.6.3.3 0 .5-.3.3-.4.3-1.5t-.3-1.5q-.2-.3-.5-.3-.4 0-.6.3-.2.4-.2 1.5Z"/><path fill="#62718b" d="M454.4 228.5v-2.3h-4.6v-2l5-7.2h1.8v7.3h1.4v1.9h-1.4v2.3h-2.2Zm0-4.2v-4l-2.6 4h2.6Zm12.2-4.5-2.1.3q-.1-.7-.5-1-.3-.3-.8-.3-.7 0-1.2.6t-.6 2.6q.8-1 2-1 1.4 0 2.4 1.1 1 1 1 2.7 0 1.8-1 2.8-1 1.1-2.7 1.1-1.7 0-2.8-1.3-1.2-1.4-1.2-4.5t1.2-4.5q1.2-1.4 3-1.4 1.3 0 2.2.7.8.8 1 2.1Zm-5 4.8q0 1.1.5 1.7.5.6 1.1.6.6 0 1-.5t.4-1.6q0-1-.4-1.6-.4-.5-1-.5-.7 0-1.2.5-.4.5-.4 1.4Zm6.6-4.7q0-1.6.6-2.3.7-.8 1.9-.8t1.8.8q.7.7.7 2.3 0 1.5-.7 2.3-.6.7-1.8.7-1.2 0-1.9-.7-.6-.8-.6-2.3Zm1.7 0q0 1 .2 1.5.2.2.6.2.3 0 .5-.2.3-.4.3-1.5 0-1.2-.3-1.5-.2-.3-.5-.3-.4 0-.6.3-.2.3-.2 1.5Zm2.4 9h-1.6l6.1-12h1.6l-6 12Zm3.6-3q0-1.5.6-2.2.7-.8 2-.8 1 0 1.8.8.6.7.6 2.2 0 1.6-.6 2.3-.7.8-1.9.8t-1.9-.8q-.6-.7-.6-2.3Zm1.7 0q0 1.1.2 1.5.2.3.6.3.3 0 .5-.3.3-.4.3-1.5t-.3-1.5q-.2-.3-.5-.3-.4 0-.6.3-.2.4-.2 1.5Z"/><path stroke="#fff" stroke-linecap="round" stroke-linejoin="round" stroke-width="3" d="M383.3 256.5v2h-7.7q.2-1.2.8-2.2.6-1 2.5-2.7 1.5-1.4 1.8-2 .4-.6.4-1.3 0-.7-.4-1-.3-.5-1-.5t-1.1.4q-.5.4-.5 1.4l-2.2-.2q.2-1.8 1.2-2.6t2.6-.8q1.7 0 2.7 1 1 .8 1 2.2 0 .8-.3 1.5t-1 1.4q-.3.5-1.4 1.5l-1.3 1.2-.4.7h4.3Zm3.5-4.2q-.8-.3-1.2-1-.4-.6-.4-1.3 0-1.3.9-2.2.9-.8 2.5-.8 1.7 0 2.5.8 1 .9 1 2.2 0 .7-.5 1.4-.4.6-1.1 1 1 .3 1.4 1 .5.8.5 1.7 0 1.6-1 2.6t-2.7 1q-1.5 0-2.6-.8-1.2-1-1.2-2.7 0-.9.5-1.7.4-.8 1.4-1.2Zm.5-2.2q0 .7.3 1 .4.4 1 .4t1-.4.4-1q0-.6-.4-1-.3-.4-1-.4-.6 0-1 .4-.3.4-.3 1Zm-.2 5q0 .8.4 1.3.5.5 1.2.5t1.1-.4q.5-.5.5-1.5 0-.8-.5-1.3-.4-.5-1.2-.5-.7 0-1.2.6-.3.6-.3 1.2Zm6.8-5.2q0-1.6.7-2.3.7-.8 1.8-.8 1.2 0 2 .8.6.7.6 2.3 0 1.5-.7 2.3-.7.7-1.8.7-1.2 0-1.9-.7-.7-.8-.7-2.3Zm1.7 0q0 1 .3 1.5.2.2.5.2.4 0 .6-.2.2-.4.2-1.5 0-1.2-.2-1.5-.2-.3-.6-.3-.3 0-.5.3-.3.3-.3 1.5Zm2.5 9h-1.6l6.1-12h1.6l-6 12Zm3.6-3q0-1.5.6-2.2.7-.8 1.9-.8t1.8.8q.7.7.7 2.2 0 1.6-.7 2.3-.6.8-1.8.8-1.2 0-1.9-.8-.6-.7-.6-2.3Zm1.7 0q0 1.1.2 1.5.2.3.6.3.3 0 .5-.3.3-.4.3-1.5t-.3-1.5q-.2-.3-.5-.3-.4 0-.6.3-.2.4-.2 1.5Z"/><path fill="#62718b" d="M383.3 256.5v2h-7.7q.2-1.2.8-2.2.6-1 2.5-2.7 1.5-1.4 1.8-2 .4-.6.4-1.3 0-.7-.4-1-.3-.5-1-.5t-1.1.4q-.5.4-.5 1.4l-2.2-.2q.2-1.8 1.2-2.6t2.6-.8q1.7 0 2.7 1 1 .8 1 2.2 0 .8-.3 1.5t-1 1.4q-.3.5-1.4 1.5l-1.3 1.2-.4.7h4.3Zm3.5-4.2q-.8-.3-1.2-1-.4-.6-.4-1.3 0-1.3.9-2.2.9-.8 2.5-.8 1.7 0 2.5.8 1 .9 1 2.2 0 .7-.5 1.4-.4.6-1.1 1 1 .3 1.4 1 .5.8.5 1.7 0 1.6-1 2.6t-2.7 1q-1.5 0-2.6-.8-1.2-1-1.2-2.7 0-.9.5-1.7.4-.8 1.4-1.2Zm.5-2.2q0 .7.3 1 .4.4 1 .4t1-.4.4-1q0-.6-.4-1-.3-.4-1-.4-.6 0-1 .4-.3.4-.3 1Zm-.2 5q0 .8.4 1.3.5.5 1.2.5t1.1-.4q.5-.5.5-1.5 0-.8-.5-1.3-.4-.5-1.2-.5-.7 0-1.2.6-.3.6-.3 1.2Zm6.8-5.2q0-1.6.7-2.3.7-.8 1.8-.8 1.2 0 2 .8.6.7.6 2.3 0 1.5-.7 2.3-.7.7-1.8.7-1.2 0-1.9-.7-.7-.8-.7-2.3Zm1.7 0q0 1 .3 1.5.2.2.5.2.4 0 .6-.2.2-.4.2-1.5 0-1.2-.2-1.5-.2-.3-.6-.3-.3 0-.5.3-.3.3-.3 1.5Zm2.5 9h-1.6l6.1-12h1.6l-6 12Zm3.6-3q0-1.5.6-2.2.7-.8 1.9-.8t1.8.8q.7.7.7 2.2 0 1.6-.7 2.3-.6.8-1.8.8-1.2 0-1.9-.8-.6-.7-.6-2.3Zm1.7 0q0 1.1.2 1.5.2.3.6.3.3 0 .5-.3.3-.4.3-1.5t-.3-1.5q-.2-.3-.5-.3-.4 0-.6.3-.2.4-.2 1.5Z"/><path stroke="#fff" stroke-linecap="round" stroke-linejoin="round" stroke-width="3" d="M354 286.5v2h-7.7q.1-1.2.8-2.2.6-1 2.4-2.7 1.5-1.4 1.8-2 .5-.6.5-1.3 0-.7-.4-1-.4-.5-1.1-.5-.7 0-1 .4-.5.4-.6 1.4l-2.1-.2q.2-1.8 1.2-2.6t2.6-.8q1.7 0 2.6 1 1 .8 1 2.2 0 .8-.3 1.5t-.9 1.4l-1.4 1.5-1.3 1.2-.5.7h4.4Zm7.2 2H359v-8.3q-1.2 1.1-2.8 1.7v-2q.8-.3 1.8-1 1-.9 1.4-1.9h1.8v11.5Zm3.4-8.6q0-1.6.7-2.3.6-.8 1.8-.8 1.2 0 1.9.8.6.7.6 2.3 0 1.5-.6 2.3-.7.7-1.9.7t-1.8-.7q-.7-.8-.7-2.3Zm1.7 0q0 1 .3 1.5.2.2.5.2.4 0 .5-.2.3-.4.3-1.5 0-1.2-.3-1.5-.1-.3-.5-.3-.3 0-.5.3-.3.3-.3 1.5Zm2.5 9H367l6.2-12h1.5l-6 12Zm3.5-3q0-1.5.7-2.2.7-.8 1.9-.8t1.8.8q.7.7.7 2.2 0 1.6-.7 2.3-.7.8-1.8.8-1.2 0-2-.8-.6-.7-.6-2.3Zm1.7 0q0 1.1.3 1.5.2.3.5.3.4 0 .6-.3.2-.4.2-1.5t-.2-1.5q-.2-.3-.6-.3-.3 0-.5.3-.3.4-.3 1.5Z"/><path fill="#62718b" d="M354 286.5v2h-7.7q.1-1.2.8-2.2.6-1 2.4-2.7 1.5-1.4 1.8-2 .5-.6.5-1.3 0-.7-.4-1-.4-.5-1.1-.5-.7 0-1 .4-.5.4-.6 1.4l-2.1-.2q.2-1.8 1.2-2.6t2.6-.8q1.7 0 2.6 1 1 .8 1 2.2 0 .8-.3 1.5t-.9 1.4l-1.4 1.5-1.3 1.2-.5.7h4.4Zm7.2 2H359v-8.3q-1.2 1.1-2.8 1.7v-2q.8-.3 1.8-1 1-.9 1.4-1.9h1.8v11.5Zm3.4-8.6q0-1.6.7-2.3.6-.8 1.8-.8 1.2 0 1.9.8.6.7.6 2.3 0 1.5-.6 2.3-.7.7-1.9.7t-1.8-.7q-.7-.8-.7-2.3Zm1.7 0q0 1 .3 1.5.2.2.5.2.4 0 .5-.2.3-.4.3-1.5 0-1.2-.3-1.5-.1-.3-.5-.3-.3 0-.5.3-.3.3-.3 1.5Zm2.5 9H367l6.2-12h1.5l-6 12Zm3.5-3q0-1.5.7-2.2.7-.8 1.9-.8t1.8.8q.7.7.7 2.2 0 1.6-.7 2.3-.7.8-1.8.8-1.2 0-2-.8-.6-.7-.6-2.3Zm1.7 0q0 1.1.3 1.5.2.3.5.3.4 0 .6-.3.2-.4.2-1.5t-.2-1.5q-.2-.3-.6-.3-.3 0-.5.3-.3.4-.3 1.5Z"/><path stroke="#fff" stroke-linecap="round" stroke-linejoin="round" stroke-width="3" d="M315 318.5h-2.2v-8.3q-1.2 1.1-2.9 1.7v-2q.9-.3 1.9-1 1-.9 1.4-1.9h1.8v11.5Zm10.8-2v2H318q.1-1.2.7-2.2.6-1 2.5-2.7 1.5-1.4 1.8-2 .5-.6.5-1.3 0-.7-.4-1-.4-.5-1.1-.5-.7 0-1.1.4-.4.4-.5 1.4l-2.2-.2q.2-1.8 1.3-2.6 1-.8 2.5-.8 1.7 0 2.7 1 1 .8 1 2.2 0 .8-.3 1.5t-.9 1.4l-1.4 1.5-1.3 1.2-.5.7h4.4Zm1.6-6.6q0-1.6.6-2.3.7-.8 1.9-.8t1.8.8q.7.7.7 2.3 0 1.5-.7 2.3-.6.7-1.8.7-1.2 0-1.9-.7-.6-.8-.6-2.3Zm1.7 0q0 1 .2 1.5.2.2.6.2.3 0 .5-.2.3-.4.3-1.5 0-1.2-.3-1.5-.2-.3-.5-.3-.4 0-.6.3-.2.3-.2 1.5Zm2.4 9H330l6.1-12h1.6l-6 12Zm3.6-3q0-1.5.7-2.2.6-.8 1.8-.8 1.2 0 1.9.8.7.7.7 2.2 0 1.6-.7 2.3-.7.8-1.9.8t-1.8-.8q-.7-.7-.7-2.3Zm1.7 0q0 1.1.3 1.5.2.3.5.3t.5-.3q.3-.4.3-1.5t-.2-1.5q-.3-.3-.6-.3-.4 0-.5.3-.3.4-.3 1.5Z"/><path fill="#62718b" d="M315 318.5h-2.2v-8.3q-1.2 1.1-2.9 1.7v-2q.9-.3 1.9-1 1-.9 1.4-1.9h1.8v11.5Zm10.8-2v2H318q.1-1.2.7-2.2.6-1 2.5-2.7 1.5-1.4 1.8-2 .5-.6.5-1.3 0-.7-.4-1-.4-.5-1.1-.5-.7 0-1.1.4-.4.4-.5 1.4l-2.2-.2q.2-1.8 1.3-2.6 1-.8 2.5-.8 1.7 0 2.7 1 1 .8 1 2.2 0 .8-.3 1.5t-.9 1.4l-1.4 1.5-1.3 1.2-.5.7h4.4Zm1.6-6.6q0-1.6.6-2.3.7-.8 1.9-.8t1.8.8q.7.7.7 2.3 0 1.5-.7 2.3-.6.7-1.8.7-1.2 0-1.9-.7-.6-.8-.6-2.3Zm1.7 0q0 1 .2 1.5.2.2.6.2.3 0 .5-.2.3-.4.3-1.5 0-1.2-.3-1.5-.2-.3-.5-.3-.4 0-.6.3-.2.3-.2 1.5Zm2.4 9H330l6.1-12h1.6l-6 12Zm3.6-3q0-1.5.7-2.2.6-.8 1.8-.8 1.2 0 1.9.8.7.7.7 2.2 0 1.6-.7 2.3-.7.8-1.9.8t-1.8-.8q-.7-.7-.7-2.3Zm1.7 0q0 1.1.3 1.5.2.3.5.3t.5-.3q.3-.4.3-1.5t-.2-1.5q-.3-.3-.6-.3-.4 0-.5.3-.3.4-.3 1.5Z"/><path stroke="#fff" stroke-linecap="round" stroke-linejoin="round" stroke-width="3" d="m294.2 339.8-2.1.3q0-.7-.4-1-.3-.3-.9-.3-.7 0-1.1.6-.5.6-.7 2.6.9-1 2-1 1.5 0 2.4 1.1 1 1 1 2.7 0 1.8-1 2.8-1 1.1-2.6 1.1-1.8 0-3-1.3-1-1.4-1-4.5t1.1-4.5q1.2-1.4 3-1.4 1.4 0 2.2.7.9.8 1.1 2.1Zm-5 4.8q0 1.1.5 1.7.5.6 1.2.6.6 0 1-.5t.4-1.6q0-1-.5-1.6-.4-.5-1-.5-.7 0-1.1.5-.5.5-.5 1.4Zm6.6-4.7q0-1.6.7-2.3.6-.8 1.8-.8 1.2 0 1.9.8.6.7.6 2.3 0 1.5-.6 2.3-.7.7-1.9.7t-1.8-.7q-.7-.8-.7-2.3Zm1.7 0q0 1 .3 1.5.2.2.5.2.4 0 .5-.2.3-.4.3-1.5 0-1.2-.3-1.5-.1-.3-.5-.3-.3 0-.5.3-.3.3-.3 1.5Zm2.5 9h-1.7l6.2-12h1.5l-6 12Zm3.5-3q0-1.5.7-2.2.7-.8 1.8-.8t1.9.8q.7.7.7 2.2 0 1.6-.7 2.3-.7.8-1.8.8-1.2 0-2-.8-.6-.7-.6-2.3Zm1.7 0q0 1.1.3 1.5.2.3.5.3.4 0 .6-.3.2-.4.2-1.5t-.2-1.5q-.2-.3-.6-.3-.3 0-.5.3-.3.4-.3 1.5Z"/><path fill="#62718b" d="m294.2 339.8-2.1.3q0-.7-.4-1-.3-.3-.9-.3-.7 0-1.1.6-.5.6-.7 2.6.9-1 2-1 1.5 0 2.4 1.1 1 1 1 2.7 0 1.8-1 2.8-1 1.1-2.6 1.1-1.8 0-3-1.3-1-1.4-1-4.5t1.1-4.5q1.2-1.4 3-1.4 1.4 0 2.2.7.9.8 1.1 2.1Zm-5 4.8q0 1.1.5 1.7.5.6 1.2.6.6 0 1-.5t.4-1.6q0-1-.5-1.6-.4-.5-1-.5-.7 0-1.1.5-.5.5-.5 1.4Zm6.6-4.7q0-1.6.7-2.3.6-.8 1.8-.8 1.2 0 1.9.8.6.7.6 2.3 0 1.5-.6 2.3-.7.7-1.9.7t-1.8-.7q-.7-.8-.7-2.3Zm1.7 0q0 1 .3 1.5.2.2.5.2.4 0 .5-.2.3-.4.3-1.5 0-1.2-.3-1.5-.1-.3-.5-.3-.3 0-.5.3-.3.3-.3 1.5Zm2.5 9h-1.7l6.2-12h1.5l-6 12Zm3.5-3q0-1.5.7-2.2.7-.8 1.8-.8t1.9.8q.7.7.7 2.2 0 1.6-.7 2.3-.7.8-1.8.8-1.2 0-2-.8-.6-.7-.6-2.3Zm1.7 0q0 1.1.3 1.5.2.3.5.3.4 0 .6-.3.2-.4.2-1.5t-.2-1.5q-.2-.3-.6-.3-.3 0-.5.3-.3.4-.3 1.5Z"/><path stroke="#fff" stroke-linecap="round" stroke-linejoin="round" stroke-width="3" d="m281.2 376.5 2.2-.2q0 .8.5 1.2.5.4 1 .4.8 0 1.2-.5.5-.6.5-1.7 0-1-.5-1.6-.4-.5-1.2-.5-1 0-1.7.8l-1.8-.2 1.2-6h5.8v2h-4.2l-.3 2q.7-.4 1.5-.4 1.4 0 2.5 1 1 1.2 1 2.9 0 1.4-.8 2.5-1.2 1.5-3.1 1.5-1.6 0-2.6-.9-1-.8-1.2-2.3Zm9-5.6q0-1.6.6-2.3.7-.8 1.9-.8t1.8.8q.7.7.7 2.3 0 1.5-.7 2.3-.6.7-1.8.7-1.2 0-1.9-.7-.6-.8-.6-2.3Zm1.7 0q0 1 .2 1.5.2.2.6.2.3 0 .5-.2.3-.4.3-1.5 0-1.2-.3-1.5-.2-.3-.5-.3-.4 0-.6.3-.2.3-.2 1.5Zm2.4 9h-1.6l6.1-12h1.6l-6 12Zm3.6-3q0-1.5.7-2.2.6-.8 1.8-.8 1.2 0 1.9.8.6.7.6 2.2 0 1.6-.6 2.3-.7.8-1.9.8t-1.8-.8q-.7-.7-.7-2.3Zm1.7 0q0 1.1.2 1.5.3.3.6.3t.5-.3q.3-.4.3-1.5t-.3-1.5q-.2-.3-.5-.3-.4 0-.6.3-.2.4-.2 1.5Z"/><path fill="#62718b" d="m281.2 376.5 2.2-.2q0 .8.5 1.2.5.4 1 .4.8 0 1.2-.5.5-.6.5-1.7 0-1-.5-1.6-.4-.5-1.2-.5-1 0-1.7.8l-1.8-.2 1.2-6h5.8v2h-4.2l-.3 2q.7-.4 1.5-.4 1.4 0 2.5 1 1 1.2 1 2.9 0 1.4-.8 2.5-1.2 1.5-3.1 1.5-1.6 0-2.6-.9-1-.8-1.2-2.3Zm9-5.6q0-1.6.6-2.3.7-.8 1.9-.8t1.8.8q.7.7.7 2.3 0 1.5-.7 2.3-.6.7-1.8.7-1.2 0-1.9-.7-.6-.8-.6-2.3Zm1.7 0q0 1 .2 1.5.2.2.6.2.3 0 .5-.2.3-.4.3-1.5 0-1.2-.3-1.5-.2-.3-.5-.3-.4 0-.6.3-.2.3-.2 1.5Zm2.4 9h-1.6l6.1-12h1.6l-6 12Zm3.6-3q0-1.5.7-2.2.6-.8 1.8-.8 1.2 0 1.9.8.6.7.6 2.2 0 1.6-.6 2.3-.7.8-1.9.8t-1.8-.8q-.7-.7-.7-2.3Zm1.7 0q0 1.1.2 1.5.3.3.6.3t.5-.3q.3-.4.3-1.5t-.3-1.5q-.2-.3-.5-.3-.4 0-.6.3-.2.4-.2 1.5Z"/><path stroke="#fff" stroke-linecap="round" stroke-linejoin="round" stroke-width="3" d="m291.2 400.8-2.2.3q0-.7-.4-1-.3-.3-.8-.3-.7 0-1.2.6t-.6 2.6q.8-1 2-1 1.4 0 2.4 1.1 1 1 1 2.7 0 1.8-1 2.8-1 1.1-2.7 1.1-1.7 0-2.9-1.3-1-1.4-1-4.5t1-4.5q1.3-1.4 3.1-1.4 1.3 0 2.2.7.8.8 1 2.1Zm-5 4.8q0 1.1.5 1.7.5.6 1.1.6.6 0 1-.5t.4-1.6q0-1-.4-1.6-.4-.5-1.1-.5-.6 0-1 .5-.5.5-.5 1.4Zm6.6-4.7q0-1.6.6-2.3.7-.8 1.9-.8t1.8.8q.7.7.7 2.3 0 1.5-.7 2.3-.6.7-1.8.7-1.2 0-1.9-.7-.6-.8-.6-2.3Zm1.7 0q0 1 .2 1.5.2.2.6.2.3 0 .5-.2.2-.4.2-1.5 0-1.2-.2-1.5-.2-.3-.5-.3-.4 0-.6.3-.2.3-.2 1.5Zm2.4 9h-1.6l6.1-12h1.6l-6 12Zm3.6-3q0-1.5.6-2.2.7-.8 1.9-.8t1.8.8q.7.7.7 2.2 0 1.6-.7 2.3-.6.8-1.8.8-1.2 0-1.9-.8-.6-.7-.6-2.3Zm1.7 0q0 1.1.2 1.5.2.3.6.3.3 0 .5-.3.3-.4.3-1.5t-.3-1.5q-.2-.3-.5-.3-.4 0-.6.3-.2.4-.2 1.5Z"/><path fill="#62718b" d="m291.2 400.8-2.2.3q0-.7-.4-1-.3-.3-.8-.3-.7 0-1.2.6t-.6 2.6q.8-1 2-1 1.4 0 2.4 1.1 1 1 1 2.7 0 1.8-1 2.8-1 1.1-2.7 1.1-1.7 0-2.9-1.3-1-1.4-1-4.5t1-4.5q1.3-1.4 3.1-1.4 1.3 0 2.2.7.8.8 1 2.1Zm-5 4.8q0 1.1.5 1.7.5.6 1.1.6.6 0 1-.5t.4-1.6q0-1-.4-1.6-.4-.5-1.1-.5-.6 0-1 .5-.5.5-.5 1.4Zm6.6-4.7q0-1.6.6-2.3.7-.8 1.9-.8t1.8.8q.7.7.7 2.3 0 1.5-.7 2.3-.6.7-1.8.7-1.2 0-1.9-.7-.6-.8-.6-2.3Zm1.7 0q0 1 .2 1.5.2.2.6.2.3 0 .5-.2.2-.4.2-1.5 0-1.2-.2-1.5-.2-.3-.5-.3-.4 0-.6.3-.2.3-.2 1.5Zm2.4 9h-1.6l6.1-12h1.6l-6 12Zm3.6-3q0-1.5.6-2.2.7-.8 1.9-.8t1.8.8q.7.7.7 2.2 0 1.6-.7 2.3-.6.8-1.8.8-1.2 0-1.9-.8-.6-.7-.6-2.3Zm1.7 0q0 1.1.2 1.5.2.3.6.3.3 0 .5-.3.3-.4.3-1.5t-.3-1.5q-.2-.3-.5-.3-.4 0-.6.3-.2.4-.2 1.5Z"/><path stroke="#fff" stroke-linecap="round" stroke-linejoin="round" stroke-width="3" d="m283.3 436.5 2.1-.2q.1.8.6 1.2.5.4 1 .4.7 0 1.2-.5.5-.6.5-1.7 0-1-.5-1.6-.4-.5-1.2-.5-1 0-1.7.8l-1.8-.2 1.1-6h5.8v2h-4.1l-.3 2q.7-.4 1.5-.4 1.4 0 2.4 1 1 1.2 1 2.9 0 1.4-.8 2.5-1 1.5-3 1.5-1.7 0-2.7-.9-1-.8-1.1-2.3Zm9-5.6q0-1.6.6-2.3.7-.8 1.8-.8 1.2 0 2 .8.6.7.6 2.3 0 1.5-.7 2.3-.7.7-1.8.7-1.2 0-1.9-.7-.7-.8-.7-2.3Zm1.6 0q0 1 .3 1.5.2.2.5.2.4 0 .6-.2.2-.4.2-1.5 0-1.2-.2-1.5-.2-.3-.6-.3-.3 0-.5.3-.3.3-.3 1.5Zm2.5 9h-1.6l6-12h1.7l-6 12Zm3.6-3q0-1.5.6-2.2.7-.8 1.9-.8t1.8.8q.7.7.7 2.2 0 1.6-.7 2.3-.6.8-1.8.8-1.2 0-1.9-.8-.6-.7-.6-2.3Zm1.7 0q0 1.1.2 1.5.2.3.6.3.3 0 .5-.3.3-.4.3-1.5t-.3-1.5q-.2-.3-.5-.3-.4 0-.6.3-.2.4-.2 1.5Z"/><path fill="#62718b" d="m283.3 436.5 2.1-.2q.1.8.6 1.2.5.4 1 .4.7 0 1.2-.5.5-.6.5-1.7 0-1-.5-1.6-.4-.5-1.2-.5-1 0-1.7.8l-1.8-.2 1.1-6h5.8v2h-4.1l-.3 2q.7-.4 1.5-.4 1.4 0 2.4 1 1 1.2 1 2.9 0 1.4-.8 2.5-1 1.5-3 1.5-1.7 0-2.7-.9-1-.8-1.1-2.3Zm9-5.6q0-1.6.6-2.3.7-.8 1.8-.8 1.2 0 2 .8.6.7.6 2.3 0 1.5-.7 2.3-.7.7-1.8.7-1.2 0-1.9-.7-.7-.8-.7-2.3Zm1.6 0q0 1 .3 1.5.2.2.5.2.4 0 .6-.2.2-.4.2-1.5 0-1.2-.2-1.5-.2-.3-.6-.3-.3 0-.5.3-.3.3-.3 1.5Zm2.5 9h-1.6l6-12h1.7l-6 12Zm3.6-3q0-1.5.6-2.2.7-.8 1.9-.8t1.8.8q.7.7.7 2.2 0 1.6-.7 2.3-.6.8-1.8.8-1.2 0-1.9-.8-.6-.7-.6-2.3Zm1.7 0q0 1.1.2 1.5.2.3.6.3.3 0 .5-.3.3-.4.3-1.5t-.3-1.5q-.2-.3-.5-.3-.4 0-.6.3-.2.4-.2 1.5Z"/><path fill="#838689" d="M364.2 496.8v-8.6h4.5q.6.1 1 .4.5.3.7.9.3.5.3 1.1 0 1.1-.7 1.9-.7.8-2.5.8h-2.2v3.5h-1.1Zm1-4.5h2.3q1.1 0 1.6-.5.4-.4.4-1.1 0-.6-.2-1-.3-.3-.7-.4l-1.1-.1h-2.2v3Zm11 2.5h1.2q-.3 1-1 1.6-.7.5-1.8.5-1.3 0-2.1-.9-.8-.8-.8-2.3 0-1.6.8-2.4.8-1 2-1 1.3 0 2.1 1 .8.8.8 2.3v.3h-4.6q0 1 .5 1.6.6.5 1.3.5.6 0 1-.3t.7-1Zm-3.4-1.8h3.5q0-.7-.4-1.1-.5-.6-1.3-.6-.7 0-1.2.4-.5.5-.6 1.3Zm6.2 3.8v-6.3h1v1q.3-.7.6-.9.3-.2.7-.2.5 0 1 .3l-.3 1-.7-.2q-.4 0-.7.2l-.4.6-.1 1.2v3.3h-1Zm8-2.3 1.1.1q-.2 1-.9 1.7-.7.6-1.7.6-1.3 0-2-.8-.8-.9-.8-2.4 0-1 .3-1.8.4-.8 1-1.1.7-.4 1.5-.4 1 0 1.7.5.6.5.8 1.5l-1 .1q-.1-.6-.5-1-.4-.2-1-.2-.7 0-1.2.5-.5.6-.5 1.8 0 1.3.5 1.9.4.5 1.2.5.6 0 1-.4.5-.3.6-1.1Zm6.3.3h1q-.2 1-.9 1.6-.7.5-1.8.5-1.3 0-2.1-.9-.8-.8-.8-2.3 0-1.6.8-2.4.8-1 2-1 1.3 0 2.1 1 .8.8.8 2.3v.3h-4.6q0 1 .5 1.6.6.5 1.3.5.6 0 1-.3t.7-1Zm-3.5-1.8h3.5q0-.7-.4-1.1-.5-.6-1.3-.6-.7 0-1.2.4-.5.5-.6 1.3Zm6.2 3.8v-6.3h1v1q.7-1.1 2-1.1l1 .2q.5.2.7.5l.3.8v4.9h-1V493l-.1-1q-.1-.3-.4-.5-.3-.2-.8-.2-.6 0-1.1.4-.5.5-.5 1.6v3.5h-1Zm9.3-1 .2 1h-.8l-1-.1-.4-.5v-4.9h-.9v-.8h.8V489l1-.6v2.1h1.1v.8h-1v4.3l.2.2h.8Zm3.3-2.2q0-1.7 1-2.5.8-.7 2-.7t2 .8q.9.9.9 2.3 0 1.3-.4 2-.4.6-1 1-.7.4-1.6.4-1.3 0-2-.8-.9-.9-.9-2.5Zm1.1 0q0 1.2.5 1.8.6.6 1.3.6.8 0 1.4-.6.5-.6.5-1.8 0-1.1-.6-1.7-.5-.6-1.3-.6-.7 0-1.3.6-.5.5-.5 1.7Zm6.6 3.2v-5.5h-1v-.8h1V489q.2-.4.6-.6.4-.3 1.1-.3l1 .1-.2 1-.6-.1q-.5 0-.7.2-.2.2-.2.8v.5h1.2v.8h-1.2v5.5h-1Zm5.7 2.3v-8.6h1v.8l.7-.7 1-.2q.9 0 1.5.4t1 1.2q.2.7.2 1.6 0 1-.3 1.7-.4.8-1 1.2-.7.4-1.4.4l-1-.2-.6-.6v3h-1Zm1-5.4q0 1.2.5 1.8.4.5 1.1.5.7 0 1.2-.6t.5-1.8q0-1.2-.4-1.8-.5-.6-1.2-.6t-1.2.6-.5 1.9Zm10 2.3q-.5.5-1 .7l-1.2.2q-1 0-1.6-.5-.5-.5-.5-1.3l.2-.8q.2-.4.5-.6l.8-.4 1-.1 1.8-.4v-.3q0-.6-.3-.9-.4-.3-1.2-.3-.7 0-1.1.2-.4.3-.5 1l-1-.2q0-.7.4-1 .3-.5 1-.7.6-.2 1.4-.2.7 0 1.2.2l.8.4.3.8v2.3l.1 1.9.3.8h-1.1l-.2-.8Zm0-2.4q-.6.3-1.7.4-.7.1-1 .3-.2 0-.4.3l-.1.5q0 .4.3.7.3.3 1 .3.6 0 1-.3.5-.3.7-.7.2-.4.2-1v-.5Zm2.8 3.7 1 .1q.1.5.4.7.4.3 1 .3.8 0 1.2-.3.4-.3.5-.8l.1-1.4q-.7.9-1.7.9-1.3 0-2-1t-.7-2.2q0-.9.3-1.6.4-.8 1-1.2.6-.4 1.4-.4 1.1 0 1.8.9v-.8h1v5.4q0 1.5-.3 2-.3.7-1 1-.6.4-1.5.4-1.1 0-1.8-.5t-.7-1.5Zm.9-3.8q0 1.3.5 1.8.5.6 1.2.6t1.2-.6q.5-.5.5-1.7t-.5-1.8q-.5-.5-1.2-.5t-1.2.5q-.5.6-.5 1.7Zm10.6 1.3h1q-.2 1-.9 1.6-.7.5-1.8.5-1.3 0-2.1-.9-.8-.8-.8-2.3 0-1.6.8-2.4.8-1 2-1 1.3 0 2.1 1 .8.8.8 2.3v.3h-4.6q0 1 .5 1.6.6.5 1.3.5.6 0 1-.3t.7-1Zm-3.5-1.8h3.5q0-.7-.4-1.1-.5-.6-1.3-.6-.7 0-1.2.4-.5.5-.6 1.3Zm5.8 1.9 1-.2q.1.7.5 1 .4.3 1.2.3.7 0 1-.3.4-.3.4-.7 0-.3-.3-.5-.2-.2-1.1-.4l-1.6-.5q-.5-.2-.7-.6l-.2-.8.2-.8q.2-.4.5-.6.2-.2.7-.3l.9-.1q.7 0 1.2.2.6.2.9.6.2.3.3 1h-1q0-.4-.4-.7-.3-.2-1-.2t-1 .2q-.3.2-.3.6l.1.3.4.3 1 .3 1.5.5q.5.2.7.5.3.4.3 1 0 .5-.4 1-.2.4-.8.6-.6.3-1.3.3-1.3 0-1.9-.5-.6-.5-.8-1.5Zm-412.4-180h-7.6v2.8h-1v-6.9h1v2.9h7.6v1.1Zm0-4.7H31v-1h1l-1-.7-.2-.6q0-.6.4-1.1l1 .3q-.3.4-.3.8t.2.6q.2.3.6.4l1.2.2h3.3v1Zm-.8-8.1.7 1.1q.2.5.2 1.2 0 1-.5 1.6-.5.5-1.2.5-.5 0-.9-.2t-.6-.6l-.3-.7-.2-1q-.1-1.2-.4-1.8H33q-.7 0-1 .3-.3.4-.3 1.2 0 .7.3 1 .2.4.9.6l-.2 1q-.6-.1-1-.4-.4-.4-.6-1-.3-.6-.3-1.4 0-.8.2-1.3t.5-.7q.3-.3.7-.3h2.4q1.5 0 1.8-.2l.8-.2v1l-.8.3Zm-2.3 0 .4 1.8q0 .6.2 1l.3.3q.2.2.5.2.4 0 .7-.3.3-.4.3-1t-.3-1q-.2-.5-.7-.8l-1-.1H34Zm.8-7 .2-1q1 .1 1.6.8.6.7.6 1.7 0 1.3-.8 2.1t-2.4.8q-1 0-1.7-.4-.8-.3-1.2-1-.4-.7-.4-1.5 0-1 .6-1.6.5-.7 1.4-.9l.2 1q-.7.2-1 .6-.3.4-.3.9 0 .8.6 1.3.5.5 1.8.5 1.2 0 1.8-.5.6-.5.6-1.2t-.4-1q-.4-.5-1.2-.6Zm2.3-2h-8.6v-1h5l-2.6-2.5v-1.4l2.3 2.4 3.9-2.6v1.3l-3.2 2 .7.8h2.5v1Zm-2-10.2.1-1.1q1 .2 1.5 1 .5.6.5 1.7 0 1.4-.8 2.2-.8.8-2.4.8-1.5 0-2.4-.8-.9-.8-.9-2.1t.9-2q.8-.8 2.4-.8h.3v4.6q1 0 1.5-.6.6-.5.6-1.3 0-.6-.3-1t-1-.6Zm-1.7 3.4V283q-.8 0-1.2.4-.6.5-.6 1.3 0 .7.5 1.2t1.3.5Zm3.7-6.1H31v-1h1l-1-.7-.2-.6q0-.6.4-1.1l1 .3q-.3.4-.3.8t.2.6q.2.3.6.4l1.2.2h3.3v1Zm108.4-125.6 1 .2q0 .4.3.7.4.3 1.1.3.7 0 1.1-.3.4-.3.6-.9v-1.3q-.6.8-1.7.8-1.2 0-2-1-.6-.9-.6-2.1 0-1 .3-1.7t.9-1.2q.6-.4 1.4-.4 1.1 0 1.9 1v-.8h1v5.4q0 1.4-.4 2-.3.6-.9 1-.6.3-1.6.3t-1.8-.5q-.7-.5-.6-1.5Zm.8-3.7q0 1.2.5 1.8.5.5 1.2.5.8 0 1.3-.5.5-.6.5-1.8 0-1.1-.6-1.7-.5-.6-1.2-.6t-1.2.6q-.5.6-.5 1.7Zm6 0q0-1.6 1-2.5.7-.7 1.9-.7 1.3 0 2 .9.9.8.9 2.3 0 1.2-.4 1.9-.3.7-1 1-.7.4-1.5.4-1.3 0-2.1-.8t-.8-2.4Zm1 0q0 1.3.6 1.9.5.6 1.3.6t1.3-.6q.5-.6.5-1.8 0-1.2-.5-1.8-.5-.6-1.3-.6t-1.3.6q-.6.6-.6 1.8Zm6 0q0-1.6 1-2.5.7-.7 1.9-.7 1.3 0 2 .9.9.8.9 2.3 0 1.2-.4 1.9-.3.7-1 1-.7.4-1.5.4-1.3 0-2.1-.8t-.8-2.4Zm1 0q0 1.3.6 1.9.5.6 1.3.6t1.3-.6q.5-.6.5-1.8 0-1.2-.5-1.8-.5-.6-1.3-.6t-1.3.6q-.6.6-.6 1.8Zm6.2 3.7 1 .2q0 .4.3.7.4.3 1.1.3.7 0 1.1-.3.4-.3.6-.9v-1.3q-.6.8-1.7.8-1.2 0-2-1-.6-.9-.6-2.1 0-1 .3-1.7t.9-1.2q.6-.4 1.4-.4 1.1 0 1.9 1v-.8h1v5.4q0 1.4-.4 2-.3.6-.9 1-.6.3-1.6.3t-1.8-.5q-.7-.5-.6-1.5Zm.8-3.7q0 1.2.5 1.8.5.5 1.2.5.8 0 1.3-.5.5-.6.5-1.8 0-1.1-.6-1.7-.5-.6-1.2-.6t-1.2.6q-.5.6-.5 1.7Zm6.3 3.2v-8.6h1v8.6h-1Zm7.3-2 1.1.1q-.2 1-1 1.5-.7.5-1.7.5-1.4 0-2.2-.8-.8-.8-.8-2.4 0-1.5.8-2.4.8-.9 2.1-.9t2 .9q.8.8.8 2.4v.3h-4.6q0 1 .6 1.5.5.6 1.3.6.5 0 1-.3.4-.3.6-1Zm-3.4-1.7h3.4q0-.8-.4-1.2-.5-.6-1.3-.6-.7 0-1.2.5t-.5 1.3Zm5.2 6v-.7h7v.8h-7Zm12-3-1.1.6-1.2.2q-1 0-1.6-.5-.5-.5-.5-1.2 0-.5.2-.9t.5-.6l.8-.3 1-.2q1.2-.1 1.8-.4v-.2q0-.7-.3-1-.4-.3-1.2-.3-.7 0-1 .3-.4.2-.6.9l-1-.1q.1-.7.4-1.1.4-.4 1-.6.6-.3 1.4-.3.8 0 1.3.2t.7.5l.3.7v2.4q0 1.5.2 1.9l.2.7h-1l-.3-.8Zm0-2.4-1.8.4q-.6 0-1 .2l-.3.3-.2.5q0 .5.3.7.4.3 1 .3t1-.3q.5-.2.8-.7l.1-1v-.4Zm3 3.1v-6.2h.9v.9q.7-1 2-1l1 .1q.5.2.7.6.3.3.4.7v4.9h-1v-3.8q0-.6-.2-1 0-.3-.4-.4-.3-.3-.7-.3-.7 0-1.2.5-.5.4-.5 1.6v3.4h-1Zm11-.8-1.1.7-1.2.2q-1 0-1.6-.5-.5-.5-.5-1.2 0-.5.2-.9t.5-.6l.8-.3 1-.2q1.2-.1 1.8-.4v-.2q0-.7-.3-1-.4-.3-1.2-.3-.7 0-1 .3-.4.2-.6.9l-1-.1q.1-.7.4-1.1.4-.4 1-.6.6-.3 1.4-.3.8 0 1.3.2t.7.5l.3.7v2.4q0 1.5.2 1.9l.2.7h-1l-.3-.8Zm0-2.3-1.8.4q-.6 0-1 .2l-.3.3-.2.5q0 .5.3.7.4.3 1 .3t1-.3q.5-.2.8-.7l.1-1v-.4Zm3 3.1v-8.6h1v8.6h-1Zm3 2.4-.2-1 .6.1.5-.1.4-.3.3-.8.1-.3-2.4-6.2h1.2l1.3 3.6.4 1.4.5-1.4 1.3-3.6h1l-2.3 6.3-.6 1.4q-.3.5-.7.8-.3.2-.8.2l-.7-.1Zm7.3-3.3.1.9h-1.7l-.4-.6q-.2-.3-.2-1.2v-3.6h-.7v-.8h.7v-1.6l1-.6v2.2h1.2v.8H221v4.2l.2.2.4.1h.5Zm.7-6.5v-1.2h1v1.2h-1Zm0 7.4v-6.2h1v6.2h-1Zm7-2.3 1 .2q-.1 1-.8 1.6-.7.6-1.7.6-1.3 0-2.1-.8t-.8-2.4q0-1 .4-1.7.3-.8 1-1.2.7-.4 1.5-.4 1 0 1.6.6.7.5.9 1.4l-1 .2q-.2-.7-.6-1-.4-.3-.9-.3-.8 0-1.3.6-.5.5-.5 1.8 0 1.2.5 1.8.5.6 1.2.6t1-.4q.5-.4.6-1.2Zm1.5.4 1-.1q.2.6.6 1 .4.3 1 .3.8 0 1.2-.3.3-.3.3-.7 0-.4-.3-.6l-1-.3-1.7-.5-.7-.6q-.2-.4-.2-.9 0-.4.2-.7.2-.4.5-.6l.7-.3q.4-.2.9-.2.7 0 1.3.3l.8.5q.3.4.4 1l-1 .1q-.1-.5-.5-.7-.3-.3-1-.3t-1 .3q-.3.2-.3.5l.1.4.5.3.9.2 1.6.5q.4.2.6.6.3.3.3.9 0 .5-.3 1-.3.4-.9.7-.6.2-1.3.2-1.2 0-1.9-.5-.6-.5-.8-1.5Zm-73.5 18.4q-.9-1-1.5-2.5t-.6-3.1q0-1.4.4-2.7.6-1.5 1.7-3h.7l-1 1.8-.5 1.7q-.2 1-.2 2.2 0 2.8 1.7 5.6h-.7Zm1.5-4.4 1-.1q.2.6.6 1 .4.3 1 .3.8 0 1.2-.3.3-.3.3-.7 0-.4-.3-.6l-1-.3-1.7-.5-.7-.6q-.2-.4-.2-.9 0-.4.2-.7.2-.4.5-.6l.7-.3q.4-.2.9-.2.7 0 1.3.3l.8.5q.3.4.4 1l-1 .1q-.1-.4-.5-.7-.3-.3-1-.3t-1 .3q-.3.2-.3.5l.1.4.5.3.9.2 1.6.5q.4.2.6.6.3.3.3.9 0 .5-.3 1-.3.4-.9.7-.6.2-1.3.2-1.2 0-1.9-.5-.6-.5-.8-1.5Zm7.5-5.5v-1.2h1v1.2h-1Zm0 7.4v-6.2h1v6.2h-1Zm5.3-1 .1 1h-1.7l-.4-.6q-.2-.3-.2-1.2v-3.6h-.7v-.8h.7v-1.6l1-.6v2.2h1.2v.8H171v4.2l.2.2.4.1h.5Zm5-1 1 .1q-.2 1-1 1.5-.7.5-1.7.5-1.4 0-2.2-.8-.8-.8-.8-2.4 0-1.5.8-2.4.8-.9 2.1-.9t2 .9q.8.8.8 2.4v.3h-4.6q0 1 .6 1.5.5.6 1.3.6.5 0 1-.3.4-.3.6-1Zm-3.5-1.7h3.4q0-.8-.4-1.2-.5-.6-1.3-.6-.7 0-1.2.5t-.5 1.3Zm5.2 6v-.7h7v.8h-7Zm12-3-1.1.6-1.2.2q-1 0-1.6-.5-.5-.5-.5-1.2 0-.5.2-.9t.5-.6l.8-.3 1-.2q1.2-.1 1.8-.4v-.2q0-.7-.3-1-.4-.3-1.2-.3-.7 0-1 .3-.4.2-.6.9l-1-.1q.1-.7.4-1.1.4-.4 1-.6.6-.3 1.4-.3.8 0 1.3.2t.7.5l.3.7v2.4q0 1.5.2 1.9l.2.7h-1l-.3-.8Zm0-2.4-1.8.4q-.6 0-1 .2l-.3.3-.2.5q0 .5.3.7.4.3 1 .3t1-.3q.5-.2.8-.7l.1-1v-.4Zm3 3.1v-6.2h.9v.9q.7-1 2-1l1 .1q.5.2.7.6.3.3.4.7v4.9h-1v-3.8q0-.6-.2-1 0-.3-.4-.4-.3-.2-.7-.2-.7 0-1.2.4t-.5 1.6v3.4h-1Zm11-.8-1.1.7-1.2.2q-1 0-1.6-.5-.5-.5-.5-1.2 0-.5.2-.9t.5-.6l.8-.3 1-.2q1.2-.1 1.8-.4v-.2q0-.7-.3-1-.4-.3-1.2-.3-.7 0-1 .3-.4.2-.6.9l-1-.1q.1-.7.4-1.1.4-.4 1-.6.6-.3 1.4-.3.8 0 1.3.2t.7.5l.3.7v2.4q0 1.5.2 1.9l.2.7h-1l-.3-.8Zm0-2.3-1.8.4q-.6 0-1 .2l-.3.3-.2.5q0 .5.3.7.4.3 1 .3t1-.3q.5-.2.8-.7l.1-1v-.4Zm3 3.1v-8.6h1v8.6h-1Zm3 2.4-.2-1 .6.1.5-.1.4-.3.3-.8.1-.3-2.4-6.2h1.2l1.3 3.6.4 1.4.5-1.4 1.3-3.6h1l-2.3 6.3-.6 1.4q-.3.5-.7.8-.3.2-.8.2l-.7-.1Zm7.3-3.3.1.9h-1.7l-.4-.6q-.2-.3-.2-1.2v-3.6h-.7v-.8h.7v-1.6l1-.6v2.2h1.2v.8H217v4.2l.2.2.4.1h.5Zm.7-6.5v-1.2h1v1.2h-1Zm0 7.4v-6.2h1v6.2h-1Zm7-2.3 1 .2q-.1 1-.8 1.6-.7.6-1.7.6-1.3 0-2.1-.8t-.8-2.4q0-1 .4-1.7.3-.8 1-1.2.7-.4 1.5-.4 1 0 1.6.6.7.5.9 1.4l-1 .2q-.2-.7-.6-1-.4-.3-.9-.3-.8 0-1.3.6-.5.5-.5 1.8 0 1.2.5 1.8.5.6 1.2.6t1-.4q.5-.4.6-1.2Zm1.5.4 1-.1q.2.6.6 1 .4.3 1 .3.8 0 1.2-.3.3-.3.3-.7 0-.4-.3-.6l-1-.3-1.7-.5-.7-.6q-.2-.4-.2-.9 0-.4.2-.7.2-.4.5-.6l.7-.3q.4-.2.9-.2.7 0 1.3.3l.8.5q.3.4.4 1l-1 .1q-.1-.5-.5-.7-.3-.3-1-.3t-1 .3q-.3.2-.3.5l.1.4.5.3.9.2 1.6.5q.4.2.6.6.3.3.3.9 0 .5-.3 1-.3.4-.9.7-.6.2-1.3.2-1.2 0-1.9-.5-.6-.5-.8-1.5Zm8.1 4.4h-.7q1.7-2.8 1.7-5.6l-.2-2.2q-.2-.9-.6-1.7l-.9-1.7h.7q1.1 1.4 1.7 3 .4 1.2.4 2.6 0 1.6-.6 3-.6 1.5-1.5 2.6ZM129.6 192l1 .1q0 .5.3.7.4.3 1.1.3.7 0 1.1-.3.4-.3.6-.8v-1.4q-.6.8-1.7.8-1.2 0-2-.9-.6-1-.6-2.2 0-.9.3-1.6.3-.8.9-1.2.6-.4 1.4-.4 1.1 0 1.9.9v-.8h1v5.4q0 1.4-.4 2-.3.7-.9 1-.6.4-1.6.4t-1.8-.5q-.7-.5-.6-1.5Zm.8-3.8q0 1.2.5 1.8.5.6 1.2.6.8 0 1.3-.6t.5-1.8q0-1-.6-1.7-.5-.5-1.2-.5t-1.2.5q-.5.6-.5 1.7Zm6 .1q0-1.7 1-2.5.7-.7 1.9-.7 1.3 0 2 .8.9.8.9 2.3 0 1.2-.4 2-.3.6-1 1t-1.5.4q-1.3 0-2.1-.9-.8-.8-.8-2.4Zm1 0q0 1.2.6 1.8.5.6 1.3.6t1.3-.6q.5-.6.5-1.8 0-1.2-.5-1.8-.5-.5-1.3-.5t-1.3.5q-.6.6-.6 1.8Zm6 0q0-1.7 1-2.5.7-.7 1.9-.7 1.3 0 2 .8.9.8.9 2.3 0 1.2-.4 2-.3.6-1 1t-1.5.4q-1.3 0-2.1-.9-.8-.8-.8-2.4Zm1 0q0 1.2.6 1.8.5.6 1.3.6t1.3-.6q.5-.6.5-1.8 0-1.2-.5-1.8-.5-.5-1.3-.5t-1.3.5q-.6.6-.6 1.8Zm6.2 3.7 1 .1q0 .5.3.7.4.3 1.1.3.7 0 1.1-.3.4-.3.6-.8v-1.4q-.6.8-1.7.8-1.2 0-2-.9-.6-1-.6-2.2 0-.9.3-1.6.3-.8.9-1.2.6-.4 1.4-.4 1.1 0 1.9.9v-.8h1v5.4q0 1.4-.4 2-.3.7-.9 1-.6.4-1.6.4t-1.8-.5q-.7-.5-.6-1.5Zm.8-3.8q0 1.2.5 1.8.5.6 1.2.6.8 0 1.3-.6t.5-1.8q0-1-.6-1.7-.5-.5-1.2-.5t-1.2.5q-.5.6-.5 1.7Zm6.3 3.2v-8.6h1v8.6h-1Zm7.3-2 1.1.2q-.2 1-1 1.4-.7.6-1.7.6-1.4 0-2.2-.9-.8-.8-.8-2.3 0-1.6.8-2.4.8-1 2.1-1t2 1q.8.8.8 2.3v.3h-4.6q0 1 .6 1.6.5.5 1.3.5.5 0 1-.3.4-.3.6-1Zm-3.4-1.7h3.4q0-.8-.4-1.2-.5-.6-1.3-.6-.7 0-1.2.5t-.5 1.3Zm11.2 6.3q-.9-1.1-1.5-2.6t-.6-3q0-1.5.4-2.7.6-1.5 1.7-3h.7l-1 1.7-.5 1.7-.2 2.2q0 2.9 1.7 5.7h-.7Zm6-3.3-1.1.7-1.2.2q-1 0-1.6-.5-.5-.5-.5-1.3 0-.5.2-.8.2-.4.5-.6l.8-.4 1-.2 1.8-.3v-.3q0-.6-.3-1-.4-.2-1.2-.2-.7 0-1 .2-.4.3-.6 1l-1-.2q.1-.7.4-1 .4-.5 1-.7.6-.2 1.4-.2.8 0 1.3.2t.7.4l.3.8v2.3q0 1.5.2 1.9 0 .4.2.7h-1l-.3-.7Zm0-2.4-1.8.4-1 .2q-.2.1-.3.4-.2.2-.2.5 0 .4.3.7.4.2 1 .2t1-.2q.5-.3.8-.8l.1-1v-.4Zm7 3.1v-.7q-.6.9-1.7.9-.8 0-1.4-.4-.6-.5-1-1.2-.3-.7-.3-1.7 0-.9.3-1.7.3-.7 1-1.1.5-.4 1.3-.4.6 0 1 .2t.7.6v-3h1v8.5h-1Zm-3.3-3q0 1.1.5 1.7.5.6 1.1.6.7 0 1.2-.6.5-.5.5-1.7 0-1.3-.5-1.9-.5-.5-1.2-.5t-1.2.5q-.4.6-.4 1.8Zm8 3-2.4-6.2h1.1l1.4 3.7.4 1.3.4-1.2 1.3-3.8h1.1l-2.3 6.2h-1Zm7.5-2 1.1.2q-.2 1-1 1.4-.7.6-1.7.6-1.4 0-2.2-.9-.8-.8-.8-2.3 0-1.6.8-2.4.8-1 2.1-1t2 1q.8.8.8 2.3v.3h-4.6q0 1 .6 1.6.5.5 1.3.5.5 0 1-.3.4-.3.6-1Zm-3.4-1.7h3.4q0-.8-.4-1.2-.5-.6-1.3-.6-.7 0-1.2.5t-.5 1.3Zm6.1 3.7v-6.2h1v1l.7-1 .6-.1q.6 0 1.1.3l-.3 1-.8-.2q-.4 0-.6.2-.3.2-.4.6-.2.5-.2 1.2v3.2h-1Zm6.4-.9.1 1h-.8q-.6 0-.9-.2-.3-.1-.4-.4-.2-.3-.2-1.3V186h-.7v-.8h.7v-1.5l1-.7v2.2h1.2v.8H206v4.2l.2.3h.9Zm.7-6.4v-1.3h1v1.3h-1Zm0 7.3v-6.2h1v6.2h-1Zm2.5-1.8 1-.2q.2.6.6 1 .4.3 1 .3.8 0 1.2-.3.3-.3.3-.7 0-.3-.3-.5-.2-.2-1-.4l-1.7-.5q-.4-.2-.7-.6l-.2-.8.2-.8q.2-.4.5-.6l.7-.3.9-.1q.7 0 1.3.2.5.2.8.6.3.3.4 1h-1q-.1-.4-.5-.7-.3-.3-1-.3t-1 .3q-.3.2-.3.5l.1.4.5.3.9.3 1.6.5q.4.1.6.5.3.4.3 1 0 .4-.3 1-.3.4-.9.6-.6.3-1.3.3-1.2 0-1.9-.5-.6-.5-.8-1.5Zm7.5-5.5v-1.3h1v1.3h-1Zm0 7.3v-6.2h1v6.2h-1Zm3 0v-6.2h.9v.9q.7-1 2-1l1 .2q.5.2.7.5.3.3.4.8v4.8h-1v-3.7q0-.7-.2-1 0-.3-.4-.5-.3-.2-.7-.2-.7 0-1.2.4t-.5 1.6v3.4h-1Zm6.8.6 1 .1q0 .5.3.7.4.3 1.1.3.7 0 1.1-.3.4-.3.6-.8v-1.4q-.6.8-1.7.8-1.2 0-2-.9-.6-1-.6-2.2 0-.9.3-1.6.3-.8.9-1.2.6-.4 1.4-.4 1.1 0 1.9.9v-.8h1v5.4q0 1.4-.4 2-.3.7-.9 1-.6.4-1.6.4t-1.8-.5q-.7-.5-.6-1.5Zm.8-3.8q0 1.2.5 1.8.5.6 1.2.6.8 0 1.3-.6t.5-1.8q0-1-.6-1.7-.5-.5-1.2-.5t-1.2.5q-.5.6-.5 1.7Zm7 5.8h-.7q1.7-2.8 1.7-5.7l-.2-2.2-.6-1.6q-.2-.6-1-1.8h.8q1.1 1.5 1.7 3 .4 1.2.4 2.6 0 1.6-.6 3-.6 1.6-1.5 2.7Zm-125.6 27.7v-.8q-.6 1-1.7 1-.8 0-1.4-.5-.6-.4-1-1.2-.3-.7-.3-1.6 0-1 .3-1.7.3-.8 1-1.2.5-.4 1.3-.4.6 0 1 .2l.7.7V213h1v8.6h-1Zm-3.3-3.1q0 1.2.5 1.8.5.5 1.1.5.7 0 1.2-.5.5-.6.5-1.7 0-1.3-.5-2-.5-.5-1.2-.5t-1.2.6q-.4.5-.4 1.8Zm5.9 0q0-1.8 1-2.6.7-.7 1.9-.7 1.3 0 2 .9.9.8.9 2.3 0 1.2-.4 1.9-.3.6-1 1t-1.5.4q-1.3 0-2.1-.8-.8-.9-.8-2.4Zm1 0q0 1.1.6 1.7.5.6 1.3.6t1.3-.6q.5-.6.5-1.8 0-1.1-.5-1.7-.5-.6-1.3-.6t-1.3.6q-.6.6-.6 1.8Zm10.4 3v-.9q-.7 1.1-2 1.1l-1-.2-.7-.5-.3-.8v-4.9h1v4.6q.1.4.5.7.3.2.8.2l.8-.2q.5-.3.6-.7.2-.4.2-1.2v-3.4h1v6.3h-.9Zm4 0h-1V213h1v3q.7-.8 1.7-.8.6 0 1 .2l1 .7.5 1 .1 1.3q0 1.6-.7 2.4-.8 1-2 1-1 0-1.7-1v.8Zm0-3q0 1 .2 1.5.5.8 1.4.8.7 0 1.2-.6t.5-1.8q0-1.2-.5-1.8-.5-.5-1.2-.5t-1.2.6q-.5.6-.5 1.7Zm6 3V213h1v8.6h-1Zm7.2-2 1.1.2q-.2 1-1 1.5-.7.5-1.7.5-1.4 0-2.2-.8-.8-.9-.8-2.4 0-1.6.8-2.4.8-.9 2.1-.9t2 .9q.8.8.8 2.3v.3h-4.6q0 1 .6 1.6.5.5 1.3.5.5 0 1-.3.4-.3.6-1Zm-3.4-1.6h3.4q0-.8-.4-1.2-.5-.6-1.3-.6-.7 0-1.2.5-.5.4-.5 1.3Zm10.2 1.4 1 .1q-.1 1-.8 1.7-.7.6-1.7.6-1.3 0-2.1-.8-.8-.9-.8-2.4 0-1 .4-1.8.3-.7 1-1.1.7-.4 1.5-.4 1 0 1.6.5.7.5.9 1.5l-1 .1q-.2-.6-.6-1-.4-.2-.9-.2-.8 0-1.3.5-.5.6-.5 1.8 0 1.3.5 1.9.5.5 1.2.5t1-.3q.5-.4.6-1.2Zm2 2.3V213h1v8.6h-1Zm3-7.4V213h1v1.2h-1Zm0 7.4v-6.3h1v6.3h-1Zm7-2.3 1 .1q-.1 1-.8 1.7-.7.6-1.7.6-1.3 0-2.1-.8-.8-.9-.8-2.4 0-1 .4-1.8.3-.7 1-1.1.7-.4 1.5-.4 1 0 1.6.5.7.5.9 1.5l-1 .1q-.2-.6-.6-1-.4-.2-.9-.2-.8 0-1.3.5-.5.6-.5 1.8 0 1.3.5 1.9.5.5 1.2.5t1-.3q.5-.4.6-1.2Zm2 2.3V213h1v4.9l2.5-2.6h1.4l-2.4 2.3 2.6 4h-1.3l-2-3.2-.8.7v2.5h-1Zm11 2.5q-.9-1.1-1.5-2.6t-.6-3q0-1.4.4-2.7.6-1.5 1.7-3h.7l-1 1.8-.5 1.7q-.2 1-.2 2.2 0 2.8 1.7 5.6h-.7Zm6-3.3-1.1.7-1.2.2q-1 0-1.6-.5-.5-.5-.5-1.3l.2-.8q.2-.4.5-.6l.8-.4 1-.1 1.8-.4v-.3q0-.6-.3-.9-.4-.3-1.2-.3-.7 0-1 .2-.4.3-.6 1l-1-.2q.1-.6.4-1 .4-.5 1-.7.6-.2 1.4-.2.8 0 1.3.2t.7.5q.2.2.3.7v2.4q0 1.4.2 1.8l.2.8h-1l-.3-.8Zm0-2.4q-.7.3-1.8.4l-1 .3q-.2 0-.3.3-.2.2-.2.5 0 .4.3.7.4.3 1 .3t1-.3q.5-.3.8-.7l.1-1v-.5Zm7 3.2v-.8q-.6 1-1.7 1-.8 0-1.4-.5-.6-.4-1-1.2-.3-.7-.3-1.6 0-1 .3-1.7.3-.8 1-1.2.5-.4 1.3-.4.6 0 1 .2l.7.7V213h1v8.6h-1Zm-3.3-3.1q0 1.2.5 1.8.5.5 1.1.5.7 0 1.2-.5.5-.6.5-1.7 0-1.3-.5-2-.5-.5-1.2-.5t-1.2.6q-.4.5-.4 1.8Zm8 3-2.4-6.2h1.1l1.4 3.8.4 1.2.4-1.2 1.3-3.8h1.1l-2.3 6.3h-1Zm7.5-2 1.1.2q-.2 1-1 1.5-.7.5-1.7.5-1.4 0-2.2-.8-.8-.9-.8-2.4 0-1.6.8-2.4.8-.9 2.1-.9t2 .9q.8.8.8 2.3v.3h-4.6q0 1 .6 1.6.5.5 1.3.5.5 0 1-.3.4-.3.6-1Zm-3.4-1.6h3.4q0-.8-.4-1.2-.5-.6-1.3-.6-.7 0-1.2.5-.5.4-.5 1.3Zm6.1 3.7v-6.3h1v1q.4-.7.7-.9l.6-.2q.6 0 1.1.3l-.3 1-.8-.2q-.4 0-.6.2-.3.2-.4.6-.2.5-.2 1.2v3.3h-1Zm6.4-1 .1 1h-.8l-.9-.1q-.3-.2-.4-.5-.2-.3-.2-1.3v-3.5h-.7v-.9h.7v-1.5l1-.6v2.1h1.2v.9H206v4.2l.2.2h.9Zm.7-6.4V213h1v1.2h-1Zm0 7.4v-6.3h1v6.3h-1Zm2.5-1.9 1-.1q.2.6.6.9.4.3 1 .3.8 0 1.2-.2.3-.3.3-.8 0-.3-.3-.5-.2-.2-1-.4l-1.7-.5q-.4-.2-.7-.6-.2-.3-.2-.8l.2-.8.5-.6.7-.3h.9l1.3.1q.5.2.8.6.3.3.4 1h-1q-.1-.4-.5-.7-.3-.2-1-.2t-1 .2q-.3.3-.3.6l.1.3.5.3.9.3 1.6.5q.4.2.6.5.3.4.3 1 0 .5-.3 1-.3.4-.9.7-.6.2-1.3.2-1.2 0-1.9-.5-.6-.5-.8-1.5Zm7.5-5.5V213h1v1.2h-1Zm0 7.4v-6.3h1v6.3h-1Zm3 0v-6.3h.9v1q.7-1 2-1l1 .1q.5.2.7.5l.4.8v4.9h-1v-3.8q0-.7-.2-1 0-.3-.4-.5-.3-.2-.7-.2-.7 0-1.2.5-.5.4-.5 1.6v3.4h-1Zm6.8.5 1 .1q0 .5.3.7.4.3 1.1.3.7 0 1.1-.3.4-.3.6-.8v-1.3q-.6.8-1.7.8-1.2 0-2-1-.6-.9-.6-2.2 0-.9.3-1.6.3-.8.9-1.2.6-.4 1.4-.4 1.1 0 1.9.9v-.8h1v5.4q0 1.5-.4 2-.3.7-.9 1-.6.4-1.6.4t-1.8-.5q-.7-.5-.6-1.5Zm.8-3.8q0 1.3.5 1.8.5.6 1.2.6.8 0 1.3-.6.5-.5.5-1.7t-.6-1.7q-.5-.6-1.2-.6t-1.2.6q-.5.5-.5 1.6Zm7 5.8h-.7q1.7-2.8 1.7-5.6l-.2-2.2q-.2-1-.6-1.7l-1-1.8h.8q1.1 1.5 1.7 3 .4 1.3.4 2.7 0 1.5-.6 3t-1.5 2.6ZM118 251.8v-5.4h-1v-.8h1v-.7l.1-1 .5-.6q.4-.2 1.1-.2h1l-.1 1h-.7l-.7.1-.1.8v.6h1.2v.8H119v5.4h-1Zm6.8-.8-1.1.7-1.2.2q-1 0-1.6-.5-.5-.5-.5-1.2 0-.5.2-.9t.5-.6l.8-.3 1-.2q1.2-.1 1.8-.4v-.2q0-.7-.3-1-.4-.3-1.2-.3-.7 0-1 .3-.4.2-.6.9l-1-.2q.1-.6.4-1 .4-.4 1-.6.6-.3 1.4-.3.8 0 1.3.2t.7.5l.3.7v2.4q0 1.5.2 1.8l.2.8h-1l-.3-.8Zm0-2.3-1.8.4q-.6 0-1 .2l-.3.3q-.2.2-.2.5 0 .4.3.7.4.3 1 .3t1-.3q.5-.2.8-.7l.1-1v-.4Zm7 .8 1 .2q-.1 1-.8 1.6-.7.6-1.7.6-1.3 0-2.1-.8t-.8-2.4q0-1 .4-1.7.3-.8 1-1.2.7-.4 1.5-.4 1 0 1.6.6.7.5.9 1.4l-1 .2q-.2-.7-.6-1-.4-.3-.9-.3-.8 0-1.3.6-.5.5-.5 1.8 0 1.2.5 1.8.5.6 1.2.6t1-.4q.5-.4.6-1.2Zm6.2.3 1.1.1q-.2 1-1 1.5-.7.5-1.7.5-1.4 0-2.2-.8-.8-.8-.8-2.4 0-1.5.8-2.4.8-.9 2.1-.9t2 .9q.8.8.8 2.4v.3h-4.6q0 1 .6 1.5.5.6 1.3.6.5 0 1-.3.4-.3.6-1Zm-3.4-1.7h3.4q0-.8-.4-1.2-.5-.6-1.3-.6-.7 0-1.2.5t-.5 1.3Zm7.1 3.7h-1v-8.6h1.1v3q.7-.8 1.7-.8.6 0 1 .3.6.2 1 .6l.5 1 .1 1.3q0 1.6-.7 2.5-.8.8-2 .8-1 0-1.7-.9v.8Zm0-3.2q0 1.2.3 1.7.5.8 1.4.8.7 0 1.2-.6t.5-1.8q0-1.2-.5-1.8-.5-.6-1.2-.6t-1.2.6q-.5.6-.5 1.7Zm5.7 0q0-1.6 1-2.5.7-.7 1.9-.7 1.3 0 2 .9.9.8.9 2.3 0 1.2-.4 1.9-.3.7-1 1-.7.4-1.5.4-1.3 0-2.1-.8t-.8-2.4Zm1 0q0 1.3.6 1.9.5.6 1.3.6t1.3-.6q.5-.6.5-1.8 0-1.2-.5-1.8-.5-.6-1.3-.6t-1.3.6q-.6.6-.6 1.8Zm6 0q0-1.6 1-2.5.7-.7 1.9-.7 1.3 0 2 .9.9.8.9 2.3 0 1.2-.4 1.9-.3.7-1 1-.7.4-1.5.4-1.3 0-2.1-.8t-.8-2.4Zm1 0q0 1.3.6 1.9.5.6 1.3.6t1.3-.6q.5-.6.5-1.8 0-1.2-.5-1.8-.5-.6-1.3-.6t-1.3.6q-.6.6-.6 1.8Zm6.4 3.2v-8.6h1v5l2.5-2.6h1.4l-2.4 2.3 2.6 3.9h-1.3l-2-3.2-.8.7v2.5h-1Zm11 2.5q-.9-1-1.5-2.5t-.6-3.1q0-1.4.4-2.7.6-1.5 1.7-3h.7l-1 1.8-.5 1.7q-.2 1-.2 2.2 0 2.8 1.7 5.6h-.7Zm6-3.3-1.1.7-1.2.2q-1 0-1.6-.5-.5-.5-.5-1.2 0-.5.2-.9t.5-.6l.8-.3 1-.2q1.2-.1 1.8-.4v-.2q0-.7-.3-1-.4-.3-1.2-.3-.7 0-1 .3-.4.2-.6.9l-1-.2q.1-.6.4-1 .4-.4 1-.6.6-.3 1.4-.3.8 0 1.3.2t.7.5l.3.7v2.4q0 1.5.2 1.8l.2.8h-1l-.3-.8Zm0-2.3-1.8.4q-.6 0-1 .2l-.3.3q-.2.2-.2.5 0 .4.3.7.4.3 1 .3t1-.3q.5-.2.8-.7l.1-1v-.4Zm7 3.1v-.8q-.6 1-1.7 1-.8 0-1.4-.5-.6-.4-1-1.1-.3-.8-.3-1.7 0-1 .3-1.7.3-.8 1-1.2.5-.4 1.3-.4.6 0 1 .3.4.2.7.6v-3.1h1v8.6h-1Zm-3.3-3.1q0 1.2.5 1.8.5.6 1.1.6.7 0 1.2-.6t.5-1.7q0-1.3-.5-1.9-.5-.6-1.2-.6t-1.2.6q-.4.6-.4 1.8Zm8 3.1-2.4-6.2h1.1l1.4 3.7.4 1.2.4-1.1 1.3-3.8h1.1l-2.3 6.2h-1Zm7.5-2 1.1.1q-.2 1-1 1.5-.7.5-1.7.5-1.4 0-2.2-.8-.8-.8-.8-2.4 0-1.5.8-2.4.8-.9 2.1-.9t2 .9q.8.8.8 2.4v.3h-4.6q0 1 .6 1.5.5.6 1.3.6.5 0 1-.3.4-.3.6-1Zm-3.4-1.7h3.4q0-.8-.4-1.2-.5-.6-1.3-.6-.7 0-1.2.5t-.5 1.3Zm6.1 3.7v-6.2h1v1l.7-1 .6-.2q.6 0 1.1.4l-.3 1q-.4-.3-.8-.3t-.6.2q-.3.2-.4.6l-.2 1.2v3.3h-1Zm6.4-1 .1 1h-.8l-.9-.1q-.3-.2-.4-.5-.2-.3-.2-1.2v-3.6h-.7v-.8h.7V244l1-.6v2.2h1.2v.8H206v4.2l.2.2h.9Zm.7-6.4v-1.2h1v1.2h-1Zm0 7.4v-6.2h1v6.2h-1Zm2.5-1.9 1-.1q.2.6.6 1 .4.3 1 .3.8 0 1.2-.3.3-.3.3-.7 0-.4-.3-.6l-1-.3-1.7-.5-.7-.6q-.2-.4-.2-.9 0-.4.2-.7.2-.4.5-.6l.7-.3q.4-.2.9-.2.7 0 1.3.3l.8.5q.3.4.4 1l-1 .1q-.1-.5-.5-.7-.3-.3-1-.3t-1 .2q-.3.3-.3.6l.1.4.5.3.9.2 1.6.5q.4.2.6.6.3.3.3.9 0 .5-.3 1-.3.4-.9.7-.6.2-1.3.2-1.2 0-1.9-.5-.6-.5-.8-1.5Zm7.5-5.5v-1.2h1v1.2h-1Zm0 7.4v-6.2h1v6.2h-1Zm3 0v-6.2h.9v.9q.7-1 2-1l1 .1q.5.2.7.6.3.3.4.7v4.9h-1V248q0-.6-.2-1 0-.3-.4-.5-.3-.2-.7-.2-.7 0-1.2.5-.5.4-.5 1.6v3.4h-1Zm6.8.5 1 .2q0 .4.3.7.4.3 1.1.3.7 0 1.1-.3.4-.3.6-.9V251q-.6.8-1.7.8-1.2 0-2-1-.6-.9-.6-2.1 0-1 .3-1.7t.9-1.2q.6-.4 1.4-.4 1.1 0 1.9 1v-.8h1v5.4q0 1.4-.4 2-.3.6-.9 1-.6.3-1.6.3t-1.8-.5q-.7-.5-.6-1.5Zm.8-3.7q0 1.2.5 1.8.5.5 1.2.5.8 0 1.3-.5.5-.6.5-1.8 0-1.1-.6-1.7-.5-.6-1.2-.6t-1.2.6q-.5.6-.5 1.7Zm7 5.7h-.7q1.7-2.8 1.7-5.6l-.2-2.2q-.2-.9-.6-1.7l-1-1.7h.8q1.1 1.4 1.7 3 .4 1.2.4 2.6 0 1.6-.6 3-.6 1.5-1.5 2.6Zm-101.8 21.2 1 .2q0 .5.3.7.4.3 1.1.3.7 0 1.1-.3.4-.3.6-.8v-1.4q-.6.8-1.7.8-1.2 0-2-.9-.6-1-.6-2.2 0-.9.3-1.6.3-.8.9-1.2.6-.4 1.4-.4 1.1 0 1.9.9v-.8h1v5.4q0 1.4-.4 2-.3.7-.9 1-.6.4-1.6.4t-1.8-.5q-.7-.5-.6-1.6Zm.8-3.7q0 1.2.5 1.8.5.6 1.2.6.8 0 1.3-.6t.5-1.8q0-1.1-.6-1.7-.5-.6-1.2-.6t-1.2.6q-.5.6-.5 1.7Zm6 .1q0-1.7 1-2.5.7-.7 1.9-.7 1.3 0 2 .8.9.8.9 2.3 0 1.2-.4 2-.3.6-1 1t-1.5.4q-1.3 0-2.1-.9-.8-.8-.8-2.4Zm1 0q0 1.2.6 1.8.5.6 1.3.6t1.3-.6q.5-.6.5-1.8 0-1.2-.5-1.8-.5-.6-1.3-.6t-1.3.6q-.6.6-.6 1.8Zm6 0q0-1.7 1-2.5.7-.7 1.9-.7 1.3 0 2 .8.9.8.9 2.3 0 1.2-.4 2-.3.6-1 1t-1.5.4q-1.3 0-2.1-.9-.8-.8-.8-2.4Zm1 0q0 1.2.6 1.8.5.6 1.3.6t1.3-.6q.5-.6.5-1.8 0-1.2-.5-1.8-.5-.6-1.3-.6t-1.3.6q-.6.6-.6 1.8Zm6.2 3.6 1 .2q0 .5.3.7.4.3 1.1.3.7 0 1.1-.3.4-.3.6-.8v-1.4q-.6.8-1.7.8-1.2 0-2-.9-.6-1-.6-2.2 0-.9.3-1.6.3-.8.9-1.2.6-.4 1.4-.4 1.1 0 1.9.9v-.8h1v5.4q0 1.4-.4 2-.3.7-.9 1-.6.4-1.6.4t-1.8-.5q-.7-.5-.6-1.6Zm.8-3.7q0 1.2.5 1.8.5.6 1.2.6.8 0 1.3-.6t.5-1.8q0-1.1-.6-1.7-.5-.6-1.2-.6t-1.2.6q-.5.6-.5 1.7Zm6.3 3.2v-8.6h1v8.6h-1Zm7.3-2 1.1.2q-.2 1-1 1.4-.7.6-1.7.6-1.4 0-2.2-.9-.8-.8-.8-2.3 0-1.6.8-2.5.8-.8 2.1-.8t2 .8q.8.9.8 2.4v.3h-4.6q0 1 .6 1.6.5.5 1.3.5.5 0 1-.3.4-.3.6-1Zm-3.4-1.7h3.4q0-.8-.4-1.2-.5-.6-1.3-.6-.7 0-1.2.5t-.5 1.3Zm5.2 6.1v-.7h7v.7h-7Zm12-3.1-1.1.7-1.2.2q-1 0-1.6-.5-.5-.5-.5-1.3 0-.5.2-.8.2-.4.5-.6l.8-.4 1-.2 1.8-.3v-.3q0-.6-.3-1-.4-.3-1.2-.3-.7 0-1 .3-.4.3-.6 1l-1-.2q.1-.7.4-1 .4-.5 1-.7.6-.2 1.4-.2.8 0 1.3.2.5.1.7.4l.3.7v2.4q0 1.5.2 1.9 0 .4.2.7h-1l-.3-.7Zm0-2.4-1.8.4-1 .2q-.2.1-.3.4-.2.2-.2.5 0 .4.3.7.4.2 1 .2t1-.2q.5-.3.8-.8l.1-1v-.4Zm7 3.1v-.7q-.6.9-1.7.9-.8 0-1.4-.4-.6-.5-1-1.2-.3-.7-.3-1.7 0-.9.3-1.7.3-.7 1-1.1.5-.4 1.3-.4.6 0 1 .2t.7.6v-3h1v8.5h-1Zm-3.3-3q0 1.1.5 1.7.5.6 1.1.6.7 0 1.2-.6.5-.5.5-1.7 0-1.3-.5-1.9-.5-.6-1.2-.6t-1.2.6q-.4.6-.4 1.8Zm5.8 1.2 1-.2q.2.6.6 1 .4.3 1 .3.8 0 1.2-.3.3-.3.3-.7 0-.3-.3-.5-.2-.2-1-.4l-1.7-.5q-.4-.2-.7-.6l-.2-.8q0-.5.2-.8.2-.4.5-.6l.7-.3.9-.1q.7 0 1.3.2.5.2.8.6.3.3.4 1h-1q-.1-.4-.5-.7-.3-.3-1-.3t-1 .3q-.3.2-.3.5l.1.4.5.3.9.2 1.6.6q.4.1.6.5.3.4.3.9t-.3 1q-.3.5-.9.7-.6.3-1.3.3-1.2 0-1.9-.5-.6-.5-.8-1.5Zm11.7-.2 1.1.2q-.2 1-1 1.4-.7.6-1.7.6-1.4 0-2.2-.9-.8-.8-.8-2.3 0-1.6.8-2.5.8-.8 2.1-.8t2 .8q.8.9.8 2.4v.3h-4.6q0 1 .6 1.6.5.5 1.3.5.5 0 1-.3.4-.3.6-1Zm-3.4-1.7h3.4q0-.8-.4-1.2-.5-.6-1.3-.6-.7 0-1.2.5t-.5 1.3Zm6.1 3.7v-6.2h1v1l.7-1 .6-.1q.6 0 1.1.3l-.3 1q-.4-.3-.8-.3t-.6.3q-.3.2-.4.5-.2.6-.2 1.3v3.2h-1Zm5.8 0-2.4-6.2h1.1l1.4 3.7.4 1.3.4-1.2 1.3-3.8h1.1l-2.3 6.2h-1Zm3.3-7.3v-1.3h1v1.3h-1Zm0 7.3v-6.2h1v6.2h-1Zm7-2.2h1q-.1 1.2-.8 1.8-.7.6-1.7.6-1.3 0-2.1-.9-.8-.8-.8-2.4 0-1 .4-1.7.3-.8 1-1.2.7-.3 1.5-.3 1 0 1.6.5.7.5.9 1.4l-1 .2q-.2-.6-.6-1-.4-.3-.9-.3-.8 0-1.3.6t-.5 1.8q0 1.3.5 1.8.5.6 1.2.6t1-.4q.5-.4.6-1.2Zm6.2.2 1.1.2q-.2 1-1 1.4-.7.6-1.7.6-1.4 0-2.2-.9-.8-.8-.8-2.3 0-1.6.8-2.5.8-.8 2.1-.8t2 .8q.8.9.8 2.4v.3h-4.6q0 1 .6 1.6.5.5 1.3.5.5 0 1-.3.4-.3.6-1Zm-3.4-1.7h3.4q0-.8-.4-1.2-.5-.6-1.3-.6-.7 0-1.2.5t-.5 1.3Zm5.7 1.9 1-.2q.2.6.6 1 .4.3 1 .3.8 0 1.2-.3.3-.3.3-.7 0-.3-.3-.5-.2-.2-1-.4l-1.7-.5q-.4-.2-.7-.6l-.2-.8q0-.5.2-.8.2-.4.5-.6l.7-.3.9-.1q.7 0 1.3.2.5.2.8.6.3.3.4 1h-1q-.1-.4-.5-.7-.3-.3-1-.3t-1 .3q-.3.2-.3.5l.1.4.5.3.9.2 1.6.6q.4.1.6.5.3.4.3.9t-.3 1q-.3.5-.9.7-.6.3-1.3.3-1.2 0-1.9-.5-.6-.5-.8-1.5Zm-58.5 18.4q-.9-1.1-1.5-2.6t-.6-3q0-1.5.4-2.7.6-1.5 1.7-3h.7l-1 1.7-.5 1.7-.2 2.2q0 2.9 1.7 5.7h-.7Zm6-3.3-1.1.7-1.2.2q-1 0-1.6-.5-.5-.5-.5-1.3 0-.5.2-.8.2-.4.5-.6l.8-.4 1-.2 1.8-.3v-.3q0-.6-.3-1-.4-.3-1.2-.3-.7 0-1 .3-.4.3-.6 1l-1-.2q.1-.7.4-1 .4-.5 1-.7.6-.2 1.4-.2.8 0 1.3.2.5.1.7.4l.3.7v2.4q0 1.5.2 1.9 0 .4.2.7h-1l-.3-.7Zm0-2.4-1.8.4-1 .2q-.2.1-.3.4-.2.2-.2.5 0 .4.3.7.4.2 1 .2t1-.2q.5-.3.8-.8l.1-1v-.4Zm7 3.1v-.8q-.6 1-1.7 1-.8 0-1.4-.4-.6-.5-1-1.2-.3-.7-.3-1.7 0-.9.3-1.7.3-.7 1-1.1.5-.4 1.3-.4.6 0 1 .2t.7.6v-3h1v8.5h-1Zm-3.3-3q0 1.1.5 1.7.5.6 1.1.6.7 0 1.2-.6.5-.5.5-1.7 0-1.3-.5-1.9-.5-.6-1.2-.6t-1.2.6q-.4.6-.4 1.8Zm8 3-2.4-6.2h1.1l1.4 3.7.4 1.3.4-1.2 1.3-3.8h1.1l-2.3 6.2h-1Zm7.5-2 1.1.2q-.2 1-1 1.4-.7.6-1.7.6-1.4 0-2.2-.9-.8-.8-.8-2.3 0-1.6.8-2.5.8-.8 2.1-.8t2 .8q.8.9.8 2.4v.3h-4.6q0 1 .6 1.6.5.5 1.3.5.5 0 1-.3.4-.3.6-1Zm-3.4-1.7h3.4q0-.8-.4-1.2-.5-.6-1.3-.6-.7 0-1.2.5t-.5 1.3Zm6.1 3.7v-6.2h1v1l.7-1 .6-.1q.6 0 1.1.3l-.3 1q-.4-.3-.8-.3t-.6.3q-.3.2-.4.5-.2.6-.2 1.3v3.2h-1Zm6.4-1 .1 1-.8.1q-.6 0-.9-.2l-.4-.4q-.2-.3-.2-1.3v-3.6h-.7v-.8h.7v-1.5l1-.7v2.2h1.2v.8H206v4.2l.2.2.4.1h.5Zm.7-6.3v-1.3h1v1.3h-1Zm0 7.3v-6.2h1v6.2h-1Zm2.5-1.8 1-.2q.2.6.6 1 .4.3 1 .3.8 0 1.2-.3.3-.3.3-.7 0-.3-.3-.6l-1-.3-1.7-.5q-.4-.2-.7-.6l-.2-.8q0-.5.2-.8.2-.4.5-.6l.7-.3.9-.1q.7 0 1.3.2.5.2.8.6.3.3.4 1h-1q-.1-.4-.5-.7-.3-.3-1-.3t-1 .3q-.3.2-.3.5l.1.4.5.3.9.2 1.6.5q.4.2.6.6.3.4.3.9t-.3 1q-.3.5-.9.7-.6.3-1.3.3-1.2 0-1.9-.5-.6-.5-.8-1.5Zm7.5-5.5v-1.3h1v1.3h-1Zm0 7.3v-6.2h1v6.2h-1Zm3 0v-6.2h.9v.9q.7-1 2-1l1 .2q.5.2.7.5.3.3.4.8v4.8h-1v-3.8q0-.6-.2-1 0-.2-.4-.4-.3-.2-.7-.2-.7 0-1.2.4t-.5 1.6v3.4h-1Zm6.8.5 1 .2q0 .5.3.7.4.3 1.1.3.7 0 1.1-.3.4-.3.6-.8v-1.4q-.6.8-1.7.8-1.2 0-2-.9-.6-1-.6-2.2 0-.9.3-1.7.3-.7.9-1.1.6-.4 1.4-.4 1.1 0 1.9.9v-.8h1v5.4q0 1.4-.4 2-.3.7-.9 1-.6.4-1.6.4t-1.8-.5q-.7-.5-.6-1.6Zm.8-3.7q0 1.2.5 1.8.5.6 1.2.6.8 0 1.3-.6t.5-1.8q0-1.1-.6-1.7-.5-.6-1.2-.6t-1.2.6q-.5.6-.5 1.7Zm7 5.8h-.7q1.7-2.9 1.7-5.7l-.2-2.2-.6-1.7-1-1.7h.8q1.1 1.5 1.7 3 .4 1.2.4 2.6 0 1.6-.6 3-.6 1.6-1.5 2.7Zm-103.8 14.2 1 .1q0 .5.3.7.4.3 1.1.3.7 0 1.1-.3.4-.3.6-.8v-1.4q-.6.9-1.7.9-1.2 0-2-1-.6-.9-.6-2.2 0-.9.3-1.6.3-.8.9-1.2.6-.4 1.4-.4 1.1 0 1.9.9v-.8h1v5.4q0 1.5-.4 2-.3.7-.9 1-.6.4-1.6.4t-1.8-.5q-.7-.5-.6-1.5Zm.8-3.8q0 1.3.5 1.8.5.6 1.2.6.8 0 1.3-.6.5-.5.5-1.7t-.6-1.7q-.5-.6-1.2-.6t-1.2.6q-.5.5-.5 1.6Zm6 .2q0-1.8 1-2.6.7-.7 1.9-.7 1.3 0 2 .8.9.9.9 2.4 0 1.2-.4 1.9-.3.6-1 1t-1.5.4q-1.3 0-2.1-.8-.8-.9-.8-2.4Zm1 0q0 1.1.6 1.7.5.6 1.3.6t1.3-.6q.5-.6.5-1.8 0-1.1-.5-1.7-.5-.6-1.3-.6t-1.3.6q-.6.6-.6 1.8Zm6 0q0-1.8 1-2.6.7-.7 1.9-.7 1.3 0 2 .8.9.9.9 2.4 0 1.2-.4 1.9-.3.6-1 1t-1.5.4q-1.3 0-2.1-.8-.8-.9-.8-2.4Zm1 0q0 1.1.6 1.7.5.6 1.3.6t1.3-.6q.5-.6.5-1.8 0-1.1-.5-1.7-.5-.6-1.3-.6t-1.3.6q-.6.6-.6 1.8Zm6.2 3.6 1 .1q0 .5.3.7.4.3 1.1.3.7 0 1.1-.3.4-.3.6-.8v-1.3q-.6.8-1.7.8-1.2 0-2-1-.6-.9-.6-2.2 0-.9.3-1.6.3-.8.9-1.2.6-.4 1.4-.4 1.1 0 1.9.9v-.8h1v5.4q0 1.5-.4 2-.3.7-.9 1-.6.4-1.6.4t-1.8-.5q-.7-.5-.6-1.5Zm.8-3.8q0 1.3.5 1.8.5.6 1.2.6.8 0 1.3-.6.5-.5.5-1.7t-.6-1.7q-.5-.6-1.2-.6t-1.2.6q-.5.5-.5 1.6Zm6.3 3.3v-8.6h1v8.6h-1Zm7.3-2h1.1q-.2 1-1 1.6t-1.7.5q-1.4 0-2.2-.8-.8-.9-.8-2.4 0-1.6.8-2.4.8-.9 2.1-.9t2 .8q.8.9.8 2.4v.3h-4.6q0 1 .6 1.6.5.5 1.3.5.5 0 1-.3.4-.3.6-1Zm-3.4-1.7h3.4q0-.8-.4-1.2-.5-.6-1.3-.6-.7 0-1.2.4-.5.5-.5 1.4Zm5.2 6v-.7h7v.8h-7Zm7.5-4.2 1-.2q.2.7.6 1 .4.3 1 .3.8 0 1.2-.3.3-.2.3-.7 0-.3-.3-.5-.2-.2-1-.4l-1.7-.5q-.4-.2-.7-.6-.2-.3-.2-.8l.2-.8.5-.6.7-.3.9-.1q.7 0 1.3.2.5.2.8.6.3.3.4 1h-1q-.1-.4-.5-.7-.3-.2-1-.2t-1 .2q-.3.2-.3.6l.1.3.5.3.9.3 1.6.5q.4.2.6.5.3.4.3 1 0 .5-.3 1-.3.4-.9.7-.6.2-1.3.2-1.2 0-1.9-.5-.6-.5-.8-1.5Zm7.4 4.3-.1-1h1.1l.4-.4.3-.8.1-.2-2.4-6.3h1.2l1.3 3.6.4 1.5.5-1.4 1.3-3.7h1l-2.3 6.4-.6 1.4q-.3.5-.7.7-.3.3-.8.3l-.7-.1Zm5-2.4V299h1v1q.7-1.1 2-1.1l1 .2q.5.2.7.5l.4.8v4.9h-1v-3.8q0-.7-.2-1 0-.3-.4-.5-.3-.2-.7-.2-.7 0-1.2.4-.5.5-.5 1.7v3.4h-1Zm11 0v-.8q-.5.9-1.6.9-.8 0-1.4-.4-.6-.4-1-1.2-.3-.7-.3-1.6 0-1 .3-1.7.3-.8 1-1.2.5-.4 1.3-.4.6 0 1 .2l.7.6v-3h1v8.6h-1Zm-3.2-3.1q0 1.2.5 1.8.5.5 1.1.5.7 0 1.2-.5.5-.6.5-1.8 0-1.2-.5-1.8-.5-.6-1.2-.6t-1.2.6q-.4.5-.4 1.8Zm6.3-4.3v-1.2h1v1.2h-1Zm0 7.4V299h1v6.3h-1Zm7-2.3 1 .1q-.1 1-.8 1.7-.7.6-1.7.6-1.3 0-2.1-.8-.8-.9-.8-2.4 0-1 .4-1.8.3-.7 1-1.1.7-.4 1.5-.4 1 0 1.6.5.7.5.9 1.5l-1 .1q-.2-.6-.6-1-.4-.2-.9-.2-.8 0-1.3.5-.5.6-.5 1.8 0 1.3.5 1.9.5.5 1.2.5t1-.3q.5-.4.6-1.2Zm6 1.5-1.1.7-1.2.2q-1 0-1.6-.5-.5-.5-.5-1.3l.2-.8q.2-.4.5-.6l.8-.4 1-.1 1.8-.4v-.3q0-.6-.3-.9-.4-.3-1.2-.3-.7 0-1 .2-.4.3-.6 1l-1-.2q.1-.6.4-1 .4-.5 1-.7.6-.2 1.4-.2.8 0 1.3.2t.7.5q.2.2.3.7v2.4q0 1.4.2 1.8l.2.8h-1l-.3-.8Zm0-2.4q-.7.3-1.8.4l-1 .3q-.2 0-.3.3-.2.2-.2.5 0 .4.3.7.4.3 1 .3t1-.3q.5-.3.8-.7l.1-1v-.5Zm5.3 2.2.1 1h-.8l-.9-.1q-.3-.2-.4-.5-.2-.3-.2-1.3V300h-.7v-.9h.7v-1.5l1-.6v2.1h1.2v.9H220v4.2l.2.2h.9Zm.7-6.4v-1.2h1v1.2h-1Zm0 7.4V299h1v6.3h-1Zm2.6-3.1q0-1.8 1-2.6.7-.7 1.9-.7 1.3 0 2 .8.9.9.9 2.4 0 1.2-.4 1.9-.3.6-1 1t-1.5.4q-1.3 0-2.1-.8-.8-.9-.8-2.4Zm1 0q0 1.1.6 1.7.5.6 1.3.6t1.3-.6q.5-.6.5-1.8 0-1.1-.5-1.7-.5-.6-1.3-.6t-1.3.6q-.6.6-.6 1.8Zm6.4 3V299h.9v1q.7-1.1 2-1.1l1 .2q.5.2.7.5l.4.8v4.9h-1v-3.8q0-.7-.2-1 0-.3-.4-.5-.3-.2-.7-.2-.7 0-1.2.4-.5.5-.5 1.7v3.4h-1Zm-59 16.6q-.9-1.1-1.5-2.6t-.6-3q0-1.4.4-2.7.6-1.5 1.7-3h.7l-1 1.8-.5 1.7q-.2 1-.2 2.2 0 2.8 1.7 5.6h-.7Zm6-3.3-1.1.7-1.2.2q-1 0-1.6-.5-.5-.5-.5-1.3l.2-.8q.2-.4.5-.6l.8-.4 1-.1 1.8-.4v-.3q0-.6-.3-.9-.4-.3-1.2-.3-.7 0-1 .2-.4.3-.6 1l-1-.2q.1-.6.4-1 .4-.5 1-.7.6-.2 1.4-.2.8 0 1.3.2t.7.5q.2.2.3.7v2.4q0 1.4.2 1.8l.2.8h-1l-.3-.8Zm0-2.4q-.7.3-1.8.4l-1 .3q-.2 0-.3.3-.2.2-.2.5 0 .4.3.7.4.3 1 .3t1-.3q.5-.3.8-.7l.1-1v-.5Zm7 3.2v-.8q-.6.9-1.7.9-.8 0-1.4-.4-.6-.4-1-1.2-.3-.7-.3-1.6 0-1 .3-1.7.3-.8 1-1.2.5-.4 1.3-.4.6 0 1 .2l.7.6v-3h1v8.6h-1Zm-3.3-3.1q0 1.2.5 1.7.5.6 1.1.6.7 0 1.2-.5.5-.6.5-1.8 0-1.2-.5-1.8-.5-.6-1.2-.6t-1.2.6q-.4.5-.4 1.8Zm8 3L188 313h1.1l1.4 3.8.4 1.2.4-1.2 1.3-3.8h1.1l-2.3 6.3h-1Zm7.5-2 1.1.2q-.2 1-1 1.5t-1.7.5q-1.4 0-2.2-.8-.8-.9-.8-2.4 0-1.6.8-2.4.8-.9 2.1-.9t2 .8q.8.9.8 2.4v.3h-4.6q0 1 .6 1.6.5.5 1.3.5.5 0 1-.3.4-.3.6-1Zm-3.4-1.6h3.4q0-.8-.4-1.2-.5-.6-1.3-.6-.7 0-1.2.4-.5.5-.5 1.4Zm6.1 3.7V313h1v1q.4-.7.7-.9l.6-.2q.6 0 1.1.3l-.3 1-.8-.2q-.4 0-.6.2-.3.2-.4.6-.2.5-.2 1.2v3.3h-1Zm6.4-1 .1 1h-.8l-.9-.1q-.3-.2-.4-.5-.2-.3-.2-1.3V314h-.7v-.9h.7v-1.5l1-.6v2.1h1.2v.9H206v4.2l.2.2h.9Zm.7-6.4v-1.2h1v1.2h-1Zm0 7.4V313h1v6.3h-1Zm2.5-1.9 1-.2q.2.7.6 1 .4.3 1 .3.8 0 1.2-.3.3-.3.3-.7 0-.3-.3-.5-.2-.2-1-.4l-1.7-.5q-.4-.2-.7-.6-.2-.3-.2-.8l.2-.8.5-.6.7-.3.9-.1q.7 0 1.3.2.5.2.8.6.3.3.4 1h-1q-.1-.4-.5-.7-.3-.2-1-.2t-1 .2q-.3.2-.3.6l.1.3.5.3.9.3 1.6.5q.4.2.6.5.3.4.3 1 0 .5-.3 1-.3.4-.9.7-.6.2-1.3.2-1.2 0-1.9-.5-.6-.5-.8-1.5Zm7.5-5.5v-1.2h1v1.2h-1Zm0 7.4V313h1v6.3h-1Zm3 0V313h.9v1q.7-1.1 2-1.1l1 .2q.5.2.7.5l.4.8v4.9h-1v-3.8q0-.7-.2-1 0-.3-.4-.5-.3-.2-.7-.2-.7 0-1.2.4-.5.5-.5 1.7v3.4h-1Zm6.8.5 1 .1q0 .5.3.7.4.3 1.1.3.7 0 1.1-.3.4-.3.6-.8v-1.4q-.6.9-1.7.9-1.2 0-2-1-.6-.9-.6-2.2 0-.9.3-1.6.3-.8.9-1.2.6-.4 1.4-.4 1.1 0 1.9.9v-.8h1v5.4q0 1.5-.4 2-.3.7-.9 1-.6.4-1.6.4t-1.8-.5q-.7-.5-.6-1.5Zm.8-3.8q0 1.3.5 1.8.5.6 1.2.6.8 0 1.3-.6.5-.5.5-1.7t-.6-1.7q-.5-.6-1.2-.6t-1.2.6q-.5.5-.5 1.6Zm7 5.8h-.7q1.7-2.8 1.7-5.6l-.2-2.2q-.2-1-.6-1.7l-1-1.8h.8q1.1 1.5 1.7 3 .4 1.3.4 2.7 0 1.5-.6 3t-1.5 2.6ZM147 335.5l-2-6.2h1.2l1 3.6.3 1.3.4-1.3 1-3.6h1l1 3.6.3 1.2.3-1.2 1.1-3.6h1l-2 6.2h-1l-1-3.7-.2-1-1.3 4.7H147Zm7.5-3.1q0-1.7 1-2.6.7-.7 1.9-.7 1.3 0 2 .9.9.8.9 2.3 0 1.2-.4 1.9-.3.7-1 1-.7.4-1.5.4-1.3 0-2.1-.8t-.8-2.4Zm1 0q0 1.2.6 1.8.5.6 1.3.6t1.3-.6q.5-.6.5-1.8 0-1.2-.5-1.8-.5-.6-1.3-.6t-1.3.6q-.6.6-.6 1.8Zm6.3 3.1v-6.2h1v1l.7-1 .6-.2q.6 0 1.1.4l-.3 1q-.4-.3-.8-.3t-.6.2q-.3.2-.4.6l-.2 1.2v3.3h-1Zm8 0v-.8q-.5 1-1.6 1-.8 0-1.4-.5-.6-.4-1-1.1-.3-.8-.3-1.7 0-1 .3-1.7.3-.8 1-1.2.5-.4 1.3-.4.6 0 1 .3.4.2.7.6v-3.1h1v8.6h-1Zm-3.2-3.1q0 1.2.5 1.8.5.6 1.1.6.7 0 1.2-.6t.5-1.7q0-1.3-.5-1.9-.5-.6-1.2-.6t-1.2.6q-.4.6-.4 1.8Zm6.3 5.5v-8.6h1v.8q.3-.5.7-.7.4-.3 1-.3.8 0 1.4.4.6.4 1 1.2.2.7.2 1.6 0 1-.3 1.8-.3.7-1 1.1-.6.4-1.4.4l-1-.2-.6-.5v3h-1Zm1-5.5q0 1.2.4 1.8.5.6 1.2.6t1.2-.6q.5-.6.5-1.9 0-1.2-.5-1.7-.5-.6-1.2-.6t-1.2.6q-.5.6-.5 1.8Zm6 3v-6.1h.9v1l.7-1 .6-.2q.6 0 1.1.4l-.3 1q-.4-.3-.8-.3t-.6.2q-.3.2-.4.6l-.2 1.2v3.3h-1Zm8.2-2 1.1.2q-.2 1-1 1.5t-1.7.5q-1.4 0-2.2-.8-.8-.9-.8-2.4t.8-2.4q.8-.9 2.1-.9t2 .9q.8.8.8 2.4v.3h-4.6q0 1 .6 1.5.5.6 1.3.6.5 0 1-.3.4-.3.6-1Zm-3.4-1.6h3.4q0-.8-.4-1.2-.5-.6-1.3-.6-.7 0-1.2.5t-.5 1.3Zm5.7 1.8 1-.1q.2.6.6 1 .4.3 1 .3.8 0 1.2-.3.3-.3.3-.7 0-.4-.3-.6l-1-.3-1.7-.5-.7-.6q-.2-.4-.2-.9 0-.4.2-.7.2-.4.5-.6l.7-.3q.4-.2.9-.2.7 0 1.3.3l.8.5q.3.4.4 1l-1 .1q-.1-.5-.5-.7-.3-.3-1-.3t-1 .2q-.3.3-.3.6l.1.4.5.2.9.3 1.6.5q.4.2.6.6.3.3.3.9 0 .5-.3 1-.3.4-.9.7-.6.2-1.3.2-1.2 0-1.9-.5-.6-.5-.8-1.5Zm7 0 1-.1q.2.6.6 1 .4.3 1 .3.8 0 1.2-.3.3-.3.3-.7 0-.4-.3-.6l-1-.3-1.7-.5-.7-.6q-.2-.4-.2-.9 0-.4.2-.7.2-.4.5-.6l.7-.3q.4-.2.9-.2.7 0 1.3.3l.8.5q.3.4.4 1l-1 .1q-.1-.5-.5-.7-.3-.3-1-.3t-1 .2q-.3.3-.3.6l.1.4.5.2.9.3 1.6.5q.4.2.6.6.3.3.3.9 0 .5-.3 1-.3.4-.9.7-.6.2-1.3.2-1.2 0-1.9-.5-.6-.5-.8-1.5Zm6.5 4.3v-.8h7v.8h-7Zm7.5-4.3 1-.1q.2.6.6 1 .4.3 1 .3.8 0 1.2-.3.3-.3.3-.7 0-.4-.3-.6l-1-.3-1.7-.5-.7-.6q-.2-.4-.2-.9 0-.4.2-.7.2-.4.5-.6l.7-.3q.4-.2.9-.2.7 0 1.3.3l.8.5q.3.4.4 1l-1 .1q-.1-.5-.5-.7-.3-.3-1-.3t-1 .2q-.3.3-.3.6l.1.4.5.2.9.3 1.6.5q.4.2.6.6.3.3.3.9 0 .5-.3 1-.3.4-.9.7-.6.2-1.3.2-1.2 0-1.9-.5-.6-.5-.8-1.5Zm9.8 1 .1.9h-.8l-.9-.1q-.3-.2-.4-.5-.2-.3-.2-1.2V330h-.7v-.8h.7v-1.6l1-.6v2.2h1.2v.8H220v4.2l.2.2h.9Zm4.7.1-1.1.7-1.2.2q-1 0-1.6-.5-.5-.5-.5-1.2 0-.5.2-.9t.5-.6l.8-.3 1-.2q1.2-.1 1.8-.4v-.2q0-.7-.3-1-.4-.3-1.2-.3-.7 0-1 .3-.4.2-.6.9l-1-.2q.1-.6.4-1 .4-.4 1-.6.6-.3 1.4-.3.8 0 1.3.2t.7.5l.3.7v2.4q0 1.5.2 1.8l.2.8h-1l-.3-.8Zm0-2.3-1.8.4q-.6 0-1 .2l-.3.3q-.2.2-.2.5 0 .4.3.7.4.3 1 .3t1-.3q.5-.2.8-.7l.1-1v-.4Zm5.3 2.2.1.9h-.8l-.9-.1q-.3-.2-.4-.5-.2-.3-.2-1.2V330h-.7v-.8h.7v-1.6l1-.6v2.2h1.2v.8H230v4.2l.2.2h.9Zm.2-1 1-.1q.2.6.6 1 .4.3 1 .3.8 0 1.2-.3.3-.3.3-.7 0-.4-.3-.6l-1-.3-1.7-.5-.7-.6q-.2-.4-.2-.9 0-.4.2-.7.2-.4.5-.6l.7-.3q.4-.2.9-.2.7 0 1.3.3l.8.5q.3.4.4 1l-1 .1q-.1-.5-.5-.7-.3-.3-1-.3t-1 .2q-.3.3-.3.6l.1.4.5.2.9.3 1.6.5q.4.2.6.6.3.3.3.9 0 .5-.3 1-.3.4-.9.7-.6.2-1.3.2-1.2 0-1.9-.5-.6-.5-.8-1.5ZM157.8 352q-.9-1-1.5-2.6-.6-1.4-.6-3 0-1.4.4-2.7.6-1.5 1.7-3h.7l-1 1.8-.5 1.7q-.2 1-.2 2.2 0 2.8 1.7 5.6h-.7Zm1.5-4.4 1-.1q.2.6.6 1 .4.3 1 .3.8 0 1.2-.3.3-.3.3-.7 0-.4-.3-.6l-1-.3-1.7-.5-.7-.6q-.2-.4-.2-.9 0-.4.2-.7.2-.4.5-.6l.7-.3q.4-.2.9-.2.7 0 1.3.3l.8.5q.3.4.4 1l-1 .1q-.1-.5-.5-.7-.3-.3-1-.3t-1 .2q-.3.3-.3.6l.1.4.5.2.9.3 1.6.5q.4.2.6.6.3.3.3.9 0 .5-.3 1-.3.4-.9.7-.6.2-1.3.2-1.2 0-1.9-.5-.6-.5-.8-1.5Zm7.5-5.5V341h1v1.2h-1Zm0 7.4v-6.2h1v6.2h-1Zm5.3-1 .1 1h-.8l-.9-.1q-.3-.2-.4-.5-.2-.3-.2-1.2V344h-.7v-.8h.7v-1.6l1-.6v2.2h1.2v.8H171v4.2l.2.2h.9Zm5-1 1 .1q-.2 1-1 1.5t-1.7.5q-1.4 0-2.2-.8-.8-.9-.8-2.4t.8-2.4q.8-.9 2.1-.9t2 .9q.8.8.8 2.4v.3h-4.6q0 1 .6 1.5.5.6 1.3.6.5 0 1-.3.4-.3.6-1Zm-3.5-1.7h3.4q0-.8-.4-1.2-.5-.6-1.3-.6-.7 0-1.2.5t-.5 1.3Zm5.2 6v-.7h7v.8h-7Zm12-3-1.1.6-1.2.2q-1 0-1.6-.5-.5-.5-.5-1.2 0-.5.2-.9t.5-.6l.8-.3 1-.2q1.2-.1 1.8-.4v-.2q0-.7-.3-1-.4-.3-1.2-.3-.7 0-1 .3-.4.2-.6.9l-1-.2q.1-.6.4-1 .4-.4 1-.6.6-.3 1.4-.3.8 0 1.3.2t.7.5l.3.7v2.4q0 1.5.2 1.8l.2.8h-1l-.3-.8Zm0-2.4-1.8.4q-.6 0-1 .2l-.3.3q-.2.2-.2.5 0 .4.3.7.4.3 1 .3t1-.3q.5-.2.8-.7l.1-1v-.4Zm3 3.1v-6.2h.9v.9q.7-1 2-1l1 .1q.5.2.7.6.3.3.4.7v4.9h-1v-3.8q0-.6-.2-1 0-.3-.4-.5-.3-.2-.7-.2-.7 0-1.2.5-.5.4-.5 1.6v3.4h-1Zm11-.8-1.1.7-1.2.2q-1 0-1.6-.5-.5-.5-.5-1.2 0-.5.2-.9t.5-.6l.8-.3 1-.2q1.2-.1 1.8-.4v-.2q0-.7-.3-1-.4-.3-1.2-.3-.7 0-1 .3-.4.2-.6.9l-1-.2q.1-.6.4-1 .4-.4 1-.6.6-.3 1.4-.3.8 0 1.3.2t.7.5l.3.7v2.4q0 1.5.2 1.8l.2.8h-1l-.3-.8Zm0-2.3-1.8.4q-.6 0-1 .2l-.3.3q-.2.2-.2.5 0 .4.3.7.4.3 1 .3t1-.3q.5-.2.8-.7l.1-1v-.4Zm3 3V341h1v8.6h-1Zm3 2.5-.2-1h1.1l.4-.3.3-.8.1-.3-2.4-6.2h1.2l1.3 3.6.4 1.4.5-1.4 1.3-3.6h1l-2.3 6.3-.6 1.4q-.3.5-.7.8-.3.2-.8.2l-.7-.1Zm7.3-3.3.1.9h-.8l-.9-.1q-.3-.2-.4-.5-.2-.3-.2-1.2V344h-.7v-.8h.7v-1.6l1-.6v2.2h1.2v.8H217v4.2l.2.2h.9Zm.7-6.5V341h1v1.2h-1Zm0 7.4v-6.2h1v6.2h-1Zm7-2.3 1 .2q-.1 1-.8 1.6-.7.6-1.7.6-1.3 0-2.1-.8t-.8-2.4q0-1 .4-1.7.3-.8 1-1.2.7-.4 1.5-.4 1 0 1.6.6.7.5.9 1.4l-1 .2q-.2-.7-.6-1-.4-.3-.9-.3-.8 0-1.3.6-.5.5-.5 1.8 0 1.2.5 1.8.5.6 1.2.6t1-.4q.5-.4.6-1.2Zm1.5.4 1-.1q.2.6.6 1 .4.3 1 .3.8 0 1.2-.3.3-.3.3-.7 0-.4-.3-.6l-1-.3-1.7-.5-.7-.6q-.2-.4-.2-.9 0-.4.2-.7.2-.4.5-.6l.7-.3q.4-.2.9-.2.7 0 1.3.3l.8.5q.3.4.4 1l-1 .1q-.1-.5-.5-.7-.3-.3-1-.3t-1 .2q-.3.3-.3.6l.1.4.5.2.9.3 1.6.5q.4.2.6.6.3.3.3.9 0 .5-.3 1-.3.4-.9.7-.6.2-1.3.2-1.2 0-1.9-.5-.6-.5-.8-1.5Zm8.1 4.4h-.7q1.7-2.8 1.7-5.6l-.2-2.2q-.2-.9-.6-1.7l-.9-1.7h.7q1.1 1.4 1.7 3 .4 1.2.4 2.6 0 1.6-.6 3-.6 1.5-1.5 2.6Zm-112.3 19.8.1 1h-.8q-.6 0-.9-.2-.3-.2-.4-.5-.2-.2-.2-1.2v-3.6h-.7v-.8h.7V365l1-.7v2.2h1.2v.8H122v4.2l.2.2.4.1h.5Zm1.8 1-2-6.3h1.2l1 3.6.3 1.3.4-1.3 1-3.6h1l1 3.6.3 1.2.3-1.2 1.1-3.6h1l-2 6.2h-1l-1-3.7-.2-1-1.3 4.7h-1Zm7.9-7.4V364h1v1.3h-1Zm0 7.3v-6.2h1v6.2h-1Zm5.3-1 .1 1-.8.1q-.6 0-.9-.2-.3-.2-.4-.5-.2-.2-.2-1.2v-3.6h-.7v-.8h.7V365l1-.7v2.2h1.2v.8H137v4.2l.2.2.4.1h.5Zm3 0 .1 1-.8.1q-.6 0-.9-.2-.3-.2-.4-.5-.2-.2-.2-1.2v-3.6h-.7v-.8h.7V365l1-.7v2.2h1.2v.8H140v4.2l.2.2.4.1h.5Zm5-1 1 .2q-.2 1-1 1.4t-1.7.6q-1.4 0-2.2-.9-.8-.8-.8-2.3 0-1.6.8-2.5.8-.8 2.1-.8t2 .8q.8.9.8 2.4v.3h-4.6q0 1 .6 1.6.5.5 1.3.5.5 0 1-.3.4-.3.6-1Zm-3.5-1.7h3.4q0-.8-.4-1.2-.5-.6-1.3-.6-.7 0-1.2.5t-.5 1.3Zm6.1 3.7v-6.2h1v1l.7-1 .6-.1q.6 0 1.1.3l-.3 1q-.4-.3-.8-.3t-.6.3q-.3.2-.4.5-.2.6-.2 1.3v3.2h-1Zm9 2.6q-.8-1.2-1.4-2.6-.6-1.5-.6-3t.4-2.8q.6-1.4 1.7-3h.7l-1 1.8-.5 1.7-.2 2.2q0 2.8 1.7 5.7h-.7Zm1.6-4.4 1-.2q.2.6.6 1 .4.3 1 .3.8 0 1.2-.3.3-.3.3-.7 0-.4-.3-.6l-1-.3-1.7-.5q-.4-.2-.7-.6-.2-.4-.2-.9 0-.4.2-.7.2-.4.5-.6l.7-.3.9-.1q.7 0 1.3.2l.8.5q.3.4.4 1l-1 .1q-.1-.4-.5-.7-.3-.3-1-.3t-1 .3q-.3.2-.3.5l.1.4.5.3.9.2 1.6.5q.4.2.6.6.3.4.3.9t-.3 1q-.3.5-.9.7-.6.3-1.3.3-1.2 0-1.9-.5-.6-.5-.8-1.5Zm7-1.3q0-1.7 1-2.5.8-.7 2-.7 1.3 0 2 .8.9.8.9 2.3 0 1.2-.4 2-.3.6-1 1t-1.5.4q-1.3 0-2.1-.9-.8-.8-.8-2.4Zm1.1 0q0 1.2.6 1.8.5.6 1.3.6t1.3-.6q.5-.6.5-1.8 0-1.2-.5-1.8-.5-.6-1.3-.6t-1.3.6q-.6.6-.6 1.8Zm10.4.8 1 .2q-.1 1-.8 1.7-.7.6-1.7.6-1.3 0-2.1-.9-.8-.8-.8-2.4 0-1 .4-1.7.3-.8 1-1.2.7-.3 1.5-.3 1 0 1.6.5.7.5.9 1.4l-1 .2q-.2-.6-.6-1-.4-.3-.9-.3-.8 0-1.3.6t-.5 1.8q0 1.3.5 1.8.5.6 1.2.6t1-.4q.5-.4.6-1.2Zm2-5V364h1v1.3h-1Zm0 7.3v-6.2h1v6.2h-1Zm7-.7-1.1.7-1.2.2q-1 0-1.6-.5-.5-.5-.5-1.3 0-.5.2-.8l.5-.7.8-.3 1-.2 1.8-.3v-.3q0-.6-.3-1-.4-.3-1.2-.3-.7 0-1 .3-.4.3-.6 1l-1-.2q.1-.7.4-1 .4-.5 1-.7.6-.2 1.4-.2.8 0 1.3.2.5.1.7.4l.3.7v2.4q0 1.5.2 1.9 0 .4.2.7h-1l-.3-.7Zm0-2.4-1.8.4-1 .2q-.2.1-.3.4-.2.2-.2.5 0 .4.3.7.4.2 1 .2t1-.2q.5-.3.8-.8l.1-1v-.4Zm3 3.1v-8.6h1v8.6h-1Zm2 2.4v-.7h7v.7h-7Zm8-2.4v-6.2h.9v.9q.3-.5.8-.8l1-.2q.8 0 1.2.2.5.3.6.8.8-1 2-1 .9 0 1.4.5.5.5.5 1.6v4.2h-1v-3.9q0-.6-.2-.9 0-.3-.3-.5l-.7-.1q-.6 0-1 .4-.5.4-.5 1.4v3.6h-1v-4q0-.7-.3-1-.3-.4-.8-.4t-.9.2q-.4.2-.5.7-.2.4-.2 1.3v3.2h-1Zm15.2-2 1.1.2q-.2.9-1 1.4t-1.7.6q-1.4 0-2.2-.9-.8-.8-.8-2.3 0-1.6.8-2.5.8-.8 2.1-.8t2 .8q.8.9.8 2.4v.3h-4.6q0 1 .6 1.6.5.5 1.3.5.5 0 1-.3.4-.3.6-1Zm-3.4-1.7h3.4q0-.8-.4-1.2-.5-.6-1.3-.6-.7 0-1.2.5t-.5 1.3Zm10.2 3.7v-.8q-.6 1-1.7 1-.8 0-1.4-.4-.6-.5-1-1.2-.3-.7-.3-1.7t.3-1.7q.3-.7 1-1.1.5-.4 1.3-.4.6 0 1 .2t.7.6v-3h1v8.5h-1Zm-3.3-3q0 1.1.5 1.7.5.6 1.1.6.7 0 1.2-.6.5-.5.5-1.7 0-1.3-.5-1.9-.5-.6-1.2-.6t-1.2.6q-.4.6-.4 1.8Zm6.3-4.3V364h1v1.3h-1Zm0 7.3v-6.2h1v6.2h-1Zm7-.7-1.1.7-1.2.2q-1 0-1.6-.5-.5-.5-.5-1.3 0-.5.2-.8l.5-.7.8-.3 1-.2 1.8-.3v-.3q0-.6-.3-1-.4-.3-1.2-.3-.7 0-1 .3-.4.3-.6 1l-1-.2q.1-.7.4-1 .4-.5 1-.7.6-.2 1.4-.2.8 0 1.3.2.5.1.7.4l.3.7v2.4q0 1.5.2 1.9 0 .4.2.7h-1l-.3-.7Zm0-2.4-1.8.4-1 .2q-.2.1-.3.4-.2.2-.2.5 0 .4.3.7.4.2 1 .2t1-.2q.5-.3.8-.8l.1-1v-.4Zm3.6 5.7h-.7q1.7-2.9 1.7-5.7l-.2-2.2-.6-1.7-1-1.7h.8q1.1 1.5 1.7 3 .4 1.2.4 2.6 0 1.6-.6 3-.6 1.5-1.5 2.7ZM92.8 395.2l-1.1.7-1.2.2q-1 0-1.6-.5-.5-.5-.5-1.3l.2-.8q.2-.4.5-.6l.8-.4 1-.1 1.8-.4v-.3q0-.6-.3-.9-.4-.3-1.2-.3-.7 0-1 .2-.4.3-.6 1l-1-.2q.1-.7.4-1 .4-.5 1-.7.6-.2 1.4-.2.8 0 1.3.2t.7.5q.2.2.3.7v2.3q0 1.5.2 2l.2.7h-1l-.3-.8Zm0-2.4q-.7.3-1.8.4l-1 .3q-.2 0-.3.3-.2.2-.2.5 0 .4.3.7.4.3 1 .3t1-.3q.5-.3.8-.7l.1-1v-.5Zm7 3.2v-.8q-.6.9-1.7.9-.8 0-1.4-.4-.6-.4-1-1.2-.3-.7-.3-1.7 0-.9.3-1.6.3-.8 1-1.2.5-.4 1.3-.4.6 0 1 .2l.7.6v-3h1v8.6h-1Zm-3.3-3.2q0 1.3.5 1.8.5.6 1.1.6.7 0 1.2-.5.5-.6.5-1.8 0-1.2-.5-1.8-.5-.6-1.2-.6t-1.2.6q-.4.5-.4 1.7Zm5.9 0q0-1.7 1-2.5.7-.7 1.9-.7 1.3 0 2 .8.9.9.9 2.4 0 1.2-.4 1.8-.3.7-1 1.1-.7.4-1.5.4-1.3 0-2.1-.8-.8-.9-.8-2.5Zm1 0q0 1.2.6 1.8.5.6 1.3.6t1.3-.6q.5-.6.5-1.8 0-1.1-.5-1.7-.5-.6-1.3-.6t-1.3.6q-.6.5-.6 1.7Zm7.3 3.2h-1v-8.6h1.1v3q.7-.8 1.7-.8.6 0 1 .2l1 .7.5 1 .1 1.3q0 1.5-.7 2.4-.8.9-2 .9-1 0-1.7-1v.9Zm0-3.2q0 1.1.3 1.6.5.8 1.4.8.7 0 1.2-.6t.5-1.8q0-1.2-.5-1.8-.5-.5-1.2-.5t-1.2.6q-.5.6-.5 1.7ZM121 394h1.1q-.2 1-1 1.6t-1.7.5q-1.4 0-2.2-.8-.8-.9-.8-2.4 0-1.6.8-2.4.8-.9 2.1-.9t2 .8q.8.9.8 2.4v.3h-4.6q0 1 .6 1.6.5.5 1.3.5.5 0 1-.3.4-.3.6-1Zm-3.4-1.7h3.4q0-.8-.4-1.2-.5-.6-1.3-.6-.7 0-1.2.4-.5.5-.5 1.4Zm5.2 6v-.7h7v.7h-7Zm12-3.1-1.1.7-1.2.2q-1 0-1.6-.5-.5-.5-.5-1.3l.2-.8q.2-.4.5-.6l.8-.4 1-.1 1.8-.4v-.3q0-.6-.3-.9-.4-.3-1.2-.3-.7 0-1 .2-.4.3-.6 1l-1-.2q.1-.7.4-1 .4-.5 1-.7.6-.2 1.4-.2.8 0 1.3.2t.7.5q.2.2.3.7v2.3q0 1.5.2 2l.2.7h-1l-.3-.8Zm0-2.4q-.7.3-1.8.4l-1 .3q-.2 0-.3.3-.2.2-.2.5 0 .4.3.7.4.3 1 .3t1-.3q.5-.3.8-.7l.1-1v-.5Zm7 3.2v-1q-.7 1.1-2 1.1l-1-.2-.7-.5-.3-.8v-4.9h1v4.6q.1.4.5.7.3.2.8.2l.8-.2q.5-.3.6-.7.2-.4.2-1.2v-3.4h1v6.3h-.9Zm7 0v-.8q-.6.9-1.7.9-.8 0-1.4-.4-.6-.4-1-1.2-.3-.7-.3-1.7 0-.9.3-1.6.3-.8 1-1.2.5-.4 1.3-.4.6 0 1 .2l.7.6v-3h1v8.6h-1Zm-3.3-3.2q0 1.3.5 1.8.5.6 1.1.6.7 0 1.2-.5.5-.6.5-1.8 0-1.2-.5-1.8-.5-.6-1.2-.6t-1.2.6q-.4.5-.4 1.7Zm6.3-4.2v-1.2h1v1.2h-1Zm0 7.4v-6.3h1v6.3h-1Zm7.2-2h1.1q-.2 1-1 1.6t-1.7.5q-1.4 0-2.2-.8-.8-.9-.8-2.4 0-1.6.8-2.4.8-.9 2.1-.9t2 .8q.8.9.8 2.4v.3h-4.6q0 1 .6 1.6.5.5 1.3.5.5 0 1-.3.4-.3.6-1Zm-3.4-1.7h3.4q0-.8-.4-1.2-.5-.6-1.3-.6-.7 0-1.2.4-.5.5-.5 1.4Zm6.2 3.7v-6.3h.9v1q.7-1.1 2-1.1l1 .2q.5.2.7.5l.4.8v4.9h-1v-3.8q0-.7-.2-1 0-.3-.4-.5-.3-.2-.7-.2-.7 0-1.2.4-.5.5-.5 1.7v3.4h-1Zm11-2.3 1 .1q-.1 1-.8 1.7-.7.6-1.7.6-1.3 0-2.1-.8-.8-.9-.8-2.4 0-1 .4-1.8.3-.8 1-1.1.7-.4 1.5-.4 1 0 1.6.5.7.5.9 1.5l-1 .1q-.2-.6-.6-1-.4-.2-.9-.2-.8 0-1.3.5-.5.6-.5 1.8 0 1.3.5 1.9.5.5 1.2.5t1-.4q.5-.3.6-1.1Zm6.2.3h1.1q-.2 1-1 1.6t-1.7.5q-1.4 0-2.2-.8-.8-.9-.8-2.4 0-1.6.8-2.4.8-.9 2.1-.9t2 .8q.8.9.8 2.4v.3h-4.6q0 1 .6 1.6.5.5 1.3.5.5 0 1-.3.4-.3.6-1Zm-3.4-1.7h3.4q0-.8-.4-1.2-.5-.6-1.3-.6-.7 0-1.2.4-.5.5-.5 1.4Zm5.2 6v-.7h7v.7h-7Zm8-2.3v-6.3h.9v1q.3-.6.8-.8.5-.3 1-.3.8 0 1.2.3.5.3.6.8.8-1.1 2-1.1.9 0 1.4.5.5.5.5 1.6v4.3h-1v-4q0-.6-.2-.9 0-.3-.3-.4-.3-.2-.7-.2-.6 0-1 .4-.5.5-.5 1.4v3.7h-1v-4q0-.8-.3-1.1-.3-.4-.8-.4t-.9.2q-.4.3-.5.7-.2.5-.2 1.3v3.3h-1Zm15-.8-1.1.7-1.2.2q-1 0-1.6-.5-.5-.5-.5-1.3l.2-.8q.2-.4.5-.6l.8-.4 1-.1 1.8-.4v-.3q0-.6-.3-.9-.4-.3-1.2-.3-.7 0-1 .2-.4.3-.6 1l-1-.2q.1-.7.4-1 .4-.5 1-.7.6-.2 1.4-.2.8 0 1.3.2t.7.5q.2.2.3.7v2.3q0 1.5.2 2l.2.7h-1l-.3-.8Zm0-2.4q-.7.3-1.8.4l-1 .3q-.2 0-.3.3-.2.2-.2.5 0 .4.3.7.4.3 1 .3t1-.3q.5-.3.8-.7l.1-1v-.5Zm3 3.2v-6.3h.9v1q.7-1.1 2-1.1l1 .2q.5.2.7.5l.4.8v4.9h-1v-3.8q0-.7-.2-1 0-.3-.4-.5-.3-.2-.7-.2-.7 0-1.2.4-.5.5-.5 1.7v3.4h-1Zm11-.8-1.1.7-1.2.2q-1 0-1.6-.5-.5-.5-.5-1.3l.2-.8q.2-.4.5-.6l.8-.4 1-.1 1.8-.4v-.3q0-.6-.3-.9-.4-.3-1.2-.3-.7 0-1 .2-.4.3-.6 1l-1-.2q.1-.7.4-1 .4-.5 1-.7.6-.2 1.4-.2.8 0 1.3.2t.7.5q.2.2.3.7v2.3q0 1.5.2 2l.2.7h-1l-.3-.8Zm0-2.4q-.7.3-1.8.4l-1 .3q-.2 0-.3.3-.2.2-.2.5 0 .4.3.7.4.3 1 .3t1-.3q.5-.3.8-.7l.1-1v-.5Zm2.8 3.7 1 .1q0 .5.3.7.4.3 1.1.3.7 0 1.1-.3.4-.3.6-.8v-1.4q-.6.9-1.7.9-1.2 0-2-1-.6-.9-.6-2.2 0-.9.3-1.6.3-.8.9-1.2.6-.4 1.4-.4 1.1 0 1.9.9v-.8h1v5.4q0 1.5-.4 2-.3.7-.9 1-.6.4-1.6.4t-1.8-.5q-.7-.5-.6-1.5Zm.8-3.8q0 1.3.5 1.8.5.6 1.2.6.8 0 1.3-.6.5-.5.5-1.7t-.6-1.7q-.5-.6-1.2-.6t-1.2.6q-.5.5-.5 1.6ZM232 394h1.1q-.2 1-1 1.6t-1.7.5q-1.4 0-2.2-.8-.8-.9-.8-2.4 0-1.6.8-2.4.8-.9 2.1-.9t2 .8q.8.9.8 2.4v.3h-4.6q0 1 .6 1.6.5.5 1.3.5.5 0 1-.3.4-.3.6-1Zm-3.4-1.7h3.4q0-.8-.4-1.2-.5-.6-1.3-.6-.7 0-1.2.4-.5.5-.5 1.4Zm6.1 3.7v-6.3h1v1q.4-.7.7-.9l.6-.2q.6 0 1.1.3l-.3 1-.8-.2q-.4 0-.6.2-.3.2-.4.6-.2.5-.2 1.2v3.3h-1Zm-62 16.5q-.8-1.1-1.4-2.6-.6-1.5-.6-3 0-1.4.4-2.7.6-1.5 1.7-3h.7l-1 1.8-.5 1.6-.2 2.2q0 2.9 1.7 5.7h-.7Zm6.1-3.3-1.1.7-1.2.2q-1 0-1.6-.5-.5-.5-.5-1.3l.2-.8q.2-.4.5-.6l.8-.4 1-.1 1.8-.4v-.3q0-.6-.3-.9-.4-.3-1.2-.3-.7 0-1 .2-.4.3-.6 1l-1-.2q.1-.7.4-1 .4-.5 1-.7.6-.2 1.4-.2.8 0 1.3.2t.7.5q.2.2.3.7v2.3q0 1.5.2 2l.2.7h-1l-.3-.8Zm0-2.4q-.7.3-1.8.4l-1 .3q-.2 0-.3.3-.2.2-.2.5 0 .4.3.7.4.3 1 .3t1-.3q.5-.3.8-.7l.1-1v-.5Zm7 3.2v-.8q-.6.9-1.7.9-.8 0-1.4-.4-.6-.4-1-1.2-.3-.7-.3-1.7 0-.9.3-1.6.3-.8 1-1.2.5-.4 1.3-.4.6 0 1 .2l.7.6v-3h1v8.6h-1Zm-3.3-3.2q0 1.3.5 1.8.5.6 1.1.6.7 0 1.2-.5.5-.6.5-1.8 0-1.2-.5-1.8-.5-.6-1.2-.6t-1.2.6q-.4.5-.4 1.7Zm8 3.2-2.4-6.3h1.1l1.4 3.8.4 1.2.4-1.2 1.3-3.8h1.1l-2.3 6.3h-1Zm7.5-2h1.1q-.2 1-1 1.6t-1.7.5q-1.4 0-2.2-.8-.8-.9-.8-2.4 0-1.6.8-2.4.8-.9 2.1-.9t2 .8q.8.9.8 2.4v.3h-4.6q0 1 .6 1.6.5.5 1.3.5.5 0 1-.3.4-.3.6-1Zm-3.4-1.7h3.4q0-.8-.4-1.2-.5-.6-1.3-.6-.7 0-1.2.4-.5.5-.5 1.4Zm6.1 3.7v-6.3h1v1q.4-.7.7-.9l.6-.2q.6 0 1.1.3l-.3 1-.8-.2q-.4 0-.6.2-.3.2-.4.6-.2.5-.2 1.2v3.3h-1Zm6.4-1 .1 1h-.8l-.9-.1q-.3-.2-.4-.5-.2-.3-.2-1.3v-3.5h-.7v-.9h.7v-1.5l1-.6v2.1h1.2v.9H206v4.2l.2.2h.9Zm.7-6.4v-1.2h1v1.2h-1Zm0 7.4v-6.3h1v6.3h-1Zm2.5-1.9 1-.2q.2.7.6 1 .4.3 1 .3.8 0 1.2-.3.3-.3.3-.7 0-.3-.3-.5-.2-.2-1-.4l-1.7-.5q-.4-.2-.7-.6l-.2-.8.2-.8.5-.6.7-.3.9-.1q.7 0 1.3.2.5.2.8.6.3.3.4 1h-1q-.1-.4-.5-.7-.3-.2-1-.2t-1 .2q-.3.2-.3.6l.1.3.5.3.9.3 1.6.5q.4.2.6.5.3.4.3 1 0 .5-.3 1-.3.4-.9.6-.6.3-1.3.3-1.2 0-1.9-.5-.6-.5-.8-1.5Zm7.5-5.5v-1.2h1v1.2h-1Zm0 7.4v-6.3h1v6.3h-1Zm3 0v-6.3h.9v1q.7-1.1 2-1.1l1 .2q.5.2.7.5l.4.8v4.9h-1v-3.8q0-.7-.2-1 0-.3-.4-.5-.3-.2-.7-.2-.7 0-1.2.4-.5.5-.5 1.7v3.4h-1Zm6.8.5 1 .1q0 .5.3.7.4.3 1.1.3.7 0 1.1-.3.4-.3.6-.8v-1.4q-.6.9-1.7.9-1.2 0-2-1-.6-.9-.6-2.2 0-.9.3-1.6.3-.8.9-1.2.6-.4 1.4-.4 1.1 0 1.9.9v-.8h1v5.4q0 1.5-.4 2-.3.7-.9 1-.6.4-1.6.4t-1.8-.5q-.7-.5-.6-1.5Zm.8-3.8q0 1.3.5 1.8.5.6 1.2.6.8 0 1.3-.6.5-.5.5-1.7t-.6-1.7q-.5-.6-1.2-.6t-1.2.6q-.5.5-.5 1.6Zm7 5.8h-.7q1.7-2.8 1.7-5.7l-.2-2.1q-.2-1-.6-1.7l-1-1.8h.8q1.1 1.5 1.7 3 .4 1.3.4 2.6 0 1.6-.6 3.1t-1.5 2.6Zm-108.7 20.7V427h1v1l.7-1 .6-.2q.6 0 1.1.4l-.3 1q-.4-.3-.8-.3t-.6.2q-.3.2-.4.6l-.2 1.2v3.3h-1Zm8.1 0v-1q-.7 1.1-2 1.1l-1-.2-.7-.5-.3-.8V427h1v4.5q.1.4.5.7.3.2.8.2l.8-.2q.5-.3.6-.7.2-.4.2-1.2V427h1v6.2h-.9Zm4 0h-1v-8.6h1v3q.7-.8 1.7-.8.6 0 1 .3.6.2 1 .6l.5 1 .1 1.3q0 1.6-.7 2.5-.8.8-2 .8-1 0-1.7-.9v.8Zm0-3.2q0 1.1.2 1.6.5.9 1.4.9.7 0 1.2-.6t.5-1.8q0-1.3-.5-1.8-.5-.6-1.2-.6t-1.2.6q-.5.6-.5 1.7Zm6-4.2v-1.2h1v1.2h-1Zm0 7.4V427h1v6.2h-1Zm7-2.3 1 .1q-.1 1.1-.8 1.7-.7.6-1.7.6-1.3 0-2.1-.8t-.8-2.4q0-1 .4-1.8.3-.7 1-1 .7-.5 1.5-.5 1 0 1.6.5.7.5.9 1.5l-1 .2q-.2-.7-.6-1-.4-.3-.9-.3-.8 0-1.3.6-.5.5-.5 1.8 0 1.2.5 1.8.5.6 1.2.6t1-.4q.5-.4.6-1.2Zm1.6-.8q0-1.8 1-2.6.7-.7 1.9-.7 1.3 0 2 .9.9.8.9 2.3 0 1.2-.4 1.9-.3.7-1 1-.7.4-1.5.4-1.3 0-2.1-.8t-.8-2.4Zm1 0q0 1.2.6 1.8.5.6 1.3.6t1.3-.6q.5-.6.5-1.8 0-1.2-.5-1.8-.5-.6-1.3-.6t-1.3.6q-.6.6-.6 1.8Zm6.4 3V427h.9v.8q.7-1 2-1l1 .2q.5.2.7.6.3.3.4.7v4.9h-1v-3.8q0-.6-.2-1 0-.3-.4-.5-.3-.2-.7-.2-.7 0-1.2.5-.5.4-.5 1.6v3.4h-1Zm12 2.6q-.9-1-1.5-2.6-.6-1.4-.6-3 0-1.4.4-2.7.6-1.5 1.7-3h.7l-1 1.8-.5 1.7q-.2 1-.2 2.2 0 2.8 1.7 5.6h-.7Zm6-3.3-1.1.7-1.2.2q-1 0-1.6-.5-.5-.5-.5-1.3l.2-.8q.2-.4.5-.6l.8-.3 1-.2q1.2-.1 1.8-.4v-.2q0-.7-.3-1-.4-.3-1.2-.3-.7 0-1 .3-.4.2-.6.9l-1-.2q.1-.6.4-1l1-.7q.6-.2 1.4-.2.8 0 1.3.2t.7.5l.3.7v2.4q0 1.4.2 1.8l.2.8h-1l-.3-.8Zm0-2.3-1.8.4q-.6 0-1 .2l-.3.3q-.2.2-.2.5 0 .4.3.7.4.3 1 .3t1-.3q.5-.2.8-.7l.1-1v-.4Zm7 3v-.7q-.6 1-1.7 1-.8 0-1.4-.5-.6-.4-1-1.1-.3-.8-.3-1.7 0-1 .3-1.7.3-.8 1-1.2.5-.4 1.3-.4.6 0 1 .3.4.2.7.6v-3.1h1v8.6h-1Zm-3.3-3q0 1.2.5 1.8.5.6 1.1.6.7 0 1.2-.6t.5-1.7q0-1.3-.5-1.9-.5-.6-1.2-.6t-1.2.6q-.4.5-.4 1.8Zm8 3L188 427h1.1l1.4 3.7.4 1.2.4-1.1 1.3-3.8h1.1l-2.3 6.2h-1Zm7.5-2 1.1.2q-.2 1-1 1.5t-1.7.5q-1.4 0-2.2-.8-.8-.9-.8-2.4t.8-2.4q.8-.9 2.1-.9t2 .9q.8.8.8 2.4v.2h-4.6q0 1 .6 1.6.5.6 1.3.6.5 0 1-.3.4-.4.6-1Zm-3.4-1.6h3.4q0-.8-.4-1.2-.5-.6-1.3-.6-.7 0-1.2.5t-.5 1.3Zm6.1 3.7V427h1v1l.7-1 .6-.2q.6 0 1.1.4l-.3 1q-.4-.3-.8-.3t-.6.2q-.3.2-.4.6l-.2 1.2v3.3h-1Zm6.4-1 .1 1h-.8l-.9-.1q-.3-.2-.4-.5-.2-.3-.2-1.2v-3.6h-.7v-.8h.7v-1.6l1-.6v2.2h1.2v.8H206v4.2l.2.2h.9Zm.7-6.4v-1.2h1v1.2h-1Zm0 7.4V427h1v6.2h-1Zm2.5-1.9 1-.1q.2.6.6 1 .4.3 1 .3.8 0 1.2-.3.3-.3.3-.7 0-.4-.3-.6l-1-.4q-1.2-.2-1.7-.5l-.7-.5q-.2-.4-.2-.9l.2-.8.5-.5.7-.3q.4-.2.9-.2.7 0 1.3.2l.8.6q.3.4.4 1l-1 .1q-.1-.5-.5-.7-.3-.3-1-.3t-1 .2q-.3.3-.3.6l.1.4.5.2.9.3 1.6.5q.4.2.6.6.3.3.3.9 0 .5-.3 1-.3.4-.9.7-.6.2-1.3.2-1.2 0-1.9-.5-.6-.5-.8-1.5Zm7.5-5.5v-1.2h1v1.2h-1Zm0 7.4V427h1v6.2h-1Zm3 0V427h.9v.8q.7-1 2-1l1 .2q.5.2.7.6.3.3.4.7v4.9h-1v-3.8q0-.6-.2-1 0-.3-.4-.5-.3-.2-.7-.2-.7 0-1.2.5-.5.4-.5 1.6v3.4h-1Zm6.8.5 1 .2q0 .4.3.6.4.3 1.1.3.7 0 1.1-.3.4-.2.6-.8v-1.3q-.6.8-1.7.8-1.2 0-2-1-.6-.9-.6-2.2 0-.8.3-1.6t.9-1.2q.6-.4 1.4-.4 1.1 0 1.9 1v-.8h1v5.3q0 1.5-.4 2.1-.3.6-.9 1-.6.3-1.6.3t-1.8-.5q-.7-.5-.6-1.5Zm.8-3.7q0 1.2.5 1.8.5.5 1.2.5.8 0 1.3-.5.5-.6.5-1.8 0-1.1-.6-1.7-.5-.6-1.2-.6t-1.2.6q-.5.5-.5 1.7Zm7 5.7h-.7q1.7-2.8 1.7-5.6l-.2-2.2q-.2-.9-.6-1.7l-1-1.7h.8q1.1 1.4 1.7 3 .4 1.2.4 2.6 0 1.6-.6 3-.6 1.5-1.5 2.6Zm0 26.7q0-1.6.4-2.5.3-1 .9-1.4.6-.5 1.6-.5.6 0 1.2.3.5.2.8.8.4.5.6 1.2.2.8.2 2 0 1.6-.4 2.5-.3 1-.9 1.4-.6.5-1.5.5-1.3 0-2-.9-.8-1-.8-3.4Zm1.1 0q0 2 .5 2.8.5.7 1.3.7.7 0 1.2-.7t.5-2.8q0-2.2-.5-2.8-.5-.8-1.3-.8-.7 0-1.1.7-.6.7-.6 2.9Zm6.2-2.3q0-1 .4-1.6.5-.6 1.4-.6.8 0 1.3.5.5.6.5 1.7t-.5 1.7q-.5.6-1.3.6t-1.3-.6q-.5-.6-.5-1.7Zm1.8-1.5q-.4 0-.7.3-.2.4-.2 1.3 0 .8.2 1.1.3.4.7.4.4 0 .6-.4.3-.3.3-1.2 0-.8-.3-1.2-.2-.3-.6-.3Zm0 8.3 4.7-9h.9l-4.7 9h-1Zm3.7-2.3q0-1 .5-1.6.4-.6 1.3-.6.8 0 1.4.6.5.5.5 1.6t-.5 1.7q-.6.6-1.4.6-.7 0-1.3-.6-.5-.5-.5-1.7Zm1.9-1.5q-.5 0-.7.3-.3.4-.3 1.3 0 .8.3 1.1.3.4.7.4.3 0 .6-.4.3-.3.3-1.2 0-.8-.3-1.2-.3-.3-.6-.3Zm70.3 2.5v1h-5.7l.1-.7q.2-.6.7-1.2l1.4-1.3q1.4-1.1 1.9-1.8t.5-1.3q0-.6-.5-1-.4-.5-1.1-.5-.8 0-1.2.5-.5.5-.5 1.3l-1-.1q0-1.3.7-1.9.8-.6 2-.6t2 .7q.7.6.7 1.7l-.2 1q-.2.5-.7 1-.5.6-1.7 1.5l-1.2 1.1-.4.6h4.2Zm1.4-3.2q0-1.6.4-2.5.3-1 .9-1.4.6-.5 1.5-.5.7 0 1.2.3.6.2 1 .8l.5 1.2.1 2q0 1.6-.3 2.5-.3 1-.9 1.4-.6.5-1.6.5-1.2 0-2-.9-.8-1-.8-3.4Zm1.1 0q0 2 .5 2.8.5.7 1.2.7.8 0 1.3-.7t.5-2.8q0-2.2-.5-2.8-.5-.8-1.3-.8-.7 0-1.1.7-.6.7-.6 2.9Zm6.1-2.3q0-1 .5-1.6.5-.6 1.3-.6.9 0 1.4.5.5.6.5 1.7t-.5 1.7q-.6.6-1.3.6-.8 0-1.3-.6-.6-.6-.6-1.7Zm1.9-1.5q-.4 0-.7.3-.2.4-.2 1.3 0 .8.2 1.1.3.4.7.4.4 0 .6-.4.3-.3.3-1.2 0-.8-.3-1.2-.2-.3-.6-.3Zm0 8.3 4.7-9h.8l-4.6 9h-1Zm3.7-2.3q0-1 .4-1.6.5-.6 1.4-.6.8 0 1.4.6.5.5.5 1.6t-.6 1.7q-.5.6-1.3.6t-1.3-.6q-.5-.5-.5-1.7Zm1.8-1.5q-.4 0-.6.3-.3.4-.3 1.3 0 .8.3 1.1.2.4.6.4t.7-.4q.3-.3.3-1.2 0-.8-.3-1.2-.3-.3-.7-.3Zm64.7 3.5v-2h-3.7v-1l4-5.6h.8v5.6h1.1v1h-1.1v2h-1Zm0-3v-3.9l-2.7 3.9h2.7Zm3.6-1.2q0-1.6.3-2.5.4-1 1-1.4.6-.5 1.5-.5.7 0 1.2.3.6.2 1 .8l.4 1.2q.2.8.2 2 0 1.6-.3 2.5-.3 1-1 1.4-.5.5-1.5.5-1.2 0-2-.9-.8-1-.8-3.4Zm1.1 0q0 2 .5 2.8.5.7 1.2.7.8 0 1.2-.7.5-.7.5-2.8 0-2.2-.5-2.8-.4-.8-1.2-.8-.7 0-1.1.7-.6.7-.6 2.9Zm6.1-2.3q0-1 .5-1.6.5-.6 1.3-.6t1.4.5q.5.6.5 1.7t-.5 1.7q-.6.6-1.4.6-.7 0-1.3-.6-.5-.6-.5-1.7Zm1.9-1.5q-.4 0-.7.3-.2.4-.2 1.3 0 .8.2 1.1.3.4.7.4.4 0 .6-.4.3-.3.3-1.2 0-.8-.3-1.2-.2-.3-.6-.3Zm0 8.3 4.7-9h.8l-4.7 9h-.8Zm3.7-2.3q0-1 .4-1.6.5-.6 1.4-.6.8 0 1.3.6.6.5.6 1.6t-.6 1.7q-.5.6-1.3.6t-1.3-.6q-.5-.5-.5-1.7Zm1.8-1.5q-.4 0-.6.3-.3.4-.3 1.3 0 .8.3 1.1.2.4.6.4.4 0 .7-.4t.2-1.2q0-.8-.2-1.2-.3-.3-.7-.3Zm66.8-3h-1l-.5-.8q-.4-.5-1-.5-.5 0-1 .3l-.7 1q-.3.8-.3 2 .4-.5 1-.8.5-.3 1.1-.3 1 0 1.8.8.7.8.7 2 0 .8-.3 1.5-.4.7-1 1-.6.4-1.3.4-1.4 0-2.2-1-.8-.9-.8-3.1 0-2.5.9-3.6.8-1 2.1-1 1 0 1.7.5.7.6.8 1.6Zm-4.3 3.7q0 .6.2 1 .2.5.6.8.5.3 1 .3.6 0 1-.6.6-.5.6-1.4 0-1-.5-1.4-.5-.5-1.2-.5t-1.2.5q-.5.5-.5 1.3Zm5.8-1.4q0-1.6.3-2.5.3-1 1-1.4.6-.5 1.5-.5.7 0 1.2.3.5.2.9.8l.5 1.2q.2.8.2 2 0 1.6-.3 2.5-.3 1-1 1.4-.5.5-1.5.5-1.2 0-2-.9-.8-1-.8-3.4Zm1 0q0 2 .6 2.8.5.7 1.2.7t1.2-.7q.5-.7.5-2.8 0-2.2-.5-2.8-.5-.8-1.2-.8t-1.2.7q-.5.7-.5 2.9Zm6.2-2.3q0-1 .5-1.6.4-.6 1.3-.6.8 0 1.4.5.5.6.5 1.7t-.6 1.7q-.5.6-1.3.6t-1.3-.6q-.5-.6-.5-1.7Zm1.8-1.5q-.3 0-.6.3-.3.4-.3 1.3 0 .8.3 1.1.3.4.6.4.5 0 .7-.4.3-.3.3-1.2 0-.8-.3-1.2-.3-.3-.7-.3Zm0 8.3 4.7-9h1l-4.8 9h-.9Zm3.8-2.3q0-1 .4-1.6.5-.6 1.4-.6.8 0 1.3.6.6.5.6 1.6t-.6 1.7q-.5.6-1.3.6t-1.3-.6q-.5-.5-.5-1.7Zm1.8-1.5q-.4 0-.7.3-.2.4-.2 1.3 0 .8.3 1.1.2.4.6.4.4 0 .7-.4t.2-1.2q0-.8-.2-1.2-.3-.3-.7-.3Zm63-1.2q-.7-.2-1-.6-.4-.5-.4-1.1 0-1 .7-1.6.7-.6 1.8-.6t1.8.6q.7.7.7 1.6 0 .6-.3 1-.3.5-1 .7.8.3 1.2.9.4.5.4 1.3 0 1.1-.7 1.9-.8.7-2 .7-1.4 0-2.1-.7-.8-.8-.8-1.9 0-.8.4-1.4.4-.6 1.2-.8Zm-.3-1.8q0 .7.4 1 .4.4 1 .4t1-.3q.4-.4.4-1t-.4-1q-.4-.4-1-.4t-1 .4q-.4.4-.4 1Zm-.3 4q0 .5.2.9t.6.6q.4.3 1 .3.7 0 1.2-.5t.5-1.2q0-.8-.5-1.3t-1.3-.5q-.8 0-1.2.5-.5.5-.5 1.2Zm5.9-1.7q0-1.6.3-2.5.3-1 1-1.4.6-.5 1.5-.5.7 0 1.2.3.5.2.9.8l.5 1.2q.2.8.2 2 0 1.6-.3 2.5-.3 1-1 1.4-.6.5-1.5.5-1.2 0-2-.9-.8-1-.8-3.4Zm1 0q0 2 .6 2.8.5.7 1.2.7t1.2-.7q.5-.7.5-2.8 0-2.2-.5-2.8-.5-.8-1.2-.8t-1.2.7q-.5.7-.5 2.9Zm6.2-2.3q0-1 .5-1.6.4-.6 1.3-.6.8 0 1.3.5.6.6.6 1.7t-.6 1.7q-.5.6-1.3.6t-1.3-.6q-.5-.6-.5-1.7Zm1.8-1.5q-.4 0-.6.3-.3.4-.3 1.3 0 .8.3 1.1.2.4.6.4.4 0 .7-.4.3-.3.3-1.2 0-.8-.3-1.2-.3-.3-.7-.3Zm0 8.3 4.7-9h.9l-4.7 9h-.9Zm3.7-2.3q0-1 .5-1.6.5-.6 1.4-.6.8 0 1.3.6.5.5.5 1.6t-.5 1.7q-.5.6-1.3.6t-1.3-.6q-.5-.5-.5-1.7Zm1.9-1.5q-.4 0-.7.3-.2.4-.2 1.3 0 .8.2 1.1.3.4.7.4.4 0 .7-.4t.2-1.2q0-.8-.3-1.2-.2-.3-.6-.3Z"/><path fill="#a8caba" d="M231.8 93.2a1 1 0 0 1 1-1h10a1 1 0 0 1 1 1v10a1 1 0 0 1-1 1h-10a1 1 0 0 1-1-1Z"/><path fill="#838689" d="M256.7 102.2v-.8q-.6 1-1.8 1-.7 0-1.3-.5-.7-.4-1-1.2-.3-.7-.3-1.6 0-1 .3-1.7.3-.8 1-1.2.5-.4 1.3-.4.6 0 1 .2l.7.7v-3.1h1v8.6h-1Zm-3.3-3.1q0 1.2.4 1.8.5.5 1.2.5t1.2-.5q.5-.6.5-1.7 0-1.3-.5-2-.5-.5-1.2-.5t-1.2.6q-.4.5-.4 1.8Zm10.5 1 1 .2q-.2 1-.9 1.5t-1.7.5q-1.4 0-2.2-.8-.8-.9-.8-2.4 0-1.6.8-2.4.8-.9 2-.9 1.3 0 2.1.9.8.8.8 2.3v.3h-4.6q0 1 .6 1.6.5.5 1.3.5.5 0 1-.3.4-.3.6-1Zm-3.5-1.6h3.5q0-.8-.4-1.2-.5-.6-1.3-.6-.7 0-1.2.5-.5.4-.6 1.3Zm5.8 1.8 1-.1q.2.6.5.9.4.3 1.2.3.7 0 1-.2.4-.3.4-.8 0-.3-.3-.5-.2-.2-1-.4l-1.7-.5q-.4-.2-.7-.6-.2-.3-.2-.8l.2-.8.5-.6.7-.3h.9l1.3.1q.5.2.8.6.3.3.3 1h-1q0-.4-.4-.7-.3-.2-1-.2t-1 .2q-.3.3-.3.6l.1.3.4.3 1 .3 1.5.5q.5.2.7.5.3.4.3 1 0 .5-.3 1-.3.4-1 .7-.5.2-1.2.2-1.2 0-1.9-.5-.6-.5-.8-1.5Zm7.4 1.9v-8.6h1.1v4.9l2.5-2.6h1.4l-2.4 2.3 2.6 4h-1.3l-2-3.2-.8.7v2.5h-1Zm8.3-1 .2 1h-.8l-.9-.1q-.3-.2-.4-.5-.2-.3-.2-1.3v-3.5h-.7v-.9h.7v-1.5l1-.6v2.1h1.1v.9h-1v4.2l.2.2h.8Zm.4-2.1q0-1.8 1-2.6.7-.7 1.9-.7t2 .9q.9.8.9 2.3 0 1.2-.4 1.9-.3.6-1 1t-1.5.4q-1.3 0-2.1-.8-.8-.9-.8-2.4Zm1 0q0 1.1.6 1.7.5.6 1.3.6t1.3-.6q.5-.6.5-1.8 0-1.1-.5-1.7-.6-.6-1.3-.6-.8 0-1.3.6-.6.6-.6 1.8Zm6.3 5.5v-8.7h1v.8q.3-.4.8-.7.4-.2 1-.2.8 0 1.4.4.6.4 1 1.2.2.7.2 1.6 0 1-.3 1.7-.3.8-1 1.2-.6.4-1.4.4l-1-.2-.6-.6v3h-1Zm1-5.5q0 1.2.5 1.8.5.5 1.2.5t1.2-.6q.5-.6.5-1.8 0-1.2-.5-1.8-.5-.6-1.2-.6t-1.2.7q-.5.6-.5 1.8Z"/><path fill="#62718b" d="M311.9 93.2a1 1 0 0 1 1-1h10a1 1 0 0 1 1 1v10a1 1 0 0 1-1 1h-10a1 1 0 0 1-1-1Z"/><path fill="#838689" d="M332.6 102.2v-6.3h1v1q.3-.5.8-.8.5-.3 1-.3.8 0 1.2.3.5.3.6.8.8-1 2-1 .9 0 1.4.4.5.5.5 1.6v4.3h-1v-4q0-.6-.2-.9 0-.2-.3-.4t-.7-.2q-.6 0-1 .5-.5.4-.5 1.4v3.6h-1v-4q0-.8-.3-1.1-.3-.4-.9-.4l-.8.2q-.4.3-.5.7-.2.5-.2 1.3v3.3h-1Zm10.7-3.1q0-1.8 1-2.6.7-.7 1.9-.7t2 .9q.9.8.9 2.3 0 1.2-.4 1.9-.3.6-1 1t-1.5.4q-1.3 0-2.1-.8-.8-.9-.8-2.4Zm1 0q0 1.1.5 1.7.6.6 1.4.6.8 0 1.3-.6t.5-1.8q0-1.1-.5-1.7-.6-.6-1.3-.6-.8 0-1.3.6-.6.6-.6 1.8Zm7.3 3h-1v-8.5h1v3q.8-.8 1.8-.8.6 0 1 .2l1 .7q.3.4.4 1 .2.6.2 1.3 0 1.6-.8 2.4t-1.9 1q-1 0-1.7-1v.8Zm0-3q0 1 .3 1.5.5.8 1.4.8.6 0 1.1-.6.6-.6.6-1.8 0-1.2-.5-1.8-.5-.5-1.2-.5t-1.2.6q-.5.6-.5 1.7Zm6-4.3v-1.2h1.1v1.2h-1Zm0 7.4v-6.3h1.1v6.3h-1Zm3 0v-8.6h1v8.6h-1Zm7.3-2h1q-.2 1-.9 1.6-.7.5-1.7.5-1.4 0-2.2-.8-.8-.9-.8-2.4 0-1.6.8-2.4.8-.9 2-.9 1.3 0 2.1.9.8.8.8 2.3v.3h-4.6q0 1 .6 1.6.5.5 1.3.5.5 0 1-.3.4-.3.6-1Zm-3.5-1.7h3.5q0-.8-.4-1.2-.5-.6-1.3-.6-.7 0-1.2.5-.5.4-.6 1.3ZM215.2 70.7l-2.7-10h1.4l1.5 6.5.4 2 .5-1.8 1.9-6.7h1.6l1.4 5q.6 2 .8 3.6l.5-2.2 1.6-6.4h1.3l-2.7 10h-1.3l-2.1-7.6-.3-1.2-.3 1.2-2.2 7.6h-1.3Zm16-2.3 1.3.1q-.3 1.1-1.1 1.8-.8.6-2 .6-1.7 0-2.6-1-1-1-1-2.8 0-1.8 1-2.8 1-1 2.5-1 1.4 0 2.3 1 1 1 1 2.8v.3H227q.1 1.2.7 1.8.6.7 1.5.7.7 0 1.2-.4t.7-1.1Zm-4-2h4q0-1-.4-1.4-.6-.7-1.5-.7t-1.5.6q-.5.5-.6 1.5Zm8.2 4.3h-1.1v-10h1.2v3.5q.8-1 2-1 .7 0 1.3.3l1 .8.5 1.2q.3.7.3 1.5 0 1.8-1 2.9-.9 1-2.2 1-1.3 0-2-1.1v.9Zm0-3.7q0 1.3.4 1.9.5 1 1.5 1 .8 0 1.4-.7.6-.7.6-2.1 0-1.5-.6-2.1-.5-.7-1.3-.7t-1.4.7q-.6.7-.6 2Zm10 3.7 3.8-10h1.4l4.1 10h-1.5l-1.2-3h-4.2l-1 3h-1.5Zm2.8-4.1h3.4l-1-2.8-.7-2-.6 1.8-1 3Zm7 4.1v-10h1.3v10h-1.3Zm3 0v-7.3h1.2v1q.3-.5.9-.8.5-.3 1.3-.3t1.3.3q.5.4.7 1 .9-1.3 2.3-1.3 1 0 1.6.6.6.6.6 1.8v5H267v-4.6l-.1-1q-.2-.4-.5-.6-.3-.2-.7-.2-.8 0-1.3.6-.5.5-.5 1.6v4.2h-1.2V66q0-.8-.3-1.2-.3-.5-1-.5-.5 0-1 .3-.4.3-.6.8-.2.5-.2 1.5v3.8h-1.2Zm15.8-.9q-.7.6-1.3.8-.6.3-1.4.3-1.2 0-1.8-.6-.7-.6-.7-1.5 0-.6.3-1 .2-.4.6-.7.4-.3 1-.4l1-.2 2.2-.4v-.3q0-.8-.3-1-.5-.5-1.4-.5-.9 0-1.3.3t-.6 1H269q.1-.9.5-1.3.4-.5 1-.8.8-.2 1.7-.2 1 0 1.5.2t.9.5q.3.4.4.9v2.8l.1 2.1.3.9h-1.2l-.3-.9Zm0-2.7-2.1.4q-.8.1-1 .3-.4.1-.6.4l-.1.5q0 .5.3.9.4.3 1.1.3.7 0 1.3-.3.5-.3.8-.9.2-.4.2-1.2v-.4Zm3.3 3.6v-7.3h1v1q.9-1.1 2.4-1.1l1.2.2q.5.2.8.6.3.4.4 1v5.6H282v-4.4l-.1-1.1q-.1-.4-.5-.6-.4-.3-.9-.3-.8 0-1.3.5-.6.5-.6 2v3.9h-1.2Zm12.7-.9q-.7.6-1.3.8-.6.3-1.4.3-1.2 0-1.8-.6-.7-.6-.7-1.5 0-.6.3-1 .2-.4.6-.7.4-.3 1-.4l1-.2 2.2-.4v-.3q0-.8-.3-1-.5-.5-1.4-.5-.9 0-1.3.3t-.6 1H285q.1-.9.5-1.3.4-.5 1-.8.8-.2 1.7-.2 1 0 1.5.2t.9.5q.3.4.4.9v2.8l.1 2.1.3.9h-1.2l-.3-.9Zm0-2.7-2.1.4q-.8.1-1 .3-.4.1-.6.4l-.1.5q0 .5.3.9.4.3 1.1.3.7 0 1.3-.3.5-.3.8-.9.2-.4.2-1.2v-.4Zm8 1 1.2.1q-.2 1.3-1 2t-2 .7q-1.5 0-2.4-1-.9-1-.9-2.8 0-1.2.4-2 .4-1 1.2-1.4.8-.4 1.7-.4 1.2 0 2 .6.7.6.9 1.7l-1.2.2q-.2-.8-.6-1.1-.4-.4-1-.4-1 0-1.6.7-.5.6-.5 2 0 1.5.5 2.2.6.7 1.5.7.7 0 1.2-.5.5-.4.6-1.4Zm12.4 1.4v1.2h-6.6l.1-.9.8-1.3 1.6-1.5q1.7-1.3 2.2-2.1.6-.8.6-1.5t-.5-1.2q-.5-.5-1.4-.5-.9 0-1.4.5-.5.5-.5 1.5l-1.3-.2q.1-1.4 1-2.1.8-.8 2.3-.8 1.4 0 2.2.8.9.8.9 2 0 .6-.3 1.2-.2.6-.8 1.2-.5.7-1.9 1.8l-1.4 1.3-.5.6h4.9Zm1.5-3.7q0-1.8.4-2.9.4-1 1-1.7.8-.6 1.9-.6.8 0 1.4.4.6.3 1 .9.4.6.6 1.5.3.9.3 2.4 0 1.7-.4 2.8-.4 1-1 1.7-.8.6-2 .6-1.3 0-2.2-1-1-1.3-1-4.1Zm1.3 0q0 2.4.6 3.2.5.9 1.4.9.9 0 1.4-.9.6-.8.6-3.2 0-2.5-.6-3.3-.5-.8-1.4-.8-.9 0-1.4.7-.6.9-.6 3.4Zm13.2 3.7v1.2h-6.6l.1-.9.8-1.3 1.6-1.5q1.7-1.3 2.2-2.1.6-.8.6-1.5t-.5-1.2q-.5-.5-1.4-.5-.9 0-1.4.5-.5.5-.5 1.5l-1.3-.2q.1-1.4 1-2.1.8-.8 2.3-.8 1.4 0 2.2.8.9.8.9 2 0 .6-.3 1.2-.2.6-.8 1.2-.5.7-1.9 1.8l-1.4 1.3-.5.6h4.9Zm8 0v1.2h-6.6l.1-.9.8-1.3 1.6-1.5q1.7-1.3 2.2-2.1.6-.8.6-1.5t-.5-1.2q-.5-.5-1.4-.5-.9 0-1.4.5-.5.5-.5 1.5l-1.3-.2q.1-1.4 1-2.1.8-.8 2.3-.8 1.4 0 2.2.8.9.8.9 2 0 .6-.3 1.2-.2.6-.8 1.2-.5.7-1.9 1.8l-1.4 1.3-.5.6h4.9Zm2.2-4.7v-1.4h1.4v1.4h-1.4Zm0 5.9v-1.4h1.4v1.4h-1.4Zm7.8 0v-10h5.3q.8.2 1.3.5t.8 1q.3.6.3 1.4 0 1.3-.8 2.1-.8 1-3 1h-2.5v4h-1.4Zm1.4-5.3h2.5q1.3 0 1.9-.4.5-.5.5-1.4 0-.6-.3-1-.3-.5-.8-.6l-1.3-.1h-2.5v3.6Zm7.5 5.3v-7.3h1v1.1l.8-1 .8-.2q.7 0 1.3.4l-.4 1.1q-.5-.3-1-.3-.3 0-.7.3-.3.2-.4.7-.2.6-.2 1.4v3.8h-1.2Zm5-8.6v-1.4h1.2V62h-1.2Zm0 8.6v-7.3h1.2v7.3h-1.2Zm5 0-2.8-7.3h1.3l1.6 4.4.4 1.4.5-1.3 1.6-4.5h1.3l-2.8 7.3h-1.1Zm9.7-.9q-.7.6-1.3.8-.6.3-1.4.3-1.2 0-1.8-.6-.7-.6-.7-1.5 0-.6.3-1 .2-.4.6-.7.4-.3 1-.4l1-.2 2.2-.4v-.3q0-.8-.3-1-.5-.5-1.4-.5-.9 0-1.3.3t-.6 1H368q.1-.9.5-1.3.4-.5 1-.8.8-.2 1.7-.2 1 0 1.5.2t.9.5q.3.4.4.9v2.8l.1 2.1.3.9h-1.2l-.3-.9Zm0-2.7-2.1.4q-.8.1-1 .3-.4.1-.6.4l-.1.5q0 .5.3.9.4.3 1.1.3.7 0 1.3-.3.5-.3.8-.9.2-.4.2-1.2v-.4Zm8 1 1.2.1q-.2 1.3-1 2t-2 .7q-1.5 0-2.4-1-.9-1-.9-2.8 0-1.2.4-2 .4-1 1.2-1.4.8-.4 1.7-.4 1.2 0 2 .6.7.6.9 1.7l-1.2.2q-.2-.8-.6-1.1-.4-.4-1-.4-1 0-1.6.7-.5.6-.5 2 0 1.5.5 2.2.6.7 1.5.7.7 0 1.2-.5.5-.4.6-1.4Zm2.2 5.4-.1-1.2.7.1h.6q.3-.2.4-.5.2-.2.4-.9l.1-.3-2.7-7.3h1.3l1.5 4.2.5 1.7.5-1.6 1.6-4.3h1.2l-2.7 7.4-.7 1.7-.8.9q-.4.3-1 .3l-.8-.2Z"/><path fill="#1a2b49" d="M170.5 30.9h5.8l2.2 8.7 2.3-8.7h5.8v14.3H183v-11l-2.8 11h-3.3l-2.8-11v11h-3.6V30.9Zm18.3 9.1q0-2.3 1.6-3.9 1.6-1.5 4.3-1.5 3.1 0 4.7 1.8 1.3 1.5 1.3 3.6 0 2.4-1.6 3.9t-4.4 1.5q-2.5 0-4-1.2-2-1.6-2-4.2Zm4 0q0 1.4.5 2 .6.7 1.4.7.9 0 1.4-.6.6-.7.6-2.1 0-1.3-.6-2-.5-.7-1.3-.7-1 0-1.5.7t-.5 2Zm8.8 2.3 3.9-.4q.2.8.7 1 .4.4 1.2.4.7 0 1.2-.4.3-.2.3-.6 0-.4-.4-.7l-1.7-.4q-2-.3-2.9-.7-.8-.3-1.4-1-.5-.7-.5-1.7t.6-1.7q.6-.8 1.6-1.1 1-.4 2.8-.4 1.9 0 2.8.3.8.3 1.4.9.6.6 1 1.6l-3.7.3q-.2-.5-.5-.7-.5-.3-1.2-.3-.6 0-1 .2l-.2.6q0 .4.3.6.4.2 1.7.3 2 .3 3 .7 1 .4 1.5 1.1.5.8.5 1.6 0 1-.6 1.8-.5.8-1.7 1.4-1.1.5-3.2.5-2.8 0-4-.9-1.2-.8-1.5-2.3ZM219 31v4h2.1v2.8H219v4.5q.3.3.8.3l1.2-.2.3 2.7q-1.5.3-2.8.3-1.5 0-2.2-.3-.7-.4-1-1.2-.3-.8-.3-2.5v-3.7h-1.5v-2.9h1.5V33l4-2Zm19 10.2 3.8.4q-.3 1.2-1 2-.8.9-1.9 1.4-1 .4-2.8.4-1.6 0-2.8-.3-1-.3-1.8-1t-1.3-1.6q-.4-1-.4-2.4 0-1.6.5-2.7.4-.8 1.1-1.4l1.4-1q1.2-.4 3-.4 2.6 0 3.9.9 1.3.9 1.9 2.7l-3.8.5q-.2-.7-.6-1-.5-.4-1.3-.4-1 0-1.6.7-.6.7-.6 2.2 0 1.2.6 2 .6.6 1.6.6.8 0 1.3-.4t.8-1.2Zm4.8-1.2q0-2.3 1.6-3.9 1.6-1.5 4.3-1.5 3.1 0 4.7 1.8 1.3 1.5 1.3 3.6 0 2.4-1.6 3.9t-4.4 1.5q-2.5 0-4-1.2-2-1.6-2-4.2Zm4 0q0 1.4.5 2 .6.7 1.4.7.9 0 1.4-.6.6-.7.6-2.1 0-1.3-.6-2-.5-.7-1.3-.7-1 0-1.5.7t-.5 2Zm9.5-5.2h3.7v1.5q.8-1 1.6-1.3.8-.4 2-.4t2 .4q.7.5 1.1 1.3 1-1 1.7-1.3.8-.4 2-.4 1.6 0 2.5 1 1 1 1 3v6.6h-4v-6q0-.6-.3-1-.4-.5-1-.5-.7 0-1.1.5-.4.5-.4 1.6v5.4h-4v-6.7l-.5-.6q-.3-.2-.8-.2-.7 0-1 .5-.5.5-.5 1.7v5.3h-4V34.8Zm20 0h3.7v1.5q.8-1 1.6-1.3.8-.4 2-.4t2 .4q.7.5 1.1 1.3 1-1 1.7-1.3.8-.4 2-.4 1.6 0 2.5 1 1 1 1 3v6.6h-4v-6q0-.6-.3-1-.4-.5-1-.5-.7 0-1.1.5-.4.5-.4 1.6v5.4h-4v-6.7l-.5-.6q-.3-.2-.8-.2-.7 0-1 .5-.5.5-.5 1.7v5.3h-4V34.8Zm19.5 5.2q0-2.3 1.6-3.9 1.6-1.5 4.3-1.5 3.1 0 4.7 1.8 1.3 1.5 1.3 3.6 0 2.4-1.6 3.9t-4.4 1.5q-2.5 0-4-1.2-2-1.6-2-4.2Zm4 0q0 1.4.5 2 .6.7 1.4.7.9 0 1.4-.6.6-.7.6-2.1 0-1.3-.6-2-.5-.7-1.3-.7-1 0-1.5.7t-.5 2Zm9.5-5.2h3.7v1.7q.8-1 1.6-1.5.9-.4 2.1-.4 1.6 0 2.6 1t1 3v6.6h-4v-5.7q0-1-.4-1.4-.4-.4-1-.4-.8 0-1.2.6-.5.5-.5 2v4.9h-4V34.8Zm24.8-4v4h2.1v3h-2.1v4.5q.3.3.8.3l1.2-.2.3 2.7q-1.5.3-2.8.3-1.5 0-2.2-.3-.7-.4-1-1.2-.3-.8-.3-2.5v-3.7h-1.5v-2.9h1.5V33l4-2Zm4.2 4h3.7v1.7q.6-1 1.1-1.5.6-.4 1.4-.4 1 0 2 .5l-1.3 2.9-1-.3q-.9 0-1.3.6-.6 1-.6 3.4v3.5h-4V34.8Zm12.6 3.4-3.8-.4q.2-1 .6-1.6.4-.5 1.2-1 .5-.3 1.5-.4l2-.2q1.8 0 2.9.2 1.1.2 1.8.8.5.5.8 1.3.3.8.3 1.5V43l.1 1.2.4 1H355l-.3-.6-.1-.7q-.8.8-1.6 1.1-1 .4-2.4.4-2 0-2.9-.8-1-.9-1-2.2 0-1.1.8-1.9.6-.8 2.5-1.1l3-.6 1.3-.5q0-.8-.3-1-.3-.4-1-.4-1 0-1.5.4-.4.2-.6.9Zm3.4 2q-.8.4-1.7.6-1.2.3-1.5.6-.3.3-.3.8 0 .4.3.7.3.3 1 .3.6 0 1.2-.3.5-.3.8-.8.2-.4.2-1.2v-.6Zm13.7 1 3.8.4q-.3 1.2-1 2-.8.9-1.9 1.4-1 .4-2.8.4-1.6 0-2.7-.3t-2-1q-.7-.7-1.2-1.6-.4-1-.4-2.4 0-1.6.5-2.7.4-.8 1.1-1.4.7-.6 1.5-1 1.1-.4 3-.4 2.5 0 3.8.9 1.3.9 1.9 2.7l-3.8.5q-.2-.7-.6-1-.5-.4-1.3-.4-1 0-1.6.7-.6.7-.6 2.2 0 1.2.6 2 .6.6 1.6.6.8 0 1.3-.4t.8-1.2Zm5.3-10.3h4v7.4l3-3.5h4.9l-3.7 3.7 3.9 6.7h-4.5l-2-4.2-1.6 1.5v2.7h-4V30.9ZM397.8 41h-8q.1 1 .5 1.4.6.7 1.5.7.6 0 1.1-.3.4-.2.7-.6l4 .3q-1 1.6-2.2 2.3-1.3.6-3.7.6-2 0-3.2-.5-1.2-.6-2-1.9-.7-1.3-.7-3 0-2.4 1.5-3.9 1.6-1.5 4.3-1.5 2.3 0 3.5.7 1.3.6 2 2 .7 1.2.7 3.2v.5Zm-4-2q-.2-1-.7-1.6-.5-.5-1.3-.5-1 0-1.5.8-.4.5-.5 1.4h4Zm5.5-4.2h3.7v1.7q.6-1 1.1-1.5.6-.4 1.4-.4 1 0 2 .5l-1.3 2.9-1-.3q-.9 0-1.3.6-.6 1-.6 3.4v3.5h-4V34.8Zm8.3 7.5 3.9-.4q.2.8.7 1 .4.4 1.2.4.7 0 1.2-.4.3-.2.3-.6 0-.4-.4-.7l-1.7-.4q-2-.3-2.9-.7-.8-.3-1.4-1-.5-.7-.5-1.7t.6-1.7q.6-.8 1.6-1.1 1-.4 2.8-.4 1.9 0 2.8.3.8.3 1.4.9.6.6 1 1.6l-3.7.3q-.2-.5-.5-.7-.5-.3-1.2-.3-.6 0-1 .2l-.2.6q0 .4.3.6.4.2 1.7.3 2 .3 3 .7 1 .4 1.5 1.1.5.8.5 1.6 0 1-.6 1.8-.5.8-1.7 1.4-1.1.5-3.2.5-2.8 0-4-.9-1.2-.8-1.5-2.3Z"/></svg>