<svg xmlns="http://www.w3.org/2000/svg" width="600" height="371" fill="none" stroke-linecap="square" stroke-miterlimit="10"><path fill="#fff" d="M0 0h600v371H0V0Z"/><path stroke="#333" stroke-linecap="butt" d="M258.5 96.5v208"/><path stroke="#f2f2f2" stroke-linecap="butt" d="M364.5 96.5v208m105-208v208m106-208v208"/><path stroke="#f9f9f9" stroke-linecap="butt" d="M279.5 96.5v208m21-208v208m21-208v208m22-208v208m42-208v208m21-208v208m21-208v208m21-208v208m42-208v208m22-208v208m21-208v208m21-208v208"/><clipPath id="a"><path d="M258.6 96.8h316.9v207.6h-317V96.8Z"/></clipPath><path d="M259 109v-5h276a2 2 0 0 1 2 2v1a2 2 0 0 1-2 2Z" clip-path="url(#a)"/><path fill="#a8caba" d="M259 109v-5h276a2 2 0 0 1 2 2v1a2 2 0 0 1-2 2Z" clip-path="url(#a)"/><path d="M259 129v-5h197a2 2 0 0 1 2 2v1a2 2 0 0 1-2 2Z" clip-path="url(#a)"/><path fill="#a8caba" d="M259 129v-5h197a2 2 0 0 1 2 2v1a2 2 0 0 1-2 2Z" clip-path="url(#a)"/><path d="M259 149v-5h129a2 2 0 0 1 2 2v1a2 2 0 0 1-2 2Z" clip-path="url(#a)"/><path fill="#a8caba" d="M259 149v-5h129a2 2 0 0 1 2 2v1a2 2 0 0 1-2 2Z" clip-path="url(#a)"/><path d="M259 170v-5h100a2 2 0 0 1 2 2v1a2 2 0 0 1-2 2Z" clip-path="url(#a)"/><path fill="#a8caba" d="M259 170v-5h100a2 2 0 0 1 2 2v1a2 2 0 0 1-2 2Z" clip-path="url(#a)"/><path d="M259 190v-5h98a2 2 0 0 1 2 2v1a2 2 0 0 1-2 2Z" clip-path="url(#a)"/><path fill="#a8caba" d="M259 190v-5h98a2 2 0 0 1 2 2v1a2 2 0 0 1-2 2Z" clip-path="url(#a)"/><path d="M259 210v-5h41a2 2 0 0 1 2 2v1a2 2 0 0 1-2 2Z" clip-path="url(#a)"/><path fill="#a8caba" d="M259 210v-5h41a2 2 0 0 1 2 2v1a2 2 0 0 1-2 2Z" clip-path="url(#a)"/><path d="M259 230v-5h40a2 2 0 0 1 2 2v1a2 2 0 0 1-2 2Z" clip-path="url(#a)"/><path fill="#a8caba" d="M259 230v-5h40a2 2 0 0 1 2 2v1a2 2 0 0 1-2 2Z" clip-path="url(#a)"/><path d="M259 250v-5h40a2 2 0 0 1 2 2v1a2 2 0 0 1-2 2Z" clip-path="url(#a)"/><path fill="#a8caba" d="M259 250v-5h40a2 2 0 0 1 2 2v1a2 2 0 0 1-2 2Z" clip-path="url(#a)"/><path d="M259 270v-5h40a2 2 0 0 1 2 2v1a2 2 0 0 1-2 2Z" clip-path="url(#a)"/><path fill="#a8caba" d="M259 270v-5h40a2 2 0 0 1 2 2v1a2 2 0 0 1-2 2Z" clip-path="url(#a)"/><path d="M259 290v-5h40a2 2 0 0 1 2 2v1a2 2 0 0 1-2 2Z" clip-path="url(#a)"/><path fill="#a8caba" d="M259 290v-5h40a2 2 0 0 1 2 2v1a2 2 0 0 1-2 2Z" clip-path="url(#a)"/><path d="M259 116v-5h252a2 2 0 0 1 2 2v1a2 2 0 0 1-2 2Z" clip-path="url(#a)"/><path fill="#62718b" d="M259 116v-5h252a2 2 0 0 1 2 2v1a2 2 0 0 1-2 2Z" clip-path="url(#a)"/><path d="M259 136v-5h182a2 2 0 0 1 2 2v1a2 2 0 0 1-2 2Z" clip-path="url(#a)"/><path fill="#62718b" d="M259 136v-5h182a2 2 0 0 1 2 2v1a2 2 0 0 1-2 2Z" clip-path="url(#a)"/><path d="M259 156v-5h125a2 2 0 0 1 2 2v1a2 2 0 0 1-2 2Z" clip-path="url(#a)"/><path fill="#62718b" d="M259 156v-5h125a2 2 0 0 1 2 2v1a2 2 0 0 1-2 2Z" clip-path="url(#a)"/><path d="M259 177v-5h89a2 2 0 0 1 2 2v1a2 2 0 0 1-2 2Z" clip-path="url(#a)"/><path fill="#62718b" d="M259 177v-5h89a2 2 0 0 1 2 2v1a2 2 0 0 1-2 2Z" clip-path="url(#a)"/><path d="M259 197v-5h87a2 2 0 0 1 2 2v1a2 2 0 0 1-2 2Z" clip-path="url(#a)"/><path fill="#62718b" d="M259 197v-5h87a2 2 0 0 1 2 2v1a2 2 0 0 1-2 2Z" clip-path="url(#a)"/><path d="M259 217v-5h47a2 2 0 0 1 2 2v1a2 2 0 0 1-2 2Z" clip-path="url(#a)"/><path fill="#62718b" d="M259 217v-5h47a2 2 0 0 1 2 2v1a2 2 0 0 1-2 2Z" clip-path="url(#a)"/><path d="M259 237v-5h46a2 2 0 0 1 2 2v1a2 2 0 0 1-2 2Z" clip-path="url(#a)"/><path fill="#62718b" d="M259 237v-5h46a2 2 0 0 1 2 2v1a2 2 0 0 1-2 2Z" clip-path="url(#a)"/><path d="M259 257v-5h46a2 2 0 0 1 2 2v1a2 2 0 0 1-2 2Z" clip-path="url(#a)"/><path fill="#62718b" d="M259 257v-5h46a2 2 0 0 1 2 2v1a2 2 0 0 1-2 2Z" clip-path="url(#a)"/><path d="M259 277v-5h46a2 2 0 0 1 2 2v1a2 2 0 0 1-2 2Z" clip-path="url(#a)"/><path fill="#62718b" d="M259 277v-5h46a2 2 0 0 1 2 2v1a2 2 0 0 1-2 2Z" clip-path="url(#a)"/><path d="M259 297v-5h46a2 2 0 0 1 2 2v1a2 2 0 0 1-2 2Z" clip-path="url(#a)"/><path fill="#62718b" d="M259 297v-5h46a2 2 0 0 1 2 2v1a2 2 0 0 1-2 2Z" clip-path="url(#a)"/><path stroke="#fff" stroke-linecap="round" stroke-linejoin="round" stroke-width="3" d="M536.9 117v2h-7.7q.1-1.2.7-2.2.7-1 2.5-2.7 1.5-1.4 1.8-2 .5-.6.5-1.3 0-.7-.4-1-.4-.5-1.1-.5-.7 0-1.1.4-.4.4-.5 1.4l-2.2-.2q.2-1.8 1.3-2.6 1-.8 2.6-.8t2.6 1q1 .8 1 2.2 0 .8-.3 1.5t-.9 1.4l-1.4 1.5-1.3 1.2-.5.7h4.4Zm5.9 2v-2.3H538v-2l5-7.2h1.8v7.3h1.4v1.9H545v2.3h-2.1Zm0-4.2v-4l-2.7 4h2.7Zm4.7-4.4q0-1.6.7-2.3.6-.8 1.8-.8 1.2 0 1.9.8.6.7.6 2.3 0 1.5-.6 2.3-.7.7-1.9.7t-1.8-.7q-.7-.8-.7-2.3Zm1.7 0q0 1 .3 1.5.1.2.5.2.3 0 .5-.2.3-.4.3-1.5 0-1.2-.3-1.5-.2-.3-.5-.3-.4 0-.5.3-.3.3-.3 1.5Zm2.5 9H550l6.1-12h1.6l-6 12Zm3.5-3q0-1.5.7-2.2.7-.8 1.8-.8t1.9.8q.7.7.7 2.2 0 1.6-.7 2.3-.7.8-1.8.8-1.2 0-2-.8-.6-.7-.6-2.3Zm1.7 0q0 1.1.3 1.5.2.3.5.3.4 0 .6-.3.2-.4.2-1.5t-.2-1.5q-.2-.3-.6-.3-.3 0-.5.3-.3.4-.3 1.5Z"/><path fill="#62718b" d="M536.9 117v2h-7.7q.1-1.2.7-2.2.7-1 2.5-2.7 1.5-1.4 1.8-2 .5-.6.5-1.3 0-.7-.4-1-.4-.5-1.1-.5-.7 0-1.1.4-.4.4-.5 1.4l-2.2-.2q.2-1.8 1.3-2.6 1-.8 2.6-.8t2.6 1q1 .8 1 2.2 0 .8-.3 1.5t-.9 1.4l-1.4 1.5-1.3 1.2-.5.7h4.4Zm5.9 2v-2.3H538v-2l5-7.2h1.8v7.3h1.4v1.9H545v2.3h-2.1Zm0-4.2v-4l-2.7 4h2.7Zm4.7-4.4q0-1.6.7-2.3.6-.8 1.8-.8 1.2 0 1.9.8.6.7.6 2.3 0 1.5-.6 2.3-.7.7-1.9.7t-1.8-.7q-.7-.8-.7-2.3Zm1.7 0q0 1 .3 1.5.1.2.5.2.3 0 .5-.2.3-.4.3-1.5 0-1.2-.3-1.5-.2-.3-.5-.3-.4 0-.5.3-.3.3-.3 1.5Zm2.5 9H550l6.1-12h1.6l-6 12Zm3.5-3q0-1.5.7-2.2.7-.8 1.8-.8t1.9.8q.7.7.7 2.2 0 1.6-.7 2.3-.7.8-1.8.8-1.2 0-2-.8-.6-.7-.6-2.3Zm1.7 0q0 1.1.3 1.5.2.3.5.3.4 0 .6-.3.2-.4.2-1.5t-.2-1.5q-.2-.3-.6-.3-.3 0-.5.3-.3.4-.3 1.5Z"/><path stroke="#fff" stroke-linecap="round" stroke-linejoin="round" stroke-width="3" d="M465.2 139H463v-8.3q-1.2 1.1-2.8 1.7v-2q.8-.3 1.8-1 1-.9 1.4-1.9h1.8V139Zm3.4-9.3v-2h7.5v1.6q-1 .9-1.9 2.6-1 1.7-1.5 3.7-.5 1.9-.5 3.4h-2q0-2.4 1-4.8.8-2.5 2.4-4.5h-5Zm9 .7q0-1.6.7-2.3.7-.8 1.8-.8 1.2 0 1.9.8.7.7.7 2.3 0 1.5-.7 2.3-.7.7-1.8.7-1.2 0-2-.7-.6-.8-.6-2.3Zm1.7 0q0 1 .3 1.5.2.2.5.2.4 0 .6-.2.2-.4.2-1.5 0-1.2-.2-1.5-.2-.3-.6-.3-.3 0-.5.3-.3.3-.3 1.5Zm2.5 9h-1.6l6-12h1.6l-6 12Zm3.5-3q0-1.5.7-2.2.7-.8 1.9-.8t1.8.8q.7.7.7 2.2 0 1.6-.7 2.3-.7.8-1.8.8-1.2 0-1.9-.8-.7-.7-.7-2.3Zm1.7 0q0 1.1.3 1.5.2.3.5.3.4 0 .6-.3.2-.4.2-1.5t-.2-1.5q-.2-.3-.6-.3-.3 0-.5.3-.3.4-.3 1.5Z"/><path fill="#62718b" d="M465.2 139H463v-8.3q-1.2 1.1-2.8 1.7v-2q.8-.3 1.8-1 1-.9 1.4-1.9h1.8V139Zm3.4-9.3v-2h7.5v1.6q-1 .9-1.9 2.6-1 1.7-1.5 3.7-.5 1.9-.5 3.4h-2q0-2.4 1-4.8.8-2.5 2.4-4.5h-5Zm9 .7q0-1.6.7-2.3.7-.8 1.8-.8 1.2 0 1.9.8.7.7.7 2.3 0 1.5-.7 2.3-.7.7-1.8.7-1.2 0-2-.7-.6-.8-.6-2.3Zm1.7 0q0 1 .3 1.5.2.2.5.2.4 0 .6-.2.2-.4.2-1.5 0-1.2-.2-1.5-.2-.3-.6-.3-.3 0-.5.3-.3.3-.3 1.5Zm2.5 9h-1.6l6-12h1.6l-6 12Zm3.5-3q0-1.5.7-2.2.7-.8 1.9-.8t1.8.8q.7.7.7 2.2 0 1.6-.7 2.3-.7.8-1.8.8-1.2 0-1.9-.8-.7-.7-.7-2.3Zm1.7 0q0 1.1.3 1.5.2.3.5.3.4 0 .6-.3.2-.4.2-1.5t-.2-1.5q-.2-.3-.6-.3-.3 0-.5.3-.3.4-.3 1.5Z"/><path stroke="#fff" stroke-linecap="round" stroke-linejoin="round" stroke-width="3" d="M408.7 159h-2.2v-8.3q-1.2 1.1-2.8 1.7v-2q.8-.3 1.8-1 1-.9 1.4-1.9h1.8V159Zm10.8-2v2h-7.7q.1-1.2.8-2.2.6-1 2.4-2.7 1.5-1.4 1.8-2 .5-.6.5-1.3 0-.7-.4-1-.4-.5-1-.5-.8 0-1.2.4-.4.4-.5 1.4l-2.1-.2q.2-1.8 1.2-2.6t2.6-.8q1.7 0 2.6 1 1 .8 1 2.2 0 .8-.3 1.5-.2.7-.9 1.4-.3.5-1.4 1.5l-1.3 1.2-.5.7h4.4Zm1.6-6.6q0-1.6.7-2.3.7-.8 1.8-.8 1.2 0 1.9.8.7.7.7 2.3 0 1.5-.7 2.3-.7.7-1.8.7-1.2 0-2-.7-.6-.8-.6-2.3Zm1.7 0q0 1 .3 1.5.2.2.5.2.4 0 .6-.2.2-.4.2-1.5 0-1.2-.2-1.5-.2-.3-.6-.3-.3 0-.5.3-.3.3-.3 1.5Zm2.5 9h-1.6l6-12h1.6l-6 12Zm3.5-3q0-1.5.7-2.2.7-.8 1.9-.8 1.1 0 1.8.8.7.7.7 2.2 0 1.6-.7 2.3-.7.8-1.8.8-1.2 0-1.9-.8-.7-.7-.7-2.3Zm1.7 0q0 1.1.3 1.5.2.3.5.3.4 0 .6-.3.2-.4.2-1.5t-.2-1.5q-.2-.3-.6-.3-.3 0-.5.3-.3.4-.3 1.5Z"/><path fill="#62718b" d="M408.7 159h-2.2v-8.3q-1.2 1.1-2.8 1.7v-2q.8-.3 1.8-1 1-.9 1.4-1.9h1.8V159Zm10.8-2v2h-7.7q.1-1.2.8-2.2.6-1 2.4-2.7 1.5-1.4 1.8-2 .5-.6.5-1.3 0-.7-.4-1-.4-.5-1-.5-.8 0-1.2.4-.4.4-.5 1.4l-2.1-.2q.2-1.8 1.2-2.6t2.6-.8q1.7 0 2.6 1 1 .8 1 2.2 0 .8-.3 1.5-.2.7-.9 1.4-.3.5-1.4 1.5l-1.3 1.2-.5.7h4.4Zm1.6-6.6q0-1.6.7-2.3.7-.8 1.8-.8 1.2 0 1.9.8.7.7.7 2.3 0 1.5-.7 2.3-.7.7-1.8.7-1.2 0-2-.7-.6-.8-.6-2.3Zm1.7 0q0 1 .3 1.5.2.2.5.2.4 0 .6-.2.2-.4.2-1.5 0-1.2-.2-1.5-.2-.3-.6-.3-.3 0-.5.3-.3.3-.3 1.5Zm2.5 9h-1.6l6-12h1.6l-6 12Zm3.5-3q0-1.5.7-2.2.7-.8 1.9-.8 1.1 0 1.8.8.7.7.7 2.2 0 1.6-.7 2.3-.7.8-1.8.8-1.2 0-1.9-.8-.7-.7-.7-2.3Zm1.7 0q0 1.1.3 1.5.2.3.5.3.4 0 .6-.3.2-.4.2-1.5t-.2-1.5q-.2-.3-.6-.3-.3 0-.5.3-.3.4-.3 1.5Z"/><path stroke="#fff" stroke-linecap="round" stroke-linejoin="round" stroke-width="3" d="m366.7 177.3 2.1-.2q.1.7.4 1 .4.3 1 .3t1-.6q.5-.7.7-2.6-.9 1-2 1-1.4 0-2.4-1.1-1-1-1-2.7 0-1.8 1-2.8 1-1.1 2.7-1.1 1.7 0 2.8 1.3 1.1 1.4 1.1 4.5t-1.1 4.5q-1.2 1.4-3 1.4-1.4 0-2.2-.7-.8-.7-1-2.2Zm5-4.8q0-1-.5-1.6-.5-.6-1.1-.6-.6 0-1 .5t-.4 1.6q0 1 .4 1.6.4.5 1 .5.7 0 1.1-.5.5-.5.5-1.5Zm4-1.1q0-1.6.7-2.3.6-.8 1.8-.8 1.2 0 1.9.8.6.7.6 2.3 0 1.5-.6 2.3-.7.7-1.9.7t-1.8-.7q-.7-.8-.7-2.3Zm1.7 0q0 1 .3 1.5.1.2.5.2.3 0 .5-.2.3-.4.3-1.5 0-1.2-.3-1.5-.2-.3-.5-.3-.4 0-.5.3-.3.3-.3 1.5Zm2.5 9h-1.7l6.1-12h1.6l-6 12Zm3.5-3q0-1.5.7-2.2.7-.8 1.8-.8 1.2 0 1.9.8.7.7.7 2.2 0 1.6-.7 2.3-.7.8-1.8.8-1.2 0-2-.8-.6-.7-.6-2.3Zm1.7 0q0 1.1.3 1.5.2.3.5.3.4 0 .6-.3.2-.4.2-1.5t-.2-1.5q-.2-.3-.6-.3-.3 0-.5.3-.3.4-.3 1.5Z"/><path fill="#62718b" d="m366.7 177.3 2.1-.2q.1.7.4 1 .4.3 1 .3t1-.6q.5-.7.7-2.6-.9 1-2 1-1.4 0-2.4-1.1-1-1-1-2.7 0-1.8 1-2.8 1-1.1 2.7-1.1 1.7 0 2.8 1.3 1.1 1.4 1.1 4.5t-1.1 4.5q-1.2 1.4-3 1.4-1.4 0-2.2-.7-.8-.7-1-2.2Zm5-4.8q0-1-.5-1.6-.5-.6-1.1-.6-.6 0-1 .5t-.4 1.6q0 1 .4 1.6.4.5 1 .5.7 0 1.1-.5.5-.5.5-1.5Zm4-1.1q0-1.6.7-2.3.6-.8 1.8-.8 1.2 0 1.9.8.6.7.6 2.3 0 1.5-.6 2.3-.7.7-1.9.7t-1.8-.7q-.7-.8-.7-2.3Zm1.7 0q0 1 .3 1.5.1.2.5.2.3 0 .5-.2.3-.4.3-1.5 0-1.2-.3-1.5-.2-.3-.5-.3-.4 0-.5.3-.3.3-.3 1.5Zm2.5 9h-1.7l6.1-12h1.6l-6 12Zm3.5-3q0-1.5.7-2.2.7-.8 1.8-.8 1.2 0 1.9.8.7.7.7 2.2 0 1.6-.7 2.3-.7.8-1.8.8-1.2 0-2-.8-.6-.7-.6-2.3Zm1.7 0q0 1.1.3 1.5.2.3.5.3.4 0 .6-.3.2-.4.2-1.5t-.2-1.5q-.2-.3-.6-.3-.3 0-.5.3-.3.4-.3 1.5Z"/><path stroke="#fff" stroke-linecap="round" stroke-linejoin="round" stroke-width="3" d="M366.8 193.8q-.9-.3-1.3-1-.3-.6-.3-1.3 0-1.3.8-2.2 1-.8 2.6-.8t2.5.8q1 .9 1 2.2 0 .7-.5 1.4-.4.6-1.1 1 .9.3 1.4 1 .5.8.5 1.7 0 1.6-1 2.6t-2.7 1q-1.6 0-2.6-.8-1.2-1-1.2-2.7 0-.9.4-1.7.5-.8 1.5-1.2Zm.4-2.2q0 .7.4 1 .4.4 1 .4t1-.4.4-1q0-.6-.4-1t-1-.4q-.6 0-1 .4t-.4 1Zm-.2 5q0 .8.5 1.3t1.2.5q.6 0 1-.4.5-.5.5-1.5 0-.8-.4-1.3-.5-.5-1.2-.5-.8 0-1.2.6-.4.6-.4 1.2Zm7-5.2q0-1.6.6-2.3.7-.8 1.8-.8 1.2 0 1.9.8.7.7.7 2.3 0 1.5-.7 2.3-.7.7-1.8.7-1.2 0-2-.7-.6-.8-.6-2.3Zm1.6 0q0 1 .3 1.5.2.2.5.2.4 0 .6-.2.2-.4.2-1.5 0-1.2-.2-1.5-.2-.3-.6-.3-.3 0-.5.3-.3.3-.3 1.5Zm2.5 9h-1.6l6-12h1.7l-6.1 12Zm3.5-3q0-1.5.7-2.2.7-.8 1.9-.8 1.1 0 1.8.8.7.7.7 2.2 0 1.6-.7 2.3-.7.8-1.8.8-1.2 0-1.9-.8-.7-.7-.7-2.3Zm1.8 0q0 1.1.2 1.5.2.3.6.3.3 0 .5-.3.3-.4.3-1.5t-.3-1.5q-.2-.3-.5-.3-.4 0-.6.3-.2.4-.2 1.5Z"/><path fill="#62718b" d="M366.8 193.8q-.9-.3-1.3-1-.3-.6-.3-1.3 0-1.3.8-2.2 1-.8 2.6-.8t2.5.8q1 .9 1 2.2 0 .7-.5 1.4-.4.6-1.1 1 .9.3 1.4 1 .5.8.5 1.7 0 1.6-1 2.6t-2.7 1q-1.6 0-2.6-.8-1.2-1-1.2-2.7 0-.9.4-1.7.5-.8 1.5-1.2Zm.4-2.2q0 .7.4 1 .4.4 1 .4t1-.4.4-1q0-.6-.4-1t-1-.4q-.6 0-1 .4t-.4 1Zm-.2 5q0 .8.5 1.3t1.2.5q.6 0 1-.4.5-.5.5-1.5 0-.8-.4-1.3-.5-.5-1.2-.5-.8 0-1.2.6-.4.6-.4 1.2Zm7-5.2q0-1.6.6-2.3.7-.8 1.8-.8 1.2 0 1.9.8.7.7.7 2.3 0 1.5-.7 2.3-.7.7-1.8.7-1.2 0-2-.7-.6-.8-.6-2.3Zm1.6 0q0 1 .3 1.5.2.2.5.2.4 0 .6-.2.2-.4.2-1.5 0-1.2-.2-1.5-.2-.3-.6-.3-.3 0-.5.3-.3.3-.3 1.5Zm2.5 9h-1.6l6-12h1.7l-6.1 12Zm3.5-3q0-1.5.7-2.2.7-.8 1.9-.8 1.1 0 1.8.8.7.7.7 2.2 0 1.6-.7 2.3-.7.8-1.8.8-1.2 0-1.9-.8-.7-.7-.7-2.3Zm1.8 0q0 1.1.2 1.5.2.3.6.3.3 0 .5-.3.3-.4.3-1.5t-.3-1.5q-.2-.3-.5-.3-.4 0-.6.3-.2.4-.2 1.5Z"/><path stroke="#fff" stroke-linecap="round" stroke-linejoin="round" stroke-width="3" d="m324.8 217 2.2-.2q.1.8.6 1.2.4.4 1 .4.7 0 1.2-.5.5-.6.5-1.7 0-1-.5-1.6-.5-.5-1.2-.5-1 0-1.7.8l-1.8-.2 1.1-6h5.8v2h-4l-.4 2q.8-.4 1.5-.4 1.5 0 2.5 1 1 1.2 1 2.9 0 1.4-.8 2.5-1.1 1.5-3.1 1.5-1.6 0-2.6-.9-1-.8-1.2-2.3Zm9-5.6q0-1.6.7-2.3.6-.8 1.8-.8 1.2 0 1.9.8.7.7.7 2.3 0 1.5-.7 2.3-.7.7-1.8.7-1.3 0-2-.7-.6-.8-.6-2.3Zm1.7 0q0 1 .3 1.5.2.2.5.2.4 0 .6-.2.2-.4.2-1.5 0-1.2-.2-1.5-.2-.3-.6-.3-.3 0-.5.3-.3.3-.3 1.5Zm2.5 9h-1.6l6-12h1.6l-6 12Zm3.5-3q0-1.5.7-2.2.7-.8 1.9-.8t1.8.8q.7.7.7 2.2 0 1.6-.7 2.3-.7.8-1.8.8-1.2 0-2-.8-.6-.7-.6-2.3Zm1.7 0q0 1.1.3 1.5.2.3.5.3.4 0 .6-.3.2-.4.2-1.5t-.2-1.5q-.2-.3-.6-.3-.3 0-.5.3-.3.4-.3 1.5Z"/><path fill="#62718b" d="m324.8 217 2.2-.2q.1.8.6 1.2.4.4 1 .4.7 0 1.2-.5.5-.6.5-1.7 0-1-.5-1.6-.5-.5-1.2-.5-1 0-1.7.8l-1.8-.2 1.1-6h5.8v2h-4l-.4 2q.8-.4 1.5-.4 1.5 0 2.5 1 1 1.2 1 2.9 0 1.4-.8 2.5-1.1 1.5-3.1 1.5-1.6 0-2.6-.9-1-.8-1.2-2.3Zm9-5.6q0-1.6.7-2.3.6-.8 1.8-.8 1.2 0 1.9.8.7.7.7 2.3 0 1.5-.7 2.3-.7.7-1.8.7-1.3 0-2-.7-.6-.8-.6-2.3Zm1.7 0q0 1 .3 1.5.2.2.5.2.4 0 .6-.2.2-.4.2-1.5 0-1.2-.2-1.5-.2-.3-.6-.3-.3 0-.5.3-.3.3-.3 1.5Zm2.5 9h-1.6l6-12h1.6l-6 12Zm3.5-3q0-1.5.7-2.2.7-.8 1.9-.8t1.8.8q.7.7.7 2.2 0 1.6-.7 2.3-.7.8-1.8.8-1.2 0-2-.8-.6-.7-.6-2.3Zm1.7 0q0 1.1.3 1.5.2.3.5.3.4 0 .6-.3.2-.4.2-1.5t-.2-1.5q-.2-.3-.6-.3-.3 0-.5.3-.3.4-.3 1.5Z"/><path stroke="#fff" stroke-linecap="round" stroke-linejoin="round" stroke-width="3" d="m323.6 237 2.2-.2q0 .8.5 1.2.5.4 1.1.4.7 0 1.2-.5.4-.6.4-1.7 0-1-.4-1.6-.5-.5-1.3-.5-.9 0-1.6.8l-1.8-.2 1.1-6h5.8v2h-4.1l-.4 2q.7-.4 1.5-.4 1.5 0 2.5 1 1 1.2 1 2.9 0 1.4-.8 2.5-1.1 1.5-3.1 1.5-1.6 0-2.6-.9-1-.8-1.2-2.3Zm9-5.6q0-1.6.7-2.3.6-.8 1.8-.8 1.2 0 1.9.8.6.7.6 2.3 0 1.5-.6 2.3-.7.7-1.9.7t-1.8-.7q-.7-.8-.7-2.3Zm1.7 0q0 1 .3 1.5.2.2.5.2.4 0 .5-.2.3-.4.3-1.5 0-1.2-.3-1.5-.1-.3-.5-.3-.3 0-.5.3-.3.3-.3 1.5Zm2.5 9H335l6.2-12h1.5l-6 12Zm3.5-3q0-1.5.7-2.2.7-.8 1.8-.8 1.2 0 1.9.8.7.7.7 2.2 0 1.6-.7 2.3-.7.8-1.8.8-1.2 0-2-.8-.6-.7-.6-2.3Zm1.7 0q0 1.1.3 1.5.2.3.5.3.4 0 .6-.3.2-.4.2-1.5t-.2-1.5q-.2-.3-.6-.3-.3 0-.5.3-.3.4-.3 1.5Z"/><path fill="#62718b" d="m323.6 237 2.2-.2q0 .8.5 1.2.5.4 1.1.4.7 0 1.2-.5.4-.6.4-1.7 0-1-.4-1.6-.5-.5-1.3-.5-.9 0-1.6.8l-1.8-.2 1.1-6h5.8v2h-4.1l-.4 2q.7-.4 1.5-.4 1.5 0 2.5 1 1 1.2 1 2.9 0 1.4-.8 2.5-1.1 1.5-3.1 1.5-1.6 0-2.6-.9-1-.8-1.2-2.3Zm9-5.6q0-1.6.7-2.3.6-.8 1.8-.8 1.2 0 1.9.8.6.7.6 2.3 0 1.5-.6 2.3-.7.7-1.9.7t-1.8-.7q-.7-.8-.7-2.3Zm1.7 0q0 1 .3 1.5.2.2.5.2.4 0 .5-.2.3-.4.3-1.5 0-1.2-.3-1.5-.1-.3-.5-.3-.3 0-.5.3-.3.3-.3 1.5Zm2.5 9H335l6.2-12h1.5l-6 12Zm3.5-3q0-1.5.7-2.2.7-.8 1.8-.8 1.2 0 1.9.8.7.7.7 2.2 0 1.6-.7 2.3-.7.8-1.8.8-1.2 0-2-.8-.6-.7-.6-2.3Zm1.7 0q0 1.1.3 1.5.2.3.5.3.4 0 .6-.3.2-.4.2-1.5t-.2-1.5q-.2-.3-.6-.3-.3 0-.5.3-.3.4-.3 1.5Z"/><path stroke="#fff" stroke-linecap="round" stroke-linejoin="round" stroke-width="3" d="m323.6 257 2.2-.2q0 .8.5 1.2.5.4 1 .4.8 0 1.2-.5.5-.6.5-1.7 0-1-.5-1.6-.4-.5-1.2-.5-1 0-1.7.8l-1.8-.2 1.2-6h5.8v2h-4.2l-.3 2q.7-.4 1.5-.4 1.4 0 2.5 1 1 1.2 1 2.9 0 1.4-.9 2.5-1 1.5-3 1.5-1.6 0-2.6-.9-1-.8-1.2-2.3Zm9-5.6q0-1.6.6-2.3.7-.8 1.9-.8t1.8.8q.7.7.7 2.3 0 1.5-.7 2.3-.6.7-1.8.7-1.2 0-1.9-.7-.6-.8-.6-2.3Zm1.7 0q0 1 .2 1.5.2.2.6.2.3 0 .5-.2.3-.4.3-1.5 0-1.2-.3-1.5-.2-.3-.5-.3-.4 0-.6.3-.2.3-.2 1.5Zm2.4 9h-1.6l6.1-12h1.6l-6 12Zm3.6-3q0-1.5.6-2.2.7-.8 1.9-.8t1.8.8q.7.7.7 2.2 0 1.6-.7 2.3-.6.8-1.8.8-1.2 0-1.9-.8-.6-.7-.6-2.3Zm1.7 0q0 1.1.2 1.5.2.3.6.3.3 0 .5-.3.3-.4.3-1.5t-.3-1.5q-.2-.3-.5-.3-.4 0-.6.3-.2.4-.2 1.5Z"/><path fill="#62718b" d="m323.6 257 2.2-.2q0 .8.5 1.2.5.4 1 .4.8 0 1.2-.5.5-.6.5-1.7 0-1-.5-1.6-.4-.5-1.2-.5-1 0-1.7.8l-1.8-.2 1.2-6h5.8v2h-4.2l-.3 2q.7-.4 1.5-.4 1.4 0 2.5 1 1 1.2 1 2.9 0 1.4-.9 2.5-1 1.5-3 1.5-1.6 0-2.6-.9-1-.8-1.2-2.3Zm9-5.6q0-1.6.6-2.3.7-.8 1.9-.8t1.8.8q.7.7.7 2.3 0 1.5-.7 2.3-.6.7-1.8.7-1.2 0-1.9-.7-.6-.8-.6-2.3Zm1.7 0q0 1 .2 1.5.2.2.6.2.3 0 .5-.2.3-.4.3-1.5 0-1.2-.3-1.5-.2-.3-.5-.3-.4 0-.6.3-.2.3-.2 1.5Zm2.4 9h-1.6l6.1-12h1.6l-6 12Zm3.6-3q0-1.5.6-2.2.7-.8 1.9-.8t1.8.8q.7.7.7 2.2 0 1.6-.7 2.3-.6.8-1.8.8-1.2 0-1.9-.8-.6-.7-.6-2.3Zm1.7 0q0 1.1.2 1.5.2.3.6.3.3 0 .5-.3.3-.4.3-1.5t-.3-1.5q-.2-.3-.5-.3-.4 0-.6.3-.2.4-.2 1.5Z"/><path stroke="#fff" stroke-linecap="round" stroke-linejoin="round" stroke-width="3" d="m323.6 277 2.2-.2q0 .8.5 1.2.5.4 1 .4.8 0 1.2-.5.5-.6.5-1.7 0-1-.5-1.6-.4-.5-1.2-.5-1 0-1.7.8l-1.8-.2 1.2-6h5.8v2h-4.2l-.3 2q.7-.4 1.5-.4 1.4 0 2.5 1 1 1.2 1 2.9 0 1.4-.9 2.5-1 1.5-3 1.5-1.6 0-2.6-.9-1-.8-1.2-2.3Zm9-5.6q0-1.6.6-2.3.7-.8 1.9-.8t1.8.8q.7.7.7 2.3 0 1.5-.7 2.3-.6.7-1.8.7-1.2 0-1.9-.7-.6-.8-.6-2.3Zm1.7 0q0 1 .2 1.5.2.2.6.2.3 0 .5-.2.3-.4.3-1.5 0-1.2-.3-1.5-.2-.3-.5-.3-.4 0-.6.3-.2.3-.2 1.5Zm2.4 9h-1.6l6.1-12h1.6l-6 12Zm3.6-3q0-1.5.6-2.2.7-.8 2-.8 1 0 1.7.8.7.7.7 2.2 0 1.6-.7 2.3-.6.8-1.8.8-1.2 0-1.9-.8-.6-.7-.6-2.3Zm1.7 0q0 1.1.2 1.5.2.3.6.3.3 0 .5-.3.3-.4.3-1.5t-.3-1.5q-.2-.3-.5-.3-.4 0-.6.3-.2.4-.2 1.5Z"/><path fill="#62718b" d="m323.6 277 2.2-.2q0 .8.5 1.2.5.4 1 .4.8 0 1.2-.5.5-.6.5-1.7 0-1-.5-1.6-.4-.5-1.2-.5-1 0-1.7.8l-1.8-.2 1.2-6h5.8v2h-4.2l-.3 2q.7-.4 1.5-.4 1.4 0 2.5 1 1 1.2 1 2.9 0 1.4-.9 2.5-1 1.5-3 1.5-1.6 0-2.6-.9-1-.8-1.2-2.3Zm9-5.6q0-1.6.6-2.3.7-.8 1.9-.8t1.8.8q.7.7.7 2.3 0 1.5-.7 2.3-.6.7-1.8.7-1.2 0-1.9-.7-.6-.8-.6-2.3Zm1.7 0q0 1 .2 1.5.2.2.6.2.3 0 .5-.2.3-.4.3-1.5 0-1.2-.3-1.5-.2-.3-.5-.3-.4 0-.6.3-.2.3-.2 1.5Zm2.4 9h-1.6l6.1-12h1.6l-6 12Zm3.6-3q0-1.5.6-2.2.7-.8 2-.8 1 0 1.7.8.7.7.7 2.2 0 1.6-.7 2.3-.6.8-1.8.8-1.2 0-1.9-.8-.6-.7-.6-2.3Zm1.7 0q0 1.1.2 1.5.2.3.6.3.3 0 .5-.3.3-.4.3-1.5t-.3-1.5q-.2-.3-.5-.3-.4 0-.6.3-.2.4-.2 1.5Z"/><path stroke="#fff" stroke-linecap="round" stroke-linejoin="round" stroke-width="3" d="m323.6 297 2.2-.2q0 .8.5 1.2.5.4 1 .4.8 0 1.2-.5.5-.6.5-1.7 0-1-.5-1.6-.4-.5-1.2-.5-1 0-1.7.8l-1.8-.2 1.2-6h5.8v2h-4.2l-.3 2q.7-.4 1.5-.4 1.4 0 2.5 1 1 1.2 1 2.9 0 1.4-.9 2.5-1 1.5-3 1.5-1.6 0-2.6-.9-1-.8-1.2-2.3Zm9-5.6q0-1.6.6-2.3.7-.8 1.9-.8t1.8.8q.7.7.7 2.3 0 1.5-.7 2.3-.6.7-1.8.7-1.2 0-1.9-.7-.6-.8-.6-2.3Zm1.7 0q0 1 .2 1.5.2.2.6.2.3 0 .5-.2.2-.4.2-1.5 0-1.2-.2-1.5-.2-.3-.5-.3-.4 0-.6.3-.2.3-.2 1.5Zm2.4 9h-1.6l6.1-12h1.6l-6 12Zm3.6-3q0-1.5.6-2.2.7-.8 1.9-.8t1.8.8q.7.7.7 2.2 0 1.6-.7 2.3-.6.8-1.8.8-1.2 0-1.9-.8-.6-.7-.6-2.3Zm1.7 0q0 1.1.2 1.5.2.3.6.3.3 0 .5-.3.3-.4.3-1.5t-.3-1.5q-.2-.3-.5-.3-.4 0-.6.3-.2.4-.2 1.5Z"/><path fill="#62718b" d="m323.6 297 2.2-.2q0 .8.5 1.2.5.4 1 .4.8 0 1.2-.5.5-.6.5-1.7 0-1-.5-1.6-.4-.5-1.2-.5-1 0-1.7.8l-1.8-.2 1.2-6h5.8v2h-4.2l-.3 2q.7-.4 1.5-.4 1.4 0 2.5 1 1 1.2 1 2.9 0 1.4-.9 2.5-1 1.5-3 1.5-1.6 0-2.6-.9-1-.8-1.2-2.3Zm9-5.6q0-1.6.6-2.3.7-.8 1.9-.8t1.8.8q.7.7.7 2.3 0 1.5-.7 2.3-.6.7-1.8.7-1.2 0-1.9-.7-.6-.8-.6-2.3Zm1.7 0q0 1 .2 1.5.2.2.6.2.3 0 .5-.2.2-.4.2-1.5 0-1.2-.2-1.5-.2-.3-.5-.3-.4 0-.6.3-.2.3-.2 1.5Zm2.4 9h-1.6l6.1-12h1.6l-6 12Zm3.6-3q0-1.5.6-2.2.7-.8 1.9-.8t1.8.8q.7.7.7 2.2 0 1.6-.7 2.3-.6.8-1.8.8-1.2 0-1.9-.8-.6-.7-.6-2.3Zm1.7 0q0 1.1.2 1.5.2.3.6.3.3 0 .5-.3.3-.4.3-1.5t-.3-1.5q-.2-.3-.5-.3-.4 0-.6.3-.2.4-.2 1.5Z"/><path fill="#838689" d="M361 351.3v-8.6h4.5l1 .5q.5.3.7.8.3.5.3 1.2 0 1-.7 1.8t-2.5.8H362v3.5h-1Zm1-4.5h2.3q1.1 0 1.6-.4.4-.4.4-1.2 0-.5-.2-.9-.3-.4-.7-.5H362v3Zm11 2.5 1.2.1q-.3 1-1 1.5t-1.8.5q-1.3 0-2.1-.8-.8-.9-.8-2.4t.8-2.4q.8-.9 2-.9 1.3 0 2.1.9.8.8.8 2.4v.3h-4.6q0 1 .5 1.5.6.6 1.3.6.6 0 1-.3t.7-1Zm-3.4-1.7h3.5q0-.8-.4-1.2-.5-.6-1.3-.6-.7 0-1.2.5t-.6 1.3Zm6.2 3.7v-6.2h1v1q.3-.7.6-1 .3-.2.7-.2.5 0 1 .4l-.3 1q-.4-.3-.7-.3-.4 0-.7.2l-.4.6-.1 1.2v3.3h-1Zm8-2.3 1.1.2q-.2 1-.9 1.6-.7.6-1.7.6-1.3 0-2-.8-.8-.8-.8-2.4 0-1 .3-1.7.4-.8 1-1.2.7-.4 1.5-.4 1 0 1.7.6.6.5.8 1.4l-1 .2q-.1-.7-.5-1-.4-.3-1-.3-.7 0-1.2.6-.5.5-.5 1.8 0 1.2.5 1.8.4.6 1.2.6.6 0 1-.4.5-.4.6-1.2Zm6.3.3 1 .1q-.2 1-.9 1.5t-1.8.5q-1.3 0-2.1-.8-.8-.9-.8-2.4t.8-2.4q.8-.9 2-.9 1.3 0 2.1.9.8.8.8 2.4v.3h-4.6q0 1 .5 1.5.6.6 1.3.6.6 0 1-.3t.7-1Zm-3.5-1.7h3.5q0-.8-.4-1.2-.5-.6-1.3-.6-.7 0-1.2.5t-.6 1.3Zm6.2 3.7v-6.2h1v.9q.6-1 2-1l1 .1q.5.2.7.6l.3.7v4.9h-1v-3.8l-.1-1q-.1-.3-.4-.5l-.8-.2q-.6 0-1.1.5-.5.4-.5 1.6v3.4h-1Zm9.3-1 .2 1h-.8l-1-.1-.4-.5V346h-.9v-.8h.8v-1.6l1-.6v2.2h1.1v.8h-1v4.2l.2.2h.8Zm4.8.2q-.6.5-1.2.7-.5.2-1.1.2-1 0-1.6-.5-.5-.5-.5-1.2 0-.5.2-.9t.5-.6l.8-.3 1-.2q1.2-.1 1.8-.4v-.2q0-.7-.3-1-.4-.3-1.2-.3-.7 0-1.1.3-.4.2-.5.9l-1-.2q0-.6.4-1 .3-.4 1-.6.6-.3 1.3-.3.8 0 1.3.2l.8.5.3.7v2.4l.1 1.8.3.8h-1.1q-.2-.3-.2-.8Zm-.1-2.3-1.7.4q-.7 0-1 .2l-.4.3-.1.5q0 .4.3.7.3.3 1 .3.5 0 1-.3.5-.2.7-.7.2-.4.2-1v-.4Zm2.8 3.6 1 .2q.1.4.4.7.4.3 1 .3.8 0 1.2-.3.4-.3.5-.9l.1-1.3q-.7.8-1.7.8-1.3 0-2-1-.7-.9-.7-2.1 0-1 .3-1.7.4-.8 1-1.2.6-.4 1.4-.4 1.1 0 1.8 1v-.8h1v5.4q0 1.4-.3 2-.3.6-1 1-.6.3-1.5.3-1.1 0-1.8-.5t-.7-1.5Zm.9-3.7q0 1.2.5 1.8.5.5 1.2.5t1.2-.5q.5-.6.5-1.8 0-1.1-.5-1.7-.5-.6-1.2-.6t-1.2.6q-.5.6-.5 1.7Zm10.6 1.2 1 .1q-.2 1-.9 1.5t-1.8.5q-1.3 0-2.1-.8-.8-.9-.8-2.4t.8-2.4q.8-.9 2-.9 1.3 0 2.1.9.8.8.8 2.4v.3h-4.6q0 1 .5 1.5.6.6 1.3.6.6 0 1-.3t.7-1Zm-3.5-1.7h3.5q0-.8-.4-1.2-.5-.6-1.3-.6-.7 0-1.2.5t-.6 1.3Zm8.8.6q0-1.7 1-2.6.8-.7 2-.7t2 .9q.9.8.9 2.3 0 1.2-.4 1.9t-1 1q-.7.4-1.6.4-1.3 0-2-.8-.9-.8-.9-2.4Zm1.1 0q0 1.2.5 1.8.6.6 1.3.6.8 0 1.4-.6.5-.6.5-1.8 0-1.2-.6-1.8-.5-.6-1.3-.6-.7 0-1.3.6-.5.6-.5 1.8Zm6.6 3.1v-5.4h-1v-.8h1v-1.7l.6-.6q.4-.2 1-.2h1v1h-.7l-.7.1q-.2.2-.2.8v.6h1.2v.8h-1.2v5.4h-1Zm5.7 2.4V345h1v.8q.3-.5.7-.7.5-.3 1-.3.9 0 1.5.4t.9 1.2q.3.7.3 1.6 0 1-.3 1.8-.4.7-1 1.1-.7.4-1.4.4l-1-.2q-.4-.2-.6-.5v3h-1Zm1-5.5q0 1.2.5 1.8.4.6 1.1.6.7 0 1.2-.6t.5-1.9q0-1.2-.4-1.7-.5-.6-1.2-.6t-1.2.6q-.5.6-.5 1.8Zm10 2.3q-.5.5-1 .7l-1.2.2q-1 0-1.6-.5-.5-.5-.5-1.2 0-.5.2-.9t.5-.6l.8-.3 1-.2q1.2-.1 1.8-.4v-.2q0-.7-.3-1-.4-.3-1.2-.3-.7 0-1.1.3-.4.2-.5.9l-1-.2q0-.6.4-1 .3-.4 1-.6.6-.3 1.3-.3.8 0 1.3.2l.8.5.3.7v2.4l.1 1.8.3.8h-1.1q-.2-.3-.2-.8Zm0-2.3-1.7.4q-.7 0-1 .2l-.4.3-.1.5q0 .4.3.7.3.3 1 .3.5 0 1-.3.5-.2.7-.7.2-.4.2-1v-.4Zm2.8 3.6 1 .2q.1.4.4.7.4.3 1 .3.8 0 1.2-.3.4-.3.5-.9l.1-1.3q-.7.8-1.7.8-1.3 0-2-1-.7-.9-.7-2.1 0-1 .3-1.7.4-.8 1-1.2.6-.4 1.4-.4 1.1 0 1.8 1v-.8h1v5.4q0 1.4-.3 2-.3.6-1 1-.6.3-1.5.3-1.1 0-1.8-.5t-.7-1.5Zm.9-3.7q0 1.2.5 1.8.5.5 1.2.5t1.2-.5q.5-.6.5-1.8 0-1.1-.5-1.7-.5-.6-1.2-.6t-1.2.6q-.5.6-.5 1.7Zm10.6 1.2 1 .1q-.2 1-.9 1.5t-1.8.5q-1.3 0-2.1-.8-.8-.9-.8-2.4t.8-2.4q.8-.9 2-.9 1.3 0 2.1.9.8.8.8 2.4v.3h-4.6q0 1 .5 1.5.6.6 1.3.6.6 0 1-.3t.7-1Zm-3.5-1.7h3.5q0-.8-.4-1.2-.5-.6-1.3-.6-.7 0-1.2.5t-.6 1.3Zm5.8 1.8 1-.1q.1.6.5 1 .4.3 1.2.3.7 0 1-.3.4-.3.4-.7 0-.4-.3-.6l-1.1-.3-1.6-.5-.7-.6q-.2-.4-.2-.9 0-.4.2-.7.1-.4.5-.6l.6-.3 1-.2q.7 0 1.2.3.6.2.9.5l.3 1-1 .1q0-.5-.4-.7-.3-.3-1-.3t-1 .2q-.3.3-.3.6l.1.4.4.2 1 .3 1.5.5q.5.2.7.6.3.3.3.9 0 .5-.4 1-.2.4-.8.7-.6.2-1.3.2-1.3 0-1.9-.5-.6-.5-.8-1.5ZM26.5 264.8l.3-1.2q1.4.4 2.2 1.3.7 1 .7 2.3 0 1.4-.6 2.3-.5.8-1.6 1.3-1 .4-2.3.4-1.4 0-2.4-.5t-1.5-1.4q-.5-1-.5-2.1 0-1.3.7-2.2.6-.9 1.8-1.2l.3 1.1q-1 .3-1.4.9-.4.6-.4 1.4 0 1 .5 1.7.4.6 1.2.9.8.3 1.7.3 1 0 1.9-.3.8-.4 1.2-1 .4-.7.4-1.5 0-1-.5-1.6-.6-.7-1.7-1Zm0-2.4q-1.8 0-2.6-1-.7-.7-.7-1.9 0-1.3.8-2 .9-.9 2.3-.9 1.2 0 2 .4.6.3 1 1t.4 1.5q0 1.3-.8 2.1-.9.8-2.5.8Zm0-1q1.1 0 1.7-.6.6-.5.6-1.3t-.6-1.3q-.6-.5-1.8-.5-1.1 0-1.7.5-.6.5-.6 1.3t.6 1.3q.5.6 1.7.6Zm0-6q-1.8 0-2.6-1-.7-.7-.7-1.9 0-1.3.8-2 .9-.9 2.3-.9 1.2 0 2 .4.6.3 1 1t.4 1.5q0 1.3-.8 2.1-.9.8-2.5.8Zm0-1q1.1 0 1.7-.6.6-.5.6-1.3t-.6-1.3q-.6-.5-1.8-.5-1.1 0-1.7.5-.6.5-.6 1.3t.6 1.3q.5.6 1.7.6Zm3-6.4H21v-1h4.9l-2.6-2.5V243l2.3 2.4 4-2.6v1.3l-3.2 2 .7.8h2.4v1Zm-7.3-6H21v-1h1.2v1Zm7.3 0h-6.2v-1h6.2v1Zm-2-7.2.2-1.1q1 .2 1.5 1 .5.7.5 1.7 0 1.4-.9 2.2-.8.8-2.3.8-1.6 0-2.4-.8-1-.8-1-2.1t1-2q.8-.8 2.3-.8h.3v4.6q1 0 1.6-.6.5-.5.5-1.3 0-.5-.3-1-.3-.4-1-.6Zm-1.7 3.4v-3.4q-.8 0-1.1.4-.7.5-.7 1.3 0 .7.5 1.2t1.3.5Zm3.7-9.2h-6.2v-.9h1q-1.1-.7-1.1-2l.2-1q.2-.5.5-.7l.8-.4h4.8v1h-3.7q-.7 0-1 .2-.3 0-.5.4-.2.3-.2.7 0 .7.4 1.2.5.5 1.6.5h3.4v1Zm-.7-11 .7 1.1q.2.5.2 1.2 0 1-.5 1.6-.5.5-1.3.5l-.8-.2q-.4-.2-.6-.6-.3-.3-.4-.7l-.1-1-.4-1.8h-.3q-.6 0-.9.3-.3.4-.3 1.2 0 .7.2 1 .3.4 1 .6l-.2 1q-.7-.1-1-.4-.5-.4-.7-1-.2-.6-.2-1.4 0-.8.2-1.3l.4-.7q.3-.3.8-.3h2.3q1.5 0 1.9-.2.4 0 .7-.2v1l-.7.3Zm-2.4 0q.3.6.4 1.8l.2 1 .4.3q.2.2.5.2.4 0 .7-.3.3-.4.3-1t-.3-1q-.3-.5-.7-.8l-1-.1h-.5Zm3.1-3h-6.2v-.9h1q-.6-.3-.8-.8-.3-.5-.3-1 0-.8.3-1.2.3-.5.8-.6-1.1-.8-1.1-2 0-.9.5-1.4.5-.5 1.6-.5h4.2v1h-3.9q-.6 0-.9.2-.3 0-.4.3t-.2.7q0 .6.4 1 .5.5 1.4.5h3.6v1h-4q-.7 0-1 .3-.4.3-.4.8t.2.9l.7.5q.5.2 1.3.2h3.2v1Zm-2-15.2.2-1.1q1 .2 1.5 1 .5.7.5 1.7 0 1.4-.9 2.2-.8.8-2.3.8-1.6 0-2.4-.8-1-.8-1-2.1t1-2q.8-.8 2.3-.8h.3v4.6q1 0 1.6-.6.5-.5.5-1.3 0-.5-.3-1-.3-.4-1-.6Zm-1.7 3.4v-3.4q-.8 0-1.1.4-.7.5-.7 1.3 0 .7.5 1.2t1.3.5Zm2.7-14q.6.4 1 1l.2 1.4q0 1.3-.9 2-.7.7-1.6.7-.8 0-1.5-.5-.6-.5-1-1.5l-1.2.8-.8.1q-.7 0-1.3-.6-.6-.6-.6-1.5t.6-1.4q.5-.6 1.2-.6 1.3 0 2.1 1.6l2-1.5q-.5-.3-1.2-.4l.2-1.1q1.2.3 1.9.7.8-.5 1.3-1.3l.9.7q-.5.7-1.3 1.3Zm-4.4 2-.7-.8-.7-.2q-.5 0-.7.3-.3.2-.3.7 0 .4.3.7.2.3.6.3l.4-.1.5-.4.6-.4Zm3.6-1.4-2.4 2q.5.8 1 1 .4.4.8.4.5 0 1.1-.4.6-.4.6-1.2 0-.5-.3-1t-.8-.8Zm-1.3-6.4q-1.7 0-2.5-1-.7-.7-.7-1.9 0-1.3.8-2 .9-.9 2.3-.9 1.2 0 2 .4.6.3 1 1t.4 1.5q0 1.3-.8 2.1-.9.8-2.5.8Zm0-1q1.2 0 1.8-.6.6-.5.6-1.3t-.6-1.3q-.6-.5-1.8-.5-1.1 0-1.7.5-.6.5-.6 1.3t.6 1.3q.5.6 1.7.6Zm3.1-6.3h-6.2v-1h1q-.7-.4-.9-.7l-.2-.6q0-.6.3-1.1l1 .3-.2.8q0 .4.2.6.2.3.6.4.5.2 1.2.2h3.2v1Zm-7.3-4H21V171h1.2v1Zm7.3 0h-6.2V171h6.2v1Zm.6-2.9.1-1q.5 0 .7-.3.3-.4.3-1.1 0-.7-.3-1.1-.3-.4-.8-.6h-1.4q.8.6.8 1.7 0 1.2-.9 2-1 .6-2.2.6-.9 0-1.6-.3-.8-.3-1.2-1-.4-.5-.4-1.3 0-1.2.9-1.9h-.8v-1h5.4q1.5 0 2 .4.7.3 1 .9.4.6.4 1.6t-.5 1.8q-.5.7-1.5.6Zm-3.8-.8q1.2 0 1.8-.5.6-.5.6-1.2 0-.8-.6-1.3t-1.7-.5q-1.2 0-1.8.6-.5.5-.5 1.2t.5 1.2q.6.5 1.7.5Zm-4.1-6.4H21v-1h1.2v1Zm7.3 0h-6.2v-1h6.2v1Zm0-3h-6.2v-.9h1q-1.1-.7-1.1-2l.2-1q.2-.5.5-.7l.8-.4h4.8v1h-3.7q-.7 0-1 .2-.3 0-.5.4-.2.3-.2.7 0 .7.4 1.2.5.5 1.6.5h3.4v1Zm71.2-45.6.1 1h-.8q-.6 0-.9-.2-.3-.2-.4-.5-.2-.2-.2-1.2v-3.6h-.7v-.8h.7v-1.5l1-.7v2.2h1.1v.8h-1v4.2l.2.2.4.1h.4Zm4.9-1h1.1q-.3 1-1 1.5t-1.7.6q-1.4 0-2.2-.9-.8-.8-.8-2.3 0-1.6.8-2.5.8-.8 2.1-.8 1.2 0 2 .8.8.9.8 2.4v.3h-4.6q0 1 .6 1.6.5.5 1.3.5.5 0 1-.3.4-.3.6-1Zm-3.5-1.8h3.5q0-.8-.4-1.2-.5-.6-1.3-.6-.7 0-1.2.5t-.6 1.3Zm5.8 1.9 1-.2.5 1q.5.3 1.2.3t1-.3q.4-.3.4-.7 0-.4-.3-.6l-1-.3-1.7-.5q-.4-.2-.7-.6-.2-.4-.2-.9 0-.4.2-.7.2-.4.5-.6l.7-.3.9-.1q.7 0 1.3.2l.8.5q.3.4.4 1l-1 .1q-.1-.4-.5-.7-.3-.3-1-.3t-1 .3q-.3.2-.3.5l.1.4.4.3 1 .2 1.5.5q.5.2.7.6.3.4.3.9t-.3 1q-.3.5-.9.7-.6.3-1.3.3-1.2 0-1.9-.5-.6-.5-.8-1.5Zm9.7.9.2 1h-.8q-.6 0-.9-.2-.3-.2-.4-.5-.2-.2-.2-1.2v-3.6h-.7v-.8h.7v-1.5l1-.7v2.2h1.1v.8h-1v4.2l.2.2.4.1h.4Zm-.2 3.3v-.7h7v.7h-7Zm12-4.7 1 .2q-.1 1-.8 1.7-.7.6-1.7.6-1.3 0-2.1-.9-.8-.8-.8-2.4 0-1 .4-1.7.3-.8 1-1.2.7-.3 1.5-.3 1 0 1.6.5.7.5.9 1.4l-1 .2q-.2-.6-.6-1-.4-.3-.9-.3-.8 0-1.3.6t-.5 1.8q0 1.3.5 1.8.5.6 1.2.6t1-.4q.5-.4.6-1.2Zm1.6-.8q0-1.7 1-2.5.7-.7 1.9-.7t2 .8q.9.8.9 2.3 0 1.2-.4 2-.3.6-1 1t-1.5.4q-1.3 0-2.1-.9-.8-.8-.8-2.4Zm1 0q0 1.2.6 1.8.5.6 1.3.6t1.3-.6q.5-.6.5-1.8 0-1.2-.5-1.8-.6-.6-1.3-.6t-1.3.6q-.6.6-.6 1.8Zm6 0q0-1.7 1-2.5.7-.7 1.9-.7t2 .8q.9.8.9 2.3 0 1.2-.4 2-.3.6-1 1t-1.5.4q-1.3 0-2.1-.9-.8-.8-.8-2.4Zm1 0q0 1.2.6 1.8.5.6 1.3.6t1.3-.6q.5-.6.5-1.8 0-1.2-.5-1.8-.6-.6-1.3-.6t-1.3.6q-.6.6-.6 1.8Zm6.4 3.1v-8.6h1v5l2.5-2.6h1.4l-2.4 2.3 2.6 4h-1.3l-2-3.3-.8.8v2.4h-1Zm6-7.3v-1.3h1v1.3h-1Zm0 7.3v-6.2h1v6.2h-1Zm7.2-2 1.1.2q-.3.9-1 1.4t-1.7.6q-1.4 0-2.2-.9-.8-.8-.8-2.3 0-1.6.8-2.5.8-.8 2.1-.8 1.2 0 2 .8.8.9.8 2.4v.3h-4.6q0 1 .6 1.6.5.5 1.3.5.5 0 1-.3.4-.3.6-1Zm-3.5-1.7h3.5q0-.8-.4-1.2-.5-.6-1.3-.6-.7 0-1.2.5t-.6 1.3Zm8.8 1.1v-1h3.3v1h-3.3Zm11.5 2.6v-.8q-.6 1-1.8 1-.7 0-1.3-.4-.7-.5-1-1.2-.3-.7-.3-1.7 0-.9.3-1.7.3-.7 1-1.1.5-.4 1.3-.4.6 0 1 .2t.7.6v-3h1v8.5h-1Zm-3.3-3q0 1.1.5 1.7.5.6 1.1.6.7 0 1.2-.6.5-.5.5-1.7 0-1.3-.5-1.9-.5-.6-1.2-.6t-1.2.6q-.4.6-.4 1.8Zm5.9 0q0-1.8 1-2.6.7-.7 1.9-.7t2 .8q.9.8.9 2.3 0 1.2-.4 2-.3.6-1 1t-1.5.4q-1.3 0-2.1-.9-.8-.8-.8-2.4Zm1 0q0 1.1.6 1.7.5.6 1.3.6t1.3-.6q.5-.6.5-1.8 0-1.2-.5-1.8-.6-.6-1.3-.6t-1.3.6q-.6.6-.6 1.8Zm10.4 3v-.9q-.7 1-2 1l-1-.1-.7-.6-.3-.8v-4.8h1v4.5q.1.5.5.7.3.3.8.3.4 0 .8-.3.5-.2.6-.6.2-.5.2-1.3v-3.3h1v6.2h-.9Zm4 0h-1v-8.6h1v3.1q.7-.8 1.7-.8.6 0 1 .2.6.2 1 .6l.5 1 .1 1.3q0 1.6-.8 2.5t-1.8.9q-1.2 0-1.8-1v.8Zm0-3.1q0 1 .2 1.6.5.8 1.4.8.6 0 1.1-.6.6-.6.6-1.8 0-1.2-.5-1.8-.5-.6-1.2-.6t-1.2.6q-.5.6-.5 1.8Zm6 3.1v-8.6h1v8.6h-1Zm7.2-2 1.1.2q-.3.9-1 1.4t-1.7.6q-1.4 0-2.2-.9-.8-.8-.8-2.3 0-1.6.8-2.5.8-.8 2.1-.8 1.2 0 2 .8.8.9.8 2.4v.3h-4.6q0 1 .6 1.6.5.5 1.3.5.5 0 1-.3.4-.3.6-1Zm-3.5-1.7h3.5q0-.8-.4-1.2-.5-.6-1.3-.6-.7 0-1.2.5t-.6 1.3Zm10.3 1.4 1 .2q-.1 1-.8 1.7-.7.6-1.7.6-1.3 0-2.1-.9-.8-.8-.8-2.4 0-1 .4-1.7.3-.8 1-1.2.7-.3 1.5-.3 1 0 1.6.5.7.5.9 1.4l-1 .2q-.2-.6-.6-1-.4-.3-.9-.3-.8 0-1.3.6t-.5 1.8q0 1.3.5 1.8.5.6 1.2.6t1-.4q.5-.4.6-1.2Zm2 2.3v-8.6h1v8.6h-1Zm3-7.3v-1.3h1v1.3h-1Zm0 7.3v-6.2h1v6.2h-1Zm7-2.3 1 .2q-.1 1-.8 1.7-.7.6-1.7.6-1.3 0-2.1-.9-.8-.8-.8-2.4 0-1 .4-1.7.3-.8 1-1.2.7-.3 1.5-.3 1 0 1.6.5.7.5.9 1.4l-1 .2q-.2-.6-.6-1-.4-.3-.9-.3-.8 0-1.3.6t-.5 1.8q0 1.3.5 1.8.5.6 1.2.6t1-.4q.5-.4.6-1.2Zm2 2.3v-8.6h1v5l2.5-2.6h1.4l-2.4 2.3 2.6 4h-1.3l-2-3.3-.8.8v2.4h-1Zm6.2 0v-1.2h1.3v1.2h-1.3Zm2.8 0v-6.2h.9v.9q.7-1 2-1l1 .2q.5.2.7.5.3.3.4.8v4.8h-1v-3.8q0-.6-.2-1l-.4-.4q-.3-.2-.7-.2-.7 0-1.2.4t-.5 1.6v3.4h-1Zm11.2-2 1.1.2q-.3.9-1 1.4t-1.7.6q-1.4 0-2.2-.9-.8-.8-.8-2.3 0-1.6.8-2.5.8-.8 2.1-.8 1.2 0 2 .8.8.9.8 2.4v.3h-4.6q0 1 .6 1.6.5.5 1.3.5.5 0 1-.3.4-.3.6-1Zm-3.5-1.7h3.5q0-.8-.4-1.2-.5-.6-1.3-.6-.7 0-1.2.5t-.6 1.3Zm8.5 2.8.2 1h-.8q-.6 0-.9-.2-.3-.2-.4-.5-.2-.2-.2-1.2v-3.6h-.7v-.8h.7v-1.5l1-.7v2.2h1.1v.8h-1v4.2l.2.2.4.1h.4Zm-93 21V129h-1v-.8h1v-.7l.1-1 .5-.6q.4-.2 1.1-.2h1l-.2 1h-.6l-.7.1q-.2.2-.2.8v.6h1.3v.8h-1.3v5.4h-1Zm2.7 0v-6.2h1v1l.6-1 .7-.2q.6 0 1.1.4l-.3 1q-.4-.3-.8-.3t-.7.2l-.3.6-.2 1.2v3.3h-1Zm6.6-2.6v-1h3.3v1h-3.3Zm7.7 2.6V129h-1v-.8h1v-.7l.1-1 .5-.6q.4-.2 1.1-.2h1l-.2 1h-.6l-.7.1q-.2.2-.2.8v.6h1.3v.8h-1.3v5.4h-1Zm6.8-.8-1.1.7-1.2.2q-1 0-1.6-.5-.5-.5-.5-1.2 0-.5.2-.9t.5-.6l.8-.3 1-.2q1.2-.1 1.8-.4v-.2q0-.7-.3-1-.4-.3-1.2-.3-.7 0-1 .3-.4.2-.6.9l-1-.2q.1-.6.4-1 .4-.4 1-.6.6-.3 1.4-.3.8 0 1.3.2t.7.5l.3.7v2.4l.1 1.8.3.8h-1l-.3-.8Zm0-2.3-1.8.4q-.7 0-1 .2l-.3.3q-.2.2-.2.5 0 .4.3.7.4.3 1 .3t1-.3q.5-.2.7-.7.2-.4.2-1v-.4Zm7 .8 1 .1q-.1 1.1-.8 1.7-.7.6-1.7.6-1.3 0-2.1-.8t-.8-2.4q0-1 .4-1.8.3-.7 1-1 .7-.5 1.5-.5 1 0 1.6.5.7.5.9 1.5l-1 .2q-.2-.7-.6-1-.4-.3-.9-.3-.8 0-1.3.6-.5.5-.5 1.8 0 1.2.5 1.8.5.6 1.2.6t1-.4q.5-.4.6-1.2Zm6.2.3 1.1.1q-.3 1-1 1.5t-1.7.5q-1.4 0-2.2-.8-.8-.9-.8-2.4t.8-2.4q.8-.9 2.1-.9 1.2 0 2 .9.8.8.8 2.4v.2h-4.6q0 1 .6 1.6.5.6 1.3.6.5 0 1-.3.4-.4.6-1Zm-3.5-1.7h3.5q0-.8-.4-1.2-.5-.6-1.3-.6-.7 0-1.2.5t-.6 1.3Zm7.2 3.7h-1v-8.6h1.1v3q.7-.8 1.7-.8.6 0 1 .3.6.2 1 .6l.5 1 .1 1.3q0 1.6-.8 2.5-.8.8-1.8.8-1.2 0-1.8-.9v.8Zm0-3.2q0 1.1.3 1.6.5.9 1.4.9.6 0 1.1-.6.6-.6.6-1.8 0-1.3-.5-1.8-.5-.6-1.2-.6t-1.2.6q-.5.6-.5 1.7Zm5.7 0q0-1.7 1-2.5.7-.7 1.9-.7t2 .9q.9.8.9 2.3 0 1.2-.4 1.9-.3.7-1 1-.7.4-1.5.4-1.3 0-2.1-.8t-.8-2.4Zm1 0q0 1.3.6 1.9.5.6 1.3.6t1.3-.6q.5-.6.5-1.8 0-1.2-.5-1.8-.6-.6-1.3-.6t-1.3.6q-.6.6-.6 1.8Zm6 0q0-1.7 1-2.5.7-.7 1.9-.7t2 .9q.9.8.9 2.3 0 1.2-.4 1.9-.3.7-1 1-.7.4-1.5.4-1.3 0-2.1-.8t-.8-2.4Zm1 0q0 1.3.6 1.9.5.6 1.3.6t1.3-.6q.5-.6.5-1.8 0-1.2-.5-1.8-.6-.6-1.3-.6t-1.3.6q-.6.6-.6 1.8Zm6.4 3.2v-8.6h1v4.9l2.5-2.5h1.4l-2.4 2.3 2.6 3.9h-1.3l-2-3.2-.8.7v2.5h-1Zm6.2 0v-1.2h1.3v1.2h-1.3Zm6.8-2.3 1 .1q-.1 1.1-.8 1.7-.7.6-1.7.6-1.3 0-2.1-.8t-.8-2.4q0-1 .4-1.8.3-.7 1-1 .7-.5 1.5-.5 1 0 1.6.5.7.5.9 1.5l-1 .2q-.2-.7-.6-1-.4-.3-.9-.3-.8 0-1.3.6-.5.5-.5 1.8 0 1.2.5 1.8.5.6 1.2.6t1-.4q.5-.4.6-1.2Zm1.6-.8q0-1.8 1-2.6.7-.7 1.9-.7t2 .9q.9.8.9 2.3 0 1.2-.4 1.9-.3.7-1 1-.7.4-1.5.4-1.3 0-2.1-.8t-.8-2.4Zm1 0q0 1.2.6 1.8.5.6 1.3.6t1.3-.6q.5-.6.5-1.8 0-1.2-.5-1.8-.6-.6-1.3-.6t-1.3.6q-.6.6-.6 1.8Zm6.4 3v-6.1h.9v.8q.3-.4.8-.7.5-.3 1-.3.8 0 1.2.3.5.3.6.8.8-1 2-1 .9 0 1.4.4.5.5.5 1.6v4.3h-1v-4q0-.6-.2-.8 0-.3-.3-.5t-.7-.2q-.6 0-1 .5-.5.4-.5 1.4v3.6h-1v-4q0-.8-.3-1.1-.3-.4-.9-.4-.4 0-.8.3-.4.2-.5.7-.2.4-.2 1.3v3.2h-1Zm-100.7 20.2v-8.6h1.1v8.6h-1.1Zm2.8 0v-8.6h4.5l1.2.7q.7.6 1 1.5.4.9.4 2 0 1-.2 1.7l-.6 1.3q-.3.5-.8.8-.4.3-1 .4-.6.2-1.4.2h-3.1Zm1.1-1h1.8q1 0 1.4-.2l.8-.5q.4-.4.6-1 .2-.7.2-1.7 0-1.3-.4-2-.5-.8-1.1-1-.5-.2-1.5-.2h-1.8v6.5Zm8 1v-8.6h6.1v1h-5v2.6h4.7v1h-4.8v3h5.3v1h-6.4Zm10.3-2.6v-1h3.3v1h-3.3Zm11.5 2.6v-.8q-.6.9-1.8.9-.7 0-1.3-.4-.7-.4-1-1.2-.3-.7-.3-1.7 0-.9.3-1.6.3-.8 1-1.2.5-.4 1.3-.4.6 0 1 .2l.7.6v-3h1v8.6h-1Zm-3.3-3.2q0 1.2.5 1.8.5.6 1.1.6.7 0 1.2-.5.5-.6.5-1.8 0-1.2-.5-1.8-.5-.6-1.2-.6t-1.2.5q-.4.6-.4 1.8Zm5.9 0q0-1.7 1-2.5.7-.7 1.9-.7t2 .8q.9.9.9 2.4 0 1.2-.4 1.8-.3.7-1 1.1-.7.4-1.5.4-1.3 0-2.1-.8-.8-.9-.8-2.5Zm1 0q0 1.2.6 1.8.5.6 1.3.6t1.3-.6q.5-.6.5-1.8 0-1.1-.5-1.7-.6-.6-1.3-.6t-1.3.6q-.6.5-.6 1.7Zm10.4 3.2v-1q-.7 1.1-2 1.1l-1-.2q-.5-.2-.7-.5l-.3-.8v-4.9h1v4.6q.1.4.5.7.3.2.8.2l.8-.2q.5-.3.6-.7.2-.4.2-1.2v-3.4h1v6.3h-.9Zm4 0h-1v-8.6h1v3q.7-.8 1.7-.8.6 0 1 .2.6.2 1 .7l.5 1 .1 1.3q0 1.5-.8 2.4t-1.8.9q-1.2 0-1.8-1v.9Zm0-3.2q0 1.1.2 1.6.5.8 1.4.8.6 0 1.1-.6.6-.6.6-1.8 0-1.2-.5-1.8-.5-.5-1.2-.5t-1.2.6q-.5.6-.5 1.7Zm6 3.2v-8.6h1v8.6h-1Zm7.2-2h1.1q-.3 1-1 1.6t-1.7.5q-1.4 0-2.2-.8-.8-.9-.8-2.4 0-1.6.8-2.4.8-.9 2.1-.9 1.2 0 2 .8.8.9.8 2.4v.3h-4.6q0 1 .6 1.6.5.5 1.3.5.5 0 1-.3.4-.3.6-1Zm-3.5-1.7h3.5q0-.8-.4-1.2-.5-.6-1.3-.6-.7 0-1.2.4-.5.5-.6 1.4Zm10.3 1.4 1 .1q-.1 1-.8 1.7-.7.6-1.7.6-1.3 0-2.1-.8-.8-.9-.8-2.4 0-1 .4-1.8.3-.8 1-1.1.7-.4 1.5-.4 1 0 1.6.5.7.5.9 1.5l-1 .1q-.2-.6-.6-1-.4-.2-.9-.2-.8 0-1.3.5-.5.6-.5 1.8 0 1.3.5 1.9.5.5 1.2.5t1-.4q.5-.3.6-1.1Zm2 2.3v-8.6h1v8.6h-1Zm3-7.4v-1.2h1v1.2h-1Zm0 7.4v-6.3h1v6.3h-1Zm7-2.3 1 .1q-.1 1-.8 1.7-.7.6-1.7.6-1.3 0-2.1-.8-.8-.9-.8-2.4 0-1 .4-1.8.3-.8 1-1.1.7-.4 1.5-.4 1 0 1.6.5.7.5.9 1.5l-1 .1q-.2-.6-.6-1-.4-.2-.9-.2-.8 0-1.3.5-.5.6-.5 1.8 0 1.3.5 1.9.5.5 1.2.5t1-.4q.5-.3.6-1.1Zm2 2.3v-8.6h1v4.9l2.5-2.6h1.4l-2.4 2.3 2.6 4h-1.3l-2-3.2-.8.7v2.5h-1Zm6.2 0v-1.2h1.3v1.2h-1.3Zm2.8 0v-6.3h.9v1q.7-1.1 2-1.1l1 .2q.5.2.7.5l.4.8v4.9h-1v-3.8q0-.7-.2-1-.1-.3-.4-.5-.3-.2-.7-.2-.7 0-1.2.4-.5.5-.5 1.7v3.4h-1Zm11.2-2h1.1q-.3 1-1 1.6t-1.7.5q-1.4 0-2.2-.8-.8-.9-.8-2.4 0-1.6.8-2.4.8-.9 2.1-.9 1.2 0 2 .8.8.9.8 2.4v.3h-4.6q0 1 .6 1.6.5.5 1.3.5.5 0 1-.3.4-.3.6-1Zm-3.5-1.7h3.5q0-.8-.4-1.2-.5-.6-1.3-.6-.7 0-1.2.4-.5.5-.6 1.4Zm8.5 2.7.2 1h-.8l-.9-.1q-.3-.2-.4-.5-.2-.3-.2-1.3V149h-.7v-.8h.7v-1.5l1-.6v2.1h1.1v.8h-1v4.3l.2.2h.8Zm-100.7 21V171l-3.3-5h1.4l1.7 2.6.8 1.5 1-1.5 1.6-2.6h1.4l-3.5 5v3.6h-1Zm4.2-2.7 1-.1q.1.6.4 1 .3.4.9.7.6.2 1.3.2l1.2-.1q.5-.2.7-.6.2-.3.2-.7 0-.4-.2-.7-.2-.3-.8-.5-.3-.2-1.5-.4-1.2-.3-1.6-.6-.7-.3-1-.8-.3-.5-.3-1 0-.7.4-1.3.4-.5 1-.8.8-.3 1.6-.3 1 0 1.7.3.8.3 1.2.9.3.6.4 1.3l-1.1.1q-.1-.8-.6-1.2-.5-.4-1.5-.4t-1.5.4q-.5.3-.5.9 0 .4.4.7.3.3 1.7.6l1.9.6q.7.3 1 .9.4.5.4 1.2t-.4 1.3q-.4.6-1 1-.8.3-1.7.3-1.2 0-2-.4-.8-.3-1.2-1-.5-.7-.5-1.5Zm14.5-.3 1.1.3q-.3 1.4-1.2 2.1-1 .8-2.3.8-1.4 0-2.3-.6-.8-.6-1.3-1.6-.5-1.1-.5-2.3 0-1.4.6-2.4.5-1 1.4-1.5 1-.5 2.1-.5 1.3 0 2.2.6.9.7 1.2 1.9l-1.1.3q-.3-1-.9-1.4-.6-.4-1.4-.4-1 0-1.7.4-.6.5-1 1.3-.2.8-.2 1.7 0 1 .3 1.9.4.8 1 1.2.7.4 1.5.4 1 0 1.6-.6.7-.5 1-1.6Zm5.3.4v-1h3.3v1h-3.3Zm7.4 5-.1-1 .6.1.5-.1.4-.3.3-.8.1-.3-2.4-6.2h1.2l1.3 3.6.4 1.4.5-1.4 1.3-3.6h1l-2.3 6.3-.6 1.4q-.3.6-.7.8-.3.3-.8.3l-.7-.2Zm4.7-5.5q0-1.7 1-2.6.7-.6 1.9-.6t2 .8q.9.8.9 2.3 0 1.2-.4 2-.3.6-1 1t-1.5.4q-1.3 0-2.1-.9-.8-.8-.8-2.4Zm1 0q0 1.2.6 1.8.5.6 1.3.6t1.3-.6q.5-.6.5-1.8 0-1.2-.5-1.8-.6-.6-1.3-.6t-1.3.6q-.6.6-.6 1.8Zm10.4 3.1v-.9q-.7 1-2 1l-1-.1-.7-.6-.3-.8v-4.8h1v4.5q.1.5.5.7.3.3.8.3.4 0 .8-.3.5-.2.6-.7.2-.4.2-1.2v-3.3h1v6.2h-.9Zm5.3-1 .1 1-.8.1q-.6 0-.9-.2-.3-.2-.4-.5-.2-.3-.2-1.2V169h-.7v-.8h.7v-1.5l1-.7v2.2h1.1v.8h-1v4.2l.2.2.4.1h.4Zm4.7 1v-.9q-.7 1-2 1l-1-.1-.7-.6-.3-.8v-4.8h1v4.5q.1.5.5.7.3.3.8.3.4 0 .8-.3.5-.2.6-.7.2-.4.2-1.2v-3.3h1v6.2h-.9Zm4 0h-1V166h1v3q.7-.7 1.7-.7.6 0 1 .2.6.2 1 .6l.5 1 .1 1.3q0 1.6-.8 2.5-.8.9-1.8.9-1.2 0-1.8-1v.8Zm0-3.1q0 1 .2 1.6.5.8 1.4.8.6 0 1.1-.6.6-.6.6-1.8 0-1.2-.5-1.8-.5-.6-1.2-.6t-1.2.6q-.5.6-.5 1.8Zm10.2 1.1 1.1.1q-.3 1-1 1.5-.7.6-1.7.6-1.4 0-2.2-.9-.8-.8-.8-2.3 0-1.6.8-2.5.8-.8 2.1-.8 1.2 0 2 .8t.8 2.4v.3h-4.6q0 1 .6 1.6.5.5 1.3.5.5 0 1-.3.4-.3.6-1Zm-3.5-1.7h3.5q0-.8-.4-1.2-.5-.6-1.3-.6-.7 0-1.2.5t-.6 1.3Zm6.5 3.7v-1.2h1.3v1.2h-1.3Zm6.8-2.3 1 .2q-.1 1-.8 1.7-.7.6-1.7.6-1.3 0-2.1-.9-.8-.8-.8-2.4 0-1 .4-1.7.3-.8 1-1.2.7-.3 1.5-.3 1 0 1.6.5.7.5.9 1.4l-1 .2q-.2-.6-.6-1-.4-.3-.9-.3-.8 0-1.3.6t-.5 1.8q0 1.3.5 1.8.5.6 1.2.6t1-.4q.5-.4.6-1.2Zm1.6-.8q0-1.7 1-2.6.7-.6 1.9-.6t2 .8q.9.8.9 2.3 0 1.2-.4 2-.3.6-1 1t-1.5.4q-1.3 0-2.1-.9-.8-.8-.8-2.4Zm1 0q0 1.2.6 1.8.5.6 1.3.6t1.3-.6q.5-.6.5-1.8 0-1.2-.5-1.8-.6-.6-1.3-.6t-1.3.6q-.6.6-.6 1.8Zm6.4 3.1v-6.2h.9v.9q.3-.5.8-.8l1-.2q.8 0 1.2.2.5.3.6.8.8-1 2-1 .9 0 1.4.5.5.5.5 1.6v4.2h-1v-3.9q0-.6-.2-1 0-.2-.3-.4l-.7-.1q-.6 0-1 .4-.5.4-.5 1.4v3.6h-1v-4q0-.7-.3-1-.3-.4-.9-.4l-.8.2q-.4.2-.5.7-.2.4-.2 1.3v3.2h-1Zm-162.5 20-3.3-8.5h1.2l2.3 6.2.4 1.4.5-1.4 2.3-6.2h1.2l-3.4 8.6h-1.2Zm4.8 0V186h1.1v8.6h-1.1Zm2.4-2.7h1q.1.6.4 1 .3.4.9.7.6.2 1.3.2.7 0 1.2-.2t.7-.5l.2-.7q0-.5-.2-.7-.2-.4-.8-.6l-1.5-.4-1.6-.5q-.7-.3-1-.8-.3-.5-.3-1 0-.7.4-1.3.4-.6 1-.9.8-.3 1.6-.3 1 0 1.7.4.8.3 1.2.9.3.6.4 1.3h-1.1q-.1-.7-.6-1.1-.5-.5-1.5-.5t-1.5.4q-.5.4-.5 1 0 .4.4.7.3.3 1.7.6 1.3.3 1.9.6.7.3 1 .8.4.6.4 1.3 0 .6-.4 1.3-.4.6-1 .9-.8.3-1.7.3-1.2 0-2-.3t-1.2-1q-.5-.7-.5-1.6Zm8.6 2.8V186h1.1v8.6h-1.1Zm5 0V187h-2.9v-1h6.8v1h-2.8v7.6h-1.1Zm4.4-4.2q0-2.1 1.2-3.3 1.1-1.3 3-1.3 1.1 0 2.1.6t1.5 1.6q.5 1 .5 2.3t-.6 2.3q-.5 1-1.5 1.6-1 .5-2 .5-1.3 0-2.2-.6-1-.5-1.5-1.5t-.5-2.2Zm1.2 0q0 1.6.8 2.5.9.9 2.1.9 1.3 0 2.2-1 .8-.8.8-2.5 0-1-.4-1.8-.3-.8-1-1.2-.7-.5-1.5-.5-1.2 0-2.1.8-.9.9-.9 2.8Zm8.2 4.2V186h3.8q1.2 0 1.8.2.5.3 1 .9.3.5.3 1.2 0 1-.6 1.6-.6.6-1.9.8l.7.4 1 1.1 1.5 2.4h-1.5l-1-1.8-1-1.2q-.2-.4-.5-.5l-.5-.3h-2v3.8h-1.1Zm1.1-4.8h2.5q.8 0 1.2-.2.4-.1.7-.5.2-.3.2-.8 0-.6-.5-1-.4-.4-1.3-.4h-2.8v2.9Zm6.8 7.2v-.8h7v.8h-7Zm8.3-2.4V186h1.1v8.6h-1.1Zm2.8 0V186h1.1l4.5 6.7V186h1.1v8.6h-1.1l-4.5-6.8v6.8h-1.1Zm9 0V186h5.8v1h-4.6v2.7h4v1h-4v3.9h-1.2Zm6.6-4.2q0-2.1 1.2-3.3 1.1-1.3 3-1.3 1.1 0 2.1.6t1.5 1.6q.5 1 .5 2.3t-.6 2.3q-.5 1-1.5 1.6-1 .5-2 .5-1.3 0-2.2-.6-1-.5-1.5-1.5t-.5-2.2Zm1.2 0q0 1.6.8 2.5.9.9 2.1.9 1.3 0 2.2-1 .8-.8.8-2.5 0-1-.4-1.8-.3-.8-1-1.2-.7-.5-1.5-.5-1.2 0-2.1.8-.9.9-.9 2.8Zm11.7 4.2h-1v-6.7l-1 .7q-.6.4-1.1.5v-1q.8-.4 1.5-1t1-1.1h.6v8.6Zm2.4 2.4v-.8h7v.8h-7Zm8-2.4V186h1.2v7.6h4.2v1h-5.4Zm7.3 0V186h1.1v8.6h-1.1Zm5.2 0-3.3-8.6h1.2l2.3 6.2.4 1.4.5-1.4 2.3-6.2h1.2l-3.4 8.6h-1.2Zm4.6 0V186h6.2v1h-5v2.6h4.7v1h-4.8v3h5.3v1h-6.4ZM200 192v-1h3.3v1H200Zm7.4 5-.1-1h1.1l.4-.4.3-.8.1-.2-2.4-6.2h1.2l1.3 3.6.4 1.4.5-1.4 1.3-3.6h1l-2.3 6.3-.6 1.4q-.3.5-.7.8-.3.2-.8.2l-.7-.1Zm4.7-5.5q0-1.8 1-2.6.7-.7 1.9-.7t2 .9q.9.8.9 2.3 0 1.2-.4 1.9-.3.7-1 1-.7.4-1.5.4-1.3 0-2.1-.8t-.8-2.4Zm1 0q0 1.2.6 1.8.5.5 1.3.5t1.3-.5q.5-.6.5-1.9 0-1.1-.5-1.7-.6-.6-1.3-.6t-1.3.6q-.6.6-.6 1.8Zm10.4 3v-.8q-.7 1-2 1l-1-.2q-.5-.2-.7-.5l-.3-.8v-4.8h1v4.5q.1.4.5.7.3.2.8.2l.8-.2q.5-.3.6-.7.2-.4.2-1.2v-3.3h1v6.2h-.9Zm5.2-.9.2 1h-.8l-.9-.1q-.3-.2-.4-.5-.2-.3-.2-1.2v-3.6h-.7v-.8h.7v-1.6l1-.6v2.2h1.1v.8h-1v4.2l.2.2h.8Zm4.8 1v-1q-.7 1.1-2 1.1l-1-.2q-.5-.2-.7-.5l-.3-.8v-4.8h1v4.5q.1.4.5.7.3.2.8.2l.8-.2q.5-.3.6-.7.2-.4.2-1.2v-3.3h1v6.2h-.9Zm4 0h-1V186h1v3q.7-.8 1.7-.8.6 0 1 .3.6.2 1 .6l.5 1 .1 1.3q0 1.6-.8 2.5-.8.8-1.8.8-1.2 0-1.8-.9v.8Zm0-3.2q0 1.1.2 1.6.5.9 1.4.9.6 0 1.1-.6.6-.6.6-1.8 0-1.3-.5-1.8-.5-.6-1.2-.6t-1.2.6q-.5.6-.5 1.7Zm10.2 1.2 1.1.1q-.3 1-1 1.5t-1.7.5q-1.4 0-2.2-.8-.8-.9-.8-2.4t.8-2.4q.8-.9 2.1-.9 1.2 0 2 .9.8.8.8 2.4v.2h-4.6q0 1 .6 1.6.5.6 1.3.6.5 0 1-.3.4-.4.6-1Zm-3.5-1.7h3.5q0-.8-.4-1.2-.5-.6-1.3-.6-.7 0-1.2.5t-.6 1.3Zm6.5 3.7v-1.2h1.3v1.2h-1.3ZM96 212.8l1-.2q.2.7.5 1 .5.3 1.2.3t1-.3q.4-.3.4-.7 0-.3-.3-.5-.2-.2-1-.4l-1.7-.5q-.4-.2-.7-.6l-.2-.8.2-.8q.2-.4.5-.6l.7-.3.9-.1q.7 0 1.3.2.5.2.8.6.3.3.4 1h-1q-.1-.4-.5-.7-.3-.3-1-.3t-1 .3q-.3.2-.3.6l.1.3.4.3 1 .3 1.5.5q.5.2.7.5.3.4.3 1 0 .5-.3 1-.3.4-.9.6-.6.3-1.3.3-1.2 0-1.9-.5-.6-.5-.8-1.5Zm7.4 4.2-.1-1 .6.1h.5l.4-.4.3-.8.1-.2-2.4-6.3h1.2l1.3 3.6.4 1.5.5-1.4 1.3-3.7h1l-2.3 6.4-.6 1.4q-.3.5-.7.7-.3.3-.8.3l-.7-.2Zm5-2.4v-6.2h1v1q.7-1.1 2-1.1l1 .2q.5.2.7.5l.4.8v4.8h-1V211q0-.7-.2-1-.1-.3-.4-.5-.3-.2-.7-.2-.7 0-1.2.4-.5.5-.5 1.6v3.4h-1Zm11.1-2.2 1 .1q-.1 1-.8 1.7-.7.6-1.7.6-1.3 0-2.1-.8-.8-.9-.8-2.4 0-1 .4-1.8.3-.8 1-1.1.7-.4 1.5-.4 1 0 1.6.5.7.5.9 1.5l-1 .1q-.2-.6-.6-1-.4-.3-.9-.3-.8 0-1.3.6t-.5 1.8q0 1.3.5 1.9.5.5 1.2.5t1-.4q.5-.3.6-1.1Zm1 4.6v-.7h7v.7h-7Zm12-4.6 1 .1q-.1 1-.8 1.7-.7.6-1.7.6-1.3 0-2.1-.8-.8-.9-.8-2.4 0-1 .4-1.8.3-.8 1-1.1.7-.4 1.5-.4 1 0 1.6.5.7.5.9 1.5l-1 .1q-.2-.6-.6-1-.4-.3-.9-.3-.8 0-1.3.6t-.5 1.8q0 1.3.5 1.9.5.5 1.2.5t1-.4q.5-.3.6-1.1Zm1.6-.9q0-1.7 1-2.5.7-.7 1.9-.7t2 .8q.9.9.9 2.3 0 1.2-.4 2-.3.6-1 1t-1.5.4q-1.3 0-2.1-.8-.8-.9-.8-2.5Zm1 0q0 1.2.6 1.8.5.6 1.3.6t1.3-.6q.5-.6.5-1.8 0-1.1-.5-1.7-.6-.6-1.3-.6t-1.3.6q-.6.5-.6 1.7Zm6 0q0-1.7 1-2.5.7-.7 1.9-.7t2 .8q.9.9.9 2.3 0 1.2-.4 2-.3.6-1 1t-1.5.4q-1.3 0-2.1-.8-.8-.9-.8-2.5Zm1 0q0 1.2.6 1.8.5.6 1.3.6t1.3-.6q.5-.6.5-1.8 0-1.1-.5-1.7-.6-.6-1.3-.6t-1.3.6q-.6.5-.6 1.7Zm6.4 3.1v-8.5h1v4.9l2.5-2.6h1.4l-2.4 2.3 2.6 4h-1.3l-2-3.2-.8.7v2.4h-1Zm6-7.3V206h1v1.2h-1Zm0 7.3v-6.2h1v6.2h-1Zm7.2-2 1.1.2q-.3 1-1 1.5t-1.7.5q-1.4 0-2.2-.9-.8-.8-.8-2.3 0-1.6.8-2.4.8-1 2.1-1 1.2 0 2 1 .8.8.8 2.3v.3h-4.6q0 1 .6 1.6.5.5 1.3.5.5 0 1-.3.4-.3.6-1Zm-3.5-1.7h3.5q0-.8-.4-1.1-.5-.7-1.3-.7-.7 0-1.2.5t-.6 1.3Zm5.3 6.1v-.7h7v.7h-7Zm12-4.6 1 .1q-.1 1-.8 1.7-.7.6-1.7.6-1.3 0-2.1-.8-.8-.9-.8-2.4 0-1 .4-1.8.3-.8 1-1.1.7-.4 1.5-.4 1 0 1.6.5.7.5.9 1.5l-1 .1q-.2-.6-.6-1-.4-.3-.9-.3-.8 0-1.3.6t-.5 1.8q0 1.3.5 1.9.5.5 1.2.5t1-.4q.5-.3.6-1.1Zm1.5.4 1-.2q.2.7.5 1 .5.3 1.2.3t1-.3q.4-.3.4-.7 0-.3-.3-.5-.2-.2-1-.4l-1.7-.5q-.4-.2-.7-.6l-.2-.8.2-.8q.2-.4.5-.6l.7-.3.9-.1q.7 0 1.3.2.5.2.8.6.3.3.4 1h-1q-.1-.4-.5-.7-.3-.3-1-.3t-1 .3q-.3.2-.3.6l.1.3.4.3 1 .3 1.5.5q.5.2.7.5.3.4.3 1 0 .5-.3 1-.3.4-.9.6-.6.3-1.3.3-1.2 0-1.9-.5-.6-.5-.8-1.5Zm7.4 1.8v-6.2h1v1q.3-.7.6-.9l.7-.2q.6 0 1.1.3l-.3 1-.8-.2q-.4 0-.7.2l-.3.6q-.2.5-.2 1.2v3.2h-1Zm4.3 0v-5.4h-1v-.8h1v-.6l.1-1q.2-.4.5-.6.4-.3 1.1-.3l1 .1-.2 1-.6-.1q-.5 0-.7.2-.2.2-.2.8v.5h1.3v.8h-1.3v5.4h-1Zm5.3-2.5v-1h3.3v1H194Zm7.4 5-.1-1h1.1l.4-.4.3-.8.1-.2-2.4-6.3h1.2l1.3 3.6.4 1.5.5-1.4 1.3-3.7h1l-2.3 6.4-.6 1.4q-.3.5-.7.7-.3.3-.8.3l-.7-.2Zm9.1-3.2-1.1.7-1.2.2q-1 0-1.6-.5-.5-.5-.5-1.3l.2-.8q.2-.4.5-.6l.8-.4 1-.1 1.8-.4v-.3q0-.6-.3-.9-.4-.3-1.2-.3-.7 0-1 .2-.4.3-.6 1l-1-.2q.1-.7.4-1 .4-.5 1-.7.6-.2 1.4-.2.8 0 1.3.2t.7.4l.3.8v2.3l.1 1.9.3.7h-1l-.3-.7Zm0-2.4q-.7.3-1.8.4l-1 .2-.3.4q-.2.2-.2.5 0 .4.3.7.4.3 1 .3t1-.3q.5-.3.7-.7.2-.4.2-1v-.5Zm3 3.1v-6.2h.9v.9q.7-1 2-1l1 .2q.5.2.7.5l.4.8v4.8h-1V211q0-.7-.2-1-.1-.3-.4-.5-.3-.2-.7-.2-.7 0-1.2.4-.5.5-.5 1.6v3.4h-1Zm11 0v-.7q-.6.9-1.8.9-.7 0-1.3-.4-.7-.4-1-1.2-.3-.7-.3-1.7 0-.9.3-1.6.3-.8 1-1.2.5-.4 1.3-.4.6 0 1 .2l.7.6v-3h1v8.5h-1Zm-3.3-3q0 1.1.5 1.7.5.6 1.1.6.7 0 1.2-.5.5-.6.5-1.8 0-1.2-.5-1.8-.5-.6-1.2-.6t-1.2.5q-.4.6-.4 1.8Zm10.5 1 1.1.2q-.3 1-1 1.5t-1.7.5q-1.4 0-2.2-.9-.8-.8-.8-2.3 0-1.6.8-2.4.8-1 2.1-1 1.2 0 2 1 .8.8.8 2.3v.3h-4.6q0 1 .6 1.6.5.5 1.3.5.5 0 1-.3.4-.3.6-1Zm-3.5-1.7h3.5q0-.8-.4-1.1-.5-.7-1.3-.7-.7 0-1.2.5t-.6 1.3Zm5.5 3.7 2.3-3.2-2-3h1.2l1 1.5.4.7.5-.7 1-1.5h1.3l-2.2 3 2.4 3.2h-1.3l-1.3-1.9-.3-.5-1.7 2.4h-1.3Zm6 0v-1.2h1.3v1.2h-1.3Zm2.7 0v-6.2h1v1q.3-.7.6-.9l.7-.2q.6 0 1.1.3l-.3 1-.8-.2q-.4 0-.7.2l-.3.6q-.2.5-.2 1.2v3.2h-1Zm8.1 0v-.9q-.7 1-2 1l-1-.1q-.5-.2-.7-.5l-.3-.8v-4.9h1v4.5q.1.5.5.7.3.3.8.3.4 0 .8-.3.5-.2.6-.6.2-.4.2-1.2v-3.4h1v6.2h-.9Zm-127 22.5-.2-1 .6.1.5-.1.4-.3.3-.8.1-.3-2.4-6.2h1.2l1.3 3.6.4 1.4.5-1.4 1.3-3.6h1l-2.3 6.3-.6 1.4q-.3.6-.7.8-.3.2-.8.2l-.7-.1Zm9-3.2-1.1.8-1.2.2q-1 0-1.6-.5-.5-.5-.5-1.3 0-.5.2-.9l.5-.6.8-.3 1-.2 1.8-.3v-.3q0-.7-.3-1-.4-.3-1.2-.3-.7 0-1 .3-.4.2-.6.9l-1-.1q.1-.7.4-1.1.4-.4 1-.6.6-.2 1.4-.2l1.3.1q.5.1.7.5l.3.7v2.4l.1 1.9.3.7h-1l-.3-.8Zm0-2.3-1.8.4q-.7 0-1 .2l-.3.3-.2.5q0 .5.3.7.4.3 1 .3t1-.2q.5-.3.7-.8.2-.3.2-1v-.4Zm3 3.1v-6.2h.9v.9q.7-1 2-1l1 .2q.5.2.7.5.3.3.4.8v4.8h-1V231q0-.6-.2-1l-.4-.4q-.3-.2-.7-.2-.7 0-1.2.4t-.5 1.6v3.4h-1Zm11 0v-.8q-.6 1-1.8 1-.7 0-1.3-.5-.7-.4-1-1.1-.3-.7-.3-1.7t.3-1.7q.3-.7 1-1.1.5-.4 1.3-.4.6 0 1 .2t.7.6v-3h1v8.5h-1Zm-3.3-3.1q0 1.2.5 1.8.5.6 1.1.6.7 0 1.2-.6.5-.5.5-1.7 0-1.3-.5-1.9-.5-.6-1.2-.6t-1.2.6q-.4.6-.4 1.8Zm10.5 1.1 1.1.1q-.3 1-1 1.5-.7.6-1.7.6-1.4 0-2.2-.9-.8-.8-.8-2.3 0-1.6.8-2.5.8-.8 2.1-.8 1.2 0 2 .8t.8 2.4v.3h-4.6q0 1 .6 1.5.5.6 1.3.6.5 0 1-.3.4-.3.6-1Zm-3.5-1.7h3.5q0-.8-.4-1.2-.5-.6-1.3-.6-.7 0-1.2.5t-.6 1.3Zm5.5 3.7 2.3-3.2-2-3h1.2l1 1.4.4.8.5-.7 1-1.5h1.3l-2.2 3 2.4 3.2h-1.3l-1.3-2-.3-.4-1.7 2.4h-1.3Zm9.8 0v-1q-.7 1.2-2 1.2l-1-.2-.7-.6-.3-.8v-4.8h1v4.6q.1.4.5.6.3.2.8.2l.8-.2q.5-.2.6-.7.2-.4.2-1.2v-3.3h1v6.2h-.9Zm3-7.4v-1.2h1v1.2h-1Zm0 7.4v-6.2h1v6.2h-1Zm7 0v-.8q-.6 1-1.8 1-.7 0-1.3-.5-.7-.4-1-1.1-.3-.7-.3-1.7t.3-1.7q.3-.7 1-1.1.5-.4 1.3-.4.6 0 1 .2t.7.6v-3h1v8.5h-1Zm-3.3-3.1q0 1.2.5 1.8.5.6 1.1.6.7 0 1.2-.6.5-.5.5-1.7 0-1.3-.5-1.9-.5-.6-1.2-.6t-1.2.6q-.4.6-.4 1.8Zm8.8.5v-1h3.3v1H181Zm7.4 5-.1-1 .6.1.5-.1.4-.3.3-.8.1-.3-2.4-6.2h1.2l1.3 3.6.4 1.4.5-1.4 1.3-3.6h1l-2.3 6.3-.6 1.4q-.3.6-.7.8-.3.2-.8.2l-.7-.1Zm9.1-3.2-1.1.8-1.2.2q-1 0-1.6-.5-.5-.5-.5-1.3 0-.5.2-.9l.5-.6.8-.3 1-.2 1.8-.3v-.3q0-.7-.3-1-.4-.3-1.2-.3-.7 0-1 .3-.4.2-.6.9l-1-.1q.1-.7.4-1.1.4-.4 1-.6.6-.2 1.4-.2l1.3.1q.5.1.7.5l.3.7v2.4l.1 1.9.3.7h-1l-.3-.8Zm0-2.3-1.8.4q-.7 0-1 .2l-.3.3-.2.5q0 .5.3.7.4.3 1 .3t1-.2q.5-.3.7-.8.2-.3.2-1v-.4Zm3 3.1v-6.2h.9v.9q.7-1 2-1l1 .2q.5.2.7.5.3.3.4.8v4.8h-1V231q0-.6-.2-1l-.4-.4q-.3-.2-.7-.2-.7 0-1.2.4t-.5 1.6v3.4h-1Zm11 0v-.8q-.6 1-1.8 1-.7 0-1.3-.5-.7-.4-1-1.1-.3-.7-.3-1.7t.3-1.7q.3-.7 1-1.1.5-.4 1.3-.4.6 0 1 .2t.7.6v-3h1v8.5h-1Zm-3.3-3.1q0 1.2.5 1.8.5.6 1.1.6.7 0 1.2-.6.5-.5.5-1.7 0-1.3-.5-1.9-.5-.6-1.2-.6t-1.2.6q-.4.6-.4 1.8Zm10.5 1.1 1.1.1q-.3 1-1 1.5-.7.6-1.7.6-1.4 0-2.2-.9-.8-.8-.8-2.4 0-1.5.8-2.4.8-.8 2.1-.8 1.2 0 2 .8t.8 2.4v.3h-4.6q0 1 .6 1.5.5.6 1.3.6.5 0 1-.3.4-.3.6-1Zm-3.5-1.7h3.5q0-.8-.4-1.2-.5-.6-1.3-.6-.7 0-1.2.5t-.6 1.3Zm5.5 3.7 2.3-3.2-2-3h1.2l1 1.4.4.8.5-.7 1-1.5h1.3l-2.2 3 2.4 3.2h-1.3l-1.3-2-.3-.4-1.7 2.4h-1.3Zm6 0v-1.2h1.3v1.2h-1.3Zm6.8-2.3 1 .2q-.1 1-.8 1.6-.7.7-1.7.7-1.3 0-2.1-.9-.8-.8-.8-2.4 0-1 .4-1.7.3-.8 1-1.2.7-.3 1.5-.3 1 0 1.6.5.7.5.9 1.4l-1 .2q-.2-.6-.6-1-.4-.3-.9-.3-.8 0-1.3.6t-.5 1.8q0 1.3.5 1.8.5.6 1.2.6t1-.4q.5-.4.6-1.2Zm1.6-.8q0-1.7 1-2.6.7-.6 1.9-.6t2 .8q.9.8.9 2.3 0 1.2-.4 1.9-.3.7-1 1-.7.5-1.5.5-1.3 0-2.1-.9-.8-.8-.8-2.4Zm1 0q0 1.2.6 1.8.5.6 1.3.6t1.3-.6q.5-.6.5-1.8 0-1.2-.5-1.8-.6-.6-1.3-.6t-1.3.6q-.6.6-.6 1.8Zm6.4 3.1v-6.2h.9v.9q.3-.5.8-.8l1-.2q.8 0 1.2.2.5.3.6.8.8-1 2-1 .9 0 1.4.5.5.5.5 1.5v4.3h-1v-4q0-.5-.2-.8 0-.3-.3-.5l-.7-.1q-.6 0-1 .4-.5.4-.5 1.4v3.6h-1v-4q0-.7-.3-1-.3-.4-.9-.4l-.8.2q-.4.2-.5.7-.2.4-.2 1.3v3.2h-1Zm-100 22.5-.2-1h1.1l.4-.4.3-.8.1-.2-2.4-6.2h1.2l1.3 3.6.4 1.4.5-1.4 1.3-3.6h1l-2.3 6.3-.6 1.4q-.3.5-.7.8-.3.2-.8.2l-.7-.1Zm9-2.4v-1q-.7 1.1-2 1.1l-1-.2q-.5-.2-.7-.5l-.3-.8v-4.8h1v4.5q.1.4.5.7.3.2.8.2l.8-.2q.5-.3.6-.7.2-.4.2-1.2v-3.3h1v6.2h-.9Zm3-7.4v-1.2h1v1.2h-1Zm0 7.4v-6.2h1v6.2h-1Zm7 0v-.8q-.6 1-1.8 1-.7 0-1.3-.5-.7-.4-1-1.1-.3-.8-.3-1.7 0-1 .3-1.7.3-.8 1-1.2.5-.4 1.3-.4.6 0 1 .3.4.2.7.6v-3.1h1v8.6h-1Zm-3.3-3.1q0 1.2.5 1.8.5.5 1.1.5.7 0 1.2-.5.5-.6.5-1.7 0-1.3-.5-2-.5-.5-1.2-.5t-1.2.6q-.4.5-.4 1.8Zm5.8 1.2 1-.1.5 1q.5.2 1.2.2t1-.2q.4-.3.4-.7 0-.4-.3-.6l-1-.4-1.7-.5q-.4-.2-.7-.6-.2-.3-.2-.8l.2-.8.5-.6.7-.3h.9l1.3.1q.5.2.8.6.3.4.4 1h-1q-.1-.4-.5-.6-.3-.3-1-.3t-1 .2q-.3.3-.3.6l.1.4.4.2 1 .3 1.5.5q.5.2.7.5.3.4.3 1 0 .5-.3 1-.3.4-.9.7-.6.2-1.3.2-1.2 0-1.9-.5-.6-.5-.8-1.5Zm7 0 1-.1.5 1q.5.2 1.2.2t1-.2q.4-.3.4-.7 0-.4-.3-.6l-1-.4-1.7-.5q-.4-.2-.7-.6-.2-.3-.2-.8l.2-.8.5-.6.7-.3h.9l1.3.1q.5.2.8.6.3.4.4 1h-1q-.1-.4-.5-.6-.3-.3-1-.3t-1 .2q-.3.3-.3.6l.1.4.4.2 1 .3 1.5.5q.5.2.7.5.3.4.3 1 0 .5-.3 1-.3.4-.9.7-.6.2-1.3.2-1.2 0-1.9-.5-.6-.5-.8-1.5Zm10-.7v-1h3.3v1H181Zm7.4 5-.1-1h1.1l.4-.4.3-.8.1-.2-2.4-6.2h1.2l1.3 3.6.4 1.4.5-1.4 1.3-3.6h1l-2.3 6.3-.6 1.4q-.3.5-.7.8-.3.2-.8.2l-.7-.1Zm9.1-3.2-1.1.7-1.2.2q-1 0-1.6-.5-.5-.5-.5-1.3l.2-.8q.2-.4.5-.6l.8-.3 1-.2 1.8-.4v-.2q0-.7-.3-1-.4-.3-1.2-.3-.7 0-1 .3-.4.2-.6.9l-1-.2q.1-.6.4-1l1-.7q.6-.2 1.4-.2.8 0 1.3.2t.7.5l.3.7v2.4l.1 1.8.3.8h-1l-.3-.8Zm0-2.3-1.8.4q-.7 0-1 .2-.2 0-.3.3-.2.2-.2.5 0 .4.3.7.4.3 1 .3t1-.3q.5-.2.7-.7.2-.4.2-1v-.4Zm3 3v-6.1h.9v.8q.7-1 2-1l1 .2q.5.2.7.6.3.3.4.7v4.9h-1V251q0-.7-.2-1-.1-.3-.4-.5-.3-.2-.7-.2-.7 0-1.2.5-.5.4-.5 1.6v3.4h-1Zm11 0v-.7q-.6 1-1.8 1-.7 0-1.3-.5-.7-.4-1-1.1-.3-.8-.3-1.7 0-1 .3-1.7.3-.8 1-1.2.5-.4 1.3-.4.6 0 1 .3.4.2.7.6v-3.1h1v8.6h-1Zm-3.3-3q0 1.2.5 1.8.5.5 1.1.5.7 0 1.2-.5.5-.6.5-1.7 0-1.3-.5-2-.5-.5-1.2-.5t-1.2.6q-.4.5-.4 1.8Zm10.5 1 1.1.2q-.3 1-1 1.5t-1.7.5q-1.4 0-2.2-.8-.8-.9-.8-2.4t.8-2.4q.8-.9 2.1-.9 1.2 0 2 .9.8.8.8 2.4v.2h-4.6q0 1 .6 1.6.5.5 1.3.5.5 0 1-.3.4-.3.6-1Zm-3.5-1.6h3.5q0-.8-.4-1.2-.5-.6-1.3-.6-.7 0-1.2.5-.5.4-.6 1.3Zm5.5 3.7 2.3-3.3-2-3h1.2l1 1.5.4.7.5-.7 1-1.4h1.3l-2.2 2.9 2.4 3.3h-1.3l-1.3-2-.3-.5-1.7 2.5h-1.3Zm6 0v-1.2h1.3v1.2h-1.3Zm6.8-2.3 1 .1q-.1 1.1-.8 1.7-.7.6-1.7.6-1.3 0-2.1-.8-.8-.9-.8-2.4 0-1 .4-1.8.3-.7 1-1.1.7-.4 1.5-.4 1 0 1.6.5.7.5.9 1.5l-1 .1q-.2-.6-.6-.9-.4-.3-.9-.3-.8 0-1.3.6-.5.5-.5 1.8 0 1.2.5 1.8.5.5 1.2.5t1-.3q.5-.4.6-1.2Zm1.6-.8q0-1.8 1-2.6.7-.7 1.9-.7t2 .9q.9.8.9 2.3 0 1.2-.4 1.9-.3.7-1 1-.7.4-1.5.4-1.3 0-2.1-.8-.8-.9-.8-2.4Zm1 0q0 1.2.6 1.7.5.6 1.3.6t1.3-.6q.5-.5.5-1.8 0-1.1-.5-1.7-.6-.6-1.3-.6t-1.3.6q-.6.6-.6 1.8Zm6.4 3v-6.1h.9v.8q.3-.4.8-.7.5-.3 1-.3.8 0 1.2.3.5.3.6.8.8-1 2-1 .9 0 1.4.4.5.5.5 1.6v4.3h-1v-4q0-.6-.2-.9 0-.2-.3-.4t-.7-.2q-.6 0-1 .5-.5.4-.5 1.4v3.6h-1v-4q0-.8-.3-1.1-.3-.4-.9-.4-.4 0-.8.3-.4.2-.5.6-.2.5-.2 1.3v3.3h-1Zm-67 12.8v-1.3h1v1.3h-1Zm0 7.3v-6.2h1v6.2h-1Zm5.5-2.5v-1.1h3.3v1H181Zm7.4 5-.1-1h1.1l.4-.4.3-.8.1-.2-2.4-6.3h1.2l1.3 3.6.4 1.5.5-1.5 1.3-3.6h1l-2.3 6.4-.6 1.4q-.3.5-.7.7-.3.3-.8.3l-.7-.2Zm9.1-3.2-1.1.7-1.2.2q-1 0-1.6-.5-.5-.5-.5-1.3 0-.5.2-.8.2-.4.5-.6l.8-.4 1-.2q1.2 0 1.8-.3v-.3q0-.6-.3-.9-.4-.3-1.2-.3-.7 0-1 .2-.4.3-.6 1l-1-.2q.1-.7.4-1 .4-.5 1-.7.6-.2 1.4-.2.8 0 1.3.2l.7.4.3.8v2.3l.1 1.9.3.7h-1l-.3-.7Zm0-2.4q-.7.3-1.8.4l-1 .2-.3.4q-.2.2-.2.5 0 .4.3.7.4.3 1 .3t1-.3q.5-.3.7-.7.2-.4.2-1v-.5Zm3 3.1v-6.2h.9v.9q.7-1 2-1l1 .2q.5.2.7.5.3.3.4.8v4.8h-1v-3.7q0-.7-.2-1-.1-.3-.4-.5-.3-.2-.7-.2-.7 0-1.2.4t-.5 1.6v3.4h-1Zm11 0v-.7q-.6.9-1.8.9-.7 0-1.3-.4-.7-.4-1-1.2-.3-.7-.3-1.7 0-.9.3-1.7.3-.7 1-1.1.5-.4 1.3-.4.6 0 1 .2l.7.6v-3h1v8.5h-1Zm-3.3-3q0 1.1.5 1.7.5.6 1.1.6.7 0 1.2-.6.5-.5.5-1.7 0-1.3-.5-1.8-.5-.6-1.2-.6t-1.2.5q-.4.6-.4 1.8Zm10.5 1 1.1.2q-.3 1-1 1.5t-1.7.5q-1.4 0-2.2-.9-.8-.8-.8-2.3 0-1.6.8-2.4.8-1 2.1-1 1.2 0 2 1 .8.8.8 2.3v.3h-4.6q0 1 .6 1.6.5.5 1.3.5.5 0 1-.3.4-.3.6-1Zm-3.5-1.7h3.5q0-.8-.4-1.1-.5-.7-1.3-.7-.7 0-1.2.5t-.6 1.3Zm5.5 3.7 2.3-3.2-2-3h1.2l1 1.5.4.7.5-.7 1-1.5h1.3l-2.2 3 2.4 3.2h-1.3l-1.3-1.9-.3-.5-1.7 2.4h-1.3Zm6 0v-1.2h1.3v1.2h-1.3Zm6.8-2.2 1 .1q-.1 1-.8 1.7-.7.6-1.7.6-1.3 0-2.1-.8-.8-.9-.8-2.5 0-1 .4-1.7.3-.8 1-1.1.7-.4 1.5-.4 1 0 1.6.5.7.5.9 1.5l-1 .1q-.2-.6-.6-1-.4-.3-.9-.3-.8 0-1.3.6t-.5 1.8q0 1.3.5 1.8.5.6 1.2.6t1-.4q.5-.3.6-1.1Zm1.6-.9q0-1.7 1-2.5.7-.7 1.9-.7t2 .8q.9.9.9 2.3 0 1.2-.4 2-.3.6-1 1t-1.5.4q-1.3 0-2.1-.8-.8-.9-.8-2.5Zm1 0q0 1.2.6 1.8.5.6 1.3.6t1.3-.6q.5-.6.5-1.8 0-1.2-.5-1.7-.6-.6-1.3-.6t-1.3.6q-.6.5-.6 1.7Zm6.4 3.1v-6.2h.9v.9q.3-.5.8-.7.5-.3 1-.3.8 0 1.2.3.5.2.6.8.8-1.1 2-1.1.9 0 1.4.5.5.5.5 1.6v4.2h-1V271q0-.6-.2-.9 0-.3-.3-.4-.3-.2-.7-.2-.6 0-1 .4-.5.5-.5 1.4v3.6h-1v-4q0-.7-.3-1-.3-.4-.9-.4l-.8.2q-.4.3-.5.7-.2.5-.2 1.3v3.2h-1Zm-92 22.5-.2-1 .6.1.5-.1.4-.3.3-.8.1-.3-2.4-6.2h1.2l1.3 3.6.4 1.4.5-1.4 1.3-3.6h1l-2.3 6.3-.6 1.4q-.3.6-.7.8-.3.2-.8.2l-.7-.1Zm5-2.4v-6.2h.9v.9q.3-.5.8-.8.5-.3 1-.3.8 0 1.2.3.5.3.6.8.8-1 2-1 .9 0 1.4.5.5.5.5 1.5v4.3h-1v-4q0-.5-.2-.8 0-.3-.3-.5l-.7-.1q-.6 0-1 .4-.5.4-.5 1.4v3.6h-1v-4q0-.7-.3-1-.3-.4-.9-.4l-.8.2q-.4.2-.5.7-.2.4-.2 1.3v3.2h-1Zm15.2-2 1.1.1q-.3 1-1 1.5t-1.7.5q-1.4 0-2.2-.8-.8-.8-.8-2.4 0-1.5.8-2.4.8-.9 2.1-.9 1.2 0 2 .9.8.8.8 2.4v.3h-4.6q0 1 .6 1.5.5.6 1.3.6.5 0 1-.3.4-.3.6-1Zm-3.5-1.7h3.5q0-.8-.4-1.2-.5-.6-1.3-.6-.7 0-1.2.5t-.6 1.3Zm5.5 3.7 2.3-3.2-2-3h1.2l1 1.4.4.7.5-.6 1-1.5h1.3l-2.2 3 2.4 3.2h-1.3l-1.3-2-.3-.4-1.7 2.4h-1.3Zm8.3-2.6v-1h3.3v1H181Zm7.4 5-.1-1 .6.1.5-.1.4-.3.3-.8.1-.3-2.4-6.2h1.2l1.3 3.6.4 1.4.5-1.4 1.3-3.6h1l-2.3 6.3-.6 1.4q-.3.6-.7.8-.3.2-.8.2l-.7-.1Zm9.1-3.2-1.1.7-1.2.2q-1 0-1.6-.5-.5-.5-.5-1.2 0-.5.2-.9t.5-.6l.8-.3 1-.2 1.8-.3v-.3q0-.7-.3-1-.4-.3-1.2-.3-.7 0-1 .3-.4.2-.6.9l-1-.1q.1-.7.4-1.1.4-.4 1-.6.6-.3 1.4-.3.8 0 1.3.2t.7.5l.3.7v2.4l.1 1.9.3.7h-1l-.3-.8Zm0-2.3-1.8.4q-.7 0-1 .2l-.3.3-.2.5q0 .5.3.7.4.3 1 .3t1-.2q.5-.3.7-.8.2-.3.2-1v-.4Zm3 3.1v-6.2h.9v.9q.7-1 2-1l1 .1.7.6q.3.3.4.7v5h-1v-4q0-.6-.2-1-.1-.3-.4-.4-.3-.2-.7-.2-.7 0-1.2.4t-.5 1.6v3.4h-1Zm11 0v-.8q-.6 1-1.8 1-.7 0-1.3-.5-.7-.4-1-1.1-.3-.7-.3-1.7t.3-1.7q.3-.8 1-1.1.5-.5 1.3-.5.6 0 1 .3.4.2.7.6v-3h1v8.5h-1Zm-3.3-3.1q0 1.2.5 1.8.5.6 1.1.6.7 0 1.2-.6t.5-1.7q0-1.3-.5-1.9-.5-.6-1.2-.6t-1.2.6q-.4.6-.4 1.8Zm10.5 1.1 1.1.1q-.3 1-1 1.5t-1.7.5q-1.4 0-2.2-.8-.8-.8-.8-2.4 0-1.5.8-2.4.8-.9 2.1-.9 1.2 0 2 .9.8.8.8 2.4v.3h-4.6q0 1 .6 1.5.5.6 1.3.6.5 0 1-.3.4-.3.6-1Zm-3.5-1.7h3.5q0-.8-.4-1.2-.5-.6-1.3-.6-.7 0-1.2.5t-.6 1.3Zm5.5 3.7 2.3-3.2-2-3h1.2l1 1.4.4.7.5-.6 1-1.5h1.3l-2.2 3 2.4 3.2h-1.3l-1.3-2-.3-.4-1.7 2.4h-1.3Zm6 0v-1.2h1.3v1.2h-1.3Zm6.8-2.3 1 .2q-.1 1-.8 1.6-.7.6-1.7.6-1.3 0-2.1-.8t-.8-2.4q0-1 .4-1.7.3-.8 1-1.2.7-.4 1.5-.4 1 0 1.6.6.7.5.9 1.4l-1 .2q-.2-.7-.6-1-.4-.3-.9-.3-.8 0-1.3.6-.5.5-.5 1.8 0 1.2.5 1.8.5.6 1.2.6t1-.4q.5-.4.6-1.2Zm1.6-.8q0-1.7 1-2.6.7-.7 1.9-.7t2 .9q.9.8.9 2.3 0 1.2-.4 1.9-.3.7-1 1-.7.4-1.5.4-1.3 0-2.1-.8t-.8-2.4Zm1 0q0 1.2.6 1.8.5.6 1.3.6t1.3-.6q.5-.6.5-1.8 0-1.2-.5-1.8-.6-.6-1.3-.6t-1.3.6q-.6.6-.6 1.8Zm6.4 3.1v-6.2h.9v.9q.3-.5.8-.8.5-.3 1-.3.8 0 1.2.3.5.3.6.8.8-1 2-1 .9 0 1.4.5.5.5.5 1.5v4.3h-1v-4q0-.5-.2-.8 0-.3-.3-.5l-.7-.1q-.6 0-1 .4-.5.4-.5 1.4v3.6h-1v-4q0-.7-.3-1-.3-.4-.9-.4l-.8.2q-.4.2-.5.7-.2.4-.2 1.3v3.2h-1Zm7.7 22.3q0-1.5.3-2.4.3-1 .9-1.5.6-.5 1.6-.5.6 0 1.2.3.5.3.8.8.4.5.6 1.3l.1 2q0 1.5-.3 2.5-.3.9-.9 1.4-.6.5-1.5.5-1.3 0-2-.9-.8-1-.8-3.5Zm1 0q0 2.1.5 2.8.5.7 1.3.7.7 0 1.2-.7t.5-2.8q0-2.1-.5-2.8-.5-.7-1.3-.7-.7 0-1.1.6-.6.8-.6 3Zm6.2-2.3q0-.9.4-1.5.5-.7 1.4-.7.8 0 1.3.6t.5 1.7q0 1-.5 1.7-.5.5-1.3.5t-1.3-.5q-.5-.6-.5-1.8Zm1.8-1.5q-.4 0-.7.4-.2.3-.2 1.2 0 .9.2 1.2.3.3.7.3.4 0 .6-.3.3-.4.3-1.3 0-.8-.3-1.1-.2-.4-.6-.4Zm0 8.4 4.7-9h.8l-4.6 9h-1Zm3.7-2.4q0-.9.5-1.5.4-.7 1.3-.7.8 0 1.4.6.5.6.5 1.7 0 1-.6 1.7-.5.6-1.3.6-.7 0-1.3-.6-.5-.6-.5-1.8Zm1.8-1.5q-.4 0-.6.4-.3.3-.3 1.2 0 .9.3 1.2.3.3.6.3.4 0 .7-.3.3-.3.3-1.3 0-.8-.3-1.1-.3-.4-.7-.4Zm91.6 3.6h-1v-6.8l-1 .8-1.2.5v-1q.9-.4 1.5-1 .7-.6 1-1.2h.7v8.6Zm3-4.3q0-1.5.3-2.4.3-1 1-1.5.6-.5 1.5-.5.7 0 1.2.3t.9.8q.3.5.5 1.3.2.7.2 2 0 1.5-.3 2.5-.3.9-1 1.4-.5.5-1.5.5-1.2 0-2-.9-.8-1-.8-3.5Zm1 0q0 2.1.6 2.8.5.7 1.2.7t1.2-.7q.5-.7.5-2.8 0-2.1-.5-2.8-.5-.7-1.2-.7t-1.2.6q-.5.8-.5 3Zm6.2-2.3q0-.9.5-1.5.4-.7 1.3-.7.8 0 1.3.6.6.6.6 1.7 0 1-.6 1.7-.5.5-1.3.5t-1.3-.5-.5-1.8Zm1.8-1.5q-.4 0-.6.4-.3.3-.3 1.2 0 .9.3 1.2.2.3.6.3.4 0 .7-.3.3-.4.3-1.3 0-.8-.3-1.1-.3-.4-.7-.4Zm0 8.4 4.7-9h.9l-4.7 9h-.9Zm3.8-2.4q0-.9.4-1.5.5-.7 1.4-.7.8 0 1.3.6t.5 1.7q0 1-.5 1.7-.5.6-1.3.6t-1.3-.6q-.5-.6-.5-1.8Zm1.8-1.5q-.4 0-.7.4-.2.3-.2 1.2 0 .9.2 1.2.3.3.7.3.4 0 .7-.3.2-.3.2-1.3 0-.8-.2-1.1-.3-.4-.7-.4Zm89.6 2.5v1h-5.7l.1-.7.7-1.1 1.4-1.3 2-1.8q.4-.7.4-1.3 0-.6-.4-1-.5-.5-1.2-.5-.8 0-1.2.5-.5.4-.5 1.2h-1q0-1.3.7-2 .8-.6 2-.6t2 .7q.7.7.7 1.7l-.2 1q-.2.5-.7 1l-1.6 1.6-1.3 1-.4.6h4.2Zm1.5-3.2q0-1.5.3-2.4.3-1 .9-1.5.6-.5 1.5-.5.7 0 1.3.3.5.3.8.8.4.5.6 1.3l.1 2q0 1.5-.3 2.5-.3.9-.9 1.4-.6.5-1.6.5-1.2 0-1.9-.9-.8-1-.8-3.5Zm1 0q0 2.1.5 2.8.5.7 1.2.7.8 0 1.3-.7t.5-2.8q0-2.1-.5-2.8-.5-.7-1.3-.7-.7 0-1.1.6-.6.8-.6 3Zm6.2-2.3q0-.9.4-1.5.5-.7 1.4-.7.8 0 1.3.6t.5 1.7q0 1-.5 1.7-.6.5-1.3.5-.8 0-1.3-.5-.5-.6-.5-1.8Zm1.8-1.5q-.4 0-.7.4-.2.3-.2 1.2 0 .9.2 1.2.3.3.7.3.4 0 .6-.3.3-.4.3-1.3 0-.8-.3-1.1-.2-.4-.6-.4Zm0 8.4 4.7-9h.8l-4.6 9h-1Zm3.7-2.4q0-.9.5-1.5.4-.7 1.3-.7.8 0 1.4.6.5.6.5 1.7 0 1-.6 1.7-.5.6-1.3.6t-1.3-.6q-.5-.6-.5-1.8Zm1.8-1.5q-.4 0-.6.4-.3.3-.3 1.2 0 .9.3 1.2.3.3.6.3.4 0 .7-.3t.3-1.3q0-.8-.3-1.1-.3-.4-.7-.4Zm84.1 1.3 1-.2q.2 1 .7 1.3.4.4 1 .4.8 0 1.3-.5t.5-1.3q0-.7-.5-1.2-.4-.4-1.2-.4h-.7l.1-.8h.2q.6 0 1.2-.4.5-.3.5-1 0-.6-.4-1t-1-.4q-.6 0-1 .4t-.5 1.1l-1-.2q.1-1 .8-1.6.7-.6 1.7-.6.7 0 1.3.3.6.3.9.9.3.5.3 1 0 .6-.3 1-.3.5-.9.8.8.2 1.2.7.4.6.4 1.4 0 1.1-.8 2-.8.7-2 .7t-2-.7q-.7-.7-.8-1.7Zm7-2q0-1.5.3-2.4.3-1 1-1.5.6-.5 1.5-.5.7 0 1.2.3t.9.8q.3.5.5 1.3.2.7.2 2 0 1.5-.3 2.5-.3.9-1 1.4-.6.5-1.5.5-1.2 0-2-.9-.8-1-.8-3.5Zm1 0q0 2.1.6 2.8.5.7 1.2.7t1.2-.7q.5-.7.5-2.8 0-2.1-.5-2.8-.5-.7-1.2-.7t-1.2.6q-.5.8-.5 3Zm6.2-2.3q0-.9.5-1.5.4-.7 1.3-.7.8 0 1.3.6.6.6.6 1.7 0 1-.6 1.7-.5.5-1.3.5t-1.3-.5q-.5-.6-.5-1.8Zm1.8-1.5q-.4 0-.6.4-.3.3-.3 1.2 0 .9.3 1.2.2.3.6.3.4 0 .7-.3.3-.4.3-1.3 0-.8-.3-1.1-.3-.4-.7-.4Zm0 8.4 4.7-9h.9l-4.7 9h-.9Zm3.7-2.4q0-.9.5-1.5.5-.7 1.4-.7.8 0 1.3.6t.5 1.7q0 1-.5 1.7-.5.6-1.3.6t-1.3-.6q-.5-.6-.5-1.8Zm1.9-1.5q-.4 0-.7.4-.2.3-.2 1.2 0 .9.2 1.2.3.3.7.3.4 0 .7-.3t.2-1.3q0-.8-.3-1.1-.2-.4-.6-.4Z"/><path fill="#a8caba" d="M231 79a1 1 0 0 1 1-1h10a1 1 0 0 1 1 1v10a1 1 0 0 1-1 1h-10a1 1 0 0 1-1-1Z"/><path fill="#838689" d="M255.8 88v-.8q-.6 1-1.7 1-.8 0-1.4-.5-.6-.4-1-1.1-.3-.8-.3-1.7 0-1 .3-1.7.3-.8 1-1.2.6-.4 1.3-.4.6 0 1 .3.5.2.8.6v-3h1V88h-1Zm-3.3-3.1q0 1.2.5 1.8.5.6 1.2.6t1.2-.6q.4-.6.4-1.7 0-1.3-.5-1.9-.4-.6-1.2-.6-.7 0-1.1.6-.5.6-.5 1.8ZM263 86l1.1.1q-.2 1-1 1.5-.6.5-1.7.5-1.4 0-2.2-.8-.8-.8-.8-2.4 0-1.5.9-2.4.8-.9 2-.9 1.3 0 2 .9.9.8.9 2.4v.3h-4.7q0 1 .6 1.5.5.6 1.3.6.6 0 1-.3t.6-1Zm-3.4-1.7h3.5q-.1-.8-.4-1.2-.5-.6-1.3-.6t-1.3.5q-.5.5-.5 1.3Zm5.8 1.8 1-.1q.1.6.5 1 .4.3 1.1.3.8 0 1-.3.5-.3.5-.7 0-.4-.4-.6l-1-.3-1.6-.5-.7-.6q-.3-.4-.3-.9 0-.4.2-.7.2-.4.6-.6l.6-.3q.4-.2 1-.2.7 0 1.2.3.6.2.8.5.3.4.4 1l-1 .1q-.1-.5-.4-.7-.4-.3-1-.3-.7 0-1 .3-.3.2-.3.5v.4l.5.3 1 .2 1.5.5q.4.2.7.6.2.3.2.9 0 .5-.3 1-.3.4-.9.7-.5.2-1.3.2-1.2 0-1.8-.5-.7-.5-.8-1.5Zm7.4 1.9v-8.6h1v5l2.5-2.6h1.4l-2.4 2.3L278 88h-1.3l-2.1-3.2-.7.7V88h-1.1Zm8.3-1 .2 1h-1.8l-.4-.6-.1-1.2v-3.6h-.8v-.8h.8v-1.6l1-.6v2.2h1v.8h-1v4.2l.3.2h.8Zm.3-2.1q0-1.7 1-2.6.8-.7 2-.7t2 .9q.8.8.8 2.3 0 1.2-.3 1.9-.4.7-1 1-.8.4-1.6.4-1.3 0-2.1-.8t-.8-2.4Zm1 0q0 1.2.6 1.8.5.6 1.3.6t1.3-.6q.5-.6.5-1.8 0-1.2-.5-1.8-.5-.6-1.3-.6t-1.3.6q-.5.6-.5 1.8Zm6.4 5.5v-8.6h1v.8q.3-.5.7-.7.5-.3 1-.3.9 0 1.5.4.6.5.9 1.2.3.8.3 1.6 0 1-.4 1.8-.3.7-1 1.1-.6.4-1.3.4l-1-.2-.7-.5v3h-1Zm1-5.5q0 1.2.4 1.8.5.6 1.2.6t1.2-.6q.5-.6.5-1.9 0-1.2-.5-1.7-.5-.6-1.1-.6-.7 0-1.2.6t-.5 1.8Z"/><path fill="#62718b" d="M311 79a1 1 0 0 1 1-1h10a1 1 0 0 1 1 1v10a1 1 0 0 1-1 1h-10a1 1 0 0 1-1-1Z"/><path fill="#838689" d="M331.8 88v-6.2h1v.9q.2-.5.7-.8.5-.3 1.1-.3.7 0 1.1.3.5.3.7.8.7-1 1.9-1 1 0 1.4.5.5.5.5 1.5V88h-1v-4l-.1-.8q-.1-.3-.4-.5l-.6-.2q-.7 0-1.1.5-.5.4-.5 1.4V88h-1v-4q0-.7-.3-1-.2-.5-.8-.5-.5 0-.8.3-.4.2-.6.7-.2.4-.2 1.3V88h-1Zm10.6-3.1q0-1.7 1-2.6.8-.7 2-.7t2 .9q.8.8.8 2.3 0 1.2-.3 1.9-.4.7-1 1-.8.4-1.6.4-1.3 0-2.1-.8t-.8-2.4Zm1 0q0 1.2.6 1.8.5.6 1.3.6t1.3-.6q.5-.6.5-1.8 0-1.2-.5-1.8-.5-.6-1.3-.6t-1.3.6q-.5.6-.5 1.8Zm7.4 3.1h-1v-8.6h1v3q.7-.8 1.7-.8.6 0 1.1.3.5.2.9.6l.5 1q.2.6.2 1.3 0 1.6-.8 2.5-.8.8-1.9.8-1.1 0-1.7-.9v.8Zm0-3.2q0 1.2.3 1.7.5.8 1.3.8.7 0 1.2-.6t.5-1.8q0-1.2-.5-1.8-.5-.6-1.1-.6-.7 0-1.3.6-.4.6-.4 1.7Zm6-4.2v-1.2h1v1.2h-1Zm0 7.4v-6.2h1V88h-1Zm3 0v-8.6h1V88h-1Zm7.2-2 1.1.1q-.2 1-1 1.5-.6.5-1.7.5-1.4 0-2.2-.8-.8-.8-.8-2.4 0-1.5.9-2.4.8-.9 2-.9 1.3 0 2 .9.9.8.9 2.4v.3h-4.7q0 1 .6 1.5.5.6 1.3.6.6 0 1-.3t.6-1Zm-3.4-1.7h3.5q-.1-.8-.4-1.2-.5-.6-1.3-.6t-1.3.5q-.5.5-.5 1.3ZM214.3 61.6l-2.6-10h1.3l1.6 6.6.4 2 .4-1.8 2-6.8h1.5l1.5 5 .8 3.6q.1-1 .5-2.1l1.5-6.5h1.4l-2.8 10h-1.3l-2-7.6-.4-1.2-.3 1.2-2.1 7.6h-1.4Zm16-2.3 1.4.1q-.3 1.2-1.2 1.8-.8.6-2 .6-1.6 0-2.6-1-.9-1-.9-2.7 0-1.9 1-2.9t2.4-1q1.5 0 2.4 1 .9 1 .9 2.8v.3h-5.4q0 1.2.7 1.8.6.7 1.5.7.7 0 1.1-.4.5-.3.8-1.1Zm-4-2h4.1q0-1-.5-1.4-.5-.7-1.5-.7-.8 0-1.4.6-.6.6-.6 1.5Zm8.3 4.3h-1.2v-10h1.2v3.6q.8-1 2-1 .7 0 1.3.3.6.2 1 .7.4.5.6 1.2.2.7.2 1.5 0 1.9-1 2.9-.8 1-2.1 1t-2-1v.8Zm0-3.7q0 1.4.3 2 .6.9 1.6.9.8 0 1.4-.7.6-.7.6-2.1 0-1.4-.6-2.1-.6-.7-1.4-.7-.8 0-1.4.7-.6.7-.6 2Zm9.9 3.7 3.8-10h1.4l4.2 10h-1.6l-1.1-3H247l-1.1 3h-1.4Zm2.9-4h3.4l-1-2.9q-.6-1.2-.8-2l-.5 1.9-1.1 3Zm7 4v-10h1.2v10h-1.2Zm3 0v-7.2h1.1v1q.4-.5 1-.9.5-.3 1.2-.3.8 0 1.3.4.6.3.8.9.8-1.3 2.2-1.3 1 0 1.7.6.6.6.6 1.8v5H266V56l-.5-.5q-.3-.2-.8-.2-.7 0-1.2.5t-.5 1.6v4.2h-1.3V57q0-.8-.3-1.2-.3-.4-1-.4-.5 0-1 .3-.4.2-.6.8l-.1 1.5v3.7h-1.3Zm15.8-.9q-.7.6-1.4.9-.6.2-1.3.2-1.2 0-1.9-.6-.6-.6-.6-1.5l.2-1 .7-.7.9-.4 1-.2q1.6-.1 2.3-.4v-.3q0-.8-.4-1-.5-.5-1.4-.5-.8 0-1.3.3-.4.3-.6 1.1l-1.2-.2.5-1.2q.4-.5 1.1-.7.8-.3 1.7-.3 1 0 1.5.2.6.2.8.6.3.3.4.8l.1 1.1v3.9l.4.8h-1.3q-.2-.4-.2-.9ZM273 58q-.7.3-2 .5-.8 0-1.1.2-.3.1-.5.4l-.2.6q0 .5.4.8.4.3 1 .3.8 0 1.3-.3.6-.3.9-.8.2-.4.2-1.3V58Zm3.3 3.6v-7.2h1.1v1q.8-1.2 2.3-1.2.7 0 1.2.2.6.3.9.7l.4.9v5.6H281v-4.4l-.1-1.1q-.2-.4-.6-.6-.3-.2-.8-.2-.8 0-1.4.5-.5.5-.5 1.9v4h-1.3Zm12.8-.9q-.7.6-1.4.9-.6.2-1.3.2-1.2 0-1.9-.6-.6-.6-.6-1.5l.2-1 .7-.7.9-.4 1-.2q1.6-.1 2.3-.4v-.3q0-.8-.4-1-.5-.5-1.4-.5-.8 0-1.3.3-.4.3-.6 1.1l-1.2-.2.5-1.2q.4-.5 1.1-.7.8-.3 1.7-.3 1 0 1.5.2.6.2.8.6.3.3.4.8l.1 1.1v3.9l.4.8h-1.3q-.2-.4-.2-.9ZM289 58q-.7.3-2 .5-.8 0-1.1.2-.3.1-.5.4l-.2.6q0 .5.4.8.4.3 1 .3.8 0 1.3-.3.6-.3.9-.8.2-.4.2-1.3V58Zm8 1 1.3.1q-.2 1.3-1 2-.9.7-2 .7-1.5 0-2.4-1-1-1-1-2.8 0-1.1.4-2 .4-1 1.2-1.4.8-.4 1.8-.4 1.1 0 1.9.6.7.6 1 1.7l-1.2.2q-.2-.7-.6-1.1-.5-.4-1-.4-1 0-1.6.7-.6.7-.6 2 0 1.6.6 2.2.5.7 1.4.7.8 0 1.2-.4.5-.5.7-1.4Zm12.4 1.4v1.2H303l.2-.8q.2-.7.8-1.4l1.6-1.5q1.6-1.3 2.2-2 .6-.9.6-1.6 0-.7-.6-1.2-.5-.5-1.3-.5-.9 0-1.4.5-.6.5-.6 1.5l-1.2-.1q0-1.4 1-2.2.8-.7 2.2-.7 1.5 0 2.3.8.8.8.8 2 0 .6-.2 1.1l-.8 1.3-2 1.7-1.3 1.3-.6.6h5Zm1.6-3.7q0-1.8.3-2.9.4-1 1.1-1.6.8-.6 1.8-.6.9 0 1.5.3t1 1q.4.5.6 1.4.2.9.2 2.4 0 1.8-.3 2.8-.4 1.1-1.1 1.7-.7.6-1.9.6-1.4 0-2.2-1-1-1.3-1-4.1Zm1.2 0q0 2.5.6 3.3.6.8 1.4.8.9 0 1.5-.8.6-.9.6-3.3 0-2.5-.6-3.3-.6-.8-1.5-.8-.8 0-1.3.7-.7 1-.7 3.4Zm13.2 3.7v1.2H319l.2-.8q.2-.7.8-1.4l1.6-1.5q1.6-1.3 2.2-2 .6-.9.6-1.6 0-.7-.6-1.2-.5-.5-1.3-.5-.9 0-1.4.5-.6.5-.6 1.5l-1.2-.1q0-1.4 1-2.2.8-.7 2.2-.7 1.5 0 2.3.8.8.8.8 2 0 .6-.2 1.1l-.8 1.3-2 1.7-1.3 1.3-.6.6h5Zm8 0v1.2H327l.2-.8q.2-.7.8-1.4l1.6-1.5q1.6-1.3 2.2-2 .6-.9.6-1.6 0-.7-.6-1.2-.5-.5-1.3-.5-.9 0-1.4.5-.6.5-.6 1.5l-1.2-.1q0-1.4 1-2.2.8-.7 2.2-.7 1.5 0 2.3.8.8.8.8 2 0 .6-.2 1.1l-.8 1.3-2 1.7-1.3 1.3-.6.6h5Zm2.3-4.6v-1.4h1.4v1.4h-1.4Zm0 5.8v-1.4h1.4v1.4h-1.4Zm7.8 0v-10h3.8l1.5.1q.7.1 1.2.5.5.3.8 1 .3.6.3 1.3 0 1.3-.8 2.2-.8.9-3 .9H345v4h-1.3Zm1.3-5.2h2.6q1.3 0 1.8-.5.6-.5.6-1.3 0-.7-.4-1.1-.3-.5-.8-.6l-1.2-.1h-2.6v3.6Zm7.5 5.2v-7.2h1.1v1q.4-.7.8-1l.8-.2q.6 0 1.3.4l-.5 1.1q-.4-.2-.9-.2-.4 0-.7.2l-.5.7-.2 1.4v3.8h-1.2Zm5-8.6v-1.4h1.3V53h-1.3Zm0 8.6v-7.2h1.3v7.2h-1.3Zm5 0-2.7-7.2h1.3l1.5 4.3.5 1.5.5-1.4 1.6-4.4h1.2l-2.7 7.2h-1.2Zm9.8-.9q-.7.6-1.4.9-.6.2-1.3.2-1.2 0-1.9-.6-.6-.6-.6-1.5l.2-1 .7-.7.9-.4 1-.2q1.6-.1 2.3-.4v-.3q0-.8-.4-1-.5-.5-1.4-.5-.8 0-1.3.3-.4.3-.6 1.1l-1.2-.2.5-1.2q.4-.5 1.1-.7.8-.3 1.7-.3 1 0 1.5.2.6.2.8.6.3.3.4.8l.1 1.1v3.9l.4.8h-1.3q-.2-.4-.2-.9ZM372 58q-.7.3-2 .5-.8 0-1.1.2-.3.1-.5.4l-.2.6q0 .5.4.8.4.3 1 .3.8 0 1.3-.3.6-.3.9-.8.2-.4.2-1.3V58Zm8 1 1.3.1q-.2 1.3-1 2-.9.7-2 .7-1.5 0-2.4-1-1-1-1-2.8 0-1.1.4-2 .4-1 1.2-1.4.8-.4 1.8-.4 1.1 0 1.9.6.7.6 1 1.7l-1.2.2q-.2-.7-.6-1.1-.5-.4-1-.4-1 0-1.6.7-.6.7-.6 2 0 1.6.6 2.2.5.7 1.4.7.8 0 1.2-.4.5-.5.7-1.4Zm2.3 5.4-.2-1.1h1.4l.4-.4.4-1v-.3l-2.7-7.2h1.3l1.6 4.2.5 1.7.5-1.7 1.5-4.2h1.3l-2.8 7.4-.7 1.6q-.3.6-.7.9-.5.3-1 .3l-.8-.2Z"/><path fill="#1a2b49" d="M133 21.8h13.4v3.6H142V36h-4.4V25.4H133v-3.6Zm14.2 9.2q0-2.4 1.6-4 1.6-1.5 4.3-1.5 3.1 0 4.7 1.8 1.3 1.5 1.3 3.6 0 2.4-1.6 4-1.5 1.5-4.3 1.5-2.5 0-4-1.3-2-1.6-2-4.1Zm4 0q0 1.4.6 2 .5.7 1.4.7.8 0 1.4-.7.5-.6.5-2t-.5-2q-.6-.7-1.4-.7-.9 0-1.4.6-.6.7-.6 2Zm9.5 9V25.9h3.7v1.5q.8-1 1.5-1.3.8-.5 1.9-.5 2 0 3.2 1.6 1.1 1.6 1.1 4 0 2.5-1.2 4-1.2 1.3-3.1 1.3-1 0-1.7-.3-.8-.4-1.4-1v5h-4Zm4-9q0 1.2.5 1.8.5.6 1.3.6.7 0 1.2-.6.5-.5.5-2 0-1.2-.5-1.8-.5-.6-1.2-.6-.8 0-1.3.6t-.5 2Zm24.6-9.4V36h-4v-9.5l-1.9 1.2q-.9.5-2.3.9v-3.3q2-.6 3.2-1.6t1.7-2.2h3.3Zm4 7.3q0-4 1.5-5.7 1.5-1.6 4.5-1.6 1.4 0 2.3.3 1 .4 1.5 1 .6.5 1 1.2l.5 1.4q.4 1.6.4 3.4 0 3.9-1.3 5.7-1.3 1.8-4.5 1.8-1.8 0-3-.6-1-.6-1.8-1.7-.5-.8-.8-2.2-.3-1.3-.3-3Zm4 0q0 2.8.4 3.8t1.5 1q.6 0 1-.5.4-.4.6-1.3.3-1 .3-2.9 0-2.8-.5-3.8t-1.5-1q-1 0-1.4 1-.4 1-.4 3.7Zm24.1 3.2 3.8.4q-.3 1.2-1 2-.7 1-1.8 1.4-1.1.5-2.9.5-1.6 0-2.7-.3t-1.9-1q-.8-.7-1.2-1.6-.5-1-.5-2.5 0-1.6.6-2.7l1-1.4q.8-.6 1.5-.9 1.2-.5 3-.5 2.5 0 3.8 1 1.4.8 2 2.6l-3.8.5q-.2-.7-.7-1-.4-.3-1.2-.3-1 0-1.6.7-.6.7-.6 2.1 0 1.3.6 2 .6.6 1.5.6.8 0 1.3-.4.6-.4.8-1.2Zm4.8-1.1q0-2.4 1.6-4 1.6-1.5 4.3-1.5 3.1 0 4.7 1.8 1.3 1.5 1.3 3.6 0 2.4-1.6 4-1.5 1.5-4.3 1.5-2.5 0-4-1.3-2-1.6-2-4.1Zm4 0q0 1.4.6 2 .5.7 1.4.7.8 0 1.4-.7.5-.6.5-2t-.5-2q-.6-.7-1.4-.7-.9 0-1.4.6-.6.7-.6 2Zm9 0q0-2.4 1.6-4 1.6-1.5 4.3-1.5 3.1 0 4.7 1.8 1.3 1.5 1.3 3.6 0 2.4-1.6 4-1.5 1.5-4.3 1.5-2.5 0-4-1.3-2-1.6-2-4.1Zm4 0q0 1.4.6 2 .5.7 1.4.7.8 0 1.4-.7.5-.6.5-2t-.5-2q-.6-.7-1.4-.7-.9 0-1.4.6-.6.7-.6 2Zm9.5-9.2h4v7.4l3-3.4h5l-3.8 3.6 4 6.7h-4.5l-2.1-4.1-1.5 1.4v2.7h-4.1V21.8Zm13.1 0h4v2.7h-4v-2.7Zm0 4h4V36h-4V25.8Zm18.4 6.1h-8q.2 1 .6 1.5.5.6 1.5.6.6 0 1-.3.4-.1.8-.6l3.9.3q-1 1.6-2.2 2.3-1.3.7-3.6.7-2 0-3.3-.6-1.1-.6-2-1.9-.7-1.2-.7-3 0-2.4 1.5-3.9 1.6-1.5 4.4-1.5 2.2 0 3.5.7 1.3.7 2 2 .6 1.2.6 3.3v.4Zm-4-1.9q-.1-1.1-.7-1.6-.5-.5-1.3-.5-1 0-1.5.7-.3.5-.4 1.4h3.9Zm4.8 3.3 4-.4q.2.7.6 1 .5.3 1.2.3.8 0 1.2-.3.4-.3.4-.7 0-.4-.5-.6-.3-.2-1.7-.5-2-.3-2.9-.6-.8-.3-1.3-1-.6-.8-.6-1.7 0-1 .6-1.8.6-.7 1.7-1.1 1-.4 2.8-.4 1.8 0 2.7.3.9.3 1.5.9.6.6 1 1.6l-3.8.4q-.1-.5-.5-.8-.4-.3-1.1-.3-.7 0-1 .3-.3.2-.3.5 0 .4.4.6.4.2 1.7.4 2 .2 3 .6.9.4 1.4 1.1.5.8.5 1.7 0 .9-.5 1.7-.6.9-1.7 1.4-1.2.5-3.2.5-2.9 0-4-.8-1.3-.8-1.6-2.3Zm19 0 4-.4q.2.7.6 1 .5.3 1.2.3.8 0 1.2-.3.4-.3.4-.7 0-.4-.5-.6-.3-.2-1.7-.5-2-.3-2.9-.6-.8-.3-1.3-1-.6-.8-.6-1.7 0-1 .6-1.8.6-.7 1.7-1.1 1-.4 2.8-.4 1.8 0 2.7.3.9.3 1.5.9.6.6 1 1.6l-3.8.4q-.1-.5-.5-.8-.4-.3-1.1-.3-.7 0-1 .3-.3.2-.3.5 0 .4.4.6.4.2 1.7.4 2 .2 3 .6.9.4 1.4 1.1.5.8.5 1.7 0 .9-.5 1.7-.6.9-1.7 1.4-1.2.5-3.2.5-2.9 0-4-.8-1.3-.8-1.6-2.3Zm24.2-1.4h-8q.2 1 .6 1.5.5.6 1.5.6.6 0 1-.3.4-.1.8-.6l3.9.3q-1 1.6-2.2 2.3-1.3.7-3.6.7-2 0-3.3-.6-1.1-.6-2-1.9-.7-1.2-.7-3 0-2.4 1.5-3.9 1.6-1.5 4.4-1.5 2.2 0 3.5.7 1.3.7 2 2 .6 1.2.6 3.3v.4Zm-4-1.9q-.1-1.1-.7-1.6-.5-.5-1.3-.5-1 0-1.5.7-.3.5-.4 1.4h3.9Zm10.3-8.2v4h2.2v2.9h-2.2v3.6l.1 1q.2.3.7.3l1.2-.3.3 2.7q-1.4.4-2.7.4-1.5 0-2.2-.4-.7-.4-1-1.2-.4-.7-.4-2.5v-3.6H329v-3h1.5V24l4-2Zm11.2 0h4v5q.6-.7 1.4-1 .7-.3 1.7-.3 1.9 0 3 1.4 1.3 1.4 1.3 4 0 1.6-.5 2.9-.6 1.3-1.6 2-1 .6-2.2.6-1 0-2-.5-.6-.3-1.4-1.3v1.5h-3.7V21.8Zm4 9.1q0 1.4.5 2 .5.6 1.3.6.7 0 1.2-.6t.5-2q0-1.3-.5-1.8-.5-.6-1.2-.6-.8 0-1.3.6t-.5 1.8Zm7.8-5.1h4.2l2.2 6.9 2-7h3.9L365.7 37q-.7 1.8-1.5 2.5-1 1-3.1 1l-2.7-.3-.3-2.8q.9.3 2 .3.6 0 1-.3.5-.3.8-1.2l-4.4-10.3Zm25-4v4h2.2v2.9h-2.2v3.6l.1 1q.2.3.7.3l1.2-.3.3 2.7q-1.4.4-2.7.4-1.5 0-2.2-.4-.7-.4-1-1.2-.4-.7-.4-2.5v-3.6H377v-3h1.5V24l4-2Zm4.2 4h3.8v1.7q.5-1.1 1-1.6.6-.4 1.5-.4t2 .6l-1.3 2.8q-.7-.3-1.1-.3-.8 0-1.3.7-.6.9-.6 3.3v3.5h-4V25.8Zm12.6 3.3-3.8-.4q.2-1 .6-1.5.4-.6 1.2-1l1.5-.5 2-.2q1.9 0 3 .2 1 .2 1.8.9.5.4.8 1.2.3.8.3 1.6V35l.5 1h-3.8l-.3-.6-.1-.6q-.8.7-1.6 1-1 .5-2.4.5-1.9 0-2.8-.9-1-.9-1-2.1 0-1.2.7-2 .7-.7 2.6-1.1l2.9-.6 1.4-.5q0-.7-.3-1-.3-.3-1-.3-1 0-1.6.3-.3.2-.6 1Zm3.5 2.1-1.7.5q-1.2.4-1.6.7-.3.3-.3.7 0 .5.3.8.4.3 1 .3.7 0 1.2-.4.6-.3.8-.7.3-.5.3-1.2v-.7Zm13.6.9 3.8.4q-.3 1.2-1 2-.7 1-1.8 1.4-1.1.5-2.9.5-1.6 0-2.7-.3t-1.9-1q-.8-.7-1.2-1.6-.5-1-.5-2.5 0-1.6.6-2.7l1-1.4q.8-.6 1.5-.9 1.2-.5 3-.5 2.5 0 3.8 1 1.4.8 2 2.6l-3.8.5q-.2-.7-.7-1-.4-.3-1.2-.3-1 0-1.6.7-.6.7-.6 2.1 0 1.3.6 2 .6.6 1.5.6.8 0 1.3-.4.6-.4.8-1.2Zm5.3-10.3h4v7.4l3-3.4h5l-3.8 3.6 4 6.7h-4.5l-2.1-4.1-1.5 1.4v2.7h-4.1V21.8ZM446.2 32h-8q.2 1 .6 1.5.5.6 1.5.6.6 0 1-.3.4-.1.8-.6l3.9.3q-1 1.6-2.2 2.3-1.3.7-3.6.7-2 0-3.3-.6-1.1-.6-2-1.9-.7-1.2-.7-3 0-2.4 1.5-3.9 1.6-1.5 4.4-1.5 2.2 0 3.5.7 1.3.7 2 2 .6 1.2.6 3.3v.4Zm-4-1.9q-.1-1.1-.7-1.6-.5-.5-1.3-.5-1 0-1.5.7-.3.5-.4 1.4h3.9Zm5.5-4.2h3.8v1.7q.5-1.1 1-1.6.6-.4 1.5-.4t2 .6l-1.3 2.8q-.7-.3-1.1-.3-.8 0-1.3.7-.6.9-.6 3.3v3.5h-4V25.8Zm8.3 7.5 4-.4q.2.7.6 1 .5.3 1.2.3.8 0 1.2-.3.4-.3.4-.7 0-.4-.5-.6-.3-.2-1.7-.5-2-.3-2.9-.6-.8-.3-1.3-1-.6-.8-.6-1.7 0-1 .6-1.8.6-.7 1.7-1.1 1-.4 2.8-.4 1.8 0 2.7.3.9.3 1.5.9.6.6 1 1.6l-3.8.4q-.1-.5-.5-.8-.4-.3-1.1-.3-.7 0-1 .3-.3.2-.3.5 0 .4.4.6.4.2 1.7.4 2 .2 3 .6.9.4 1.4 1.1.5.8.5 1.7 0 .9-.5 1.7-.6.9-1.7 1.4-1.2.5-3.2.5-2.9 0-4-.8-1.3-.8-1.6-2.3Z"/></svg>