<svg xmlns="http://www.w3.org/2000/svg" width="600" height="371" fill="none" stroke-linecap="square" stroke-miterlimit="10"><path fill="#fff" d="M0 0h600v371H0V0Z"/><path stroke="#333" stroke-linecap="butt" d="M182.5 96.5v222"/><path stroke="#f2f2f2" stroke-linecap="butt" d="M280.5 96.5v222m98-222v222m99-222v222m98-222v222"/><path stroke="#f9f9f9" stroke-linecap="butt" d="M201.5 96.5v222m20-222v222m20-222v222m19-222v222m40-222v222m19-222v222m20-222v222m20-222v222m39-222v222m20-222v222m19-222v222m20-222v222m39-222v222m20-222v222m20-222v222m19-222v222"/><clipPath id="a"><path d="M182.3 96.8h393.2v221.5H182.3V96.8Z"/></clipPath><path d="M182 140v-19h66a2 2 0 0 1 2 2v15a2 2 0 0 1-2 2Z" clip-path="url(#a)"/><path fill="#a8caba" d="M182 140v-19h66a2 2 0 0 1 2 2v15a2 2 0 0 1-2 2Z" clip-path="url(#a)"/><path d="M182 207v-19h265a2 2 0 0 1 2 2v15a2 2 0 0 1-2 2Z" clip-path="url(#a)"/><path fill="#a8caba" d="M182 207v-19h265a2 2 0 0 1 2 2v15a2 2 0 0 1-2 2Z" clip-path="url(#a)"/><path d="M182 273v-19h319a2 2 0 0 1 2 2v15a2 2 0 0 1-2 2Z" clip-path="url(#a)"/><path fill="#a8caba" d="M182 273v-19h319a2 2 0 0 1 2 2v15a2 2 0 0 1-2 2Z" clip-path="url(#a)"/><path d="M182 161v-19h50a2 2 0 0 1 2 2v15a2 2 0 0 1-2 2Z" clip-path="url(#a)"/><path fill="#62718b" d="M182 161v-19h50a2 2 0 0 1 2 2v15a2 2 0 0 1-2 2Z" clip-path="url(#a)"/><path d="M182 228v-19h225a2 2 0 0 1 2 2v15a2 2 0 0 1-2 2Z" clip-path="url(#a)"/><path fill="#62718b" d="M182 228v-19h225a2 2 0 0 1 2 2v15a2 2 0 0 1-2 2Z" clip-path="url(#a)"/><path d="M182 294v-19h266a2 2 0 0 1 2 2v15a2 2 0 0 1-2 2Z" clip-path="url(#a)"/><path fill="#62718b" d="M182 294v-19h266a2 2 0 0 1 2 2v15a2 2 0 0 1-2 2Z" clip-path="url(#a)"/><path stroke="#fff" stroke-linecap="round" stroke-linejoin="round" stroke-width="3" d="M254.1 145.5q1.7 0 2.6 1.2 1.1 1.4 1.1 4.6t-1 4.7q-1 1.2-2.7 1.2t-2.7-1.3q-1-1.3-1-4.6 0-3.2 1.1-4.6 1-1.2 2.6-1.2Zm0 1.8q-.4 0-.7.3-.3.2-.5.9-.2.8-.2 2.8 0 2 .2 2.8.2.8.5 1 .3.3.7.3.4 0 .7-.3.4-.2.5-.9.2-.8.2-2.9 0-2-.2-2.7-.2-.8-.5-1-.3-.3-.7-.3Zm5.8 9.7v-2.2h2.2v2.2h-2.2Zm3.6-3 2.1-.2q.1.8.6 1.2.5.4 1 .4.7 0 1.2-.5.5-.6.5-1.7 0-1-.5-1.6-.4-.5-1.2-.5-1 0-1.7.8l-1.8-.2 1.1-6h5.8v2h-4.1l-.3 2q.7-.4 1.5-.4 1.4 0 2.4 1 1 1.2 1 2.9 0 1.4-.8 2.5-1 1.5-3 1.5-1.7 0-2.7-.9-1-.8-1.1-2.3Zm16.3 1v2h-7.7q.2-1.2.8-2.2.6-1 2.5-2.7 1.4-1.4 1.8-2 .4-.6.4-1.3 0-.7-.4-1-.4-.5-1-.5-.7 0-1.2.4-.4.4-.4 1.4l-2.2-.2q.2-1.8 1.2-2.6t2.6-.8q1.7 0 2.7 1 1 .8 1 2.2 0 .8-.4 1.5-.2.7-.8 1.4l-1.5 1.5-1.3 1.2-.4.7h4.3Zm1.6-6.6q0-1.6.7-2.3.7-.8 1.8-.8 1.2 0 2 .8.6.7.6 2.3 0 1.5-.7 2.3-.7.7-1.8.7-1.2 0-1.9-.7-.7-.8-.7-2.3Zm1.7 0q0 1 .3 1.5.2.2.5.2.4 0 .6-.2.2-.4.2-1.5 0-1.2-.2-1.5-.2-.3-.6-.3-.3 0-.5.3-.3.3-.3 1.5Zm2.5 9H284l6-12h1.7l-6 12Zm3.6-3q0-1.5.6-2.2.7-.8 1.9-.8t1.8.8q.7.7.7 2.2 0 1.6-.7 2.3-.6.8-1.8.8-1.2 0-1.9-.8-.6-.7-.6-2.3Zm1.7 0q0 1.1.2 1.5.2.3.6.3.3 0 .5-.3.3-.4.3-1.5t-.3-1.5q-.2-.3-.5-.3-.4 0-.6.3-.2.4-.2 1.5Z"/><path fill="#62718b" d="M254.1 145.5q1.7 0 2.6 1.2 1.1 1.4 1.1 4.6t-1 4.7q-1 1.2-2.7 1.2t-2.7-1.3q-1-1.3-1-4.6 0-3.2 1.1-4.6 1-1.2 2.6-1.2Zm0 1.8q-.4 0-.7.3-.3.2-.5.9-.2.8-.2 2.8 0 2 .2 2.8.2.8.5 1 .3.3.7.3.4 0 .7-.3.4-.2.5-.9.2-.8.2-2.9 0-2-.2-2.7-.2-.8-.5-1-.3-.3-.7-.3Zm5.8 9.7v-2.2h2.2v2.2h-2.2Zm3.6-3 2.1-.2q.1.8.6 1.2.5.4 1 .4.7 0 1.2-.5.5-.6.5-1.7 0-1-.5-1.6-.4-.5-1.2-.5-1 0-1.7.8l-1.8-.2 1.1-6h5.8v2h-4.1l-.3 2q.7-.4 1.5-.4 1.4 0 2.4 1 1 1.2 1 2.9 0 1.4-.8 2.5-1 1.5-3 1.5-1.7 0-2.7-.9-1-.8-1.1-2.3Zm16.3 1v2h-7.7q.2-1.2.8-2.2.6-1 2.5-2.7 1.4-1.4 1.8-2 .4-.6.4-1.3 0-.7-.4-1-.4-.5-1-.5-.7 0-1.2.4-.4.4-.4 1.4l-2.2-.2q.2-1.8 1.2-2.6t2.6-.8q1.7 0 2.7 1 1 .8 1 2.2 0 .8-.4 1.5-.2.7-.8 1.4l-1.5 1.5-1.3 1.2-.4.7h4.3Zm1.6-6.6q0-1.6.7-2.3.7-.8 1.8-.8 1.2 0 2 .8.6.7.6 2.3 0 1.5-.7 2.3-.7.7-1.8.7-1.2 0-1.9-.7-.7-.8-.7-2.3Zm1.7 0q0 1 .3 1.5.2.2.5.2.4 0 .6-.2.2-.4.2-1.5 0-1.2-.2-1.5-.2-.3-.6-.3-.3 0-.5.3-.3.3-.3 1.5Zm2.5 9H284l6-12h1.7l-6 12Zm3.6-3q0-1.5.6-2.2.7-.8 1.9-.8t1.8.8q.7.7.7 2.2 0 1.6-.7 2.3-.6.8-1.8.8-1.2 0-1.9-.8-.6-.7-.6-2.3Zm1.7 0q0 1.1.2 1.5.2.3.6.3.3 0 .5-.3.3-.4.3-1.5t-.3-1.5q-.2-.3-.5-.3-.4 0-.6.3-.2.4-.2 1.5Z"/><path stroke="#fff" stroke-linecap="round" stroke-linejoin="round" stroke-width="3" d="M433.2 222v2h-7.7q.1-1.2.8-2.2.6-1 2.4-2.7 1.5-1.4 1.8-2 .5-.6.5-1.3 0-.7-.4-1-.4-.5-1-.5-.8 0-1.2.4-.4.4-.4 1.4l-2.2-.2q.2-1.8 1.2-2.6t2.6-.8q1.7 0 2.6 1 1 .8 1 2.2 0 .8-.3 1.5-.2.7-.9 1.4-.3.5-1.4 1.5l-1.3 1.2-.5.7h4.4Zm2 2v-2.2h2.3v2.2h-2.2Zm3.5-3 2.1-.3q.1.8.6 1.3.4.4 1 .4.7 0 1.2-.5.5-.6.5-1.4 0-.9-.5-1.3-.4-.5-1-.5l-1 .1.2-1.8q.9 0 1.3-.3.5-.4.5-1.1 0-.6-.3-1-.4-.3-1-.3-.5 0-1 .4-.3.4-.4 1.1l-2-.3q.2-1 .6-1.7.4-.6 1.2-1 .8-.3 1.7-.3 1.6 0 2.6 1 .8.9.8 2 0 1.4-1.6 2.3 1 .2 1.5 1 .6.7.6 1.8 0 1.5-1 2.5-1.2 1.1-2.8 1.1-1.6 0-2.6-.9t-1.2-2.3Zm14.7 3h-2.2v-8.3q-1.2 1.1-2.8 1.7v-2q.8-.3 1.8-1 1-.9 1.4-1.9h1.8V224Zm3.4-8.6q0-1.6.7-2.3.7-.8 1.8-.8 1.2 0 1.9.8.7.7.7 2.3 0 1.5-.7 2.3-.7.7-1.8.7-1.2 0-2-.7-.6-.8-.6-2.3Zm1.7 0q0 1 .3 1.5.2.2.5.2.4 0 .6-.2.2-.4.2-1.5 0-1.2-.2-1.5-.2-.3-.6-.3-.3 0-.5.3-.3.3-.3 1.5Zm2.5 9h-1.6l6-12h1.6l-6 12Zm3.5-3q0-1.5.7-2.2.7-.8 1.9-.8 1.1 0 1.8.8.7.7.7 2.2 0 1.6-.7 2.3-.7.8-1.8.8-1.2 0-1.9-.8-.7-.7-.7-2.3Zm1.7 0q0 1.1.3 1.5.2.3.5.3.4 0 .6-.3.2-.4.2-1.5t-.2-1.5q-.2-.3-.6-.3-.3 0-.5.3-.3.4-.3 1.5Z"/><path fill="#62718b" d="M433.2 222v2h-7.7q.1-1.2.8-2.2.6-1 2.4-2.7 1.5-1.4 1.8-2 .5-.6.5-1.3 0-.7-.4-1-.4-.5-1-.5-.8 0-1.2.4-.4.4-.4 1.4l-2.2-.2q.2-1.8 1.2-2.6t2.6-.8q1.7 0 2.6 1 1 .8 1 2.2 0 .8-.3 1.5-.2.7-.9 1.4-.3.5-1.4 1.5l-1.3 1.2-.5.7h4.4Zm2 2v-2.2h2.3v2.2h-2.2Zm3.5-3 2.1-.3q.1.8.6 1.3.4.4 1 .4.7 0 1.2-.5.5-.6.5-1.4 0-.9-.5-1.3-.4-.5-1-.5l-1 .1.2-1.8q.9 0 1.3-.3.5-.4.5-1.1 0-.6-.3-1-.4-.3-1-.3-.5 0-1 .4-.3.4-.4 1.1l-2-.3q.2-1 .6-1.7.4-.6 1.2-1 .8-.3 1.7-.3 1.6 0 2.6 1 .8.9.8 2 0 1.4-1.6 2.3 1 .2 1.5 1 .6.7.6 1.8 0 1.5-1 2.5-1.2 1.1-2.8 1.1-1.6 0-2.6-.9t-1.2-2.3Zm14.7 3h-2.2v-8.3q-1.2 1.1-2.8 1.7v-2q.8-.3 1.8-1 1-.9 1.4-1.9h1.8V224Zm3.4-8.6q0-1.6.7-2.3.7-.8 1.8-.8 1.2 0 1.9.8.7.7.7 2.3 0 1.5-.7 2.3-.7.7-1.8.7-1.2 0-2-.7-.6-.8-.6-2.3Zm1.7 0q0 1 .3 1.5.2.2.5.2.4 0 .6-.2.2-.4.2-1.5 0-1.2-.2-1.5-.2-.3-.6-.3-.3 0-.5.3-.3.3-.3 1.5Zm2.5 9h-1.6l6-12h1.6l-6 12Zm3.5-3q0-1.5.7-2.2.7-.8 1.9-.8 1.1 0 1.8.8.7.7.7 2.2 0 1.6-.7 2.3-.7.8-1.8.8-1.2 0-1.9-.8-.7-.7-.7-2.3Zm1.7 0q0 1.1.3 1.5.2.3.5.3.4 0 .6-.3.2-.4.2-1.5t-.2-1.5q-.2-.3-.6-.3-.3 0-.5.3-.3.4-.3 1.5Z"/><path stroke="#fff" stroke-linecap="round" stroke-linejoin="round" stroke-width="3" d="M474.5 288v2h-7.7q.1-1.2.8-2.2.6-1 2.4-2.7 1.5-1.4 1.8-2 .5-.6.5-1.3 0-.7-.4-1-.4-.5-1.1-.5-.7 0-1 .4-.5.4-.6 1.4l-2.1-.2q.2-1.8 1.2-2.6t2.6-.8q1.7 0 2.6 1 1 .8 1 2.2 0 .8-.3 1.5t-.9 1.4l-1.4 1.5-1.3 1.2-.5.7h4.4Zm2 2v-2.2h2.2v2.2h-2.1Zm3.6-9.3v-2h7.5v1.6q-1 .9-2 2.6-.9 1.7-1.4 3.7-.5 1.9-.5 3.4h-2q0-2.4.9-4.8 1-2.5 2.5-4.5h-5Zm9 6.3 2-.3q.1.8.6 1.3.4.4 1 .4.7 0 1.2-.5.5-.6.5-1.4 0-.9-.5-1.3-.4-.5-1-.5l-1 .1.2-1.8q.9 0 1.3-.3.5-.4.5-1.1 0-.6-.3-1-.4-.3-1-.3-.5 0-1 .4-.3.4-.4 1.1l-2-.3q.2-1 .6-1.7.4-.6 1.2-1 .8-.3 1.7-.3 1.6 0 2.6 1 .8.9.8 2 0 1.4-1.7 2.3 1 .2 1.6 1 .6.7.6 1.8 0 1.5-1 2.5-1.2 1.1-2.8 1.1-1.6 0-2.6-.9T489 287Zm9-5.6q0-1.6.7-2.3.6-.8 1.8-.8 1.2 0 1.9.8.6.7.6 2.3 0 1.5-.6 2.3-.7.7-1.9.7t-1.8-.7q-.7-.8-.7-2.3Zm1.7 0q0 1 .3 1.5.2.2.5.2.4 0 .5-.2.3-.4.3-1.5 0-1.2-.3-1.5-.1-.3-.5-.3-.3 0-.5.3-.3.3-.3 1.5Zm2.5 9h-1.7l6.2-12h1.5l-6 12Zm3.5-3q0-1.5.7-2.2.7-.8 1.9-.8 1.1 0 1.8.8.7.7.7 2.2 0 1.6-.7 2.3-.7.8-1.8.8-1.2 0-2-.8-.6-.7-.6-2.3Zm1.7 0q0 1.1.3 1.5.2.3.5.3.4 0 .6-.3.2-.4.2-1.5t-.2-1.5q-.2-.3-.6-.3-.3 0-.5.3-.3.4-.3 1.5Z"/><path fill="#62718b" d="M474.5 288v2h-7.7q.1-1.2.8-2.2.6-1 2.4-2.7 1.5-1.4 1.8-2 .5-.6.5-1.3 0-.7-.4-1-.4-.5-1.1-.5-.7 0-1 .4-.5.4-.6 1.4l-2.1-.2q.2-1.8 1.2-2.6t2.6-.8q1.7 0 2.6 1 1 .8 1 2.2 0 .8-.3 1.5t-.9 1.4l-1.4 1.5-1.3 1.2-.5.7h4.4Zm2 2v-2.2h2.2v2.2h-2.1Zm3.6-9.3v-2h7.5v1.6q-1 .9-2 2.6-.9 1.7-1.4 3.7-.5 1.9-.5 3.4h-2q0-2.4.9-4.8 1-2.5 2.5-4.5h-5Zm9 6.3 2-.3q.1.8.6 1.3.4.4 1 .4.7 0 1.2-.5.5-.6.5-1.4 0-.9-.5-1.3-.4-.5-1-.5l-1 .1.2-1.8q.9 0 1.3-.3.5-.4.5-1.1 0-.6-.3-1-.4-.3-1-.3-.5 0-1 .4-.3.4-.4 1.1l-2-.3q.2-1 .6-1.7.4-.6 1.2-1 .8-.3 1.7-.3 1.6 0 2.6 1 .8.9.8 2 0 1.4-1.7 2.3 1 .2 1.6 1 .6.7.6 1.8 0 1.5-1 2.5-1.2 1.1-2.8 1.1-1.6 0-2.6-.9T489 287Zm9-5.6q0-1.6.7-2.3.6-.8 1.8-.8 1.2 0 1.9.8.6.7.6 2.3 0 1.5-.6 2.3-.7.7-1.9.7t-1.8-.7q-.7-.8-.7-2.3Zm1.7 0q0 1 .3 1.5.2.2.5.2.4 0 .5-.2.3-.4.3-1.5 0-1.2-.3-1.5-.1-.3-.5-.3-.3 0-.5.3-.3.3-.3 1.5Zm2.5 9h-1.7l6.2-12h1.5l-6 12Zm3.5-3q0-1.5.7-2.2.7-.8 1.9-.8 1.1 0 1.8.8.7.7.7 2.2 0 1.6-.7 2.3-.7.8-1.8.8-1.2 0-2-.8-.6-.7-.6-2.3Zm1.7 0q0 1.1.3 1.5.2.3.5.3.4 0 .6-.3.2-.4.2-1.5t-.2-1.5q-.2-.3-.6-.3-.3 0-.5.3-.3.4-.3 1.5Z"/><path fill="#838689" d="M333.3 357.7V349h4.5q.7.2 1.1.5.4.3.7.8.3.5.3 1.2 0 1-.7 1.8t-2.6.8h-2.2v3.5h-1.1Zm1.1-4.5h2.3q1 0 1.5-.4t.5-1.2q0-.5-.3-.9t-.7-.5h-3.3v3Zm11 2.5 1.1.1q-.2 1-1 1.5-.6.5-1.7.5-1.4 0-2.2-.8-.8-.9-.8-2.4t.8-2.4q.8-.9 2.1-.9t2 .9q.9.8.9 2.4v.3h-4.7q0 1 .6 1.5.5.6 1.3.6.6 0 1-.3t.6-1ZM342 354h3.4q0-.8-.3-1.2-.6-.6-1.4-.6-.7 0-1.2.5t-.5 1.3Zm6.2 3.7v-6.2h1v1q.3-.7.6-1 .3-.2.7-.2.5 0 1 .4l-.3 1q-.4-.3-.8-.3l-.6.2q-.3.2-.4.6l-.2 1.2v3.3h-1Zm8-2.3 1 .2q-.1 1-.8 1.6-.7.6-1.7.6-1.3 0-2-.8-.9-.8-.9-2.4 0-1 .4-1.7.3-.8 1-1.2.7-.4 1.5-.4 1 0 1.6.6.7.5.9 1.4l-1 .2q-.2-.7-.6-1-.3-.3-.9-.3-.8 0-1.3.6-.5.5-.5 1.8 0 1.2.5 1.8.5.6 1.3.6.6 0 1-.4t.5-1.2Zm6.2.3 1.1.1q-.2 1-1 1.5-.6.5-1.7.5-1.4 0-2.2-.8-.8-.9-.8-2.4t.8-2.4q.8-.9 2.1-.9t2 .9q.9.8.9 2.4v.3h-4.7q0 1 .6 1.5.5.6 1.3.6.6 0 1-.3t.6-1ZM359 354h3.4q0-.8-.3-1.2-.6-.6-1.4-.6-.7 0-1.2.5t-.5 1.3Zm6.2 3.7v-6.2h1v.9q.6-1 1.9-1l1 .1q.5.2.7.6.3.3.4.7v4.9h-1v-3.8l-.1-1-.5-.5q-.3-.2-.7-.2-.7 0-1.2.5-.5.4-.5 1.6v3.4h-1Zm9.3-1 .1 1h-.8l-.9-.1q-.3-.2-.4-.5l-.1-1.2v-3.6h-.8v-.8h.8v-1.6l1-.6v2.2h1v.8h-1v4.2l.2.2h.9Zm3.3-2.1q0-1.7 1-2.6.7-.7 1.9-.7 1.3 0 2 .9 1 .8 1 2.3 0 1.2-.4 1.9t-1.1 1q-.7.4-1.5.4-1.3 0-2.1-.8t-.8-2.4Zm1 0q0 1.2.6 1.8.5.6 1.3.6t1.3-.6q.5-.6.5-1.8 0-1.2-.5-1.8-.5-.6-1.3-.6t-1.3.6q-.5.6-.5 1.8Zm6.6 3.1v-5.4h-1v-.8h1v-.7l.1-1 .6-.6q.4-.2 1-.2h1l-.1 1h-.7l-.6.1q-.2.2-.2.8v.6h1.2v.8h-1.2v5.4h-1Zm5.8 2.4v-8.6h1v.8q.3-.5.7-.7.4-.3 1-.3.8 0 1.4.4.7.4 1 1.2.3.7.3 1.6 0 1-.4 1.8-.3.7-1 1.1-.6.4-1.3.4-.6 0-1-.2l-.7-.5v3h-1Zm1-5.5q0 1.2.4 1.8.5.6 1.2.6t1.2-.6q.5-.6.5-1.9 0-1.2-.5-1.7-.5-.6-1.2-.6-.6 0-1.2.6t-.5 1.8Zm10 2.3-1.1.7q-.5.2-1.2.2-1 0-1.5-.5-.6-.5-.6-1.2 0-.5.2-.9t.6-.6l.7-.3 1-.2q1.2-.1 1.8-.4v-.2q0-.7-.3-1-.4-.3-1.2-.3-.7 0-1 .3-.4.2-.6.9l-1-.2q.1-.6.5-1 .3-.4.9-.6.6-.3 1.4-.3.8 0 1.3.2t.7.5q.3.3.4.7v4.2l.4.8h-1.2l-.2-.8Zm0-2.3-1.8.4q-.6 0-.9.2l-.4.3q-.2.2-.2.5 0 .4.4.7.3.3.9.3.6 0 1-.3.6-.2.8-.7l.1-1v-.4Zm2.8 3.6 1 .2q0 .4.4.7.4.3 1 .3.8 0 1.2-.3.4-.3.5-.9V357q-.6.8-1.6.8-1.3 0-2-1-.7-.9-.7-2.1 0-1 .3-1.7.3-.8 1-1.2.5-.4 1.4-.4 1 0 1.8 1v-.8h1v5.4q0 1.4-.3 2-.3.6-1 1-.6.3-1.6.3t-1.8-.5q-.6-.5-.6-1.5Zm.8-3.7q0 1.2.5 1.8.5.5 1.3.5.7 0 1.2-.5.5-.6.5-1.8 0-1.1-.5-1.7-.5-.6-1.3-.6-.7 0-1.2.6t-.5 1.7Zm10.6 1.2 1.1.1q-.2 1-1 1.5-.6.5-1.7.5-1.4 0-2.2-.8-.8-.9-.8-2.4t.8-2.4q.8-.9 2.1-.9t2 .9q.9.8.9 2.4v.3h-4.7q0 1 .6 1.5.5.6 1.3.6.6 0 1-.3t.6-1ZM413 354h3.4q0-.8-.3-1.2-.6-.6-1.4-.6-.7 0-1.2.5t-.5 1.3Zm5.8 1.8 1-.1q0 .6.5 1 .4.3 1.1.3.7 0 1-.3.4-.3.4-.7 0-.4-.3-.6l-1-.3-1.7-.5-.6-.6q-.3-.4-.3-.9 0-.4.2-.7.2-.4.5-.6l.7-.3q.4-.2 1-.2t1.2.3q.6.2.8.5.3.4.4 1l-1 .1q-.1-.5-.5-.7-.3-.3-1-.3-.6 0-1 .2-.3.3-.3.6l.2.4.4.2 1 .3 1.5.5q.4.2.7.6.2.3.2.9 0 .5-.3 1-.3.4-.9.7-.6.2-1.3.2-1.2 0-1.8-.5-.7-.5-.8-1.5Zm-389.3-111H21v-4.5q.1-.6.4-1 .3-.5.9-.7.5-.3 1.1-.3 1.1 0 1.9.7.8.7.8 2.5v2.2h3.5v1.2Zm-4.4-1v-2.3q0-1-.5-1.5-.4-.5-1.1-.5-.6 0-1 .3-.3.2-.4.7l-.1 1v2.2h3Zm1.3-6.4q-1.7 0-2.5-1-.7-.8-.7-2t.8-2q.9-.8 2.3-.8 1.3 0 2 .3.6.4 1 1 .4.8.4 1.6 0 1.3-.8 2.1-.9.8-2.5.8Zm0-1q1.2 0 1.8-.6.6-.5.6-1.3t-.6-1.3q-.6-.5-1.8-.5-1.1 0-1.7.5-.6.5-.6 1.3t.6 1.3q.5.5 1.7.5Zm3.2-6.4H21v-1h8.6v1Zm-7.4-3H21v-1h1.2v1Zm7.4 0h-6.3v-1h6.3v1Zm-2.3-7 .1-1q1 0 1.7.8.6.7.6 1.7 0 1.3-.8 2-.9.8-2.4.8-1 0-1.8-.3t-1.1-1q-.4-.7-.4-1.5 0-1 .5-1.6.5-.7 1.5-.9l.1 1q-.6.2-1 .6-.2.3-.2.9 0 .8.5 1.3.6.5 1.8.5 1.3 0 1.9-.5.5-.5.5-1.3 0-.6-.4-1-.3-.4-1.1-.6Zm4.6-2-1 .2.2-.6q0-.4-.2-.6 0-.2-.3-.3l-.8-.4h-.2l-6.3 2.3v-1.1l3.6-1.3 1.5-.5-1.4-.4-3.7-1.3v-1l6.4 2.3 1.4.6q.5.2.7.6.3.4.3.9l-.2.7Zm-3.3-10.3 1-.1v.8l-.1.8q-.2.4-.5.5l-1.3.1h-3.6v.8h-.8v-.8h-1.5l-.6-1h2.1v-1h.8v1h4.3l.2-.3v-.8Zm3.3-.6h-1l.2-.5q0-.4-.2-.6 0-.2-.3-.3l-.8-.4h-.2l-6.3 2.3v-1.1l3.6-1.3 1.5-.5-1.4-.4-3.7-1.3v-1l6.4 2.3 1.4.6q.5.2.7.6.3.4.3.9l-.2.7Zm0-5h-8.6v-1h.8l-.7-.8q-.2-.4-.2-1 0-.9.4-1.5t1.2-.9q.7-.3 1.6-.3 1 0 1.7.4.8.3 1.2 1 .4.6.4 1.3 0 .6-.2 1l-.6.7h3v1Zm-5.4-1q1.2 0 1.8-.5.5-.5.5-1.2t-.6-1.2q-.6-.5-1.8-.5-1.2 0-1.8.5-.6.5-.6 1.2 0 .6.6 1.1.7.6 1.9.6Zm1-10.3.2-1.1q1 .2 1.5 1 .5.6.5 1.7 0 1.4-.9 2.2-.8.8-2.3.8-1.6 0-2.4-.8-1-.9-1-2.1 0-1.3 1-2 .8-.9 2.3-.9h.3v4.7q1 0 1.6-.6.5-.5.5-1.3 0-.6-.3-1t-1-.6Zm-1.7 3.4v-3.5q-.7.1-1.1.4-.6.5-.6 1.3t.4 1.3q.5.5 1.3.5Zm74.4-48.8v-8.6h5.8v1h-4.6v2.7h4v1h-4v4h-1.2Zm11.1-2 1.1.1q-.2 1-1 1.5t-1.7.6q-1.4 0-2.2-.9-.8-.8-.8-2.3 0-1.6.8-2.5.8-.8 2.1-.8t2 .8q.8.9.8 2.4v.3h-4.6q0 1 .6 1.6.5.5 1.3.5.5 0 1-.3.4-.3.6-1Zm-3.4-1.7h3.4q0-.8-.4-1.2-.5-.6-1.3-.6-.7 0-1.2.5t-.5 1.3Zm10.2 3-1.1.7-1.2.2q-1 0-1.6-.5-.5-.5-.5-1.3 0-.5.2-.8l.5-.7.8-.3 1-.2 1.8-.3v-.3q0-.7-.3-1-.4-.3-1.2-.3-.7 0-1 .3-.4.3-.6 1l-1-.2q.1-.7.4-1 .4-.5 1-.7.6-.2 1.4-.2.8 0 1.3.2.5.1.7.4l.3.7v2.4q0 1.5.2 1.9 0 .4.2.7h-1l-.3-.7Zm0-2.4-1.8.4-1 .2-.3.3-.2.6q0 .4.3.7.4.2 1 .2t1-.2q.5-.3.8-.8l.1-1v-.4Zm5.3 2.2.1 1h-.8q-.6 0-.9-.2-.3-.2-.4-.5-.2-.3-.2-1.2V140h-.7v-.8h.7v-1.5l1-.7v2.2h1.2v.8h-1.1v4.2l.2.2.4.1h.5Zm4.7 1v-1q-.7 1-2 1l-1-.1-.7-.6-.3-.8v-4.8h1v4.5q.1.5.5.7.3.3.8.3.4 0 .8-.3.5-.2.6-.7.2-.4.2-1.2v-3.3h1v6.2h-.9Zm3 0v-6.3h.9v1l.7-1 .6-.1q.6 0 1.1.3l-.3 1q-.4-.3-.8-.3t-.6.3q-.3.2-.4.5-.2.6-.2 1.3v3.2h-1Zm8.2-2h1.1q-.2 1-1 1.5t-1.7.6q-1.4 0-2.2-.9-.8-.8-.8-2.3 0-1.6.8-2.5.8-.8 2.1-.8t2 .8q.8.8.8 2.4v.3h-4.6q0 1 .6 1.6.5.5 1.3.5.5 0 1-.3.4-.3.6-1Zm-3.4-1.8h3.4q0-.8-.4-1.2-.5-.6-1.3-.6-.7 0-1.2.5t-.5 1.3Zm9.3 3.7v-8.6h3.2l1.3.1q.7.1 1 .4.5.3.8.8l.2 1.2q0 1.1-.7 1.9-.6.7-2.5.7h-2.2v3.5h-1.1Zm1.1-4.5h2.2q1.2 0 1.6-.4.5-.4.5-1.2 0-.5-.3-.9t-.7-.5h-3.3v3Zm6.4 1.4q0-1.7 1-2.6.7-.6 1.9-.6 1.3 0 2 .8.9.8.9 2.3 0 1.2-.4 2-.3.6-1 1t-1.5.4q-1.3 0-2.1-.9-.8-.8-.8-2.4Zm1 0q0 1.2.6 1.8.5.6 1.3.6t1.3-.6q.5-.6.5-1.8 0-1.2-.5-1.8-.5-.6-1.3-.6t-1.3.6q-.6.6-.6 1.8Zm6.3 3.1v-8.6h1v8.6h-1Zm3-7.4v-1.2h1.1v1.2h-1Zm0 7.4v-6.2h1.1v6.2h-1Zm7.1-2.3 1 .2q-.1 1-.8 1.7-.7.6-1.7.6-1.3 0-2.1-.9-.8-.8-.8-2.4 0-1 .4-1.7.3-.8 1-1.2.7-.3 1.5-.3 1 0 1.6.5.7.5.9 1.4l-1 .2q-.2-.6-.6-1-.4-.3-.9-.3-.8 0-1.3.6t-.5 1.8q0 1.3.5 1.8.5.6 1.2.6t1-.4q.5-.4.6-1.2Zm2 4.7-.2-1 .6.1.5-.1.4-.3.3-.8.1-.3-2.4-6.2h1.2l1.3 3.6.4 1.4.5-1.4 1.3-3.6h1l-2.3 6.3-.6 1.4q-.3.6-.7.8-.3.3-.8.3l-.7-.2ZM71 211.6V203h4.6q.7.1 1 .4.5.3.8.9.2.5.2 1.1 0 1.1-.7 1.9-.6.8-2.5.8h-2.2v3.5h-1.1Zm1.2-4.5h2.2q1.2 0 1.6-.5.5-.4.5-1.1 0-.6-.3-1-.3-.3-.7-.4l-1-.1h-2.3v3Zm11 2.5h1.1q-.2 1-1 1.6-.7.5-1.7.5-1.4 0-2.2-.9-.8-.8-.8-2.3 0-1.6.8-2.4.8-1 2.1-1t2 1q.8.8.8 2.3v.3h-4.6q0 1 .6 1.6.5.5 1.3.5.5 0 1-.3.4-.3.6-1Zm-3.4-1.8h3.4q0-.7-.4-1.1-.5-.6-1.3-.6-.7 0-1.2.4-.5.5-.5 1.3Zm6.1 3.8v-6.3h1v1q.4-.7.7-.9l.6-.2q.6 0 1.1.3l-.3 1-.8-.2q-.4 0-.6.2-.3.2-.4.6-.2.5-.2 1.2v3.3h-1Zm4 0v-6.3h1v1q.3-.6.8-.8.5-.3 1-.3.8 0 1.2.3.5.3.6.8.8-1.1 2-1.1.9 0 1.4.5.5.5.5 1.6v4.3h-1v-4q0-.6-.2-.9 0-.3-.3-.4-.3-.2-.7-.2-.6 0-1 .4-.5.5-.5 1.4v3.7h-1v-4q0-.8-.3-1.1-.3-.4-.8-.4t-.9.2q-.4.3-.5.7-.2.5-.2 1.3v3.3h-1Zm11-7.4V203h1.1v1.2h-1Zm0 7.4v-6.3h1.1v6.3h-1Zm2.6-2h1q.2.6.6.9.4.3 1 .3.8 0 1.2-.3.3-.3.3-.7 0-.3-.3-.5-.2-.2-1-.4l-1.7-.5q-.4-.2-.7-.6l-.2-.8.2-.8q.2-.4.5-.6l.7-.3.9-.1q.7 0 1.3.2.5.2.8.6.3.3.4 1h-1q-.1-.4-.5-.7-.3-.2-1-.2t-1 .2q-.3.2-.3.6l.1.3.5.3.9.3 1.6.5q.4.2.6.5.3.4.3 1 0 .5-.3 1-.3.4-.9.6-.6.3-1.3.3-1.2 0-1.9-.5-.6-.5-.8-1.5Zm7 0h1q.2.6.6.9.4.3 1 .3.8 0 1.2-.3.3-.3.3-.7 0-.3-.3-.5-.2-.2-1-.4l-1.7-.5q-.4-.2-.7-.6l-.2-.8.2-.8q.2-.4.5-.6l.7-.3.9-.1q.7 0 1.3.2.5.2.8.6.3.3.4 1h-1q-.1-.4-.5-.7-.3-.2-1-.2t-1 .2q-.3.2-.3.6l.1.3.5.3.9.3 1.6.5q.4.2.6.5.3.4.3 1 0 .5-.3 1-.3.4-.9.6-.6.3-1.3.3-1.2 0-1.9-.5-.6-.5-.8-1.5Zm7.5-5.4V203h1v1.2h-1Zm0 7.4v-6.3h1v6.3h-1Zm2.6-3.2q0-1.7 1-2.5.7-.7 1.9-.7 1.3 0 2 .8.9.9.9 2.3 0 1.3-.4 2-.3.6-1 1t-1.5.4q-1.3 0-2.1-.8-.8-.9-.8-2.5Zm1 0q0 1.2.6 1.8.5.6 1.3.6t1.3-.6q.5-.6.5-1.8 0-1.1-.5-1.7-.5-.6-1.3-.6t-1.3.6q-.6.5-.6 1.7Zm6.4 3.2v-6.3h.9v1q.7-1.1 2-1.1l1 .2q.5.2.7.5l.4.8v4.9h-1v-3.8q0-.7-.2-1 0-.3-.4-.5-.3-.2-.7-.2-.7 0-1.2.4-.5.5-.5 1.6v3.5h-1Zm6.5-2h1q.2.6.6.9.4.3 1 .3.8 0 1.2-.3.3-.3.3-.7 0-.3-.3-.5-.2-.2-1-.4l-1.7-.5q-.4-.2-.7-.6l-.2-.8.2-.8q.2-.4.5-.6l.7-.3.9-.1q.7 0 1.3.2.5.2.8.6.3.3.4 1h-1q-.1-.4-.5-.7-.3-.2-1-.2t-1 .2q-.3.2-.3.6l.1.3.5.3.9.3 1.6.5q.4.2.6.5.3.4.3 1 0 .5-.3 1-.3.4-.9.6-.6.3-1.3.3-1.2 0-1.9-.5-.6-.5-.8-1.5Zm10.6 2V203h4.5q.7.1 1 .4.5.3.8.9.2.5.2 1.1 0 1.1-.7 1.9-.6.8-2.5.8h-2.2v3.5h-1.1Zm1.1-4.5h2.2q1.2 0 1.6-.5.5-.4.5-1.1 0-.6-.3-1-.3-.3-.7-.4l-1-.1h-2.3v3Zm6.4 1.3q0-1.7 1-2.5.7-.7 1.9-.7 1.3 0 2 .8.9.9.9 2.3 0 1.3-.4 2-.3.6-1 1t-1.5.4q-1.3 0-2.1-.8-.8-.9-.8-2.5Zm1 0q0 1.2.6 1.8.5.6 1.3.6t1.3-.6q.5-.6.5-1.8 0-1.1-.5-1.7-.5-.6-1.3-.6t-1.3.6q-.6.5-.6 1.7Zm6.3 3.2V203h1v8.6h-1Zm3-7.4V203h1.1v1.2h-1Zm0 7.4v-6.3h1.1v6.3h-1Zm7.1-2.3 1 .1q-.1 1-.8 1.7-.7.6-1.7.6-1.3 0-2.1-.8-.8-.9-.8-2.4 0-1 .4-1.8.3-.8 1-1.1.7-.4 1.5-.4 1 0 1.6.5.7.5.9 1.5l-1 .1q-.2-.6-.6-1-.4-.2-.9-.2-.8 0-1.3.5-.5.6-.5 1.8 0 1.3.5 1.9.5.5 1.2.5t1-.4q.5-.3.6-1.1Zm2 4.6-.2-1 .6.2q.3 0 .5-.2.3 0 .4-.3l.3-.8.1-.2-2.4-6.3h1.2l1.3 3.6.4 1.5.5-1.4 1.3-3.7h1l-2.3 6.4-.6 1.4q-.3.5-.7.7-.3.3-.8.3l-.7-.2Zm-49.9 63.8 3.3-8.6h1.3l3.5 8.6H129l-1-2.6h-3.6l-1 2.6h-1.2Zm2.5-3.5h3l-1-2.4-.6-1.8-.4 1.6-1 2.6Zm5.4 3.5v-6.2h.9v.8q.7-1 2-1l1 .2q.5.2.7.6.3.3.4.7v4.9h-1v-3.8q0-.7-.2-1 0-.3-.4-.5-.3-.2-.7-.2-.7 0-1.2.5-.5.4-.5 1.6v3.4h-1Zm7 2.4-.2-1h1.1l.4-.4.3-.8.1-.2-2.4-6.2h1.2l1.3 3.6.4 1.4.5-1.4 1.3-3.6h1l-2.3 6.3-.6 1.4q-.3.5-.7.8-.3.2-.8.2l-.7-.1Zm8-2.4V269h4.6q.7.2 1 .5.5.3.8.8.2.5.2 1.2 0 1-.7 1.8-.6.8-2.5.8h-2.2v3.5h-1.1Zm1.2-4.5h2.2q1.2 0 1.6-.4.5-.4.5-1.2 0-.5-.3-.9t-.7-.5l-1-.1h-2.3v3Zm6.4 1.4q0-1.8 1-2.6.7-.7 1.9-.7 1.3 0 2 .9.9.8.9 2.3 0 1.2-.4 1.9-.3.7-1 1-.7.4-1.5.4-1.3 0-2.1-.8t-.8-2.4Zm1 0q0 1.2.6 1.8.5.5 1.3.5t1.3-.5q.5-.6.5-1.9 0-1.1-.5-1.7-.5-.6-1.3-.6t-1.3.6q-.6.6-.6 1.8Zm6.3 3v-8.5h1v8.6h-1Zm3-7.3v-1.2h1.1v1.2h-1Zm0 7.4v-6.2h1.1v6.2h-1Zm7.1-2.3 1 .1q-.1 1.1-.8 1.7-.7.6-1.7.6-1.3 0-2.1-.8t-.8-2.4q0-1 .4-1.8.3-.7 1-1.1.7-.4 1.5-.4 1 0 1.6.5.7.5.9 1.5l-1 .1q-.2-.6-.6-.9-.4-.3-.9-.3-.8 0-1.3.6-.5.5-.5 1.8 0 1.2.5 1.8.5.5 1.2.5t1-.3q.5-.4.6-1.2Zm2 4.7-.2-1h1.1l.4-.4.3-.8.1-.2-2.4-6.2h1.2l1.3 3.6.4 1.4.5-1.4 1.3-3.6h1l-2.3 6.3-.6 1.4q-.3.5-.7.8-.3.2-.8.2l-.7-.1Zm-6.8 51q0-1.5.3-2.5.3-.9.9-1.4.6-.5 1.6-.5.6 0 1.2.3.5.3.8.8.4.5.6 1.3.2.7.2 2 0 1.5-.4 2.4-.3 1-.9 1.5-.6.5-1.5.5-1.3 0-2-1-.8-1-.8-3.4Zm1 0q0 2.1.5 2.8.5.7 1.3.7.7 0 1.2-.7t.5-2.8q0-2.1-.5-2.8-.5-.7-1.3-.7-.7 0-1.1.6-.6.8-.6 2.9Zm6.6 4.2v-1.2h1.2v1.2h-1.2Zm2.4-4.2q0-1.5.3-2.5.3-.9.9-1.4.6-.5 1.6-.5.6 0 1.2.3.5.3.8.8.4.5.6 1.3.2.7.2 2 0 1.5-.4 2.4-.3 1-.9 1.5-.6.5-1.5.5-1.3 0-2-1-.8-1-.8-3.4Zm1 0q0 2.1.5 2.8.5.7 1.3.7.7 0 1.2-.7t.5-2.8q0-2.1-.5-2.8-.5-.7-1.3-.7-.7 0-1.1.6-.6.8-.6 2.9Zm6 0q0-1.5.3-2.5.3-.9.9-1.4.6-.5 1.6-.5.6 0 1.2.3.5.3.8.8.4.5.6 1.3.2.7.2 2 0 1.5-.4 2.4-.3 1-.9 1.5-.6.5-1.5.5-1.3 0-2-1-.8-1-.8-3.4Zm1 0q0 2.1.5 2.8.5.7 1.3.7.7 0 1.2-.7t.5-2.8q0-2.1-.5-2.8-.5-.7-1.3-.7-.7 0-1.1.6-.6.8-.6 2.9Zm6.2-2.3q0-1 .4-1.6.5-.6 1.4-.6.8 0 1.3.6.5.5.5 1.7 0 1-.5 1.6-.5.6-1.3.6t-1.3-.6q-.5-.5-.5-1.7Zm1.8-1.5q-.4 0-.7.3-.2.4-.2 1.3 0 .8.2 1.2.3.3.7.3.4 0 .6-.3.3-.4.3-1.3 0-.8-.3-1.2-.2-.3-.6-.3Zm0 8.3 4.7-9h.9l-4.7 9h-1Zm3.7-2.3q0-1 .5-1.6.4-.6 1.3-.6.8 0 1.4.6.5.5.5 1.7 0 1-.5 1.7-.6.5-1.4.5-.7 0-1.3-.5-.5-.6-.5-1.8Zm1.9-1.5q-.5 0-.7.4-.3.3-.3 1.2 0 .8.3 1.2.3.3.7.3.3 0 .6-.3.3-.4.3-1.3 0-.8-.3-1.1-.3-.4-.6-.4Zm70.6 3.5h-1v-6.7l-1 .7-1.1.6v-1l1.5-1q.7-.6 1-1.2h.6v8.6Zm3.7 0v-1.2h1.2v1.2h-1.2Zm2.4-4.2q0-1.5.3-2.5.3-.9 1-1.4.5-.5 1.5-.5.7 0 1.2.3t.8.8q.4.5.6 1.3.2.7.2 2 0 1.5-.3 2.4-.3 1-1 1.5-.6.5-1.5.5-1.3 0-2-1-.8-1-.8-3.4Zm1 0q0 2.1.5 2.8.5.7 1.3.7.7 0 1.2-.7t.5-2.8q0-2.1-.5-2.8-.5-.7-1.2-.7-.8 0-1.2.6-.6.8-.6 2.9Zm6 0q0-1.5.3-2.5.3-.9 1-1.4.5-.5 1.5-.5.7 0 1.2.3t.8.8q.4.5.6 1.3.2.7.2 2 0 1.5-.3 2.4-.3 1-1 1.5-.6.5-1.5.5-1.3 0-2-1-.8-1-.8-3.4Zm1 0q0 2.1.5 2.8.5.7 1.3.7.7 0 1.2-.7t.5-2.8q0-2.1-.5-2.8-.5-.7-1.2-.7-.8 0-1.2.6-.6.8-.6 2.9Zm6.2-2.3q0-1 .4-1.6.5-.6 1.4-.6.8 0 1.3.6.5.5.5 1.7 0 1-.5 1.6-.5.6-1.3.6t-1.3-.6q-.5-.5-.5-1.7Zm1.8-1.5q-.4 0-.7.3-.2.4-.2 1.3 0 .8.2 1.2.3.3.7.3.4 0 .7-.3.2-.4.2-1.3 0-.8-.2-1.2-.3-.3-.7-.3Zm0 8.3 4.7-9h.9l-4.7 9h-.9Zm3.7-2.3q0-1 .5-1.6.4-.6 1.3-.6.8 0 1.4.6.5.5.5 1.7 0 1-.5 1.7-.6.5-1.4.5-.7 0-1.3-.5-.5-.6-.5-1.8Zm1.9-1.5q-.4 0-.7.4-.3.3-.3 1.2 0 .8.3 1.2.3.3.7.3t.6-.3q.3-.4.3-1.3 0-.8-.3-1.1-.2-.4-.6-.4Zm72.2 2.5v1h-5.7q0-.4.2-.7.2-.6.7-1.2l1.3-1.2 2-1.9q.4-.7.4-1.2 0-.7-.4-1-.5-.5-1.2-.5-.8 0-1.2.4-.5.5-.5 1.3l-1-.1q0-1.2.8-1.9.7-.6 2-.6 1.2 0 1.9.7t.7 1.7l-.2 1q-.2.5-.7 1l-1.6 1.5-1.3 1.1-.4.6h4.2Zm2 1v-1.2h1.3v1.2h-1.2Zm2.5-4.2q0-1.5.3-2.5.3-.9 1-1.4.5-.5 1.5-.5.7 0 1.2.3t.9.8q.3.5.5 1.3.2.7.2 2 0 1.5-.3 2.4-.3 1-1 1.5-.6.5-1.5.5-1.3 0-2-1-.8-1-.8-3.4Zm1 0q0 2.1.6 2.8.5.7 1.2.7t1.2-.7q.5-.7.5-2.8 0-2.1-.5-2.8-.5-.7-1.2-.7-.8 0-1.2.6-.5.8-.5 2.9Zm6 0q0-1.5.3-2.5.3-.9 1-1.4.5-.5 1.5-.5.7 0 1.2.3t.9.8q.3.5.5 1.3.2.7.2 2 0 1.5-.3 2.4-.3 1-1 1.5-.6.5-1.5.5-1.3 0-2-1-.8-1-.8-3.4Zm1 0q0 2.1.6 2.8.5.7 1.2.7t1.2-.7q.5-.7.5-2.8 0-2.1-.5-2.8-.5-.7-1.2-.7-.8 0-1.2.6-.5.8-.5 2.9Zm6.2-2.3q0-1 .4-1.6.5-.6 1.4-.6.8 0 1.3.6.6.5.6 1.7 0 1-.6 1.6-.5.6-1.3.6t-1.3-.6q-.5-.5-.5-1.7Zm1.8-1.5q-.4 0-.6.3-.3.4-.3 1.3 0 .8.3 1.2.2.3.6.3.4 0 .7-.3.2-.4.2-1.3 0-.8-.2-1.2-.3-.3-.7-.3Zm0 8.3 4.7-9h.9l-4.7 9h-.9Zm3.7-2.3q0-1 .5-1.6.5-.6 1.3-.6.9 0 1.4.6.5.5.5 1.7 0 1-.5 1.7-.6.5-1.4.5-.7 0-1.3-.5-.5-.6-.5-1.8Zm1.9-1.5q-.4 0-.7.4-.2.3-.2 1.2 0 .8.2 1.2.3.3.7.3.4 0 .6-.3.3-.4.3-1.3 0-.8-.3-1.1-.2-.4-.6-.4Zm66.7 1.3 1-.2q.2 1 .7 1.3.4.4 1 .4.8 0 1.3-.5t.5-1.3q0-.7-.5-1.2-.4-.5-1.2-.5l-.7.2v-1h.3q.6 0 1.2-.3.5-.4.5-1.1 0-.6-.4-1-.4-.3-1-.3t-1 .3q-.4.4-.5 1.2l-1.1-.2q.2-1 .9-1.6.7-.6 1.7-.6.7 0 1.3.3.6.3.9.8.3.5.3 1.1 0 .6-.3 1-.3.5-.9.8.8.1 1.2.7.4.5.4 1.4 0 1.1-.8 1.9-.8.8-2 .8t-2-.7q-.7-.7-.8-1.7Zm7.6 2.2v-1.2h1.2v1.2h-1.2Zm2.4-4.2q0-1.5.3-2.5.3-.9 1-1.4.6-.5 1.5-.5.7 0 1.2.3t.9.8q.3.5.5 1.3.2.7.2 2 0 1.5-.3 2.4-.3 1-1 1.5-.6.5-1.5.5-1.2 0-2-1t-.8-3.4Zm1 0q0 2.1.6 2.8.5.7 1.2.7t1.2-.7q.5-.7.5-2.8 0-2.1-.5-2.8-.5-.7-1.2-.7t-1.2.6q-.5.8-.5 2.9Zm6 0q0-1.5.3-2.5.3-.9 1-1.4.6-.5 1.5-.5.7 0 1.2.3t.9.8q.3.5.5 1.3.2.7.2 2 0 1.5-.3 2.4-.3 1-1 1.5-.6.5-1.5.5-1.2 0-2-1t-.8-3.4Zm1 0q0 2.1.6 2.8.5.7 1.2.7t1.2-.7q.5-.7.5-2.8 0-2.1-.5-2.8-.5-.7-1.2-.7t-1.2.6q-.5.8-.5 2.9Zm6.2-2.3q0-1 .4-1.6.5-.6 1.4-.6.8 0 1.3.6.6.5.6 1.7 0 1-.6 1.6-.5.6-1.3.6t-1.3-.6q-.5-.5-.5-1.7Zm1.8-1.5q-.4 0-.6.3-.3.4-.3 1.3 0 .8.3 1.2.2.3.6.3.4 0 .7-.3.2-.4.2-1.3 0-.8-.2-1.2-.3-.3-.7-.3Zm0 8.3 4.7-9h.9l-4.7 9h-.9Zm3.7-2.3q0-1 .5-1.6.5-.6 1.4-.6.8 0 1.3.6.5.5.5 1.7 0 1-.5 1.7-.6.5-1.3.5-.8 0-1.3-.5-.6-.6-.6-1.8Zm1.9-1.5q-.4 0-.7.4-.2.3-.2 1.2 0 .8.2 1.2.3.3.7.3.4 0 .6-.3.3-.4.3-1.3 0-.8-.3-1.1-.2-.4-.6-.4Zm70 3.5v-2h-3.6v-1l3.9-5.6h.8v5.6h1.2v1h-1.2v2h-1Zm0-3v-3.9l-2.6 3.9h2.7Zm4.3 3v-1.2h1.2v1.2H566Zm2.4-4.2q0-1.5.3-2.5.3-.9 1-1.4.6-.5 1.5-.5.7 0 1.2.3t.9.8q.3.5.5 1.3.2.7.2 2 0 1.5-.3 2.4-.3 1-1 1.5-.6.5-1.5.5-1.2 0-2-1t-.8-3.4Zm1 0q0 2.1.6 2.8.5.7 1.2.7t1.2-.7q.5-.7.5-2.8 0-2.1-.5-2.8-.5-.7-1.2-.7t-1.2.6q-.5.8-.5 2.9Zm6 0q0-1.5.3-2.5.3-.9 1-1.4.6-.5 1.5-.5.7 0 1.2.3t.9.8q.3.5.5 1.3.2.7.2 2 0 1.5-.3 2.4-.3 1-1 1.5-.6.5-1.5.5-1.2 0-2-1t-.8-3.4Zm1 0q0 2.1.6 2.8.5.7 1.2.7t1.2-.7q.5-.7.5-2.8 0-2.1-.5-2.8-.5-.7-1.2-.7t-1.2.6q-.5.8-.5 2.9Zm6.2-2.3q0-1 .5-1.6.4-.6 1.3-.6.8 0 1.3.6.6.5.6 1.7 0 1-.6 1.6-.5.6-1.3.6t-1.3-.6q-.5-.5-.5-1.7Zm1.8-1.5q-.4 0-.6.3-.3.4-.3 1.3 0 .8.3 1.2.2.3.6.3.4 0 .7-.3.3-.4.3-1.3 0-.8-.3-1.2-.3-.3-.7-.3Zm0 8.3 4.7-9h.9l-4.7 9h-.9Zm3.7-2.3q0-1 .5-1.6.5-.6 1.4-.6.8 0 1.3.6.5.5.5 1.7 0 1-.5 1.7-.5.5-1.3.5t-1.3-.5q-.5-.6-.5-1.8Zm1.9-1.5q-.4 0-.7.4-.2.3-.2 1.2 0 .8.2 1.2.3.3.7.3.4 0 .7-.3.2-.4.2-1.3 0-.8-.3-1.1-.2-.4-.6-.4Z"/><path fill="#a8caba" d="M231 79a1 1 0 0 1 1-1h10a1 1 0 0 1 1 1v10a1 1 0 0 1-1 1h-10a1 1 0 0 1-1-1Z"/><path fill="#838689" d="M255.8 88v-.8q-.6 1-1.7 1-.8 0-1.4-.5-.6-.4-1-1.1-.3-.8-.3-1.7 0-1 .3-1.7.3-.8 1-1.2.6-.4 1.3-.4.6 0 1 .3.5.2.8.6v-3h1V88h-1Zm-3.3-3.1q0 1.2.5 1.8.5.6 1.2.6t1.2-.6q.4-.6.4-1.7 0-1.3-.5-1.9-.4-.6-1.2-.6-.7 0-1.1.6-.5.6-.5 1.8ZM263 86l1.1.1q-.2 1-1 1.5-.6.5-1.7.5-1.4 0-2.2-.8-.8-.8-.8-2.4 0-1.5.9-2.4.8-.9 2-.9 1.3 0 2 .9.9.8.9 2.4v.3h-4.7q0 1 .6 1.5.5.6 1.3.6.6 0 1-.3t.6-1Zm-3.4-1.7h3.5q-.1-.8-.4-1.2-.5-.6-1.3-.6t-1.3.5q-.5.5-.5 1.3Zm5.8 1.8 1-.1q.1.6.5 1 .4.3 1.1.3.8 0 1-.3.5-.3.5-.7 0-.4-.4-.6l-1-.3-1.6-.5-.7-.6q-.3-.4-.3-.9 0-.4.2-.7.2-.4.6-.6l.6-.3q.4-.2 1-.2.7 0 1.2.3.6.2.8.5.3.4.4 1l-1 .1q-.1-.5-.4-.7-.4-.3-1-.3-.7 0-1 .3-.3.2-.3.5v.4l.5.3 1 .2 1.5.5q.4.2.7.6.2.3.2.9 0 .5-.3 1-.3.4-.9.7-.5.2-1.3.2-1.2 0-1.8-.5-.7-.5-.8-1.5Zm7.4 1.9v-8.6h1v5l2.5-2.6h1.4l-2.4 2.3L278 88h-1.3l-2.1-3.2-.7.7V88h-1.1Zm8.3-1 .2 1h-1.8l-.4-.6-.1-1.2v-3.6h-.8v-.8h.8v-1.6l1-.6v2.2h1v.8h-1v4.2l.3.2h.8Zm.3-2.1q0-1.7 1-2.6.8-.7 2-.7t2 .9q.8.8.8 2.3 0 1.2-.3 1.9-.4.7-1 1-.8.4-1.6.4-1.3 0-2.1-.8t-.8-2.4Zm1 0q0 1.2.6 1.8.5.6 1.3.6t1.3-.6q.5-.6.5-1.8 0-1.2-.5-1.8-.5-.6-1.3-.6t-1.3.6q-.5.6-.5 1.8Zm6.4 5.5v-8.6h1v.8q.3-.5.7-.7.5-.3 1-.3.9 0 1.5.4.6.5.9 1.2.3.8.3 1.6 0 1-.4 1.8-.3.7-1 1.1-.6.4-1.3.4l-1-.2-.7-.5v3h-1Zm1-5.5q0 1.2.4 1.8.5.6 1.2.6t1.2-.6q.5-.6.5-1.9 0-1.2-.5-1.7-.5-.6-1.1-.6-.7 0-1.2.6t-.5 1.8Z"/><path fill="#62718b" d="M311 79a1 1 0 0 1 1-1h10a1 1 0 0 1 1 1v10a1 1 0 0 1-1 1h-10a1 1 0 0 1-1-1Z"/><path fill="#838689" d="M331.8 88v-6.2h1v.9q.2-.5.7-.8.5-.3 1.1-.3.7 0 1.1.3.5.3.7.8.7-1 1.9-1 1 0 1.4.5.5.5.5 1.5V88h-1v-4l-.1-.8q-.1-.3-.4-.5l-.6-.2q-.7 0-1.1.5-.5.4-.5 1.4V88h-1v-4q0-.7-.3-1-.2-.5-.8-.5-.5 0-.8.3-.4.2-.6.7-.2.4-.2 1.3V88h-1Zm10.6-3.1q0-1.7 1-2.6.8-.7 2-.7t2 .9q.8.8.8 2.3 0 1.2-.3 1.9-.4.7-1 1-.8.4-1.6.4-1.3 0-2.1-.8t-.8-2.4Zm1 0q0 1.2.6 1.8.5.6 1.3.6t1.3-.6q.5-.6.5-1.8 0-1.2-.5-1.8-.5-.6-1.3-.6t-1.3.6q-.5.6-.5 1.8Zm7.4 3.1h-1v-8.6h1v3q.7-.8 1.7-.8.6 0 1.1.3.5.2.9.6l.5 1q.2.6.2 1.3 0 1.6-.8 2.5-.8.8-1.9.8-1.1 0-1.7-.9v.8Zm0-3.2q0 1.2.3 1.7.5.8 1.3.8.7 0 1.2-.6t.5-1.8q0-1.2-.5-1.8-.5-.6-1.1-.6-.7 0-1.3.6-.4.6-.4 1.7Zm6-4.2v-1.2h1v1.2h-1Zm0 7.4v-6.2h1V88h-1Zm3 0v-8.6h1V88h-1Zm7.2-2 1.1.1q-.2 1-1 1.5-.6.5-1.7.5-1.4 0-2.2-.8-.8-.8-.8-2.4 0-1.5.9-2.4.8-.9 2-.9 1.3 0 2 .9.9.8.9 2.4v.3h-4.7q0 1 .6 1.5.5.6 1.3.6.6 0 1-.3t.6-1Zm-3.4-1.7h3.5q-.1-.8-.4-1.2-.5-.6-1.3-.6t-1.3.5q-.5.5-.5 1.3ZM214.3 61.6l-2.6-10h1.3l1.6 6.6.4 2 .4-1.8 2-6.8h1.5l1.5 5 .8 3.6q.1-1 .5-2.1l1.5-6.5h1.4l-2.8 10h-1.3l-2-7.6-.4-1.2-.3 1.2-2.1 7.6h-1.4Zm16-2.3 1.4.1q-.3 1.2-1.2 1.8-.8.6-2 .6-1.6 0-2.6-1-.9-1-.9-2.7 0-1.9 1-2.9t2.4-1q1.5 0 2.4 1 .9 1 .9 2.8v.3h-5.4q0 1.2.7 1.8.6.7 1.5.7.7 0 1.1-.4.5-.3.8-1.1Zm-4-2h4.1q0-1-.5-1.4-.5-.7-1.5-.7-.8 0-1.4.6-.6.6-.6 1.5Zm8.3 4.3h-1.2v-10h1.2v3.6q.8-1 2-1 .7 0 1.3.3.6.2 1 .7.4.5.6 1.2.2.7.2 1.5 0 1.9-1 2.9-.8 1-2.1 1t-2-1v.8Zm0-3.7q0 1.4.3 2 .6.9 1.6.9.8 0 1.4-.7.6-.7.6-2.1 0-1.4-.6-2.1-.6-.7-1.4-.7-.8 0-1.4.7-.6.7-.6 2Zm9.9 3.7 3.8-10h1.4l4.2 10h-1.6l-1.1-3H247l-1.1 3h-1.4Zm2.9-4h3.4l-1-2.9q-.6-1.2-.8-2l-.5 1.9-1.1 3Zm7 4v-10h1.2v10h-1.2Zm3 0v-7.2h1.1v1q.4-.5 1-.9.5-.3 1.2-.3.8 0 1.3.4.6.3.8.9.8-1.3 2.2-1.3 1 0 1.7.6.6.6.6 1.8v5H266V56l-.5-.5q-.3-.2-.8-.2-.7 0-1.2.5t-.5 1.6v4.2h-1.3V57q0-.8-.3-1.2-.3-.4-1-.4-.5 0-1 .3-.4.2-.6.8l-.1 1.5v3.7h-1.3Zm15.8-.9q-.7.6-1.4.9-.6.2-1.3.2-1.2 0-1.9-.6-.6-.6-.6-1.5l.2-1 .7-.7.9-.4 1-.2q1.6-.1 2.3-.4v-.3q0-.8-.4-1-.5-.5-1.4-.5-.8 0-1.3.3-.4.3-.6 1.1l-1.2-.2.5-1.2q.4-.5 1.1-.7.8-.3 1.7-.3 1 0 1.5.2.6.2.8.6.3.3.4.8l.1 1.1v3.9l.4.8h-1.3q-.2-.4-.2-.9ZM273 58q-.7.3-2 .5-.8 0-1.1.2-.3.1-.5.4l-.2.6q0 .5.4.8.4.3 1 .3.8 0 1.3-.3.6-.3.9-.8.2-.4.2-1.3V58Zm3.3 3.6v-7.2h1.1v1q.8-1.2 2.3-1.2.7 0 1.2.2.6.3.9.7l.4.9v5.6H281v-4.4l-.1-1.1q-.2-.4-.6-.6-.3-.2-.8-.2-.8 0-1.4.5-.5.5-.5 1.9v4h-1.3Zm12.8-.9q-.7.6-1.4.9-.6.2-1.3.2-1.2 0-1.9-.6-.6-.6-.6-1.5l.2-1 .7-.7.9-.4 1-.2q1.6-.1 2.3-.4v-.3q0-.8-.4-1-.5-.5-1.4-.5-.8 0-1.3.3-.4.3-.6 1.1l-1.2-.2.5-1.2q.4-.5 1.1-.7.8-.3 1.7-.3 1 0 1.5.2.6.2.8.6.3.3.4.8l.1 1.1v3.9l.4.8h-1.3q-.2-.4-.2-.9ZM289 58q-.7.3-2 .5-.8 0-1.1.2-.3.1-.5.4l-.2.6q0 .5.4.8.4.3 1 .3.8 0 1.3-.3.6-.3.9-.8.2-.4.2-1.3V58Zm8 1 1.3.1q-.2 1.3-1 2-.9.7-2 .7-1.5 0-2.4-1-1-1-1-2.8 0-1.1.4-2 .4-1 1.2-1.4.8-.4 1.8-.4 1.1 0 1.9.6.7.6 1 1.7l-1.2.2q-.2-.7-.6-1.1-.5-.4-1-.4-1 0-1.6.7-.6.7-.6 2 0 1.6.6 2.2.5.7 1.4.7.8 0 1.2-.4.5-.5.7-1.4Zm12.4 1.4v1.2H303l.2-.8q.2-.7.8-1.4l1.6-1.5q1.6-1.3 2.2-2 .6-.9.6-1.6 0-.7-.6-1.2-.5-.5-1.3-.5-.9 0-1.4.5-.6.5-.6 1.5l-1.2-.1q0-1.4 1-2.2.8-.7 2.2-.7 1.5 0 2.3.8.8.8.8 2 0 .6-.2 1.1l-.8 1.3-2 1.7-1.3 1.3-.6.6h5Zm1.6-3.7q0-1.8.3-2.9.4-1 1.1-1.6.8-.6 1.8-.6.9 0 1.5.3t1 1q.4.5.6 1.4.2.9.2 2.4 0 1.8-.3 2.8-.4 1.1-1.1 1.7-.7.6-1.9.6-1.4 0-2.2-1-1-1.3-1-4.1Zm1.2 0q0 2.5.6 3.3.6.8 1.4.8.9 0 1.5-.8.6-.9.6-3.3 0-2.5-.6-3.3-.6-.8-1.5-.8-.8 0-1.3.7-.7 1-.7 3.4Zm13.2 3.7v1.2H319l.2-.8q.2-.7.8-1.4l1.6-1.5q1.6-1.3 2.2-2 .6-.9.6-1.6 0-.7-.6-1.2-.5-.5-1.3-.5-.9 0-1.4.5-.6.5-.6 1.5l-1.2-.1q0-1.4 1-2.2.8-.7 2.2-.7 1.5 0 2.3.8.8.8.8 2 0 .6-.2 1.1l-.8 1.3-2 1.7-1.3 1.3-.6.6h5Zm8 0v1.2H327l.2-.8q.2-.7.8-1.4l1.6-1.5q1.6-1.3 2.2-2 .6-.9.6-1.6 0-.7-.6-1.2-.5-.5-1.3-.5-.9 0-1.4.5-.6.5-.6 1.5l-1.2-.1q0-1.4 1-2.2.8-.7 2.2-.7 1.5 0 2.3.8.8.8.8 2 0 .6-.2 1.1l-.8 1.3-2 1.7-1.3 1.3-.6.6h5Zm2.3-4.6v-1.4h1.4v1.4h-1.4Zm0 5.8v-1.4h1.4v1.4h-1.4Zm7.8 0v-10h3.8l1.5.1q.7.1 1.2.5.5.3.8 1 .3.6.3 1.3 0 1.3-.8 2.2-.8.9-3 .9H345v4h-1.3Zm1.3-5.2h2.6q1.3 0 1.8-.5.6-.5.6-1.3 0-.7-.4-1.1-.3-.5-.8-.6l-1.2-.1h-2.6v3.6Zm7.5 5.2v-7.2h1.1v1q.4-.7.8-1l.8-.2q.6 0 1.3.4l-.5 1.1q-.4-.2-.9-.2-.4 0-.7.2l-.5.7-.2 1.4v3.8h-1.2Zm5-8.6v-1.4h1.3V53h-1.3Zm0 8.6v-7.2h1.3v7.2h-1.3Zm5 0-2.7-7.2h1.3l1.5 4.3.5 1.5.5-1.4 1.6-4.4h1.2l-2.7 7.2h-1.2Zm9.8-.9q-.7.6-1.4.9-.6.2-1.3.2-1.2 0-1.9-.6-.6-.6-.6-1.5l.2-1 .7-.7.9-.4 1-.2q1.6-.1 2.3-.4v-.3q0-.8-.4-1-.5-.5-1.4-.5-.8 0-1.3.3-.4.3-.6 1.1l-1.2-.2.5-1.2q.4-.5 1.1-.7.8-.3 1.7-.3 1 0 1.5.2.6.2.8.6.3.3.4.8l.1 1.1v3.9l.4.8h-1.3q-.2-.4-.2-.9ZM372 58q-.7.3-2 .5-.8 0-1.1.2-.3.1-.5.4l-.2.6q0 .5.4.8.4.3 1 .3.8 0 1.3-.3.6-.3.9-.8.2-.4.2-1.3V58Zm8 1 1.3.1q-.2 1.3-1 2-.9.7-2 .7-1.5 0-2.4-1-1-1-1-2.8 0-1.1.4-2 .4-1 1.2-1.4.8-.4 1.8-.4 1.1 0 1.9.6.7.6 1 1.7l-1.2.2q-.2-.7-.6-1.1-.5-.4-1-.4-1 0-1.6.7-.6.7-.6 2 0 1.6.6 2.2.5.7 1.4.7.8 0 1.2-.4.5-.5.7-1.4Zm2.3 5.4-.2-1.1h1.4l.4-.4.4-1v-.3l-2.7-7.2h1.3l1.6 4.2.5 1.7.5-1.7 1.5-4.2h1.3l-2.8 7.4-.7 1.6q-.3.6-.7.9-.5.3-1 .3l-.8-.2Z"/><path fill="#1a2b49" d="M98.8 23.2h7.4q2.4 0 3.5 1.2 1.2 1.1 1.2 3.2 0 2.2-1.3 3.4-1.3 1.2-4 1.2h-2.4v5.3h-4.4V23.2Zm4.4 6.1h1.1q1.3 0 1.8-.4.5-.5.5-1.1 0-.7-.4-1.2-.5-.5-1.7-.5h-1.3v3.2Zm20.9 4h-8q.1 1 .5 1.5.6.7 1.5.7.6 0 1.1-.3.4-.2.7-.7l4 .4q-1 1.5-2.2 2.2-1.3.7-3.7.7-2 0-3.2-.6-1.2-.6-2-1.8-.7-1.3-.7-3 0-2.4 1.5-4 1.6-1.5 4.3-1.5 2.3 0 3.5.7 1.3.7 2 2 .7 1.2.7 3.3v.4Zm-4-1.9q-.2-1.1-.7-1.6-.5-.5-1.3-.5-1 0-1.5.8-.4.4-.5 1.3h4Zm5.5-4.2h3.7v1.7q.6-1.1 1.1-1.5.6-.5 1.4-.5 1 0 2 .6l-1.3 2.8-1-.3q-.9 0-1.3.7-.6.9-.6 3.4v3.5h-4V27.2Zm9 0h3.7v1.5q.8-1 1.6-1.4.8-.4 2-.4t2 .5q.7.4 1.1 1.3 1-1 1.7-1.4.8-.4 2-.4 1.6 0 2.5 1 1 1 1 3.1v6.6h-4v-6q0-.7-.3-1-.4-.5-1-.5-.7 0-1.1.5-.4.5-.4 1.6v5.4h-4v-6.7q-.2-.4-.5-.6-.3-.3-.8-.3-.7 0-1 .6-.5.5-.5 1.7v5.3h-4V27.2Zm20.1-4h4V26h-4v-2.7Zm0 4h4v10.3h-4V27.2Zm6.2 7.5 3.9-.4q.2.7.7 1 .4.3 1.2.3.7 0 1.2-.3.3-.3.3-.7 0-.4-.4-.6-.3-.2-1.7-.4l-2.9-.7q-.8-.3-1.4-1-.5-.8-.5-1.7 0-1 .6-1.8.6-.7 1.6-1 1-.5 2.8-.5 1.9 0 2.8.3.8.3 1.4 1 .6.5 1 1.5l-3.7.4q-.2-.5-.5-.7-.5-.3-1.2-.3-.6 0-1 .2-.2.2-.2.6 0 .3.3.5.4.2 1.7.4 2 .2 3 .6 1 .4 1.5 1.2.5.7.5 1.6 0 .9-.6 1.7-.5.9-1.7 1.4-1.1.5-3.2.5-2.8 0-4-.8-1.2-.8-1.5-2.3Zm12 0 3.9-.4q.2.7.7 1 .4.3 1.2.3.7 0 1.2-.3.3-.3.3-.7 0-.4-.4-.6-.3-.2-1.7-.4l-2.9-.7q-.8-.3-1.4-1-.5-.8-.5-1.7 0-1 .6-1.8.6-.7 1.6-1 1-.5 2.8-.5 1.9 0 2.8.3.8.3 1.4 1 .6.5 1 1.5l-3.7.4q-.2-.5-.5-.7-.5-.3-1.2-.3-.6 0-1 .2-.2.2-.2.6 0 .3.3.5.4.2 1.7.4 2 .2 3 .6 1 .4 1.5 1.2.5.7.5 1.6 0 .9-.6 1.7-.5.9-1.7 1.4-1.1.5-3.2.5-2.8 0-4-.8-1.2-.8-1.5-2.3Zm12.8-11.5h4V26h-4v-2.7Zm0 4h4v10.3h-4V27.2Zm6.4 5.2q0-2.4 1.6-4 1.6-1.5 4.3-1.5 3.1 0 4.7 1.9 1.3 1.4 1.3 3.5 0 2.4-1.6 4-1.6 1.5-4.4 1.5-2.5 0-4-1.3-2-1.6-2-4.1Zm4 0q0 1.4.5 2 .6.7 1.4.7.9 0 1.4-.7.6-.6.6-2t-.6-2q-.5-.7-1.3-.7-1 0-1.5.6-.5.7-.5 2Zm9.5-5.2h3.7v1.7q.8-1 1.6-1.5.9-.5 2.1-.5 1.7 0 2.6 1 1 1 1 3v6.7h-4v-5.8q0-1-.4-1.3-.4-.4-1-.4-.8 0-1.2.5-.5.6-.5 2v5h-4V27.2Zm12.3 7.5 3.9-.4q.2.7.7 1 .4.3 1.2.3.7 0 1.2-.3.3-.3.3-.7 0-.4-.4-.6-.3-.2-1.7-.4l-2.9-.7q-.8-.3-1.4-1-.5-.8-.5-1.7 0-1 .6-1.8.6-.7 1.6-1 1-.5 2.8-.5 1.9 0 2.8.3.8.3 1.4 1 .6.5 1 1.5l-3.7.4q-.2-.5-.5-.7-.5-.3-1.2-.3-.6 0-1 .2-.2.2-.2.6 0 .3.3.5.4.2 1.7.4 2 .2 3 .6 1 .4 1.5 1.2.5.7.5 1.6 0 .9-.6 1.7-.5.9-1.7 1.4-1.1.5-3.2.5-2.8 0-4-.8-1.2-.8-1.5-2.3Zm20-11.5h7.3q2.4 0 3.5 1.2 1.2 1.1 1.2 3.2 0 2.2-1.3 3.4-1.3 1.2-4 1.2h-2.4v5.4h-4.4V23.2Zm4.3 6.1h1.1q1.3 0 1.8-.4.5-.5.5-1.1 0-.7-.4-1.2-.5-.5-1.7-.5h-1.3v3.2Zm8.9 3q0-2.3 1.6-3.8 1.6-1.6 4.3-1.6 3.1 0 4.7 1.9 1.3 1.4 1.3 3.5 0 2.4-1.6 4-1.6 1.5-4.4 1.5-2.5 0-4-1.3-2-1.6-2-4.1Zm4 0q0 1.5.5 2.1.6.7 1.4.7.9 0 1.4-.7.6-.6.6-2t-.6-2q-.5-.7-1.3-.7-1 0-1.5.6-.5.7-.5 2Zm9.6-9h4v14.2h-4V23.2Zm7 0h4v2.6h-4v-2.7Zm0 3.9h4v10.3h-4V27.2Zm14.6 6.3 3.8.4q-.3 1.2-1 2-.8 1-1.9 1.4-1 .5-2.8.5-1.6 0-2.7-.3t-2-1q-.7-.7-1.2-1.6-.4-1-.4-2.5 0-1.6.5-2.6.4-.8 1.1-1.5.7-.6 1.5-.9 1.1-.5 3-.5 2.5 0 3.8 1 1.3.9 1.9 2.6l-3.8.5q-.2-.7-.6-1-.5-.3-1.3-.3-1 0-1.6.7-.6.7-.6 2.1 0 1.3.6 2 .6.6 1.6.6.8 0 1.3-.4t.8-1.2Zm4.1-6.3h4.2l2.1 6.9 2-7h4l-4.2 11.2q-.7 1.9-1.4 2.5-1 1-3.2 1l-2.6-.3-.3-2.7q.8.2 1.9.2.7 0 1.1-.3.5-.3.8-1.1l-4.4-10.4Zm31 10.4h-3.6v-1.7q-.9 1-1.7 1.4-.8.5-2 .5-1.7 0-2.7-1-.9-1-.9-3v-6.6h4v5.7q0 1 .4 1.4.3.4 1 .4t1.2-.6q.4-.5.4-2v-5h4v10.4Zm1.5-3 3.9-.3q.2.7.7 1 .4.3 1.2.3.7 0 1.2-.3.3-.3.3-.7 0-.4-.4-.6-.3-.2-1.7-.4l-2.9-.7q-.8-.3-1.4-1-.5-.8-.5-1.7 0-1 .6-1.8.6-.7 1.6-1 1-.5 2.8-.5 1.9 0 2.8.3.8.3 1.4 1 .6.5 1 1.5l-3.7.4q-.2-.5-.5-.7-.5-.3-1.2-.3-.6 0-1 .2-.2.2-.2.6 0 .3.3.5.4.2 1.7.4 2 .2 3 .6 1 .4 1.5 1.2.5.7.5 1.6 0 .9-.6 1.7-.5.9-1.7 1.4-1.1.5-3.2.5-2.8 0-4-.8-1.2-.8-1.5-2.3Zm16.3-4-3.8-.5q.2-1 .6-1.5.4-.6 1.2-1 .5-.3 1.5-.5l2-.2q1.8 0 2.9.2 1.1.2 1.8.9.5.4.8 1.2.3.8.3 1.6v4.5l.1 1.2.4 1h-3.7l-.3-.6-.1-.6q-.8.7-1.6 1-1 .5-2.4.5-2 0-2.9-.9-1-.8-1-2.1 0-1.2.8-2 .6-.7 2.5-1l3-.7 1.3-.5q0-.7-.3-1-.3-.3-1-.3-1 0-1.5.3-.4.3-.6 1Zm3.4 2-1.7.5q-1.2.4-1.5.7-.3.3-.3.7 0 .5.3.8t1 .3q.6 0 1.2-.3.6-.4.8-.8.2-.5.2-1.2v-.7Zm13.2-5.4h3.7v10.2q0 1-.4 1.9-.4.9-1.1 1.4-.7.6-1.8.8-1 .3-2.4.3-3.1 0-4.3-1-1.1-1-1.1-2.5v-.5l3.8.4q.2.6.5.8.4.3 1 .3 1 0 1.4-.5.4-.5.4-1.6v-1.6q-.6.7-1.2 1-.9.5-2 .5-2 0-3.3-1.8-1-1.3-1-3.4 0-2.4 1.2-3.7 1.2-1.3 3.1-1.3 1.2 0 2 .5.8.4 1.5 1.3v-1.5Zm-3.8 5q0 1.1.5 1.7.5.5 1.3.5.7 0 1.2-.6.5-.5.5-1.6 0-1.2-.5-1.8-.5-.6-1.3-.6t-1.2.6q-.5.5-.5 1.8Zm21 1.1h-7.9q.1 1 .5 1.5.6.7 1.5.7.6 0 1.1-.3.4-.2.7-.7l4 .4q-1 1.5-2.2 2.2-1.3.7-3.7.7-2 0-3.2-.6-1.2-.6-2-1.8-.7-1.3-.7-3 0-2.4 1.5-4 1.6-1.5 4.3-1.5 2.3 0 3.5.7 1.3.7 2 2 .7 1.2.7 3.3v.4Zm-4-1.9q0-1.1-.6-1.6-.5-.5-1.3-.5-1 0-1.5.8-.4.4-.5 1.3h4Zm12.6-8.2h4v5q.6-.6 1.3-1 .8-.3 1.7-.3 2 0 3.1 1.4 1.3 1.4 1.3 4 0 1.6-.6 3-.5 1.2-1.5 1.8-1 .7-2.3.7-1 0-1.9-.5-.6-.3-1.4-1.3v1.6h-3.7V23.2Zm4 9.1q0 1.4.5 2 .5.6 1.2.6.8 0 1.2-.6.5-.6.5-2 0-1.2-.5-1.8-.4-.6-1.1-.6-.8 0-1.3.6t-.5 1.8Zm7.8-5.1h4.2l2.1 6.9 2-7h4l-4.2 11.2q-.7 1.9-1.4 2.5-1 1-3.2 1l-2.6-.3-.3-2.7q.8.2 1.9.2.7 0 1.1-.3.5-.3.8-1.1l-4.4-10.4Zm29.2 8h-5l-.7 2.4h-4.5l5.4-14.4h4.8l5.4 14.4h-4.7l-.7-2.4Zm-.9-3.1-1.6-5.2-1.6 5.2h3.2Zm8.1-8.9h7.4q2.4 0 3.5 1.2 1.2 1.1 1.2 3.2 0 2.2-1.3 3.4-1.3 1.2-4 1.2h-2.4v5.4h-4.4V23.2Zm4.4 6.1h1.1q1.3 0 1.8-.4.5-.5.5-1.1 0-.7-.4-1.2-.5-.5-1.7-.5h-1.3v3.2Zm9.8-6h4.4v14.2H444V23.2Zm19.4 0v3.9h2.1V30h-2.1v4.5q.3.4.8.4l1.2-.3.3 2.8q-1.5.3-2.8.3-1.5 0-2.2-.4-.7-.4-1-1.1-.3-.8-.3-2.6V30h-1.5v-3h1.5v-1.8l4-2Zm3 3.9h4.2l2.1 6.9 2-7h4l-4.2 11.2q-.7 1.9-1.4 2.5-1 1-3.2 1l-2.6-.3-.3-2.7q.8.2 1.9.2.7 0 1.1-.3.5-.3.8-1.1l-4.4-10.4Zm13.2 14.3V27.2h3.7v1.5q.8-1 1.4-1.3.9-.5 2-.5 2 0 3.2 1.6 1 1.6 1 4 0 2.6-1.2 4-1.2 1.3-3 1.3-1 0-1.8-.3-.7-.3-1.3-1v5h-4Zm4-9.1q0 1.2.5 1.8.5.6 1.3.6.7 0 1.1-.5.5-.6.5-2 0-1.2-.5-1.8-.5-.6-1.2-.6t-1.2.6q-.5.6-.5 1.9Zm20.5 1h-8q.1.9.5 1.4.6.7 1.5.7.6 0 1.1-.3.4-.2.7-.7l4 .4q-1 1.5-2.2 2.2-1.3.7-3.7.7-2 0-3.2-.6-1.2-.6-2-1.8-.7-1.3-.7-3 0-2.4 1.5-4 1.6-1.5 4.3-1.5 2.3 0 3.5.7 1.3.7 2 2 .7 1.2.7 3.3v.4Zm-4-2q-.2-1.1-.7-1.6-.5-.5-1.3-.5-1 0-1.5.8-.4.4-.5 1.3h4Z"/></svg>