<svg xmlns="http://www.w3.org/2000/svg" width="600" height="371" fill="none" stroke-linecap="square" stroke-miterlimit="10"><path fill="#fff" d="M0 0h600v371H0V0Z"/><path stroke="#333" stroke-linecap="butt" d="M173.5 96.5v208"/><path stroke="#f2f2f2" stroke-linecap="butt" d="M307.5 96.5v208m134-208v208m134-208v208"/><path stroke="#f9f9f9" stroke-linecap="butt" d="M200.5 96.5v208m27-208v208m27-208v208m26-208v208m54-208v208m27-208v208m27-208v208m26-208v208m54-208v208m27-208v208m26-208v208m27-208v208"/><clipPath id="a"><path d="M173.8 96.8h401.7v207.6H173.8V96.8Z"/></clipPath><path d="M174 108v-4h381a2 2 0 0 1 0 4Z" clip-path="url(#a)"/><path fill="#a8caba" d="M174 108v-4h381a2 2 0 0 1 0 4Z" clip-path="url(#a)"/><path d="M174 126v-4h323a2 2 0 1 1 0 4Z" clip-path="url(#a)"/><path fill="#a8caba" d="M174 126v-4h323a2 2 0 1 1 0 4Z" clip-path="url(#a)"/><path d="M174 145v-4h107a2 2 0 1 1 0 4Z" clip-path="url(#a)"/><path fill="#a8caba" d="M174 145v-4h107a2 2 0 1 1 0 4Z" clip-path="url(#a)"/><path d="M174 163v-4h46a2 2 0 1 1 0 4Z" clip-path="url(#a)"/><path fill="#a8caba" d="M174 163v-4h46a2 2 0 1 1 0 4Z" clip-path="url(#a)"/><path d="M174 181v-4h34a2 2 0 1 1 0 4Z" clip-path="url(#a)"/><path fill="#a8caba" d="M174 181v-4h34a2 2 0 1 1 0 4Z" clip-path="url(#a)"/><path d="M174 200v-4h26a2 2 0 1 1 0 4Z" clip-path="url(#a)"/><path fill="#a8caba" d="M174 200v-4h26a2 2 0 1 1 0 4Z" clip-path="url(#a)"/><path d="M174 218v-4h26a2 2 0 1 1 0 4Z" clip-path="url(#a)"/><path fill="#a8caba" d="M174 218v-4h26a2 2 0 1 1 0 4Z" clip-path="url(#a)"/><path d="M174 236v-4h20a2 2 0 1 1 0 4Z" clip-path="url(#a)"/><path fill="#a8caba" d="M174 236v-4h20a2 2 0 1 1 0 4Z" clip-path="url(#a)"/><path d="M174 255v-4h16a2 2 0 1 1 0 4Z" clip-path="url(#a)"/><path fill="#a8caba" d="M174 255v-4h16a2 2 0 1 1 0 4Z" clip-path="url(#a)"/><path d="M174 273v-4h11a2 2 0 1 1 0 4Z" clip-path="url(#a)"/><path fill="#a8caba" d="M174 273v-4h11a2 2 0 1 1 0 4Z" clip-path="url(#a)"/><path d="M174 291v-4h11a2 2 0 1 1 0 4Z" clip-path="url(#a)"/><path fill="#a8caba" d="M174 291v-4h11a2 2 0 1 1 0 4Z" clip-path="url(#a)"/><path d="M174 114v-4h305a2 2 0 1 1 0 4Z" clip-path="url(#a)"/><path fill="#62718b" d="M174 114v-4h305a2 2 0 1 1 0 4Z" clip-path="url(#a)"/><path d="M174 132v-4h258a2 2 0 1 1 0 4Z" clip-path="url(#a)"/><path fill="#62718b" d="M174 132v-4h258a2 2 0 1 1 0 4Z" clip-path="url(#a)"/><path d="M174 151v-4h104a2 2 0 1 1 0 4Z" clip-path="url(#a)"/><path fill="#62718b" d="M174 151v-4h104a2 2 0 1 1 0 4Z" clip-path="url(#a)"/><path d="M174 169v-4h42a2 2 0 1 1 0 4Z" clip-path="url(#a)"/><path fill="#62718b" d="M174 169v-4h42a2 2 0 1 1 0 4Z" clip-path="url(#a)"/><path d="M174 187v-4h38a2 2 0 1 1 0 4Z" clip-path="url(#a)"/><path fill="#62718b" d="M174 187v-4h38a2 2 0 1 1 0 4Z" clip-path="url(#a)"/><path d="M174 206v-4h40a2 2 0 1 1 0 4Z" clip-path="url(#a)"/><path fill="#62718b" d="M174 206v-4h40a2 2 0 1 1 0 4Z" clip-path="url(#a)"/><path d="M174 224v-4h23a2 2 0 1 1 0 4Z" clip-path="url(#a)"/><path fill="#62718b" d="M174 224v-4h23a2 2 0 1 1 0 4Z" clip-path="url(#a)"/><path d="M174 242v-4h21a2 2 0 1 1 0 4Z" clip-path="url(#a)"/><path fill="#62718b" d="M174 242v-4h21a2 2 0 1 1 0 4Z" clip-path="url(#a)"/><path d="M174 261v-4h20a2 2 0 1 1 0 4Z" clip-path="url(#a)"/><path fill="#62718b" d="M174 261v-4h20a2 2 0 1 1 0 4Z" clip-path="url(#a)"/><path d="M174 279v-4h13a2 2 0 1 1 0 4Z" clip-path="url(#a)"/><path fill="#62718b" d="M174 279v-4h13a2 2 0 1 1 0 4Z" clip-path="url(#a)"/><path d="M174 297v-4h10a2 2 0 1 1 0 4Z" clip-path="url(#a)"/><path fill="#62718b" d="M174 297v-4h10a2 2 0 1 1 0 4Z" clip-path="url(#a)"/><path stroke="#fff" stroke-linecap="round" stroke-linejoin="round" stroke-width="3" d="M505.2 115.5v2h-7.7q0-1.2.7-2.2.6-1 2.5-2.7 1.5-1.4 1.8-2 .5-.6.5-1.3 0-.7-.4-1-.4-.5-1.1-.5-.7 0-1.1.4-.4.4-.5 1.4l-2.2-.2q.2-1.8 1.3-2.6 1-.8 2.5-.8 1.7 0 2.7 1 1 .8 1 2.2 0 .8-.3 1.5t-.9 1.4l-1.4 1.5-1.3 1.2-.5.7h4.4Zm1.5-1 2.1-.3q0 .8.5 1.3.5.4 1.1.4.7 0 1.2-.5.4-.6.4-1.4 0-.9-.4-1.3-.5-.5-1.1-.5l-1 .1.2-1.8q1 0 1.4-.3.5-.5.5-1.1 0-.6-.4-1-.3-.3-.9-.3-.6 0-1 .4t-.4 1.1l-2-.3q.1-1 .6-1.7.4-.6 1.2-1 .7-.3 1.7-.3 1.6 0 2.6 1 .8.9.8 2 0 1.4-1.7 2.3 1 .2 1.6 1 .6.7.6 1.8 0 1.5-1.1 2.5-1.1 1.1-2.8 1.1-1.5 0-2.6-.9-1-.9-1.1-2.3Zm9-5.6q0-1.6.7-2.3.7-.8 1.9-.8t1.8.8q.7.7.7 2.3 0 1.5-.7 2.3-.6.7-1.8.7-1.2 0-1.9-.7-.6-.8-.6-2.3Zm1.8 0q0 1 .2 1.5.2.2.6.2.3 0 .5-.2.3-.4.3-1.5 0-1.2-.3-1.5-.2-.3-.5-.3-.4 0-.6.3-.2.3-.2 1.5Zm2.4 9h-1.6l6.1-12h1.6l-6 12Zm3.6-3q0-1.5.7-2.2.6-.8 1.8-.8 1.2 0 1.9.8.6.7.6 2.2 0 1.6-.6 2.3-.7.8-1.9.8t-1.8-.8q-.7-.7-.7-2.3Zm1.7 0q0 1.1.3 1.5.2.3.5.3t.5-.3q.3-.4.3-1.5t-.3-1.5q-.2-.3-.5-.3-.4 0-.5.3-.3.4-.3 1.5Z"/><path fill="#62718b" d="M505.2 115.5v2h-7.7q0-1.2.7-2.2.6-1 2.5-2.7 1.5-1.4 1.8-2 .5-.6.5-1.3 0-.7-.4-1-.4-.5-1.1-.5-.7 0-1.1.4-.4.4-.5 1.4l-2.2-.2q.2-1.8 1.3-2.6 1-.8 2.5-.8 1.7 0 2.7 1 1 .8 1 2.2 0 .8-.3 1.5t-.9 1.4l-1.4 1.5-1.3 1.2-.5.7h4.4Zm1.5-1 2.1-.3q0 .8.5 1.3.5.4 1.1.4.7 0 1.2-.5.4-.6.4-1.4 0-.9-.4-1.3-.5-.5-1.1-.5l-1 .1.2-1.8q1 0 1.4-.3.5-.5.5-1.1 0-.6-.4-1-.3-.3-.9-.3-.6 0-1 .4t-.4 1.1l-2-.3q.1-1 .6-1.7.4-.6 1.2-1 .7-.3 1.7-.3 1.6 0 2.6 1 .8.9.8 2 0 1.4-1.7 2.3 1 .2 1.6 1 .6.7.6 1.8 0 1.5-1.1 2.5-1.1 1.1-2.8 1.1-1.5 0-2.6-.9-1-.9-1.1-2.3Zm9-5.6q0-1.6.7-2.3.7-.8 1.9-.8t1.8.8q.7.7.7 2.3 0 1.5-.7 2.3-.6.7-1.8.7-1.2 0-1.9-.7-.6-.8-.6-2.3Zm1.8 0q0 1 .2 1.5.2.2.6.2.3 0 .5-.2.3-.4.3-1.5 0-1.2-.3-1.5-.2-.3-.5-.3-.4 0-.6.3-.2.3-.2 1.5Zm2.4 9h-1.6l6.1-12h1.6l-6 12Zm3.6-3q0-1.5.7-2.2.6-.8 1.8-.8 1.2 0 1.9.8.6.7.6 2.2 0 1.6-.6 2.3-.7.8-1.9.8t-1.8-.8q-.7-.7-.7-2.3Zm1.7 0q0 1.1.3 1.5.2.3.5.3t.5-.3q.3-.4.3-1.5t-.3-1.5q-.2-.3-.5-.3-.4 0-.5.3-.3.4-.3 1.5Z"/><path stroke="#fff" stroke-linecap="round" stroke-linejoin="round" stroke-width="3" d="M456 135.5h-2v-8.3q-1.2 1.1-2.9 1.7v-2q.9-.3 1.9-1 1-.9 1.4-1.9h1.7v11.5Zm3.5-2.7 2.1-.2q0 .7.4 1 .3.3.9.3.7 0 1.1-.6.5-.7.6-2.6-.8 1-2 1-1.4 0-2.4-1.1-1-1-1-2.7 0-1.8 1.1-2.8 1-1.1 2.6-1.1 1.8 0 2.9 1.3 1.1 1.4 1.1 4.5t-1.2 4.5q-1.1 1.4-3 1.4-1.3 0-2.1-.7-.9-.7-1.1-2.2Zm5-4.8q0-1-.5-1.6-.5-.6-1.2-.6-.6 0-1 .5t-.4 1.6q0 1 .5 1.6.4.5 1 .5.7 0 1.1-.5.5-.5.5-1.5Zm4-1.1q0-1.6.6-2.3.7-.8 1.9-.8t1.8.8q.7.7.7 2.3 0 1.5-.7 2.3-.6.7-1.8.7-1.2 0-1.9-.7-.6-.8-.6-2.3Zm1.7 0q0 1 .2 1.5.2.2.6.2.3 0 .5-.2.3-.4.3-1.5 0-1.2-.3-1.5-.2-.3-.5-.3-.4 0-.6.3-.2.3-.2 1.5Zm2.4 9H471l6.1-12h1.6l-6 12Zm3.6-3q0-1.5.6-2.2.7-.8 2-.8 1 0 1.8.8.6.7.6 2.2 0 1.6-.6 2.3-.7.8-1.9.8t-1.9-.8q-.6-.7-.6-2.3Zm1.7 0q0 1.1.2 1.5.2.3.6.3.3 0 .5-.3.3-.4.3-1.5t-.3-1.5q-.2-.3-.5-.3-.4 0-.6.3-.2.4-.2 1.5Z"/><path fill="#62718b" d="M456 135.5h-2v-8.3q-1.2 1.1-2.9 1.7v-2q.9-.3 1.9-1 1-.9 1.4-1.9h1.7v11.5Zm3.5-2.7 2.1-.2q0 .7.4 1 .3.3.9.3.7 0 1.1-.6.5-.7.6-2.6-.8 1-2 1-1.4 0-2.4-1.1-1-1-1-2.7 0-1.8 1.1-2.8 1-1.1 2.6-1.1 1.8 0 2.9 1.3 1.1 1.4 1.1 4.5t-1.2 4.5q-1.1 1.4-3 1.4-1.3 0-2.1-.7-.9-.7-1.1-2.2Zm5-4.8q0-1-.5-1.6-.5-.6-1.2-.6-.6 0-1 .5t-.4 1.6q0 1 .5 1.6.4.5 1 .5.7 0 1.1-.5.5-.5.5-1.5Zm4-1.1q0-1.6.6-2.3.7-.8 1.9-.8t1.8.8q.7.7.7 2.3 0 1.5-.7 2.3-.6.7-1.8.7-1.2 0-1.9-.7-.6-.8-.6-2.3Zm1.7 0q0 1 .2 1.5.2.2.6.2.3 0 .5-.2.3-.4.3-1.5 0-1.2-.3-1.5-.2-.3-.5-.3-.4 0-.6.3-.2.3-.2 1.5Zm2.4 9H471l6.1-12h1.6l-6 12Zm3.6-3q0-1.5.6-2.2.7-.8 2-.8 1 0 1.8.8.6.7.6 2.2 0 1.6-.6 2.3-.7.8-1.9.8t-1.9-.8q-.6-.7-.6-2.3Zm1.7 0q0 1.1.2 1.5.2.3.6.3.3 0 .5-.3.3-.4.3-1.5t-.3-1.5q-.2-.3-.5-.3-.4 0-.6.3-.2.4-.2 1.5Z"/><path stroke="#fff" stroke-linecap="round" stroke-linejoin="round" stroke-width="3" d="M298.2 148.3q-.9-.3-1.3-1-.4-.6-.4-1.3 0-1.3 1-2.2.8-.8 2.5-.8 1.6 0 2.5.8 1 .9 1 2.2 0 .7-.5 1.4-.4.6-1.2 1 1 .3 1.5 1 .5.8.5 1.7 0 1.6-1 2.6t-2.7 1q-1.6 0-2.6-.8-1.2-1-1.2-2.7 0-.9.4-1.7.5-.8 1.5-1.2Zm.4-2.2q0 .7.4 1 .4.4 1 .4t1-.4.3-1q0-.6-.3-1-.4-.4-1-.4t-1 .4q-.4.4-.4 1Zm-.2 5q0 .8.5 1.3.4.5 1.1.5t1.2-.4q.4-.5.4-1.5 0-.8-.4-1.3-.5-.5-1.2-.5-.8 0-1.2.6-.4.6-.4 1.2Zm6.9-5.2q0-1.6.7-2.3.6-.8 1.8-.8 1.2 0 1.9.8.6.7.6 2.3 0 1.5-.6 2.3-.7.7-1.9.7t-1.8-.7q-.7-.8-.7-2.3Zm1.7 0q0 1 .3 1.5.2.2.5.2.4 0 .5-.2.3-.4.3-1.5 0-1.2-.3-1.5-.1-.3-.5-.3-.3 0-.5.3-.3.3-.3 1.5Zm2.5 9h-1.7l6.2-12h1.5l-6 12Zm3.5-3q0-1.5.7-2.2.7-.8 1.9-.8 1.1 0 1.8.8.7.7.7 2.2 0 1.6-.7 2.3-.7.8-1.8.8-1.2 0-2-.8-.6-.7-.6-2.3Zm1.7 0q0 1.1.3 1.5.2.3.5.3.4 0 .6-.3.2-.4.2-1.5t-.2-1.5q-.2-.3-.6-.3-.3 0-.5.3-.3.4-.3 1.5Z"/><path fill="#62718b" d="M298.2 148.3q-.9-.3-1.3-1-.4-.6-.4-1.3 0-1.3 1-2.2.8-.8 2.5-.8 1.6 0 2.5.8 1 .9 1 2.2 0 .7-.5 1.4-.4.6-1.2 1 1 .3 1.5 1 .5.8.5 1.7 0 1.6-1 2.6t-2.7 1q-1.6 0-2.6-.8-1.2-1-1.2-2.7 0-.9.4-1.7.5-.8 1.5-1.2Zm.4-2.2q0 .7.4 1 .4.4 1 .4t1-.4.3-1q0-.6-.3-1-.4-.4-1-.4t-1 .4q-.4.4-.4 1Zm-.2 5q0 .8.5 1.3.4.5 1.1.5t1.2-.4q.4-.5.4-1.5 0-.8-.4-1.3-.5-.5-1.2-.5-.8 0-1.2.6-.4.6-.4 1.2Zm6.9-5.2q0-1.6.7-2.3.6-.8 1.8-.8 1.2 0 1.9.8.6.7.6 2.3 0 1.5-.6 2.3-.7.7-1.9.7t-1.8-.7q-.7-.8-.7-2.3Zm1.7 0q0 1 .3 1.5.2.2.5.2.4 0 .5-.2.3-.4.3-1.5 0-1.2-.3-1.5-.1-.3-.5-.3-.3 0-.5.3-.3.3-.3 1.5Zm2.5 9h-1.7l6.2-12h1.5l-6 12Zm3.5-3q0-1.5.7-2.2.7-.8 1.9-.8 1.1 0 1.8.8.7.7.7 2.2 0 1.6-.7 2.3-.7.8-1.8.8-1.2 0-2-.8-.6-.7-.6-2.3Zm1.7 0q0 1.1.3 1.5.2.3.5.3.4 0 .6-.3.2-.4.2-1.5t-.2-1.5q-.2-.3-.6-.3-.3 0-.5.3-.3.4-.3 1.5Z"/><path stroke="#fff" stroke-linecap="round" stroke-linejoin="round" stroke-width="3" d="m234.6 169.5 2.1-.3q.1.8.6 1.3.4.4 1 .4.7 0 1.2-.5.5-.6.5-1.4 0-.9-.5-1.3-.4-.5-1-.5l-1 .1.2-1.8q.8 0 1.3-.3.5-.4.5-1.1 0-.6-.4-1-.3-.3-.9-.3-.5 0-1 .4-.3.4-.4 1.1l-2-.3q.2-1 .6-1.7.4-.6 1.2-1 .7-.3 1.7-.3 1.6 0 2.6 1 .8.9.8 2 0 1.4-1.7 2.3 1 .2 1.6 1 .6.7.6 1.8 0 1.5-1.1 2.5-1.1 1.1-2.7 1.1t-2.6-.9q-1-.9-1.2-2.3Zm9-5.6q0-1.6.8-2.3.6-.8 1.8-.8 1.2 0 1.9.8.6.7.6 2.3 0 1.5-.6 2.3-.7.7-1.9.7t-1.8-.7q-.7-.8-.7-2.3Zm1.8 0q0 1 .3 1.5.1.2.5.2t.5-.2q.3-.4.3-1.5 0-1.2-.3-1.5-.2-.3-.5-.3-.4 0-.5.3-.3.3-.3 1.5Zm2.5 9h-1.7l6.1-12h1.6l-6 12Zm3.5-3q0-1.5.7-2.2.7-.8 1.8-.8 1.2 0 1.9.8.7.7.7 2.2 0 1.6-.7 2.3-.7.8-1.8.8-1.2 0-2-.8-.6-.7-.6-2.3Zm1.7 0q0 1.1.3 1.5.2.3.5.3.4 0 .6-.3.2-.4.2-1.5t-.2-1.5q-.2-.3-.6-.3-.3 0-.5.3-.3.4-.3 1.5Z"/><path fill="#62718b" d="m234.6 169.5 2.1-.3q.1.8.6 1.3.4.4 1 .4.7 0 1.2-.5.5-.6.5-1.4 0-.9-.5-1.3-.4-.5-1-.5l-1 .1.2-1.8q.8 0 1.3-.3.5-.4.5-1.1 0-.6-.4-1-.3-.3-.9-.3-.5 0-1 .4-.3.4-.4 1.1l-2-.3q.2-1 .6-1.7.4-.6 1.2-1 .7-.3 1.7-.3 1.6 0 2.6 1 .8.9.8 2 0 1.4-1.7 2.3 1 .2 1.6 1 .6.7.6 1.8 0 1.5-1.1 2.5-1.1 1.1-2.7 1.1t-2.6-.9q-1-.9-1.2-2.3Zm9-5.6q0-1.6.8-2.3.6-.8 1.8-.8 1.2 0 1.9.8.6.7.6 2.3 0 1.5-.6 2.3-.7.7-1.9.7t-1.8-.7q-.7-.8-.7-2.3Zm1.8 0q0 1 .3 1.5.1.2.5.2t.5-.2q.3-.4.3-1.5 0-1.2-.3-1.5-.2-.3-.5-.3-.4 0-.5.3-.3.3-.3 1.5Zm2.5 9h-1.7l6.1-12h1.6l-6 12Zm3.5-3q0-1.5.7-2.2.7-.8 1.8-.8 1.2 0 1.9.8.7.7.7 2.2 0 1.6-.7 2.3-.7.8-1.8.8-1.2 0-2-.8-.6-.7-.6-2.3Zm1.7 0q0 1.1.3 1.5.2.3.5.3.4 0 .6-.3.2-.4.2-1.5t-.2-1.5q-.2-.3-.6-.3-.3 0-.5.3-.3.4-.3 1.5Z"/><path stroke="#fff" stroke-linecap="round" stroke-linejoin="round" stroke-width="3" d="m230.4 187.5 2.1-.3q.1.8.5 1.3.5.4 1.1.4.7 0 1.2-.5.4-.6.4-1.4 0-.9-.4-1.3-.5-.5-1-.5l-1.1.1.2-1.8q1 0 1.4-.3.5-.4.5-1.1 0-.6-.4-1-.3-.3-.9-.3-.6 0-1 .4t-.4 1.1l-2-.3q.2-1 .6-1.7.4-.6 1.2-1 .7-.3 1.7-.3 1.6 0 2.6 1 .8.9.8 2 0 1.4-1.7 2.3 1 .2 1.6 1 .6.7.6 1.8 0 1.5-1.1 2.5-1.1 1.1-2.8 1.1-1.5 0-2.5-.9t-1.2-2.3Zm9-5.6q0-1.6.7-2.3.7-.8 1.9-.8t1.8.8q.7.7.7 2.3 0 1.5-.7 2.3-.6.7-1.8.7-1.2 0-1.9-.7-.6-.8-.6-2.3Zm1.8 0q0 1 .2 1.5.2.2.6.2.3 0 .5-.2.3-.4.3-1.5 0-1.2-.3-1.5-.2-.3-.5-.3-.4 0-.6.3-.2.3-.2 1.5Zm2.4 9H242l6.1-12h1.6l-6 12Zm3.6-3q0-1.5.7-2.2.7-.8 1.8-.8 1.2 0 1.9.8.7.7.7 2.2 0 1.6-.7 2.3-.7.8-1.9.8-1.1 0-1.8-.8-.7-.7-.7-2.3Zm1.7 0q0 1.1.3 1.5.2.3.5.3.4 0 .5-.3.3-.4.3-1.5t-.2-1.5q-.2-.3-.6-.3-.4 0-.5.3-.3.4-.3 1.5Z"/><path fill="#62718b" d="m230.4 187.5 2.1-.3q.1.8.5 1.3.5.4 1.1.4.7 0 1.2-.5.4-.6.4-1.4 0-.9-.4-1.3-.5-.5-1-.5l-1.1.1.2-1.8q1 0 1.4-.3.5-.4.5-1.1 0-.6-.4-1-.3-.3-.9-.3-.6 0-1 .4t-.4 1.1l-2-.3q.2-1 .6-1.7.4-.6 1.2-1 .7-.3 1.7-.3 1.6 0 2.6 1 .8.9.8 2 0 1.4-1.7 2.3 1 .2 1.6 1 .6.7.6 1.8 0 1.5-1.1 2.5-1.1 1.1-2.8 1.1-1.5 0-2.5-.9t-1.2-2.3Zm9-5.6q0-1.6.7-2.3.7-.8 1.9-.8t1.8.8q.7.7.7 2.3 0 1.5-.7 2.3-.6.7-1.8.7-1.2 0-1.9-.7-.6-.8-.6-2.3Zm1.8 0q0 1 .2 1.5.2.2.6.2.3 0 .5-.2.3-.4.3-1.5 0-1.2-.3-1.5-.2-.3-.5-.3-.4 0-.6.3-.2.3-.2 1.5Zm2.4 9H242l6.1-12h1.6l-6 12Zm3.6-3q0-1.5.7-2.2.7-.8 1.8-.8 1.2 0 1.9.8.7.7.7 2.2 0 1.6-.7 2.3-.7.8-1.9.8-1.1 0-1.8-.8-.7-.7-.7-2.3Zm1.7 0q0 1.1.3 1.5.2.3.5.3.4 0 .5-.3.3-.4.3-1.5t-.2-1.5q-.2-.3-.6-.3-.4 0-.5.3-.3.4-.3 1.5Z"/><path stroke="#fff" stroke-linecap="round" stroke-linejoin="round" stroke-width="3" d="m232.4 206.5 2.1-.3q.1.8.6 1.3.4.4 1 .4.7 0 1.2-.5.5-.6.5-1.4 0-.9-.5-1.3-.4-.5-1-.5l-1 .1.2-1.8q.9 0 1.3-.3.5-.4.5-1.1 0-.6-.3-1-.4-.3-1-.3-.5 0-1 .4-.3.4-.4 1.1l-2-.3q.2-1 .6-1.7.4-.6 1.2-1 .8-.3 1.7-.3 1.6 0 2.6 1 .8.9.8 2 0 1.4-1.6 2.3 1 .2 1.5 1 .6.7.6 1.8 0 1.5-1 2.5-1.2 1.1-2.8 1.1-1.6 0-2.6-.9t-1.2-2.3Zm9.1-5.6q0-1.6.7-2.3.7-.8 1.8-.8 1.2 0 1.9.8.7.7.7 2.3 0 1.5-.7 2.3-.7.7-1.8.7-1.2 0-2-.7-.6-.8-.6-2.3Zm1.7 0q0 1 .3 1.5.2.2.5.2.4 0 .6-.2.2-.4.2-1.5 0-1.2-.2-1.5-.2-.3-.6-.3-.3 0-.5.3-.3.3-.3 1.5Zm2.5 9H244l6-12h1.7l-6.1 12Zm3.5-3q0-1.5.7-2.2.7-.8 1.9-.8t1.8.8q.7.7.7 2.2 0 1.6-.7 2.3-.7.8-1.8.8-1.2 0-1.9-.8-.7-.7-.7-2.3Zm1.8 0q0 1.1.2 1.5.2.3.6.3.3 0 .5-.3.2-.4.2-1.5t-.2-1.5q-.2-.3-.5-.3-.4 0-.6.3-.2.4-.2 1.5Z"/><path fill="#62718b" d="m232.4 206.5 2.1-.3q.1.8.6 1.3.4.4 1 .4.7 0 1.2-.5.5-.6.5-1.4 0-.9-.5-1.3-.4-.5-1-.5l-1 .1.2-1.8q.9 0 1.3-.3.5-.4.5-1.1 0-.6-.3-1-.4-.3-1-.3-.5 0-1 .4-.3.4-.4 1.1l-2-.3q.2-1 .6-1.7.4-.6 1.2-1 .8-.3 1.7-.3 1.6 0 2.6 1 .8.9.8 2 0 1.4-1.6 2.3 1 .2 1.5 1 .6.7.6 1.8 0 1.5-1 2.5-1.2 1.1-2.8 1.1-1.6 0-2.6-.9t-1.2-2.3Zm9.1-5.6q0-1.6.7-2.3.7-.8 1.8-.8 1.2 0 1.9.8.7.7.7 2.3 0 1.5-.7 2.3-.7.7-1.8.7-1.2 0-2-.7-.6-.8-.6-2.3Zm1.7 0q0 1 .3 1.5.2.2.5.2.4 0 .6-.2.2-.4.2-1.5 0-1.2-.2-1.5-.2-.3-.6-.3-.3 0-.5.3-.3.3-.3 1.5Zm2.5 9H244l6-12h1.7l-6.1 12Zm3.5-3q0-1.5.7-2.2.7-.8 1.9-.8t1.8.8q.7.7.7 2.2 0 1.6-.7 2.3-.7.8-1.8.8-1.2 0-1.9-.8-.7-.7-.7-2.3Zm1.8 0q0 1.1.2 1.5.2.3.6.3.3 0 .5-.3.2-.4.2-1.5t-.2-1.5q-.2-.3-.5-.3-.4 0-.6.3-.2.4-.2 1.5Z"/><path stroke="#fff" stroke-linecap="round" stroke-linejoin="round" stroke-width="3" d="M222.6 225.5v2H215q.2-1.2.8-2.2.6-1 2.5-2.7 1.4-1.4 1.8-2 .4-.6.4-1.3 0-.7-.4-1-.4-.5-1-.5-.7 0-1.2.4-.4.4-.4 1.4l-2.2-.2q.2-1.8 1.2-2.6t2.6-.8q1.7 0 2.7 1 1 .8 1 2.2 0 .8-.4 1.5-.2.7-.8 1.4l-1.5 1.5-1.3 1.2-.4.7h4.3Zm1.6-6.6q0-1.6.7-2.3.7-.8 1.8-.8 1.2 0 2 .8.6.7.6 2.3 0 1.5-.7 2.3-.7.7-1.8.7-1.2 0-1.9-.7-.7-.8-.7-2.3Zm1.7 0q0 1 .3 1.5.2.2.5.2.4 0 .6-.2.2-.4.2-1.5 0-1.2-.2-1.5-.2-.3-.6-.3-.3 0-.5.3-.3.3-.3 1.5Zm2.5 9h-1.6l6-12h1.7l-6 12Zm3.6-3q0-1.5.6-2.2.7-.8 1.9-.8t1.8.8q.7.7.7 2.2 0 1.6-.7 2.3-.6.8-1.8.8-1.2 0-1.9-.8-.6-.7-.6-2.3Zm1.7 0q0 1.1.2 1.5.2.3.6.3.3 0 .5-.3.3-.4.3-1.5t-.3-1.5q-.2-.3-.5-.3-.4 0-.6.3-.2.4-.2 1.5Z"/><path fill="#62718b" d="M222.6 225.5v2H215q.2-1.2.8-2.2.6-1 2.5-2.7 1.4-1.4 1.8-2 .4-.6.4-1.3 0-.7-.4-1-.4-.5-1-.5-.7 0-1.2.4-.4.4-.4 1.4l-2.2-.2q.2-1.8 1.2-2.6t2.6-.8q1.7 0 2.7 1 1 .8 1 2.2 0 .8-.4 1.5-.2.7-.8 1.4l-1.5 1.5-1.3 1.2-.4.7h4.3Zm1.6-6.6q0-1.6.7-2.3.7-.8 1.8-.8 1.2 0 2 .8.6.7.6 2.3 0 1.5-.7 2.3-.7.7-1.8.7-1.2 0-1.9-.7-.7-.8-.7-2.3Zm1.7 0q0 1 .3 1.5.2.2.5.2.4 0 .6-.2.2-.4.2-1.5 0-1.2-.2-1.5-.2-.3-.6-.3-.3 0-.5.3-.3.3-.3 1.5Zm2.5 9h-1.6l6-12h1.7l-6 12Zm3.6-3q0-1.5.6-2.2.7-.8 1.9-.8t1.8.8q.7.7.7 2.2 0 1.6-.7 2.3-.6.8-1.8.8-1.2 0-1.9-.8-.6-.7-.6-2.3Zm1.7 0q0 1.1.2 1.5.2.3.6.3.3 0 .5-.3.3-.4.3-1.5t-.3-1.5q-.2-.3-.5-.3-.4 0-.6.3-.2.4-.2 1.5Z"/><path stroke="#fff" stroke-linecap="round" stroke-linejoin="round" stroke-width="3" d="M221.4 243.5v2h-7.7q.2-1.2.8-2.2.6-1 2.5-2.7 1.4-1.4 1.8-2 .4-.6.4-1.3 0-.7-.4-1-.4-.5-1-.5-.8 0-1.2.4-.4.4-.4 1.4l-2.2-.2q.2-1.8 1.2-2.6t2.6-.8q1.7 0 2.7 1 1 .8 1 2.2 0 .8-.4 1.5-.2.7-.8 1.4l-1.5 1.5-1.3 1.2-.4.7h4.3Zm1.6-6.6q0-1.6.7-2.3.7-.8 1.8-.8 1.2 0 2 .8.6.7.6 2.3 0 1.5-.7 2.3-.7.7-1.8.7-1.2 0-1.9-.7-.7-.8-.7-2.3Zm1.7 0q0 1 .3 1.5.2.2.5.2.4 0 .6-.2.2-.4.2-1.5 0-1.2-.2-1.5-.2-.3-.6-.3-.3 0-.5.3-.3.3-.3 1.5Zm2.5 9h-1.6l6-12h1.7l-6 12Zm3.6-3q0-1.5.6-2.2.7-.8 1.9-.8t1.8.8q.7.7.7 2.2 0 1.6-.7 2.3-.6.8-1.8.8-1.2 0-1.9-.8-.6-.7-.6-2.3Zm1.7 0q0 1.1.2 1.5.2.3.6.3.3 0 .5-.3.3-.4.3-1.5t-.3-1.5q-.2-.3-.5-.3-.4 0-.6.3-.2.4-.2 1.5Z"/><path fill="#62718b" d="M221.4 243.5v2h-7.7q.2-1.2.8-2.2.6-1 2.5-2.7 1.4-1.4 1.8-2 .4-.6.4-1.3 0-.7-.4-1-.4-.5-1-.5-.8 0-1.2.4-.4.4-.4 1.4l-2.2-.2q.2-1.8 1.2-2.6t2.6-.8q1.7 0 2.7 1 1 .8 1 2.2 0 .8-.4 1.5-.2.7-.8 1.4l-1.5 1.5-1.3 1.2-.4.7h4.3Zm1.6-6.6q0-1.6.7-2.3.7-.8 1.8-.8 1.2 0 2 .8.6.7.6 2.3 0 1.5-.7 2.3-.7.7-1.8.7-1.2 0-1.9-.7-.7-.8-.7-2.3Zm1.7 0q0 1 .3 1.5.2.2.5.2.4 0 .6-.2.2-.4.2-1.5 0-1.2-.2-1.5-.2-.3-.6-.3-.3 0-.5.3-.3.3-.3 1.5Zm2.5 9h-1.6l6-12h1.7l-6 12Zm3.6-3q0-1.5.6-2.2.7-.8 1.9-.8t1.8.8q.7.7.7 2.2 0 1.6-.7 2.3-.6.8-1.8.8-1.2 0-1.9-.8-.6-.7-.6-2.3Zm1.7 0q0 1.1.2 1.5.2.3.6.3.3 0 .5-.3.3-.4.3-1.5t-.3-1.5q-.2-.3-.5-.3-.4 0-.6.3-.2.4-.2 1.5Z"/><path stroke="#fff" stroke-linecap="round" stroke-linejoin="round" stroke-width="3" d="M220 262.5v2h-7.7q.1-1.2.7-2.2.7-1 2.5-2.7 1.5-1.4 1.8-2 .5-.6.5-1.3 0-.7-.4-1-.4-.5-1.1-.5-.7 0-1.1.4-.4.4-.5 1.4l-2.2-.2q.2-1.8 1.3-2.6 1-.8 2.5-.8 1.7 0 2.7 1 1 .8 1 2.2 0 .8-.3 1.5t-.9 1.4l-1.4 1.5-1.3 1.2-.5.7h4.4Zm1.6-6.6q0-1.6.6-2.3.7-.8 1.9-.8t1.8.8q.7.7.7 2.3 0 1.5-.7 2.3-.6.7-1.8.7-1.2 0-1.9-.7-.6-.8-.6-2.3Zm1.7 0q0 1 .2 1.5.2.2.6.2.3 0 .5-.2.3-.4.3-1.5 0-1.2-.3-1.5-.2-.3-.5-.3-.4 0-.6.3-.2.3-.2 1.5Zm2.4 9h-1.6l6.1-12h1.6l-6 12Zm3.6-3q0-1.5.7-2.2.7-.8 1.8-.8 1.2 0 1.9.8.7.7.7 2.2 0 1.6-.7 2.3-.7.8-1.9.8-1.1 0-1.8-.8-.7-.7-.7-2.3Zm1.7 0q0 1.1.3 1.5.2.3.5.3.4 0 .5-.3.3-.4.3-1.5t-.2-1.5q-.2-.3-.6-.3-.4 0-.5.3-.3.4-.3 1.5Z"/><path fill="#62718b" d="M220 262.5v2h-7.7q.1-1.2.7-2.2.7-1 2.5-2.7 1.5-1.4 1.8-2 .5-.6.5-1.3 0-.7-.4-1-.4-.5-1.1-.5-.7 0-1.1.4-.4.4-.5 1.4l-2.2-.2q.2-1.8 1.3-2.6 1-.8 2.5-.8 1.7 0 2.7 1 1 .8 1 2.2 0 .8-.3 1.5t-.9 1.4l-1.4 1.5-1.3 1.2-.5.7h4.4Zm1.6-6.6q0-1.6.6-2.3.7-.8 1.9-.8t1.8.8q.7.7.7 2.3 0 1.5-.7 2.3-.6.7-1.8.7-1.2 0-1.9-.7-.6-.8-.6-2.3Zm1.7 0q0 1 .2 1.5.2.2.6.2.3 0 .5-.2.3-.4.3-1.5 0-1.2-.3-1.5-.2-.3-.5-.3-.4 0-.6.3-.2.3-.2 1.5Zm2.4 9h-1.6l6.1-12h1.6l-6 12Zm3.6-3q0-1.5.7-2.2.7-.8 1.8-.8 1.2 0 1.9.8.7.7.7 2.2 0 1.6-.7 2.3-.7.8-1.9.8-1.1 0-1.8-.8-.7-.7-.7-2.3Zm1.7 0q0 1.1.3 1.5.2.3.5.3.4 0 .5-.3.3-.4.3-1.5t-.2-1.5q-.2-.3-.6-.3-.4 0-.5.3-.3.4-.3 1.5Z"/><path stroke="#fff" stroke-linecap="round" stroke-linejoin="round" stroke-width="3" d="M211 282.5h-2.2v-8.3q-1.2 1.1-2.8 1.7v-2q.9-.3 1.9-1 1-.9 1.3-1.9h1.8v11.5Zm3.4-8.6q0-1.6.7-2.3.7-.8 1.8-.8 1.2 0 1.9.8.7.7.7 2.3 0 1.5-.7 2.3-.7.7-1.8.7-1.2 0-1.9-.7-.7-.8-.7-2.3Zm1.7 0q0 1 .3 1.5.2.2.5.2.4 0 .6-.2.2-.4.2-1.5 0-1.2-.2-1.5-.2-.3-.6-.3-.3 0-.5.3-.3.3-.3 1.5Zm2.5 9H217l6-12h1.7l-6.1 12Zm3.5-3q0-1.5.7-2.2.7-.8 1.9-.8t1.8.8q.7.7.7 2.2 0 1.6-.7 2.3-.6.8-1.8.8-1.2 0-1.9-.8-.7-.7-.7-2.3Zm1.8 0q0 1.1.2 1.5.2.3.6.3.3 0 .5-.3.3-.4.3-1.5t-.3-1.5q-.2-.3-.5-.3-.4 0-.6.3-.2.4-.2 1.5Z"/><path fill="#62718b" d="M211 282.5h-2.2v-8.3q-1.2 1.1-2.8 1.7v-2q.9-.3 1.9-1 1-.9 1.3-1.9h1.8v11.5Zm3.4-8.6q0-1.6.7-2.3.7-.8 1.8-.8 1.2 0 1.9.8.7.7.7 2.3 0 1.5-.7 2.3-.7.7-1.8.7-1.2 0-1.9-.7-.7-.8-.7-2.3Zm1.7 0q0 1 .3 1.5.2.2.5.2.4 0 .6-.2.2-.4.2-1.5 0-1.2-.2-1.5-.2-.3-.6-.3-.3 0-.5.3-.3.3-.3 1.5Zm2.5 9H217l6-12h1.7l-6.1 12Zm3.5-3q0-1.5.7-2.2.7-.8 1.9-.8t1.8.8q.7.7.7 2.2 0 1.6-.7 2.3-.6.8-1.8.8-1.2 0-1.9-.8-.7-.7-.7-2.3Zm1.8 0q0 1.1.2 1.5.2.3.6.3.3 0 .5-.3.3-.4.3-1.5t-.3-1.5q-.2-.3-.5-.3-.4 0-.6.3-.2.4-.2 1.5Z"/><path stroke="#fff" stroke-linecap="round" stroke-linejoin="round" stroke-width="3" d="M208.7 300.5h-2.2v-8.3q-1.2 1.1-2.8 1.7v-2q.8-.3 1.8-1 1-.9 1.4-1.9h1.8v11.5Zm3.4-8.6q0-1.6.7-2.3.7-.8 1.8-.8 1.2 0 1.9.8.7.7.7 2.3 0 1.5-.7 2.3-.7.7-1.8.7-1.2 0-2-.7-.6-.8-.6-2.3Zm1.7 0q0 1 .3 1.5.2.2.5.2.4 0 .6-.2.2-.4.2-1.5 0-1.2-.2-1.5-.2-.3-.6-.3-.3 0-.5.3-.3.3-.3 1.5Zm2.5 9h-1.6l6-12h1.6l-6 12Zm3.5-3q0-1.5.7-2.2.7-.8 1.9-.8 1.1 0 1.8.8.7.7.7 2.2 0 1.6-.7 2.3-.7.8-1.8.8-1.2 0-1.9-.8-.7-.7-.7-2.3Zm1.8 0q0 1.1.2 1.5.2.3.5.3.4 0 .6-.3.2-.4.2-1.5t-.2-1.5q-.2-.3-.6-.3-.3 0-.5.3-.3.4-.3 1.5Z"/><path fill="#62718b" d="M208.7 300.5h-2.2v-8.3q-1.2 1.1-2.8 1.7v-2q.8-.3 1.8-1 1-.9 1.4-1.9h1.8v11.5Zm3.4-8.6q0-1.6.7-2.3.7-.8 1.8-.8 1.2 0 1.9.8.7.7.7 2.3 0 1.5-.7 2.3-.7.7-1.8.7-1.2 0-2-.7-.6-.8-.6-2.3Zm1.7 0q0 1 .3 1.5.2.2.5.2.4 0 .6-.2.2-.4.2-1.5 0-1.2-.2-1.5-.2-.3-.6-.3-.3 0-.5.3-.3.3-.3 1.5Zm2.5 9h-1.6l6-12h1.6l-6 12Zm3.5-3q0-1.5.7-2.2.7-.8 1.9-.8 1.1 0 1.8.8.7.7.7 2.2 0 1.6-.7 2.3-.7.8-1.8.8-1.2 0-1.9-.8-.7-.7-.7-2.3Zm1.8 0q0 1.1.2 1.5.2.3.5.3.4 0 .6-.3.2-.4.2-1.5t-.2-1.5q-.2-.3-.6-.3-.3 0-.5.3-.3.4-.3 1.5Z"/><path fill="#838689" d="M329 351.3v-8.6h4.6q.7.2 1 .5.5.3.8.8.2.5.2 1.2 0 1-.7 1.8t-2.5.8h-2.2v3.5h-1.1Zm1.2-4.5h2.2q1.1 0 1.6-.4t.5-1.2q0-.5-.3-.9t-.7-.5h-3.3v3Zm11 2.5 1 .1q-.2 1-.9 1.5t-1.8.5q-1.3 0-2.1-.8-.8-.9-.8-2.4t.8-2.4q.8-.9 2-.9 1.3 0 2.1.9.8.8.8 2.4v.3h-4.6q0 1 .6 1.5.5.6 1.2.6.6 0 1-.3.5-.3.7-1Zm-3.5-1.7h3.5q0-.8-.4-1.2-.5-.6-1.3-.6-.7 0-1.2.5t-.6 1.3Zm6.2 3.7v-6.2h1v1q.3-.7.6-1 .3-.2.7-.2.6 0 1.1.4l-.4 1q-.4-.3-.7-.3-.4 0-.7.2l-.3.6-.2 1.2v3.3h-1Zm8.1-2.3 1 .2q-.1 1-.8 1.6-.7.6-1.8.6-1.2 0-2-.8t-.8-2.4q0-1 .3-1.7.4-.8 1-1.2.7-.4 1.6-.4 1 0 1.6.6.7.5.8 1.4l-1 .2q-.1-.7-.5-1-.4-.3-1-.3-.7 0-1.2.6-.5.5-.5 1.8 0 1.2.5 1.8.5.6 1.2.6.6 0 1-.4.5-.4.6-1.2Zm6.2.3 1 .1q-.2 1-.9 1.5t-1.8.5q-1.3 0-2.1-.8-.8-.9-.8-2.4t.8-2.4q.8-.9 2-.9 1.3 0 2.1.9.8.8.8 2.4v.3h-4.6q0 1 .6 1.5.5.6 1.2.6.6 0 1-.3.5-.3.7-1Zm-3.5-1.7h3.5q0-.8-.4-1.2-.5-.6-1.3-.6-.7 0-1.2.5t-.6 1.3Zm6.2 3.7v-6.2h1v.9q.7-1 2-1l1 .1q.5.2.7.6l.3.7v4.9h-1v-4.8l-.5-.5q-.3-.2-.8-.2-.6 0-1.1.5-.5.4-.5 1.6v3.4h-1Zm9.3-1 .2 1h-.8l-.9-.1q-.3-.2-.4-.5-.2-.3-.2-1.2v-3.6h-.7v-.8h.7v-1.6l1-.6v2.2h1.1v.8h-1v4.2l.2.2h.8Zm3.3-2.1q0-1.7 1-2.6.8-.7 2-.7t2 .9q.9.8.9 2.3 0 1.2-.4 1.9-.3.7-1 1-.7.4-1.5.4-1.3 0-2.2-.8-.8-.8-.8-2.4Zm1.1 0q0 1.2.5 1.8.6.6 1.4.6.8 0 1.3-.6t.5-1.8q0-1.2-.5-1.8-.6-.6-1.3-.6t-1.4.6q-.5.6-.5 1.8Zm6.6 3.1v-5.4h-1v-.8h1v-.7l.1-1 .5-.6q.4-.2 1.1-.2h1l-.2 1h-.6l-.7.1q-.2.2-.2.8v.6h1.3v.8h-1.3v5.4h-1Zm5.7 2.4V345h1v.8q.3-.5.8-.7.4-.3 1-.3.8 0 1.4.4.6.4 1 1.2.2.7.2 1.6 0 1-.3 1.8-.3.7-1 1.1-.7.4-1.4.4l-1-.2-.6-.5v3h-1Zm1-5.5q0 1.2.5 1.8.5.6 1.1.6.8 0 1.3-.6t.5-1.9q0-1.2-.5-1.7-.5-.6-1.2-.6t-1.2.6q-.5.6-.5 1.8Zm10.1 2.3-1.1.7-1.2.2q-1 0-1.6-.5-.5-.5-.5-1.2 0-.5.2-.9t.5-.6l.8-.3 1-.2q1.2-.1 1.8-.4v-.2q0-.7-.3-1-.4-.3-1.2-.3-.7 0-1 .3-.4.2-.6.9l-1-.2q0-.6.4-1 .3-.4 1-.6.6-.3 1.4-.3.8 0 1.3.2t.7.5l.3.7v2.4l.1 1.8.3.8h-1.1q-.2-.3-.2-.8Zm0-2.3-1.8.4q-.7 0-1 .2l-.4.3-.1.5q0 .4.3.7.3.3 1 .3.6 0 1-.3.5-.2.7-.7.2-.4.2-1v-.4Zm2.7 3.6 1 .2q.1.4.4.7.4.3 1 .3.8 0 1.2-.3.4-.3.6-.9v-1.3q-.6.8-1.7.8-1.3 0-2-1-.7-.9-.7-2.1 0-1 .3-1.7.4-.8 1-1.2.6-.4 1.4-.4 1.1 0 1.8 1v-.8h1v5.4q0 1.4-.3 2-.3.6-1 1-.6.3-1.5.3-1.1 0-1.8-.5t-.7-1.5Zm1-3.7q0 1.2.4 1.8.5.5 1.2.5t1.2-.5q.5-.6.5-1.8 0-1.1-.5-1.7-.5-.6-1.2-.6t-1.2.6q-.5.6-.5 1.7Zm10.5 1.2 1 .1q-.2 1-.9 1.5t-1.8.5q-1.3 0-2.1-.8-.8-.9-.8-2.4t.8-2.4q.8-.9 2-.9 1.3 0 2.1.9.8.8.8 2.4v.3h-4.6q0 1 .6 1.5.5.6 1.2.6.6 0 1-.3.5-.3.7-1Zm-3.5-1.7h3.5q0-.8-.4-1.2-.5-.6-1.3-.6-.7 0-1.2.5t-.6 1.3Zm5.8 1.8 1-.1q.1.6.5 1 .4.3 1.2.3.7 0 1-.3.4-.3.4-.7 0-.4-.3-.6l-1.1-.3-1.6-.5-.7-.6q-.2-.4-.2-.9 0-.4.2-.7.2-.4.5-.6.2-.2.7-.3.4-.2.9-.2.7 0 1.3.3l.8.5.3 1-1 .1q0-.5-.4-.7-.3-.3-1-.3t-1 .2q-.3.3-.3.6l.1.4.4.2 1 .3 1.5.5q.5.2.7.6.3.3.3.9 0 .5-.3 1-.3.4-1 .7-.5.2-1.2.2-1.2 0-1.9-.5-.6-.5-.8-1.5ZM29.5 235H21v-1.2h4.2l-4.2-4.2V228l3.4 3.6 5.2-3.7v1.5l-4.4 3 1.4 1.4h3v1.2Zm-2-12.2.2-1.1q1 .2 1.5 1 .5.7.5 1.7 0 1.4-.9 2.2-.8.8-2.3.8-1.6 0-2.4-.8-1-.8-1-2.1t1-2q.8-.8 2.3-.8h.3v4.6q1 0 1.6-.6.5-.5.5-1.3 0-.5-.3-1-.3-.4-1-.6Zm-1.7 3.4v-3.4q-.7 0-1.1.4-.6.5-.6 1.3 0 .7.4 1.2.5.5 1.3.5Zm6.1-6.1-1 .1.2-.6q0-.3-.2-.5 0-.3-.3-.4l-.8-.3-.2-.1-6.3 2.3v-1l3.6-1.4 1.5-.4-1.4-.5-3.7-1.3v-1l6.4 2.3 1.4.6q.5.3.7.7.3.3.3.8l-.2.7Zm-2.3-6.2-6.3 1.9v-1l3.6-1 1.4-.4-1.3-.4-3.7-1v-1l3.6-1 1.2-.3-1.2-.4-3.6-1v-1l6.3 2v1l-3.8 1-1 .2 4.8 1.3v1.1Zm-3.2-7.5q-1.7 0-2.5-1-.7-.7-.7-1.9 0-1.3.8-2 .9-.9 2.3-.9 1.3 0 2 .4.6.3 1 1t.4 1.5q0 1.3-.8 2.1-.9.8-2.5.8Zm0-1q1.2 0 1.8-.6.6-.5.6-1.3t-.6-1.3q-.6-.5-1.8-.5-1.1 0-1.7.5-.6.5-.6 1.3t.6 1.3q.5.6 1.7.6Zm3.2-6.3h-6.3v-1h1q-.7-.4-.9-.7l-.2-.6q0-.6.3-1.1l1 .3-.2.8q0 .4.2.6.2.3.6.4.5.2 1.2.2h3.3v1Zm0-8h-.8q.9.5.9 1.6 0 .8-.4 1.4-.4.6-1.2 1t-1.7.3q-.9 0-1.6-.3-.8-.3-1.2-1-.4-.5-.4-1.3 0-.6.2-1l.6-.7h-3v-1h8.6v1Zm-3.2 3.2q1.2 0 1.8-.5.6-.5.6-1.2 0-.6-.5-1.1-.6-.5-1.8-.5-1.2 0-1.8.5-.6.5-.6 1.2t.5 1.2q.6.4 1.8.4Zm105.2-78.8V107h1v.8q.3-.5.7-.7.4-.2 1-.2.8 0 1.5.4.6.4.9 1.1.3.8.3 1.7 0 1-.4 1.7-.3.8-1 1.2-.6.4-1.3.4-.6 0-1-.2l-.7-.6v3h-1Zm1-5.4q0 1.2.4 1.7.5.6 1.2.6t1.2-.6q.5-.6.5-1.8 0-1.2-.5-1.8-.5-.6-1.2-.6-.6 0-1.2.6t-.5 1.9Zm6 3V107h1v1q.3-.7.6-1l.7-.1q.5 0 1 .3l-.3 1-.8-.2-.6.2q-.3.2-.4.5-.2.6-.2 1.3v3.2h-1Zm4-7.3v-1.3h1v1.3h-1Zm0 7.3V107h1v6.2h-1Zm4.7 0-2.4-6.2h1.1l1.4 3.7.4 1.3.4-1.2 1.4-3.8h1l-2.3 6.2h-1Zm7.3-.7-1.1.7q-.5.2-1.2.2-1 0-1.5-.5-.6-.5-.6-1.3 0-.5.2-.8.2-.4.6-.6.3-.3.7-.4l1-.2 1.8-.3v-.3q0-.6-.2-1-.5-.3-1.3-.3-.7 0-1 .3-.4.3-.6 1l-1-.2q.1-.7.5-1 .3-.5.9-.7.6-.2 1.4-.2.8 0 1.3.2.5.1.7.4.3.3.4.8v4.2l.4.7h-1.2l-.2-.7Zm0-2.4-1.8.4-.9.2q-.3.1-.4.4-.2.2-.2.5 0 .4.4.7.3.2.9.2.6 0 1-.2.6-.3.8-.8l.1-1v-.4Zm7 .9h1q-.1 1.2-.8 1.8-.7.6-1.7.6-1.3 0-2-.9-.8-.8-.8-2.4 0-1 .3-1.7.3-.8 1-1.2.7-.3 1.5-.3 1 0 1.6.5.7.5.9 1.4l-1 .2q-.2-.6-.6-1-.3-.3-.9-.3-.8 0-1.3.6t-.5 1.8q0 1.3.5 1.8.5.6 1.3.6.6 0 1-.4t.5-1.1Zm2 4.6-.2-1 .6.1h.6l.3-.4.4-.8v-.3L163 107h1.1l1.3 3.6.5 1.5q.1-.8.4-1.5l1.3-3.6h1l-2.3 6.3-.6 1.4q-.3.6-.6.8-.4.3-.9.3l-.7-.2Zm-26 18.3v-8.6h1v.8q.3-.5.7-.7.4-.2 1-.2.8 0 1.5.4.6.4.9 1.1.3.8.3 1.7 0 1-.4 1.7-.3.8-1 1.2-.6.4-1.3.4-.6 0-1-.2l-.7-.6v3h-1Zm1-5.4q0 1.2.4 1.7.5.6 1.2.6t1.2-.6q.5-.6.5-1.8 0-1.2-.5-1.8-.5-.6-1.2-.6-.6 0-1.2.6t-.5 1.9Zm5.6 0q0-1.8 1-2.6.7-.7 1.9-.7 1.3 0 2 .8 1 .8 1 2.3 0 1.2-.4 2-.4.6-1.1 1-.7.4-1.5.4-1.3 0-2.1-.9-.8-.8-.8-2.4Zm1 0q0 1.1.6 1.7.5.6 1.3.6t1.3-.6q.5-.6.5-1.8 0-1.2-.5-1.8-.5-.6-1.3-.6t-1.3.6q-.5.6-.5 1.8Zm6.3 3v-8.6h1.1v8.6h-1Zm3-7.3v-1.3h1.1v1.3h-1Zm0 7.3v-6.2h1.1v6.2h-1Zm7.1-2.3 1 .2q-.1 1-.8 1.7-.7.6-1.7.6-1.3 0-2-.9-.8-.8-.8-2.4 0-1 .3-1.7.3-.8 1-1.2.7-.3 1.5-.3 1 0 1.6.5.7.5.9 1.4l-1 .2q-.2-.6-.6-1-.3-.3-.9-.3-.8 0-1.3.6t-.5 1.8q0 1.3.5 1.8.5.6 1.3.6.6 0 1-.4t.5-1.2Zm2 4.7-.2-1 .6.1.6-.1.3-.3.4-.8v-.3l-2.3-6.2h1.1l1.3 3.6.5 1.5q.1-.8.4-1.5l1.3-3.6h1l-2.3 6.3-.6 1.4q-.3.6-.6.8-.4.3-.9.3l-.7-.2Zm-34 13.6 1 .2q-.1 1-.8 1.7-.7.6-1.7.6-1.3 0-2-.9-.8-.8-.8-2.4 0-1 .3-1.7.3-.8 1-1.2.7-.3 1.5-.3 1 0 1.6.5.7.5.9 1.4l-1 .2q-.2-.6-.6-1-.3-.3-.9-.3-.8 0-1.3.6t-.5 1.8q0 1.3.5 1.8.5.6 1.3.6.6 0 1-.4t.5-1.2Zm1.6-.8q0-1.7 1-2.5.7-.7 1.9-.7 1.3 0 2 .8 1 .8 1 2.3 0 1.2-.4 2-.4.6-1.1 1-.7.4-1.5.4-1.3 0-2.1-.9-.8-.8-.8-2.4Zm1 0q0 1.2.6 1.8.5.6 1.3.6t1.3-.6q.5-.6.5-1.8 0-1.2-.5-1.8-.5-.6-1.3-.6t-1.3.6q-.5.6-.5 1.8Zm6 0q0-1.7 1-2.5.7-.7 1.9-.7 1.3 0 2 .8 1 .8 1 2.3 0 1.2-.4 2-.4.6-1.1 1-.7.4-1.5.4-1.3 0-2.1-.9-.8-.8-.8-2.4Zm1 0q0 1.2.6 1.8.5.6 1.3.6t1.3-.6q.5-.6.5-1.8 0-1.2-.5-1.8-.5-.6-1.3-.6t-1.3.6q-.5.6-.5 1.8Zm6.4 3.1v-8.6h1v5l2.5-2.6h1.4l-2.4 2.3 2.6 4h-1.3l-2-3.3-.8.8v2.4h-1Zm6-7.3V141h1v1.3h-1Zm0 7.3v-6.2h1v6.2h-1Zm7.2-2 1.1.2q-.2.9-1 1.4t-1.7.6q-1.4 0-2.2-.9-.8-.8-.8-2.3 0-1.6.8-2.5.8-.8 2.1-.8t2 .8q.9.9.9 2.4v.3h-4.7q0 1 .6 1.6.5.5 1.3.5.6 0 1-.3t.6-1Zm-3.4-1.7h3.4q0-.8-.3-1.2-.6-.6-1.4-.6-.7 0-1.2.5t-.5 1.3Zm5.8 1.9 1-.2q0 .6.5 1 .4.3 1.1.3.7 0 1-.3.4-.3.4-.7 0-.4-.3-.6l-1-.3-1.7-.5q-.4-.2-.6-.6-.3-.4-.3-.9 0-.4.2-.7.2-.4.5-.6l.7-.3 1-.1 1.2.2q.6.2.8.5.3.4.4 1l-1 .1q-.1-.4-.5-.7-.3-.3-1-.3-.6 0-1 .3-.3.2-.3.5l.2.4q.1.2.4.3l1 .2 1.5.5q.4.2.7.6.2.4.2.9t-.3 1q-.3.5-.9.7-.6.3-1.3.3-1.2 0-1.8-.5-.7-.5-.8-1.5Zm-58.6 17.8 1 .2q-.1 1-.8 1.7-.7.6-1.7.6-1.3 0-2-.9-.8-.8-.8-2.4 0-1 .3-1.7.3-.8 1-1.2.7-.3 1.5-.3 1 0 1.6.5.7.5.9 1.4l-1 .2q-.2-.6-.6-1-.3-.3-.9-.3-.8 0-1.3.6t-.5 1.8q0 1.3.5 1.8.5.6 1.3.6.6 0 1-.4t.5-1.2Zm1.6-.8q0-1.7 1-2.5.7-.7 1.9-.7 1.3 0 2 .8 1 .8 1 2.3 0 1.2-.4 2-.4.6-1.1 1-.7.4-1.5.4-1.3 0-2.1-.9-.8-.8-.8-2.4Zm1 0q0 1.2.6 1.8.5.6 1.3.6t1.3-.6q.5-.6.5-1.8 0-1.2-.5-1.8-.5-.6-1.3-.6t-1.3.6q-.5.6-.5 1.8Zm6 0q0-1.7 1-2.5.7-.7 1.9-.7 1.3 0 2 .8 1 .8 1 2.3 0 1.2-.4 2-.4.6-1.1 1-.7.4-1.5.4-1.3 0-2.1-.9-.8-.8-.8-2.4Zm1 0q0 1.2.6 1.8.5.6 1.3.6t1.3-.6q.5-.6.5-1.8 0-1.2-.5-1.8-.5-.6-1.3-.6t-1.3.6q-.5.6-.5 1.8Zm6.4 3.1v-8.6h1v5l2.5-2.6h1.4l-2.4 2.3 2.6 4h-1.3l-2-3.3-.8.8v2.4h-1Zm6-7.4v-1.2h1v1.2h-1Zm0 7.4v-6.2h1v6.2h-1Zm7.2-2 1.1.1q-.2 1-1 1.5-.6.6-1.7.6-1.4 0-2.2-.9-.8-.8-.8-2.3 0-1.6.8-2.5.8-.8 2.1-.8t2 .8q.9.9.9 2.4v.3h-4.7q0 1 .6 1.6.5.5 1.3.5.6 0 1-.3t.6-1Zm-3.4-1.7h3.4q0-.8-.3-1.2-.6-.6-1.4-.6-.7 0-1.2.5t-.5 1.3Zm9.2 6.1v-8.6h1v.8q.3-.5.7-.7.4-.2 1-.2.8 0 1.5.4.6.4.9 1.1.3.8.3 1.7 0 1-.4 1.7-.3.8-1 1.2-.6.4-1.3.4-.6 0-1-.3l-.7-.5v3h-1Zm1-5.5q0 1.2.4 1.8.5.6 1.2.6t1.2-.6q.5-.6.5-1.8 0-1.2-.5-1.8-.5-.6-1.2-.6-.6 0-1.2.6t-.5 1.8Zm5.6 0q0-1.7 1-2.5.7-.7 1.9-.7 1.3 0 2 .8 1 .8 1 2.3 0 1.2-.4 2-.4.6-1.1 1-.7.4-1.5.4-1.3 0-2.1-.9-.8-.8-.8-2.4Zm1 0q0 1.2.6 1.8.5.6 1.3.6t1.3-.6q.5-.6.5-1.8 0-1.2-.5-1.8-.5-.6-1.3-.6t-1.3.6q-.5.6-.5 1.8Zm6.3 3.1v-8.6h1.1v8.6h-1Zm3-7.4v-1.2h1.1v1.2h-1Zm0 7.4v-6.2h1.1v6.2h-1Zm7.1-2.3 1 .2q-.1 1-.8 1.7-.7.6-1.7.6-1.3 0-2-.9-.8-.8-.8-2.4 0-1 .3-1.7.3-.8 1-1.2.7-.3 1.5-.3 1 0 1.6.5.7.5.9 1.4l-1 .2q-.2-.6-.6-1-.3-.3-.9-.3-.8 0-1.3.6t-.5 1.8q0 1.3.5 1.8.5.6 1.3.6.6 0 1-.4t.5-1.2Zm2 4.7-.2-1 .6.1.6-.1.3-.3.4-.8v-.3l-2.3-6.2h1.1l1.3 3.6.5 1.5q.1-.8.4-1.5l1.3-3.6h1l-2.3 6.3-.6 1.4q-.3.6-.6.8-.4.3-.9.3l-.7-.2Zm-51 18.3v-8.6h1v.8q.3-.5.7-.7.4-.2 1-.2.8 0 1.5.4.6.4.9 1.1.3.8.3 1.7 0 1-.4 1.7-.3.7-1 1.2-.6.4-1.3.4-.6 0-1-.3l-.7-.5v3h-1Zm1-5.5q0 1.2.4 1.8.5.6 1.2.6t1.2-.6q.5-.6.5-1.9 0-1.1-.5-1.7-.5-.6-1.2-.6-.6 0-1.2.6t-.5 1.8Zm6 3.1v-6.2h1v1q.3-.7.6-1l.7-.1q.5 0 1 .3l-.3 1q-.4-.3-.8-.3-.3 0-.6.3-.3.2-.4.5-.2.6-.2 1.3v3.2h-1Zm4-7.4v-1.2h1v1.2h-1Zm0 7.4v-6.2h1v6.2h-1Zm4.7 0-2.4-6.2h1.1l1.4 3.7.4 1.3.4-1.2 1.4-3.8h1l-2.3 6.2h-1Zm7.3-.7-1.1.7q-.5.2-1.2.2-1 0-1.5-.5-.6-.5-.6-1.3 0-.5.2-.8.2-.4.6-.7l.7-.3 1-.2 1.8-.3v-.3q0-.7-.2-1-.5-.3-1.3-.3-.7 0-1 .3-.4.3-.6 1l-1-.2q.1-.7.5-1.1.3-.4.9-.6.6-.2 1.4-.2l1.3.1q.5.2.7.5.3.3.4.7v4.3l.4.7h-1.2l-.2-.7Zm0-2.4-1.8.4-.9.2-.4.3-.2.5q0 .5.4.8.3.2.9.2.6 0 1-.2.6-.3.8-.8l.1-1v-.4Zm7 .8 1 .2q-.1 1-.8 1.7-.7.6-1.7.6-1.3 0-2-.9-.8-.8-.8-2.4 0-1 .3-1.7.3-.8 1-1.2.7-.3 1.5-.3 1 0 1.6.5.7.5.9 1.4l-1 .2q-.2-.6-.6-1-.3-.3-.9-.3-.8 0-1.3.6t-.5 1.8q0 1.3.5 1.8.5.6 1.3.6.6 0 1-.4t.5-1.2Zm2-5v-1.3h1v1.2h-1Zm0 7.3v-6.2h1v6.2h-1Zm7 0v-.8q-.6 1-1.7 1-.8 0-1.4-.4-.6-.5-1-1.2-.3-.7-.3-1.7t.3-1.7q.3-.7 1-1.1.6-.4 1.3-.4.6 0 1 .2.5.2.7.6v-3h1.1v8.5h-1Zm-3.3-3q0 1.1.5 1.7.5.6 1.2.6t1.1-.6q.5-.5.5-1.7 0-1.3-.5-1.9-.5-.6-1.2-.6t-1.1.6q-.5.6-.5 1.8Zm10.3 2.3-1.1.7q-.5.2-1.2.2-1 0-1.5-.5-.6-.5-.6-1.3 0-.5.2-.8.2-.4.6-.7l.7-.3 1-.2 1.8-.3v-.3q0-.7-.2-1-.5-.3-1.3-.3-.7 0-1 .3-.4.3-.6 1l-1-.2q.1-.7.5-1.1.3-.4.9-.6.6-.2 1.4-.2l1.3.1q.5.2.7.5.3.3.4.7v4.3l.4.7h-1.2l-.2-.7Zm0-2.4-1.8.4-.9.2-.4.3-.2.5q0 .5.4.8.3.2.9.2.6 0 1-.2.6-.3.8-.8l.1-1v-.4Zm7 3.1v-.8q-.6 1-1.7 1-.8 0-1.4-.4-.6-.5-1-1.2-.3-.7-.3-1.7t.3-1.7q.3-.7 1-1.1.6-.4 1.3-.4.6 0 1 .2.5.2.7.6v-3h1.1v8.5h-1Zm-3.3-3q0 1.1.5 1.7.5.6 1.2.6t1.1-.6q.5-.5.5-1.7 0-1.3-.5-1.9-.5-.6-1.2-.6t-1.1.6q-.5.6-.5 1.8Zm-55.7 21.3v-.8q-.6 1-1.7 1-.8 0-1.4-.4-.6-.5-1-1.2-.3-.7-.3-1.7t.3-1.7q.3-.7 1-1.1.6-.4 1.3-.4.6 0 1 .2.5.2.7.6v-3h1.1v8.5h-1Zm-3.3-3q0 1.1.5 1.7.5.6 1.2.6t1.1-.6q.5-.5.5-1.7 0-1.3-.5-1.9-.5-.6-1.2-.6t-1.1.6q-.5.6-.5 1.8Zm10.3 2.3-1.1.7q-.5.2-1.2.2-1 0-1.5-.5-.6-.5-.6-1.3 0-.5.2-.9l.6-.6.7-.3 1-.2 1.8-.3v-.3q0-.7-.2-1-.5-.3-1.3-.3-.7 0-1 .3-.4.2-.6.9l-1-.1q.1-.7.5-1.1.3-.4.9-.6.6-.2 1.4-.2l1.3.1q.5.2.7.5.3.3.4.7v4.3l.4.7h-1.2l-.2-.7Zm0-2.4-1.8.4q-.6 0-.9.2l-.4.3-.2.5q0 .5.4.7.3.3.9.3.6 0 1-.2.6-.3.8-.8l.1-1v-.4Zm5.3 2.2.1.9h-1.7l-.4-.6-.1-1.2v-3.6h-.8v-.8h.8v-1.5l1-.7v2.2h1v.8h-1v4.2l.2.2.4.1h.5Zm5-1h1q-.2 1-1 1.5t-1.7.6q-1.4 0-2.2-.9-.8-.8-.8-2.3 0-1.6.8-2.5.8-.8 2.1-.8t2 .8q.9.8.9 2.4v.3h-4.7q0 1 .6 1.6.5.5 1.3.5.6 0 1-.3t.6-1Zm-3.5-1.8h3.4q0-.8-.3-1.2-.6-.6-1.4-.6-.7 0-1.2.5t-.5 1.3Zm6.2 3.7v-6.2h1v.9q.6-1 1.9-1 .6 0 1 .2l.8.5.3.8v4.8h-1v-3.8l-.1-1-.5-.4q-.3-.2-.7-.2-.7 0-1.2.4t-.5 1.6v3.4h-1Zm6.6-1.8 1-.2q0 .6.5 1 .4.3 1.1.3.7 0 1-.3.4-.3.4-.7 0-.4-.3-.6l-1-.3-1.7-.5q-.4-.2-.6-.6-.3-.4-.3-.9 0-.4.2-.7.2-.4.5-.6l.7-.3 1-.1 1.2.2q.6.2.8.5.3.4.4 1l-1 .1q-.1-.4-.5-.7-.3-.3-1-.3-.6 0-1 .3-.3.2-.3.5l.2.4q.1.2.4.3l1 .2 1.5.5q.4.2.7.6.2.3.2.9 0 .5-.3 1-.3.4-.9.7-.6.3-1.3.3-1.2 0-1.8-.5-.7-.6-.8-1.5Zm11.4-.5 1 .2q-.1 1-.8 1.6-.7.7-1.7.7-1.3 0-2-.9-.8-.8-.8-2.4 0-1 .3-1.7.3-.8 1-1.2.7-.3 1.5-.3 1 0 1.6.5.7.5.9 1.4l-1 .2q-.2-.6-.6-1-.3-.3-.9-.3-.8 0-1.3.6t-.5 1.8q0 1.3.5 1.8.5.6 1.3.6.6 0 1-.4t.5-1.2Zm2 2.3V196h1v3.1q.8-.8 1.9-.8.7 0 1.2.2.5.3.7.8.2.5.2 1.4v4h-1v-4q0-.8-.3-1.2-.4-.3-1-.3l-1 .2q-.3.2-.5.7-.2.4-.2 1.1v3.4h-1Zm11 0v-1q-.7 1.2-2 1.2l-1-.2-.7-.6-.3-.8v-4.8h1v4.5q.2.5.5.7.3.3.8.3t.9-.3q.4-.2.6-.7l.1-1.2v-3.3h1.1v6.2h-1Zm5.3-1 .1 1h-1.7l-.4-.6-.1-1.2v-3.6h-.8v-.8h.8v-1.5l1-.7v2.2h1v.8h-1v4.2l.2.2.4.1h.5Zm.1 1v-.8l4-4.6h-3.7v-.8h5v.7l-3.3 4-.7.7h4.3v.8H163ZM72.6 223v-6.2h1v.9q.2-.5.7-.8.5-.2 1.1-.2.7 0 1.1.2.5.3.7.8.7-1 1.9-1 1 0 1.4.5.5.5.5 1.5v4.3h-1v-4q0-.5-.2-.8 0-.3-.3-.5l-.7-.1q-.6 0-1 .4-.5.4-.5 1.4v3.6h-1v-4q0-.7-.3-1-.2-.4-.8-.4-.5 0-.9.2-.3.2-.5.7-.2.4-.2 1.3v3.2h-1Zm15.2-2 1.1.1q-.2 1-1 1.5-.6.6-1.7.6-1.4 0-2.2-.9-.8-.8-.8-2.3 0-1.6.8-2.5.8-.8 2.1-.8t2 .8q.9.8.9 2.4v.3h-4.7q0 1 .6 1.5.5.6 1.3.6.6 0 1-.3t.6-1Zm-3.4-1.7h3.4q0-.8-.3-1.2-.6-.6-1.4-.6-.7 0-1.2.5t-.5 1.3Zm6.2 3.7v-6.2h1v.9q.6-1 1.9-1 .6 0 1 .2l.8.5.3.8v4.8h-1v-3.8l-.1-1-.5-.4q-.3-.2-.7-.2-.7 0-1.2.4t-.5 1.6v3.4h-1Zm9.3-1 .1 1h-1.7l-.4-.6-.1-1.2v-3.6H97v-.8h.8V215l1-.6v2.2h1v.8h-1v4.2l.2.2.4.1h.5Zm.7-6.4v-1.2h1v1.2h-1Zm0 7.4v-6.2h1v6.2h-1Zm2.6-3.1q0-1.7 1-2.6.7-.6 1.9-.6 1.3 0 2 .8 1 .8 1 2.3 0 1.2-.4 1.9t-1.1 1q-.7.5-1.5.5-1.3 0-2.1-.9-.8-.8-.8-2.4Zm1 0q0 1.2.6 1.8.5.6 1.3.6t1.3-.6q.5-.6.5-1.8 0-1.2-.5-1.8-.5-.6-1.3-.6t-1.3.6q-.5.6-.5 1.8Zm6.4 3.1v-6.2h1v.9q.6-1 1.9-1 .6 0 1 .2l.8.5.3.8v4.8h-1v-3.8l-.1-1-.5-.4q-.3-.2-.7-.2-.7 0-1.2.4t-.5 1.6v3.4h-1Zm6.6-1.8 1-.2q0 .6.5 1 .4.3 1.1.3.7 0 1-.3.4-.3.4-.7 0-.4-.3-.6l-1-.3-1.7-.5q-.4-.2-.6-.6-.3-.4-.3-.9 0-.4.2-.7.2-.4.5-.6l.7-.3 1-.1 1.2.2q.6.2.8.5.3.4.4 1l-1 .1q-.1-.4-.5-.7-.3-.3-1-.3-.6 0-1 .3-.3.2-.3.5l.2.4q.1.2.4.3l1 .2 1.5.5q.4.2.7.6.2.3.2.9 0 .5-.3 1-.3.4-.9.7-.6.3-1.3.3-1.2 0-1.8-.5-.7-.6-.8-1.5Zm10.3 1.8v-8.6h1.1v8.6h-1Zm7.3-2 1.1.1q-.2 1-1 1.5-.6.6-1.7.6-1.4 0-2.2-.9-.8-.8-.8-2.3 0-1.6.8-2.5.8-.8 2.1-.8t2 .8q.9.8.9 2.4v.3h-4.7q0 1 .6 1.5.5.6 1.3.6.6 0 1-.3t.6-1Zm-3.4-1.7h3.4q0-.8-.3-1.2-.6-.6-1.4-.6-.7 0-1.2.5t-.5 1.3Zm1.1-3.3.8-1.6h1.4l-1.3 1.6h-.9Zm4.9 7.5 1 .2q0 .5.4.7.4.3 1 .3.8 0 1.2-.3.4-.3.5-.8V222q-.6.8-1.6.8-1.3 0-2-1-.7-.8-.7-2.1 0-1 .3-1.7t1-1.1q.5-.4 1.4-.4 1 0 1.8.8v-.7h1v5.4q0 1.4-.3 2-.3.6-1 1-.6.3-1.6.3t-1.8-.5q-.6-.5-.6-1.5Zm.9-3.7q0 1.2.4 1.8.5.5 1.3.5.7 0 1.2-.5.5-.6.5-1.8 0-1.1-.5-1.7-.5-.6-1.3-.6-.7 0-1.2.6-.4.6-.4 1.7Zm10.3 2.4-1.1.8q-.5.2-1.2.2-1 0-1.5-.5-.6-.5-.6-1.3 0-.5.2-.9l.6-.6.7-.3 1-.2 1.8-.3v-.3q0-.7-.2-1-.5-.3-1.3-.3-.7 0-1 .3-.4.2-.6.9l-1-.1q.1-.7.5-1.1.3-.4.9-.6.6-.2 1.4-.2l1.3.1q.5.2.7.5.3.3.4.7v4.3l.4.7h-1.2l-.2-.8Zm0-2.3-1.8.4q-.6 0-.9.2l-.4.3-.2.5q0 .5.4.7.3.3.9.3.6 0 1-.2.6-.3.8-.8l.1-1v-.4Zm3 3.1v-8.6h1v8.6h-1Zm7.2-2 1.1.1q-.2 1-1 1.5-.6.6-1.7.6-1.4 0-2.2-.9-.8-.8-.8-2.3 0-1.6.8-2.5.8-.8 2.1-.8t2 .8q.9.8.9 2.4v.3h-4.7q0 1 .6 1.5.5.6 1.3.6.6 0 1-.3t.6-1Zm-3.4-1.7h3.4q0-.8-.3-1.2-.6-.6-1.4-.6-.7 0-1.2.5t-.5 1.3Zm5.8 1.9 1-.2q0 .6.5 1 .4.3 1.1.3.7 0 1-.3.4-.3.4-.7 0-.4-.3-.6l-1-.3-1.7-.5q-.4-.2-.6-.6-.3-.4-.3-.9 0-.4.2-.7.2-.4.5-.6l.7-.3 1-.1 1.2.2q.6.2.8.5.3.4.4 1l-1 .1q-.1-.4-.5-.7-.3-.3-1-.3-.6 0-1 .3-.3.2-.3.5l.2.4q.1.2.4.3l1 .2 1.5.5q.4.2.7.6.2.3.2.9 0 .5-.3 1-.3.4-.9.7-.6.3-1.3.3-1.2 0-1.8-.5-.7-.6-.8-1.5Zm-55.6 22.5V235h1v.8q.3-.5.7-.7.4-.2 1-.2.8 0 1.5.4.6.4.9 1.1.3.8.3 1.7 0 1-.4 1.7-.3.7-1 1.1-.6.5-1.3.5-.6 0-1-.3l-.7-.5v3h-1Zm1-5.5q0 1.2.4 1.8.5.6 1.2.6t1.2-.6q.5-.6.5-1.9 0-1.1-.5-1.7-.5-.6-1.2-.6-.6 0-1.2.6t-.5 1.8Zm6 3.1V235h1v1q.3-.7.6-1l.7-.1q.5 0 1 .3l-.3 1q-.4-.3-.8-.3l-.6.2-.4.6-.2 1.2v3.3h-1Zm4-7.4v-1.2h1v1.2h-1Zm0 7.4V235h1v6.2h-1Zm4.7 0-2.4-6.2h1.1l1.4 3.7.4 1.3.4-1.2 1.4-3.8h1l-2.3 6.2h-1Zm7.3-.8-1.1.7q-.5.3-1.2.3-1 0-1.5-.5-.6-.5-.6-1.3 0-.5.2-.9l.6-.6.7-.3 1-.2 1.8-.3v-.3q0-.7-.2-1-.5-.3-1.3-.3-.7 0-1 .3-.4.2-.6.9l-1-.1q.1-.7.5-1.1.3-.4.9-.6.6-.2 1.4-.2l1.3.1q.5.2.7.5.3.3.4.7v4.3l.4.7h-1.2l-.2-.8Zm0-2.3-1.8.4q-.6 0-.9.2l-.4.3-.2.5q0 .5.4.7.3.3.9.3.6 0 1-.2.6-.3.8-.8l.1-1v-.4Zm7 .8 1 .2q-.1 1-.8 1.6-.7.7-1.7.7-1.3 0-2-.9-.8-.8-.8-2.4 0-1 .3-1.7.3-.8 1-1.2.7-.3 1.5-.3 1 0 1.6.5.7.5.9 1.4l-1 .2q-.2-.6-.6-1-.3-.3-.9-.3-.8 0-1.3.6t-.5 1.8q0 1.3.5 1.8.5.6 1.3.6.6 0 1-.4t.5-1.2Zm2-5v-1.3h1v1.2h-1Zm0 7.3V235h1v6.2h-1Zm7 0v-.8q-.6 1-1.7 1-.8 0-1.4-.5-.6-.4-1-1.1-.3-.7-.3-1.7t.3-1.7q.3-.8 1-1.1.6-.4 1.3-.4.6 0 1 .2.5.2.7.6v-3h1.1v8.5h-1Zm-3.3-3.1q0 1.2.5 1.8.5.6 1.2.6t1.1-.6q.5-.5.5-1.7 0-1.3-.5-1.9-.5-.6-1.2-.6t-1.1.6q-.5.6-.5 1.8Zm10.3 2.3-1.1.7q-.5.3-1.2.3-1 0-1.5-.5-.6-.5-.6-1.3 0-.5.2-.9l.6-.6.7-.3 1-.2 1.8-.3v-.3q0-.7-.2-1-.5-.3-1.3-.3-.7 0-1 .3-.4.2-.6.9l-1-.1q.1-.7.5-1.1.3-.4.9-.6.6-.2 1.4-.2l1.3.1q.5.2.7.5.3.3.4.7v4.3l.4.7h-1.2l-.2-.8Zm0-2.3-1.8.4q-.6 0-.9.2l-.4.3-.2.5q0 .5.4.7.3.3.9.3.6 0 1-.2.6-.3.8-.8l.1-1v-.4Zm7 3.1v-.8q-.6 1-1.7 1-.8 0-1.4-.5-.6-.4-1-1.1-.3-.7-.3-1.7t.3-1.7q.3-.8 1-1.1.6-.4 1.3-.4.6 0 1 .2.5.2.7.6v-3h1.1v8.5h-1Zm-3.3-3.1q0 1.2.5 1.8.5.6 1.2.6t1.1-.6q.5-.5.5-1.7 0-1.3-.5-1.9-.5-.6-1.2-.6t-1.1.6q-.5.6-.5 1.8Zm10.5 1.1 1.1.1q-.2 1-1 1.5-.6.6-1.7.6-1.4 0-2.2-.9-.8-.8-.8-2.4 0-1.5.8-2.4.8-.8 2.1-.8t2 .8q.9.8.9 2.4v.3h-4.7q0 1 .6 1.5.5.6 1.3.6.6 0 1-.3t.6-1Zm-3.4-1.7h3.4q0-.8-.3-1.2-.6-.6-1.4-.6-.7 0-1.2.5t-.5 1.3Zm-48.8 21.2-1.1.7q-.5.2-1.2.2-1 0-1.5-.5-.6-.5-.6-1.2 0-.5.2-.9t.6-.6l.7-.3 1-.2 1.8-.3v-.3q0-.7-.2-1-.5-.3-1.3-.3-.7 0-1 .3-.4.2-.6.9l-1-.1q.1-.7.5-1.1.3-.4.9-.6.6-.3 1.4-.3.8 0 1.3.2t.7.5q.3.3.4.7v4.3l.4.7h-1.2l-.2-.8Zm0-2.3-1.8.4q-.6 0-.9.2l-.4.3-.2.5q0 .5.4.7.3.3.9.3.6 0 1-.2.6-.3.8-.8l.1-1v-.4Zm4.7 3.1-2.4-6.2h1.1l1.4 3.7.4 1.3.4-1.2 1.4-3.8h1l-2.3 6.2h-1Zm3.3-7.4V251h1v1.2h-1Zm0 7.4v-6.2h1v6.2h-1Zm2.6-1.9 1-.1q0 .6.5 1 .4.3 1.1.3.7 0 1-.3.4-.3.4-.7 0-.4-.3-.6l-1-.3-1.7-.5-.6-.6q-.3-.4-.3-.9 0-.4.2-.7.2-.4.5-.6l.7-.3q.4-.2 1-.2t1.2.3q.6.2.8.5.3.4.4 1l-1 .1q-.1-.4-.5-.7-.3-.3-1-.3-.6 0-1 .3-.3.2-.3.5l.2.4q.1.2.4.3l1 .2 1.5.5q.4.2.7.6.2.3.2.9 0 .5-.3 1-.3.4-.9.7-.6.2-1.3.2-1.2 0-1.8-.5-.7-.5-.8-1.5Zm7-1.2q0-1.7 1-2.6.7-.7 1.9-.7 1.3 0 2 .9 1 .8 1 2.3 0 1.2-.4 1.9t-1.1 1q-.7.4-1.5.4-1.3 0-2.1-.8t-.8-2.4Zm1 0q0 1.2.6 1.8.5.6 1.3.6t1.3-.6q.5-.6.5-1.8 0-1.2-.5-1.8-.5-.6-1.3-.6t-1.3.6q-.5.6-.5 1.8Zm9.3 3.1V251h1.1v8.6h-1Zm7.3-2 1.1.1q-.2 1-1 1.5t-1.7.5q-1.4 0-2.2-.8-.8-.8-.8-2.4 0-1.5.8-2.4.8-.9 2.1-.9t2 .9q.9.8.9 2.4v.3h-4.7q0 1 .6 1.5.5.6 1.3.6.6 0 1-.3t.6-1Zm-3.4-1.7h3.4q0-.8-.3-1.2-.6-.6-1.4-.6-.7 0-1.2.5t-.5 1.3Zm6 4.2 1 .2q0 .4.4.7.4.3 1 .3.8 0 1.2-.3.4-.3.5-.8v-1.4q-.6.8-1.6.8-1.3 0-2-1-.7-.9-.7-2.1 0-1 .3-1.7t1-1.1q.5-.5 1.4-.5 1 0 1.8 1v-.8h1v5.4q0 1.4-.3 2-.3.6-1 1-.6.3-1.6.3t-1.8-.5q-.6-.5-.6-1.5Zm.9-3.7q0 1.2.4 1.8.5.5 1.3.5.7 0 1.2-.5.5-.6.5-1.8 0-1.1-.5-1.7-.5-.6-1.3-.6-.7 0-1.2.6-.4.6-.4 1.7Zm10.3 2.4-1.1.7q-.5.2-1.2.2-1 0-1.5-.5-.6-.5-.6-1.2 0-.5.2-.9t.6-.6l.7-.3 1-.2 1.8-.3v-.3q0-.7-.2-1-.5-.3-1.3-.3-.7 0-1 .3-.4.2-.6.9l-1-.1q.1-.7.5-1.1.3-.4.9-.6.6-.3 1.4-.3.8 0 1.3.2t.7.5q.3.3.4.7v4.3l.4.7h-1.2l-.2-.8Zm0-2.3-1.8.4q-.6 0-.9.2l-.4.3-.2.5q0 .5.4.7.3.3.9.3.6 0 1-.2.6-.3.8-.8l.1-1v-.4Zm3 3.1V251h1v8.6h-1Zm-62 20.7v-8.6h1v.8q.3-.5.7-.7.4-.3 1-.3.8 0 1.5.5.6.4.9 1.1.3.8.3 1.6 0 1-.4 1.8-.3.7-1 1.1-.6.4-1.3.4-.6 0-1-.2l-.7-.5v3h-1Zm1-5.5q0 1.2.4 1.8.5.6 1.2.6t1.2-.6q.5-.6.5-1.9 0-1.2-.5-1.7-.5-.6-1.2-.6-.6 0-1.2.6t-.5 1.8Zm6 3.1v-6.2h1v1q.3-.7.6-1 .3-.2.7-.2.5 0 1 .4l-.3 1q-.4-.3-.8-.3l-.6.2q-.3.2-.4.6l-.2 1.2v3.3h-1Zm4 2.4-.2-1 .6.1.6-.1.3-.3.4-.8v-.3l-2.3-6.2h1.1l1.3 3.6.5 1.4.4-1.4 1.3-3.6h1l-2.3 6.3-.6 1.4-.6.8q-.4.2-.9.2l-.7-.1Zm6.1-2.4-1.9-6.2h1.1l1 3.6.4 1.3.3-1.3 1-3.6h1l1 3.6.3 1.2.4-1.2 1-3.6h1l-1.9 6.2h-1l-1-3.7-.3-1-1.3 4.7h-1Zm12-.8-1.2.7q-.5.2-1.2.2-1 0-1.5-.5-.6-.5-.6-1.2 0-.5.2-.9t.6-.6l.7-.3 1-.2q1.2-.1 1.8-.4v-.2q0-.7-.2-1-.5-.3-1.3-.3-.7 0-1 .3-.4.2-.6.9l-1-.2q.1-.6.5-1 .3-.4.9-.6.6-.3 1.4-.3.8 0 1.3.2t.7.5q.3.3.4.7v4.3l.4.7h-1.2l-.2-.8Zm-.2-2.3-1.7.4q-.6 0-.9.2l-.4.3-.2.5q0 .5.4.7.3.3.9.3.6 0 1-.3.6-.2.8-.7l.1-1v-.4Zm5.4 2.2.1.9h-1.7l-.4-.6-.1-1.2v-3.6h-.8v-.8h.8V270l1-.6v2.2h1v.8h-1v4.2l.2.2.4.1h.5Zm.7.9v-6.2h1v.9q.6-1 1.9-1l1 .1q.5.2.8.6l.3.7v4.9h-1V274l-.1-1q-.2-.3-.5-.4-.3-.3-.7-.3-.7 0-1.2.5-.5.4-.5 1.6v3.4h-1Zm6.6-3.1q0-1.7 1-2.6.7-.7 1.9-.7 1.3 0 2 .9 1 .8 1 2.3 0 1.2-.4 1.9t-1.1 1q-.7.4-1.5.4-1.3 0-2.1-.8t-.8-2.4Zm1 0q0 1.2.6 1.8.5.6 1.3.6t1.3-.6q.5-.6.5-1.8 0-1.2-.5-1.8-.5-.6-1.3-.6t-1.3.6q-.5.6-.5 1.8Zm6 1.2 1-.1q0 .6.5 1 .4.3 1.1.3.7 0 1-.3.4-.3.4-.7 0-.4-.3-.6l-1-.3-1.7-.5-.6-.6q-.3-.4-.3-.9 0-.4.2-.7.2-.4.5-.6l.7-.3q.4-.2 1-.2t1.2.3q.6.2.8.5.3.4.4 1l-1 .1q-.1-.5-.5-.7-.3-.3-1-.3-.6 0-1 .3-.3.2-.3.5l.2.4.4.3 1 .2 1.5.5q.4.2.7.6.2.3.2.9 0 .5-.3 1-.3.4-.9.7-.6.2-1.3.2-1.2 0-1.8-.5-.7-.5-.8-1.5Zm1.9-5.1.8-1.6h1.4l-1.3 1.6h-.9Zm9.5 4.7 1 .2q-.1 1-.8 1.6-.7.6-1.7.6-1.3 0-2-.8-.8-.8-.8-2.4 0-1 .3-1.7.3-.8 1-1.2.7-.4 1.5-.4 1 0 1.6.6.7.5.9 1.4l-1 .2q-.2-.7-.6-1-.3-.3-.9-.3-.8 0-1.3.6-.5.5-.5 1.8 0 1.2.5 1.8.5.6 1.3.6.6 0 1-.4t.5-1.2Zm2-5v-1.3h1v1.2h-1Zm0 7.3v-6.2h1v6.2h-1Zm-22.2 18.8 1 .2q0 .4.4.7.4.3 1 .3.8 0 1.2-.3.4-.3.5-.9v-1.3q-.6.8-1.6.8-1.3 0-2-1-.7-.9-.7-2.1 0-1 .3-1.7t1-1.2q.5-.4 1.4-.4 1 0 1.8 1v-.8h1v5.4q0 1.4-.3 2-.3.6-1 1-.6.3-1.6.3t-1.8-.5q-.6-.5-.6-1.5Zm.9-3.7q0 1.2.4 1.8.5.5 1.3.5.7 0 1.2-.5.5-.6.5-1.8 0-1.1-.5-1.7-.5-.6-1.3-.6-.7 0-1.2.6-.4.6-.4 1.7Zm10.3 3.2v-.8q-.6 1-1.7 1-.8 0-1.4-.5-.6-.4-1-1.1-.3-.8-.3-1.7 0-1 .3-1.7.3-.8 1-1.2.6-.4 1.3-.4.6 0 1 .3.5.2.7.6v-3h1.1v8.5h-1Zm-3.3-3.1q0 1.2.5 1.8.5.6 1.2.6t1.1-.6q.5-.6.5-1.7 0-1.3-.5-1.9-.5-.6-1.2-.6t-1.1.6q-.5.6-.5 1.8Zm6.3 5.5V290h1v.8q.3-.5.7-.7.4-.3 1-.3.8 0 1.5.4.6.5.9 1.2.3.8.3 1.6 0 1-.4 1.8-.3.7-1 1.1-.6.4-1.3.4-.6 0-1-.2l-.7-.5v3h-1Zm1-5.5q0 1.2.4 1.8.5.6 1.2.6t1.2-.6q.5-.6.5-1.9 0-1.2-.5-1.7-.5-.6-1.2-.6-.6 0-1.2.6t-.5 1.8Zm6 3.1V290h1v1q.3-.7.6-1 .3-.2.7-.2.5 0 1 .4l-.3 1q-.4-.3-.8-.3l-.6.2q-.3.2-.4.6l-.2 1.2v3.3h-1Zm.7 21.1q0-1.5.3-2.4.3-1 1-1.5.5-.5 1.5-.5.7 0 1.2.3t.9.8q.3.5.5 1.3.2.7.2 2 0 1.5-.3 2.5-.3.9-1 1.4-.6.5-1.5.5-1.3 0-2-.9-.8-1-.8-3.5Zm1 0q0 2.1.6 2.8.5.7 1.2.7t1.2-.7q.5-.7.5-2.8 0-2.1-.5-2.8-.5-.7-1.2-.7-.8 0-1.2.6-.5.8-.5 3Zm6.2-2.3q0-.9.4-1.5.5-.7 1.4-.7.8 0 1.3.6.6.6.6 1.7 0 1-.6 1.7-.5.5-1.3.5t-1.3-.5q-.5-.6-.5-1.8Zm1.8-1.5q-.4 0-.6.4-.3.3-.3 1.2 0 .9.3 1.2.2.3.6.3.4 0 .7-.3.2-.4.2-1.3 0-.8-.2-1.1-.3-.4-.7-.4Zm0 8.4 4.7-9h.9l-4.7 9h-.9Zm3.7-2.4q0-.9.5-1.5.5-.7 1.3-.7.9 0 1.4.6.5.6.5 1.7 0 1-.5 1.7-.6.6-1.4.6-.7 0-1.3-.6-.5-.6-.5-1.8Zm1.9-1.5q-.4 0-.7.4-.2.3-.2 1.2 0 .9.2 1.2.3.3.7.3.4 0 .6-.3t.3-1.3q0-.8-.3-1.1-.2-.4-.6-.4Zm119.8 3.6h-1v-6.8l-1.1.8-1.1.5v-1q.9-.4 1.5-1 .7-.6 1-1.2h.7v8.6Zm3-4.3q0-1.5.3-2.4.3-1 1-1.5.5-.5 1.5-.5.7 0 1.2.3t.9.8q.3.5.5 1.3.2.7.2 2 0 1.5-.3 2.5-.3.9-1 1.4-.6.5-1.5.5-1.2 0-2-.9-.8-1-.8-3.5Zm1 0q0 2.1.6 2.8.5.7 1.2.7t1.2-.7q.5-.7.5-2.8 0-2.1-.5-2.8-.5-.7-1.2-.7t-1.2.6q-.5.8-.5 3Zm6.2-2.3q0-.9.4-1.5.5-.7 1.4-.7.8 0 1.3.6.6.6.6 1.7 0 1-.6 1.7-.5.5-1.3.5t-1.3-.5q-.5-.6-.5-1.8Zm1.8-1.5q-.4 0-.6.4-.3.3-.3 1.2 0 .9.3 1.2.2.3.6.3.4 0 .7-.3.2-.4.2-1.3 0-.8-.2-1.1-.3-.4-.7-.4Zm0 8.4 4.7-9h.9l-4.7 9h-.9Zm3.7-2.4q0-.9.5-1.5.5-.7 1.4-.7.8 0 1.3.6t.5 1.7q0 1-.5 1.7-.6.6-1.3.6-.8 0-1.3-.6-.6-.6-.6-1.8Zm1.9-1.5q-.4 0-.7.4-.2.3-.2 1.2 0 .9.2 1.2.3.3.7.3.4 0 .6-.3t.3-1.3q0-.8-.3-1.1-.2-.4-.6-.4Zm117.8 2.5v1h-5.6v-.7q.3-.6.8-1.1l1.4-1.3q1.4-1.2 1.8-1.8.5-.7.5-1.3 0-.6-.4-1-.5-.5-1.2-.5t-1.2.5q-.4.4-.5 1.2h-1q0-1.3.8-2 .7-.6 2-.6 1.2 0 2 .7.6.7.6 1.7l-.2 1q-.2.5-.7 1l-1.6 1.6-1.2 1-.5.6h4.2Zm1.5-3.2q0-1.5.3-2.4.3-1 1-1.5.6-.5 1.5-.5.7 0 1.2.3t.9.8q.3.5.5 1.3.2.7.2 2 0 1.5-.3 2.5-.3.9-1 1.4-.6.5-1.5.5-1.2 0-2-.9-.8-1-.8-3.5Zm1 0q0 2.1.6 2.8.5.7 1.2.7t1.2-.7q.5-.7.5-2.8 0-2.1-.5-2.8-.5-.7-1.2-.7t-1.2.6q-.5.8-.5 3Zm6.2-2.3q0-.9.5-1.5.4-.7 1.3-.7.8 0 1.3.6.6.6.6 1.7 0 1-.6 1.7-.5.5-1.3.5t-1.3-.5q-.5-.6-.5-1.8Zm1.8-1.5q-.4 0-.6.4-.3.3-.3 1.2 0 .9.3 1.2.2.3.6.3.4 0 .7-.3.2-.4.2-1.3 0-.8-.2-1.1-.3-.4-.7-.4Zm0 8.4 4.7-9h.9l-4.7 9h-.9Zm3.7-2.4q0-.9.5-1.5.5-.7 1.4-.7.8 0 1.3.6t.5 1.7q0 1-.5 1.7-.5.6-1.3.6t-1.3-.6q-.6-.6-.6-1.8Zm1.9-1.5q-.4 0-.7.4-.2.3-.2 1.2 0 .9.2 1.2.3.3.7.3t.6-.3q.3-.3.3-1.3 0-.8-.3-1.1-.2-.4-.6-.4Zm112.3 1.3 1-.2q.2 1 .7 1.3.4.4 1 .4.8 0 1.3-.5t.5-1.3q0-.7-.5-1.2-.4-.4-1.2-.4h-.7l.1-.8h.2q.6 0 1.2-.4.5-.3.5-1 0-.6-.4-1t-1-.4q-.6 0-1 .4t-.5 1.1l-1-.2q.1-1 .8-1.6.7-.6 1.7-.6.7 0 1.3.3.6.3.9.9.3.5.3 1 0 .6-.3 1-.3.5-.9.8.8.2 1.2.7.4.6.4 1.4 0 1.1-.8 2-.8.7-2 .7t-2-.7q-.7-.7-.8-1.7Zm7-2q0-1.5.3-2.4.3-1 1-1.5.6-.5 1.5-.5.7 0 1.2.3t.9.8q.3.5.5 1.3.2.7.2 2 0 1.5-.3 2.5-.3.9-1 1.4-.6.5-1.5.5-1.2 0-2-.9-.8-1-.8-3.5Zm1 0q0 2.1.6 2.8.5.7 1.2.7t1.2-.7q.5-.7.5-2.8 0-2.1-.5-2.8-.5-.7-1.2-.7t-1.2.6q-.5.8-.5 3Zm6.2-2.3q0-.9.5-1.5.4-.7 1.3-.7.8 0 1.3.6.6.6.6 1.7 0 1-.6 1.7-.5.5-1.3.5t-1.3-.5q-.5-.6-.5-1.8Zm1.8-1.5q-.4 0-.6.4-.3.3-.3 1.2 0 .9.3 1.2.2.3.6.3.4 0 .7-.3.3-.4.3-1.3 0-.8-.3-1.1-.3-.4-.7-.4Zm0 8.4 4.7-9h.9l-4.7 9h-.9Zm3.7-2.4q0-.9.5-1.5.5-.7 1.4-.7.8 0 1.3.6t.5 1.7q0 1-.5 1.7-.5.6-1.3.6t-1.3-.6q-.5-.6-.5-1.8Zm1.9-1.5q-.4 0-.7.4-.2.3-.2 1.2 0 .9.2 1.2.3.3.7.3.4 0 .7-.3t.2-1.3q0-.8-.3-1.1-.2-.4-.6-.4Z"/><path fill="#a8caba" d="M231 79a1 1 0 0 1 1-1h10a1 1 0 0 1 1 1v10a1 1 0 0 1-1 1h-10a1 1 0 0 1-1-1Z"/><path fill="#838689" d="M255.8 88v-.8q-.6 1-1.7 1-.8 0-1.4-.5-.6-.4-1-1.1-.3-.8-.3-1.7 0-1 .3-1.7.3-.8 1-1.2.6-.4 1.3-.4.6 0 1 .3.5.2.8.6v-3h1V88h-1Zm-3.3-3.1q0 1.2.5 1.8.5.6 1.2.6t1.2-.6q.4-.6.4-1.7 0-1.3-.5-1.9-.4-.6-1.2-.6-.7 0-1.1.6-.5.6-.5 1.8ZM263 86l1.1.1q-.2 1-1 1.5-.6.5-1.7.5-1.4 0-2.2-.8-.8-.8-.8-2.4 0-1.5.9-2.4.8-.9 2-.9 1.3 0 2 .9.9.8.9 2.4v.3h-4.7q0 1 .6 1.5.5.6 1.3.6.6 0 1-.3t.6-1Zm-3.4-1.7h3.5q-.1-.8-.4-1.2-.5-.6-1.3-.6t-1.3.5q-.5.5-.5 1.3Zm5.8 1.8 1-.1q.1.6.5 1 .4.3 1.1.3.8 0 1-.3.5-.3.5-.7 0-.4-.4-.6l-1-.3-1.6-.5-.7-.6q-.3-.4-.3-.9 0-.4.2-.7.2-.4.6-.6l.6-.3q.4-.2 1-.2.7 0 1.2.3.6.2.8.5.3.4.4 1l-1 .1q-.1-.5-.4-.7-.4-.3-1-.3-.7 0-1 .3-.3.2-.3.5v.4l.5.3 1 .2 1.5.5q.4.2.7.6.2.3.2.9 0 .5-.3 1-.3.4-.9.7-.5.2-1.3.2-1.2 0-1.8-.5-.7-.5-.8-1.5Zm7.4 1.9v-8.6h1v5l2.5-2.6h1.4l-2.4 2.3L278 88h-1.3l-2.1-3.2-.7.7V88h-1.1Zm8.3-1 .2 1h-1.8l-.4-.6-.1-1.2v-3.6h-.8v-.8h.8v-1.6l1-.6v2.2h1v.8h-1v4.2l.3.2h.8Zm.3-2.1q0-1.7 1-2.6.8-.7 2-.7t2 .9q.8.8.8 2.3 0 1.2-.3 1.9-.4.7-1 1-.8.4-1.6.4-1.3 0-2.1-.8t-.8-2.4Zm1 0q0 1.2.6 1.8.5.6 1.3.6t1.3-.6q.5-.6.5-1.8 0-1.2-.5-1.8-.5-.6-1.3-.6t-1.3.6q-.5.6-.5 1.8Zm6.4 5.5v-8.6h1v.8q.3-.5.7-.7.5-.3 1-.3.9 0 1.5.4.6.5.9 1.2.3.8.3 1.6 0 1-.4 1.8-.3.7-1 1.1-.6.4-1.3.4l-1-.2-.7-.5v3h-1Zm1-5.5q0 1.2.4 1.8.5.6 1.2.6t1.2-.6q.5-.6.5-1.9 0-1.2-.5-1.7-.5-.6-1.1-.6-.7 0-1.2.6t-.5 1.8Z"/><path fill="#62718b" d="M311 79a1 1 0 0 1 1-1h10a1 1 0 0 1 1 1v10a1 1 0 0 1-1 1h-10a1 1 0 0 1-1-1Z"/><path fill="#838689" d="M331.8 88v-6.2h1v.9q.2-.5.7-.8.5-.3 1.1-.3.7 0 1.1.3.5.3.7.8.7-1 1.9-1 1 0 1.4.5.5.5.5 1.5V88h-1v-4l-.1-.8q-.1-.3-.4-.5l-.6-.2q-.7 0-1.1.5-.5.4-.5 1.4V88h-1v-4q0-.7-.3-1-.2-.5-.8-.5-.5 0-.8.3-.4.2-.6.7-.2.4-.2 1.3V88h-1Zm10.6-3.1q0-1.7 1-2.6.8-.7 2-.7t2 .9q.8.8.8 2.3 0 1.2-.3 1.9-.4.7-1 1-.8.4-1.6.4-1.3 0-2.1-.8t-.8-2.4Zm1 0q0 1.2.6 1.8.5.6 1.3.6t1.3-.6q.5-.6.5-1.8 0-1.2-.5-1.8-.5-.6-1.3-.6t-1.3.6q-.5.6-.5 1.8Zm7.4 3.1h-1v-8.6h1v3q.7-.8 1.7-.8.6 0 1.1.3.5.2.9.6l.5 1q.2.6.2 1.3 0 1.6-.8 2.5-.8.8-1.9.8-1.1 0-1.7-.9v.8Zm0-3.2q0 1.2.3 1.7.5.8 1.3.8.7 0 1.2-.6t.5-1.8q0-1.2-.5-1.8-.5-.6-1.1-.6-.7 0-1.3.6-.4.6-.4 1.7Zm6-4.2v-1.2h1v1.2h-1Zm0 7.4v-6.2h1V88h-1Zm3 0v-8.6h1V88h-1Zm7.2-2 1.1.1q-.2 1-1 1.5-.6.5-1.7.5-1.4 0-2.2-.8-.8-.8-.8-2.4 0-1.5.9-2.4.8-.9 2-.9 1.3 0 2 .9.9.8.9 2.4v.3h-4.7q0 1 .6 1.5.5.6 1.3.6.6 0 1-.3t.6-1Zm-3.4-1.7h3.5q-.1-.8-.4-1.2-.5-.6-1.3-.6t-1.3.5q-.5.5-.5 1.3ZM214.3 61.6l-2.6-10h1.3l1.6 6.6.4 2 .4-1.8 2-6.8h1.5l1.5 5 .8 3.6q.1-1 .5-2.1l1.5-6.5h1.4l-2.8 10h-1.3l-2-7.6-.4-1.2-.3 1.2-2.1 7.6h-1.4Zm16-2.3 1.4.1q-.3 1.2-1.2 1.8-.8.6-2 .6-1.6 0-2.6-1-.9-1-.9-2.7 0-1.9 1-2.9t2.4-1q1.5 0 2.4 1 .9 1 .9 2.8v.3h-5.4q0 1.2.7 1.8.6.7 1.5.7.7 0 1.1-.4.5-.3.8-1.1Zm-4-2h4.1q0-1-.5-1.4-.5-.7-1.5-.7-.8 0-1.4.6-.6.6-.6 1.5Zm8.3 4.3h-1.2v-10h1.2v3.6q.8-1 2-1 .7 0 1.3.3.6.2 1 .7.4.5.6 1.2.2.7.2 1.5 0 1.9-1 2.9-.8 1-2.1 1t-2-1v.8Zm0-3.7q0 1.4.3 2 .6.9 1.6.9.8 0 1.4-.7.6-.7.6-2.1 0-1.4-.6-2.1-.6-.7-1.4-.7-.8 0-1.4.7-.6.7-.6 2Zm9.9 3.7 3.8-10h1.4l4.2 10h-1.6l-1.1-3H247l-1.1 3h-1.4Zm2.9-4h3.4l-1-2.9q-.6-1.2-.8-2l-.5 1.9-1.1 3Zm7 4v-10h1.2v10h-1.2Zm3 0v-7.2h1.1v1q.4-.5 1-.9.5-.3 1.2-.3.8 0 1.3.4.6.3.8.9.8-1.3 2.2-1.3 1 0 1.7.6.6.6.6 1.8v5H266V56l-.5-.5q-.3-.2-.8-.2-.7 0-1.2.5t-.5 1.6v4.2h-1.3V57q0-.8-.3-1.2-.3-.4-1-.4-.5 0-1 .3-.4.2-.6.8l-.1 1.5v3.7h-1.3Zm15.8-.9q-.7.6-1.4.9-.6.2-1.3.2-1.2 0-1.9-.6-.6-.6-.6-1.5l.2-1 .7-.7.9-.4 1-.2q1.6-.1 2.3-.4v-.3q0-.8-.4-1-.5-.5-1.4-.5-.8 0-1.3.3-.4.3-.6 1.1l-1.2-.2.5-1.2q.4-.5 1.1-.7.8-.3 1.7-.3 1 0 1.5.2.6.2.8.6.3.3.4.8l.1 1.1v3.9l.4.8h-1.3q-.2-.4-.2-.9ZM273 58q-.7.3-2 .5-.8 0-1.1.2-.3.1-.5.4l-.2.6q0 .5.4.8.4.3 1 .3.8 0 1.3-.3.6-.3.9-.8.2-.4.2-1.3V58Zm3.3 3.6v-7.2h1.1v1q.8-1.2 2.3-1.2.7 0 1.2.2.6.3.9.7l.4.9v5.6H281v-4.4l-.1-1.1q-.2-.4-.6-.6-.3-.2-.8-.2-.8 0-1.4.5-.5.5-.5 1.9v4h-1.3Zm12.8-.9q-.7.6-1.4.9-.6.2-1.3.2-1.2 0-1.9-.6-.6-.6-.6-1.5l.2-1 .7-.7.9-.4 1-.2q1.6-.1 2.3-.4v-.3q0-.8-.4-1-.5-.5-1.4-.5-.8 0-1.3.3-.4.3-.6 1.1l-1.2-.2.5-1.2q.4-.5 1.1-.7.8-.3 1.7-.3 1 0 1.5.2.6.2.8.6.3.3.4.8l.1 1.1v3.9l.4.8h-1.3q-.2-.4-.2-.9ZM289 58q-.7.3-2 .5-.8 0-1.1.2-.3.1-.5.4l-.2.6q0 .5.4.8.4.3 1 .3.8 0 1.3-.3.6-.3.9-.8.2-.4.2-1.3V58Zm8 1 1.3.1q-.2 1.3-1 2-.9.7-2 .7-1.5 0-2.4-1-1-1-1-2.8 0-1.1.4-2 .4-1 1.2-1.4.8-.4 1.8-.4 1.1 0 1.9.6.7.6 1 1.7l-1.2.2q-.2-.7-.6-1.1-.5-.4-1-.4-1 0-1.6.7-.6.7-.6 2 0 1.6.6 2.2.5.7 1.4.7.8 0 1.2-.4.5-.5.7-1.4Zm12.4 1.4v1.2H303l.2-.8q.2-.7.8-1.4l1.6-1.5q1.6-1.3 2.2-2 .6-.9.6-1.6 0-.7-.6-1.2-.5-.5-1.3-.5-.9 0-1.4.5-.6.5-.6 1.5l-1.2-.1q0-1.4 1-2.2.8-.7 2.2-.7 1.5 0 2.3.8.8.8.8 2 0 .6-.2 1.1l-.8 1.3-2 1.7-1.3 1.3-.6.6h5Zm1.6-3.7q0-1.8.3-2.9.4-1 1.1-1.6.8-.6 1.8-.6.9 0 1.5.3t1 1q.4.5.6 1.4.2.9.2 2.4 0 1.8-.3 2.8-.4 1.1-1.1 1.7-.7.6-1.9.6-1.4 0-2.2-1-1-1.3-1-4.1Zm1.2 0q0 2.5.6 3.3.6.8 1.4.8.9 0 1.5-.8.6-.9.6-3.3 0-2.5-.6-3.3-.6-.8-1.5-.8-.8 0-1.3.7-.7 1-.7 3.4Zm13.2 3.7v1.2H319l.2-.8q.2-.7.8-1.4l1.6-1.5q1.6-1.3 2.2-2 .6-.9.6-1.6 0-.7-.6-1.2-.5-.5-1.3-.5-.9 0-1.4.5-.6.5-.6 1.5l-1.2-.1q0-1.4 1-2.2.8-.7 2.2-.7 1.5 0 2.3.8.8.8.8 2 0 .6-.2 1.1l-.8 1.3-2 1.7-1.3 1.3-.6.6h5Zm8 0v1.2H327l.2-.8q.2-.7.8-1.4l1.6-1.5q1.6-1.3 2.2-2 .6-.9.6-1.6 0-.7-.6-1.2-.5-.5-1.3-.5-.9 0-1.4.5-.6.5-.6 1.5l-1.2-.1q0-1.4 1-2.2.8-.7 2.2-.7 1.5 0 2.3.8.8.8.8 2 0 .6-.2 1.1l-.8 1.3-2 1.7-1.3 1.3-.6.6h5Zm2.3-4.6v-1.4h1.4v1.4h-1.4Zm0 5.8v-1.4h1.4v1.4h-1.4Zm7.8 0v-10h3.8l1.5.1q.7.1 1.2.5.5.3.8 1 .3.6.3 1.3 0 1.3-.8 2.2-.8.9-3 .9H345v4h-1.3Zm1.3-5.2h2.6q1.3 0 1.8-.5.6-.5.6-1.3 0-.7-.4-1.1-.3-.5-.8-.6l-1.2-.1h-2.6v3.6Zm7.5 5.2v-7.2h1.1v1q.4-.7.8-1l.8-.2q.6 0 1.3.4l-.5 1.1q-.4-.2-.9-.2-.4 0-.7.2l-.5.7-.2 1.4v3.8h-1.2Zm5-8.6v-1.4h1.3V53h-1.3Zm0 8.6v-7.2h1.3v7.2h-1.3Zm5 0-2.7-7.2h1.3l1.5 4.3.5 1.5.5-1.4 1.6-4.4h1.2l-2.7 7.2h-1.2Zm9.8-.9q-.7.6-1.4.9-.6.2-1.3.2-1.2 0-1.9-.6-.6-.6-.6-1.5l.2-1 .7-.7.9-.4 1-.2q1.6-.1 2.3-.4v-.3q0-.8-.4-1-.5-.5-1.4-.5-.8 0-1.3.3-.4.3-.6 1.1l-1.2-.2.5-1.2q.4-.5 1.1-.7.8-.3 1.7-.3 1 0 1.5.2.6.2.8.6.3.3.4.8l.1 1.1v3.9l.4.8h-1.3q-.2-.4-.2-.9ZM372 58q-.7.3-2 .5-.8 0-1.1.2-.3.1-.5.4l-.2.6q0 .5.4.8.4.3 1 .3.8 0 1.3-.3.6-.3.9-.8.2-.4.2-1.3V58Zm8 1 1.3.1q-.2 1.3-1 2-.9.7-2 .7-1.5 0-2.4-1-1-1-1-2.8 0-1.1.4-2 .4-1 1.2-1.4.8-.4 1.8-.4 1.1 0 1.9.6.7.6 1 1.7l-1.2.2q-.2-.7-.6-1.1-.5-.4-1-.4-1 0-1.6.7-.6.7-.6 2 0 1.6.6 2.2.5.7 1.4.7.8 0 1.2-.4.5-.5.7-1.4Zm2.3 5.4-.2-1.1h1.4l.4-.4.4-1v-.3l-2.7-7.2h1.3l1.6 4.2.5 1.7.5-1.7 1.5-4.2h1.3l-2.8 7.4-.7 1.6q-.3.6-.7.9-.5.3-1 .3l-.8-.2Z"/><path fill="#1a2b49" d="M158.5 21.8h13.4v3.6h-4.5V36H163V25.4h-4.5v-3.6Zm14.2 9.2q0-2.4 1.6-4 1.6-1.5 4.3-1.5 3.1 0 4.7 1.8 1.3 1.5 1.3 3.6 0 2.4-1.6 4-1.5 1.5-4.3 1.5-2.5 0-4-1.3-2-1.6-2-4.1Zm4 0q0 1.4.6 2 .5.7 1.4.7.8 0 1.4-.7.5-.6.5-2t-.5-2q-.6-.7-1.4-.7-.9 0-1.4.6-.6.7-.6 2Zm9.5 9V25.9h3.7v1.5q.8-1 1.5-1.3.8-.5 1.9-.5 2 0 3.2 1.6 1.1 1.6 1.1 4 0 2.5-1.2 4-1.2 1.3-3.1 1.3-1 0-1.7-.3-.8-.4-1.4-1v5h-4Zm4-9q0 1.2.5 1.8.5.6 1.3.6.7 0 1.2-.6.5-.5.5-2 0-1.2-.5-1.8-.5-.6-1.2-.6-.8 0-1.3.6t-.5 2Zm16 9V25.9h3.7v1.5q.8-1 1.5-1.3.8-.5 1.9-.5 2 0 3.2 1.6 1.1 1.6 1.1 4 0 2.5-1.2 4-1.2 1.3-3.1 1.3-1 0-1.7-.3-.8-.4-1.4-1v5h-4Zm4-9q0 1.2.5 1.8.5.6 1.3.6.7 0 1.2-.6.5-.5.5-2 0-1.2-.5-1.8-.5-.6-1.2-.6-.8 0-1.3.6t-.5 2Zm9-5.2h3.8v1.7q.5-1.1 1-1.6.6-.4 1.5-.4t2 .6l-1.3 2.8q-.7-.3-1.1-.3-.8 0-1.3.7-.6.9-.6 3.3v3.5h-4V25.8Zm9.1-4h4v2.7h-4v-2.7Zm0 4h4V36h-4V25.8Zm5.7 0h4.2l2 6.5 2-6.5h4L242 36h-3.6L234 25.8Zm16.8 3.3-3.8-.4q.2-1 .6-1.5.4-.6 1.2-1l1.5-.5 2-.2q1.9 0 3 .2 1 .2 1.8.9.5.4.8 1.2.3.8.3 1.6V35l.5 1h-3.8l-.3-.6-.1-.6q-.8.7-1.6 1-1 .5-2.4.5-1.9 0-2.8-.9-1-.9-1-2.1 0-1.2.7-2 .7-.7 2.6-1l2.9-.7 1.4-.5q0-.7-.3-1-.3-.3-1-.3-1 0-1.6.3-.3.2-.6 1Zm3.5 2.1-1.7.5q-1.2.4-1.6.7-.3.3-.3.7 0 .5.3.8.4.3 1 .3.7 0 1.2-.4.6-.3.8-.7.3-.5.3-1.2v-.7Zm13.6.9 3.8.4q-.3 1.2-1 2-.7 1-1.8 1.4-1.1.5-2.9.5-1.6 0-2.7-.3t-1.9-1q-.8-.7-1.2-1.6-.5-1-.5-2.5 0-1.6.6-2.7l1-1.4q.8-.6 1.5-.9 1.2-.5 3-.5 2.5 0 3.8 1 1.4.8 2 2.6l-3.8.5q-.2-.7-.7-1-.4-.3-1.2-.3-1 0-1.6.7-.6.7-.6 2.1 0 1.3.6 2 .6.6 1.5.6.8 0 1.3-.4.6-.4.8-1.2Zm4.1-6.3h4.2l2.2 6.9 2-7h3.9L280.2 37q-.7 1.8-1.5 2.5-1 1-3.1 1l-2.7-.3-.3-2.8q.9.3 2 .3.6 0 1-.3.5-.3.8-1.2L272 25.8Zm20.3-4h4v14.3h-4V21.8Zm7 0h4v2.7h-4v-2.7Zm0 4h4V36h-4V25.8Zm6.9 0h3.7v1.6q.8-1 1.7-1.4.8-.5 2-.5 1.7 0 2.6 1 1 1 1 3v6.6h-4v-5.7q0-1-.4-1.3-.3-.5-1-.5t-1.2.6q-.4.5-.4 2v5h-4V25.7Zm13-4h4v7.4l3-3.4h5l-3.8 3.6 4 6.7h-4.5l-2.1-4.1-1.5 1.4v2.7h-4.1V21.8Zm20 0h4v7.4l3-3.4h5l-3.8 3.6 4 6.7h-4.5l-2.1-4.1-1.5 1.4v2.7h-4.1V21.8ZM363.7 32h-8q.2 1 .6 1.5.5.6 1.5.6.6 0 1-.3.4-.1.8-.6l3.9.3q-1 1.6-2.2 2.3-1.3.7-3.6.7-2 0-3.3-.6-1.1-.6-2-1.9-.7-1.2-.7-3 0-2.4 1.5-3.9 1.6-1.5 4.4-1.5 2.2 0 3.5.7 1.3.7 2 2 .6 1.2.6 3.3v.4Zm-4-1.9q-.1-1.1-.7-1.6-.5-.5-1.3-.5-1 0-1.5.7-.3.5-.4 1.4h3.9Zm4.3-4.2h4.2l2.2 6.9 2-7h3.9L372.2 37q-.7 1.8-1.5 2.5-1 1-3.1 1l-2.7-.3-.3-2.8q.9.3 2 .3.6 0 1-.3.5-.3.8-1.2L364 25.8Zm12 0h3.9l1.6 6.5 2.2-6.5h3.5l2.2 6.5 1.7-6.5h3.8L391.1 36h-3.5l-2.1-6.2-2 6.2h-3.6L376 25.8Zm19.7 5.2q0-2.4 1.6-4 1.6-1.5 4.3-1.5 3.1 0 4.7 1.8 1.3 1.5 1.3 3.6 0 2.4-1.6 4-1.5 1.5-4.3 1.5-2.5 0-4-1.3-2-1.6-2-4.1Zm4 0q0 1.4.6 2 .5.7 1.4.7.8 0 1.4-.7.5-.6.5-2t-.5-2q-.6-.7-1.4-.7-.9 0-1.4.6-.6.7-.6 2Zm9.5-5.2h3.8v1.7q.5-1.1 1-1.6.6-.4 1.5-.4t2 .6l-1.3 2.8q-.7-.3-1.1-.3-.8 0-1.3.7-.6.9-.6 3.3v3.5h-4V25.8Zm20-4v14.3h-3.8v-1.5q-.8 1-1.4 1.3-.9.5-2 .5-2 0-3.2-1.6-1.1-1.7-1.1-4 0-2.5 1.2-3.9 1.3-1.4 3.2-1.4.9 0 1.6.3.8.3 1.4 1v-5h4Zm-4 9.1q0-1.2-.6-1.8-.5-.6-1.3-.6-.7 0-1.2.6-.4.5-.4 2 0 1.2.5 1.8.4.6 1.2.6.7 0 1.2-.6t.5-2Zm5.3 2.4 4-.4q.2.7.6 1 .5.3 1.2.3.8 0 1.2-.3.4-.3.4-.7 0-.4-.5-.6-.3-.2-1.7-.5-2-.3-2.9-.6-.8-.3-1.3-1-.6-.8-.6-1.7 0-1 .6-1.8.6-.7 1.7-1.1 1-.4 2.8-.4 1.8 0 2.7.3.9.3 1.5.9.6.6 1 1.6l-3.8.4-.5-.8q-.4-.3-1.1-.3-.7 0-1 .3-.3.2-.3.5 0 .4.4.6.4.2 1.7.4 2 .2 3 .6.9.4 1.4 1.1.5.8.5 1.7 0 .9-.5 1.7-.6.9-1.7 1.4-1.2.5-3.2.5-2.9 0-4-.8-1.3-.8-1.6-2.3Z"/></svg>