<svg xmlns="http://www.w3.org/2000/svg" viewBox="0 0 432 225"><style>.st0{fill:#fff}</style><defs/><path d="M10.626 7.433h14.5v47.5c6-7.4 13.5-11 22.5-11 4.9 0 9.2 1.2 13.1 3.7 3.9 2.4 6.7 5.8 8.6 10.1 1.9 4.3 2.9 10.7 2.9 19.1v41.6h-14.6v-45.2c0-5.3-1.3-9.6-4-12.9-2.6-3.3-6-4.9-10.3-4.9-3.2 0-6.2.8-9 2.5-2.8 1.6-5.9 4.4-9.3 8.2v52.4h-14.4V7.433m66.4 49.5l27.2-26.7v15.1h23.1v13h-23.1v35.8c0 8.4 3.5 12.6 10.4 12.6 5.2 0 10.7-1.7 16.4-5.2v13.5c-5.6 3.1-11.6 4.7-18.2 4.7s-12.1-1.9-16.5-5.8c-1.4-1.2-2.5-2.5-3.4-3.9-.9-1.5-1.7-3.4-2.3-5.7-.6-2.4-.9-6.9-.9-13.5v-32.5h-12.7v-1.4m54.3 0l27.2-26.7v15.1h23.1v13h-23.1v35.8c0 8.4 3.5 12.6 10.4 12.6 5.2 0 10.7-1.7 16.4-5.2v13.5c-5.6 3.1-11.6 4.7-18.2 4.7s-12.1-1.9-16.5-5.8c-1.4-1.2-2.5-2.5-3.4-3.9-.9-1.5-1.7-3.4-2.3-5.7-.6-2.4-.9-6.9-.9-13.5v-32.5h-12.7v-1.4M212.8 30.1l-27.2 26.7v1.4h39c6.1.2 10.6 1.5 13.9 3.1 3.5 1.6 6.3 4.3 8.3 7.9 2.1 3.7 3.1 7.9 3.1 12.7 0 7.4-2.2 13.5-6.5 18.2-4.3 4.7-9.8 7.1-16.6 7.1-2.8 0-5.5-.4-8.2-1.1v12.3c3.4.9 6.7 1.3 9.7 1.3 10.5 0 19.2-3.5 26-10.6 6.8-7 10.2-16 10.3-27 0-11.6-3.6-20.6-10.9-27.1-7.1-6.4-17.1-9.6-29.8-9.7h-.4l-10.6-.1V30.1z" class="st0"/><path d="M198 63.7c0 52.2-.1 108.8-.1 154.7h14.8v-52.5c3.4-3.8 6.1-6.4 8.9-8 2.8-1.6 5.8-2.4 9-2.4 4.3 0 7.7 1.6 10.3 4.9 2.6 3.2 4 7.5 4 12.9v45.2h14.5v-41.6c0-8.5-.9-14.9-2.8-19.2-1.9-4.3-4.7-7.7-8.6-10.1-3.9-2.4-8.3-3.7-13.1-3.7-8.8 0-16.1 3.5-22.1 10.6v-53.1c.1-12.5 0-25.1 0-37.7H198zM55.9 174.5v31.1c0 2.5.8 3.7 2.5 3.7s4.5-1.3 8.2-3.9v8.8c-3.3 2.1-5.9 3.5-7.9 4.3-2 .8-4 1.2-6.2 1.2-6.2 0-9.9-2.4-11-7.3-6.1 4.8-12.7 7.2-19.6 7.2-5.1 0-9.3-1.7-12.7-5-3.4-3.4-5.1-7.6-5.1-12.7 0-4.6 1.6-8.7 4.9-12.3 3.3-3.7 8.1-6.5 14.1-8.7l18.5-6.4v-3.9c0-8.8-4.4-13.2-13.2-13.2-7.9 0-15.6 4.1-23 12.2v-15.8c5.6-6.6 13.7-9.9 24.2-9.9 7.9 0 14.2 2.1 19 6.2 1.6 1.3 3 3.1 4.3 5.3 1.3 2.2 2.1 4.4 2.4 6.6.4 2.2.6 6.3.6 12.5m-14.2 29.4v-21.7L32 186c-4.9 2-8.4 3.9-10.5 6-2 2-3 4.4-3 7.4s1 5.5 2.9 7.4c2 1.9 4.5 2.9 7.5 2.9 4.6-.1 8.8-2 12.8-5.8M90 145.3v16.8l.8-1.3c7-11.3 14-16.9 21-16.9 5.5 0 11.1 2.8 17.1 8.3l-7.6 12.7c-5-4.8-9.7-7.2-14-7.2-4.7 0-8.7 2.2-12.2 6.7-3.4 4.4-5.1 9.7-5.1 15.8v38.2H75.5v-73.1H90m96.9 56v14.3c-7.3 2.7-14.4 4.1-21.3 4.1-11.4 0-20.6-3.4-27.4-10.2-6.8-6.8-10.2-15.9-10.2-27.3 0-11.5 3.3-20.8 9.9-27.8 6.6-7 15.3-10.6 26.1-10.6 3.8 0 7.1.4 10.1 1.1 3 .7 6.7 2 11.1 4v15.4c-7.3-4.7-14.1-7-20.3-7-6.5 0-11.9 2.3-16 6.9-4.2 4.6-6.3 10.4-6.3 17.5 0 7.5 2.3 13.4 6.8 17.8 4.6 4.4 10.7 6.6 18.4 6.6 5.5.1 11.9-1.5 19.1-4.8m93.2-86.7c2.4 0 4.4.8 6.1 2.5 1.7 1.6 2.5 3.7 2.5 6s-.8 4.3-2.5 6c-1.7 1.7-3.7 2.5-6.1 2.5-2.2 0-4.2-.8-5.9-2.5-1.7-1.7-2.5-3.8-2.5-6s.8-4.2 2.5-5.9c1.7-1.8 3.7-2.6 5.9-2.6m-7.2 30.7h14.5v73.1h-14.5v-73.1m75 0h15.7l-32.3 74.4h-4.8l-33.1-74.4h15.8l19.7 45 19-45m78.8 37.8h-51.4c.4 7 2.7 12.6 7 16.7s9.9 6.2 16.8 6.2c9.5 0 18.3-3 26.4-8.9v14.1c-4.4 3-8.9 5.1-13.3 6.4-4.3 1.3-9.5 1.9-15.3 1.9-8.1 0-14.6-1.7-19.5-5-5-3.3-9-7.8-12-13.4-3-5.7-4.4-12.2-4.4-19.6 0-11.1 3.2-20.2 9.5-27.1 6.3-7 14.5-10.5 24.6-10.5 9.7 0 17.4 3.4 23.2 10.2 5.8 6.8 8.7 15.9 8.7 27.3v1.7m-51.4-8.6h36.8c-.4-5.8-2.1-10.2-5.2-13.3-3.1-3.1-7.2-4.7-12.4-4.7s-9.5 1.6-12.8 4.7c-3.2 3-5.4 7.5-6.4 13.3" class="st0"/></svg>