<svg xmlns="http://www.w3.org/2000/svg" width="20" height="20" viewBox="0 0 20 20" aria-hidden="true">
  <path d="M4.6 20c-1 0-2-.4-2.7-1.1l-.8-.8c-1.5-1.5-1.5-3.9 0-5.4l5-5c.8-.7 1.7-1.1 2.7-1.1s2 .4 2.7 1.1l.8.8c.2.2.2.6 0 .8-.2.2-.6.2-.8 0l-.8-.8c-.5-.5-1.2-.8-1.9-.8s-1.4.3-1.9.8l-5 5c-1.1 1.1-1.1 2.8 0 3.9l.8.8c.5.5 1.2.8 1.9.8s1.4-.3 1.9-.8l3.5-3.5c.2-.2.6-.2.8 0 .2.2.2.6 0 .8L7.3 19c-.7.6-1.7 1-2.7 1z"/>
  <path d="M11.2 13.4c-1 0-2-.4-2.7-1.1-.2-.2-.2-.6 0-.8s.6-.2.8 0c.5.5 1.2.8 1.9.8s1.4-.3 1.9-.8l5-5c1.1-1.1 1.1-2.8 0-3.9l-.8-.8c-1.1-1.1-2.8-1.1-3.9 0L10 5.4c-.2.2-.6.2-.8 0s-.2-.6 0-.8l3.5-3.5c1.5-1.5 3.9-1.5 5.4 0l.8.8c1.5 1.5 1.5 3.9 0 5.4l-5 5c-.8.7-1.7 1.1-2.7 1.1z"/>
</svg>