<svg xmlns="http://www.w3.org/2000/svg" width="202" height="39" viewBox="0 0 202 39"><defs/><path fill="#fff" d="M18.681 1.612l-2.376 12.034-3.1-12.034h-3.41l-3.08 12.034L4.339 1.612H.973l3.806 15.532h3.806L11.511 5.88l2.9 11.264h3.828l3.806-15.532h-3.366zm21.339 8.976a5.966 5.966 0 00-.737-2.981 5.276 5.276 0 00-2.09-2.057 6.427 6.427 0 00-3.157-.748 6.572 6.572 0 00-3.168.748 5.254 5.254 0 00-2.156 2.167 7.575 7.575 0 000 6.655 5.337 5.337 0 002.156 2.167 6.972 6.972 0 005.929.187 5.394 5.394 0 002.035-1.584 5.235 5.235 0 001.034-2.288h-3.278a2.335 2.335 0 01-.913 1.43 2.935 2.935 0 01-1.793.528 2.83 2.83 0 01-2.024-.77 3.361 3.361 0 01-.88-2.4h8.932a5.813 5.813 0 00.11-1.056zm-3.124-.308h-5.918a3.155 3.155 0 01.946-2.266 3.049 3.049 0 012.112-.77 2.977 2.977 0 012.079.77 2.734 2.734 0 01.781 2.266zM53.9 4.8a4.63 4.63 0 00-2.629.726 3.974 3.974 0 00-1.551 1.958V.862h-3.1v16.28h3.1V14.59a4.028 4.028 0 001.551 1.969 4.574 4.574 0 002.629.737 5.231 5.231 0 002.772-.748 5.052 5.052 0 001.925-2.167 8.362 8.362 0 000-6.666 5.057 5.057 0 00-1.925-2.167A5.24 5.24 0 0053.9 4.8zm-.968 2.706a3.037 3.037 0 012.332.946 3.661 3.661 0 01.88 2.6 3.62 3.62 0 01-.88 2.585 3.334 3.334 0 01-4.653-.022 4.085 4.085 0 010-5.148 3.069 3.069 0 012.321-.957zm32.692 9.636H88.9L83.2 1.786h-3.542l-5.72 15.356h3.278l1.1-3.124h6.226zm-6.49-5.478l2.288-6.556 2.288 6.556h-4.576zm15.84-10.8v16.28h3.1V.864h-3.1zM120.8 4.78a4.565 4.565 0 00-2.541.737 4.612 4.612 0 00-1.7 1.991 4.3 4.3 0 00-1.639-2.024 4.618 4.618 0 00-2.563-.7 4.519 4.519 0 00-2.431.649 3.784 3.784 0 00-1.529 1.837V4.96h-3.1v12.188h3.1V10.68a3.335 3.335 0 01.77-2.376 2.716 2.716 0 012.068-.814 2.573 2.573 0 011.969.759 3.04 3.04 0 01.715 2.167v6.732H117V10.68a3.335 3.335 0 01.77-2.376 2.716 2.716 0 012.068-.814 2.573 2.573 0 011.969.759 3.04 3.04 0 01.715 2.167v6.732h3.08V10.06a5.5 5.5 0 00-1.287-3.905 4.575 4.575 0 00-3.509-1.375zm16.7.022a5.245 5.245 0 00-2.772.748 5.057 5.057 0 00-1.925 2.167 8.362 8.362 0 000 6.666 5.052 5.052 0 001.925 2.167 5.236 5.236 0 002.772.748 4.625 4.625 0 002.64-.737 4 4 0 001.562-1.969v2.552h3.08V4.956H141.7v2.53a3.952 3.952 0 00-1.562-1.958 4.682 4.682 0 00-2.64-.726zm.968 2.706a3.068 3.068 0 012.321.957 4.085 4.085 0 010 5.148 3.334 3.334 0 01-4.653.022 3.624 3.624 0 01-.88-2.585 3.666 3.666 0 01.88-2.6 3.037 3.037 0 012.332-.946zm20.79-2.728a4.742 4.742 0 00-2.563.693 3.89 3.89 0 00-1.6 1.925V4.956H152v12.188h3.1v-6.468a3.505 3.505 0 01.792-2.464 2.736 2.736 0 012.112-.858 2.659 2.659 0 012.046.8 3.182 3.182 0 01.748 2.255v6.732h3.08V10.06a5.6 5.6 0 00-1.254-3.894 4.316 4.316 0 00-3.366-1.386zm16.522.022a5.24 5.24 0 00-2.772.748 5.051 5.051 0 00-1.925 2.167 8.362 8.362 0 000 6.666 5.045 5.045 0 001.925 2.167 5.231 5.231 0 002.772.748 4.63 4.63 0 002.64-.737 4.01 4.01 0 001.562-1.969v2.552h3.08V4.956h-3.08v2.53a3.957 3.957 0 00-1.562-1.958 4.687 4.687 0 00-2.64-.726zm.968 2.706a3.071 3.071 0 012.321.957 4.085 4.085 0 010 5.148 3.334 3.334 0 01-4.653.022 3.62 3.62 0 01-.88-2.585 3.661 3.661 0 01.88-2.6 3.035 3.035 0 012.332-.946zm19.008-2.706a6.572 6.572 0 00-3.168.748 5.248 5.248 0 00-2.156 2.167 7.575 7.575 0 000 6.655 5.331 5.331 0 002.156 2.167 6.488 6.488 0 003.168.759 6.031 6.031 0 003.927-1.276 5.575 5.575 0 001.969-3.476h-3.278a2.53 2.53 0 01-.9 1.529 2.773 2.773 0 01-1.782.561 2.656 2.656 0 01-2.057-.913 4.743 4.743 0 010-5.346 2.66 2.66 0 012.057-.913 2.773 2.773 0 011.782.561 2.533 2.533 0 01.9 1.529h3.278a5.58 5.58 0 00-1.969-3.476 6.036 6.036 0 00-3.927-1.276zM1.1 36.122a11.188 11.188 0 001.485.088 3.724 3.724 0 002.563-.693 2 2 0 00.627-1.485 1.911 1.911 0 00-1.529-1.859v-.022A1.761 1.761 0 005.5 30.523a1.556 1.556 0 00-.616-1.31 3.064 3.064 0 00-2.035-.539 9.273 9.273 0 00-1.749.154v7.294zm.957-6.645a4.105 4.105 0 01.847-.066c.968 0 1.628.341 1.628 1.211a1.368 1.368 0 01-1.606 1.243H2.06v-2.388zm0 3.114h.792c1.045 0 1.914.418 1.914 1.43 0 1.078-.913 1.441-1.9 1.441a5.114 5.114 0 01-.8-.044v-2.827zm6.512-1.771l1.969 4.906a.844.844 0 01.066.253.7.7 0 01-.077.231 2.94 2.94 0 01-.814 1.079 2.56 2.56 0 01-.847.473l.242.814a2.623 2.623 0 001.188-.627 8.111 8.111 0 001.826-3.334l1.452-3.8h-1.023l-1.056 3.124c-.132.385-.242.792-.341 1.111h-.022c-.088-.319-.22-.737-.341-1.089l-1.166-3.146H8.569zm12.649-2.091v7.415h.958v-3.476h3.586v3.476h.968v-7.415h-.968v3.1h-3.586v-3.1h-.958zM32 36.144h.968v-6.6h2.266v-.814h-5.49v.814H32v6.6zm8.084 0h.969v-6.6h2.266v-.814h-5.49v.814h2.255v6.6zm6.259 0h.957v-2.97a3.294 3.294 0 00.77.066 3.073 3.073 0 002.267-.814 2.182 2.182 0 00.572-1.584 2 2 0 00-.649-1.552 3.047 3.047 0 00-2.08-.616 11.092 11.092 0 00-1.837.143v7.327zm.957-6.634a4.016 4.016 0 01.9-.077 1.472 1.472 0 011.75 1.453 1.585 1.585 0 01-1.86 1.584 3.209 3.209 0 01-.792-.077V29.51zm15.456 4.3l.792 2.332h1.023l-2.531-7.415h-1.155l-2.519 7.415h.99l.77-2.332h2.63zm-2.432-.748l.726-2.145c.143-.451.264-.9.374-1.343h.022c.11.43.22.87.385 1.354l.727 2.134h-2.234zm7.469 3.08h.957v-2.838a2.725 2.725 0 01.044-.451 1.358 1.358 0 011.3-1.243 1.463 1.463 0 01.331.033v-.913a1.05 1.05 0 00-.276-.033 1.6 1.6 0 00-1.474 1.166h-.044L68.6 30.82h-.847c.033.5.044 1.034.044 1.661v3.663zm9.318-.924a2.75 2.75 0 01-1.188.264 2.007 2.007 0 01.033-4 2.245 2.245 0 011.122.253l.22-.748a3.236 3.236 0 00-1.342-.275 2.705 2.705 0 00-2.861 2.827 2.529 2.529 0 002.651 2.717 3.567 3.567 0 001.53-.308zm3.5.924h.968V32.93a1.172 1.172 0 01.066-.462 1.391 1.391 0 011.3-.968c.914 0 1.233.726 1.233 1.584v3.058h.968v-3.168c0-1.837-1.144-2.277-1.859-2.277a1.993 1.993 0 00-.991.275 1.8 1.8 0 00-.693.682h-.022v-3.323h-.971v7.811zm9.273 0V30.82h-.968v5.324h.968zm-.484-7.426a.59.59 0 00-.605.605.6.6 0 10.605-.603zm3.63 2.1l2.024 5.324h.924l2.091-5.324h-1.013l-1.034 2.992c-.176.484-.33.924-.451 1.364h-.033a13.691 13.691 0 00-.429-1.364l-1.045-2.992H93.03zm12.321 2.838a3.651 3.651 0 00.033-.451 2.256 2.256 0 00-2.2-2.508 2.585 2.585 0 00-2.5 2.871 2.472 2.472 0 002.618 2.684 4.312 4.312 0 001.771-.33l-.165-.693a3.5 3.5 0 01-1.474.275 1.706 1.706 0 01-1.826-1.848h3.741zm-3.73-.693a1.6 1.6 0 011.485-1.573 1.378 1.378 0 011.342 1.573h-2.828z"/><path fill="#f7f779" fill-rule="evenodd" d="M116 34v-1h86v1h-86z"/></svg>