<svg xmlns="http://www.w3.org/2000/svg" viewBox="-0.1 -0.7 0.8 0.8" overflow="visible">
<desc>Show u*,v* UCS diagram
with the gamuts of sRGB and display-p3.
Display-p3 colors fond in the Web Almanac search
are displayed, together with the sRGB fallback
and the ΔE2000 between the pair of colors.
</desc>
<!-- <style>
g > circle:hover {
    r: 0.007px;
}
</style> -->
<!-- tongue -->
<path fill="none" stroke="black" stroke-width="0.003" d="M 0.256804  -0.016594
  L 0.256637  -0.016593
  L 0.256418  -0.016266
  L 0.256085  -0.016263
  L 0.255699  -0.015935
  L 0.255200  -0.015932
  L 0.254535  -0.015927
  L 0.253704  -0.015921
  L 0.252207  -0.016885
  L 0.249615  -0.019128
  L 0.246120  -0.022623
  L 0.241063  -0.027948
  L 0.234690  -0.035011
  L 0.226630  -0.043680
  L 0.216060  -0.054946
  L 0.203340  -0.068779
  L 0.187720  -0.087114
  L 0.168963  -0.111946
  L 0.144076  -0.150984
  L 0.114692  -0.204374
  L 0.082816  -0.270829
  L 0.052134  -0.342686
  L 0.028159  -0.411679
  L 0.011891  -0.469843
  L 0.003473  -0.513066
  L 0.001438  -0.543162
  L 0.004643  -0.563843
  L 0.005859  -0.567036
  L 0.007213  -0.569939
  L 0.008771  -0.572575
  L 0.010438  -0.574905
  L 0.012285  -0.576969
  L 0.014220  -0.578754
  L 0.016315  -0.580309
  L 0.018482  -0.581618
  L 0.020756  -0.582743
  L 0.023116  -0.583667
  L 0.025566  -0.584422
  L 0.028050  -0.585009
  L 0.030633  -0.585478
  L 0.033285  -0.585851
  L 0.036008  -0.586142
  L 0.050059  -0.586754
  L 0.064335  -0.586523
  L 0.079224  -0.585616
  L 0.095269  -0.584113
  L 0.112701  -0.582069
  L 0.131858  -0.579553
  L 0.153101  -0.576592
  L 0.176586  -0.573182
  L 0.202596  -0.569364
  L 0.231170  -0.565107
  L 0.262343  -0.560441
  L 0.295958  -0.555411
  L 0.331527  -0.550115
  L 0.368060  -0.544626
  L 0.403475  -0.539334
  L 0.437943  -0.534187
  L 0.469171  -0.529561
  L 0.496768  -0.525419
  L 0.520257  -0.521894
  L 0.539920  -0.518977
  L 0.556503  -0.516489
  L 0.570880  -0.514332
  L 0.583036  -0.512508
  L 0.592866  -0.511070
  L 0.600496  -0.509926
  L 0.606437  -0.509035
  L 0.610879  -0.508368
  L 0.613777  -0.507933
  L 0.616162  -0.507576
  L 0.618025  -0.507296
  L 0.619897  -0.507015
  L 0.621507  -0.506774
  L 0.622584  -0.506612
  L 0.623123  -0.506531
  L 0.623393  -0.506491
  L 0.623393  -0.506491
  L 0.623393  -0.506491
  L 0.623393  -0.506491
  L 0.623393  -0.506491
  L 0.623393  -0.506491
  L 0.623393  -0.506491
  L 0.623393  -0.506491
  L 0.623393  -0.506491
  L 0.623393  -0.506491
  L 0.623393  -0.506491
  L 0.623393  -0.506491
  L 0.623393  -0.506491
  L 0.623393  -0.506491
  L 0.623393  -0.506491
  L 0.623393  -0.506491
  L 0.623393  -0.506491
  Z"/>

    <!-- sRGB  -->
  <polygon fill="none" stroke="#CCC" stroke-dasharray="0.004 0.003" stroke-width="0.004" points="0.45070, -0.522887 0.125, -0.5625 0.17544, -0.15789"/>
  <circle r="0.006" cx="0.45070" cy="-0.522887" fill="red" fill-opacity="0.4"/>
  <circle r="0.006" cx="0.12500" cy="-0.56250" fill="green"  fill-opacity="0.4"/>
  <circle r="0.006" cx="0.17544" cy="-0.15789" fill="blue"  fill-opacity="0.4"/>
  <circle r="0.006" cx="0.20394" cy="-0.552899" fill="yellow" fill-opacity="0.4"/>
  <circle r="0.006" cx="0.13834" cy="-0.45550" fill="cyan"  fill-opacity="0.4"/>
  <circle r="0.006" cx="0.30504" cy="-0.32975" fill="magenta"  fill-opacity="0.4"/>
  <circle r="0.006" cx="0.20916" cy="-0.48807" fill="white" stroke="#777" stroke-width="0.002"/>

<!-- display-p3 -->
  <polygon fill="none" stroke="#555" stroke-dasharray="0.006 0.003" stroke-width="0.004" points="0.49635, -0.52554 0.09860, -0.57767 0.17544, -0.15789"/>
  <circle r="0.006" cx="0.49635" cy="-0.52554" fill="red" />
  <circle r="0.006" cx="0.09860" cy="-0.57767" fill="green" />
  <circle r="0.006" cx="0.17544" cy="-0.15789" fill="blue" />
  <circle r="0.006" cx="0.20471" cy="-0.56377" fill="yellow" />
  <circle r="0.006" cx="0.12130" cy="-0.45365" fill="cyan" />
  <circle r="0.006" cx="0.32452" cy="-0.32869" fill="magenta" />

<g pointer-events="visiblePainted">
  <!-- pairs of sRGB, P3 colors -->

<g>
        <polyline stroke="gray" stroke-width="0.002" points="0.24772494468473377,-0.5449737684713706 0.2583007365192628,-0.5505917685153053"><title>ΔE2k = 3.88</title></polyline>
        <circle r="0.002" cx="0.2583007365192628" cy="-0.5505917685153053" fill="white" stroke="red" stroke-width="0.0008"/>
        <circle r="0.003" cx="0.24772494468473377" cy="-0.5449737684713706" fill="rgba(255,205,63,1) "/>
        </g>
<g>
        <polyline stroke="gray" stroke-width="0.002" points="0.23007625023826303,-0.23563276381337334 0.23689017535823342,-0.23484531872034484"><title>ΔE2k = 1.933</title></polyline>
        <circle r="0.002" cx="0.23689017535823342" cy="-0.23484531872034484" fill="white" stroke="red" stroke-width="0.0008"/>
        <circle r="0.003" cx="0.23007625023826303" cy="-0.23563276381337334" fill="rgba(120,0,255,1)"/>
        </g>
<g>
        <polyline stroke="gray" stroke-width="0.002" points="0.20359166435909015,-0.48249455399225705 0.20315967129606843,-0.48198340256850286"><title>ΔE2k = 0.391</title></polyline>
        <circle r="0.002" cx="0.20315967129606843" cy="-0.48198340256850286" fill="rgb(47.532% 50.082% 52.233%)" stroke="gray" stroke-width="0.0008"/>
        <circle r="0.003" cx="0.20359166435909015" cy="-0.48249455399225705" fill="rgba(121,127,132,1)"/>
        </g>
<g>
        <polyline stroke="gray" stroke-width="0.002" points="0.20916002531224134,-0.4880733998126011 0.20914956152241815,-0.4880600800524267"><title>ΔE2k = 0.274</title></polyline>
        <circle r="0.002" cx="0.20914956152241815" cy="-0.4880600800524267" fill="rgb(77.994% 78.001% 78.008%)" stroke="gray" stroke-width="0.0008"/>
        <circle r="0.003" cx="0.20916002531224134" cy="-0.4880733998126011" fill="rgba(200,200,200,1)"/>
        </g>
<g>
        <polyline stroke="gray" stroke-width="0.002" points="0.20893401951797871,-0.4856846198257183 0.20914956152241815,-0.4880600800524266"><title>ΔE2k = 1.474</title></polyline>
        <circle r="0.002" cx="0.20914956152241815" cy="-0.4880600800524266" fill="rgb(38.997% 39% 39.004%)" stroke="gray" stroke-width="0.0008"/>
        <circle r="0.003" cx="0.20893401951797871" cy="-0.4856846198257183" fill="rgba(97,97,99,1)"/>
        </g>
<g>
        <polyline stroke="gray" stroke-width="0.002" points="0.19783982482140777,0.4683363029324097 0.19783982482140777,0.4683363029324097"><title>ΔE2k = 0</title></polyline>
        <circle r="0.002" cx="0.19783982482140777" cy="0.4683363029324097" fill="rgb(0% 0% 0%)" stroke="gray" stroke-width="0.0008"/>
        <circle r="0.003" cx="0.19783982482140777" cy="0.4683363029324097" fill="rgba(0,0,0,1)"/>
        </g>
<g>
        <polyline stroke="gray" stroke-width="0.002" points="0.2091600253122414,-0.48807339981260106 0.2091495615224181,-0.48806008005242657"><title>ΔE2k = 0.015</title></polyline>
        <circle r="0.002" cx="0.2091495615224181" cy="-0.48806008005242657" fill="white" stroke="red" stroke-width="0.0008"/>
        <circle r="0.003" cx="0.2091600253122414" cy="-0.48807339981260106" fill="rgba(255,255,255,1)"/>
        </g>
<g>
        <polyline stroke="gray" stroke-width="0.002" points="0.21920318536008307,-0.37714140845845767 0.22349134574735613,-0.3705623560238686"><title>ΔE2k = 1.326</title></polyline>
        <circle r="0.002" cx="0.22349134574735613" cy="-0.3705623560238686" fill="rgb(34.501% 24.596% 54.786%)" stroke="gray" stroke-width="0.0008"/>
        <circle r="0.003" cx="0.21920318536008307" cy="-0.37714140845845767" fill="rgba(84,64,135,1)"/>
        </g>
<g>
        <polyline stroke="gray" stroke-width="0.002" points="0.21929772752314766,-0.38490232254623635 0.22342864883457228,-0.3795049291587542"><title>ΔE2k = 1.348</title></polyline>
        <circle r="0.002" cx="0.22342864883457228" cy="-0.3795049291587542" fill="rgb(53.088% 39.452% 80.472%)" stroke="gray" stroke-width="0.0008"/>
        <circle r="0.003" cx="0.21929772752314766" cy="-0.38490232254623635" fill="rgba(131,103,201,1)"/>
        </g>
<g>
        <polyline stroke="gray" stroke-width="0.002" points="0.15539351414565153,-0.46139483123383535 0.139451918801146,-0.4633616241338665"><title>ΔE2k = 5.591</title></polyline>
        <circle r="0.002" cx="0.139451918801146" cy="-0.4633616241338665" fill="white" stroke="red" stroke-width="0.0008"/>
        <circle r="0.003" cx="0.15539351414565153" cy="-0.46139483123383535" fill="rgba(68,185,208,1)"/>
        </g>
<g>
        <polyline stroke="gray" stroke-width="0.002" points="0.4428583106182949,-0.5066268326510627 0.4822371337388681,-0.5071008679755579"><title>ΔE2k = 3.529</title></polyline>
        <circle r="0.002" cx="0.4822371337388681" cy="-0.5071008679755579" fill="white" stroke="red" stroke-width="0.0008"/>
        <circle r="0.003" cx="0.4428583106182949" cy="-0.5066268326510627" fill="rgb(255,0,72)"/>
        </g>
<g>
        <polyline stroke="gray" stroke-width="0.002" points="0.2657390543673375,-0.5436194823824541 0.2819415546154588,-0.5499230807470945"><title>ΔE2k = 4.701</title></polyline>
        <circle r="0.002" cx="0.2819415546154588" cy="-0.5499230807470945" fill="white" stroke="red" stroke-width="0.0008"/>
        <circle r="0.003" cx="0.2657390543673375" cy="-0.5436194823824541" fill="rgba(241,174,50,1)"/>
        </g>
<g>
        <polyline stroke="gray" stroke-width="0.002" points="0.2622641712294289,-0.545836253032629 0.2752203052685002,-0.5514526358061522"><title>ΔE2k = 4.218</title></polyline>
        <circle r="0.002" cx="0.2752203052685002" cy="-0.5514526358061522" fill="white" stroke="red" stroke-width="0.0008"/>
        <circle r="0.003" cx="0.2622641712294289" cy="-0.545836253032629" fill="rgba(245,181,40,1)"/>
        </g>
<g>
        <polyline stroke="gray" stroke-width="0.002" points="0.22928965112052704,-0.31867243658015504 0.2357501934190448,-0.31545101138633763"><title>ΔE2k = 2.143</title></polyline>
        <circle r="0.002" cx="0.2357501934190448" cy="-0.31545101138633763" fill="white" stroke="red" stroke-width="0.0008"/>
        <circle r="0.003" cx="0.22928965112052704" cy="-0.31867243658015504" fill="rgb(147, 83, 255)"/>
        </g>
<g>
        <polyline stroke="gray" stroke-width="0.002" points="0.23146737508086365,-0.24071027328550051 0.23755973722892743,-0.2382279293837331"><title>ΔE2k = 1.321</title></polyline>
        <circle r="0.002" cx="0.23755973722892743" cy="-0.2382279293837331" fill="white" stroke="red" stroke-width="0.0008"/>
        <circle r="0.003" cx="0.23146737508086365" cy="-0.24071027328550051" fill="rgba(75,3,161,1)"/>
        </g>
<g>
        <polyline stroke="gray" stroke-width="0.002" points="0.457168524947524,-0.5248519743763146 0.4989244868625486,-0.5256184176541439"><title>ΔE2k = 7.115</title></polyline>
        <circle r="0.002" cx="0.4989244868625486" cy="-0.5256184176541439" fill="white" stroke="red" stroke-width="0.0008"/>
        <circle r="0.003" cx="0.457168524947524" cy="-0.5248519743763146" fill="rgba(255,0,0,0.85)"/>
        </g>
<g>
        <polyline stroke="gray" stroke-width="0.002" points="0.21920318536008307,-0.37714140845845767 0.22349134574735613,-0.3705623560238686"><title>ΔE2k = 1.326</title></polyline>
        <circle r="0.002" cx="0.22349134574735613" cy="-0.3705623560238686" fill="rgb(34.501% 24.596% 54.786%)" stroke="gray" stroke-width="0.0008"/>
        <circle r="0.003" cx="0.21920318536008307" cy="-0.37714140845845767" fill="rgba(84,64,135,1)"/>
        </g>
<g>
        <polyline stroke="gray" stroke-width="0.002" points="0.21929772752314766,-0.38490232254623635 0.22342864883457228,-0.3795049291587542"><title>ΔE2k = 1.348</title></polyline>
        <circle r="0.002" cx="0.22342864883457228" cy="-0.3795049291587542" fill="rgb(53.088% 39.452% 80.472%)" stroke="gray" stroke-width="0.0008"/>
        <circle r="0.003" cx="0.21929772752314766" cy="-0.38490232254623635" fill="rgba(131,103,201,1)"/>
        </g>
<g>
        <polyline stroke="gray" stroke-width="0.002" points="0.15539351414565153,-0.46139483123383535 0.139451918801146,-0.4633616241338665"><title>ΔE2k = 5.591</title></polyline>
        <circle r="0.002" cx="0.139451918801146" cy="-0.4633616241338665" fill="white" stroke="red" stroke-width="0.0008"/>
        <circle r="0.003" cx="0.15539351414565153" cy="-0.46139483123383535" fill="rgba(68,185,208,1)"/>
        </g>
<g>
        <polyline stroke="gray" stroke-width="0.002" points="0.21187234603148927,-0.2650567719805943 0.21558610493300745,-0.26072588472884267"><title>ΔE2k = 1.584</title></polyline>
        <circle r="0.002" cx="0.21558610493300745" cy="-0.26072588472884267" fill="white" stroke="red" stroke-width="0.0008"/>
        <circle r="0.003" cx="0.21187234603148927" cy="-0.2650567719805943" fill="#6d3bff"/>
        </g>
<g>
        <polyline stroke="gray" stroke-width="0.002" points="0.13663035763768958,-0.549133217250057 0.11150838405929195,-0.5585013958840693"><title>ΔE2k = 4.958</title></polyline>
        <circle r="0.002" cx="0.11150838405929195" cy="-0.5585013958840693" fill="white" stroke="red" stroke-width="0.0008"/>
        <circle r="0.003" cx="0.13663035763768958" cy="-0.549133217250057" fill="#03d658"/>
        </g>
<g>
        <polyline stroke="gray" stroke-width="0.002" points="0.4219668932708573,-0.5291801492842698 0.46100539194349877,-0.5305846874444266"><title>ΔE2k = 7.14</title></polyline>
        <circle r="0.002" cx="0.46100539194349877" cy="-0.5305846874444266" fill="white" stroke="red" stroke-width="0.0008"/>
        <circle r="0.003" cx="0.4219668932708573" cy="-0.5291801492842698" fill="#ff3900"/>
        </g>
<g>
        <polyline stroke="gray" stroke-width="0.002" points="0.158864667073202,-0.5183084094748981 0.1429199640713884,-0.5222756524736081"><title>ΔE2k = 4.284</title></polyline>
        <circle r="0.002" cx="0.1429199640713884" cy="-0.5222756524736081" fill="rgb(20.666% 98.703% 67.808%)" stroke="gray" stroke-width="0.0008"/>
        <circle r="0.003" cx="0.158864667073202" cy="-0.5183084094748981" fill="#7cf8b3"/>
        </g>
<g>
        <polyline stroke="gray" stroke-width="0.002" points="0.2091600253122414,-0.48807339981260106 0.20914956152241815,-0.4880600800524266"><title>ΔE2k = 0.028</title></polyline>
        <circle r="0.002" cx="0.20914956152241815" cy="-0.4880600800524266" fill="rgb(97.293% 97.301% 97.31%)" stroke="gray" stroke-width="0.0008"/>
        <circle r="0.003" cx="0.2091600253122414" cy="-0.48807339981260106" fill="#f8f8f8"/>
        </g>
<g>
        <polyline stroke="gray" stroke-width="0.002" points="0.20044822315258626,-0.48259369489759624 0.1981071858997258,-0.4819953602287619"><title>ΔE2k = 1.918</title></polyline>
        <circle r="0.002" cx="0.1981071858997258" cy="-0.4819953602287619" fill="rgb(85.814% 94.781% 98.033%)" stroke="gray" stroke-width="0.0008"/>
        <circle r="0.003" cx="0.20044822315258626" cy="-0.48259369489759624" fill="#e3f5fd"/>
        </g>
<g>
        <polyline stroke="gray" stroke-width="0.002" points="0.38852397086964846,-0.5231246337876657 0.42369053126672396,-0.5246704085650638"><title>ΔE2k = 3.681</title></polyline>
        <circle r="0.002" cx="0.42369053126672396" cy="-0.5246704085650638" fill="rgb(98.406% 20.26% 12.445%)" stroke="gray" stroke-width="0.0008"/>
        <circle r="0.003" cx="0.38852397086964846" cy="-0.5231246337876657" fill="#e74832"/>
        </g>
<g>
        <polyline stroke="gray" stroke-width="0.002" points="0.18529663872457,-0.39918920008146097 0.1809040318713102,-0.3921981604682303"><title>ΔE2k = 1.413</title></polyline>
        <circle r="0.002" cx="0.1809040318713102" cy="-0.3921981604682303" fill="rgb(17.295% 24.502% 42.915%)" stroke="gray" stroke-width="0.0008"/>
        <circle r="0.003" cx="0.18529663872457" cy="-0.39918920008146097" fill="#303e6a"/>
        </g>
<g>
        <polyline stroke="gray" stroke-width="0.002" points="0.17126522305958042,-0.27084016955726076 0.16712250300909195,-0.263068252624157"><title>ΔE2k = 1.055</title></polyline>
        <circle r="0.002" cx="0.16712250300909195" cy="-0.263068252624157" fill="white" stroke="red" stroke-width="0.0008"/>
        <circle r="0.003" cx="0.17126522305958042" cy="-0.27084016955726076" fill="#08257c"/>
        </g>
<g>
        <polyline stroke="gray" stroke-width="0.002" points="0.21014667775172946,-0.48821971604921205 0.21042256445707455,-0.48822507664049125"><title>ΔE2k = 0.174</title></polyline>
        <circle r="0.002" cx="0.21042256445707455" cy="-0.48822507664049125" fill="rgb(43.986% 43.484% 43.497%)" stroke="gray" stroke-width="0.0008"/>
        <circle r="0.003" cx="0.21014667775172946" cy="-0.48821971604921205" fill="#706f6f"/>
        </g>
<g>
        <polyline stroke="gray" stroke-width="0.002" points="0.15454295248255062,-0.388981022568345 0.14246520673643212,-0.3804206403627454"><title>ΔE2k = 3.211</title></polyline>
        <circle r="0.002" cx="0.14246520673643212" cy="-0.3804206403627454" fill="white" stroke="red" stroke-width="0.0008"/>
        <circle r="0.003" cx="0.15454295248255062" cy="-0.388981022568345" fill="#005992"/>
        </g>
<g>
        <polyline stroke="gray" stroke-width="0.002" points="0.20503738703775692,-0.47431430932700125 0.20406917870780417,-0.4726935566075945"><title>ΔE2k = 0.317</title></polyline>
        <circle r="0.002" cx="0.20406917870780417" cy="-0.4726935566075945" fill="rgb(10.107% 10.617% 12.355%)" stroke="gray" stroke-width="0.0008"/>
        <circle r="0.003" cx="0.20503738703775692" cy="-0.47431430932700125" fill="#1a1b1f"/>
        </g>
<g>
        <polyline stroke="gray" stroke-width="0.002" points="0.20347610869729157,-0.48346621696799935 0.201892495518621,-0.48304321363071645"><title>ΔE2k = 1.321</title></polyline>
        <circle r="0.002" cx="0.201892495518621" cy="-0.48304321363071645" fill="rgb(86.763% 92.38% 95.25%)" stroke="gray" stroke-width="0.0008"/>
        <circle r="0.003" cx="0.20347610869729157" cy="-0.48346621696799935" fill="#e0ebf2"/>
        </g>
<g>
        <polyline stroke="gray" stroke-width="0.002" points="0.3366089825906824,-0.48905176658168903 0.3633613143258032,-0.48919255172783627"><title>ΔE2k = 3.146</title></polyline>
        <circle r="0.002" cx="0.3633613143258032" cy="-0.48919255172783627" fill="rgb(98.778% 32.692% 48.887%)" stroke="gray" stroke-width="0.0008"/>
        <circle r="0.003" cx="0.3366089825906824" cy="-0.48905176658168903" fill="#e9607e"/>
        </g>
<g>
        <polyline stroke="gray" stroke-width="0.002" points="0.2091600253122414,-0.48807339981260106 0.20914956152241812,-0.4880600800524266"><title>ΔE2k = 0.027</title></polyline>
        <circle r="0.002" cx="0.20914956152241812" cy="-0.4880600800524266" fill="rgb(13.299% 13.3% 13.302%)" stroke="gray" stroke-width="0.0008"/>
        <circle r="0.003" cx="0.2091600253122414" cy="-0.48807339981260106" fill="#222222"/>
        </g>
<g>
        <polyline stroke="gray" stroke-width="0.002" points="0.21285143876697696,-0.4967974360205274 0.21361417781995262,-0.4976941009683761"><title>ΔE2k = 0.805</title></polyline>
        <circle r="0.002" cx="0.21361417781995262" cy="-0.4976941009683761" fill="white" stroke="red" stroke-width="0.0008"/>
        <circle r="0.003" cx="0.21285143876697696" cy="-0.4967974360205274" fill="#fef8e7"/>
        </g>
<g>
        <polyline stroke="gray" stroke-width="0.002" points="0.3671431640961961,-0.5330820938073398 0.4000200300476817,-0.5355253606992383"><title>ΔE2k = 4.789</title></polyline>
        <circle r="0.002" cx="0.4000200300476817" cy="-0.5355253606992383" fill="white" stroke="red" stroke-width="0.0008"/>
        <circle r="0.003" cx="0.3671431640961961" cy="-0.5330820938073398" fill="#e15718"/>
        </g>
<g>
        <polyline stroke="gray" stroke-width="0.002" points="0.1604840893049303,-0.3794830233527904 0.15030861011625518,-0.3707982858117754"><title>ΔE2k = 2.297</title></polyline>
        <circle r="0.002" cx="0.15030861011625518" cy="-0.3707982858117754" fill="white" stroke="red" stroke-width="0.0008"/>
        <circle r="0.003" cx="0.1604840893049303" cy="-0.3794830233527904" fill="#082e54"/>
        </g>
<g>
        <polyline stroke="gray" stroke-width="0.002" points="0.20578435447892604,-0.4842299589620408 0.2050129607241242,-0.4837708295621876"><title>ΔE2k = 0.666</title></polyline>
        <circle r="0.002" cx="0.2050129607241242" cy="-0.4837708295621876" fill="rgb(84.965% 87.896% 90.484%)" stroke="gray" stroke-width="0.0008"/>
        <circle r="0.003" cx="0.20578435447892604" cy="-0.4842299589620408" fill="#dae0e6"/>
        </g>
<g>
        <polyline stroke="gray" stroke-width="0.002" points="0.21334292257497622,-0.48770820552573263 0.21439642137791498,-0.48763596976886875"><title>ΔE2k = 1.003</title></polyline>
        <circle r="0.002" cx="0.21439642137791498" cy="-0.48763596976886875" fill="white" stroke="red" stroke-width="0.0008"/>
        <circle r="0.003" cx="0.21334292257497622" cy="-0.48770820552573263" fill="#fff6f8"/>
        </g>
<g>
        <polyline stroke="gray" stroke-width="0.002" points="0.15589428155563648,-0.42392050469268217 0.1428633736656841,-0.41755154118147153"><title>ΔE2k = 3.556</title></polyline>
        <circle r="0.002" cx="0.1428633736656841" cy="-0.41755154118147153" fill="white" stroke="red" stroke-width="0.0008"/>
        <circle r="0.003" cx="0.15589428155563648" cy="-0.42392050469268217" fill="#2a93ca"/>
        </g>
<g>
        <polyline stroke="gray" stroke-width="0.002" points="0.14288427504192783,-0.49242119743613166 0.12278771385563611,-0.492916626671996"><title>ΔE2k = 4.376</title></polyline>
        <circle r="0.002" cx="0.12278771385563611" cy="-0.492916626671996" fill="white" stroke="red" stroke-width="0.0008"/>
        <circle r="0.003" cx="0.14288427504192783" cy="-0.49242119743613166" fill="#009183"/>
        </g>
<g>
        <polyline stroke="gray" stroke-width="0.002" points="0.34843190626543075,-0.5247426237065014 0.37830078425215335,-0.5269140525911336"><title>ΔE2k = 3.49</title></polyline>
        <circle r="0.002" cx="0.37830078425215335" cy="-0.5269140525911336" fill="white" stroke="red" stroke-width="0.0008"/>
        <circle r="0.003" cx="0.34843190626543075" cy="-0.5247426237065014" fill="#ff6e47"/>
        </g>
<g>
        <polyline stroke="gray" stroke-width="0.002" points="0.20854346977694668,-0.481556684042908 0.20846072612812835,-0.4807771683159232"><title>ΔE2k = 0.167</title></polyline>
        <circle r="0.002" cx="0.20846072612812835" cy="-0.4807771683159232" fill="rgb(10.599% 10.6% 11.477%)" stroke="gray" stroke-width="0.0008"/>
        <circle r="0.003" cx="0.20854346977694668" cy="-0.481556684042908" fill="#1b1b1d"/>
        </g>
<g>
        <polyline stroke="gray" stroke-width="0.002" points="0.18651896898944037,-0.4446016407058164 0.18142352404901668,-0.4404437800083111"><title>ΔE2k = 1.882</title></polyline>
        <circle r="0.002" cx="0.18142352404901668" cy="-0.4404437800083111" fill="rgb(28.759% 39.501% 52.515%)" stroke="gray" stroke-width="0.0008"/>
        <circle r="0.003" cx="0.18651896898944037" cy="-0.4446016407058164" fill="#4f6483"/>
        </g>
<g>
        <polyline stroke="gray" stroke-width="0.002" points="0.4333513886365484,-0.5025023932468005 0.47178470802108585,-0.5029318880075383"><title>ΔE2k = 2.967</title></polyline>
        <circle r="0.002" cx="0.47178470802108585" cy="-0.5029318880075383" fill="white" stroke="red" stroke-width="0.0008"/>
        <circle r="0.003" cx="0.4333513886365484" cy="-0.5025023932468005" fill="#a50832"/>
        </g>
<g>
        <polyline stroke="gray" stroke-width="0.002" points="0.20578435447892604,-0.4842299589620408 0.2050129607241242,-0.4837708295621876"><title>ΔE2k = 0.666</title></polyline>
        <circle r="0.002" cx="0.2050129607241242" cy="-0.4837708295621876" fill="rgb(84.965% 87.896% 90.484%)" stroke="gray" stroke-width="0.0008"/>
        <circle r="0.003" cx="0.20578435447892604" cy="-0.4842299589620408" fill="#dae0e6"/>
        </g>
<g>
        <polyline stroke="gray" stroke-width="0.002" points="0.20916002531224143,-0.48807339981260106 0.20914956152241815,-0.4880600800524266"><title>ΔE2k = 0.025</title></polyline>
        <circle r="0.002" cx="0.20914956152241815" cy="-0.4880600800524266" fill="rgb(97.993% 98.001% 98.01%)" stroke="gray" stroke-width="0.0008"/>
        <circle r="0.003" cx="0.20916002531224143" cy="-0.48807339981260106" fill="#fafafa"/>
        </g>
<g>
        <polyline stroke="gray" stroke-width="0.002" points="0.41391094021138647,-0.4697601641231364 0.44854175889883036,-0.46970993048448667"><title>ΔE2k = 3.113</title></polyline>
        <circle r="0.002" cx="0.44854175889883036" cy="-0.46970993048448667" fill="white" stroke="red" stroke-width="0.0008"/>
        <circle r="0.003" cx="0.41391094021138647" cy="-0.4697601641231364" fill="#cc0066"/>
        </g>
<g>
        <polyline stroke="gray" stroke-width="0.002" points="0.38852397086964846,-0.5231246337876657 0.42369053126672396,-0.5246704085650638"><title>ΔE2k = 3.681</title></polyline>
        <circle r="0.002" cx="0.42369053126672396" cy="-0.5246704085650638" fill="rgb(98.406% 20.26% 12.445%)" stroke="gray" stroke-width="0.0008"/>
        <circle r="0.003" cx="0.38852397086964846" cy="-0.5231246337876657" fill="#e74832"/>
        </g>
<g>
        <polyline stroke="gray" stroke-width="0.002" points="0.14361576222556002,-0.5424368236748558 0.13614509613725503,-0.5488968422912238"><title>ΔE2k = 2.338</title></polyline>
        <circle r="0.002" cx="0.13614509613725503" cy="-0.5488968422912238" fill="white" stroke="red" stroke-width="0.0008"/>
        <circle r="0.003" cx="0.14361576222556002" cy="-0.5424368236748558" fill="#48FF7E"/>
        </g>
<g>
        <polyline stroke="gray" stroke-width="0.002" points="0.28633004420182484,-0.5458572173283577 0.29774316525848127,-0.5519671667997744"><title>ΔE2k = 5.777</title></polyline>
        <circle r="0.002" cx="0.29774316525848127" cy="-0.5519671667997744" fill="white" stroke="red" stroke-width="0.0008"/>
        <circle r="0.003" cx="0.28633004420182484" cy="-0.5458572173283577" fill="#FFA500"/>
        </g>
<g>
        <polyline stroke="gray" stroke-width="0.002" points="0.24792983625552129,-0.5505786693911499 0.25545945503151407,-0.5567926079601914"><title>ΔE2k = 4.606</title></polyline>
        <circle r="0.002" cx="0.25545945503151407" cy="-0.5567926079601914" fill="white" stroke="red" stroke-width="0.0008"/>
        <circle r="0.003" cx="0.24792983625552129" cy="-0.5505786693911499" fill="#FFCE00"/>
        </g>
<g>
        <polyline stroke="gray" stroke-width="0.002" points="0.17913853799360804,-0.17075972952745364 0.17913852651841988,-0.17075971937541873"><title>ΔE2k = 1.052</title></polyline>
        <circle r="0.002" cx="0.17913852651841988" cy="-0.17075971937541873" fill="white" stroke="red" stroke-width="0.0008"/>
        <circle r="0.003" cx="0.17913853799360804" cy="-0.17075972952745364" fill="#00c"/>
        </g>
<g>
        <polyline stroke="gray" stroke-width="0.002" points="0.15576042554526914,-0.4125017333425756 0.14306980510214237,-0.40542278332402165"><title>ΔE2k = 3.872</title></polyline>
        <circle r="0.002" cx="0.14306980510214237" cy="-0.40542278332402165" fill="white" stroke="red" stroke-width="0.0008"/>
        <circle r="0.003" cx="0.15576042554526914" cy="-0.4125017333425756" fill="#2db0fe"/>
        </g>
<g>
        <polyline stroke="gray" stroke-width="0.002" points="0.19489866450104204,-0.4765465505443908 0.19133652251835542,-0.4753261429438395"><title>ΔE2k = 2.196</title></polyline>
        <circle r="0.002" cx="0.19133652251835542" cy="-0.4753261429438395" fill="white" stroke="red" stroke-width="0.0008"/>
        <circle r="0.003" cx="0.19489866450104204" cy="-0.4765465505443908" fill="#d1eeff"/>
        </g>
<g>
        <polyline stroke="gray" stroke-width="0.002" points="0.15491409251302685,-0.4050710580589761 0.14309640361741738,-0.39513075234688094"><title>ΔE2k = 3.385</title></polyline>
        <circle r="0.002" cx="0.14309640361741738" cy="-0.39513075234688094" fill="white" stroke="red" stroke-width="0.0008"/>
        <circle r="0.003" cx="0.15491409251302685" cy="-0.4050710580589761" fill="#1da0ef"/>
        </g>
<g>
        <polyline stroke="gray" stroke-width="0.002" points="0.3587037921274874,-0.4961905141432008 0.3876343638448092,-0.49650386758870135"><title>ΔE2k = 2.978</title></polyline>
        <circle r="0.002" cx="0.3876343638448092" cy="-0.49650386758870135" fill="white" stroke="red" stroke-width="0.0008"/>
        <circle r="0.003" cx="0.3587037921274874" cy="-0.4961905141432008" fill="#F95974"/>
        </g>
<g>
        <polyline stroke="gray" stroke-width="0.002" points="0.14441081923184096,-0.5024013616111477 0.12431498187285475,-0.5042465322869493"><title>ΔE2k = 4.485</title></polyline>
        <circle r="0.002" cx="0.12431498187285475" cy="-0.5042465322869493" fill="white" stroke="red" stroke-width="0.0008"/>
        <circle r="0.003" cx="0.14441081923184096" cy="-0.5024013616111477" fill="#1BA388"/>
        </g>
<g>
        <polyline stroke="gray" stroke-width="0.002" points="0.21187234603148927,-0.2650567719805943 0.21558610493300745,-0.26072588472884267"><title>ΔE2k = 1.584</title></polyline>
        <circle r="0.002" cx="0.21558610493300745" cy="-0.26072588472884267" fill="white" stroke="red" stroke-width="0.0008"/>
        <circle r="0.003" cx="0.21187234603148927" cy="-0.2650567719805943" fill="#6d3bff"/>
        </g>
<g>
        <polyline stroke="gray" stroke-width="0.002" points="0.20044822315258626,-0.48259369489759624 0.1981071858997258,-0.4819953602287619"><title>ΔE2k = 1.918</title></polyline>
        <circle r="0.002" cx="0.1981071858997258" cy="-0.4819953602287619" fill="rgb(85.814% 94.781% 98.033%)" stroke="gray" stroke-width="0.0008"/>
        <circle r="0.003" cx="0.20044822315258626" cy="-0.48259369489759624" fill="#e3f5fd"/>
        </g>
<g>
        <polyline stroke="gray" stroke-width="0.002" points="0.4219668932708573,-0.5291801492842698 0.46100539194349877,-0.5305846874444266"><title>ΔE2k = 7.14</title></polyline>
        <circle r="0.002" cx="0.46100539194349877" cy="-0.5305846874444266" fill="white" stroke="red" stroke-width="0.0008"/>
        <circle r="0.003" cx="0.4219668932708573" cy="-0.5291801492842698" fill="#ff3900"/>
        </g>
<g>
        <polyline stroke="gray" stroke-width="0.002" points="0.158864667073202,-0.5183084094748981 0.1429199640713884,-0.5222756524736081"><title>ΔE2k = 4.284</title></polyline>
        <circle r="0.002" cx="0.1429199640713884" cy="-0.5222756524736081" fill="rgb(20.666% 98.703% 67.808%)" stroke="gray" stroke-width="0.0008"/>
        <circle r="0.003" cx="0.158864667073202" cy="-0.5183084094748981" fill="#7cf8b3"/>
        </g>
<g>
        <polyline stroke="gray" stroke-width="0.002" points="0.2091600253122414,-0.48807339981260106 0.20914956152241815,-0.4880600800524266"><title>ΔE2k = 0.028</title></polyline>
        <circle r="0.002" cx="0.20914956152241815" cy="-0.4880600800524266" fill="rgb(97.293% 97.301% 97.31%)" stroke="gray" stroke-width="0.0008"/>
        <circle r="0.003" cx="0.2091600253122414" cy="-0.48807339981260106" fill="#f8f8f8"/>
        </g>
<g>
        <polyline stroke="gray" stroke-width="0.002" points="0.21187234603148927,-0.2650567719805943 0.15256616977359874,-0.3226735581290979"><title>ΔE2k = 25.945</title></polyline>
        <circle r="0.002" cx="0.15256616977359874" cy="-0.3226735581290979" fill="white" stroke="red" stroke-width="0.0008"/>
        <circle r="0.003" cx="0.21187234603148927" cy="-0.2650567719805943" fill="#6d3bff"/>
        </g>
<g>
        <polyline stroke="gray" stroke-width="0.002" points="0.32540188680177934,-0.5410531852226302 0.35183744983029513,-0.5448824298916426"><title>ΔE2k = 5.734</title></polyline>
        <circle r="0.002" cx="0.35183744983029513" cy="-0.5448824298916426" fill="white" stroke="red" stroke-width="0.0008"/>
        <circle r="0.003" cx="0.32540188680177934" cy="-0.5410531852226302" fill="#dc7100"/>
        </g>
<g>
        <polyline stroke="gray" stroke-width="0.002" points="0.2132730329550783,-0.491607787843623 0.214302150071807,-0.4919449666564556"><title>ΔE2k = 0.929</title></polyline>
        <circle r="0.002" cx="0.214302150071807" cy="-0.4919449666564556" fill="white" stroke="red" stroke-width="0.0008"/>
        <circle r="0.003" cx="0.2132730329550783" cy="-0.491607787843623" fill="#fff7f1"/>
        </g>
<g>
        <polyline stroke="gray" stroke-width="0.002" points="0.19581932629576995,-0.3470681883066868 0.1951141589798344,-0.3396667211291002"><title>ΔE2k = 0.957</title></polyline>
        <circle r="0.002" cx="0.1951141589798344" cy="-0.3396667211291002" fill="rgb(39.213% 39.216% 89.303%)" stroke="gray" stroke-width="0.0008"/>
        <circle r="0.003" cx="0.19581932629576995" cy="-0.3470681883066868" fill="#6464dc"/>
        </g>
<g>
        <polyline stroke="gray" stroke-width="0.002" points="0.16210900721824345,-0.5030244511616084 0.1478788031494556,-0.5048231202631016"><title>ΔE2k = 3.664</title></polyline>
        <circle r="0.002" cx="0.1478788031494556" cy="-0.5048231202631016" fill="rgb(17.006% 61.654% 50.411%)" stroke="gray" stroke-width="0.0008"/>
        <circle r="0.003" cx="0.16210900721824345" cy="-0.5030244511616084" fill="#509b82"/>
        </g>
<g>
        <polyline stroke="gray" stroke-width="0.002" points="0.30105978413333556,-0.45652052031978596 0.3209237871375078,-0.45502173685670666"><title>ΔE2k = 2.758</title></polyline>
        <circle r="0.002" cx="0.3209237871375078" cy="-0.45502173685670666" fill="rgb(71.815% 28.641% 51.794%)" stroke="gray" stroke-width="0.0008"/>
        <circle r="0.003" cx="0.30105978413333556" cy="-0.45652052031978596" fill="#aa5082"/>
        </g>
<g>
        <polyline stroke="gray" stroke-width="0.002" points="0.32540188680177934,-0.5410531852226302 0.35183744983029513,-0.5448824298916426"><title>ΔE2k = 5.734</title></polyline>
        <circle r="0.002" cx="0.35183744983029513" cy="-0.5448824298916426" fill="white" stroke="red" stroke-width="0.0008"/>
        <circle r="0.003" cx="0.32540188680177934" cy="-0.5410531852226302" fill="#dc7100"/>
        </g>
<g>
        <polyline stroke="gray" stroke-width="0.002" points="0.16210900721824345,-0.5030244511616084 0.1478788031494556,-0.5048231202631016"><title>ΔE2k = 3.664</title></polyline>
        <circle r="0.002" cx="0.1478788031494556" cy="-0.5048231202631016" fill="rgb(17.006% 61.654% 50.411%)" stroke="gray" stroke-width="0.0008"/>
        <circle r="0.003" cx="0.16210900721824345" cy="-0.5030244511616084" fill="#509b82"/>
        </g>
<g>
        <polyline stroke="gray" stroke-width="0.002" points="0.2151832987779554,-0.4864766806593241 0.21678419545556468,-0.48631740689795544"><title>ΔE2k = 1.374</title></polyline>
        <circle r="0.002" cx="0.21678419545556468" cy="-0.48631740689795544" fill="white" stroke="red" stroke-width="0.0008"/>
        <circle r="0.003" cx="0.2151832987779554" cy="-0.4864766806593241" fill="#fff2f7"/>
        </g>
<g>
        <polyline stroke="gray" stroke-width="0.002" points="0.32540188680177934,-0.5410531852226302 0.35183744983029513,-0.5448824298916426"><title>ΔE2k = 5.734</title></polyline>
        <circle r="0.002" cx="0.35183744983029513" cy="-0.5448824298916426" fill="white" stroke="red" stroke-width="0.0008"/>
        <circle r="0.003" cx="0.32540188680177934" cy="-0.5410531852226302" fill="#DC7100"/>
        </g>
<g>
        <polyline stroke="gray" stroke-width="0.002" points="0.16210900721824345,-0.5030244511616084 0.1478788031494556,-0.5048231202631016"><title>ΔE2k = 3.664</title></polyline>
        <circle r="0.002" cx="0.1478788031494556" cy="-0.5048231202631016" fill="rgb(17.006% 61.654% 50.411%)" stroke="gray" stroke-width="0.0008"/>
        <circle r="0.003" cx="0.16210900721824345" cy="-0.5030244511616084" fill="#509B82"/>
        </g>
<g>
        <polyline stroke="gray" stroke-width="0.002" points="0.30105978413333556,-0.45652052031978596 0.3209237871375078,-0.45502173685670666"><title>ΔE2k = 2.758</title></polyline>
        <circle r="0.002" cx="0.3209237871375078" cy="-0.45502173685670666" fill="rgb(71.815% 28.641% 51.794%)" stroke="gray" stroke-width="0.0008"/>
        <circle r="0.003" cx="0.30105978413333556" cy="-0.45652052031978596" fill="#AA5082"/>
        </g>
<g>
        <polyline stroke="gray" stroke-width="0.002" points="0.20618109947976818,-0.48469286656019295 0.2054296101635653,-0.48434408765932896"><title>ΔE2k = 0.193</title></polyline>
        <circle r="0.002" cx="0.2054296101635653" cy="-0.48434408765932896" fill="rgb(11.674% 12.173% 12.596%)" stroke="gray" stroke-width="0.0008"/>
        <circle r="0.003" cx="0.20618109947976818" cy="-0.48469286656019295" fill="#1e1f20"/>
        </g>
<g>
        <polyline stroke="gray" stroke-width="0.002" points="0.1604840893049303,-0.3794830233527904 0.15030861011625518,-0.3707982858117754"><title>ΔE2k = 2.297</title></polyline>
        <circle r="0.002" cx="0.15030861011625518" cy="-0.3707982858117754" fill="white" stroke="red" stroke-width="0.0008"/>
        <circle r="0.003" cx="0.1604840893049303" cy="-0.3794830233527904" fill="#082e54"/>
        </g>
<g>
        <polyline stroke="gray" stroke-width="0.002" points="0.41048328959821306,-0.5179287583903941 0.4478307503267528,-0.5189960509883873"><title>ΔE2k = 3.59</title></polyline>
        <circle r="0.002" cx="0.4478307503267528" cy="-0.5189960509883873" fill="rgb(94.475% 5.138% 14.975%)" stroke="gray" stroke-width="0.0008"/>
        <circle r="0.003" cx="0.41048328959821306" cy="-0.5179287583903941" fill="#dd3333"/>
        </g>
<g>
        <polyline stroke="gray" stroke-width="0.002" points="0.18651896898944037,-0.4446016407058164 0.18142352404901668,-0.4404437800083111"><title>ΔE2k = 1.882</title></polyline>
        <circle r="0.002" cx="0.18142352404901668" cy="-0.4404437800083111" fill="rgb(28.759% 39.501% 52.515%)" stroke="gray" stroke-width="0.0008"/>
        <circle r="0.003" cx="0.18651896898944037" cy="-0.4446016407058164" fill="#4f6483"/>
        </g>
<g>
        <polyline stroke="gray" stroke-width="0.002" points="0.20578435447892604,-0.4842299589620408 0.2050129607241242,-0.4837708295621876"><title>ΔE2k = 0.666</title></polyline>
        <circle r="0.002" cx="0.2050129607241242" cy="-0.4837708295621876" fill="rgb(84.965% 87.896% 90.484%)" stroke="gray" stroke-width="0.0008"/>
        <circle r="0.003" cx="0.20578435447892604" cy="-0.4842299589620408" fill="#dae0e6"/>
        </g>
<g>
        <polyline stroke="gray" stroke-width="0.002" points="0.21334292257497622,-0.48770820552573263 0.21439642137791498,-0.48763596976886875"><title>ΔE2k = 1.003</title></polyline>
        <circle r="0.002" cx="0.21439642137791498" cy="-0.48763596976886875" fill="white" stroke="red" stroke-width="0.0008"/>
        <circle r="0.003" cx="0.21334292257497622" cy="-0.48770820552573263" fill="#fff6f8"/>
        </g>
<g>
        <polyline stroke="gray" stroke-width="0.002" points="0.28633004420182484,-0.5458572173283577 0.29774316525848127,-0.5519671667997744"><title>ΔE2k = 5.777</title></polyline>
        <circle r="0.002" cx="0.29774316525848127" cy="-0.5519671667997744" fill="white" stroke="red" stroke-width="0.0008"/>
        <circle r="0.003" cx="0.28633004420182484" cy="-0.5458572173283577" fill="#FFA500"/>
        </g>
<g>
        <polyline stroke="gray" stroke-width="0.002" points="0.24792983625552129,-0.5505786693911499 0.25545945503151407,-0.5567926079601914"><title>ΔE2k = 4.606</title></polyline>
        <circle r="0.002" cx="0.25545945503151407" cy="-0.5567926079601914" fill="white" stroke="red" stroke-width="0.0008"/>
        <circle r="0.003" cx="0.24792983625552129" cy="-0.5505786693911499" fill="#FFCE00"/>
        </g>
<g>
        <polyline stroke="gray" stroke-width="0.002" points="0.20916002531224143,-0.4880733998126011 0.20914956152241818,-0.48806008005242674"><title>ΔE2k = 0.033</title></polyline>
        <circle r="0.002" cx="0.20914956152241818" cy="-0.48806008005242674" fill="rgb(12.899% 12.9% 12.902%)" stroke="gray" stroke-width="0.0008"/>
        <circle r="0.003" cx="0.20916002531224143" cy="-0.4880733998126011" fill="#212121"/>
        </g>
<g>
        <polyline stroke="gray" stroke-width="0.002" points="0.2091600253122414,-0.48807339981260117 0.20914956152241815,-0.4880600800524267"><title>ΔE2k = 0.014</title></polyline>
        <circle r="0.002" cx="0.20914956152241815" cy="-0.4880600800524267" fill="rgb(74.495% 74.501% 74.508%)" stroke="gray" stroke-width="0.0008"/>
        <circle r="0.003" cx="0.2091600253122414" cy="-0.48807339981260117" fill="#bebebe"/>
        </g>
<g>
        <polyline stroke="gray" stroke-width="0.002" points="0.21530972818520067,-0.5530730038985275 0.21604236942292146,-0.5609362881743944"><title>ΔE2k = 4.456</title></polyline>
        <circle r="0.002" cx="0.21604236942292146" cy="-0.5609362881743944" fill="white" stroke="red" stroke-width="0.0008"/>
        <circle r="0.003" cx="0.21530972818520067" cy="-0.5530730038985275" fill="#ee2"/>
        </g>
<g>
        <polyline stroke="gray" stroke-width="0.002" points="0.2097482503379477,-0.49429067478900024 0.2097962266701649,-0.4948971346421787"><title>ΔE2k = 0.481</title></polyline>
        <circle r="0.002" cx="0.2097962266701649" cy="-0.4948971346421787" fill="rgb(92.893% 92.901% 87.729%)" stroke="gray" stroke-width="0.0008"/>
        <circle r="0.003" cx="0.2097482503379477" cy="-0.49429067478900024" fill="#edede1"/>
        </g>
<g>
        <polyline stroke="gray" stroke-width="0.002" points="0.21709062714031743,-0.5543704678026445 0.21832763381822146,-0.5623682313692998"><title>ΔE2k = 5.012</title></polyline>
        <circle r="0.002" cx="0.21832763381822146" cy="-0.5623682313692998" fill="white" stroke="red" stroke-width="0.0008"/>
        <circle r="0.003" cx="0.21709062714031743" cy="-0.5543704678026445" fill="#fffc00"/>
        </g>
<g>
        <polyline stroke="gray" stroke-width="0.002" points="0.20916002531224145,-0.48807339981260117 0.20914956152241815,-0.48806008005242657"><title>ΔE2k = 0.005</title></polyline>
        <circle r="0.002" cx="0.20914956152241815" cy="-0.48806008005242657" fill="rgb(19.998% 20% 20.003%)" stroke="gray" stroke-width="0.0008"/>
        <circle r="0.003" cx="0.20916002531224145" cy="-0.48807339981260117" fill="#333"/>
        </g>
<g>
        <polyline stroke="gray" stroke-width="0.002" points="0.32822099172532077,-0.39049073534038764 0.3504803834784012,-0.38923742780983955"><title>ΔE2k = 2.236</title></polyline>
        <circle r="0.002" cx="0.3504803834784012" cy="-0.38923742780983955" fill="rgb(44.724% 0.068% 38.857%)" stroke="gray" stroke-width="0.0008"/>
        <circle r="0.003" cx="0.32822099172532077" cy="-0.39049073534038764" fill="#681160"/>
        </g>
<g>
        <polyline stroke="gray" stroke-width="0.002" points="0.41376810126850205,-0.48785305244985894 0.4495179034938798,-0.48811083524681453"><title>ΔE2k = 3.311</title></polyline>
        <circle r="0.002" cx="0.4495179034938798" cy="-0.48811083524681453" fill="white" stroke="red" stroke-width="0.0008"/>
        <circle r="0.003" cx="0.41376810126850205" cy="-0.48785305244985894" fill="#e91e63"/>
        </g>
<g>
        <polyline stroke="gray" stroke-width="0.002" points="0.21020540428259726,-0.48822842493659924 0.21032828380068513,-0.48821285672630166"><title>ΔE2k = 0.134</title></polyline>
        <circle r="0.002" cx="0.21032828380068513" cy="-0.48821285672630166" fill="rgb(87.95% 87.071% 87.095%)" stroke="gray" stroke-width="0.0008"/>
        <circle r="0.003" cx="0.21020540428259726" cy="-0.48822842493659924" fill="#e0dede"/>
        </g>
<g>
        <polyline stroke="gray" stroke-width="0.002" points="0.15307932099434018,-0.4019669120788456 0.14231452557510801,-0.3974691250947754"><title>ΔE2k = 3.423</title></polyline>
        <circle r="0.002" cx="0.14231452557510801" cy="-0.3974691250947754" fill="white" stroke="red" stroke-width="0.0008"/>
        <circle r="0.003" cx="0.15307932099434018" cy="-0.4019669120788456" fill="#00a1f3"/>
        </g>
<g>
        <polyline stroke="gray" stroke-width="0.002" points="0.22013229843410592,-0.25757651286851274 0.22543492267382068,-0.2545241560465934"><title>ΔE2k = 1.528</title></polyline>
        <circle r="0.002" cx="0.22543492267382068" cy="-0.2545241560465934" fill="rgb(38.778% 11.805% 82.808%)" stroke="gray" stroke-width="0.0008"/>
        <circle r="0.003" cx="0.22013229843410592" cy="-0.25757651286851274" fill="#5b23cb"/>
        </g>
<g>
        <polyline stroke="gray" stroke-width="0.002" points="0.13663035763768958,-0.549133217250057 0.11150838405929195,-0.5585013958840693"><title>ΔE2k = 4.958</title></polyline>
        <circle r="0.002" cx="0.11150838405929195" cy="-0.5585013958840693" fill="white" stroke="red" stroke-width="0.0008"/>
        <circle r="0.003" cx="0.13663035763768958" cy="-0.549133217250057" fill="#03d658"/>
        </g>
<g>
        <polyline stroke="gray" stroke-width="0.002" points="0.20044822315258626,-0.48259369489759624 0.1981071858997258,-0.4819953602287619"><title>ΔE2k = 1.918</title></polyline>
        <circle r="0.002" cx="0.1981071858997258" cy="-0.4819953602287619" fill="rgb(85.814% 94.781% 98.033%)" stroke="gray" stroke-width="0.0008"/>
        <circle r="0.003" cx="0.20044822315258626" cy="-0.48259369489759624" fill="#e3f5fd"/>
        </g>
<g>
        <polyline stroke="gray" stroke-width="0.002" points="0.4219668932708573,-0.5291801492842698 0.46100539194349877,-0.5305846874444266"><title>ΔE2k = 7.14</title></polyline>
        <circle r="0.002" cx="0.46100539194349877" cy="-0.5305846874444266" fill="white" stroke="red" stroke-width="0.0008"/>
        <circle r="0.003" cx="0.4219668932708573" cy="-0.5291801492842698" fill="#ff3900"/>
        </g>
<g>
        <polyline stroke="gray" stroke-width="0.002" points="0.2091600253122414,-0.48807339981260106 0.20914956152241815,-0.4880600800524266"><title>ΔE2k = 0.028</title></polyline>
        <circle r="0.002" cx="0.20914956152241815" cy="-0.4880600800524266" fill="rgb(97.293% 97.301% 97.31%)" stroke="gray" stroke-width="0.0008"/>
        <circle r="0.003" cx="0.2091600253122414" cy="-0.48807339981260106" fill="#f8f8f8"/>
        </g>
<g>
        <polyline stroke="gray" stroke-width="0.002" points="0.2897068772766492,-0.5398523036735582 0.30910291647774124,-0.5442887116269863"><title>ΔE2k = 3.921</title></polyline>
        <circle r="0.002" cx="0.30910291647774124" cy="-0.5442887116269863" fill="white" stroke="red" stroke-width="0.0008"/>
        <circle r="0.003" cx="0.2897068772766492" cy="-0.5398523036735582" fill="#f29832"/>
        </g>
<g>
        <polyline stroke="gray" stroke-width="0.002" points="0.14409100707581327,-0.5199142373797527 0.12314162472620378,-0.5241055901040267"><title>ΔE2k = 4.604</title></polyline>
        <circle r="0.002" cx="0.12314162472620378" cy="-0.5241055901040267" fill="white" stroke="red" stroke-width="0.0008"/>
        <circle r="0.003" cx="0.14409100707581327" cy="-0.5199142373797527" fill="#26ad79"/>
        </g>
<g>
        <polyline stroke="gray" stroke-width="0.002" points="0.2091600253122414,-0.48807339981260106 0.2091495615224181,-0.48806008005242657"><title>ΔE2k = 0.015</title></polyline>
        <circle r="0.002" cx="0.2091495615224181" cy="-0.48806008005242657" fill="white" stroke="red" stroke-width="0.0008"/>
        <circle r="0.003" cx="0.2091600253122414" cy="-0.48807339981260106" fill="rgb(255, 255, 255)"/>
        </g>
<g>
        <polyline stroke="gray" stroke-width="0.002" points="0.20891490670700194,-0.48548260597689885 0.2088807086634318,-0.48521755532397104"><title>ΔE2k = 0.234</title></polyline>
        <circle r="0.002" cx="0.2088807086634318" cy="-0.48521755532397104" fill="rgb(94.893% 94.901% 97.06%)" stroke="gray" stroke-width="0.0008"/>
        <circle r="0.003" cx="0.20891490670700194" cy="-0.48548260597689885" fill="rgb(242, 242, 247)"/>
        </g>
<g>
        <polyline stroke="gray" stroke-width="0.002" points="0.2087900315352585,-0.4841627313600008 0.2087406918562936,-0.4837371870727636"><title>ΔE2k = 0.137</title></polyline>
        <circle r="0.002" cx="0.2087406918562936" cy="-0.4837371870727636" fill="rgb(21.168% 21.17% 22.039%)" stroke="gray" stroke-width="0.0008"/>
        <circle r="0.003" cx="0.2087900315352585" cy="-0.4841627313600008" fill="rgb(54, 54, 56)"/>
        </g>
<g>
        <polyline stroke="gray" stroke-width="0.002" points="0.20875646318077898,-0.4838079288929455 0.2087071166987049,-0.4833822039936631"><title>ΔE2k = 0.25</title></polyline>
        <circle r="0.002" cx="0.2087071166987049" cy="-0.4833822039936631" fill="rgb(55.676% 55.681% 57.834%)" stroke="gray" stroke-width="0.0008"/>
        <circle r="0.003" cx="0.20875646318077898" cy="-0.4838079288929455" fill="rgb(142, 142, 147)"/>
        </g>
<g>
        <polyline stroke="gray" stroke-width="0.002" points="0.16092328333622974,-0.3323723255201449 0.15253622010220236,-0.32284478003443856"><title>ΔE2k = 2.847</title></polyline>
        <circle r="0.002" cx="0.15253622010220236" cy="-0.32284478003443856" fill="white" stroke="red" stroke-width="0.0008"/>
        <circle r="0.003" cx="0.16092328333622974" cy="-0.3323723255201449" fill="rgb(0, 122, 255)"/>
        </g>
<g>
        <polyline stroke="gray" stroke-width="0.002" points="0.20890172186636788,-0.48534324811866564 0.20886625328348746,-0.48506472163231523"><title>ΔE2k = 0.236</title></polyline>
        <circle r="0.002" cx="0.20886625328348746" cy="-0.48506472163231523" fill="rgb(89.794% 89.801% 91.959%)" stroke="gray" stroke-width="0.0008"/>
        <circle r="0.003" cx="0.20890172186636788" cy="-0.48534324811866564" fill="rgb(229, 229, 234)"/>
        </g>
<g>
        <polyline stroke="gray" stroke-width="0.002" points="0.41466789062103965,-0.5217630599407703 0.4526652244211108,-0.5229333235248036"><title>ΔE2k = 3.996</title></polyline>
        <circle r="0.002" cx="0.4526652244211108" cy="-0.5229333235248036" fill="white" stroke="red" stroke-width="0.0008"/>
        <circle r="0.003" cx="0.41466789062103965" cy="-0.5217630599407703" fill="rgb(255, 59, 48)"/>
        </g>
<g>
        <polyline stroke="gray" stroke-width="0.002" points="0.151886494932406,-0.41255011390956126 0.13809684010323822,-0.4053945390163268"><title>ΔE2k = 3.488</title></polyline>
        <circle r="0.002" cx="0.13809684010323822" cy="-0.4053945390163268" fill="white" stroke="red" stroke-width="0.0008"/>
        <circle r="0.003" cx="0.151886494932406" cy="-0.41255011390956126" fill="rgb(0, 113, 164)"/>
        </g>
<g>
        <polyline stroke="gray" stroke-width="0.002" points="0.14383373622582807,-0.5448313987377363 0.12155897410234251,-0.5532462309524582"><title>ΔE2k = 4.257</title></polyline>
        <circle r="0.002" cx="0.12155897410234251" cy="-0.5532462309524582" fill="white" stroke="red" stroke-width="0.0008"/>
        <circle r="0.003" cx="0.14383373622582807" cy="-0.5448313987377363" fill="rgb(36, 138, 61)"/>
        </g>
<g>
        <polyline stroke="gray" stroke-width="0.002" points="0.19485153952315498,-0.3243805588592009 0.19438153270111844,-0.3169871658002032"><title>ΔE2k = 0.949</title></polyline>
        <circle r="0.002" cx="0.19438153270111844" cy="-0.3169871658002032" fill="rgb(34.67% 33.687% 87.005%)" stroke="gray" stroke-width="0.0008"/>
        <circle r="0.003" cx="0.19485153952315498" cy="-0.3243805588592009" fill="rgb(88, 86, 214)"/>
        </g>
<g>
        <polyline stroke="gray" stroke-width="0.002" points="0.26263720544512364,-0.3651108544286588 0.2747299684618888,-0.3610636966575169"><title>ΔE2k = 2.5</title></polyline>
        <circle r="0.002" cx="0.2747299684618888" cy="-0.3610636966575169" fill="rgb(73.926% 29.309% 89.989%)" stroke="gray" stroke-width="0.0008"/>
        <circle r="0.003" cx="0.26263720544512364" cy="-0.3651108544286588" fill="rgb(175, 82, 222)"/>
        </g>
<g>
        <polyline stroke="gray" stroke-width="0.002" points="0.30442141477934337,-0.5436328142977436 0.32692507176608143,-0.5481452079418183"><title>ΔE2k = 5.57</title></polyline>
        <circle r="0.002" cx="0.32692507176608143" cy="-0.5481452079418183" fill="white" stroke="red" stroke-width="0.0008"/>
        <circle r="0.003" cx="0.30442141477934337" cy="-0.5436328142977436" fill="rgb(255, 149, 0)"/>
        </g>
<g>
        <polyline stroke="gray" stroke-width="0.002" points="0.20886792728238227,-0.4849860545070896 0.2088308286457742,-0.4846901843888726"><title>ΔE2k = 0.115</title></polyline>
        <circle r="0.002" cx="0.2088308286457742" cy="-0.4846901843888726" fill="rgb(28.228% 28.23% 29.089%)" stroke="gray" stroke-width="0.0008"/>
        <circle r="0.003" cx="0.20886792728238227" cy="-0.4849860545070896" fill="rgb(72, 72, 74)"/>
        </g>

    </g>
</svg>
