<svg xmlns="http://www.w3.org/2000/svg" viewBox="-0.1 -0.7 0.8 0.8" overflow="visible">
<desc>Show u*,v* UCS diagram
with the gamuts of sRGB and display-p3.
</desc>
<style>
g > circle:hover {
    r: 0.007px;
}
</style>
<!-- tongue -->
<path fill="none" stroke="black" stroke-width="0.003" d="M 0.256804  -0.016594
  L 0.256637  -0.016593
  L 0.256418  -0.016266
  L 0.256085  -0.016263
  L 0.255699  -0.015935
  L 0.255200  -0.015932
  L 0.254535  -0.015927
  L 0.253704  -0.015921
  L 0.252207  -0.016885
  L 0.249615  -0.019128
  L 0.246120  -0.022623
  L 0.241063  -0.027948
  L 0.234690  -0.035011
  L 0.226630  -0.043680
  L 0.216060  -0.054946
  L 0.203340  -0.068779
  L 0.187720  -0.087114
  L 0.168963  -0.111946
  L 0.144076  -0.150984
  L 0.114692  -0.204374
  L 0.082816  -0.270829
  L 0.052134  -0.342686
  L 0.028159  -0.411679
  L 0.011891  -0.469843
  L 0.003473  -0.513066
  L 0.001438  -0.543162
  L 0.004643  -0.563843
  L 0.005859  -0.567036
  L 0.007213  -0.569939
  L 0.008771  -0.572575
  L 0.010438  -0.574905
  L 0.012285  -0.576969
  L 0.014220  -0.578754
  L 0.016315  -0.580309
  L 0.018482  -0.581618
  L 0.020756  -0.582743
  L 0.023116  -0.583667
  L 0.025566  -0.584422
  L 0.028050  -0.585009
  L 0.030633  -0.585478
  L 0.033285  -0.585851
  L 0.036008  -0.586142
  L 0.050059  -0.586754
  L 0.064335  -0.586523
  L 0.079224  -0.585616
  L 0.095269  -0.584113
  L 0.112701  -0.582069
  L 0.131858  -0.579553
  L 0.153101  -0.576592
  L 0.176586  -0.573182
  L 0.202596  -0.569364
  L 0.231170  -0.565107
  L 0.262343  -0.560441
  L 0.295958  -0.555411
  L 0.331527  -0.550115
  L 0.368060  -0.544626
  L 0.403475  -0.539334
  L 0.437943  -0.534187
  L 0.469171  -0.529561
  L 0.496768  -0.525419
  L 0.520257  -0.521894
  L 0.539920  -0.518977
  L 0.556503  -0.516489
  L 0.570880  -0.514332
  L 0.583036  -0.512508
  L 0.592866  -0.511070
  L 0.600496  -0.509926
  L 0.606437  -0.509035
  L 0.610879  -0.508368
  L 0.613777  -0.507933
  L 0.616162  -0.507576
  L 0.618025  -0.507296
  L 0.619897  -0.507015
  L 0.621507  -0.506774
  L 0.622584  -0.506612
  L 0.623123  -0.506531
  L 0.623393  -0.506491
  L 0.623393  -0.506491
  L 0.623393  -0.506491
  L 0.623393  -0.506491
  L 0.623393  -0.506491
  L 0.623393  -0.506491
  L 0.623393  -0.506491
  L 0.623393  -0.506491
  L 0.623393  -0.506491
  L 0.623393  -0.506491
  L 0.623393  -0.506491
  L 0.623393  -0.506491
  L 0.623393  -0.506491
  L 0.623393  -0.506491
  L 0.623393  -0.506491
  L 0.623393  -0.506491
  L 0.623393  -0.506491
  Z"/>

    <!-- sRGB  -->
  <polygon fill="none" stroke="#CCC" stroke-dasharray="0.004 0.003" stroke-width="0.004" points="0.45070, -0.522887 0.125, -0.5625 0.17544, -0.15789"/>
  <circle r="0.006" cx="0.45070" cy="-0.522887" fill="red" fill-opacity="0.4"/>
  <circle r="0.006" cx="0.12500" cy="-0.56250" fill="green"  fill-opacity="0.4"/>
  <circle r="0.006" cx="0.17544" cy="-0.15789" fill="blue"  fill-opacity="0.4"/>
  <circle r="0.006" cx="0.20394" cy="-0.552899" fill="yellow" fill-opacity="0.4"/>
  <circle r="0.006" cx="0.13834" cy="-0.45550" fill="cyan"  fill-opacity="0.4"/>
  <circle r="0.006" cx="0.30504" cy="-0.32975" fill="magenta"  fill-opacity="0.4"/>
  <circle r="0.006" cx="0.20916" cy="-0.48807" fill="white" stroke="#777" stroke-width="0.002"/>

<!-- display-p3 -->
  <polygon fill="none" stroke="#555" stroke-dasharray="0.006 0.003" stroke-width="0.004" points="0.49635, -0.52554 0.09860, -0.57767 0.17544, -0.15789"/>
  <circle r="0.006" cx="0.49635" cy="-0.52554" fill="red" />
  <circle r="0.006" cx="0.09860" cy="-0.57767" fill="green" />
  <circle r="0.006" cx="0.17544" cy="-0.15789" fill="blue" />
  <circle r="0.006" cx="0.20471" cy="-0.56377" fill="yellow" />
  <circle r="0.006" cx="0.12130" cy="-0.45365" fill="cyan" />
  <circle r="0.006" cx="0.32452" cy="-0.32869" fill="magenta" />

  <!-- pairs of sRGB, P3 colors -->
<g>
        <polyline stroke="gray" stroke-width="0.0015" points="0.19783982482140777,0.4683363029324097 0.19783982482140777,0.4683363029324097"/>
        <circle r="0.002" cx="0.19783982482140777" cy="0.4683363029324097" fill="rgb(0% 0% 0%)" stroke="gray" stroke-width="0.0008"/>
        <circle r="0.003" cx="0.19783982482140777" cy="0.4683363029324097" fill="rgba(0,0,0,1)"/>
        </g>
<g>
        <polyline stroke="gray" stroke-width="0.0015" points="0.2091600253122414,-0.48807339981260106 0.2091495615224181,-0.48806008005242657"/>
        <circle r="0.002" cx="0.2091495615224181" cy="-0.48806008005242657" fill="white" stroke="red" stroke-width="0.0008"/>
        <circle r="0.003" cx="0.2091600253122414" cy="-0.48807339981260106" fill="rgba(255,255,255,1)"/>
        </g>
<g>
        <polyline stroke="gray" stroke-width="0.0015" points="0.20916002531224134,-0.4880733998126011 0.20914956152241815,-0.4880600800524267"/>
        <circle r="0.002" cx="0.20914956152241815" cy="-0.4880600800524267" fill="rgb(77.994% 78.001% 78.008%)" stroke="gray" stroke-width="0.0008"/>
        <circle r="0.003" cx="0.20916002531224134" cy="-0.4880733998126011" fill="rgba(200,200,200,1)"/>
        </g>
<g>
        <polyline stroke="gray" stroke-width="0.0015" points="0.20359166435909015,-0.48249455399225705 0.20315967129606843,-0.48198340256850286"/>
        <circle r="0.002" cx="0.20315967129606843" cy="-0.48198340256850286" fill="rgb(47.532% 50.082% 52.233%)" stroke="gray" stroke-width="0.0008"/>
        <circle r="0.003" cx="0.20359166435909015" cy="-0.48249455399225705" fill="rgba(121,127,132,1)"/>
        </g>
<g>
        <polyline stroke="gray" stroke-width="0.0015" points="0.24772494468473377,-0.5449737684713706 0.2583007365192628,-0.5505917685153053"/>
        <circle r="0.002" cx="0.2583007365192628" cy="-0.5505917685153053" fill="white" stroke="red" stroke-width="0.0008"/>
        <circle r="0.003" cx="0.24772494468473377" cy="-0.5449737684713706" fill="rgba(255,205,63,1) "/>
        </g>
<g>
        <polyline stroke="gray" stroke-width="0.0015" points="0.2657390543673375,-0.5436194823824541 0.2819415546154588,-0.5499230807470945"/>
        <circle r="0.002" cx="0.2819415546154588" cy="-0.5499230807470945" fill="white" stroke="red" stroke-width="0.0008"/>
        <circle r="0.003" cx="0.2657390543673375" cy="-0.5436194823824541" fill="rgba(241,174,50,1)"/>
        </g>
<g>
        <polyline stroke="gray" stroke-width="0.0015" points="0.2622641712294289,-0.545836253032629 0.2752203052685002,-0.5514526358061522"/>
        <circle r="0.002" cx="0.2752203052685002" cy="-0.5514526358061522" fill="white" stroke="red" stroke-width="0.0008"/>
        <circle r="0.003" cx="0.2622641712294289" cy="-0.545836253032629" fill="rgba(245,181,40,1)"/>
        </g>
<g>
        <polyline stroke="gray" stroke-width="0.0015" points="0.22928965112052704,-0.31867243658015504 0.2357501934190448,-0.31545101138633763"/>
        <circle r="0.002" cx="0.2357501934190448" cy="-0.31545101138633763" fill="white" stroke="red" stroke-width="0.0008"/>
        <circle r="0.003" cx="0.22928965112052704" cy="-0.31867243658015504" fill="rgb(147, 83, 255)"/>
        </g>
<g>
        <polyline stroke="gray" stroke-width="0.0015" points="0.23007625023826303,-0.23563276381337334 0.23689017535823342,-0.23484531872034484"/>
        <circle r="0.002" cx="0.23689017535823342" cy="-0.23484531872034484" fill="white" stroke="red" stroke-width="0.0008"/>
        <circle r="0.003" cx="0.23007625023826303" cy="-0.23563276381337334" fill="rgba(120,0,255,1)"/>
        </g>
<g>
        <polyline stroke="gray" stroke-width="0.0015" points="0.23146737508086365,-0.24071027328550051 0.23755973722892737,-0.23822792938373305"/>
        <circle r="0.002" cx="0.23755973722892737" cy="-0.23822792938373305" fill="white" stroke="red" stroke-width="0.0008"/>
        <circle r="0.003" cx="0.23146737508086365" cy="-0.24071027328550051" fill="rgba(75,3,161,1)"/>
        </g>
<g>
        <polyline stroke="gray" stroke-width="0.0015" points="0.457168524947524,-0.5248519743763146 0.4989244868625486,-0.5256184176541439"/>
        <circle r="0.002" cx="0.4989244868625486" cy="-0.5256184176541439" fill="white" stroke="red" stroke-width="0.0008"/>
        <circle r="0.003" cx="0.457168524947524" cy="-0.5248519743763146" fill="rgba(255,0,0,0.85)"/>
        </g>
<g>
        <polyline stroke="gray" stroke-width="0.0015" points="0.21920318536008307,-0.37714140845845767 0.22349134574735613,-0.3705623560238686"/>
        <circle r="0.002" cx="0.22349134574735613" cy="-0.3705623560238686" fill="rgb(34.501% 24.596% 54.786%)" stroke="gray" stroke-width="0.0008"/>
        <circle r="0.003" cx="0.21920318536008307" cy="-0.37714140845845767" fill="rgba(84,64,135,1)"/>
        </g>
<g>
        <polyline stroke="gray" stroke-width="0.0015" points="0.21929772752314766,-0.38490232254623635 0.22342864883457228,-0.3795049291587542"/>
        <circle r="0.002" cx="0.22342864883457228" cy="-0.3795049291587542" fill="rgb(53.088% 39.452% 80.472%)" stroke="gray" stroke-width="0.0008"/>
        <circle r="0.003" cx="0.21929772752314766" cy="-0.38490232254623635" fill="rgba(131,103,201,1)"/>
        </g>
<g>
        <polyline stroke="gray" stroke-width="0.0015" points="0.15539351414565153,-0.46139483123383535 0.139451918801146,-0.4633616241338665"/>
        <circle r="0.002" cx="0.139451918801146" cy="-0.4633616241338665" fill="white" stroke="red" stroke-width="0.0008"/>
        <circle r="0.003" cx="0.15539351414565153" cy="-0.46139483123383535" fill="rgba(68,185,208,1)"/>
        </g>
<g>
        <polyline stroke="gray" stroke-width="0.0015" points="0.4428583106182949,-0.5066268326510627 0.4822371337388681,-0.5071008679755579"/>
        <circle r="0.002" cx="0.4822371337388681" cy="-0.5071008679755579" fill="white" stroke="red" stroke-width="0.0008"/>
        <circle r="0.003" cx="0.4428583106182949" cy="-0.5066268326510627" fill="rgb(255,0,72)"/>
        </g>
<g>
        <polyline stroke="gray" stroke-width="0.0015" points="0.21709062714031743,-0.5543704678026445 0.21832763381822146,-0.5623682313692998"/>
        <circle r="0.002" cx="0.21832763381822146" cy="-0.5623682313692998" fill="white" stroke="red" stroke-width="0.0008"/>
        <circle r="0.003" cx="0.21709062714031743" cy="-0.5543704678026445" fill="#fffc00"/>
        </g>
<g>
        <polyline stroke="gray" stroke-width="0.0015" points="0.21187234603148927,-0.2650567719805943 0.21558610493300745,-0.26072588472884267"/>
        <circle r="0.002" cx="0.21558610493300745" cy="-0.26072588472884267" fill="white" stroke="red" stroke-width="0.0008"/>
        <circle r="0.003" cx="0.21187234603148927" cy="-0.2650567719805943" fill="#6d3bff"/>
        </g>
<g>
        <polyline stroke="gray" stroke-width="0.0015" points="0.13663035763768958,-0.549133217250057 0.11150838405929195,-0.5585013958840693"/>
        <circle r="0.002" cx="0.11150838405929195" cy="-0.5585013958840693" fill="white" stroke="red" stroke-width="0.0008"/>
        <circle r="0.003" cx="0.13663035763768958" cy="-0.549133217250057" fill="#03d658"/>
        </g>
<g>
        <polyline stroke="gray" stroke-width="0.0015" points="0.4219668932708573,-0.5291801492842698 0.46100539194349877,-0.5305846874444266"/>
        <circle r="0.002" cx="0.46100539194349877" cy="-0.5305846874444266" fill="white" stroke="red" stroke-width="0.0008"/>
        <circle r="0.003" cx="0.4219668932708573" cy="-0.5291801492842698" fill="#ff3900"/>
        </g>
<g>
        <polyline stroke="gray" stroke-width="0.0015" points="0.158864667073202,-0.5183084094748981 0.1429199640713884,-0.5222756524736081"/>
        <circle r="0.002" cx="0.1429199640713884" cy="-0.5222756524736081" fill="rgb(20.666% 98.703% 67.808%)" stroke="gray" stroke-width="0.0008"/>
        <circle r="0.003" cx="0.158864667073202" cy="-0.5183084094748981" fill="#7cf8b3"/>
        </g>
<g>
        <polyline stroke="gray" stroke-width="0.0015" points="0.2091600253122414,-0.48807339981260106 0.20914956152241815,-0.4880600800524266"/>
        <circle r="0.002" cx="0.20914956152241815" cy="-0.4880600800524266" fill="rgb(97.293% 97.301% 97.31%)" stroke="gray" stroke-width="0.0008"/>
        <circle r="0.003" cx="0.2091600253122414" cy="-0.48807339981260106" fill="#f8f8f8"/>
        </g>
<g>
        <polyline stroke="gray" stroke-width="0.0015" points="0.20044822315258626,-0.48259369489759624 0.1981071858997258,-0.4819953602287619"/>
        <circle r="0.002" cx="0.1981071858997258" cy="-0.4819953602287619" fill="rgb(85.814% 94.781% 98.033%)" stroke="gray" stroke-width="0.0008"/>
        <circle r="0.003" cx="0.20044822315258626" cy="-0.48259369489759624" fill="#e3f5fd"/>
        </g>
<g>
        <polyline stroke="gray" stroke-width="0.0015" points="0.38852397086964846,-0.5231246337876657 0.42369053126672396,-0.5246704085650638"/>
        <circle r="0.002" cx="0.42369053126672396" cy="-0.5246704085650638" fill="rgb(98.406% 20.26% 12.445%)" stroke="gray" stroke-width="0.0008"/>
        <circle r="0.003" cx="0.38852397086964846" cy="-0.5231246337876657" fill="#e74832"/>
        </g>

  <!-- <polyline stroke="gray" stroke-width="0.0015" points="0.21920318536008307,-0.37714140845845767 0.22349134574735613, -0.3705623560238686"/>
  <circle r="0.002" cx="0.22349134574735613" cy="-0.3705623560238686" fill="white" stroke="gray" stroke-width="0.0008"/>
  <circle r="0.002" cx="0.21920318536008307" cy="-0.37714140845845767" fill="rgba(84,64,135,1)"/> -->




  </svg>