<svg xmlns="http://www.w3.org/2000/svg" width="600" height="1000"><rect width="600" height="1000" x="0" y="0" fill="#FFFFFF" id="background"/><g transform="translate(40,20)" id="visualization"><g><rect x="0" y="0" height="55.31915655136166" width="5" fill="black"><title>potentialAction: 3251780</title></rect><rect x="515" y="0" height="53.80823918022671" width="5" fill="black"><title>ImageObject: 3162965</title></rect><rect x="515" y="68.8082391802267" height="40.68128222468738" width="5" fill="black"><title>Organization: 2391334</title></rect><rect x="0" y="70.31915655136166" height="37.31874892708652" width="5" fill="black"><title>itemListElement: 2193677</title></rect><rect x="515" y="124.48952140491409" height="36.641417675251375" width="5" fill="black"><title>ListItem: 2153862</title></rect><rect x="515" y="176.13093908016546" height="35.928089112631795" width="5" fill="black"><title>SearchAction: 2111931</title></rect><rect x="0" y="122.63790547844818" height="29.307646081383012" width="5" fill="black"><title>isPartOf: 1722767</title></rect><rect x="515" y="227.05902819279726" height="27.420832406328714" width="5" fill="black"><title>WebSite: 1611856</title></rect><rect x="0" y="166.9455515598312" height="23.10437037293977" width="5" fill="black"><title>image: 1358125</title></rect><rect x="515" y="269.47986059912597" height="22.233017698847164" width="5" fill="black"><title>WebPage: 1306905</title></rect><rect x="0" y="205.04992193277096" height="22.222844545799376" width="5" fill="black"><title>publisher: 1306307</title></rect><rect x="0" y="242.27276647857033" height="20.61825931399372" width="5" fill="black"><title>breadcrumb: 1211986</title></rect><rect x="515" y="306.71287829797313" height="20.618259313993747" width="5" fill="black"><title>BreadcrumbList: 1211986</title></rect><rect x="515" y="342.3311376119669" height="19.391067438729863" width="5" fill="black"><title>ReadAction: 1139849</title></rect><rect x="0" y="277.89102579256405" height="19.270044343776817" width="5" fill="black"><title>logo: 1132735</title></rect><rect x="0" y="312.16107013634087" height="18.180138998773145" width="5" fill="black"><title>offers: 1068668</title></rect><rect x="0" y="345.341209135114" height="18.0971546499988" width="5" fill="black"><title>target: 1063790</title></rect><rect x="515" y="376.72220505069674" height="18.0971546499988" width="5" fill="black"><title>EntryPoint: 1063790</title></rect><rect x="515" y="409.81935970069554" height="17.68817008073171" width="5" fill="black"><title>Offer: 1039749</title></rect><rect x="0" y="378.4383637851128" height="15.202926631828234" width="5" fill="black"><title>mainEntityOfPage: 893661</title></rect><rect x="515" y="442.50752978142725" height="14.466819052601636" width="5" fill="black"><title>Person: 850391</title></rect><rect x="515" y="471.9743488340289" height="13.789266645265457" width="5" fill="black"><title>QuantitativeValue: 810563</title></rect><rect x="0" y="408.64129041694105" height="13.58544633311584" width="5" fill="black"><title>author: 798582</title></rect><rect x="0" y="437.2267367500569" height="12.620749025623354" width="5" fill="black"><title>address: 741875</title></rect><rect x="515" y="500.76361547929434" height="12.62074902562324" width="5" fill="black"><title>PostalAddress: 741875</title></rect><rect x="0" y="464.84748577568024" height="10.637375456423172" width="5" fill="black"><title>primaryImageOfPage: 625288</title></rect><rect x="0" y="490.4848612321034" height="10.372686345603086" width="5" fill="black"><title>about: 609729</title></rect><rect x="0" y="515.8575475777066" height="8.763099597081577" width="5" fill="black"><title>openingHoursSpecification: 515114</title></rect><rect x="515" y="528.3843645049176" height="8.763099597081577" width="5" fill="black"><title>OpeningHoursSpecification: 515114</title></rect><rect x="0" y="539.6206471747881" height="8.668955401485618" width="5" fill="black"><title>seller: 509580</title></rect><rect x="0" y="563.2896025762738" height="7.733569703861463" width="5" fill="black"><title>weight: 454596</title></rect><rect x="0" y="586.0231722801352" height="6.055696941403994" width="5" fill="black"><title>inventoryLevel: 355967</title></rect><rect x="0" y="607.0788692215392" height="5.927494798648013" width="5" fill="black"><title>item: 348431</title></rect><rect x="0" y="628.0063640201872" height="4.361322576176576" width="5" fill="black"><title>brand: 256368</title></rect><rect x="0" y="647.3676865963638" height="3.925459107552456" width="5" fill="black"><title>contactPoint: 230747</title></rect><rect x="515" y="552.1474641019992" height="3.925459107552456" width="5" fill="black"><title>ContactPoint: 230747</title></rect><rect x="0" y="666.2931457039163" height="3.7297535010948195" width="5" fill="black"><title>geo: 219243</title></rect><rect x="515" y="571.0729232095516" height="3.7297535010948195" width="5" fill="black"><title>GeoCoordinates: 219243</title></rect><rect x="0" y="685.0228992050111" height="3.5914462531375193" width="5" fill="black"><title>location: 211113</title></rect><rect x="515" y="589.8026767106464" height="3.5914462531375193" width="5" fill="black"><title>Place: 211113</title></rect><rect x="0" y="703.6143454581486" height="3.464537019464501" width="5" fill="black"><title>hasMenuItem: 203653</title></rect><rect x="515" y="608.394122963784" height="3.464537019464501" width="5" fill="black"><title>MenuItem: 203653</title></rect><rect x="0" y="722.0788824776131" height="3.3928826371279683" width="5" fill="black"><title>reviewRating: 199441</title></rect><rect x="515" y="626.8586599832485" height="3.3928826371279683" width="5" fill="black"><title>Rating: 199441</title></rect><rect x="515" y="645.2515426203764" height="3.3041312333649557" width="5" fill="black"><title>Thing: 194224</title></rect><rect x="0" y="740.4717651147411" height="3.277337393816083" width="5" fill="black"><title>inLanguage: 192649</title></rect><rect x="515" y="663.5556738537414" height="3.277337393816083" width="5" fill="black"><title>Language: 192649</title></rect><rect x="0" y="758.7491025085571" height="2.9150336472298477" width="5" fill="black"><title>review: 171352</title></rect><rect x="515" y="681.8330112475575" height="2.9150336472298477" width="5" fill="black"><title>Review: 171352</title></rect><rect x="515" y="699.7480448947873" height="2.485906915406531" width="5" fill="black"><title>Person,Organization: 146127</title></rect><rect x="0" y="776.664136155787" height="2.1019469416801257" width="5" fill="black"><title>acceptedAnswer: 123557</title></rect><rect x="515" y="717.2339518101938" height="2.1019469416801257" width="5" fill="black"><title>Answer: 123557</title></rect><rect x="0" y="793.7660830974671" height="2.0799504753075553" width="5" fill="black"><title>mainEntity: 122264</title></rect><rect x="515" y="734.335898751874" height="2.0799504753075553" width="5" fill="black"><title>Question: 122264</title></rect><rect x="0" y="810.8460335727747" height="1.7805399508243909" width="5" fill="black"><title>aggregateRating: 104664</title></rect><rect x="515" y="751.4158492271815" height="1.7805399508243909" width="5" fill="black"><title>AggregateRating: 104664</title></rect><rect x="515" y="768.1963891780059" height="1.294099920308895" width="5" fill="black"><title>SiteNavigationElement: 76070</title></rect><rect x="0" y="827.6265735235991" height="1.2482526837474097" width="5" fill="black"><title>additionalProperty: 73375</title></rect><rect x="515" y="784.4904890983148" height="1.2482526837474097" width="5" fill="black"><title>PropertyValue: 73375</title></rect><rect x="515" y="800.7387417820622" height="1.0571913428116204" width="5" fill="black"><title>Brand: 62144</title></rect><rect x="0" y="843.8748262073465" height="0.8392511025186877" width="5" fill="black"><title>worksFor: 49333</title></rect><rect x="0" y="859.7140773098652" height="0.797912035786112" width="5" fill="black"><title>organizer: 46903</title></rect><rect x="0" y="875.5119893456513" height="0.7964490070869488" width="5" fill="black"><title>screenshot: 46817</title></rect><rect x="515" y="816.7959331248738" height="0.7842174066832968" width="5" fill="black"><title>Product: 46098</title></rect><rect x="0" y="891.3084383527382" height="0.7296940696965066" width="5" fill="black"><title>makesOffer: 42893</title></rect><rect x="0" y="907.0381324224347" height="0.6918764790187879" width="5" fill="black"><title>blogPost: 40670</title></rect><rect x="515" y="832.5801505315571" height="0.6918764790187879" width="5" fill="black"><title>BlogPosting: 40670</title></rect><rect x="515" y="848.2720270105759" height="0.6897329718549372" width="5" fill="black"><title>offer: 40544</title></rect><rect x="0" y="922.7300089014535" height="0.6380166085350538" width="5" fill="black"><title>sponsor: 37504</title></rect><rect x="0" y="938.3680255099886" height="0.6167686684738101" width="5" fill="black"><title>hasPart: 36255</title></rect><rect x="515" y="863.9617599824309" height="0.5319300158829492" width="5" fill="black"><title>AggregateOffer: 31268</title></rect><rect x="0" y="953.9847941784624" height="0.508895819851773" width="5" fill="black"><title>department: 29914</title></rect><rect x="0" y="969.4936899983142" height="0.5063100016857334" width="5" fill="black"><title>performers: 29762</title></rect><rect x="515" y="879.4936899983138" height="0.5063100016857334" width="5" fill="black"><title>MusicGroup: 29762</title></rect></g><g fill="none" stroke-opacity="1"><g style="mix-blend-mode: multiply;"><path d="M5,88.63986538898735C260,88.63986538898735,260,142.81023024253977,515,142.81023024253977" stroke="#f6b26b" stroke-width="36.641417675251375"/><title>itemListElement → ListItem: 2153862</title></g><g style="mix-blend-mode: multiply;"><path d="M5,17.96404455631589C260,17.96404455631589,260,194.09498363648135,515,194.09498363648135" stroke="#9fc5e8" stroke-width="35.92808911263178"/><title>potentialAction → SearchAction: 2111931</title></g><g style="mix-blend-mode: multiply;"><path d="M5,136.34832168161253C260,136.34832168161253,260,240.7694443959616,515,240.7694443959616" stroke="#62718b" stroke-width="27.420832406328717"/><title>isPartOf → WebSite: 1611856</title></g><g style="mix-blend-mode: multiply;"><path d="M5,178.49773674630106C260,178.49773674630106,260,11.55218518646988,515,11.55218518646988" stroke="#f6b26b" stroke-width="23.10437037293976"/><title>image → ImageObject: 1358125</title></g><g style="mix-blend-mode: multiply;"><path d="M5,252.5818961355672C260,252.5818961355672,260,317.02200795497004,515,317.02200795497004" stroke="#6d9eeb" stroke-width="20.618259313993754"/><title>breadcrumb → BreadcrumbList: 1211986</title></g><g style="mix-blend-mode: multiply;"><path d="M5,215.33556657675368C260,215.33556657675368,260,79.09388382420943,515,79.09388382420943" stroke="#ea9999" stroke-width="20.571289287965453"/><title>publisher → Organization: 1209225</title></g><g style="mix-blend-mode: multiply;"><path d="M5,45.62362283199672C260,45.62362283199672,260,352.02667133133184,515,352.02667133133184" stroke="#9fc5e8" stroke-width="19.391067438729873"/><title>potentialAction → ReadAction: 1139849</title></g><g style="mix-blend-mode: multiply;"><path d="M5,287.52604796445246C260,287.52604796445246,260,32.73939254482818,515,32.73939254482818" stroke="#62718b" stroke-width="19.27004434377684"/><title>logo → ImageObject: 1132735</title></g><g style="mix-blend-mode: multiply;"><path d="M5,354.3897864601134C260,354.3897864601134,260,385.7707823756961,515,385.7707823756961" stroke="#ea9999" stroke-width="18.097154649998775"/><title>target → EntryPoint: 1063790</title></g><g style="mix-blend-mode: multiply;"><path d="M5,320.6403081418585C260,320.6403081418585,260,418.2985977062132,515,418.2985977062132" stroke="#ffd966" stroke-width="16.95847601103524"/><title>offers → Offer: 996856</title></g><g style="mix-blend-mode: multiply;"><path d="M5,386.0398271010269C260,386.0398271010269,260,278.9681375900944,515,278.9681375900944" stroke="#62718b" stroke-width="15.202926631828232"/><title>mainEntityOfPage → WebPage: 893661</title></g><g style="mix-blend-mode: multiply;"><path d="M5,415.7112915459167C260,415.7112915459167,260,449.0229749855675,515,449.0229749855675" stroke="#9ac6aa" stroke-width="13.03089040828045"/><title>author → Person: 765984</title></g><g style="mix-blend-mode: multiply;"><path d="M5,443.53711126286856C260,443.53711126286856,260,507.073989992106,515,507.073989992106" stroke="#a8caba" stroke-width="12.62074902562333"/><title>address → PostalAddress: 741875</title></g><g style="mix-blend-mode: multiply;"><path d="M5,470.16617350389186C260,470.16617350389186,260,47.6931024449282,515,47.6931024449282" stroke="#93c47d" stroke-width="10.637375456423198"/><title>primaryImageOfPage → ImageObject: 625288</title></g><g style="mix-blend-mode: multiply;"><path d="M5,495.2540285761186C260,495.2540285761186,260,94.7032517370428,515,94.7032517370428" stroke="#a8caba" stroke-width="9.538334688030451"/><title>about → Organization: 560684</title></g><g style="mix-blend-mode: multiply;"><path d="M5,520.2390973762474C260,520.2390973762474,260,532.7659143034584,515,532.7659143034584" stroke="#62718b" stroke-width="8.76309959708163"/><title>openingHoursSpecification → OpeningHoursSpecification: 515114</title></g><g style="mix-blend-mode: multiply;"><path d="M5,543.9551248755309C260,543.9551248755309,260,103.80689678180083,515,103.80689678180083" stroke="#6d9eeb" stroke-width="8.668955401485608"/><title>seller → Organization: 509580</title></g><g style="mix-blend-mode: multiply;"><path d="M5,567.1563874282045C260,567.1563874282045,260,475.8411336859596,515,475.8411336859596" stroke="#62718b" stroke-width="7.733569703861517"/><title>weight → QuantitativeValue: 454596</title></g><g style="mix-blend-mode: multiply;"><path d="M5,589.0510207508372C260,589.0510207508372,260,482.7357670085924,515,482.7357670085924" stroke="#93c47d" stroke-width="6.055696941403956"/><title>inventoryLevel → QuantitativeValue: 355967</title></g><g style="mix-blend-mode: multiply;"><path d="M5,609.6505079175215C260,609.6505079175215,260,289.14123960199083,515,289.14123960199083" stroke="#93c47d" stroke-width="5.143277391964654"/><title>item → WebPage: 302333</title></g><g style="mix-blend-mode: multiply;"><path d="M5,649.3304161501401C260,649.3304161501401,260,554.1101936557754,515,554.1101936557754" stroke="#a8caba" stroke-width="3.9254591075524936"/><title>contactPoint → ContactPoint: 230747</title></g><g style="mix-blend-mode: multiply;"><path d="M5,668.1580224544637C260,668.1580224544637,260,572.937799960099,515,572.937799960099" stroke="#6d9eeb" stroke-width="3.7297535010948413"/><title>geo → GeoCoordinates: 219243</title></g><g style="mix-blend-mode: multiply;"><path d="M5,686.8186223315798C260,686.8186223315798,260,591.5983998372152,515,591.5983998372152" stroke="#93c47d" stroke-width="3.5914462531375473"/><title>location → Place: 211113</title></g><g style="mix-blend-mode: multiply;"><path d="M5,705.3466139678809C260,705.3466139678809,260,610.1263914735163,515,610.1263914735163" stroke="#62718b" stroke-width="3.464537019464556"/><title>hasMenuItem → MenuItem: 203653</title></g><g style="mix-blend-mode: multiply;"><path d="M5,723.7753237961771C260,723.7753237961771,260,628.5551013018124,515,628.5551013018124" stroke="#6d9eeb" stroke-width="3.3928826371280096"/><title>reviewRating → Rating: 199441</title></g><g style="mix-blend-mode: multiply;"><path d="M5,629.6584296368698C260,629.6584296368698,260,646.903608237059,515,646.903608237059" stroke="#6d9eeb" stroke-width="3.304131233365008"/><title>brand → Thing: 194224</title></g><g style="mix-blend-mode: multiply;"><path d="M5,742.1104338116492C260,742.1104338116492,260,665.1943425506495,515,665.1943425506495" stroke="#93c47d" stroke-width="3.2773373938160857"/><title>inLanguage → Language: 192649</title></g><g style="mix-blend-mode: multiply;"><path d="M5,760.2066193321721C260,760.2066193321721,260,683.2905280711724,515,683.2905280711724" stroke="#9fc5e8" stroke-width="2.915033647229801"/><title>review → Review: 171352</title></g><g style="mix-blend-mode: multiply;"><path d="M5,777.715109626627C260,777.715109626627,260,718.2849252810339,515,718.2849252810339" stroke="#9fc5e8" stroke-width="2.1019469416801235"/><title>acceptedAnswer → Answer: 123557</title></g><g style="mix-blend-mode: multiply;"><path d="M5,794.806058335121C260,794.806058335121,260,735.3758739895278,515,735.3758739895278" stroke="#62718b" stroke-width="2.0799504753075797"/><title>mainEntity → Question: 122264</title></g><g style="mix-blend-mode: multiply;"><path d="M5,151.00214472230405C260,151.00214472230405,260,270.42326743665313,515,270.42326743665313" stroke="#62718b" stroke-width="1.8868136750543003"/><title>isPartOf → WebPage: 110911</title></g><g style="mix-blend-mode: multiply;"><path d="M5,811.7363035481868C260,811.7363035481868,260,752.3061192025937,515,752.3061192025937" stroke="#ea9999" stroke-width="1.7805399508243842"/><title>aggregateRating → AggregateRating: 104664</title></g><g style="mix-blend-mode: multiply;"><path d="M5,226.44698884965337C260,226.44698884965337,260,700.5738225237043,515,700.5738225237043" stroke="#ea9999" stroke-width="1.6515552578339532"/><title>publisher → Person,Organization: 97082</title></g><g style="mix-blend-mode: multiply;"><path d="M5,828.2506998654728C260,828.2506998654728,260,785.1146154401886,515,785.1146154401886" stroke="#64677c" stroke-width="1.2482526837474126"/><title>additionalProperty → PropertyValue: 73375</title></g><g style="mix-blend-mode: multiply;"><path d="M5,631.839090924958C260,631.839090924958,260,801.267337453468,515,801.267337453468" stroke="#6d9eeb" stroke-width="1.0571913428115736"/><title>brand → Brand: 62144</title></g><g style="mix-blend-mode: multiply;"><path d="M5,844.2944517586059C260,844.2944517586059,260,108.56100003380298,515,108.56100003380298" stroke="#ffd966" stroke-width="1"/><title>worksFor → Organization: 49333</title></g><g style="mix-blend-mode: multiply;"><path d="M5,500.44037174892014C260,500.44037174892014,260,701.8167759814075,515,701.8167759814075" stroke="#a8caba" stroke-width="1"/><title>about → Person,Organization: 49045</title></g><g style="mix-blend-mode: multiply;"><path d="M5,860.1130333277582C260,860.1130333277582,260,455.9373762076008,515,455.9373762076008" stroke="#9fc5e8" stroke-width="1"/><title>organizer → Person: 46903</title></g><g style="mix-blend-mode: multiply;"><path d="M5,875.9102138491947C260,875.9102138491947,260,53.41001467668326,515,53.41001467668326" stroke="#9fc5e8" stroke-width="1"/><title>screenshot → ImageObject: 46817</title></g><g style="mix-blend-mode: multiply;"><path d="M5,612.6142553168455C260,612.6142553168455,260,817.1880418282155,515,817.1880418282155" stroke="#93c47d" stroke-width="1"/><title>item → Product: 46098</title></g><g style="mix-blend-mode: multiply;"><path d="M5,891.6732853875865C260,891.6732853875865,260,427.14268274657906,515,427.14268274657906" stroke="#62718b" stroke-width="1"/><title>makesOffer → Offer: 42893</title></g><g style="mix-blend-mode: multiply;"><path d="M5,907.3840706619442C260,907.3840706619442,260,832.9260887710666,515,832.9260887710666" stroke="#9fc5e8" stroke-width="1"/><title>blogPost → BlogPosting: 40670</title></g><g style="mix-blend-mode: multiply;"><path d="M5,329.4644126333036C260,329.4644126333036,260,848.6168934965034,515,848.6168934965034" stroke="#ffd966" stroke-width="1"/><title>offers → offer: 40544</title></g><g style="mix-blend-mode: multiply;"><path d="M5,107.2992398525306C260,107.2992398525306,260,768.5350548039235,515,768.5350548039235" stroke="#f6b26b" stroke-width="1"/><title>itemListElement → SiteNavigationElement: 39815</title></g><g style="mix-blend-mode: multiply;"><path d="M5,923.049017205721C260,923.049017205721,260,456.65534052976136,515,456.65534052976136" stroke="#ffd966" stroke-width="1"/><title>sponsor → Person: 37504</title></g><g style="mix-blend-mode: multiply;"><path d="M5,938.6764098442254C260,938.6764098442254,260,769.1821047640778,515,769.1821047640778" stroke="#62718b" stroke-width="1"/><title>hasPart → SiteNavigationElement: 36255</title></g><g style="mix-blend-mode: multiply;"><path d="M5,408.91856837935876C260,408.91856837935876,260,89.65680643060986,515,89.65680643060986" stroke="#9ac6aa" stroke-width="1"/><title>author → Organization: 32598</title></g><g style="mix-blend-mode: multiply;"><path d="M5,330.07524412717254C260,330.07524412717254,260,864.2277249903724,515,864.2277249903724" stroke="#ffd966" stroke-width="1"/><title>offers → AggregateOffer: 31268</title></g><g style="mix-blend-mode: multiply;"><path d="M5,954.2392420883882C260,954.2392420883882,260,109.2350734949882,515,109.2350734949882" stroke="#9fc5e8" stroke-width="1"/><title>department → Organization: 29914</title></g><g style="mix-blend-mode: multiply;"><path d="M5,969.746844999157C260,969.746844999157,260,879.7468449991567,515,879.7468449991567" stroke="#6d9eeb" stroke-width="1"/><title>performers → MusicGroup: 29762</title></g></g><g><text x="9" y="27.65957827568083" text-anchor="start"><tspan alignment-baseline="middle" x="9" style="font-family: Arial, sans-serif; font-size: 10px; fill: black; font-weight: bold;">potentialAction</tspan></text><text x="511" y="26.904119590113353" text-anchor="end"><tspan alignment-baseline="middle" x="511" style="font-family: Arial, sans-serif; font-size: 10px; fill: black; font-weight: bold;">ImageObject</tspan></text><text x="511" y="89.1488802925704" text-anchor="end"><tspan alignment-baseline="middle" x="511" style="font-family: Arial, sans-serif; font-size: 10px; fill: black; font-weight: bold;">Organization</tspan></text><text x="9" y="88.97853101490492" text-anchor="start"><tspan alignment-baseline="middle" x="9" style="font-family: Arial, sans-serif; font-size: 10px; fill: black; font-weight: bold;">itemListElement</tspan></text><text x="511" y="142.81023024253977" text-anchor="end"><tspan alignment-baseline="middle" x="511" style="font-family: Arial, sans-serif; font-size: 10px; fill: black; font-weight: bold;">ListItem</tspan></text><text x="511" y="194.09498363648135" text-anchor="end"><tspan alignment-baseline="middle" x="511" style="font-family: Arial, sans-serif; font-size: 10px; fill: black; font-weight: bold;">SearchAction</tspan></text><text x="9" y="137.29172851913967" text-anchor="start"><tspan alignment-baseline="middle" x="9" style="font-family: Arial, sans-serif; font-size: 10px; fill: black; font-weight: bold;">isPartOf</tspan></text><text x="511" y="240.7694443959616" text-anchor="end"><tspan alignment-baseline="middle" x="511" style="font-family: Arial, sans-serif; font-size: 10px; fill: black; font-weight: bold;">WebSite</tspan></text><text x="9" y="178.4977367463011" text-anchor="start"><tspan alignment-baseline="middle" x="9" style="font-family: Arial, sans-serif; font-size: 10px; fill: black; font-weight: bold;">image</tspan></text><text x="511" y="280.5963694485496" text-anchor="end"><tspan alignment-baseline="middle" x="511" style="font-family: Arial, sans-serif; font-size: 10px; fill: black; font-weight: bold;">WebPage</tspan></text><text x="9" y="216.16134420567064" text-anchor="start"><tspan alignment-baseline="middle" x="9" style="font-family: Arial, sans-serif; font-size: 10px; fill: black; font-weight: bold;">publisher</tspan></text><text x="9" y="252.5818961355672" text-anchor="start"><tspan alignment-baseline="middle" x="9" style="font-family: Arial, sans-serif; font-size: 10px; fill: black; font-weight: bold;">breadcrumb</tspan></text><text x="511" y="317.02200795497004" text-anchor="end"><tspan alignment-baseline="middle" x="511" style="font-family: Arial, sans-serif; font-size: 10px; fill: black; font-weight: bold;">BreadcrumbList</tspan></text><text x="511" y="352.02667133133184" text-anchor="end"><tspan alignment-baseline="middle" x="511" style="font-family: Arial, sans-serif; font-size: 10px; fill: black; font-weight: bold;">ReadAction</tspan></text><text x="9" y="287.52604796445246" text-anchor="start"><tspan alignment-baseline="middle" x="9" style="font-family: Arial, sans-serif; font-size: 10px; fill: black; font-weight: bold;">logo</tspan></text><text x="9" y="321.25113963572744" text-anchor="start"><tspan alignment-baseline="middle" x="9" style="font-family: Arial, sans-serif; font-size: 10px; fill: black; font-weight: bold;">offers</tspan></text><text x="9" y="354.38978646011344" text-anchor="start"><tspan alignment-baseline="middle" x="9" style="font-family: Arial, sans-serif; font-size: 10px; fill: black; font-weight: bold;">target</tspan></text><text x="511" y="385.7707823756962" text-anchor="end"><tspan alignment-baseline="middle" x="511" style="font-family: Arial, sans-serif; font-size: 10px; fill: black; font-weight: bold;">EntryPoint</tspan></text><text x="511" y="418.6634447410614" text-anchor="end"><tspan alignment-baseline="middle" x="511" style="font-family: Arial, sans-serif; font-size: 10px; fill: black; font-weight: bold;">Offer</tspan></text><text x="9" y="386.03982710102696" text-anchor="start"><tspan alignment-baseline="middle" x="9" style="font-family: Arial, sans-serif; font-size: 10px; fill: black; font-weight: bold;">mainEntityOfPage</tspan></text><text x="511" y="449.74093930772807" text-anchor="end"><tspan alignment-baseline="middle" x="511" style="font-family: Arial, sans-serif; font-size: 10px; fill: black; font-weight: bold;">Person</tspan></text><text x="511" y="478.8689821566616" text-anchor="end"><tspan alignment-baseline="middle" x="511" style="font-family: Arial, sans-serif; font-size: 10px; fill: black; font-weight: bold;">QuantitativeValue</tspan></text><text x="9" y="415.434013583499" text-anchor="start"><tspan alignment-baseline="middle" x="9" style="font-family: Arial, sans-serif; font-size: 10px; fill: black; font-weight: bold;">author</tspan></text><text x="9" y="443.53711126286856" text-anchor="start"><tspan alignment-baseline="middle" x="9" style="font-family: Arial, sans-serif; font-size: 10px; fill: black; font-weight: bold;">address</tspan></text><text x="511" y="507.07398999210596" text-anchor="end"><tspan alignment-baseline="middle" x="511" style="font-family: Arial, sans-serif; font-size: 10px; fill: black; font-weight: bold;">PostalAddress</tspan></text><text x="9" y="470.16617350389186" text-anchor="start"><tspan alignment-baseline="middle" x="9" style="font-family: Arial, sans-serif; font-size: 10px; fill: black; font-weight: bold;">primaryImageOfPage</tspan></text><text x="9" y="495.671204404905" text-anchor="start"><tspan alignment-baseline="middle" x="9" style="font-family: Arial, sans-serif; font-size: 10px; fill: black; font-weight: bold;">about</tspan></text><text x="9" y="520.2390973762474" text-anchor="start"><tspan alignment-baseline="middle" x="9" style="font-family: Arial, sans-serif; font-size: 10px; fill: black; font-weight: bold;">openingHoursSpecification</tspan></text><text x="511" y="532.7659143034584" text-anchor="end"><tspan alignment-baseline="middle" x="511" style="font-family: Arial, sans-serif; font-size: 10px; fill: black; font-weight: bold;">OpeningHoursSpecification</tspan></text><text x="9" y="543.9551248755309" text-anchor="start"><tspan alignment-baseline="middle" x="9" style="font-family: Arial, sans-serif; font-size: 10px; fill: black; font-weight: bold;">seller</tspan></text><text x="9" y="567.1563874282044" text-anchor="start"><tspan alignment-baseline="middle" x="9" style="font-family: Arial, sans-serif; font-size: 10px; fill: black; font-weight: bold;">weight</tspan></text><text x="9" y="589.0510207508372" text-anchor="start"><tspan alignment-baseline="middle" x="9" style="font-family: Arial, sans-serif; font-size: 10px; fill: black; font-weight: bold;">inventoryLevel</tspan></text><text x="9" y="610.0426166208632" text-anchor="start"><tspan alignment-baseline="middle" x="9" style="font-family: Arial, sans-serif; font-size: 10px; fill: black; font-weight: bold;">item</tspan></text><text x="9" y="630.1870253082755" text-anchor="start"><tspan alignment-baseline="middle" x="9" style="font-family: Arial, sans-serif; font-size: 10px; fill: black; font-weight: bold;">brand</tspan></text><text x="9" y="649.3304161501401" text-anchor="start"><tspan alignment-baseline="middle" x="9" style="font-family: Arial, sans-serif; font-size: 10px; fill: black; font-weight: bold;">contactPoint</tspan></text><text x="511" y="554.1101936557754" text-anchor="end"><tspan alignment-baseline="middle" x="511" style="font-family: Arial, sans-serif; font-size: 10px; fill: black; font-weight: bold;">ContactPoint</tspan></text><text x="9" y="668.1580224544637" text-anchor="start"><tspan alignment-baseline="middle" x="9" style="font-family: Arial, sans-serif; font-size: 10px; fill: black; font-weight: bold;">geo</tspan></text><text x="511" y="572.937799960099" text-anchor="end"><tspan alignment-baseline="middle" x="511" style="font-family: Arial, sans-serif; font-size: 10px; fill: black; font-weight: bold;">GeoCoordinates</tspan></text><text x="9" y="686.8186223315798" text-anchor="start"><tspan alignment-baseline="middle" x="9" style="font-family: Arial, sans-serif; font-size: 10px; fill: black; font-weight: bold;">location</tspan></text><text x="511" y="591.5983998372152" text-anchor="end"><tspan alignment-baseline="middle" x="511" style="font-family: Arial, sans-serif; font-size: 10px; fill: black; font-weight: bold;">Place</tspan></text><text x="9" y="705.3466139678808" text-anchor="start"><tspan alignment-baseline="middle" x="9" style="font-family: Arial, sans-serif; font-size: 10px; fill: black; font-weight: bold;">hasMenuItem</tspan></text><text x="511" y="610.1263914735162" text-anchor="end"><tspan alignment-baseline="middle" x="511" style="font-family: Arial, sans-serif; font-size: 10px; fill: black; font-weight: bold;">MenuItem</tspan></text><text x="9" y="723.7753237961771" text-anchor="start"><tspan alignment-baseline="middle" x="9" style="font-family: Arial, sans-serif; font-size: 10px; fill: black; font-weight: bold;">reviewRating</tspan></text><text x="511" y="628.5551013018124" text-anchor="end"><tspan alignment-baseline="middle" x="511" style="font-family: Arial, sans-serif; font-size: 10px; fill: black; font-weight: bold;">Rating</tspan></text><text x="511" y="646.903608237059" text-anchor="end"><tspan alignment-baseline="middle" x="511" style="font-family: Arial, sans-serif; font-size: 10px; fill: black; font-weight: bold;">Thing</tspan></text><text x="9" y="742.110433811649" text-anchor="start"><tspan alignment-baseline="middle" x="9" style="font-family: Arial, sans-serif; font-size: 10px; fill: black; font-weight: bold;">inLanguage</tspan></text><text x="511" y="665.1943425506495" text-anchor="end"><tspan alignment-baseline="middle" x="511" style="font-family: Arial, sans-serif; font-size: 10px; fill: black; font-weight: bold;">Language</tspan></text><text x="9" y="760.2066193321721" text-anchor="start"><tspan alignment-baseline="middle" x="9" style="font-family: Arial, sans-serif; font-size: 10px; fill: black; font-weight: bold;">review</tspan></text><text x="511" y="683.2905280711724" text-anchor="end"><tspan alignment-baseline="middle" x="511" style="font-family: Arial, sans-serif; font-size: 10px; fill: black; font-weight: bold;">Review</tspan></text><text x="511" y="700.9909983524906" text-anchor="end"><tspan alignment-baseline="middle" x="511" style="font-family: Arial, sans-serif; font-size: 10px; fill: black; font-weight: bold;">Person,Organization</tspan></text><text x="9" y="777.715109626627" text-anchor="start"><tspan alignment-baseline="middle" x="9" style="font-family: Arial, sans-serif; font-size: 10px; fill: black; font-weight: bold;">acceptedAnswer</tspan></text><text x="511" y="718.2849252810339" text-anchor="end"><tspan alignment-baseline="middle" x="511" style="font-family: Arial, sans-serif; font-size: 10px; fill: black; font-weight: bold;">Answer</tspan></text><text x="9" y="794.806058335121" text-anchor="start"><tspan alignment-baseline="middle" x="9" style="font-family: Arial, sans-serif; font-size: 10px; fill: black; font-weight: bold;">mainEntity</tspan></text><text x="511" y="735.3758739895277" text-anchor="end"><tspan alignment-baseline="middle" x="511" style="font-family: Arial, sans-serif; font-size: 10px; fill: black; font-weight: bold;">Question</tspan></text><text x="9" y="811.7363035481869" text-anchor="start"><tspan alignment-baseline="middle" x="9" style="font-family: Arial, sans-serif; font-size: 10px; fill: black; font-weight: bold;">aggregateRating</tspan></text><text x="511" y="752.3061192025937" text-anchor="end"><tspan alignment-baseline="middle" x="511" style="font-family: Arial, sans-serif; font-size: 10px; fill: black; font-weight: bold;">AggregateRating</tspan></text><text x="511" y="768.8434391381604" text-anchor="end"><tspan alignment-baseline="middle" x="511" style="font-family: Arial, sans-serif; font-size: 10px; fill: black; font-weight: bold;">SiteNavigationElement</tspan></text><text x="9" y="828.2506998654728" text-anchor="start"><tspan alignment-baseline="middle" x="9" style="font-family: Arial, sans-serif; font-size: 10px; fill: black; font-weight: bold;">additionalProperty</tspan></text><text x="511" y="785.1146154401886" text-anchor="end"><tspan alignment-baseline="middle" x="511" style="font-family: Arial, sans-serif; font-size: 10px; fill: black; font-weight: bold;">PropertyValue</tspan></text><text x="511" y="801.267337453468" text-anchor="end"><tspan alignment-baseline="middle" x="511" style="font-family: Arial, sans-serif; font-size: 10px; fill: black; font-weight: bold;">Brand</tspan></text><text x="9" y="844.2944517586059" text-anchor="start"><tspan alignment-baseline="middle" x="9" style="font-family: Arial, sans-serif; font-size: 10px; fill: black; font-weight: bold;">worksFor</tspan></text><text x="9" y="860.1130333277582" text-anchor="start"><tspan alignment-baseline="middle" x="9" style="font-family: Arial, sans-serif; font-size: 10px; fill: black; font-weight: bold;">organizer</tspan></text><text x="9" y="875.9102138491947" text-anchor="start"><tspan alignment-baseline="middle" x="9" style="font-family: Arial, sans-serif; font-size: 10px; fill: black; font-weight: bold;">screenshot</tspan></text><text x="511" y="817.1880418282155" text-anchor="end"><tspan alignment-baseline="middle" x="511" style="font-family: Arial, sans-serif; font-size: 10px; fill: black; font-weight: bold;">Product</tspan></text><text x="9" y="891.6732853875865" text-anchor="start"><tspan alignment-baseline="middle" x="9" style="font-family: Arial, sans-serif; font-size: 10px; fill: black; font-weight: bold;">makesOffer</tspan></text><text x="9" y="907.3840706619442" text-anchor="start"><tspan alignment-baseline="middle" x="9" style="font-family: Arial, sans-serif; font-size: 10px; fill: black; font-weight: bold;">blogPost</tspan></text><text x="511" y="832.9260887710666" text-anchor="end"><tspan alignment-baseline="middle" x="511" style="font-family: Arial, sans-serif; font-size: 10px; fill: black; font-weight: bold;">BlogPosting</tspan></text><text x="511" y="848.6168934965034" text-anchor="end"><tspan alignment-baseline="middle" x="511" style="font-family: Arial, sans-serif; font-size: 10px; fill: black; font-weight: bold;">offer</tspan></text><text x="9" y="923.049017205721" text-anchor="start"><tspan alignment-baseline="middle" x="9" style="font-family: Arial, sans-serif; font-size: 10px; fill: black; font-weight: bold;">sponsor</tspan></text><text x="9" y="938.6764098442254" text-anchor="start"><tspan alignment-baseline="middle" x="9" style="font-family: Arial, sans-serif; font-size: 10px; fill: black; font-weight: bold;">hasPart</tspan></text><text x="511" y="864.2277249903723" text-anchor="end"><tspan alignment-baseline="middle" x="511" style="font-family: Arial, sans-serif; font-size: 10px; fill: black; font-weight: bold;">AggregateOffer</tspan></text><text x="9" y="954.2392420883882" text-anchor="start"><tspan alignment-baseline="middle" x="9" style="font-family: Arial, sans-serif; font-size: 10px; fill: black; font-weight: bold;">department</tspan></text><text x="9" y="969.746844999157" text-anchor="start"><tspan alignment-baseline="middle" x="9" style="font-family: Arial, sans-serif; font-size: 10px; fill: black; font-weight: bold;">performers</tspan></text><text x="511" y="879.7468449991567" text-anchor="end"><tspan alignment-baseline="middle" x="511" style="font-family: Arial, sans-serif; font-size: 10px; fill: black; font-weight: bold;">MusicGroup</tspan></text></g><g><text x="2.5" y="-4" text-anchor="middle" style="font-family: Arial, sans-serif; font-size: 12px; fill: rgb(123, 123, 123); font-weight: bold;">relationship</text><text x="517.5" y="-4" text-anchor="middle" style="font-family: Arial, sans-serif; font-size: 12px; fill: rgb(123, 123, 123); font-weight: bold;">_to</text></g></g></svg>