<svg xmlns="http://www.w3.org/2000/svg" width="805" height="1500"><rect width="805" height="1500" x="0" y="0" fill="#FFFFFF" id="backgorund"/><g transform="translate(10,10)" id="visualization"><g><rect x="780" y="7.499999999999886" height="5.216016011803731" width="5" fill="black"><title>Person,Organization: 73453</title></rect><rect x="0" y="12.5" height="7.238710797315662" width="5" fill="black"><title>Event: 101937</title></rect><rect x="390" y="0" height="7.238710797315662" width="5" fill="black"><title>location: 101937</title></rect><rect x="780" y="17.716016011803617" height="7.238710797315662" width="5" fill="black"><title>Place: 101937</title></rect><rect x="0" y="24.73871079731566" height="7.303047318719791" width="5" fill="black"><title>FAQPage: 102843</title></rect><rect x="390" y="12.238710797315662" height="7.303047318719791" width="5" fill="black"><title>mainEntity: 102843</title></rect><rect x="780" y="29.95472680911928" height="7.303047318719791" width="5" fill="black"><title>Question: 102843</title></rect><rect x="390" y="24.541758116035453" height="8.096034001412363" width="5" fill="black"><title>openingHoursSpecification: 114010</title></rect><rect x="780" y="42.25777412783907" height="8.096034001412363" width="5" fill="black"><title>OpeningHoursSpecification: 114010</title></rect><rect x="0" y="37.04175811603545" height="8.200066014499498" width="5" fill="black"><title>Question: 115475</title></rect><rect x="390" y="37.637792117447816" height="8.200066014499498" width="5" fill="black"><title>acceptedAnswer: 115475</title></rect><rect x="780" y="55.35380812925143" height="8.200066014499498" width="5" fill="black"><title>Answer: 115475</title></rect><rect x="390" y="50.837858131947314" height="8.510812833113505" width="5" fill="black"><title>contactPoint: 119851</title></rect><rect x="780" y="68.55387414375093" height="8.510812833113505" width="5" fill="black"><title>ContactPoint: 119851</title></rect><rect x="0" y="50.24182413053495" height="9.742296226258759" width="5" fill="black"><title>Person: 137193</title></rect><rect x="0" y="64.98412035679371" height="10.811234037181066" width="5" fill="black"><title>Place: 152246</title></rect><rect x="0" y="80.79535439397478" height="11.379042894959412" width="5" fill="black"><title>MenuItem: 160242</title></rect><rect x="390" y="64.34867096506082" height="11.60620904503844" width="5" fill="black"><title>reviewRating: 163441</title></rect><rect x="780" y="82.06468697686444" height="11.60620904503844" width="5" fill="black"><title>Rating: 163441</title></rect><rect x="0" y="97.17439728893419" height="12.756455152878743" width="5" fill="black"><title>MobileApplication: 179639</title></rect><rect x="390" y="80.95488001009926" height="12.756455152878743" width="5" fill="black"><title>inLanguage: 179639</title></rect><rect x="780" y="98.67089602190288" height="12.756455152878743" width="5" fill="black"><title>Language: 179639</title></rect><rect x="0" y="114.93085244181293" height="13.420271711471969" width="5" fill="black"><title>MenuSection: 188987</title></rect><rect x="390" y="98.711335162978" height="13.420271711471969" width="5" fill="black"><title>hasMenuItem: 188987</title></rect><rect x="780" y="116.42735117478162" height="13.420271711471969" width="5" fill="black"><title>MenuItem: 188987</title></rect><rect x="390" y="117.13160687444997" height="13.692104166146237" width="5" fill="black"><title>brand: 192815</title></rect><rect x="780" y="134.8476228862536" height="13.692104166146237" width="5" fill="black"><title>Thing: 192815</title></rect><rect x="0" y="133.3511241532849" height="20.1678661930805" width="5" fill="black"><title>LocalBusiness: 284008</title></rect><rect x="780" y="153.53972705239983" height="20.335027530150455" width="5" fill="black"><title>: 286362</title></rect><rect x="0" y="158.5189903463654" height="22.45976600358472" width="5" fill="black"><title>Review: 316283</title></rect><rect x="390" y="135.8237110405962" height="25.277790855019248" width="5" fill="black"><title>inventoryLevel: 355967</title></rect><rect x="0" y="185.97875634995012" height="26.162950611423184" width="5" fill="black"><title>Article: 368432</title></rect><rect x="390" y="166.10150189561546" height="28.00818737597615" width="5" fill="black"><title>address: 394417</title></rect><rect x="780" y="178.87475458255028" height="28.00818737597615" width="5" fill="black"><title>PostalAddress: 394417</title></rect><rect x="390" y="199.1096892715916" height="31.028098243251634" width="5" fill="black"><title>weight: 436944</title></rect><rect x="390" y="235.13778751484324" height="35.78573429295443" width="5" fill="black"><title>seller: 503942</title></rect><rect x="390" y="275.92352180779767" height="39.584216485477555" width="5" fill="black"><title>about: 557433</title></rect><rect x="0" y="217.1417069613733" height="41.05721037453361" width="5" fill="black"><title>ItemList: 578176</title></rect><rect x="0" y="263.1989173359069" height="41.58390350836817" width="5" fill="black"><title>ListItem: 585593</title></rect><rect x="390" y="320.5077382932752" height="41.58390350836817" width="5" fill="black"><title>item: 585593</title></rect><rect x="390" y="367.0916418016434" height="41.91808415928176" width="5" fill="black"><title>author: 590299</title></rect><rect x="780" y="211.88294195852643" height="41.91808415928176" width="5" fill="black"><title>Person: 590299</title></rect><rect x="390" y="414.00972596092515" height="43.6930194269363" width="5" fill="black"><title>primaryImageOfPage: 615294</title></rect><rect x="0" y="309.7828208442751" height="51.61528801126724" width="5" fill="black"><title>CollectionPage: 726857</title></rect><rect x="390" y="462.70274538786146" height="53.838448580359454" width="5" fill="black"><title>mainEntityOfPage: 758164</title></rect><rect x="780" y="258.8010261178082" height="56.30588909827088" width="5" fill="black"><title>QuantitativeValue: 792911</title></rect><rect x="390" y="521.5411939682209" height="57.28464216064663" width="5" fill="black"><title>offers: 806694</title></rect><rect x="780" y="320.1069152160791" height="57.28464216064674" width="5" fill="black"><title>Offer: 806694</title></rect><rect x="0" y="366.3981088555423" height="61.063525147973905" width="5" fill="black"><title>Offer: 859909</title></rect><rect x="390" y="583.8258361288675" height="63.41635292245667" width="5" fill="black"><title>logo: 893042</title></rect><rect x="0" y="432.4616340035162" height="63.964136505360784" width="5" fill="black"><title>BlogPosting: 900756</title></rect><rect x="390" y="652.2421890513242" height="69.43906085826745" width="5" fill="black"><title>image: 977855</title></rect><rect x="0" y="501.425770508877" height="73.08366088535695" width="5" fill="black"><title>SearchAction: 1029179</title></rect><rect x="390" y="726.6812499095917" height="73.08366088535706" width="5" fill="black"><title>target: 1029179</title></rect><rect x="780" y="382.3915573767258" height="73.083660885357" width="5" fill="black"><title>EntryPoint: 1029179</title></rect><rect x="390" y="804.7649107949487" height="73.29570156186094" width="5" fill="black"><title>publisher: 1032165</title></rect><rect x="780" y="460.4752182620828" height="80.50352230750917" width="5" fill="black"><title>ReadAction: 1133667</title></rect><rect x="780" y="545.978740569592" height="81.47567128987339" width="5" fill="black"><title>WebPage: 1147357</title></rect><rect x="390" y="883.0606123568097" height="84.07398621059679" width="5" fill="black"><title>breadcrumb: 1183947</title></rect><rect x="780" y="632.4544118594654" height="84.07398621059679" width="5" fill="black"><title>BreadcrumbList: 1183947</title></rect><rect x="0" y="579.509431394234" height="109.27771195322703" width="5" fill="black"><title>BreadcrumbList: 1538871</title></rect><rect x="780" y="721.5283980700622" height="112.68662443667404" width="5" fill="black"><title>WebSite: 1586876</title></rect><rect x="0" y="693.787143347461" height="115.26399093155396" width="5" fill="black"><title>Organization: 1623171</title></rect><rect x="390" y="972.1345985674064" height="119.07497116797015" width="5" fill="black"><title>isPartOf: 1676838</title></rect><rect x="0" y="814.051134279015" height="122.14785669856496" width="5" fill="black"><title>Product: 1720111</title></rect><rect x="780" y="839.2150225067362" height="143.4496363284892" width="5" fill="black"><title>Organization: 2020087</title></rect><rect x="780" y="987.6646588352254" height="147.95198562935354" width="5" fill="black"><title>SearchAction: 2083490</title></rect><rect x="390" y="1096.2095697353766" height="150.33492232776075" width="5" fill="black"><title>itemListElement: 2117047</title></rect><rect x="780" y="1140.616644464579" height="150.33492232776075" width="5" fill="black"><title>ListItem: 2117047</title></rect><rect x="780" y="1295.9515667923397" height="176.5484332076603" width="5" fill="black"><title>ImageObject: 2486191</title></rect><rect x="0" y="941.1989909775799" height="204.75346477495248" width="5" fill="black"><title>WebSite: 2883380</title></rect><rect x="390" y="1251.5444920631373" height="228.4555079368629" width="5" fill="black"><title>potentialAction: 3217157</title></rect><rect x="0" y="1150.9524557525324" height="316.5475442474676" width="5" fill="black"><title>WebPage: 4457687</title></rect></g><g fill="none" stroke-opacity="1"><g style="mix-blend-mode: multiply;"><path d="M5,1071.9764629378556C197.5,1071.9764629378556,197.5,1336.9446201470469,390,1336.9446201470469" stroke="#cccccc" stroke-width="147.95198562935357"/><title>WebSite → potentialAction: 2083490</title></g><g style="mix-blend-mode: multiply;"><path d="M5,1351.5197149278245C197.5,1351.5197149278245,197.5,1044.3086717014776,390,1044.3086717014776" stroke="#cccccc" stroke-width="93.80179606779768"/><title>WebPage → isPartOf: 1320936</title></g><g style="mix-blend-mode: multiply;"><path d="M5,634.1482873708475C197.5,634.1482873708475,197.5,1191.9056360865238,390,1191.9056360865238" stroke="#2ca02c" stroke-width="109.27771195322703"/><title>BreadcrumbList → itemListElement: 1538871</title></g><g style="mix-blend-mode: multiply;"><path d="M5,537.9676009515555C197.5,537.9676009515555,197.5,763.2230803522701,390,763.2230803522701" stroke="#cccccc" stroke-width="73.083660885357"/><title>SearchAction → target: 1029179</title></g><g style="mix-blend-mode: multiply;"><path d="M5,1269.733154796111C197.5,1269.733154796111,197.5,932.248936469592,390,932.248936469592" stroke="#cccccc" stroke-width="69.7713241956291"/><title>WebPage → breadcrumb: 982534</title></g><g style="mix-blend-mode: multiply;"><path d="M5,1432.9603064808616C197.5,1432.9603064808616,197.5,1445.460306480862,390,1445.460306480862" stroke="#cccccc" stroke-width="69.07938703827658"/><title>WebPage → potentialAction: 972790</title></g><g style="mix-blend-mode: multiply;"><path d="M5,739.1312537889296C197.5,739.1312537889296,197.5,615.5340125900958,390,615.5340125900958" stroke="#cccccc" stroke-width="63.41635292245663"/><title>Organization → logo: 893042</title></g><g style="mix-blend-mode: multiply;"><path d="M5,969.5997305503793C197.5,969.5997305503793,197.5,849.6598727840103,390,849.6598727840103" stroke="#cccccc" stroke-width="56.80147914559879"/><title>WebSite → publisher: 799890</title></g><g style="mix-blend-mode: multiply;"><path d="M5,913.2461913447362C197.5,913.2461913447362,197.5,555.8730364960239,390,555.8730364960239" stroke="#cccccc" stroke-width="45.90559926568732"/><title>Product → offers: 646452</title></g><g style="mix-blend-mode: multiply;"><path d="M5,1213.0009829848284C197.5,1213.0009829848284,197.5,435.8562356743933,390,435.8562356743933" stroke="#cccccc" stroke-width="43.69301942693628"/><title>WebPage → primaryImageOfPage: 615294</title></g><g style="mix-blend-mode: multiply;"><path d="M5,237.67031214864014C197.5,237.67031214864014,197.5,1116.7381749226433,390,1116.7381749226433" stroke="#e377c2" stroke-width="41.05721037453366"/><title>ItemList → itemListElement: 578176</title></g><g style="mix-blend-mode: multiply;"><path d="M5,789.9452822645865C197.5,789.9452822645865,197.5,702.5753978951631,390,702.5753978951631" stroke="#cccccc" stroke-width="38.211704028857014"/><title>Organization → image: 538105</title></g><g style="mix-blend-mode: multiply;"><path d="M5,409.5687668570388C197.5,409.5687668570388,197.5,253.03065466132048,390,253.03065466132048" stroke="#cccccc" stroke-width="35.785734292954466"/><title>Offer → seller: 503942</title></g><g style="mix-blend-mode: multiply;"><path d="M5,1167.242732816176C197.5,1167.242732816176,197.5,299.2174612296316,390,299.2174612296316" stroke="#cccccc" stroke-width="32.580554127287"/><title>WebPage → about: 458806</title></g><g style="mix-blend-mode: multiply;"><path d="M5,874.5323642001526C197.5,874.5323642001526,197.5,500.780166456481,390,500.780166456481" stroke="#cccccc" stroke-width="31.522055023479858"/><title>Product → mainEntityOfPage: 443900</title></g><g style="mix-blend-mode: multiply;"><path d="M5,843.2572875667869C197.5,843.2572875667869,197.5,214.6237383932174,390,214.6237383932174" stroke="#cccccc" stroke-width="31.028098243251595"/><title>Product → weight: 436944</title></g><g style="mix-blend-mode: multiply;"><path d="M5,379.03700428305194C197.5,379.03700428305194,197.5,148.46260646810583,390,148.46260646810583" stroke="#cccccc" stroke-width="25.277790855019273"/><title>Offer → inventoryLevel: 355967</title></g><g style="mix-blend-mode: multiply;"><path d="M5,283.990869090091C197.5,283.990869090091,197.5,341.2996900474593,390,341.2996900474593" stroke="#7f7f7f" stroke-width="41.583903508368195"/><title>ListItem → item: 585593</title></g><g style="mix-blend-mode: multiply;"><path d="M5,340.5315594018714C197.5,340.5315594018714,197.5,987.9653594831407,390,987.9653594831407" stroke="#d62728" stroke-width="18.8848283688764"/><title>CollectionPage → isPartOf: 265940</title></g><g style="mix-blend-mode: multiply;"><path d="M5,488.17865930074584C197.5,488.17865930074584,197.5,813.0120220030798,390,813.0120220030798" stroke="#ff7f0e" stroke-width="16.494222416262186"/><title>BlogPosting → publisher: 232275</title></g><g style="mix-blend-mode: multiply;"><path d="M5,440.5781903610939C197.5,440.5781903610939,197.5,393.27170621180653,390,393.27170621180653" stroke="#ff7f0e" stroke-width="16.233112715155325"/><title>BlogPosting → author: 228598</title></g><g style="mix-blend-mode: multiply;"><path d="M5,471.9282907636245C197.5,471.9282907636245,197.5,675.4662885517444,390,675.4662885517444" stroke="#ff7f0e" stroke-width="16.006514657980457"/><title>BlogPosting → image: 225407</title></g><g style="mix-blend-mode: multiply;"><path d="M5,456.3098900766529C197.5,456.3098900766529,197.5,477.4039955867597,390,477.4039955867597" stroke="#ff7f0e" stroke-width="15.230286715962754"/><title>BlogPosting → mainEntityOfPage: 214476</title></g><g style="mix-blend-mode: multiply;"><path d="M5,323.9378142099494C197.5,323.9378142099494,197.5,890.2119433642935,390,890.2119433642935" stroke="#d62728" stroke-width="14.30266201496767"/><title>CollectionPage → breadcrumb: 201413</title></g><g style="mix-blend-mode: multiply;"><path d="M5,820.8971863620881C197.5,820.8971863620881,197.5,123.97765895752303,390,123.97765895752303" stroke="#cccccc" stroke-width="13.692104166146134"/><title>Product → brand: 192815</title></g><g style="mix-blend-mode: multiply;"><path d="M5,121.64098829754889C197.5,121.64098829754889,197.5,105.42147101871396,390,105.42147101871396" stroke="#cccccc" stroke-width="13.420271711471926"/><title>MenuSection → hasMenuItem: 188987</title></g><g style="mix-blend-mode: multiply;"><path d="M5,103.55262486537359C197.5,103.55262486537359,197.5,87.33310758653866,390,87.33310758653866" stroke="#cccccc" stroke-width="12.756455152878798"/><title>MobileApplication → inLanguage: 179639</title></g><g style="mix-blend-mode: multiply;"><path d="M5,147.48307425053136C197.5,147.48307425053136,197.5,182.94865202863073,390,182.94865202863073" stroke="#bcbd22" stroke-width="12.071832191668234"/><title>LocalBusiness → address: 169998</title></g><g style="mix-blend-mode: multiply;"><path d="M5,164.32209486888462C197.5,164.32209486888462,197.5,70.15177548758005,390,70.15177548758005" stroke="#cccccc" stroke-width="11.606209045038458"/><title>Review → reviewRating: 163441</title></g><g style="mix-blend-mode: multiply;"><path d="M5,355.686041220926C197.5,355.686041220926,197.5,1257.2565596977536,390,1257.2565596977536" stroke="#d62728" stroke-width="11.424135269232641"/><title>CollectionPage → potentialAction: 160877</title></g><g style="mix-blend-mode: multiply;"><path d="M5,86.48487584145445C197.5,86.48487584145445,197.5,527.2307154157006,390,527.2307154157006" stroke="#17becf" stroke-width="11.37904289495936"/><title>MenuItem → offers: 160242</title></g><g style="mix-blend-mode: multiply;"><path d="M5,175.55197787067704C197.5,175.55197787067704,197.5,372.51842028091653,390,372.51842028091653" stroke="#cccccc" stroke-width="10.853556958546314"/><title>Review → author: 152842</title></g><g style="mix-blend-mode: multiply;"><path d="M5,70.38973737538429C197.5,70.38973737538429,197.5,171.50711891420605,390,171.50711891420605" stroke="#cccccc" stroke-width="10.811234037181155"/><title>Place → address: 152246</title></g><g style="mix-blend-mode: multiply;"><path d="M5,55.112972243664345C197.5,55.112972243664345,197.5,657.1133371644536,390,657.1133371644536" stroke="#cccccc" stroke-width="9.74229622625878"/><title>Person → image: 137193</title></g><g style="mix-blend-mode: multiply;"><path d="M5,698.0425497640177C197.5,698.0425497640177,197.5,55.09326454850407,390,55.09326454850407" stroke="#cccccc" stroke-width="8.510812833113505"/><title>Organization → contactPoint: 119851</title></g><g style="mix-blend-mode: multiply;"><path d="M5,41.141791123285216C197.5,41.141791123285216,197.5,41.73782512469758,390,41.73782512469758" stroke="#cccccc" stroke-width="8.20006601449952"/><title>Question → acceptedAnswer: 115475</title></g><g style="mix-blend-mode: multiply;"><path d="M5,137.39914115399108C197.5,137.39914115399108,197.5,28.589775116741624,390,28.589775116741624" stroke="#bcbd22" stroke-width="8.096034001412342"/><title>LocalBusiness → openingHoursSpecification: 114010</title></g><g style="mix-blend-mode: multiply;"><path d="M5,1187.34374157559C197.5,1187.34374157559,197.5,405.1989942651546,390,405.1989942651546" stroke="#cccccc" stroke-width="7.621463391540939"/><title>WebPage → author: 107327</title></g><g style="mix-blend-mode: multiply;"><path d="M5,28.390234456675586C197.5,28.390234456675586,197.5,15.890234456675584,390,15.890234456675584" stroke="#8c564b" stroke-width="7.303047318719845"/><title>FAQPage → mainEntity: 102843</title></g><g style="mix-blend-mode: multiply;"><path d="M5,16.11935539865788C197.5,16.11935539865788,197.5,3.6193553986578806,390,3.6193553986578806" stroke="#9467bd" stroke-width="7.238710797315761"/><title>Event → location: 101937</title></g><g style="mix-blend-mode: multiply;"><path d="M5,189.58373189696968C197.5,189.58373189696968,197.5,381.55017430720926,390,381.55017430720926" stroke="#1f77b4" stroke-width="7.209951094039101"/><title>Article → author: 101532</title></g><g style="mix-blend-mode: multiply;"><path d="M5,196.73176086444766C197.5,196.73176086444766,197.5,466.2457988083199,390,466.2457988083199" stroke="#1f77b4" stroke-width="7.086106840916892"/><title>Article → mainEntityOfPage: 99788</title></g><g style="mix-blend-mode: multiply;"><path d="M5,313.2846520233703C197.5,313.2846520233703,197.5,279.4253529868929,390,279.4253529868929" stroke="#d62728" stroke-width="7.003662358190466"/><title>CollectionPage → about: 98627</title></g><g style="mix-blend-mode: multiply;"><path d="M5,208.94753359572525C197.5,208.94753359572525,197.5,975.3287719330544,390,975.3287719330544" stroke="#1f77b4" stroke-width="6.388346731296002"/><title>Article → isPartOf: 89962</title></g><g style="mix-blend-mode: multiply;"><path d="M5,203.0140872574917C197.5,203.0140872574917,197.5,664.7237582501685,390,664.7237582501685" stroke="#1f77b4" stroke-width="5.4785459451711445"/><title>Article → image: 77150</title></g><g style="mix-blend-mode: multiply;"><path d="M5,704.860516754138C197.5,704.860516754138,197.5,191.54712869802825,390,191.54712869802825" stroke="#cccccc" stroke-width="5.125121147126857"/><title>Organization → address: 72173</title></g><g style="mix-blend-mode: multiply;"><path d="M395,1406.0240071853234C587.5,1406.0240071853234,587.5,1061.640651649902,780,1061.640651649902" stroke="#cccccc" stroke-width="147.95198562935357"/><title>potentialAction → SearchAction: 2083490</title></g><g style="mix-blend-mode: multiply;"><path d="M395,1034.8662575170395C587.5,1034.8662575170395,587.5,777.8717102883992,780,777.8717102883992" stroke="#cccccc" stroke-width="112.68662443667408"/><title>isPartOf → WebSite: 1586876</title></g><g style="mix-blend-mode: multiply;"><path d="M395,1171.3770308992569C587.5,1171.3770308992569,587.5,1215.7841056284592,780,1215.7841056284592" stroke="#cccccc" stroke-width="150.33492232776067"/><title>itemListElement → ListItem: 2117047</title></g><g style="mix-blend-mode: multiply;"><path d="M395,763.2230803522701C587.5,763.2230803522701,587.5,418.9333878194043,780,418.9333878194043" stroke="#cccccc" stroke-width="73.083660885357"/><title>target → EntryPoint: 1029179</title></g><g style="mix-blend-mode: multiply;"><path d="M395,925.097605462108C587.5,925.097605462108,587.5,674.4914049647638,780,674.4914049647638" stroke="#cccccc" stroke-width="84.07398621059677"/><title>breadcrumb → BreadcrumbList: 1183947</title></g><g style="mix-blend-mode: multiply;"><path d="M395,1291.796253216892C587.5,1291.796253216892,587.5,500.72697941583743,780,500.72697941583743" stroke="#cccccc" stroke-width="80.50352230750921"/><title>potentialAction → ReadAction: 1133667</title></g><g style="mix-blend-mode: multiply;"><path d="M395,615.5340125900958C587.5,615.5340125900958,587.5,1371.3527626805042,780,1371.3527626805042" stroke="#cccccc" stroke-width="63.41635292245663"/><title>logo → ImageObject: 893042</title></g><g style="mix-blend-mode: multiply;"><path d="M395,844.0207695817811C587.5,844.0207695817811,587.5,948.6248160601967,780,948.6248160601967" stroke="#cccccc" stroke-width="68.07968555005728"/><title>publisher → Organization: 958712</title></g><g style="mix-blend-mode: multiply;"><path d="M395,550.1835150485442C587.5,550.1835150485442,587.5,348.7492362964024,780,348.7492362964024" stroke="#cccccc" stroke-width="57.28464216064668"/><title>offers → Offer: 806694</title></g><g style="mix-blend-mode: multiply;"><path d="M395,435.8562356743933C587.5,435.8562356743933,587.5,1317.7980765058078,780,1317.7980765058078" stroke="#cccccc" stroke-width="43.69301942693628"/><title>primaryImageOfPage → ImageObject: 615294</title></g><g style="mix-blend-mode: multiply;"><path d="M395,686.9617194804579C587.5,686.9617194804579,587.5,1437.7804695708662,780,1437.7804695708662" stroke="#cccccc" stroke-width="69.4390608582674"/><title>image → ImageObject: 977855</title></g><g style="mix-blend-mode: multiply;"><path d="M395,253.03065466132048C587.5,253.03065466132048,587.5,857.1078896532134,780,857.1078896532134" stroke="#cccccc" stroke-width="35.785734292954466"/><title>seller → Organization: 503942</title></g><g style="mix-blend-mode: multiply;"><path d="M395,295.7156300505364C587.5,295.7156300505364,587.5,894.7928650424294,780,894.7928650424294" stroke="#cccccc" stroke-width="39.58421648547747"/><title>about → Organization: 557433</title></g><g style="mix-blend-mode: multiply;"><path d="M395,489.6219696780412C587.5,489.6219696780412,587.5,594.1468408379895,780,594.1468408379895" stroke="#cccccc" stroke-width="53.838448580359504"/><title>mainEntityOfPage → WebPage: 758164</title></g><g style="mix-blend-mode: multiply;"><path d="M395,214.6237383932174C587.5,214.6237383932174,587.5,299.59286609445326,780,299.59286609445326" stroke="#cccccc" stroke-width="31.028098243251595"/><title>weight → QuantitativeValue: 436944</title></g><g style="mix-blend-mode: multiply;"><path d="M395,148.46260646810583C587.5,148.46260646810583,587.5,271.4399215453178,780,271.4399215453178" stroke="#cccccc" stroke-width="25.277790855019273"/><title>inventoryLevel → QuantitativeValue: 355967</title></g><g style="mix-blend-mode: multiply;"><path d="M395,351.4672038125345C587.5,351.4672038125345,587.5,556.603178558701,780,556.603178558701" stroke="#cccccc" stroke-width="21.248875978217846"/><title>item → WebPage: 299231</title></g><g style="mix-blend-mode: multiply;"><path d="M395,330.6752520583504C587.5,330.6752520583504,587.5,163.707240817475,780,163.707240817475" stroke="#cccccc" stroke-width="20.33502753015035"/><title>item → : 286362</title></g><g style="mix-blend-mode: multiply;"><path d="M395,388.0506838812842C587.5,388.0506838812842,587.5,232.84198403816725,780,232.84198403816725" stroke="#cccccc" stroke-width="41.918084159281676"/><title>author → Person: 590299</title></g><g style="mix-blend-mode: multiply;"><path d="M395,123.97765895752303C587.5,123.97765895752303,587.5,141.69367496932665,780,141.69367496932665" stroke="#cccccc" stroke-width="13.692104166146134"/><title>brand → Thing: 192815</title></g><g style="mix-blend-mode: multiply;"><path d="M395,105.42147101871396C587.5,105.42147101871396,587.5,123.13748703051758,780,123.13748703051758" stroke="#cccccc" stroke-width="13.420271711471926"/><title>hasMenuItem → MenuItem: 188987</title></g><g style="mix-blend-mode: multiply;"><path d="M395,87.33310758653866C587.5,87.33310758653866,587.5,105.04912359834228,780,105.04912359834228" stroke="#cccccc" stroke-width="12.756455152878798"/><title>inLanguage → Language: 179639</title></g><g style="mix-blend-mode: multiply;"><path d="M395,180.1055955836036C587.5,180.1055955836036,587.5,192.8788482705384,780,192.8788482705384" stroke="#cccccc" stroke-width="28.008187375976245"/><title>address → PostalAddress: 394417</title></g><g style="mix-blend-mode: multiply;"><path d="M395,70.15177548758005C587.5,70.15177548758005,587.5,87.86779149938367,780,87.86779149938367" stroke="#cccccc" stroke-width="11.606209045038458"/><title>reviewRating → Rating: 163441</title></g><g style="mix-blend-mode: multiply;"><path d="M395,55.09326454850407C587.5,55.09326454850407,587.5,72.80928056030768,780,72.80928056030768" stroke="#cccccc" stroke-width="8.510812833113505"/><title>contactPoint → ContactPoint: 119851</title></g><g style="mix-blend-mode: multiply;"><path d="M395,41.73782512469758C587.5,41.73782512469758,587.5,59.4538411365012,780,59.4538411365012" stroke="#cccccc" stroke-width="8.20006601449952"/><title>acceptedAnswer → Answer: 115475</title></g><g style="mix-blend-mode: multiply;"><path d="M395,28.589775116741624C587.5,28.589775116741624,587.5,46.30579112854524,780,46.30579112854524" stroke="#cccccc" stroke-width="8.096034001412342"/><title>openingHoursSpecification → OpeningHoursSpecification: 114010</title></g><g style="mix-blend-mode: multiply;"><path d="M395,15.890234456675584C587.5,15.890234456675584,587.5,33.6062504684792,780,33.6062504684792" stroke="#cccccc" stroke-width="7.303047318719845"/><title>mainEntity → Question: 102843</title></g><g style="mix-blend-mode: multiply;"><path d="M395,3.6193553986578806C587.5,3.6193553986578806,587.5,21.335371410461498,780,21.335371410461498" stroke="#cccccc" stroke-width="7.238710797315761"/><title>location → Place: 101937</title></g><g style="mix-blend-mode: multiply;"><path d="M395,975.3287719330544C587.5,975.3287719330544,587.5,624.2602384938173,780,624.2602384938173" stroke="#cccccc" stroke-width="6.388346731296002"/><title>isPartOf → WebPage: 89962</title></g><g style="mix-blend-mode: multiply;"><path d="M395,807.3729188008506C587.5,807.3729188008506,587.5,10.108008005901741,780,10.108008005901741" stroke="#cccccc" stroke-width="5.216016011803708"/><title>publisher → Person,Organization: 73453</title></g></g><g><text x="776" y="10.108008005901752" text-anchor="end"><tspan alignment-baseline="middle" x="776" style="font-family: Arial, sans-serif; font-size: 10px; fill: black; font-weight: bold;">Person,Organization</tspan></text><text x="9" y="16.11935539865783" text-anchor="start"><tspan alignment-baseline="middle" x="9" style="font-family: Arial, sans-serif; font-size: 10px; fill: black; font-weight: bold;">Event</tspan></text><text x="399" y="3.619355398657831" text-anchor="start"><tspan alignment-baseline="middle" x="399" style="font-family: Arial, sans-serif; font-size: 10px; fill: black; font-weight: bold;">location</tspan></text><text x="776" y="21.33537141046145" text-anchor="end"><tspan alignment-baseline="middle" x="776" style="font-family: Arial, sans-serif; font-size: 10px; fill: black; font-weight: bold;">Place</tspan></text><text x="9" y="28.390234456675557" text-anchor="start"><tspan alignment-baseline="middle" x="9" style="font-family: Arial, sans-serif; font-size: 10px; fill: black; font-weight: bold;">FAQPage</tspan></text><text x="399" y="15.890234456675557" text-anchor="start"><tspan alignment-baseline="middle" x="399" style="font-family: Arial, sans-serif; font-size: 10px; fill: black; font-weight: bold;">mainEntity</tspan></text><text x="776" y="33.606250468479175" text-anchor="end"><tspan alignment-baseline="middle" x="776" style="font-family: Arial, sans-serif; font-size: 10px; fill: black; font-weight: bold;">Question</tspan></text><text x="399" y="28.589775116741635" text-anchor="start"><tspan alignment-baseline="middle" x="399" style="font-family: Arial, sans-serif; font-size: 10px; fill: black; font-weight: bold;">openingHoursSpecification</tspan></text><text x="776" y="46.30579112854525" text-anchor="end"><tspan alignment-baseline="middle" x="776" style="font-family: Arial, sans-serif; font-size: 10px; fill: black; font-weight: bold;">OpeningHoursSpecification</tspan></text><text x="9" y="41.1417911232852" text-anchor="start"><tspan alignment-baseline="middle" x="9" style="font-family: Arial, sans-serif; font-size: 10px; fill: black; font-weight: bold;">Question</tspan></text><text x="399" y="41.737825124697565" text-anchor="start"><tspan alignment-baseline="middle" x="399" style="font-family: Arial, sans-serif; font-size: 10px; fill: black; font-weight: bold;">acceptedAnswer</tspan></text><text x="776" y="59.45384113650118" text-anchor="end"><tspan alignment-baseline="middle" x="776" style="font-family: Arial, sans-serif; font-size: 10px; fill: black; font-weight: bold;">Answer</tspan></text><text x="399" y="55.09326454850407" text-anchor="start"><tspan alignment-baseline="middle" x="399" style="font-family: Arial, sans-serif; font-size: 10px; fill: black; font-weight: bold;">contactPoint</tspan></text><text x="776" y="72.80928056030768" text-anchor="end"><tspan alignment-baseline="middle" x="776" style="font-family: Arial, sans-serif; font-size: 10px; fill: black; font-weight: bold;">ContactPoint</tspan></text><text x="9" y="55.11297224366433" text-anchor="start"><tspan alignment-baseline="middle" x="9" style="font-family: Arial, sans-serif; font-size: 10px; fill: black; font-weight: bold;">Person</tspan></text><text x="9" y="70.38973737538424" text-anchor="start"><tspan alignment-baseline="middle" x="9" style="font-family: Arial, sans-serif; font-size: 10px; fill: black; font-weight: bold;">Place</tspan></text><text x="9" y="86.48487584145448" text-anchor="start"><tspan alignment-baseline="middle" x="9" style="font-family: Arial, sans-serif; font-size: 10px; fill: black; font-weight: bold;">MenuItem</tspan></text><text x="399" y="70.15177548758004" text-anchor="start"><tspan alignment-baseline="middle" x="399" style="font-family: Arial, sans-serif; font-size: 10px; fill: black; font-weight: bold;">reviewRating</tspan></text><text x="776" y="87.86779149938366" text-anchor="end"><tspan alignment-baseline="middle" x="776" style="font-family: Arial, sans-serif; font-size: 10px; fill: black; font-weight: bold;">Rating</tspan></text><text x="9" y="103.55262486537356" text-anchor="start"><tspan alignment-baseline="middle" x="9" style="font-family: Arial, sans-serif; font-size: 10px; fill: black; font-weight: bold;">MobileApplication</tspan></text><text x="399" y="87.33310758653863" text-anchor="start"><tspan alignment-baseline="middle" x="399" style="font-family: Arial, sans-serif; font-size: 10px; fill: black; font-weight: bold;">inLanguage</tspan></text><text x="776" y="105.04912359834225" text-anchor="end"><tspan alignment-baseline="middle" x="776" style="font-family: Arial, sans-serif; font-size: 10px; fill: black; font-weight: bold;">Language</tspan></text><text x="9" y="121.64098829754892" text-anchor="start"><tspan alignment-baseline="middle" x="9" style="font-family: Arial, sans-serif; font-size: 10px; fill: black; font-weight: bold;">MenuSection</tspan></text><text x="399" y="105.42147101871399" text-anchor="start"><tspan alignment-baseline="middle" x="399" style="font-family: Arial, sans-serif; font-size: 10px; fill: black; font-weight: bold;">hasMenuItem</tspan></text><text x="776" y="123.1374870305176" text-anchor="end"><tspan alignment-baseline="middle" x="776" style="font-family: Arial, sans-serif; font-size: 10px; fill: black; font-weight: bold;">MenuItem</tspan></text><text x="399" y="123.97765895752309" text-anchor="start"><tspan alignment-baseline="middle" x="399" style="font-family: Arial, sans-serif; font-size: 10px; fill: black; font-weight: bold;">brand</tspan></text><text x="776" y="141.6936749693267" text-anchor="end"><tspan alignment-baseline="middle" x="776" style="font-family: Arial, sans-serif; font-size: 10px; fill: black; font-weight: bold;">Thing</tspan></text><text x="9" y="143.43505724982515" text-anchor="start"><tspan alignment-baseline="middle" x="9" style="font-family: Arial, sans-serif; font-size: 10px; fill: black; font-weight: bold;">LocalBusiness</tspan></text><text x="776" y="163.70724081747505" text-anchor="end"><tspan alignment-baseline="middle" x="776" style="font-family: Arial, sans-serif; font-size: 10px; fill: black; font-weight: bold;"/></text><text x="9" y="169.74887334815776" text-anchor="start"><tspan alignment-baseline="middle" x="9" style="font-family: Arial, sans-serif; font-size: 10px; fill: black; font-weight: bold;">Review</tspan></text><text x="399" y="148.46260646810583" text-anchor="start"><tspan alignment-baseline="middle" x="399" style="font-family: Arial, sans-serif; font-size: 10px; fill: black; font-weight: bold;">inventoryLevel</tspan></text><text x="9" y="199.0602316556617" text-anchor="start"><tspan alignment-baseline="middle" x="9" style="font-family: Arial, sans-serif; font-size: 10px; fill: black; font-weight: bold;">Article</tspan></text><text x="399" y="180.10559558360353" text-anchor="start"><tspan alignment-baseline="middle" x="399" style="font-family: Arial, sans-serif; font-size: 10px; fill: black; font-weight: bold;">address</tspan></text><text x="776" y="192.87884827053836" text-anchor="end"><tspan alignment-baseline="middle" x="776" style="font-family: Arial, sans-serif; font-size: 10px; fill: black; font-weight: bold;">PostalAddress</tspan></text><text x="399" y="214.62373839321742" text-anchor="start"><tspan alignment-baseline="middle" x="399" style="font-family: Arial, sans-serif; font-size: 10px; fill: black; font-weight: bold;">weight</tspan></text><text x="399" y="253.03065466132045" text-anchor="start"><tspan alignment-baseline="middle" x="399" style="font-family: Arial, sans-serif; font-size: 10px; fill: black; font-weight: bold;">seller</tspan></text><text x="399" y="295.71563005053645" text-anchor="start"><tspan alignment-baseline="middle" x="399" style="font-family: Arial, sans-serif; font-size: 10px; fill: black; font-weight: bold;">about</tspan></text><text x="9" y="237.6703121486401" text-anchor="start"><tspan alignment-baseline="middle" x="9" style="font-family: Arial, sans-serif; font-size: 10px; fill: black; font-weight: bold;">ItemList</tspan></text><text x="9" y="283.990869090091" text-anchor="start"><tspan alignment-baseline="middle" x="9" style="font-family: Arial, sans-serif; font-size: 10px; fill: black; font-weight: bold;">ListItem</tspan></text><text x="399" y="341.2996900474593" text-anchor="start"><tspan alignment-baseline="middle" x="399" style="font-family: Arial, sans-serif; font-size: 10px; fill: black; font-weight: bold;">item</tspan></text><text x="399" y="388.0506838812843" text-anchor="start"><tspan alignment-baseline="middle" x="399" style="font-family: Arial, sans-serif; font-size: 10px; fill: black; font-weight: bold;">author</tspan></text><text x="776" y="232.8419840381673" text-anchor="end"><tspan alignment-baseline="middle" x="776" style="font-family: Arial, sans-serif; font-size: 10px; fill: black; font-weight: bold;">Person</tspan></text><text x="399" y="435.8562356743933" text-anchor="start"><tspan alignment-baseline="middle" x="399" style="font-family: Arial, sans-serif; font-size: 10px; fill: black; font-weight: bold;">primaryImageOfPage</tspan></text><text x="9" y="335.5904648499087" text-anchor="start"><tspan alignment-baseline="middle" x="9" style="font-family: Arial, sans-serif; font-size: 10px; fill: black; font-weight: bold;">CollectionPage</tspan></text><text x="399" y="489.6219696780412" text-anchor="start"><tspan alignment-baseline="middle" x="399" style="font-family: Arial, sans-serif; font-size: 10px; fill: black; font-weight: bold;">mainEntityOfPage</tspan></text><text x="776" y="286.95397066694363" text-anchor="end"><tspan alignment-baseline="middle" x="776" style="font-family: Arial, sans-serif; font-size: 10px; fill: black; font-weight: bold;">QuantitativeValue</tspan></text><text x="399" y="550.1835150485442" text-anchor="start"><tspan alignment-baseline="middle" x="399" style="font-family: Arial, sans-serif; font-size: 10px; fill: black; font-weight: bold;">offers</tspan></text><text x="776" y="348.74923629640244" text-anchor="end"><tspan alignment-baseline="middle" x="776" style="font-family: Arial, sans-serif; font-size: 10px; fill: black; font-weight: bold;">Offer</tspan></text><text x="9" y="396.92987142952927" text-anchor="start"><tspan alignment-baseline="middle" x="9" style="font-family: Arial, sans-serif; font-size: 10px; fill: black; font-weight: bold;">Offer</tspan></text><text x="399" y="615.5340125900959" text-anchor="start"><tspan alignment-baseline="middle" x="399" style="font-family: Arial, sans-serif; font-size: 10px; fill: black; font-weight: bold;">logo</tspan></text><text x="9" y="464.4437022561966" text-anchor="start"><tspan alignment-baseline="middle" x="9" style="font-family: Arial, sans-serif; font-size: 10px; fill: black; font-weight: bold;">BlogPosting</tspan></text><text x="399" y="686.961719480458" text-anchor="start"><tspan alignment-baseline="middle" x="399" style="font-family: Arial, sans-serif; font-size: 10px; fill: black; font-weight: bold;">image</tspan></text><text x="9" y="537.9676009515555" text-anchor="start"><tspan alignment-baseline="middle" x="9" style="font-family: Arial, sans-serif; font-size: 10px; fill: black; font-weight: bold;">SearchAction</tspan></text><text x="399" y="763.2230803522702" text-anchor="start"><tspan alignment-baseline="middle" x="399" style="font-family: Arial, sans-serif; font-size: 10px; fill: black; font-weight: bold;">target</tspan></text><text x="776" y="418.9333878194043" text-anchor="end"><tspan alignment-baseline="middle" x="776" style="font-family: Arial, sans-serif; font-size: 10px; fill: black; font-weight: bold;">EntryPoint</tspan></text><text x="399" y="841.4127615758791" text-anchor="start"><tspan alignment-baseline="middle" x="399" style="font-family: Arial, sans-serif; font-size: 10px; fill: black; font-weight: bold;">publisher</tspan></text><text x="776" y="500.7269794158374" text-anchor="end"><tspan alignment-baseline="middle" x="776" style="font-family: Arial, sans-serif; font-size: 10px; fill: black; font-weight: bold;">ReadAction</tspan></text><text x="776" y="586.7165762145287" text-anchor="end"><tspan alignment-baseline="middle" x="776" style="font-family: Arial, sans-serif; font-size: 10px; fill: black; font-weight: bold;">WebPage</tspan></text><text x="399" y="925.097605462108" text-anchor="start"><tspan alignment-baseline="middle" x="399" style="font-family: Arial, sans-serif; font-size: 10px; fill: black; font-weight: bold;">breadcrumb</tspan></text><text x="776" y="674.4914049647638" text-anchor="end"><tspan alignment-baseline="middle" x="776" style="font-family: Arial, sans-serif; font-size: 10px; fill: black; font-weight: bold;">BreadcrumbList</tspan></text><text x="9" y="634.1482873708475" text-anchor="start"><tspan alignment-baseline="middle" x="9" style="font-family: Arial, sans-serif; font-size: 10px; fill: black; font-weight: bold;">BreadcrumbList</tspan></text><text x="776" y="777.8717102883992" text-anchor="end"><tspan alignment-baseline="middle" x="776" style="font-family: Arial, sans-serif; font-size: 10px; fill: black; font-weight: bold;">WebSite</tspan></text><text x="9" y="751.419138813238" text-anchor="start"><tspan alignment-baseline="middle" x="9" style="font-family: Arial, sans-serif; font-size: 10px; fill: black; font-weight: bold;">Organization</tspan></text><text x="399" y="1031.6720841513916" text-anchor="start"><tspan alignment-baseline="middle" x="399" style="font-family: Arial, sans-serif; font-size: 10px; fill: black; font-weight: bold;">isPartOf</tspan></text><text x="9" y="875.1250626282974" text-anchor="start"><tspan alignment-baseline="middle" x="9" style="font-family: Arial, sans-serif; font-size: 10px; fill: black; font-weight: bold;">Product</tspan></text><text x="776" y="910.9398406709809" text-anchor="end"><tspan alignment-baseline="middle" x="776" style="font-family: Arial, sans-serif; font-size: 10px; fill: black; font-weight: bold;">Organization</tspan></text><text x="776" y="1061.640651649902" text-anchor="end"><tspan alignment-baseline="middle" x="776" style="font-family: Arial, sans-serif; font-size: 10px; fill: black; font-weight: bold;">SearchAction</tspan></text><text x="399" y="1171.377030899257" text-anchor="start"><tspan alignment-baseline="middle" x="399" style="font-family: Arial, sans-serif; font-size: 10px; fill: black; font-weight: bold;">itemListElement</tspan></text><text x="776" y="1215.7841056284592" text-anchor="end"><tspan alignment-baseline="middle" x="776" style="font-family: Arial, sans-serif; font-size: 10px; fill: black; font-weight: bold;">ListItem</tspan></text><text x="776" y="1384.2257833961698" text-anchor="end"><tspan alignment-baseline="middle" x="776" style="font-family: Arial, sans-serif; font-size: 10px; fill: black; font-weight: bold;">ImageObject</tspan></text><text x="9" y="1043.575723365056" text-anchor="start"><tspan alignment-baseline="middle" x="9" style="font-family: Arial, sans-serif; font-size: 10px; fill: black; font-weight: bold;">WebSite</tspan></text><text x="399" y="1365.7722460315688" text-anchor="start"><tspan alignment-baseline="middle" x="399" style="font-family: Arial, sans-serif; font-size: 10px; fill: black; font-weight: bold;">potentialAction</tspan></text><text x="9" y="1309.2262278762662" text-anchor="start"><tspan alignment-baseline="middle" x="9" style="font-family: Arial, sans-serif; font-size: 10px; fill: black; font-weight: bold;">WebPage</tspan></text></g><g><text x="782.5" y="3.4999999999998863" text-anchor="middle" style="font-family: Arial, sans-serif; font-size: 12px; fill: rgb(123, 123, 123); font-weight: bold;">_to</text><text x="2.5" y="8.5" text-anchor="middle" style="font-family: Arial, sans-serif; font-size: 12px; fill: rgb(123, 123, 123); font-weight: bold;">_from</text><text x="392.5" y="-4" text-anchor="middle" style="font-family: Arial, sans-serif; font-size: 12px; fill: rgb(123, 123, 123); font-weight: bold;">relationship</text></g></g></svg>