<svg xmlns="http://www.w3.org/2000/svg" width="1200" height="1000"><rect width="1200" height="1000" x="0" y="0" fill="#FFFFFF" id="backgorund"/><g transform="translate(10,20)" id="visualization"><g><rect x="1175" y="7.500000000000057" height="12.652906018760177" width="5" fill="black"><title>: 286362</title></rect><rect x="1175" y="25.152906018760234" height="5.102263297910781" width="5" fill="black"><title>Answer: 115475</title></rect><rect x="0" y="12.5" height="16.27916926932994" width="5" fill="black"><title>Article: 368432</title></rect><rect x="0" y="33.77916926932994" height="39.799907158891074" width="5" fill="black"><title>BlogPosting: 900756</title></rect><rect x="0" y="78.57907642822101" height="67.99502077089682" width="5" fill="black"><title>BreadcrumbList: 1538871</title></rect><rect x="1175" y="35.255169316671015" height="52.312702531037985" width="5" fill="black"><title>BreadcrumbList: 1183947</title></rect><rect x="0" y="151.57409719911783" height="32.116179207010646" width="5" fill="black"><title>CollectionPage: 726857</title></rect><rect x="1175" y="92.567871847709" height="5.29561687393732" width="5" fill="black"><title>ContactPoint: 119851</title></rect><rect x="1175" y="102.86348872164632" height="45.47427788422215" width="5" fill="black"><title>EntryPoint: 1029179</title></rect><rect x="0" y="188.69027640612848" height="4.504086718329859" width="5" fill="black"><title>Event: 101937</title></rect><rect x="0" y="198.19436312445833" height="4.544118331647951" width="5" fill="black"><title>FAQPage: 102843</title></rect><rect x="1175" y="153.33776660586847" height="109.852358440322" width="5" fill="black"><title>ImageObject: 2486191</title></rect><rect x="0" y="207.73848145610629" height="25.546708677487572" width="5" fill="black"><title>ItemList: 578176</title></rect><rect x="1175" y="268.1901250461905" height="7.9373498729023595" width="5" fill="black"><title>Language: 179639</title></rect><rect x="0" y="238.28519013359386" height="25.87442884965128" width="5" fill="black"><title>ListItem: 585593</title></rect><rect x="1175" y="281.12747491909283" height="93.54172944838439" width="5" fill="black"><title>ListItem: 2117047</title></rect><rect x="0" y="269.15961898324514" height="12.548894520139015" width="5" fill="black"><title>LocalBusiness: 284008</title></rect><rect x="0" y="286.70851350338415" height="7.080293356863649" width="5" fill="black"><title>MenuItem: 160242</title></rect><rect x="1175" y="379.6692043674772" height="8.350391287138109" width="5" fill="black"><title>MenuItem: 188987</title></rect><rect x="0" y="298.7888068602478" height="8.350391287138109" width="5" fill="black"><title>MenuSection: 188987</title></rect><rect x="0" y="312.1391981473859" height="7.9373498729023595" width="5" fill="black"><title>MobileApplication: 179639</title></rect><rect x="0" y="325.07654802028827" height="37.99508231429479" width="5" fill="black"><title>Offer: 859909</title></rect><rect x="1175" y="393.01959565461533" height="35.64377734440234" width="5" fill="black"><title>Offer: 806694</title></rect><rect x="1175" y="433.66337299901767" height="5.03753226754543" width="5" fill="black"><title>OpeningHoursSpecification: 114010</title></rect><rect x="0" y="368.07163033458306" height="71.71981657963357" width="5" fill="black"><title>Organization: 1623171</title></rect><rect x="1175" y="443.7009052665631" height="89.25755149328228" width="5" fill="black"><title>Organization: 2020087</title></rect><rect x="0" y="444.79144691421664" height="6.061873207449935" width="5" fill="black"><title>Person: 137193</title></rect><rect x="1175" y="537.9584567598454" height="26.08236347688637" width="5" fill="black"><title>Person: 590299</title></rect><rect x="1175" y="569.0408202367317" height="3.245521074011208" width="5" fill="black"><title>Person,Organization: 73453</title></rect><rect x="0" y="455.85332012166657" height="6.726990067579436" width="5" fill="black"><title>Place: 152246</title></rect><rect x="1175" y="577.286341310743" height="4.504086718329859" width="5" fill="black"><title>Place: 101937</title></rect><rect x="1175" y="586.7904280290728" height="17.427316589496286" width="5" fill="black"><title>PostalAddress: 394417</title></rect><rect x="0" y="467.580310189246" height="76.0031108346626" width="5" fill="black"><title>Product: 1720111</title></rect><rect x="1175" y="609.2177446185691" height="35.034775438924044" width="5" fill="black"><title>QuantitativeValue: 792911</title></rect><rect x="0" y="548.5834210239086" height="5.102263297910781" width="5" fill="black"><title>Question: 115475</title></rect><rect x="1175" y="649.2525200574931" height="4.544118331647951" width="5" fill="black"><title>Question: 102843</title></rect><rect x="1175" y="658.7966383891411" height="7.221641183579436" width="5" fill="black"><title>Rating: 163441</title></rect><rect x="1175" y="671.0182795727205" height="50.091080546894545" width="5" fill="black"><title>ReadAction: 1133667</title></rect><rect x="0" y="558.6856843218194" height="13.974965513341658" width="5" fill="black"><title>Review: 316283</title></rect><rect x="0" y="577.660649835161" height="45.47427788422215" width="5" fill="black"><title>SearchAction: 1029179</title></rect><rect x="1175" y="726.1093601196151" height="92.05901328048662" width="5" fill="black"><title>SearchAction: 2083490</title></rect><rect x="1175" y="823.1683734001017" height="8.519531481157628" width="5" fill="black"><title>Thing: 192815</title></rect><rect x="0" y="628.1349277193832" height="196.96291642064648" width="5" fill="black"><title>WebPage: 4457687</title></rect><rect x="1175" y="836.6879048812593" height="50.69597324703227" width="5" fill="black"><title>WebPage: 1147357</title></rect><rect x="0" y="830.0978441400297" height="127.40215585997032" width="5" fill="black"><title>WebSite: 2883380</title></rect><rect x="1175" y="892.3838781282916" height="70.11612187170829" width="5" fill="black"><title>WebSite: 1586876</title></rect><rect x="587.5" y="1.1368683772161603e-13" height="24.630179146519367" width="5" fill="black"><title>about: 557433</title></rect><rect x="587.5" y="29.63017914651948" height="5.102263297910781" width="5" fill="black"><title>acceptedAnswer: 115475</title></rect><rect x="587.5" y="39.73244244443026" height="17.427316589496286" width="5" fill="black"><title>address: 394417</title></rect><rect x="587.5" y="62.15975903392655" height="26.08236347688637" width="5" fill="black"><title>author: 590299</title></rect><rect x="587.5" y="93.24212251081292" height="8.519531481157628" width="5" fill="black"><title>brand: 192815</title></rect><rect x="587.5" y="106.76165399197055" height="52.312702531037985" width="5" fill="black"><title>breadcrumb: 1183947</title></rect><rect x="587.5" y="164.07435652300853" height="5.29561687393732" width="5" fill="black"><title>contactPoint: 119851</title></rect><rect x="587.5" y="174.36997339694585" height="8.350391287138109" width="5" fill="black"><title>hasMenuItem: 188987</title></rect><rect x="587.5" y="187.72036468408396" height="43.20652675625524" width="5" fill="black"><title>image: 977855</title></rect><rect x="587.5" y="235.9268914403392" height="7.9373498729023595" width="5" fill="black"><title>inLanguage: 179639</title></rect><rect x="587.5" y="248.86424131324156" height="15.72840319867862" width="5" fill="black"><title>inventoryLevel: 355967</title></rect><rect x="587.5" y="269.5926445119202" height="74.0910931711814" width="5" fill="black"><title>isPartOf: 1676838</title></rect><rect x="587.5" y="348.6837376831016" height="25.87442884965128" width="5" fill="black"><title>item: 585593</title></rect><rect x="587.5" y="379.55816653275286" height="93.54172944838439" width="5" fill="black"><title>itemListElement: 2117047</title></rect><rect x="587.5" y="478.09989598113725" height="4.504086718329859" width="5" fill="black"><title>location: 101937</title></rect><rect x="587.5" y="487.6039826994671" height="39.459064040639646" width="5" fill="black"><title>logo: 893042</title></rect><rect x="587.5" y="532.0630467401068" height="4.544118331647951" width="5" fill="black"><title>mainEntity: 102843</title></rect><rect x="587.5" y="541.6071650717547" height="33.49947911666811" width="5" fill="black"><title>mainEntityOfPage: 758164</title></rect><rect x="587.5" y="580.1066441884228" height="35.64377734440234" width="5" fill="black"><title>offers: 806694</title></rect><rect x="587.5" y="620.7504215328252" height="5.03753226754543" width="5" fill="black"><title>openingHoursSpecification: 114010</title></rect><rect x="587.5" y="630.7879538003706" height="142.15009382738128" width="5" fill="black"><title>potentialAction: 3217157</title></rect><rect x="587.5" y="777.9380476277519" height="27.18676764342706" width="5" fill="black"><title>primaryImageOfPage: 615294</title></rect><rect x="587.5" y="810.1248152711789" height="45.60621430515789" width="5" fill="black"><title>publisher: 1032165</title></rect><rect x="587.5" y="860.7310295763368" height="7.221641183579436" width="5" fill="black"><title>reviewRating: 163441</title></rect><rect x="587.5" y="872.9526707599163" height="22.266679115616057" width="5" fill="black"><title>seller: 503942</title></rect><rect x="587.5" y="900.2193498755323" height="45.47427788422215" width="5" fill="black"><title>target: 1029179</title></rect><rect x="587.5" y="950.6936277597545" height="19.30637224024531" width="5" fill="black"><title>weight: 436944</title></rect></g><g fill="none" stroke-opacity="1"><g style="mix-blend-mode: multiply;"><path d="M5,876.127350780273C296.25,876.127350780273,296.25,726.9085409875086,587.5,726.9085409875086" stroke="#cccccc" stroke-width="92.05901328048667"/><title>WebSite → potentialAction: 2083490</title></g><g style="mix-blend-mode: multiply;"><path d="M5,725.7455657850268C296.25,725.7455657850268,296.25,314.50095668423114,587.5,314.50095668423114" stroke="#cccccc" stroke-width="58.36556199774078"/><title>WebPage → isPartOf: 1320936</title></g><g style="mix-blend-mode: multiply;"><path d="M5,112.57658681366942C296.25,112.57658681366942,296.25,413.55567691820124,587.5,413.55567691820124" stroke="#f6b26b" stroke-width="67.99502077089682"/><title>BreadcrumbList → itemListElement: 1538871</title></g><g style="mix-blend-mode: multiply;"><path d="M5,600.3977887772721C296.25,600.3977887772721,296.25,922.9564888176434,587.5,922.9564888176434" stroke="#cccccc" stroke-width="45.47427788422214"/><title>SearchAction → target: 1029179</title></g><g style="mix-blend-mode: multiply;"><path d="M5,674.8561505919607C296.25,674.8561505919607,296.25,137.36772232881282,587.5,137.36772232881282" stroke="#cccccc" stroke-width="43.413268388391444"/><title>WebPage → breadcrumb: 982534</title></g><g style="mix-blend-mode: multiply;"><path d="M5,776.4197116402498C296.25,776.4197116402498,296.25,659.3876694909125,587.5,659.3876694909125" stroke="#cccccc" stroke-width="42.98272971270542"/><title>WebPage → potentialAction: 972790</title></g><g style="mix-blend-mode: multiply;"><path d="M5,420.06191489389676C296.25,420.06191489389676,296.25,507.33351471978693,587.5,507.33351471978693" stroke="#cccccc" stroke-width="39.45906404063968"/><title>Organization → logo: 893042</title></g><g style="mix-blend-mode: multiply;"><path d="M5,939.8284287102581C296.25,939.8284287102581,296.25,838.0594582865949,587.5,838.0594582865949" stroke="#cccccc" stroke-width="35.34314257948369"/><title>WebSite → publisher: 799890</title></g><g style="mix-blend-mode: multiply;"><path d="M5,509.9953067898938C296.25,509.9953067898938,296.25,601.4686795390559,587.5,601.4686795390559" stroke="#cccccc" stroke-width="28.563483987538774"/><title>Product → offers: 646452</title></g><g style="mix-blend-mode: multiply;"><path d="M5,811.5044603183161C296.25,811.5044603183161,296.25,791.5314314494653,587.5,791.5314314494653" stroke="#cccccc" stroke-width="27.186767643427018"/><title>WebPage → primaryImageOfPage: 615294</title></g><g style="mix-blend-mode: multiply;"><path d="M5,220.5118357948501C296.25,220.5118357948501,296.25,460.32654164239347,587.5,460.32654164239347" stroke="#93c47d" stroke-width="25.546708677487608"/><title>ItemList → itemListElement: 578176</title></g><g style="mix-blend-mode: multiply;"><path d="M5,388.44429717571035C296.25,388.44429717571035,296.25,212.97693253502268,587.5,212.97693253502268" stroke="#cccccc" stroke-width="23.776171395733254"/><title>Organization → image: 538105</title></g><g style="mix-blend-mode: multiply;"><path d="M5,351.938290776775C296.25,351.938290776775,296.25,884.0860103177243,587.5,884.0860103177243" stroke="#cccccc" stroke-width="22.26667911561611"/><title>Offer → seller: 503942</title></g><g style="mix-blend-mode: multiply;"><path d="M5,638.2711001145392C296.25,638.2711001145392,296.25,14.494006751363472,587.5,14.494006751363472" stroke="#cccccc" stroke-width="20.272344790311912"/><title>WebPage → about: 458806</title></g><g style="mix-blend-mode: multiply;"><path d="M5,485.90670323326395C296.25,485.90670323326395,296.25,565.2997826255623,587.5,565.2997826255623" stroke="#cccccc" stroke-width="19.6137231257208"/><title>Product → mainEntityOfPage: 443900</title></g><g style="mix-blend-mode: multiply;"><path d="M5,533.930234903786C296.25,533.930234903786,296.25,960.3468138798772,587.5,960.3468138798772" stroke="#cccccc" stroke-width="19.306372240245437"/><title>Product → weight: 436944</title></g><g style="mix-blend-mode: multiply;"><path d="M5,332.9407496196276C296.25,332.9407496196276,296.25,256.7284429125809,587.5,256.7284429125809" stroke="#cccccc" stroke-width="15.728403198678658"/><title>Offer → inventoryLevel: 355967</title></g><g style="mix-blend-mode: multiply;"><path d="M5,251.22240455841953C296.25,251.22240455841953,296.25,361.6209521079272,587.5,361.6209521079272" stroke="#e69138" stroke-width="25.87442884965132"/><title>ListItem → item: 585593</title></g><g style="mix-blend-mode: multiply;"><path d="M5,170.70664563495555C296.25,170.70664563495555,296.25,279.442895748377,587.5,279.442895748377" stroke="#ea9999" stroke-width="11.750559873967537"/><title>CollectionPage → isPartOf: 265940</title></g><g style="mix-blend-mode: multiply;"><path d="M5,68.44754056538393C296.25,68.44754056538393,296.25,815.2563511340161,587.5,815.2563511340161" stroke="#9fc5e8" stroke-width="10.263071725674248"/><title>BlogPosting → publisher: 232275</title></g><g style="mix-blend-mode: multiply;"><path d="M5,38.82947100293382C296.25,38.82947100293382,296.25,71.69625255937697,587.5,71.69625255937697" stroke="#9fc5e8" stroke-width="10.100603467207756"/><title>BlogPosting → author: 228598</title></g><g style="mix-blend-mode: multiply;"><path d="M5,48.85957729679828C296.25,48.85957729679828,296.25,196.10904227689548,587.5,196.10904227689548" stroke="#9fc5e8" stroke-width="9.959609120521172"/><title>BlogPosting → image: 225407</title></g><g style="mix-blend-mode: multiply;"><path d="M5,58.57769327980284C296.25,58.57769327980284,296.25,550.7546096399581,587.5,550.7546096399581" stroke="#9fc5e8" stroke-width="9.476622845487935"/><title>BlogPosting → mainEntityOfPage: 214476</title></g><g style="mix-blend-mode: multiply;"><path d="M5,160.3816486266485C296.25,160.3816486266485,296.25,111.21137106329383,587.5,111.21137106329383" stroke="#ea9999" stroke-width="8.89943414264655"/><title>CollectionPage → breadcrumb: 201413</title></g><g style="mix-blend-mode: multiply;"><path d="M5,471.8400759298248C296.25,471.8400759298248,296.25,97.50188825139172,587.5,97.50188825139172" stroke="#cccccc" stroke-width="8.519531481157594"/><title>Product → brand: 192815</title></g><g style="mix-blend-mode: multiply;"><path d="M5,302.96400250381686C296.25,302.96400250381686,296.25,178.5451690405149,587.5,178.5451690405149" stroke="#cccccc" stroke-width="8.350391287138088"/><title>MenuSection → hasMenuItem: 188987</title></g><g style="mix-blend-mode: multiply;"><path d="M5,316.1078730838371C296.25,316.1078730838371,296.25,239.89556637679038,587.5,239.89556637679038" stroke="#cccccc" stroke-width="7.937349872902363"/><title>MobileApplication → inLanguage: 179639</title></g><g style="mix-blend-mode: multiply;"><path d="M5,272.91530010954193C296.25,272.91530010954193,296.25,43.48812357072705,587.5,43.48812357072705" stroke="#ffe599" stroke-width="7.5113622525935675"/><title>LocalBusiness → address: 169998</title></g><g style="mix-blend-mode: multiply;"><path d="M5,569.0498292433713C296.25,569.0498292433713,296.25,864.3418501681266,587.5,864.3418501681266" stroke="#cccccc" stroke-width="7.221641183579485"/><title>Review → reviewRating: 163441</title></g><g style="mix-blend-mode: multiply;"><path d="M5,180.13610098903393C296.25,180.13610098903393,296.25,634.3421292174652,587.5,634.3421292174652" stroke="#ea9999" stroke-width="7.108350834189198"/><title>CollectionPage → potentialAction: 160877</title></g><g style="mix-blend-mode: multiply;"><path d="M5,290.248660181816C296.25,290.248660181816,296.25,583.6467908668546,587.5,583.6467908668546" stroke="#9fc5e8" stroke-width="7.080293356863601"/><title>MenuItem → offers: 160242</title></g><g style="mix-blend-mode: multiply;"><path d="M5,562.0623464867004C296.25,562.0623464867004,296.25,80.12321645786193,587.5,80.12321645786193" stroke="#cccccc" stroke-width="6.75332432976215"/><title>Review → author: 152842</title></g><g style="mix-blend-mode: multiply;"><path d="M5,459.2168151554563C296.25,459.2168151554563,296.25,53.7962640001369,587.5,53.7962640001369" stroke="#cccccc" stroke-width="6.726990067579385"/><title>Place → address: 152246</title></g><g style="mix-blend-mode: multiply;"><path d="M5,447.8223835179416C296.25,447.8223835179416,296.25,227.8959548366143,587.5,227.8959548366143" stroke="#cccccc" stroke-width="6.061873207449907"/><title>Person → image: 137193</title></g><g style="mix-blend-mode: multiply;"><path d="M5,373.9084030408751C296.25,373.9084030408751,296.25,166.7221649599772,587.5,166.7221649599772" stroke="#cccccc" stroke-width="5.295616873937291"/><title>Organization → contactPoint: 119851</title></g><g style="mix-blend-mode: multiply;"><path d="M5,551.1345526728641C296.25,551.1345526728641,296.25,32.181310795474886,587.5,32.181310795474886" stroke="#cccccc" stroke-width="5.102263297910812"/><title>Question → acceptedAnswer: 115475</title></g><g style="mix-blend-mode: multiply;"><path d="M5,279.18974736961144C296.25,279.18974736961144,296.25,623.2691876665979,587.5,623.2691876665979" stroke="#ffe599" stroke-width="5.0375322675454575"/><title>LocalBusiness → openingHoursSpecification: 114010</title></g><g style="mix-blend-mode: multiply;"><path d="M5,650.77839445373C296.25,650.77839445373,296.25,85.87100056677797,587.5,85.87100056677797" stroke="#cccccc" stroke-width="4.742243888069917"/><title>WebPage → author: 107327</title></g><g style="mix-blend-mode: multiply;"><path d="M5,200.46642229028228C296.25,200.46642229028228,296.25,534.3351059059307,587.5,534.3351059059307" stroke="#6d9eeb" stroke-width="4.544118331647903"/><title>FAQPage → mainEntity: 102843</title></g><g style="mix-blend-mode: multiply;"><path d="M5,190.94231976529338C296.25,190.94231976529338,296.25,480.3519393403022,587.5,480.3519393403022" stroke="#ffd966" stroke-width="4.504086718329806"/><title>Event → location: 101937</title></g><g style="mix-blend-mode: multiply;"><path d="M5,14.743095895923275C296.25,14.743095895923275,296.25,64.40285492984982,587.5,64.40285492984982" stroke="#ffe599" stroke-width="4.486191791846552"/><title>Article → author: 101532</title></g><g style="mix-blend-mode: multiply;"><path d="M5,26.574602696600255C296.25,26.574602696600255,296.25,543.8117316444844,587.5,543.8117316444844" stroke="#ffe599" stroke-width="4.409133145459399"/><title>Article → mainEntityOfPage: 99788</title></g><g style="mix-blend-mode: multiply;"><path d="M5,153.75301437722152C296.25,153.75301437722152,296.25,2.178917178103814,587.5,2.178917178103814" stroke="#ea9999" stroke-width="4.357834356207401"/><title>CollectionPage → about: 98627</title></g><g style="mix-blend-mode: multiply;"><path d="M5,22.38255047413402C296.25,22.38255047413402,296.25,271.5801301616567,587.5,271.5801301616567" stroke="#ffe599" stroke-width="3.9749712994730673"/><title>Article → isPartOf: 89962</title></g><g style="mix-blend-mode: multiply;"><path d="M5,18.69062830812202C296.25,18.69062830812202,296.25,189.42480120035944,587.5,189.42480120035944" stroke="#ffe599" stroke-width="3.408873032550934"/><title>Article → image: 77150</title></g><g style="mix-blend-mode: multiply;"><path d="M5,369.66611246924475C296.25,369.66611246924475,296.25,48.83828683168552,587.5,48.83828683168552" stroke="#cccccc" stroke-width="3.1889642693233777"/><title>Organization → address: 72173</title></g><g style="mix-blend-mode: multiply;"><path d="M592.5,726.9085409875086C883.75,726.9085409875086,883.75,772.1388667598584,1175,772.1388667598584" stroke="#cccccc" stroke-width="92.05901328048667"/><title>potentialAction → SearchAction: 2083490</title></g><g style="mix-blend-mode: multiply;"><path d="M592.5,308.6256767472474C883.75,308.6256767472474,883.75,927.4419390641458,1175,927.4419390641458" stroke="#cccccc" stroke-width="70.11612187170832"/><title>isPartOf → WebSite: 1586876</title></g><g style="mix-blend-mode: multiply;"><path d="M592.5,426.3290312569451C883.75,426.3290312569451,883.75,327.89833964328506,1175,327.89833964328506" stroke="#cccccc" stroke-width="93.54172944838442"/><title>itemListElement → ListItem: 2117047</title></g><g style="mix-blend-mode: multiply;"><path d="M592.5,922.9564888176434C883.75,922.9564888176434,883.75,125.6006276637574,1175,125.6006276637574" stroke="#cccccc" stroke-width="45.47427788422214"/><title>target → EntryPoint: 1029179</title></g><g style="mix-blend-mode: multiply;"><path d="M592.5,132.91800525748954C883.75,132.91800525748954,883.75,61.41152058219001,1175,61.41152058219001" stroke="#cccccc" stroke-width="52.31270253103799"/><title>breadcrumb → BreadcrumbList: 1183947</title></g><g style="mix-blend-mode: multiply;"><path d="M592.5,655.8334940738179C883.75,655.8334940738179,883.75,696.0638198461678,1175,696.0638198461678" stroke="#cccccc" stroke-width="50.091080546894624"/><title>potentialAction → ReadAction: 1133667</title></g><g style="mix-blend-mode: multiply;"><path d="M592.5,507.33351471978693C883.75,507.33351471978693,883.75,216.2738253824436,1175,216.2738253824436" stroke="#cccccc" stroke-width="39.45906404063968"/><title>logo → ImageObject: 893042</title></g><g style="mix-blend-mode: multiply;"><path d="M592.5,831.3051618867523C883.75,831.3051618867523,883.75,489.5114310286558,1175,489.5114310286558" stroke="#cccccc" stroke-width="42.36069323114674"/><title>publisher → Organization: 958712</title></g><g style="mix-blend-mode: multiply;"><path d="M592.5,597.928532860624C883.75,597.928532860624,883.75,410.8414843268165,1175,410.8414843268165" stroke="#cccccc" stroke-width="35.64377734440237"/><title>offers → Offer: 806694</title></g><g style="mix-blend-mode: multiply;"><path d="M592.5,791.5314314494653C883.75,791.5314314494653,883.75,249.59674122447692,1175,249.59674122447692" stroke="#cccccc" stroke-width="27.186767643427018"/><title>primaryImageOfPage → ImageObject: 615294</title></g><g style="mix-blend-mode: multiply;"><path d="M592.5,209.32362806221158C883.75,209.32362806221158,883.75,174.9410299839961,1175,174.9410299839961" stroke="#cccccc" stroke-width="43.206526756255265"/><title>image → ImageObject: 977855</title></g><g style="mix-blend-mode: multiply;"><path d="M592.5,884.0860103177243C883.75,884.0860103177243,883.75,521.8251172020372,1175,521.8251172020372" stroke="#cccccc" stroke-width="22.26667911561611"/><title>seller → Organization: 503942</title></g><g style="mix-blend-mode: multiply;"><path d="M592.5,12.315089573259769C883.75,12.315089573259769,883.75,456.0159948398227,1175,456.0159948398227" stroke="#cccccc" stroke-width="24.63017914651931"/><title>about → Organization: 557433</title></g><g style="mix-blend-mode: multiply;"><path d="M592.5,558.3569046300888C883.75,558.3569046300888,883.75,870.6341385699576,1175,870.6341385699576" stroke="#cccccc" stroke-width="33.499479116668134"/><title>mainEntityOfPage → WebPage: 758164</title></g><g style="mix-blend-mode: multiply;"><path d="M592.5,960.3468138798772C883.75,960.3468138798772,883.75,634.5993339373705,1175,634.5993339373705" stroke="#cccccc" stroke-width="19.306372240245437"/><title>weight → QuantitativeValue: 436944</title></g><g style="mix-blend-mode: multiply;"><path d="M592.5,256.7284429125809C883.75,256.7284429125809,883.75,617.0819462179085,1175,617.0819462179085" stroke="#cccccc" stroke-width="15.728403198678658"/><title>inventoryLevel → QuantitativeValue: 355967</title></g><g style="mix-blend-mode: multiply;"><path d="M592.5,367.94740511730737C883.75,367.94740511730737,883.75,847.2736375961779,1175,847.2736375961779" stroke="#cccccc" stroke-width="13.221522830891104"/><title>item → WebPage: 299231</title></g><g style="mix-blend-mode: multiply;"><path d="M592.5,355.0101906924817C883.75,355.0101906924817,883.75,13.826453009380165,1175,13.826453009380165" stroke="#cccccc" stroke-width="12.652906018760216"/><title>item → : 286362</title></g><g style="mix-blend-mode: multiply;"><path d="M592.5,75.20094077236973C883.75,75.20094077236973,883.75,550.9996384982886,1175,550.9996384982886" stroke="#cccccc" stroke-width="26.082363476886375"/><title>author → Person: 590299</title></g><g style="mix-blend-mode: multiply;"><path d="M592.5,97.50188825139172C883.75,97.50188825139172,883.75,827.4281391406805,1175,827.4281391406805" stroke="#cccccc" stroke-width="8.519531481157594"/><title>brand → Thing: 192815</title></g><g style="mix-blend-mode: multiply;"><path d="M592.5,178.5451690405149C883.75,178.5451690405149,883.75,383.8444000110463,1175,383.8444000110463" stroke="#cccccc" stroke-width="8.350391287138088"/><title>hasMenuItem → MenuItem: 188987</title></g><g style="mix-blend-mode: multiply;"><path d="M592.5,239.89556637679038C883.75,239.89556637679038,883.75,272.15879998264165,1175,272.15879998264165" stroke="#cccccc" stroke-width="7.937349872902363"/><title>inLanguage → Language: 179639</title></g><g style="mix-blend-mode: multiply;"><path d="M592.5,48.446100739178426C883.75,48.446100739178426,883.75,595.504086323821,1175,595.504086323821" stroke="#cccccc" stroke-width="17.42731658949633"/><title>address → PostalAddress: 394417</title></g><g style="mix-blend-mode: multiply;"><path d="M592.5,864.3418501681266C883.75,864.3418501681266,883.75,662.4074589809309,1175,662.4074589809309" stroke="#cccccc" stroke-width="7.221641183579485"/><title>reviewRating → Rating: 163441</title></g><g style="mix-blend-mode: multiply;"><path d="M592.5,166.7221649599772C883.75,166.7221649599772,883.75,95.21568028467765,1175,95.21568028467765" stroke="#cccccc" stroke-width="5.295616873937291"/><title>contactPoint → ContactPoint: 119851</title></g><g style="mix-blend-mode: multiply;"><path d="M592.5,32.181310795474886C883.75,32.181310795474886,883.75,27.70403766771564,1175,27.70403766771564" stroke="#cccccc" stroke-width="5.102263297910812"/><title>acceptedAnswer → Answer: 115475</title></g><g style="mix-blend-mode: multiply;"><path d="M592.5,623.2691876665979C883.75,623.2691876665979,883.75,436.1821391327904,1175,436.1821391327904" stroke="#cccccc" stroke-width="5.0375322675454575"/><title>openingHoursSpecification → OpeningHoursSpecification: 114010</title></g><g style="mix-blend-mode: multiply;"><path d="M592.5,534.3351059059307C883.75,534.3351059059307,883.75,651.5245792233171,1175,651.5245792233171" stroke="#cccccc" stroke-width="4.544118331647903"/><title>mainEntity → Question: 102843</title></g><g style="mix-blend-mode: multiply;"><path d="M592.5,480.3519393403022C883.75,480.3519393403022,883.75,579.5383846699078,1175,579.5383846699078" stroke="#cccccc" stroke-width="4.504086718329806"/><title>location → Place: 101937</title></g><g style="mix-blend-mode: multiply;"><path d="M592.5,271.5801301616567C883.75,271.5801301616567,883.75,838.6753905309959,1175,838.6753905309959" stroke="#cccccc" stroke-width="3.9749712994730673"/><title>isPartOf → WebPage: 89962</title></g><g style="mix-blend-mode: multiply;"><path d="M592.5,854.1082690393313C883.75,854.1082690393313,883.75,570.6635807737373,1175,570.6635807737373" stroke="#cccccc" stroke-width="3.245521074011196"/><title>publisher → Person,Organization: 73453</title></g></g><g><text x="1171" y="13.826453009380145" text-anchor="end"><tspan alignment-baseline="middle" x="1171" style="font-family: Arial, sans-serif; font-size: 10px; fill: black; font-weight: bold;"/></text><text x="1171" y="27.704037667715625" text-anchor="end"><tspan alignment-baseline="middle" x="1171" style="font-family: Arial, sans-serif; font-size: 10px; fill: black; font-weight: bold;">Answer</tspan></text><text x="9" y="20.63958463466497" text-anchor="start"><tspan alignment-baseline="middle" x="9" style="font-family: Arial, sans-serif; font-size: 10px; fill: black; font-weight: bold;">Article</tspan></text><text x="9" y="53.67912284877548" text-anchor="start"><tspan alignment-baseline="middle" x="9" style="font-family: Arial, sans-serif; font-size: 10px; fill: black; font-weight: bold;">BlogPosting</tspan></text><text x="9" y="112.57658681366942" text-anchor="start"><tspan alignment-baseline="middle" x="9" style="font-family: Arial, sans-serif; font-size: 10px; fill: black; font-weight: bold;">BreadcrumbList</tspan></text><text x="1171" y="61.41152058219001" text-anchor="end"><tspan alignment-baseline="middle" x="1171" style="font-family: Arial, sans-serif; font-size: 10px; fill: black; font-weight: bold;">BreadcrumbList</tspan></text><text x="9" y="167.63218680262315" text-anchor="start"><tspan alignment-baseline="middle" x="9" style="font-family: Arial, sans-serif; font-size: 10px; fill: black; font-weight: bold;">CollectionPage</tspan></text><text x="1171" y="95.21568028467766" text-anchor="end"><tspan alignment-baseline="middle" x="1171" style="font-family: Arial, sans-serif; font-size: 10px; fill: black; font-weight: bold;">ContactPoint</tspan></text><text x="1171" y="125.6006276637574" text-anchor="end"><tspan alignment-baseline="middle" x="1171" style="font-family: Arial, sans-serif; font-size: 10px; fill: black; font-weight: bold;">EntryPoint</tspan></text><text x="9" y="190.9423197652934" text-anchor="start"><tspan alignment-baseline="middle" x="9" style="font-family: Arial, sans-serif; font-size: 10px; fill: black; font-weight: bold;">Event</tspan></text><text x="9" y="200.4664222902823" text-anchor="start"><tspan alignment-baseline="middle" x="9" style="font-family: Arial, sans-serif; font-size: 10px; fill: black; font-weight: bold;">FAQPage</tspan></text><text x="1171" y="208.26394582602947" text-anchor="end"><tspan alignment-baseline="middle" x="1171" style="font-family: Arial, sans-serif; font-size: 10px; fill: black; font-weight: bold;">ImageObject</tspan></text><text x="9" y="220.51183579485007" text-anchor="start"><tspan alignment-baseline="middle" x="9" style="font-family: Arial, sans-serif; font-size: 10px; fill: black; font-weight: bold;">ItemList</tspan></text><text x="1171" y="272.15879998264165" text-anchor="end"><tspan alignment-baseline="middle" x="1171" style="font-family: Arial, sans-serif; font-size: 10px; fill: black; font-weight: bold;">Language</tspan></text><text x="9" y="251.2224045584195" text-anchor="start"><tspan alignment-baseline="middle" x="9" style="font-family: Arial, sans-serif; font-size: 10px; fill: black; font-weight: bold;">ListItem</tspan></text><text x="1171" y="327.898339643285" text-anchor="end"><tspan alignment-baseline="middle" x="1171" style="font-family: Arial, sans-serif; font-size: 10px; fill: black; font-weight: bold;">ListItem</tspan></text><text x="9" y="275.43406624331465" text-anchor="start"><tspan alignment-baseline="middle" x="9" style="font-family: Arial, sans-serif; font-size: 10px; fill: black; font-weight: bold;">LocalBusiness</tspan></text><text x="9" y="290.248660181816" text-anchor="start"><tspan alignment-baseline="middle" x="9" style="font-family: Arial, sans-serif; font-size: 10px; fill: black; font-weight: bold;">MenuItem</tspan></text><text x="1171" y="383.8444000110463" text-anchor="end"><tspan alignment-baseline="middle" x="1171" style="font-family: Arial, sans-serif; font-size: 10px; fill: black; font-weight: bold;">MenuItem</tspan></text><text x="9" y="302.96400250381686" text-anchor="start"><tspan alignment-baseline="middle" x="9" style="font-family: Arial, sans-serif; font-size: 10px; fill: black; font-weight: bold;">MenuSection</tspan></text><text x="9" y="316.1078730838371" text-anchor="start"><tspan alignment-baseline="middle" x="9" style="font-family: Arial, sans-serif; font-size: 10px; fill: black; font-weight: bold;">MobileApplication</tspan></text><text x="9" y="344.07408917743567" text-anchor="start"><tspan alignment-baseline="middle" x="9" style="font-family: Arial, sans-serif; font-size: 10px; fill: black; font-weight: bold;">Offer</tspan></text><text x="1171" y="410.8414843268165" text-anchor="end"><tspan alignment-baseline="middle" x="1171" style="font-family: Arial, sans-serif; font-size: 10px; fill: black; font-weight: bold;">Offer</tspan></text><text x="1171" y="436.1821391327904" text-anchor="end"><tspan alignment-baseline="middle" x="1171" style="font-family: Arial, sans-serif; font-size: 10px; fill: black; font-weight: bold;">OpeningHoursSpecification</tspan></text><text x="9" y="403.9315386243999" text-anchor="start"><tspan alignment-baseline="middle" x="9" style="font-family: Arial, sans-serif; font-size: 10px; fill: black; font-weight: bold;">Organization</tspan></text><text x="1171" y="488.3296810132042" text-anchor="end"><tspan alignment-baseline="middle" x="1171" style="font-family: Arial, sans-serif; font-size: 10px; fill: black; font-weight: bold;">Organization</tspan></text><text x="9" y="447.8223835179416" text-anchor="start"><tspan alignment-baseline="middle" x="9" style="font-family: Arial, sans-serif; font-size: 10px; fill: black; font-weight: bold;">Person</tspan></text><text x="1171" y="550.9996384982885" text-anchor="end"><tspan alignment-baseline="middle" x="1171" style="font-family: Arial, sans-serif; font-size: 10px; fill: black; font-weight: bold;">Person</tspan></text><text x="1171" y="570.6635807737373" text-anchor="end"><tspan alignment-baseline="middle" x="1171" style="font-family: Arial, sans-serif; font-size: 10px; fill: black; font-weight: bold;">Person,Organization</tspan></text><text x="9" y="459.2168151554563" text-anchor="start"><tspan alignment-baseline="middle" x="9" style="font-family: Arial, sans-serif; font-size: 10px; fill: black; font-weight: bold;">Place</tspan></text><text x="1171" y="579.5383846699078" text-anchor="end"><tspan alignment-baseline="middle" x="1171" style="font-family: Arial, sans-serif; font-size: 10px; fill: black; font-weight: bold;">Place</tspan></text><text x="1171" y="595.504086323821" text-anchor="end"><tspan alignment-baseline="middle" x="1171" style="font-family: Arial, sans-serif; font-size: 10px; fill: black; font-weight: bold;">PostalAddress</tspan></text><text x="9" y="505.5818656065773" text-anchor="start"><tspan alignment-baseline="middle" x="9" style="font-family: Arial, sans-serif; font-size: 10px; fill: black; font-weight: bold;">Product</tspan></text><text x="1171" y="626.7351323380311" text-anchor="end"><tspan alignment-baseline="middle" x="1171" style="font-family: Arial, sans-serif; font-size: 10px; fill: black; font-weight: bold;">QuantitativeValue</tspan></text><text x="9" y="551.134552672864" text-anchor="start"><tspan alignment-baseline="middle" x="9" style="font-family: Arial, sans-serif; font-size: 10px; fill: black; font-weight: bold;">Question</tspan></text><text x="1171" y="651.5245792233171" text-anchor="end"><tspan alignment-baseline="middle" x="1171" style="font-family: Arial, sans-serif; font-size: 10px; fill: black; font-weight: bold;">Question</tspan></text><text x="1171" y="662.4074589809309" text-anchor="end"><tspan alignment-baseline="middle" x="1171" style="font-family: Arial, sans-serif; font-size: 10px; fill: black; font-weight: bold;">Rating</tspan></text><text x="1171" y="696.0638198461678" text-anchor="end"><tspan alignment-baseline="middle" x="1171" style="font-family: Arial, sans-serif; font-size: 10px; fill: black; font-weight: bold;">ReadAction</tspan></text><text x="9" y="565.6731670784902" text-anchor="start"><tspan alignment-baseline="middle" x="9" style="font-family: Arial, sans-serif; font-size: 10px; fill: black; font-weight: bold;">Review</tspan></text><text x="9" y="600.3977887772721" text-anchor="start"><tspan alignment-baseline="middle" x="9" style="font-family: Arial, sans-serif; font-size: 10px; fill: black; font-weight: bold;">SearchAction</tspan></text><text x="1171" y="772.1388667598584" text-anchor="end"><tspan alignment-baseline="middle" x="1171" style="font-family: Arial, sans-serif; font-size: 10px; fill: black; font-weight: bold;">SearchAction</tspan></text><text x="1171" y="827.4281391406805" text-anchor="end"><tspan alignment-baseline="middle" x="1171" style="font-family: Arial, sans-serif; font-size: 10px; fill: black; font-weight: bold;">Thing</tspan></text><text x="9" y="726.6163859297064" text-anchor="start"><tspan alignment-baseline="middle" x="9" style="font-family: Arial, sans-serif; font-size: 10px; fill: black; font-weight: bold;">WebPage</tspan></text><text x="1171" y="862.0358915047755" text-anchor="end"><tspan alignment-baseline="middle" x="1171" style="font-family: Arial, sans-serif; font-size: 10px; fill: black; font-weight: bold;">WebPage</tspan></text><text x="9" y="893.7989220700149" text-anchor="start"><tspan alignment-baseline="middle" x="9" style="font-family: Arial, sans-serif; font-size: 10px; fill: black; font-weight: bold;">WebSite</tspan></text><text x="1171" y="927.4419390641458" text-anchor="end"><tspan alignment-baseline="middle" x="1171" style="font-family: Arial, sans-serif; font-size: 10px; fill: black; font-weight: bold;">WebSite</tspan></text><text x="596.5" y="12.315089573259797" text-anchor="start"><tspan alignment-baseline="middle" x="596.5" style="font-family: Arial, sans-serif; font-size: 10px; fill: black; font-weight: bold;">about</tspan></text><text x="596.5" y="32.18131079547487" text-anchor="start"><tspan alignment-baseline="middle" x="596.5" style="font-family: Arial, sans-serif; font-size: 10px; fill: black; font-weight: bold;">acceptedAnswer</tspan></text><text x="596.5" y="48.446100739178405" text-anchor="start"><tspan alignment-baseline="middle" x="596.5" style="font-family: Arial, sans-serif; font-size: 10px; fill: black; font-weight: bold;">address</tspan></text><text x="596.5" y="75.20094077236973" text-anchor="start"><tspan alignment-baseline="middle" x="596.5" style="font-family: Arial, sans-serif; font-size: 10px; fill: black; font-weight: bold;">author</tspan></text><text x="596.5" y="97.50188825139173" text-anchor="start"><tspan alignment-baseline="middle" x="596.5" style="font-family: Arial, sans-serif; font-size: 10px; fill: black; font-weight: bold;">brand</tspan></text><text x="596.5" y="132.91800525748954" text-anchor="start"><tspan alignment-baseline="middle" x="596.5" style="font-family: Arial, sans-serif; font-size: 10px; fill: black; font-weight: bold;">breadcrumb</tspan></text><text x="596.5" y="166.7221649599772" text-anchor="start"><tspan alignment-baseline="middle" x="596.5" style="font-family: Arial, sans-serif; font-size: 10px; fill: black; font-weight: bold;">contactPoint</tspan></text><text x="596.5" y="178.5451690405149" text-anchor="start"><tspan alignment-baseline="middle" x="596.5" style="font-family: Arial, sans-serif; font-size: 10px; fill: black; font-weight: bold;">hasMenuItem</tspan></text><text x="596.5" y="209.32362806221158" text-anchor="start"><tspan alignment-baseline="middle" x="596.5" style="font-family: Arial, sans-serif; font-size: 10px; fill: black; font-weight: bold;">image</tspan></text><text x="596.5" y="239.89556637679038" text-anchor="start"><tspan alignment-baseline="middle" x="596.5" style="font-family: Arial, sans-serif; font-size: 10px; fill: black; font-weight: bold;">inLanguage</tspan></text><text x="596.5" y="256.7284429125809" text-anchor="start"><tspan alignment-baseline="middle" x="596.5" style="font-family: Arial, sans-serif; font-size: 10px; fill: black; font-weight: bold;">inventoryLevel</tspan></text><text x="596.5" y="306.6381910975109" text-anchor="start"><tspan alignment-baseline="middle" x="596.5" style="font-family: Arial, sans-serif; font-size: 10px; fill: black; font-weight: bold;">isPartOf</tspan></text><text x="596.5" y="361.6209521079272" text-anchor="start"><tspan alignment-baseline="middle" x="596.5" style="font-family: Arial, sans-serif; font-size: 10px; fill: black; font-weight: bold;">item</tspan></text><text x="596.5" y="426.3290312569451" text-anchor="start"><tspan alignment-baseline="middle" x="596.5" style="font-family: Arial, sans-serif; font-size: 10px; fill: black; font-weight: bold;">itemListElement</tspan></text><text x="596.5" y="480.3519393403022" text-anchor="start"><tspan alignment-baseline="middle" x="596.5" style="font-family: Arial, sans-serif; font-size: 10px; fill: black; font-weight: bold;">location</tspan></text><text x="596.5" y="507.33351471978693" text-anchor="start"><tspan alignment-baseline="middle" x="596.5" style="font-family: Arial, sans-serif; font-size: 10px; fill: black; font-weight: bold;">logo</tspan></text><text x="596.5" y="534.3351059059307" text-anchor="start"><tspan alignment-baseline="middle" x="596.5" style="font-family: Arial, sans-serif; font-size: 10px; fill: black; font-weight: bold;">mainEntity</tspan></text><text x="596.5" y="558.3569046300888" text-anchor="start"><tspan alignment-baseline="middle" x="596.5" style="font-family: Arial, sans-serif; font-size: 10px; fill: black; font-weight: bold;">mainEntityOfPage</tspan></text><text x="596.5" y="597.928532860624" text-anchor="start"><tspan alignment-baseline="middle" x="596.5" style="font-family: Arial, sans-serif; font-size: 10px; fill: black; font-weight: bold;">offers</tspan></text><text x="596.5" y="623.2691876665979" text-anchor="start"><tspan alignment-baseline="middle" x="596.5" style="font-family: Arial, sans-serif; font-size: 10px; fill: black; font-weight: bold;">openingHoursSpecification</tspan></text><text x="596.5" y="701.8630007140612" text-anchor="start"><tspan alignment-baseline="middle" x="596.5" style="font-family: Arial, sans-serif; font-size: 10px; fill: black; font-weight: bold;">potentialAction</tspan></text><text x="596.5" y="791.5314314494653" text-anchor="start"><tspan alignment-baseline="middle" x="596.5" style="font-family: Arial, sans-serif; font-size: 10px; fill: black; font-weight: bold;">primaryImageOfPage</tspan></text><text x="596.5" y="832.9279224237579" text-anchor="start"><tspan alignment-baseline="middle" x="596.5" style="font-family: Arial, sans-serif; font-size: 10px; fill: black; font-weight: bold;">publisher</tspan></text><text x="596.5" y="864.3418501681265" text-anchor="start"><tspan alignment-baseline="middle" x="596.5" style="font-family: Arial, sans-serif; font-size: 10px; fill: black; font-weight: bold;">reviewRating</tspan></text><text x="596.5" y="884.0860103177242" text-anchor="start"><tspan alignment-baseline="middle" x="596.5" style="font-family: Arial, sans-serif; font-size: 10px; fill: black; font-weight: bold;">seller</tspan></text><text x="596.5" y="922.9564888176434" text-anchor="start"><tspan alignment-baseline="middle" x="596.5" style="font-family: Arial, sans-serif; font-size: 10px; fill: black; font-weight: bold;">target</tspan></text><text x="596.5" y="960.3468138798771" text-anchor="start"><tspan alignment-baseline="middle" x="596.5" style="font-family: Arial, sans-serif; font-size: 10px; fill: black; font-weight: bold;">weight</tspan></text></g><g><text x="1177.5" y="3.500000000000057" text-anchor="middle" style="font-family: Arial, sans-serif; font-size: 12px; fill: rgb(123, 123, 123); font-weight: bold;">_to</text><text x="2.5" y="8.5" text-anchor="middle" style="font-family: Arial, sans-serif; font-size: 12px; fill: rgb(123, 123, 123); font-weight: bold;">_from</text><text x="590" y="-3.9999999999998863" text-anchor="middle" style="font-family: Arial, sans-serif; font-size: 12px; fill: rgb(123, 123, 123); font-weight: bold;">relationship</text></g></g></svg>